<svg width="147" height="160" viewBox="0 0 147 160" fill="none" xmlns="http://www.w3.org/2000/svg">
<path d="M23.5037 30.0552H4.09452C3.46829 23.1678 3.48971 21.7219 6.59886 16.2812C11.6078 7.51597 22.8777 9.39363 23.5037 21.9158V30.0552Z" fill="#69757B"/>
<path d="M15.3643 11.2716C6.8563 10.664 4.3032 24.0023 4.0945 30.0547H0.337891C0.337891 13.7759 10.3555 6.2627 17.2426 6.2627H111.784C124.932 6.2627 124.932 23.7936 124.932 33.1852V41.3244V155.901H26.6342C21.1245 152.896 19.7471 148.388 19.7471 142.753L23.5037 33.1852C23.5037 25.0458 24.1298 11.8976 15.3643 11.2716Z" fill="#C6CED1"/>
<path fill-rule="evenodd" clip-rule="evenodd" d="M39.7832 66.3684C39.7832 65.6768 40.3438 65.1162 41.0354 65.1162H100.515C101.207 65.1162 101.767 65.6768 101.767 66.3684C101.767 67.06 101.207 67.6206 100.515 67.6206H41.0354C40.3438 67.6206 39.7832 67.06 39.7832 66.3684Z" fill="#69757B"/>
<path fill-rule="evenodd" clip-rule="evenodd" d="M39.1562 101.43C39.1562 100.738 39.7169 100.178 40.4085 100.178H99.8882C100.58 100.178 101.14 100.738 101.14 101.43C101.14 102.122 100.58 102.682 99.8882 102.682H40.4085C39.7169 102.682 39.1562 102.122 39.1562 101.43Z" fill="#69757B"/>
<path fill-rule="evenodd" clip-rule="evenodd" d="M39.1562 115.204C39.1562 114.513 39.7169 113.952 40.4085 113.952H77.3485C78.0401 113.952 78.6007 114.513 78.6007 115.204C78.6007 115.896 78.0401 116.457 77.3485 116.457H40.4085C39.7169 116.457 39.1562 115.896 39.1562 115.204Z" fill="#69757B"/>
<path fill-rule="evenodd" clip-rule="evenodd" d="M39.1562 87.6555C39.1562 86.964 39.7169 86.4033 40.4085 86.4033H77.3485C78.0401 86.4033 78.6007 86.964 78.6007 87.6555C78.6007 88.3471 78.0401 88.9077 77.3485 88.9077H40.4085C39.7169 88.9077 39.1562 88.3471 39.1562 87.6555Z" fill="#69757B"/>
<path d="M144.342 20.0372C144.342 31.1024 135.372 40.0725 124.307 40.0725C113.242 40.0725 104.271 31.1024 104.271 20.0372C104.271 8.97205 113.242 0.00195312 124.307 0.00195312C135.372 0.00195312 144.342 8.97205 144.342 20.0372Z" fill="#69757B"/>
<path d="M141.988 158.088C137.606 160.715 126.336 160.715 121.953 157.612V155.706C126.203 157.612 136.353 157.584 141.988 156.332V158.088Z" fill="#8F6E0D"/>
<path d="M121.953 155.706C131.345 154.454 141.988 156.332 141.988 156.332C141.988 156.332 131.345 160.089 121.953 155.706Z" fill="#FFA300"/>
<path d="M140.736 156.836C136.354 159.463 125.084 159.463 120.701 156.36V154.454C124.951 156.36 135.102 156.332 140.736 155.08V156.836Z" fill="#8F6E0D"/>
<path d="M120.701 154.454C130.093 153.202 140.736 155.08 140.736 155.08C140.736 155.08 130.093 158.837 120.701 154.454Z" fill="#FFA300"/>
<path d="M141.988 154.331C137.606 156.958 126.336 156.958 121.953 153.855V151.949C126.203 153.855 136.353 153.828 141.988 152.575V154.331Z" fill="#8F6E0D"/>
<path d="M121.953 151.949C131.345 150.697 141.988 152.575 141.988 152.575C141.988 152.575 131.345 156.332 121.953 151.949Z" fill="#FFA300"/>
<path d="M120.698 151.049C124.864 154.007 136.1 154.88 140.71 152.125L140.857 150.226C136.473 151.796 126.355 150.983 120.834 149.299L120.698 151.049Z" fill="#8F6E0D"/>
<path d="M140.857 150.226C131.591 148.25 120.834 149.299 120.834 149.299C120.834 149.299 131.155 153.868 140.857 150.226Z" fill="#FFA300"/>
<path d="M142.051 149.322C137.734 152.055 126.467 152.332 122.01 149.338L121.963 147.433C126.258 149.233 136.405 148.957 142.007 147.566L142.051 149.322Z" fill="#8F6E0D"/>
<path d="M121.964 147.432C131.322 145.95 142.008 147.566 142.008 147.566C142.008 147.566 131.46 151.583 121.964 147.432Z" fill="#FFA300"/>
<path d="M141.988 146.819C137.606 149.445 126.336 149.445 121.953 146.342V144.437C126.203 146.342 136.353 146.315 141.988 145.063V146.819Z" fill="#8F6E0D"/>
<path d="M121.953 144.436C131.345 143.184 141.988 145.062 141.988 145.062C141.988 145.062 131.345 148.819 121.953 144.436Z" fill="#FFA300"/>
<path d="M140.736 145.567C136.354 148.193 125.084 148.193 120.701 145.09V143.185C124.951 145.09 135.102 145.063 140.736 143.811V145.567Z" fill="#8F6E0D"/>
<path d="M120.701 143.184C130.093 141.932 140.736 143.81 140.736 143.81C140.736 143.81 130.093 147.567 120.701 143.184Z" fill="#FFA300"/>
<path d="M141.988 143.062C137.606 145.689 126.336 145.689 121.953 142.585V140.68C126.203 142.585 136.353 142.558 141.988 141.306V143.062Z" fill="#8F6E0D"/>
<path d="M121.953 140.679C131.345 139.427 141.988 141.306 141.988 141.306C141.988 141.306 131.345 145.062 121.953 140.679Z" fill="#FFA300"/>
<path d="M120.698 139.78C124.864 142.738 136.1 143.61 140.71 140.856L140.857 138.956C136.473 140.527 126.355 139.714 120.834 138.029L120.698 139.78Z" fill="#8F6E0D"/>
<path d="M140.857 138.957C131.591 136.981 120.834 138.029 120.834 138.029C120.834 138.029 131.155 142.599 140.857 138.957Z" fill="#FFA300"/>
<path d="M142.051 138.052C137.734 140.786 126.467 141.063 122.01 138.068L121.963 136.163C126.258 137.964 136.405 137.687 142.007 136.297L142.051 138.052Z" fill="#8F6E0D"/>
<path d="M121.964 136.163C131.322 134.68 142.008 136.296 142.008 136.296C142.008 136.296 131.46 140.313 121.964 136.163Z" fill="#FFA300"/>
<path d="M123.164 136.801C127.547 139.428 138.817 139.428 143.199 136.325V134.419C138.949 136.325 128.799 136.297 123.164 135.045V136.801Z" fill="#8F6E0D"/>
<path d="M143.199 134.419C133.808 133.167 123.164 135.045 123.164 135.045C123.164 135.045 133.808 138.801 143.199 134.419Z" fill="#FFA300"/>
<path d="M124.416 135.548C128.799 138.175 140.068 138.175 144.451 135.072V133.166C140.201 135.072 130.051 135.044 124.416 133.792V135.548Z" fill="#8F6E0D"/>
<path d="M144.451 133.166C135.06 131.914 124.416 133.792 124.416 133.792C124.416 133.792 135.06 137.549 144.451 133.166Z" fill="#FFA300"/>
<path d="M123.164 133.044C127.547 135.671 138.817 135.671 143.199 132.568V130.662C138.949 132.568 128.799 132.54 123.164 131.288V133.044Z" fill="#8F6E0D"/>
<path d="M143.199 130.662C133.808 129.41 123.164 131.288 123.164 131.288C123.164 131.288 133.808 135.045 143.199 130.662Z" fill="#FFA300"/>
<path d="M144.456 129.762C140.29 132.72 129.054 133.593 124.444 130.838L124.297 128.938C128.682 130.509 138.799 129.696 144.32 128.011L144.456 129.762Z" fill="#8F6E0D"/>
<path d="M124.297 128.939C133.563 126.963 144.321 128.012 144.321 128.012C144.321 128.012 134 132.581 124.297 128.939Z" fill="#FFA300"/>
<path d="M123.102 128.035C127.419 130.768 138.685 131.045 143.143 128.051L143.189 126.146C138.894 127.946 128.747 127.67 123.145 126.279L123.102 128.035Z" fill="#8F6E0D"/>
<path d="M143.189 126.145C133.831 124.663 123.144 126.279 123.144 126.279C123.144 126.279 133.692 130.296 143.189 126.145Z" fill="#FFA300"/>
<path d="M101.877 155.583C106.26 158.21 117.529 158.21 121.912 155.107V153.201C117.662 155.107 107.512 155.079 101.877 153.827V155.583Z" fill="#8F6E0D"/>
<path d="M121.912 153.201C112.521 151.949 101.877 153.827 101.877 153.827C101.877 153.827 112.521 157.584 121.912 153.201Z" fill="#FFA300"/>
<path d="M103.129 154.331C107.512 156.958 118.781 156.958 123.164 153.855V151.949C118.914 153.855 108.764 153.828 103.129 152.575V154.331Z" fill="#8F6E0D"/>
<path d="M123.164 151.949C113.773 150.697 103.129 152.575 103.129 152.575C103.129 152.575 113.773 156.332 123.164 151.949Z" fill="#FFA300"/>
<path d="M101.877 151.826C106.26 154.453 117.529 154.453 121.912 151.35V149.444C117.662 151.35 107.512 151.323 101.877 150.07V151.826Z" fill="#8F6E0D"/>
<path d="M121.912 149.444C112.521 148.192 101.877 150.07 101.877 150.07C101.877 150.07 112.521 153.827 121.912 149.444Z" fill="#FFA300"/>
<path d="M123.167 148.544C119.001 151.503 107.765 152.375 103.155 149.621L103.008 147.721C107.393 149.292 117.51 148.478 123.031 146.794L123.167 148.544Z" fill="#8F6E0D"/>
<path d="M103.008 147.721C112.274 145.746 123.032 146.794 123.032 146.794C123.032 146.794 112.711 151.364 103.008 147.721Z" fill="#FFA300"/>
<path d="M101.815 146.817C106.131 149.551 117.398 149.827 121.856 146.833L121.902 144.928C117.607 146.728 107.46 146.452 101.858 145.061L101.815 146.817Z" fill="#8F6E0D"/>
<path d="M121.902 144.927C112.544 143.445 101.857 145.061 101.857 145.061C101.857 145.061 112.405 149.078 121.902 144.927Z" fill="#FFA300"/>
<path d="M101.877 144.314C106.26 146.94 117.529 146.94 121.912 143.837V141.932C117.662 143.837 107.512 143.81 101.877 142.558V144.314Z" fill="#8F6E0D"/>
<path d="M121.912 141.931C112.521 140.679 101.877 142.558 101.877 142.558C101.877 142.558 112.521 146.314 121.912 141.931Z" fill="#FFA300"/>
<path d="M103.129 143.062C107.512 145.689 118.781 145.689 123.164 142.585V140.68C118.914 142.585 108.764 142.558 103.129 141.306V143.062Z" fill="#8F6E0D"/>
<path d="M123.164 140.679C113.773 139.427 103.129 141.306 103.129 141.306C103.129 141.306 113.773 145.062 123.164 140.679Z" fill="#FFA300"/>
<path d="M101.877 140.557C106.26 143.184 117.529 143.184 121.912 140.08V138.175C117.662 140.08 107.512 140.053 101.877 138.801V140.557Z" fill="#8F6E0D"/>
<path d="M121.912 138.175C112.521 136.922 101.877 138.801 101.877 138.801C101.877 138.801 112.521 142.557 121.912 138.175Z" fill="#FFA300"/>
<path d="M123.167 137.275C119.001 140.233 107.765 141.106 103.155 138.351L103.008 136.451C107.393 138.022 117.51 137.209 123.031 135.524L123.167 137.275Z" fill="#8F6E0D"/>
<path d="M103.008 136.452C112.274 134.476 123.032 135.525 123.032 135.525C123.032 135.525 112.711 140.094 103.008 136.452Z" fill="#FFA300"/>
<path d="M101.815 135.547C106.131 138.281 117.398 138.558 121.856 135.563L121.902 133.658C117.607 135.459 107.46 135.182 101.858 133.792L101.815 135.547Z" fill="#8F6E0D"/>
<path d="M121.902 133.658C112.544 132.175 101.857 133.792 101.857 133.792C101.857 133.792 112.405 137.809 121.902 133.658Z" fill="#FFA300"/>
<path d="M120.701 134.296C116.319 136.923 105.049 136.923 100.666 133.82V131.914C104.916 133.82 115.066 133.792 120.701 132.54V134.296Z" fill="#8F6E0D"/>
<path d="M100.666 131.914C110.058 130.662 120.701 132.54 120.701 132.54C120.701 132.54 110.058 136.297 100.666 131.914Z" fill="#FFA300"/>
<path d="M119.449 133.044C115.067 135.671 103.797 135.671 99.4141 132.568V130.662C103.664 132.568 113.814 132.54 119.449 131.288V133.044Z" fill="#8F6E0D"/>
<path d="M99.4141 130.662C108.806 129.41 119.449 131.288 119.449 131.288C119.449 131.288 108.806 135.045 99.4141 130.662Z" fill="#FFA300"/>
<path d="M120.701 130.539C116.319 133.166 105.049 133.166 100.666 130.063V128.157C104.916 130.063 115.066 130.036 120.701 128.783V130.539Z" fill="#8F6E0D"/>
<path d="M100.666 128.157C110.058 126.905 120.701 128.783 120.701 128.783C120.701 128.783 110.058 132.54 100.666 128.157Z" fill="#FFA300"/>
<path d="M99.4088 127.257C103.575 130.215 114.811 131.088 119.421 128.333L119.568 126.434C115.184 128.004 105.066 127.191 99.5448 125.507L99.4088 127.257Z" fill="#8F6E0D"/>
<path d="M119.568 126.434C110.302 124.458 99.5446 125.507 99.5446 125.507C99.5446 125.507 109.866 130.076 119.568 126.434Z" fill="#FFA300"/>
<path d="M120.764 125.53C116.447 128.263 105.18 128.54 100.723 125.546L100.676 123.641C104.971 125.441 115.118 125.165 120.72 123.774L120.764 125.53Z" fill="#8F6E0D"/>
<path d="M100.677 123.64C110.035 122.158 120.721 123.774 120.721 123.774C120.721 123.774 110.173 127.791 100.677 123.64Z" fill="#FFA300"/>
<path d="M100.005 123.014C104.232 125.884 115.483 126.522 120.035 123.672L120.143 121.77C115.792 123.432 105.659 122.83 100.104 121.261L100.005 123.014Z" fill="#8F6E0D"/>
<path d="M120.142 121.77C110.836 119.988 100.103 121.261 100.103 121.261C100.103 121.261 110.517 125.614 120.142 121.77Z" fill="#FFA300"/>
<path d="M101.325 121.834C105.552 124.705 116.804 125.343 121.355 122.492L121.463 120.59C117.112 122.252 106.979 121.65 101.424 120.081L101.325 121.834Z" fill="#8F6E0D"/>
<path d="M121.462 120.59C112.156 118.808 101.423 120.081 101.423 120.081C101.423 120.081 111.837 124.434 121.462 120.59Z" fill="#FFA300"/>
<path d="M100.217 119.263C104.445 122.133 115.696 122.771 120.248 119.921L120.355 118.019C116.005 119.681 105.872 119.079 100.317 117.51L100.217 119.263Z" fill="#8F6E0D"/>
<path d="M120.355 118.019C111.049 116.237 100.316 117.51 100.316 117.51C100.316 117.51 110.73 121.863 120.355 118.019Z" fill="#FFA300"/>
<path d="M121.661 117.193C117.334 119.911 106.066 120.146 101.62 117.135L101.58 115.229C105.869 117.046 116.016 116.807 121.624 115.437L121.661 117.193Z" fill="#8F6E0D"/>
<path d="M101.579 115.229C110.943 113.781 121.623 115.437 121.623 115.437C121.623 115.437 111.06 119.415 101.579 115.229Z" fill="#FFA300"/>
<path d="M100.435 114.258C104.59 117.232 115.823 118.146 120.443 115.408L120.598 113.509C116.207 115.063 106.092 114.213 100.578 112.508L100.435 114.258Z" fill="#8F6E0D"/>
<path d="M120.598 113.509C111.339 111.499 100.578 112.508 100.578 112.508C100.578 112.508 110.882 117.116 120.598 113.509Z" fill="#FFA300"/>
<path d="M139.751 111.817C139.751 116.427 136.013 120.165 131.403 120.165C126.792 120.165 123.055 116.427 123.055 111.817C123.055 107.206 126.792 103.469 131.403 103.469C136.013 103.469 139.751 107.206 139.751 111.817Z" fill="#69757B"/>
<path d="M141.839 111.817C141.839 116.427 138.101 120.165 133.491 120.165C128.88 120.165 125.143 116.427 125.143 111.817C125.143 107.206 128.88 103.469 133.491 103.469C138.101 103.469 141.839 107.206 141.839 111.817Z" fill="#FFA300"/>
<path d="M135.981 113.712C135.981 114.267 135.773 114.725 135.357 115.088C134.941 115.447 134.36 115.673 133.614 115.767V117.185H132.826V115.822C132.369 115.822 131.927 115.787 131.499 115.718C131.071 115.644 130.72 115.545 130.447 115.418V114.464C130.786 114.615 131.175 114.74 131.615 114.837C132.059 114.931 132.463 114.978 132.826 114.978V112.288C131.99 112.023 131.403 111.715 131.065 111.364C130.731 111.014 130.563 110.561 130.563 110.007C130.563 109.473 130.769 109.035 131.181 108.693C131.597 108.35 132.145 108.142 132.826 108.069V106.956H133.614V108.057C134.364 108.077 135.088 108.228 135.785 108.509L135.467 109.31C134.86 109.07 134.242 108.927 133.614 108.882V111.536C134.254 111.739 134.733 111.939 135.051 112.135C135.369 112.326 135.604 112.549 135.754 112.801C135.905 113.05 135.981 113.354 135.981 113.712ZM134.941 113.792C134.941 113.498 134.85 113.262 134.666 113.083C134.487 112.899 134.136 112.718 133.614 112.538V114.917C134.499 114.795 134.941 114.42 134.941 113.792ZM131.597 109.995C131.597 110.305 131.688 110.553 131.872 110.741C132.055 110.928 132.373 111.106 132.826 111.273V108.907C132.422 108.972 132.116 109.1 131.909 109.292C131.701 109.479 131.597 109.714 131.597 109.995Z" fill="#754C04"/>
<path d="M134.741 91.7816C134.741 96.3921 131.003 100.13 126.393 100.13C121.782 100.13 118.045 96.3921 118.045 91.7816C118.045 87.1711 121.782 83.4336 126.393 83.4336C131.003 83.4336 134.741 87.1711 134.741 91.7816Z" fill="#69757B"/>
<path d="M136.829 91.7816C136.829 96.3921 133.091 100.13 128.481 100.13C123.87 100.13 120.133 96.3921 120.133 91.7816C120.133 87.1711 123.87 83.4336 128.481 83.4336C133.091 83.4336 136.829 87.1711 136.829 91.7816Z" fill="#FFA300"/>
<path d="M130.971 93.6772C130.971 94.2315 130.763 94.6901 130.347 95.0529C129.931 95.4116 129.351 95.6378 128.605 95.7316V97.1501H127.816V95.7866C127.359 95.7866 126.917 95.752 126.489 95.6827C126.061 95.6093 125.711 95.5094 125.438 95.3831V94.4292C125.776 94.5801 126.165 94.7044 126.605 94.8022C127.05 94.896 127.453 94.9428 127.816 94.9428V92.2525C126.98 91.9876 126.393 91.6798 126.055 91.3293C125.721 90.9787 125.554 90.5263 125.554 89.9719C125.554 89.4379 125.76 88.9998 126.171 88.6574C126.587 88.315 127.135 88.1071 127.816 88.0337V86.9209H128.605V88.0215C129.355 88.0418 130.078 88.1927 130.775 88.4739L130.457 89.2749C129.85 89.0344 129.232 88.8917 128.605 88.8469V91.5005C129.245 91.7043 129.724 91.904 130.042 92.0997C130.359 92.2913 130.594 92.5134 130.745 92.7661C130.896 93.0148 130.971 93.3185 130.971 93.6772ZM129.931 93.7567C129.931 93.4632 129.84 93.2268 129.656 93.0474C129.477 92.864 129.126 92.6826 128.605 92.5032V94.8817C129.489 94.7594 129.931 94.3844 129.931 93.7567ZM126.587 89.9597C126.587 90.2695 126.679 90.5181 126.862 90.7056C127.046 90.8931 127.363 91.0705 127.816 91.2376V88.8714C127.412 88.9366 127.107 89.065 126.899 89.2566C126.691 89.4441 126.587 89.6784 126.587 89.9597Z" fill="#754C04"/>
<path d="M31.9205 74.0784C31.9205 81.7626 25.6913 87.9918 18.0071 87.9918C10.323 87.9918 4.09375 81.7626 4.09375 74.0784C4.09375 66.3943 10.323 60.165 18.0071 60.165C25.6913 60.165 31.9205 66.3943 31.9205 74.0784Z" fill="#69757B"/>
<path d="M35.399 74.0784C35.399 81.7626 29.1698 87.9918 21.4856 87.9918C13.8015 87.9918 7.57227 81.7626 7.57227 74.0784C7.57227 66.3943 13.8015 60.165 21.4856 60.165C29.1698 60.165 35.399 66.3943 35.399 74.0784Z" fill="#FFA300"/>
<path d="M25.455 77.0024C25.455 77.8894 25.1224 78.6231 24.4572 79.2036C23.792 79.7775 22.8626 80.1395 21.6691 80.2895V82.5591H20.4071V80.3775C19.6766 80.3775 18.969 80.3221 18.2842 80.2112C17.5994 80.0938 17.0385 79.934 16.6016 79.7318V78.2057C17.1429 78.447 17.7657 78.6459 18.4701 78.8025C19.181 78.9525 19.8266 79.0275 20.4071 79.0275V74.723C19.0701 74.2991 18.1309 73.8067 17.5896 73.2458C17.0548 72.6849 16.7874 71.961 16.7874 71.074C16.7874 70.2197 17.1168 69.5186 17.7755 68.9707C18.4407 68.4229 19.3179 68.0903 20.4071 67.9729V66.1924H21.6691V67.9533C22.8691 67.9859 24.0267 68.2272 25.142 68.6772L24.6333 69.9588C23.6615 69.574 22.6734 69.3457 21.6691 69.274V73.5197C22.693 73.8458 23.4593 74.1654 23.968 74.4785C24.4768 74.785 24.8518 75.1404 25.0931 75.5448C25.3344 75.9426 25.455 76.4285 25.455 77.0024ZM23.792 77.1296C23.792 76.66 23.6452 76.2818 23.3517 75.9948C23.0648 75.7013 22.5039 75.4111 21.6691 75.1241V78.9296C23.0843 78.734 23.792 78.134 23.792 77.1296ZM18.4407 71.0545C18.4407 71.5501 18.5875 71.948 18.881 72.248C19.1745 72.548 19.6832 72.8317 20.4071 73.0991V69.3131C19.7614 69.4175 19.2723 69.6229 18.9397 69.9294C18.607 70.2294 18.4407 70.6044 18.4407 71.0545Z" fill="#754C04"/>
<path d="M146.846 22.5421C146.846 33.6073 137.876 42.5774 126.811 42.5774C115.745 42.5774 106.775 33.6073 106.775 22.5421C106.775 11.4769 115.745 2.50684 126.811 2.50684C137.876 2.50684 146.846 11.4769 146.846 22.5421Z" fill="#1EB84C"/>
<path d="M85.7735 52.373H60.4434C60.4434 45.9163 62.9267 37.2246 73.1084 37.2246C82.5452 37.2246 85.7735 45.5438 85.7735 52.373Z" fill="#165C7D"/>
<path fill-rule="evenodd" clip-rule="evenodd" d="M62.6413 42.1758C64.6037 39.0875 67.8894 36.8486 73.1091 36.8486C77.958 36.8486 81.2383 38.9952 83.2915 42.0269C85.3324 45.0405 86.1498 48.9081 86.1498 52.3727C86.1498 52.5802 85.9817 52.7484 85.7742 52.7484H60.444C60.2365 52.7484 60.0684 52.5802 60.0684 52.3727C60.0684 49.1071 60.6946 45.2395 62.6413 42.1758ZM60.8225 51.9971H85.3952C85.3379 48.7345 84.5301 45.1958 82.6694 42.4482C80.7492 39.613 77.6969 37.6 73.1091 37.6C68.1471 37.6 65.1003 39.7069 63.2755 42.5787C61.5069 45.3621 60.8696 48.8937 60.8225 51.9971Z" fill="#165C7D"/>
<path d="M77.9747 30.0547C77.9747 32.821 75.7321 35.0635 72.9658 35.0635C70.1996 35.0635 67.957 32.821 67.957 30.0547C67.957 27.2884 70.1996 25.0459 72.9658 25.0459C75.7321 25.0459 77.9747 27.2884 77.9747 30.0547Z" fill="#165C7D"/>
<path fill-rule="evenodd" clip-rule="evenodd" d="M137.327 14.1431C137.816 14.6321 137.816 15.425 137.327 15.914L123.553 29.6883C123.064 30.1773 122.271 30.1773 121.782 29.6883L115.521 23.4272C115.032 22.9382 115.032 22.1454 115.521 21.6564C116.01 21.1673 116.803 21.1673 117.292 21.6564L122.668 27.0319L135.556 14.1431C136.045 13.6541 136.838 13.6541 137.327 14.1431Z" fill="white"/>
</svg>
