<svg width="147" height="160" viewBox="0 0 147 160" fill="none" xmlns="http://www.w3.org/2000/svg">
<path d="M23.1658 30.0561H3.75663C3.1304 23.1688 3.15182 21.7229 6.26097 16.2822C11.2699 7.51697 22.5398 9.39462 23.1658 21.9168V30.0561Z" fill="#69757B"/>
<path d="M15.0265 11.2726C6.51841 10.6649 3.96531 24.0033 3.75661 30.0556H0C0 13.7769 10.0176 6.26367 16.9048 6.26367H111.446C124.594 6.26367 124.594 23.7945 124.594 33.1861V41.3254V155.902H26.2963C20.7866 152.897 19.4092 148.389 19.4092 142.754L23.1658 33.1861C23.1658 25.0467 23.7919 11.8986 15.0265 11.2726Z" fill="#C6CED1"/>
<path d="M40.6973 66.3691H100.177" stroke="#69757B" stroke-width="2" stroke-linecap="round"/>
<path d="M40.0703 101.431H99.55" stroke="#69757B" stroke-width="2" stroke-linecap="round"/>
<path d="M40.0703 115.205H77.0103" stroke="#69757B" stroke-width="2" stroke-linecap="round"/>
<path d="M40.0703 87.6562H77.0103" stroke="#69757B" stroke-width="2" stroke-linecap="round"/>
<circle cx="123.969" cy="20.0372" r="20.0353" fill="#69757B"/>
<path d="M141.654 158.088C137.272 160.715 126.002 160.715 121.619 157.612V155.706C125.869 157.612 136.019 157.584 141.654 156.332V158.088Z" fill="#8F6E0D"/>
<path d="M121.619 155.706C131.011 154.454 141.654 156.332 141.654 156.332C141.654 156.332 131.011 160.089 121.619 155.706Z" fill="#FFA300"/>
<path d="M140.402 156.835C136.02 159.462 124.75 159.462 120.367 156.359V154.453C124.617 156.359 134.768 156.331 140.402 155.079V156.835Z" fill="#8F6E0D"/>
<path d="M120.367 154.453C129.759 153.201 140.402 155.079 140.402 155.079C140.402 155.079 129.759 158.836 120.367 154.453Z" fill="#FFA300"/>
<path d="M141.654 154.331C137.272 156.958 126.002 156.958 121.619 153.855V151.949C125.869 153.855 136.019 153.828 141.654 152.575V154.331Z" fill="#8F6E0D"/>
<path d="M121.619 151.949C131.011 150.697 141.654 152.575 141.654 152.575C141.654 152.575 131.011 156.332 121.619 151.949Z" fill="#FFA300"/>
<path d="M120.358 151.05C124.524 154.008 135.76 154.881 140.37 152.126L140.518 150.227C136.133 151.797 126.015 150.984 120.494 149.3L120.358 151.05Z" fill="#8F6E0D"/>
<path d="M140.519 150.226C131.253 148.25 120.496 149.299 120.496 149.299C120.496 149.299 130.817 153.868 140.519 150.226Z" fill="#FFA300"/>
<path d="M141.717 149.322C137.4 152.055 126.133 152.332 121.676 149.338L121.629 147.433C125.924 149.233 136.071 148.957 141.674 147.566L141.717 149.322Z" fill="#8F6E0D"/>
<path d="M121.63 147.432C130.988 145.95 141.674 147.566 141.674 147.566C141.674 147.566 131.126 151.583 121.63 147.432Z" fill="#FFA300"/>
<path d="M141.654 146.818C137.272 149.444 126.002 149.444 121.619 146.341V144.436C125.869 146.341 136.019 146.314 141.654 145.062V146.818Z" fill="#8F6E0D"/>
<path d="M121.619 144.435C131.011 143.183 141.654 145.061 141.654 145.061C141.654 145.061 131.011 148.818 121.619 144.435Z" fill="#FFA300"/>
<path d="M140.402 145.566C136.02 148.192 124.75 148.192 120.367 145.089V143.184C124.617 145.089 134.768 145.062 140.402 143.81V145.566Z" fill="#8F6E0D"/>
<path d="M120.367 143.183C129.759 141.931 140.402 143.809 140.402 143.809C140.402 143.809 129.759 147.566 120.367 143.183Z" fill="#FFA300"/>
<path d="M141.654 143.061C137.272 145.688 126.002 145.688 121.619 142.584V140.679C125.869 142.584 136.019 142.557 141.654 141.305V143.061Z" fill="#8F6E0D"/>
<path d="M121.619 140.679C131.011 139.426 141.654 141.305 141.654 141.305C141.654 141.305 131.011 145.061 121.619 140.679Z" fill="#FFA300"/>
<path d="M120.358 139.78C124.524 142.738 135.76 143.61 140.37 140.856L140.518 138.956C136.133 140.527 126.015 139.714 120.494 138.029L120.358 139.78Z" fill="#8F6E0D"/>
<path d="M140.519 138.956C131.253 136.98 120.496 138.028 120.496 138.028C120.496 138.028 130.817 142.598 140.519 138.956Z" fill="#FFA300"/>
<path d="M141.717 138.051C137.4 140.785 126.133 141.062 121.676 138.067L121.629 136.162C125.924 137.963 136.071 137.686 141.674 136.296L141.717 138.051Z" fill="#8F6E0D"/>
<path d="M121.63 136.162C130.988 134.679 141.674 136.295 141.674 136.295C141.674 136.295 131.126 140.312 121.63 136.162Z" fill="#FFA300"/>
<path d="M122.826 136.8C127.209 139.427 138.479 139.427 142.861 136.324V134.418C138.611 136.324 128.461 136.296 122.826 135.044V136.8Z" fill="#8F6E0D"/>
<path d="M142.861 134.418C133.47 133.166 122.826 135.044 122.826 135.044C122.826 135.044 133.47 138.8 142.861 134.418Z" fill="#FFA300"/>
<path d="M124.08 135.548C128.463 138.175 139.733 138.175 144.115 135.072V133.166C139.865 135.072 129.715 135.044 124.08 133.792V135.548Z" fill="#8F6E0D"/>
<path d="M144.115 133.166C134.724 131.914 124.08 133.792 124.08 133.792C124.08 133.792 134.724 137.549 144.115 133.166Z" fill="#FFA300"/>
<path d="M122.826 133.043C127.209 135.67 138.479 135.67 142.861 132.567V130.661C138.611 132.567 128.461 132.539 122.826 131.287V133.043Z" fill="#8F6E0D"/>
<path d="M142.861 130.661C133.47 129.409 122.826 131.287 122.826 131.287C122.826 131.287 133.47 135.044 142.861 130.661Z" fill="#FFA300"/>
<path d="M144.122 129.762C139.956 132.72 128.72 133.593 124.11 130.838L123.963 128.938C128.348 130.509 138.465 129.696 143.986 128.011L144.122 129.762Z" fill="#8F6E0D"/>
<path d="M123.961 128.938C133.227 126.962 143.985 128.011 143.985 128.011C143.985 128.011 133.664 132.58 123.961 128.938Z" fill="#FFA300"/>
<path d="M122.766 128.034C127.083 130.767 138.349 131.044 142.807 128.05L142.854 126.145C138.558 127.945 128.411 127.669 122.809 126.278L122.766 128.034Z" fill="#8F6E0D"/>
<path d="M142.853 126.144C133.495 124.662 122.808 126.278 122.808 126.278C122.808 126.278 133.356 130.295 142.853 126.144Z" fill="#FFA300"/>
<path d="M101.537 155.584C105.92 158.211 117.19 158.211 121.572 155.108V153.202C117.322 155.108 107.172 155.08 101.537 153.828V155.584Z" fill="#8F6E0D"/>
<path d="M121.572 153.202C112.181 151.95 101.537 153.828 101.537 153.828C101.537 153.828 112.181 157.585 121.572 153.202Z" fill="#FFA300"/>
<path d="M102.789 154.331C107.172 156.958 118.442 156.958 122.824 153.855V151.949C118.574 153.855 108.424 153.828 102.789 152.575V154.331Z" fill="#8F6E0D"/>
<path d="M122.824 151.949C113.433 150.697 102.789 152.575 102.789 152.575C102.789 152.575 113.433 156.332 122.824 151.949Z" fill="#FFA300"/>
<path d="M101.537 151.826C105.92 154.453 117.19 154.453 121.572 151.35V149.444C117.322 151.35 107.172 151.323 101.537 150.07V151.826Z" fill="#8F6E0D"/>
<path d="M121.572 149.444C112.181 148.192 101.537 150.07 101.537 150.07C101.537 150.07 112.181 153.827 121.572 149.444Z" fill="#FFA300"/>
<path d="M122.833 148.546C118.667 151.505 107.431 152.377 102.821 149.623L102.674 147.723C107.059 149.293 117.176 148.48 122.697 146.796L122.833 148.546Z" fill="#8F6E0D"/>
<path d="M102.672 147.722C111.938 145.747 122.696 146.795 122.696 146.795C122.696 146.795 112.375 151.365 102.672 147.722Z" fill="#FFA300"/>
<path d="M101.475 146.817C105.792 149.551 117.058 149.827 121.516 146.833L121.562 144.928C117.267 146.728 107.12 146.452 101.518 145.061L101.475 146.817Z" fill="#8F6E0D"/>
<path d="M121.562 144.927C112.204 143.445 101.517 145.061 101.517 145.061C101.517 145.061 112.065 149.078 121.562 144.927Z" fill="#FFA300"/>
<path d="M101.537 144.314C105.92 146.94 117.19 146.94 121.572 143.837V141.932C117.322 143.837 107.172 143.81 101.537 142.558V144.314Z" fill="#8F6E0D"/>
<path d="M121.572 141.931C112.181 140.679 101.537 142.558 101.537 142.558C101.537 142.558 112.181 146.314 121.572 141.931Z" fill="#FFA300"/>
<path d="M102.789 143.062C107.172 145.689 118.442 145.689 122.824 142.585V140.68C118.574 142.585 108.424 142.558 102.789 141.306V143.062Z" fill="#8F6E0D"/>
<path d="M122.824 140.679C113.433 139.427 102.789 141.306 102.789 141.306C102.789 141.306 113.433 145.062 122.824 140.679Z" fill="#FFA300"/>
<path d="M101.537 140.557C105.92 143.184 117.19 143.184 121.572 140.08V138.175C117.322 140.08 107.172 140.053 101.537 138.801V140.557Z" fill="#8F6E0D"/>
<path d="M121.572 138.175C112.181 136.922 101.537 138.801 101.537 138.801C101.537 138.801 112.181 142.557 121.572 138.175Z" fill="#FFA300"/>
<path d="M122.833 137.276C118.667 140.234 107.431 141.107 102.821 138.352L102.674 136.452C107.059 138.023 117.176 137.21 122.697 135.525L122.833 137.276Z" fill="#8F6E0D"/>
<path d="M102.672 136.452C111.938 134.476 122.696 135.525 122.696 135.525C122.696 135.525 112.375 140.094 102.672 136.452Z" fill="#FFA300"/>
<path d="M101.475 135.546C105.792 138.28 117.058 138.557 121.516 135.562L121.562 133.657C117.267 135.458 107.12 135.181 101.518 133.791L101.475 135.546Z" fill="#8F6E0D"/>
<path d="M121.562 133.657C112.204 132.174 101.517 133.791 101.517 133.791C101.517 133.791 112.065 137.808 121.562 133.657Z" fill="#FFA300"/>
<path d="M120.365 134.296C115.983 136.923 104.713 136.923 100.33 133.82V131.914C104.58 133.82 114.73 133.792 120.365 132.54V134.296Z" fill="#8F6E0D"/>
<path d="M100.33 131.914C109.722 130.662 120.365 132.54 120.365 132.54C120.365 132.54 109.722 136.297 100.33 131.914Z" fill="#FFA300"/>
<path d="M119.111 133.043C114.729 135.67 103.459 135.67 99.0762 132.567V130.661C103.326 132.567 113.477 132.539 119.111 131.287V133.043Z" fill="#8F6E0D"/>
<path d="M99.0762 130.661C108.468 129.409 119.111 131.287 119.111 131.287C119.111 131.287 108.468 135.044 99.0762 130.661Z" fill="#FFA300"/>
<path d="M120.365 130.539C115.983 133.166 104.713 133.166 100.33 130.063V128.157C104.58 130.063 114.73 130.036 120.365 128.783V130.539Z" fill="#8F6E0D"/>
<path d="M100.33 128.157C109.722 126.905 120.365 128.783 120.365 128.783C120.365 128.783 109.722 132.54 100.33 128.157Z" fill="#FFA300"/>
<path d="M99.069 127.258C103.235 130.216 114.471 131.089 119.081 128.334L119.229 126.435C114.844 128.005 104.726 127.192 99.2049 125.508L99.069 127.258Z" fill="#8F6E0D"/>
<path d="M119.23 126.434C109.964 124.458 99.2067 125.507 99.2067 125.507C99.2067 125.507 109.528 130.076 119.23 126.434Z" fill="#FFA300"/>
<path d="M120.426 125.529C116.109 128.262 104.842 128.539 100.385 125.545L100.338 123.64C104.633 125.44 114.78 125.164 120.382 123.773L120.426 125.529Z" fill="#8F6E0D"/>
<path d="M100.339 123.639C109.697 122.157 120.383 123.773 120.383 123.773C120.383 123.773 109.835 127.79 100.339 123.639Z" fill="#FFA300"/>
<path d="M99.6648 123.012C103.892 125.882 115.144 126.52 119.695 123.67L119.803 121.768C115.452 123.43 105.319 122.828 99.7641 121.259L99.6648 123.012Z" fill="#8F6E0D"/>
<path d="M119.804 121.768C110.498 119.986 99.7652 121.259 99.7652 121.259C99.7652 121.259 110.179 125.612 119.804 121.768Z" fill="#FFA300"/>
<path d="M100.985 121.833C105.212 124.704 116.464 125.342 121.015 122.491L121.123 120.589C116.772 122.251 106.639 121.649 101.084 120.08L100.985 121.833Z" fill="#8F6E0D"/>
<path d="M121.124 120.589C111.818 118.807 101.085 120.08 101.085 120.08C101.085 120.08 111.5 124.433 121.124 120.589Z" fill="#FFA300"/>
<path d="M99.8737 119.262C104.101 122.132 115.353 122.77 119.904 119.92L120.012 118.018C115.661 119.68 105.528 119.078 99.9731 117.509L99.8737 119.262Z" fill="#8F6E0D"/>
<path d="M120.013 118.018C110.707 116.236 99.9742 117.509 99.9742 117.509C99.9742 117.509 110.388 121.862 120.013 118.018Z" fill="#FFA300"/>
<path d="M121.321 117.191C116.994 119.909 105.727 120.144 101.28 117.133L101.24 115.228C105.529 117.044 115.677 116.805 121.284 115.435L121.321 117.191Z" fill="#8F6E0D"/>
<path d="M101.239 115.227C110.603 113.779 121.283 115.435 121.283 115.435C121.283 115.435 110.72 119.413 101.239 115.227Z" fill="#FFA300"/>
<path d="M100.099 114.258C104.254 117.232 115.487 118.146 120.107 115.408L120.262 113.509C115.871 115.063 105.756 114.213 100.242 112.508L100.099 114.258Z" fill="#8F6E0D"/>
<path d="M120.262 113.509C111.003 111.499 100.242 112.508 100.242 112.508C100.242 112.508 110.546 117.116 120.262 113.509Z" fill="#FFA300"/>
<circle cx="131.063" cy="111.816" r="8.34803" fill="#69757B"/>
<circle cx="133.149" cy="111.816" r="8.34803" fill="#FFA300"/>
<path d="M135.086 111.49C135.086 111.933 134.92 112.299 134.588 112.589C134.256 112.875 133.792 113.056 133.197 113.131V114.264H132.567V113.175C132.202 113.175 131.849 113.147 131.507 113.092C131.165 113.033 130.885 112.953 130.667 112.853V112.091C130.938 112.211 131.248 112.311 131.6 112.389C131.955 112.464 132.277 112.501 132.567 112.501V110.353C131.899 110.141 131.431 109.895 131.161 109.615C130.894 109.335 130.76 108.974 130.76 108.531C130.76 108.105 130.924 107.755 131.253 107.481C131.585 107.208 132.023 107.042 132.567 106.983V106.095H133.197V106.974C133.796 106.99 134.373 107.11 134.93 107.335L134.676 107.975C134.191 107.783 133.698 107.669 133.197 107.633V109.752C133.708 109.915 134.09 110.074 134.344 110.23C134.598 110.383 134.785 110.561 134.906 110.763C135.026 110.961 135.086 111.204 135.086 111.49ZM134.256 111.554C134.256 111.319 134.183 111.131 134.036 110.987C133.893 110.841 133.613 110.696 133.197 110.553V112.452C133.903 112.354 134.256 112.055 134.256 111.554ZM131.585 108.521C131.585 108.769 131.659 108.967 131.805 109.117C131.952 109.267 132.205 109.409 132.567 109.542V107.652C132.244 107.704 132 107.807 131.834 107.96C131.668 108.11 131.585 108.297 131.585 108.521Z" fill="#754C04"/>
<circle cx="126.055" cy="91.7806" r="8.34803" fill="#69757B"/>
<circle cx="128.141" cy="91.7806" r="8.34803" fill="#FFA300"/>
<path d="M130.078 91.4551C130.078 91.8978 129.912 92.264 129.58 92.5537C129.248 92.8402 128.785 93.0208 128.189 93.0957V94.2285H127.559V93.1396C127.194 93.1396 126.841 93.112 126.499 93.0566C126.158 92.998 125.878 92.9183 125.66 92.8174V92.0557C125.93 92.1761 126.241 92.2754 126.592 92.3535C126.947 92.4284 127.269 92.4658 127.559 92.4658V90.3174C126.892 90.1058 126.423 89.86 126.153 89.5801C125.886 89.3001 125.752 88.9388 125.752 88.4961C125.752 88.0697 125.917 87.7197 126.245 87.4463C126.577 87.1729 127.015 87.0068 127.559 86.9482V86.0596H128.189V86.9385C128.788 86.9548 129.366 87.0752 129.922 87.2998L129.668 87.9395C129.183 87.7474 128.69 87.6335 128.189 87.5977V89.7168C128.7 89.8796 129.082 90.0391 129.336 90.1953C129.59 90.3483 129.777 90.5257 129.898 90.7275C130.018 90.9261 130.078 91.1686 130.078 91.4551ZM129.248 91.5186C129.248 91.2842 129.175 91.0954 129.029 90.9521C128.885 90.8057 128.605 90.6608 128.189 90.5176V92.417C128.895 92.3193 129.248 92.0199 129.248 91.5186ZM126.577 88.4863C126.577 88.7337 126.651 88.9323 126.797 89.082C126.944 89.2318 127.198 89.3734 127.559 89.5068V87.6172C127.237 87.6693 126.993 87.7718 126.827 87.9248C126.661 88.0745 126.577 88.2617 126.577 88.4863Z" fill="#754C04"/>
<circle cx="17.6712" cy="74.0794" r="13.9134" fill="#69757B"/>
<circle cx="21.1497" cy="74.0794" r="13.9134" fill="#FFA300"/>
<path d="M24.2323 73.6006C24.2323 74.3089 23.9667 74.8949 23.4355 75.3584C22.9042 75.8167 22.162 76.1058 21.2089 76.2256V78.0381H20.2011V76.2959C19.6178 76.2959 19.0527 76.2516 18.5058 76.1631C17.9589 76.0693 17.511 75.9417 17.162 75.7803V74.5615C17.5943 74.7542 18.0917 74.9131 18.6542 75.0381C19.2219 75.1579 19.7376 75.2178 20.2011 75.2178V71.7803C19.1334 71.4417 18.3834 71.0485 17.9511 70.6006C17.524 70.1527 17.3105 69.5745 17.3105 68.8662C17.3105 68.1839 17.5735 67.624 18.0995 67.1865C18.6308 66.749 19.3313 66.4834 20.2011 66.3896V64.9678H21.2089V66.374C22.1672 66.4001 23.0917 66.5928 23.9823 66.9521L23.5761 67.9756C22.8001 67.6683 22.011 67.486 21.2089 67.4287V70.8193C22.0266 71.0798 22.6386 71.335 23.0448 71.585C23.4511 71.8298 23.7506 72.1136 23.9433 72.4365C24.136 72.7542 24.2323 73.1423 24.2323 73.6006ZM22.9042 73.7021C22.9042 73.3271 22.787 73.0251 22.5527 72.7959C22.3235 72.5615 21.8756 72.3298 21.2089 72.1006V75.1396C22.3391 74.9834 22.9042 74.5042 22.9042 73.7021ZM18.6308 68.8506C18.6308 69.2464 18.748 69.5641 18.9823 69.8037C19.2167 70.0433 19.623 70.2699 20.2011 70.4834V67.46C19.6855 67.5433 19.2948 67.7074 19.0292 67.9521C18.7636 68.1917 18.6308 68.4912 18.6308 68.8506Z" fill="#754C04"/>
<circle cx="126.473" cy="22.5411" r="20.0353" fill="#C13018"/>
<path d="M85.4356 52.373H60.1055C60.1055 45.9163 62.5888 37.2246 72.7705 37.2246C82.2073 37.2246 85.4356 45.5438 85.4356 52.373Z" fill="#165C7D" stroke="#165C7D" stroke-width="0.6" stroke-linecap="round" stroke-linejoin="round"/>
<circle cx="72.628" cy="30.0547" r="5.00882" fill="#165C7D"/>
<path d="M116.086 11.6387L137.373 32.9261" stroke="white" stroke-width="2" stroke-linecap="round"/>
<path d="M136.855 11.6387L115.568 32.9261" stroke="white" stroke-width="2" stroke-linecap="round"/>
</svg>
