<svg width="198" height="160" viewBox="0 0 198 160" fill="none" xmlns="http://www.w3.org/2000/svg">
<g clip-path="url(#clip0_19798_33502)">
<path opacity="0.5" d="M0.689453 9.99999C0.689453 4.47715 5.16661 0 10.6895 0H187.304C192.827 0 197.304 4.47715 197.304 10V22.5453H0.689453V9.99999Z" fill="#C6CED1"/>
<path opacity="0.5" d="M0.689453 22.5449H197.304V132.344C197.304 137.867 192.827 142.344 187.304 142.344H10.6895C5.16661 142.344 0.689453 137.867 0.689453 132.344V22.5449Z" fill="#E7EEF1"/>
<path fill-rule="evenodd" clip-rule="evenodd" d="M176.064 6.86785C176.162 6.77038 176.32 6.77065 176.417 6.86844L180.453 10.918L184.489 6.86844C184.587 6.77065 184.745 6.77038 184.843 6.86785C184.941 6.96532 184.941 7.12361 184.844 7.2214L180.806 11.2722L184.844 15.3229C184.941 15.4207 184.941 15.579 184.843 15.6765C184.745 15.7739 184.587 15.7737 184.489 15.6759L180.453 11.6263L176.417 15.6759C176.32 15.7737 176.162 15.7739 176.064 15.6765C175.966 15.579 175.966 15.4207 176.063 15.3229L180.1 11.2722L176.063 7.2214C175.966 7.12361 175.966 6.96532 176.064 6.86785Z" fill="#C6CED1"/>
<path d="M66.6992 46.2725C66.6992 44.0633 68.4901 42.2725 70.6992 42.2725H125.897C128.106 42.2725 129.897 44.0633 129.897 46.2725V80.5448C129.897 82.754 128.106 84.5448 125.897 84.5448H70.6992C68.4901 84.5448 66.6992 82.754 66.6992 80.5448V46.2725Z" fill="#333333"/>
<path d="M70.9102 46.499H125.681V80.3169H70.9102V46.499Z" fill="#33B2DA"/>
<path d="M90.5723 38.6357C90.5723 37.5312 91.4677 36.6357 92.5723 36.6357H105.425C106.529 36.6357 107.425 37.5312 107.425 38.6357V42.2721H90.5723V38.6357Z" fill="#333333"/>
<path d="M133.514 57.7725C134.618 57.7725 135.514 58.6679 135.514 59.7725L135.514 67.0451C135.514 68.1497 134.618 69.0451 133.514 69.0451L129.896 69.0451L129.896 57.7725L133.514 57.7725Z" fill="#333333"/>
<path d="M63.0801 57.7715C61.9755 57.7715 61.0801 58.6669 61.0801 59.7715L61.0801 67.0441C61.0801 68.1487 61.9755 69.0441 63.0801 69.0441L66.6976 69.0441L66.6976 57.7715L63.0801 57.7715Z" fill="#333333"/>
<path fill-rule="evenodd" clip-rule="evenodd" d="M80.9908 54.6C81.1864 54.405 81.503 54.4056 81.6979 54.6011L84.8547 57.7685L88.0116 54.6011C88.2065 54.4056 88.5231 54.405 88.7187 54.6C88.9142 54.7949 88.9148 55.1115 88.7198 55.3071L85.5607 58.4768L88.7198 61.6465C88.9148 61.8421 88.9142 62.1587 88.7187 62.3536C88.5231 62.5486 88.2065 62.5481 88.0116 62.3525L84.8547 59.1851L81.6979 62.3525C81.503 62.5481 81.1864 62.5486 80.9908 62.3536C80.7952 62.1587 80.7947 61.8421 80.9896 61.6465L84.1488 58.4768L80.9896 55.3071C80.7947 55.1115 80.7952 54.7949 80.9908 54.6Z" fill="white"/>
<path fill-rule="evenodd" clip-rule="evenodd" d="M106.37 54.6C106.565 54.405 106.882 54.4056 107.077 54.6011L110.234 57.7685L113.39 54.6011C113.585 54.4056 113.902 54.405 114.098 54.6C114.293 54.7949 114.294 55.1115 114.099 55.3071L110.94 58.4768L114.099 61.6465C114.294 61.8421 114.293 62.1587 114.098 62.3536C113.902 62.5486 113.585 62.5481 113.39 62.3525L110.234 59.1851L107.077 62.3525C106.882 62.5481 106.565 62.5486 106.37 62.3536C106.174 62.1587 106.174 61.8421 106.369 61.6465L109.528 58.4768L106.369 55.3071C106.174 55.1115 106.174 54.7949 106.37 54.6Z" fill="white"/>
<path fill-rule="evenodd" clip-rule="evenodd" d="M81.7955 54.6C81.9911 54.405 82.3076 54.4056 82.5026 54.6011L85.6594 57.7685L88.8162 54.6011C89.0112 54.4056 89.3278 54.405 89.5233 54.6C89.7189 54.7949 89.7195 55.1115 89.5245 55.3071L86.3653 58.4768L89.5245 61.6465C89.7195 61.8421 89.7189 62.1587 89.5233 62.3536C89.3278 62.5486 89.0112 62.5481 88.8162 62.3525L85.6594 59.1851L82.5026 62.3525C82.3076 62.5481 81.9911 62.5486 81.7955 62.3536C81.5999 62.1587 81.5994 61.8421 81.7943 61.6465L84.9535 58.4768L81.7943 55.3071C81.5994 55.1115 81.5999 54.7949 81.7955 54.6Z" fill="#005779"/>
<path fill-rule="evenodd" clip-rule="evenodd" d="M107.073 54.6C107.268 54.405 107.585 54.4056 107.78 54.6011L110.937 57.7685L114.094 54.6011C114.289 54.4056 114.605 54.405 114.801 54.6C114.996 54.7949 114.997 55.1115 114.802 55.3071L111.643 58.4768L114.802 61.6465C114.997 61.8421 114.996 62.1587 114.801 62.3536C114.605 62.5486 114.289 62.5481 114.094 62.3525L110.937 59.1851L107.78 62.3525C107.585 62.5481 107.268 62.5486 107.073 62.3536C106.877 62.1587 106.877 61.8421 107.072 61.6465L110.231 58.4768L107.072 55.3071C106.877 55.1115 106.877 54.7949 107.073 54.6Z" fill="#005779"/>
<path fill-rule="evenodd" clip-rule="evenodd" d="M91.4785 72.5674C91.4785 72.2912 91.7024 72.0674 91.9785 72.0674H106.022C106.299 72.0674 106.522 72.2912 106.522 72.5674C106.522 72.8435 106.299 73.0674 106.022 73.0674H91.9785C91.7024 73.0674 91.4785 72.8435 91.4785 72.5674Z" fill="#333333"/>
<path d="M83.5512 90.1805L87.7644 87.3623H110.235L114.448 90.1805L121.47 243.77L110.235 253.634H87.7644L76.5293 243.77L83.5512 90.1805Z" fill="#A7B0B5"/>
<path d="M87.7644 253.634V87.3623L83.5512 90.1805L76.5293 243.77L87.7644 253.634Z" fill="#C6CED1"/>
<path d="M110.234 253.634V87.3623L114.447 90.1805L121.469 243.77L110.234 253.634Z" fill="#C6CED1"/>
<path d="M91.9766 119.748C91.9766 115.869 95.1204 112.726 98.9985 112.726C102.877 112.726 106.02 115.869 106.02 119.748V150.794C106.02 154.672 102.877 157.816 98.9985 157.816C95.1204 157.816 91.9766 154.672 91.9766 150.794V119.748Z" fill="#C6CED1"/>
<path d="M93.3809 84.5439H104.616V87.3621H93.3809V84.5439Z" fill="#333333"/>
<path fill-rule="evenodd" clip-rule="evenodd" d="M87.7022 87.0692C87.8643 87.0346 88.0237 87.1379 88.0583 87.2999C88.3513 88.6718 88.6707 90.2685 89.0186 92.0075C89.9253 96.5398 91.0254 102.039 92.3558 107.048C93.2759 110.512 94.3021 113.725 95.4434 116.207C96.0141 117.448 96.6094 118.497 97.2285 119.302C97.8496 120.108 98.4791 120.648 99.1118 120.902C99.2655 120.964 99.3401 121.138 99.2784 121.292C99.2167 121.446 99.042 121.521 98.8883 121.459C98.1166 121.149 97.4075 120.518 96.7531 119.668C96.0967 118.815 95.4796 117.722 94.8983 116.458C93.7356 113.929 92.6991 110.678 91.7759 107.202C90.4404 102.174 89.3336 96.6415 88.4261 92.1048C88.0794 90.3718 87.7617 88.7841 87.4715 87.4252C87.4369 87.2632 87.5402 87.1038 87.7022 87.0692Z" fill="#333333"/>
<path fill-rule="evenodd" clip-rule="evenodd" d="M110.298 87.0692C110.136 87.0346 109.976 87.1379 109.942 87.2999C109.649 88.6718 109.329 90.2685 108.981 92.0075C108.075 96.5398 106.975 102.039 105.644 107.048C104.724 110.512 103.698 113.725 102.557 116.207C101.986 117.448 101.391 118.497 100.771 119.302C100.15 120.108 99.5209 120.648 98.8882 120.902C98.7345 120.964 98.6599 121.138 98.7216 121.292C98.7833 121.446 98.958 121.521 99.1117 121.459C99.8834 121.149 100.592 120.518 101.247 119.668C101.903 118.815 102.52 117.722 103.102 116.458C104.264 113.929 105.301 110.678 106.224 107.202C107.56 102.174 108.666 96.6415 109.574 92.1048C109.921 90.3718 110.238 88.7841 110.528 87.4252C110.563 87.2632 110.46 87.1038 110.298 87.0692Z" fill="#333333"/>
<path fill-rule="evenodd" clip-rule="evenodd" d="M92.4875 86.8689C90.5164 87.0447 88.8782 87.3066 87.86 87.647C87.7029 87.6995 87.5329 87.6147 87.4804 87.4576C87.4279 87.3005 87.5127 87.1305 87.6698 87.0779C88.7583 86.7141 90.4554 86.4477 92.4342 86.2713C94.4197 86.0942 96.7109 86.0059 99 86.0059C101.289 86.0058 103.58 86.0941 105.566 86.2711C107.545 86.4475 109.242 86.7138 110.33 87.0778C110.487 87.1304 110.572 87.3004 110.52 87.4575C110.467 87.6146 110.297 87.6994 110.14 87.6469C109.122 87.3064 107.484 87.0444 105.513 86.8687C103.548 86.6936 101.275 86.6058 99 86.6059C96.7249 86.6059 94.4518 86.6937 92.4875 86.8689Z" fill="#333333"/>
<path d="M94.7871 123.589C94.7871 123.037 95.2348 122.589 95.7871 122.589H102.213C102.766 122.589 103.213 123.037 103.213 123.589V132.862C103.213 133.414 102.766 133.862 102.213 133.862H95.7871C95.2348 133.862 94.7871 133.414 94.7871 132.862V123.589Z" fill="#012F44"/>
<path fill-rule="evenodd" clip-rule="evenodd" d="M77.5332 160C77.5332 159.724 77.7571 159.5 78.0332 159.5H119.964C120.24 159.5 120.464 159.724 120.464 160C120.464 160.276 120.24 160.5 119.964 160.5H78.0332C77.7571 160.5 77.5332 160.276 77.5332 160Z" fill="#E1E5E7"/>
<path fill-rule="evenodd" clip-rule="evenodd" d="M122.223 160C122.223 159.724 122.447 159.5 122.723 159.5H125.481C125.757 159.5 125.981 159.724 125.981 160C125.981 160.276 125.757 160.5 125.481 160.5H122.723C122.447 160.5 122.223 160.276 122.223 160Z" fill="#E1E5E7"/>
<path fill-rule="evenodd" clip-rule="evenodd" d="M72.0156 160C72.0156 159.724 72.2395 159.5 72.5156 159.5H75.2742C75.5504 159.5 75.7742 159.724 75.7742 160C75.7742 160.276 75.5504 160.5 75.2742 160.5H72.5156C72.2395 160.5 72.0156 160.276 72.0156 160Z" fill="#E1E5E7"/>
<path d="M83.2862 18.6308L81.1638 30.5989L87.245 27.0762L89.6589 32.8369L91.7813 20.8688L85.7001 24.3915L83.2862 18.6308Z" fill="#FFA300"/>
<path d="M59.9272 30.7456L64.212 37.9932L66.0309 34.2364L70.0326 36.7027L65.7478 29.4551L63.929 33.2119L59.9272 30.7456Z" fill="#FFA300"/>
<path d="M134.783 29.6705L128.704 34.1768L131.988 35.5167L130.003 39.3646L136.082 34.8583L132.798 33.5184L134.783 29.6705Z" fill="#FFA300"/>
<g opacity="0.5" clip-path="url(#clip1_19798_33502)">
<path d="M31.6487 39.2503C35.2096 40.2092 38.8674 38.0938 39.8188 34.5254C40.7702 30.9571 38.6548 27.287 35.094 26.3281C31.5331 25.3691 27.8752 27.4845 26.9239 31.0529C25.9725 34.6213 28.0879 38.2914 31.6487 39.2503Z" stroke="#A7B0B5" stroke-width="2" stroke-linecap="round" stroke-linejoin="round"/>
<path d="M47.5525 43.5333C47.0932 44.1059 46.8158 44.8035 46.7559 45.5362C46.6961 46.2689 46.8565 47.0031 47.2167 47.6441L47.3112 47.808C47.6042 48.3157 47.7945 48.8761 47.8714 49.4573C47.9483 50.0384 47.9102 50.6289 47.7593 51.195C47.6084 51.7611 47.3476 52.2916 46.9919 52.7562C46.6362 53.2209 46.1925 53.6106 45.6862 53.903C45.1802 54.196 44.6214 54.3861 44.0418 54.4623C43.4622 54.5385 42.8732 54.4995 42.3083 54.3474C41.7434 54.1953 41.2139 53.9331 40.7498 53.5758C40.2858 53.2185 39.8965 52.7731 39.6041 52.2651L39.5096 52.1012C39.1354 51.4683 38.5809 50.962 37.9175 50.6476C37.2541 50.3331 36.5122 50.225 35.7876 50.3371C35.0791 50.439 34.4162 50.7463 33.8803 51.2213C33.3443 51.6963 32.9589 52.3182 32.7714 53.0105L32.6738 53.3766C32.3692 54.519 31.6242 55.4927 30.6028 56.0834C29.5813 56.6741 28.367 56.8335 27.227 56.5265C26.0871 56.2195 25.1148 55.4713 24.524 54.4464C23.9333 53.4216 23.7726 52.204 24.0771 51.0616L24.1288 50.8678C24.3022 50.1504 24.2563 49.3971 23.997 48.7056C23.7377 48.0142 23.277 47.4166 22.6748 46.9906C22.103 46.5294 21.4067 46.2502 20.6758 46.1891C19.9448 46.1281 19.2127 46.2879 18.5738 46.648L18.4104 46.7425C17.9044 47.0355 17.3457 47.2256 16.7661 47.3018C16.1865 47.378 15.5974 47.339 15.0325 47.1869C14.4677 47.0348 13.9381 46.7726 13.4741 46.4153C13.0101 46.058 12.6207 45.6126 12.3283 45.1046C12.0353 44.597 11.8449 44.0365 11.768 43.4554C11.6911 42.8742 11.7292 42.2837 11.8802 41.7177C12.0311 41.1516 12.2919 40.6211 12.6476 40.1564C13.0033 39.6918 13.447 39.3021 13.9533 39.0097L14.1167 38.9152C14.7475 38.541 15.2517 37.9858 15.5644 37.3212C15.8771 36.6566 15.9839 35.913 15.871 35.1864C15.7684 34.476 15.4609 33.811 14.9863 33.273C14.5117 32.7351 13.8908 32.3478 13.2 32.1588L12.8346 32.0604C11.6946 31.7534 10.7223 31.0052 10.1316 29.9803C9.54087 28.9554 9.38011 27.7379 9.68469 26.5955C9.98927 25.4531 10.7342 24.4794 11.7557 23.8887C12.7771 23.298 13.9914 23.1386 15.1314 23.4456L15.3248 23.4977C16.0406 23.6726 16.7921 23.6276 17.4814 23.3686C18.1708 23.1097 18.7662 22.6487 19.1902 22.0456C19.6495 21.473 19.9269 20.7754 19.9868 20.0427C20.0467 19.31 19.8862 18.5758 19.526 17.9348L19.4315 17.7709C19.1386 17.2632 18.9482 16.7028 18.8713 16.1216C18.7944 15.5405 18.8325 14.95 18.9834 14.3839C19.1343 13.8179 19.3951 13.2873 19.7508 12.8227C20.1065 12.358 20.5502 11.9683 21.0565 11.6759C21.5625 11.3829 22.1213 11.1929 22.7009 11.1166C23.2805 11.0404 23.8695 11.0794 24.4344 11.2315C24.9993 11.3837 25.5289 11.6458 25.9929 12.0031C26.4569 12.3604 26.8462 12.8058 27.1387 13.3138L27.2331 13.4777C27.6073 14.1106 28.1618 14.6169 28.8252 14.9314C29.4886 15.2458 30.2305 15.3539 30.9551 15.2418L31.1271 15.2881C31.8355 15.1862 32.4985 14.8789 33.0344 14.4039C33.5703 13.9289 33.9557 13.307 34.1433 12.6147L34.2409 12.2486C34.5455 11.1062 35.2904 10.1326 36.3119 9.54183C37.3333 8.95111 38.5476 8.79171 39.6876 9.0987C40.8276 9.40569 41.7999 10.1539 42.3906 11.1788C42.9813 12.2037 43.1421 13.4212 42.8375 14.5636L42.7858 14.7574C42.6038 15.4512 42.6282 16.1835 42.856 16.8642C43.0838 17.5448 43.5051 18.1441 44.0679 18.5883C44.6397 19.0495 45.336 19.3287 46.0669 19.3898C46.7979 19.4508 47.53 19.291 48.1689 18.9309L48.3323 18.8364C48.8383 18.5434 49.397 18.3534 49.9766 18.2771C50.5562 18.2009 51.1453 18.2399 51.7102 18.392C52.275 18.5442 52.8046 18.8063 53.2686 19.1636C53.7326 19.5209 54.122 19.9663 54.4144 20.4743C54.7074 20.9819 54.8978 21.5424 54.9747 22.1235C55.0516 22.7047 55.0135 23.2952 54.8625 23.8613C54.7116 24.4273 54.4509 24.9578 54.0951 25.4225C53.7394 25.8872 53.2957 26.2768 52.7894 26.5693L52.626 26.6638C51.9952 27.0379 51.491 27.5931 51.1783 28.2577C50.8656 28.9223 50.7588 29.6659 50.8717 30.3925L50.8258 30.5648C50.9284 31.2752 51.2359 31.9403 51.7105 32.4782C52.1851 33.0161 52.806 33.4034 53.4968 33.5924L53.8622 33.6908C55.0022 33.9978 55.9745 34.746 56.5652 35.7709C57.1559 36.7958 57.3167 38.0133 57.0121 39.1557C56.7075 40.2981 55.9625 41.2718 54.9411 41.8625C53.9196 42.4532 52.7053 42.6126 51.5654 42.3056L51.3719 42.2536C50.6796 42.0701 49.9492 42.0935 49.2706 42.3209C48.592 42.5483 47.9948 42.9697 47.5525 43.5333V43.5333Z" stroke="#A7B0B5" stroke-width="2" stroke-linecap="round" stroke-linejoin="round"/>
</g>
</g>
<defs>
<clipPath id="clip0_19798_33502">
<rect width="196.414" height="160" fill="white" transform="translate(0.791016)"/>
</clipPath>
<clipPath id="clip1_19798_33502">
<rect width="53.4173" height="53.4944" fill="white" transform="matrix(0.965601 0.26003 -0.257614 0.966249 14.4727 0)"/>
</clipPath>
</defs>
</svg>
