<svg width="183" height="160" viewBox="0 0 183 160" fill="none" xmlns="http://www.w3.org/2000/svg">
<path opacity="0.5" d="M33.5684 8.29016C33.5684 3.71163 37.28 0 41.8585 0H141.34C145.919 0 149.631 3.71163 149.631 8.29016V13.2642H33.5684V8.29016Z" fill="#C6CED1"/>
<path opacity="0.5" d="M33.5684 13.2646H149.631V150.052H33.5684V13.2646Z" fill="#E7EEF1"/>
<path d="M182.792 153.367C182.792 157.03 141.964 160 91.5999 160C41.2361 160 0.408203 157.03 0.408203 153.367C0.408203 149.705 41.2361 146.735 91.5999 146.735C141.964 146.735 182.792 149.705 182.792 153.367Z" fill="#C8CCD0"/>
<path fill-rule="evenodd" clip-rule="evenodd" d="M137.049 3.9982C137.13 3.91727 137.261 3.91727 137.342 3.9982L139.683 6.3387L142.023 3.9982C142.104 3.91727 142.235 3.91727 142.316 3.9982C142.397 4.07914 142.397 4.21037 142.316 4.2913L139.976 6.6318L142.316 8.9723C142.397 9.05323 142.397 9.18446 142.316 9.2654C142.235 9.34634 142.104 9.34634 142.023 9.2654L139.683 6.9249L137.342 9.2654C137.261 9.34634 137.13 9.34634 137.049 9.2654C136.968 9.18446 136.968 9.05323 137.049 8.9723L139.389 6.6318L137.049 4.2913C136.968 4.21037 136.968 4.07914 137.049 3.9982Z" fill="#C6CED1"/>
<path d="M72.5332 28.1862C72.5332 26.3548 74.0179 24.8701 75.8493 24.8701H106.523C108.354 24.8701 109.839 26.3548 109.839 28.1862V46.4245C109.839 48.2559 108.354 49.7406 106.523 49.7406H75.8493C74.0179 49.7406 72.5332 48.2559 72.5332 46.4245V28.1862Z" fill="#333333"/>
<path d="M75.0195 27.3574H107.351V47.2538H75.0195V27.3574Z" fill="#33B2DA"/>
<path d="M86.625 23.2127C86.625 22.297 87.3673 21.5547 88.283 21.5547H94.9152C95.8309 21.5547 96.5732 22.297 96.5732 23.2127V24.8707H86.625V23.2127Z" fill="#333333"/>
<path d="M111.496 33.9893C112.412 33.9893 113.154 34.7316 113.154 35.6473L113.154 38.9634C113.154 39.8791 112.412 40.6214 111.496 40.6214L109.838 40.6214L109.838 33.9893L111.496 33.9893Z" fill="#333333"/>
<path d="M70.8748 33.9893C69.9591 33.9893 69.2168 34.7316 69.2168 35.6473L69.2168 38.9634C69.2168 39.8791 69.9591 40.6214 70.8748 40.6214L72.5329 40.6214L72.5329 33.9893L70.8748 33.9893Z" fill="#333333"/>
<path fill-rule="evenodd" clip-rule="evenodd" d="M80.5874 32.0971C80.7169 31.9676 80.9268 31.9676 81.0563 32.0971L82.8944 33.9352L84.7324 32.0971C84.8619 31.9676 85.0719 31.9676 85.2014 32.0971C85.3309 32.2266 85.3309 32.4366 85.2014 32.5661L83.3633 34.4041L85.2014 36.2422C85.3309 36.3717 85.3309 36.5817 85.2014 36.7112C85.0719 36.8407 84.8619 36.8407 84.7324 36.7112L82.8944 34.8731L81.0563 36.7112C80.9268 36.8407 80.7169 36.8407 80.5874 36.7112C80.4579 36.5817 80.4579 36.3717 80.5874 36.2422L82.4254 34.4041L80.5874 32.5661C80.4579 32.4366 80.4579 32.2266 80.5874 32.0971Z" fill="white"/>
<path fill-rule="evenodd" clip-rule="evenodd" d="M95.5092 32.0971C95.6387 31.9676 95.8487 31.9676 95.9782 32.0971L97.8163 33.9352L99.6543 32.0971C99.7838 31.9676 99.9938 31.9676 100.123 32.0971C100.253 32.2266 100.253 32.4366 100.123 32.5661L98.2852 34.4041L100.123 36.2422C100.253 36.3717 100.253 36.5817 100.123 36.7112C99.9938 36.8407 99.7838 36.8407 99.6543 36.7112L97.8163 34.8731L95.9782 36.7112C95.8487 36.8407 95.6387 36.8407 95.5092 36.7112C95.3797 36.5817 95.3797 36.3717 95.5092 36.2422L97.3473 34.4041L95.5092 32.5661C95.3797 32.4366 95.3797 32.2266 95.5092 32.0971Z" fill="white"/>
<path fill-rule="evenodd" clip-rule="evenodd" d="M81.4174 32.0971C81.5469 31.9676 81.7569 31.9676 81.8864 32.0971L83.7245 33.9352L85.5625 32.0971C85.692 31.9676 85.902 31.9676 86.0315 32.0971C86.161 32.2266 86.161 32.4366 86.0315 32.5661L84.1934 34.4041L86.0315 36.2422C86.161 36.3717 86.161 36.5817 86.0315 36.7112C85.902 36.8407 85.692 36.8407 85.5625 36.7112L83.7245 34.8731L81.8864 36.7112C81.7569 36.8407 81.5469 36.8407 81.4174 36.7112C81.2879 36.5817 81.2879 36.3717 81.4174 36.2422L83.2555 34.4041L81.4174 32.5661C81.2879 32.4366 81.2879 32.2266 81.4174 32.0971Z" fill="#005779"/>
<path fill-rule="evenodd" clip-rule="evenodd" d="M96.3393 32.0971C96.4688 31.9676 96.6788 31.9676 96.8083 32.0971L98.6463 33.9352L100.484 32.0971C100.614 31.9676 100.824 31.9676 100.953 32.0971C101.083 32.2266 101.083 32.4366 100.953 32.5661L99.1153 34.4041L100.953 36.2422C101.083 36.3717 101.083 36.5817 100.953 36.7112C100.824 36.8407 100.614 36.8407 100.484 36.7112L98.6463 34.8731L96.8083 36.7112C96.6788 36.8407 96.4688 36.8407 96.3393 36.7112C96.2098 36.5817 96.2098 36.3717 96.3393 36.2422L98.1774 34.4041L96.3393 32.5661C96.2098 32.4366 96.2098 32.2266 96.3393 32.0971Z" fill="#005779"/>
<path fill-rule="evenodd" clip-rule="evenodd" d="M87.123 42.6939C87.123 42.5108 87.2715 42.3623 87.4547 42.3623H95.7448C95.9279 42.3623 96.0764 42.5108 96.0764 42.6939C96.0764 42.8771 95.9279 43.0255 95.7448 43.0255H87.4547C87.2715 43.0255 87.123 42.8771 87.123 42.6939Z" fill="#333333"/>
<path d="M68.3867 149.223H114.812V150.881H68.3867V149.223Z" fill="#C6CED1"/>
<path d="M82.481 53.0574L84.9681 51.3994H98.2323L100.719 53.0574L104.864 143.42L98.2323 149.223H84.9681L78.3359 143.42L82.481 53.0574Z" fill="#A7B0B5"/>
<path d="M84.9681 149.223V51.3994L82.481 53.0574L78.3359 143.42L84.9681 149.223Z" fill="#C6CED1"/>
<path d="M98.2312 149.223V51.3994L100.718 53.0574L104.863 143.42L98.2312 149.223Z" fill="#C6CED1"/>
<path d="M87.4551 70.4664C87.4551 68.1771 89.3109 66.3213 91.6002 66.3213C93.8894 66.3213 95.7452 68.1771 95.7452 70.4664V88.7047C95.7452 90.994 93.8894 92.8498 91.6002 92.8498C89.3109 92.8498 87.4551 90.994 87.4551 88.7047V70.4664Z" fill="#C6CED1"/>
<path d="M78.3349 143.42L84.967 149.223H68.3867L78.3349 143.42Z" fill="#A7B0B5"/>
<path d="M104.864 143.42L98.2322 149.223H114.812L104.864 143.42Z" fill="#A7B0B5"/>
<path d="M87.4551 123.523C87.4551 123.065 87.8262 122.694 88.2841 122.694H94.9162C95.3741 122.694 95.7452 123.065 95.7452 123.523C95.7452 123.981 95.3741 124.352 94.9162 124.352H88.2841C87.8262 124.352 87.4551 123.981 87.4551 123.523Z" fill="#69757B"/>
<path d="M88.2832 49.7412H94.9153V51.3992H88.2832V49.7412Z" fill="#333333"/>
<path fill-rule="evenodd" clip-rule="evenodd" d="M84.9154 51.156C85.0497 51.1272 85.1819 51.2127 85.2107 51.347C85.384 52.1558 85.5728 53.0962 85.7783 54.1201C86.3134 56.7861 86.962 60.0176 87.7467 62.962C88.2894 64.9987 88.8939 66.8842 89.5651 68.339C89.9007 69.0664 90.2495 69.6785 90.6104 70.1458C90.973 70.6151 91.335 70.9218 91.692 71.0646C91.8195 71.1156 91.8816 71.2604 91.8305 71.3879C91.7795 71.5154 91.6348 71.5774 91.5073 71.5264C91.0352 71.3376 90.6071 70.9552 90.2168 70.4498C89.8248 69.9424 89.4579 69.2941 89.1134 68.5474C88.4245 67.054 87.8114 65.1364 87.266 63.0901C86.477 60.1295 85.8229 56.8707 85.2871 54.201C85.0826 53.1822 84.8953 52.2492 84.7243 51.4513C84.6955 51.317 84.7811 51.1847 84.9154 51.156Z" fill="#333333"/>
<path fill-rule="evenodd" clip-rule="evenodd" d="M98.2838 51.156C98.1495 51.1272 98.0173 51.2127 97.9885 51.347C97.8152 52.1558 97.6265 53.0962 97.4209 54.1201C96.8858 56.7861 96.2372 60.0176 95.4525 62.962C94.9098 64.9987 94.3053 66.8842 93.6341 68.339C93.2985 69.0664 92.9498 69.6785 92.5888 70.1458C92.2263 70.6151 91.8642 70.9218 91.5072 71.0646C91.3797 71.1156 91.3177 71.2604 91.3687 71.3879C91.4197 71.5154 91.5644 71.5774 91.692 71.5264C92.164 71.3376 92.5921 70.9552 92.9825 70.4498C93.3744 69.9424 93.7413 69.2941 94.0858 68.5474C94.7747 67.054 95.3878 65.1364 95.9332 63.0901C96.7222 60.1295 97.3763 56.8707 97.9121 54.201C98.1166 53.1822 98.3039 52.2492 98.4749 51.4513C98.5037 51.317 98.4181 51.1847 98.2838 51.156Z" fill="#333333"/>
<path fill-rule="evenodd" clip-rule="evenodd" d="M87.7616 51.1802C86.5989 51.2835 85.6388 51.4371 85.0461 51.6346C84.9158 51.678 84.775 51.6076 84.7316 51.4773C84.6882 51.347 84.7586 51.2061 84.8889 51.1627C85.5398 50.9459 86.5486 50.7887 87.7175 50.6848C88.8921 50.5804 90.2467 50.5283 91.5996 50.5283C92.9526 50.5283 94.3072 50.5803 95.4818 50.6846C96.6507 50.7885 97.6596 50.9457 98.3104 51.1626C98.4407 51.2061 98.5111 51.3469 98.4677 51.4772C98.4243 51.6075 98.2834 51.678 98.1531 51.6345C97.5605 51.437 96.6004 51.2834 95.4377 51.1801C94.2807 51.0773 92.941 51.0257 91.5997 51.0257C90.2583 51.0258 88.9186 51.0774 87.7616 51.1802Z" fill="#333333"/>
<path d="M89.1133 72.953C89.1133 72.4952 89.4844 72.124 89.9423 72.124H93.2584C93.7162 72.124 94.0874 72.4952 94.0874 72.953V77.9271C94.0874 78.385 93.7162 78.7561 93.2584 78.7561H89.9423C89.4844 78.7561 89.1133 78.385 89.1133 77.9271V72.953Z" fill="#012F44"/>
<path d="M82.3245 10.9618L81.0717 18.0031L84.6614 15.9306L86.0864 19.3198L87.3393 12.2785L83.7495 14.3511L82.3245 10.9618Z" fill="#FFA300"/>
<path d="M68.5367 18.089L71.0661 22.3531L72.1397 20.1428L74.502 21.5938L71.9727 17.3297L70.899 19.5401L68.5367 18.089Z" fill="#FFA300"/>
<path d="M112.726 17.456L109.138 20.1072L111.076 20.8956L109.904 23.1594L113.492 20.5082L111.554 19.7199L112.726 17.456Z" fill="#FFA300"/>
<g opacity="0.5" clip-path="url(#clip0_19798_33503)">
<path d="M51.8414 23.0952C53.9421 23.6581 56.1014 22.4115 56.6643 20.3108C57.2272 18.2101 55.9805 16.0508 53.8798 15.4879C51.7791 14.9251 49.6199 16.1717 49.057 18.2724C48.4941 20.3731 49.7408 22.5323 51.8414 23.0952Z" stroke="#A7B0B5" stroke-width="2" stroke-linecap="round" stroke-linejoin="round"/>
<path d="M61.2232 25.6088C60.952 25.946 60.788 26.3567 60.7523 26.7879C60.7167 27.2192 60.8111 27.6513 61.0233 28.0284L61.079 28.1249C61.2517 28.4235 61.3638 28.7533 61.4089 29.0954C61.454 29.4374 61.4313 29.785 61.342 30.1182C61.2527 30.4514 61.0986 30.7638 60.8885 31.0375C60.6784 31.3111 60.4165 31.5406 60.1176 31.713C59.8189 31.8856 59.4891 31.9977 59.1471 32.0429C58.8051 32.088 58.4575 32.0653 58.1243 31.976C57.791 31.8867 57.4786 31.7326 57.205 31.5225C56.9314 31.3124 56.7018 31.0504 56.5295 30.7515L56.4738 30.6551C56.2533 30.2827 55.9263 29.985 55.535 29.8002C55.1437 29.6154 54.706 29.5521 54.2784 29.6184C53.8603 29.6786 53.469 29.8598 53.1525 30.1396C52.8361 30.4194 52.6084 30.7856 52.4975 31.1932L52.4397 31.4087C52.2595 32.0812 51.8195 32.6546 51.2166 33.0027C50.6136 33.3509 49.897 33.4452 49.2245 33.265C48.552 33.0848 47.9786 32.6448 47.6305 32.0419C47.2823 31.4389 47.188 30.7223 47.3682 30.0498L47.3988 29.9357C47.5014 29.5134 47.4746 29.07 47.3219 28.6631C47.1692 28.2562 46.8976 27.9047 46.5425 27.6543C46.2053 27.383 45.7945 27.219 45.3633 27.1834C44.932 27.1478 44.4999 27.2421 44.1228 27.4544L44.0263 27.5101C43.7277 27.6827 43.3979 27.7948 43.0559 27.8399C42.7138 27.8851 42.3663 27.8623 42.033 27.773C41.6998 27.6838 41.3874 27.5297 41.1138 27.3196C40.8401 27.1095 40.6106 26.8475 40.4382 26.5486C40.2656 26.25 40.1535 25.9202 40.1083 25.5781C40.0632 25.2361 40.086 24.8885 40.1752 24.5553C40.2645 24.2221 40.4186 23.9097 40.6287 23.636C40.8388 23.3624 41.1008 23.1329 41.3997 22.9605L41.4961 22.9048C41.8685 22.6843 42.1663 22.3574 42.351 21.966C42.5358 21.5747 42.5991 21.137 42.5328 20.7094C42.4726 20.2913 42.2914 19.9 42.0116 19.5836C41.7318 19.2672 41.3656 19.0395 40.9581 18.9285L40.7425 18.8708C40.07 18.6906 39.4966 18.2506 39.1485 17.6476C38.8003 17.0446 38.706 16.3281 38.8862 15.6556C39.0664 14.983 39.5064 14.4096 40.1094 14.0615C40.7123 13.7134 41.4289 13.619 42.1014 13.7992L42.2155 13.8298C42.6378 13.9325 43.0812 13.9057 43.4881 13.753C43.895 13.6002 44.2465 13.3286 44.4969 12.9735C44.7682 12.6363 44.9322 12.2256 44.9678 11.7943C45.0035 11.363 44.9091 10.931 44.6968 10.5538L44.6412 10.4574C44.4685 10.1587 44.3564 9.82893 44.3113 9.4869C44.2661 9.14487 44.2889 8.7973 44.3782 8.46406C44.4675 8.13082 44.6216 7.81845 44.8317 7.5448C45.0417 7.27116 45.3037 7.04161 45.6026 6.86928C45.9013 6.69662 46.231 6.58452 46.5731 6.53939C46.9151 6.49427 47.2627 6.517 47.5959 6.60629C47.9292 6.69558 48.2415 6.84968 48.5152 7.05977C48.7888 7.26987 49.0184 7.53184 49.1907 7.83071L49.2464 7.92717C49.4669 8.29953 49.7939 8.5973 50.1852 8.78208C50.5765 8.96686 51.0142 9.03018 51.4418 8.96387L51.5432 8.99105C51.9613 8.93081 52.3526 8.74964 52.6691 8.46984C52.9855 8.19004 53.2132 7.82383 53.3241 7.41628L53.3819 7.20074C53.5621 6.52821 54.0021 5.95481 54.605 5.60669C55.208 5.25856 55.9246 5.16423 56.5971 5.34443C57.2696 5.52463 57.843 5.96461 58.1911 6.56758C58.5393 7.17056 58.6336 7.88712 58.4534 8.55965L58.4228 8.67376C58.3151 9.08218 58.3292 9.51318 58.4633 9.9137C58.5975 10.3142 58.8458 10.6668 59.1777 10.928C59.5149 11.1992 59.9256 11.3632 60.3569 11.3989C60.7882 11.4345 61.2202 11.3401 61.5974 11.1279L61.6938 11.0722C61.9925 10.8995 62.3223 10.7874 62.6643 10.7423C63.0063 10.6972 63.3539 10.7199 63.6872 10.8092C64.0204 10.8985 64.3328 11.0526 64.6064 11.2627C64.8801 11.4728 65.1096 11.7348 65.2819 12.0336C65.4546 12.3323 65.5667 12.6621 65.6118 13.0041C65.6569 13.3462 65.6342 13.6937 65.5449 14.027C65.4556 14.3602 65.3015 14.6726 65.0914 14.9462C64.8813 15.2199 64.6194 15.4494 64.3205 15.6217L64.224 15.6774C63.8517 15.8979 63.5539 16.2249 63.3691 16.6162C63.1844 17.0075 63.121 17.4452 63.1873 17.8729L63.1602 17.9743C63.2204 18.3924 63.4016 18.7837 63.6814 19.1001C63.9612 19.4165 64.3274 19.6442 64.7349 19.7552L64.9505 19.8129C65.623 19.9931 66.1964 20.4331 66.5445 21.0361C66.8926 21.639 66.987 22.3556 66.8068 23.0281C66.6266 23.7007 66.1866 24.2741 65.5836 24.6222C64.9807 24.9703 64.2641 25.0646 63.5916 24.8844L63.4775 24.8539C63.069 24.7462 62.638 24.7603 62.2375 24.8944C61.837 25.0285 61.4844 25.2768 61.2232 25.6088V25.6088Z" stroke="#A7B0B5" stroke-width="2" stroke-linecap="round" stroke-linejoin="round"/>
</g>
<defs>
<clipPath id="clip0_19798_33503">
<rect width="31.5026" height="31.5026" fill="white" transform="translate(41.7227) rotate(15)"/>
</clipPath>
</defs>
</svg>
