<svg width="188" height="160" viewBox="0 0 188 160" fill="none" xmlns="http://www.w3.org/2000/svg">
<path opacity="0.3" d="M187.828 54.0342H131.933V81.9817H182.006C185.221 81.9817 187.828 79.3749 187.828 76.1593V54.0342Z" fill="#E1E5E7"/>
<path opacity="0.3" d="M56.2422 132.055H0.347149V160.002H50.4198C53.6354 160.002 56.2422 157.395 56.2422 154.18V132.055Z" fill="#E1E5E7"/>
<path d="M13.1562 83.1468C13.1562 76.7155 18.3698 71.502 24.8011 71.502H164.539C170.97 71.502 176.183 76.7155 176.183 83.1468V134.384C176.183 140.815 170.97 146.029 164.539 146.029H13.1562V83.1468Z" fill="#C8CCD0"/>
<path d="M158.681 127.397H39.9043C39.9043 97.1201 51.5491 56.3633 99.2928 56.3633C143.543 56.3633 158.681 95.3734 158.681 127.397Z" fill="#165C7D"/>
<path fill-rule="evenodd" clip-rule="evenodd" d="M51.3995 80.3386C60.3426 66.2642 75.3008 56.0137 99.2925 56.0137C121.539 56.0137 136.492 65.8283 145.87 79.6751C155.236 93.505 159.03 111.338 159.03 127.396C159.03 127.589 158.874 127.746 158.681 127.746H39.904C39.7111 127.746 39.5547 127.589 39.5547 127.396C39.5547 112.223 42.4709 94.3902 51.3995 80.3386ZM40.2539 127.047H158.331C158.276 111.174 154.489 93.6481 145.291 80.0669C136.037 66.4028 121.296 56.7124 99.2925 56.7124C75.5405 56.7124 60.8045 66.8402 51.9892 80.7133C43.2275 94.5023 40.2985 112.021 40.2539 127.047Z" fill="#165C7D"/>
<path d="M113.019 82.153C112.226 81.3596 111.284 80.7302 110.248 80.3008C109.212 79.8714 108.101 79.6504 106.979 79.6504C105.857 79.6504 104.747 79.8714 103.71 80.3008C102.674 80.7302 101.732 81.3596 100.939 82.153L99.2935 83.7988L97.6477 82.153C96.0459 80.5511 93.8733 79.6512 91.6079 79.6512C89.3426 79.6512 87.17 80.5511 85.5682 82.153C83.9663 83.7548 83.0664 85.9274 83.0664 88.1927C83.0664 90.4581 83.9663 92.6307 85.5682 94.2325L87.214 95.8783L99.2935 107.958L111.373 95.8783L113.019 94.2325C113.812 93.4395 114.442 92.4979 114.871 91.4616C115.3 90.4253 115.521 89.3145 115.521 88.1927C115.521 87.071 115.3 85.9602 114.871 84.9239C114.442 83.8876 113.812 82.946 113.019 82.153Z" fill="#E1E5E7"/>
<path fill-rule="evenodd" clip-rule="evenodd" d="M103.265 79.2254C104.443 78.7375 105.705 78.4863 106.98 78.4863C108.254 78.4863 109.517 78.7375 110.694 79.2254C111.872 79.7133 112.942 80.4284 113.843 81.3298C113.843 81.3299 113.843 81.3299 113.843 81.33C113.843 81.33 113.843 81.3301 113.843 81.3302C114.744 82.2313 115.46 83.3011 115.947 84.4785C116.435 85.6562 116.687 86.9184 116.687 88.1932C116.687 89.4679 116.435 90.7301 115.947 91.9078C115.459 93.0853 114.744 94.1552 113.843 95.0563L113.019 94.2329L113.843 95.0565C113.843 95.0565 113.843 95.0564 113.843 95.0563M99.2941 82.1524L98.4707 82.9758L99.2941 83.7992L100.118 82.9758L99.2941 82.1524ZM99.2941 106.311L98.4707 107.135L99.2941 107.958L100.118 107.135L99.2941 106.311ZM103.265 79.2254C102.088 79.7134 101.018 80.4285 100.117 81.33L103.265 79.2254ZM100.117 81.33C100.116 81.33 100.116 81.3301 100.116 81.3302L100.117 81.33Z" fill="#E1E5E7"/>
<path d="M120.253 26.0866C120.253 37.6629 110.869 47.0473 99.2927 47.0473C87.7164 47.0473 78.332 37.6629 78.332 26.0866C78.332 14.5104 87.7164 5.12598 99.2927 5.12598C110.869 5.12598 120.253 14.5104 120.253 26.0866Z" fill="#165C7D"/>
<path d="M97.5077 27.918C98.8327 27.918 99.9109 26.84 99.9109 25.5147L99.9107 20.8866C99.9107 20.5426 99.632 20.2637 99.2878 20.2637C98.9438 20.2637 98.6648 20.5424 98.6648 20.8866V25.5147C98.6648 26.1529 98.1458 26.6718 97.5077 26.6718C97.1637 26.6718 96.8848 26.9506 96.8848 27.2948C96.8848 27.6392 97.1635 27.9179 97.5077 27.9179L97.5077 27.918Z" fill="#C6CED1"/>
<path d="M92.3027 21.3336V23.1135C92.3027 23.5311 92.6415 23.8699 93.0592 23.8699C93.4768 23.8699 93.8156 23.5311 93.8156 23.1135V21.3336C93.8156 20.9159 93.4768 20.5771 93.0592 20.5771C92.6415 20.5771 92.3027 20.9159 92.3027 21.3336Z" fill="#C6CED1"/>
<path d="M105.52 23.8699C105.938 23.8699 106.277 23.5311 106.277 23.1135V21.3336C106.277 20.9159 105.938 20.5771 105.52 20.5771C105.102 20.5771 104.764 20.9159 104.764 21.3336V23.1135C104.764 23.5311 105.102 23.8699 105.52 23.8699Z" fill="#C6CED1"/>
<path d="M104.626 31.0041C104.406 30.7396 104.013 30.7032 103.748 30.9233C101.064 33.1541 97.1685 33.1541 94.4841 30.9233C94.2196 30.7034 93.8267 30.7398 93.6068 31.0041C93.387 31.2685 93.4229 31.6614 93.6878 31.8813C95.2606 33.1885 97.1885 33.842 99.1165 33.842C101.044 33.842 102.972 33.1883 104.545 31.8813C104.809 31.6614 104.846 31.2687 104.625 31.0041H104.626Z" fill="#C6CED1"/>
<path d="M69.0117 0.46875H129.565V54.0348H69.0117V0.46875Z" fill="#FFA300" fill-opacity="0.1"/>
<path fill-rule="evenodd" clip-rule="evenodd" d="M128.448 36.9174H70.1758V36.2188H128.448V36.9174Z" fill="#69757B"/>
<path d="M71.3407 36.5678C71.3407 37.2109 70.8193 37.7323 70.1762 37.7323C69.5331 37.7323 69.0117 37.2109 69.0117 36.5678C69.0117 35.9247 69.5331 35.4033 70.1762 35.4033C70.8193 35.4033 71.3407 35.9247 71.3407 36.5678Z" fill="#69757B"/>
<path d="M129.565 36.5678C129.565 37.2109 129.044 37.7323 128.401 37.7323C127.758 37.7323 127.236 37.2109 127.236 36.5678C127.236 35.9247 127.758 35.4033 128.401 35.4033C129.044 35.4033 129.565 35.9247 129.565 36.5678Z" fill="#69757B"/>
<path fill-rule="evenodd" clip-rule="evenodd" d="M68.5469 0.467745C68.5469 0.210495 68.7554 0.00195312 69.0127 0.00195312H78.3285C78.5858 0.00195312 78.7943 0.210495 78.7943 0.467745C78.7943 0.724995 78.5858 0.933537 78.3285 0.933537H69.4785V9.78358C69.4785 10.0408 69.2699 10.2494 69.0127 10.2494C68.7554 10.2494 68.5469 10.0408 68.5469 9.78358V0.467745Z" fill="#FFA300"/>
<path fill-rule="evenodd" clip-rule="evenodd" d="M130.033 0.467745C130.033 0.210495 129.825 0.00195312 129.567 0.00195312H120.252C119.994 0.00195312 119.786 0.210495 119.786 0.467745C119.786 0.724995 119.994 0.933537 120.252 0.933537H129.102V9.78358C129.102 10.0408 129.31 10.2494 129.567 10.2494C129.825 10.2494 130.033 10.0408 130.033 9.78358V0.467745Z" fill="#FFA300"/>
<path fill-rule="evenodd" clip-rule="evenodd" d="M68.5469 54.0342C68.5469 54.2915 68.7554 54.5 69.0127 54.5H78.3285C78.5858 54.5 78.7943 54.2915 78.7943 54.0342C78.7943 53.777 78.5858 53.5684 78.3285 53.5684H69.4785V44.7184C69.4785 44.4611 69.2699 44.2526 69.0127 44.2526C68.7554 44.2526 68.5469 44.4611 68.5469 44.7184V54.0342Z" fill="#FFA300"/>
<path fill-rule="evenodd" clip-rule="evenodd" d="M130.033 54.0342C130.033 54.2915 129.825 54.5 129.567 54.5H120.252C119.994 54.5 119.786 54.2915 119.786 54.0342C119.786 53.777 119.994 53.5684 120.252 53.5684H129.102V44.7184C129.102 44.4611 129.31 44.2526 129.567 44.2526C129.825 44.2526 130.033 44.4611 130.033 44.7184V54.0342Z" fill="#FFA300"/>
</svg>
