<svg width="142" height="160" viewBox="0 0 142 160" fill="none" xmlns="http://www.w3.org/2000/svg">
<path d="M141.014 154.901C141.014 157.718 109.621 160.001 70.8949 160.001C32.169 160.001 0.775391 157.718 0.775391 154.901C0.775391 152.085 32.169 149.802 70.8949 149.802C109.621 149.802 141.014 152.085 141.014 154.901Z" fill="#C8CCD0"/>
<path d="M67.3878 129.404L67.0691 150.44C65.0292 151.205 63.8818 150.44 62.9257 149.803L61.332 129.404H67.3878Z" fill="#A77427"/>
<path fill-rule="evenodd" clip-rule="evenodd" d="M61.1915 129.274C61.2277 129.235 61.2786 129.213 61.3319 129.213H67.3876C67.4389 129.213 67.4879 129.233 67.5239 129.27C67.5598 129.306 67.5796 129.356 67.5789 129.407L67.2601 150.443C67.2589 150.522 67.2097 150.591 67.1361 150.619C66.0824 151.014 65.2449 151.018 64.5418 150.832C63.8497 150.649 63.3016 150.283 62.828 149.967L62.8194 149.962C62.7706 149.929 62.7394 149.876 62.7348 149.817L61.1412 129.419C61.1371 129.366 61.1553 129.313 61.1915 129.274ZM61.5386 129.595L63.1089 149.695C63.5662 149.999 64.0469 150.305 64.6398 150.462C65.2336 150.62 65.9528 150.63 66.8797 150.305L67.1935 129.595H61.5386Z" fill="#333333"/>
<path d="M67.0692 150.44C65.0294 151.715 63.457 150.546 62.9258 149.802V149.165H67.0692V150.44Z" fill="#E1E5E7"/>
<path fill-rule="evenodd" clip-rule="evenodd" d="M62.7344 149.165C62.7344 149.059 62.82 148.974 62.9256 148.974H67.069C67.1747 148.974 67.2603 149.059 67.2603 149.165V150.44C67.2603 150.506 67.2263 150.567 67.1704 150.602C66.104 151.268 65.143 151.303 64.374 151.06C63.6139 150.82 63.0557 150.313 62.77 149.913C62.7468 149.881 62.7344 149.842 62.7344 149.802V149.165ZM63.1168 149.356V149.739C63.3727 150.076 63.8512 150.494 64.4892 150.696C65.1288 150.898 65.9422 150.887 66.8778 150.332V149.356H63.1168Z" fill="#333333"/>
<path d="M67.0684 154.265V150.507C64.5541 150.695 63.2808 150.116 62.9585 149.803C61.9109 150.038 59.3321 150.601 57.3981 150.977C55.464 151.353 54.8193 153.404 54.9805 154.265H67.0684Z" fill="#333333"/>
<path fill-rule="evenodd" clip-rule="evenodd" d="M63.0919 149.665C63.0456 149.62 62.9798 149.602 62.9168 149.616C61.8698 149.851 59.2932 150.414 57.3618 150.789C56.3287 150.99 55.6419 151.639 55.2379 152.344C54.8385 153.04 54.7018 153.814 54.7927 154.3C54.8097 154.39 54.8886 154.456 54.9807 154.456H67.0685C67.1741 154.456 67.2598 154.37 67.2598 154.265V150.507C67.2598 150.454 67.2376 150.403 67.1986 150.367C67.1596 150.331 67.1073 150.312 67.0543 150.316C65.8138 150.409 64.887 150.312 64.236 150.157C63.5779 150 63.2175 149.787 63.0919 149.665ZM62.9066 150.01C63.1307 150.186 63.5421 150.384 64.1473 150.529C64.8042 150.685 65.7044 150.782 66.8773 150.712V154.073H55.1506C55.1291 153.683 55.2497 153.092 55.5696 152.534C55.9312 151.904 56.5337 151.34 57.4347 151.165C59.316 150.799 61.8049 150.256 62.9066 150.01Z" fill="#333333"/>
<path d="M72.1692 129.404V150.44C74.209 151.205 75.3564 150.44 76.3126 149.803L77.9062 129.404H72.1692Z" fill="#A77427"/>
<path fill-rule="evenodd" clip-rule="evenodd" d="M78.0449 129.274C78.0087 129.235 77.9578 129.213 77.9045 129.213H72.1674C72.0618 129.213 71.9762 129.299 71.9762 129.404V150.44C71.9762 150.52 72.0256 150.591 72.1003 150.619C73.154 151.014 73.9914 151.018 74.6945 150.832C75.3866 150.649 75.9347 150.283 76.4084 149.967L76.4169 149.962C76.4657 149.929 76.4969 149.876 76.5015 149.817L78.0951 129.419C78.0993 129.366 78.0811 129.313 78.0449 129.274ZM77.6977 129.595L76.1274 149.695C75.6702 149.999 75.1894 150.305 74.5965 150.462C74.0032 150.62 73.2845 150.63 72.3587 150.306V129.595H77.6977Z" fill="#333333"/>
<path d="M72.1691 150.44C74.2089 151.715 75.7813 150.546 76.3125 149.802V149.165H72.1691V150.44Z" fill="#E1E5E7"/>
<path fill-rule="evenodd" clip-rule="evenodd" d="M76.502 149.165C76.502 149.059 76.4163 148.974 76.3107 148.974H72.1673C72.0617 148.974 71.9761 149.059 71.9761 149.165V150.44C71.9761 150.506 72.01 150.567 72.0659 150.602C73.1323 151.268 74.0934 151.303 74.8624 151.06C75.6224 150.82 76.1806 150.313 76.4663 149.913C76.4895 149.881 76.502 149.842 76.502 149.802V149.165ZM76.1195 149.356V149.739C75.8636 150.076 75.3851 150.494 74.7471 150.696C74.1076 150.898 73.2942 150.887 72.3585 150.332V149.356H76.1195Z" fill="#333333"/>
<path d="M72.168 154.265V150.507C74.6822 150.695 75.9555 150.116 76.2778 149.803C77.3254 150.038 79.9042 150.601 81.8382 150.977C83.7723 151.353 84.417 153.404 84.2558 154.265H72.168Z" fill="#333333"/>
<path fill-rule="evenodd" clip-rule="evenodd" d="M76.1444 149.665C76.1907 149.62 76.2565 149.602 76.3195 149.616C77.3665 149.851 79.9432 150.414 81.8745 150.789C82.9076 150.99 83.5944 151.639 83.9984 152.344C84.3979 153.04 84.5345 153.814 84.4436 154.3C84.4267 154.39 84.3477 154.456 84.2556 154.456H72.1678C72.0622 154.456 71.9766 154.37 71.9766 154.265V150.507C71.9766 150.454 71.9987 150.403 72.0377 150.367C72.0767 150.331 72.129 150.312 72.182 150.316C73.4225 150.409 74.3494 150.312 75.0003 150.157C75.6584 150 76.0188 149.787 76.1444 149.665ZM76.3297 150.01C76.1056 150.186 75.6942 150.384 75.0891 150.529C74.4321 150.685 73.5319 150.782 72.359 150.712V154.073H84.0857C84.1072 153.683 83.9866 153.092 83.6667 152.534C83.3051 151.904 82.7026 151.34 81.8016 151.165C79.9204 150.799 77.4315 150.256 76.3297 150.01Z" fill="#333333"/>
<path d="M119.022 54.1845C120.615 56.0968 125.077 54.8147 126.034 54.071L126.99 50.5685C127.415 48.7624 128.137 44.2577 127.627 40.688C126.99 36.2258 119.826 38.6091 118.065 40.3693C116.472 41.9629 114.985 44.9377 113.603 46.425H114.878C114.623 46.935 114.772 48.3374 114.878 48.9749C114.985 49.8248 114.304 51.2697 115.834 51.5246C116.95 51.7106 118.473 51.1731 119.339 50.58L119.022 54.1845Z" fill="#805928"/>
<path fill-rule="evenodd" clip-rule="evenodd" d="M120.137 38.8733C119.198 39.2789 118.395 39.7695 117.93 40.2339C117.117 41.0469 116.337 42.206 115.595 43.3316C115.54 43.4157 115.485 43.4995 115.43 43.583C114.743 44.6279 114.09 45.6197 113.463 46.2947C113.412 46.3505 113.398 46.4316 113.428 46.5013C113.459 46.571 113.528 46.6161 113.604 46.6161H114.614C114.591 46.7154 114.576 46.822 114.566 46.9307C114.544 47.1552 114.542 47.4073 114.552 47.6592C114.571 48.1609 114.635 48.6769 114.689 49.002C114.712 49.1889 114.692 49.4151 114.667 49.6775C114.666 49.6877 114.665 49.6981 114.664 49.7084C114.64 49.955 114.614 50.2281 114.632 50.4859C114.651 50.7567 114.719 51.0328 114.907 51.2601C115.098 51.4895 115.389 51.6441 115.803 51.7131C116.4 51.8126 117.091 51.7175 117.735 51.5278C118.233 51.3808 118.714 51.1739 119.115 50.9449L118.825 54.2461L118.875 54.3067C119.31 54.8282 119.932 55.1224 120.616 55.2651C121.301 55.4078 122.06 55.4022 122.79 55.3134C123.521 55.2245 124.231 55.0511 124.82 54.8524C125.404 54.6556 125.886 54.4278 126.151 54.2218L126.201 54.1827L127.176 50.6121C127.603 48.797 128.332 44.2652 127.817 40.6608C127.649 39.4835 127.042 38.7402 126.194 38.3354C125.359 37.9367 124.307 37.8741 123.244 38.0053C122.178 38.1369 121.08 38.4661 120.137 38.8733ZM119.284 50.3856C119.568 50.1836 119.742 49.9959 119.802 49.8555C119.844 49.7584 119.956 49.7135 120.053 49.7551C120.151 49.7967 120.195 49.9091 120.154 50.0062C120.054 50.2404 119.816 50.4743 119.522 50.6853L119.22 54.1204C119.58 54.5203 120.093 54.7653 120.694 54.8907C121.325 55.0222 122.04 55.0194 122.744 54.9338C123.447 54.8482 124.131 54.6811 124.698 54.49C125.228 54.311 125.64 54.1162 125.867 53.9565L126.805 50.5212C127.228 48.722 127.943 44.2478 127.438 40.7149C127.288 39.6611 126.759 39.0289 126.03 38.6806C125.287 38.3262 124.319 38.258 123.291 38.3849C122.267 38.5113 121.204 38.8291 120.288 39.2244C119.37 39.6213 118.617 40.0887 118.201 40.5044C117.42 41.285 116.66 42.41 115.915 43.542C115.858 43.6286 115.801 43.7152 115.744 43.8017C115.161 44.6874 114.587 45.5613 114.026 46.2336H115.188L115.05 46.5104C115.002 46.6059 114.966 46.7608 114.946 46.9669C114.927 47.1687 114.925 47.4026 114.934 47.6448C114.952 48.129 115.015 48.6307 115.067 48.9432L115.068 48.951C115.098 49.1884 115.072 49.4602 115.048 49.7141L115.046 49.732C115.021 49.9889 114.998 50.234 115.013 50.4595C115.029 50.688 115.084 50.8741 115.202 51.016C115.318 51.1557 115.515 51.2773 115.866 51.3358C116.385 51.4223 117.013 51.3417 117.627 51.1609C118.218 50.9865 118.779 50.7238 119.19 50.4498C119.214 50.4198 119.247 50.3972 119.284 50.3856Z" fill="#333333"/>
<path fill-rule="evenodd" clip-rule="evenodd" d="M118.009 43.4119C117.844 43.3878 117.644 43.4651 117.504 43.5602C117.417 43.6198 117.298 43.5973 117.239 43.51C117.179 43.4228 117.202 43.3038 117.289 43.2443C117.466 43.1236 117.764 42.9896 118.064 43.0334C118.221 43.0563 118.374 43.1275 118.501 43.2664C118.625 43.4027 118.715 43.5935 118.766 43.8414C118.787 43.9449 118.721 44.0461 118.617 44.0674C118.514 44.0888 118.413 44.0223 118.391 43.9188C118.349 43.7166 118.284 43.5956 118.219 43.5242C118.156 43.4554 118.085 43.4229 118.009 43.4119Z" fill="#333333"/>
<path d="M18.6673 53.5897C15.3526 55.3746 12.5663 54.609 11.6101 53.8653L11.0179 50.4024C10.593 48.5963 9.87052 44.0917 10.3805 40.522C11.0179 36.0598 18.182 38.4431 19.9424 40.2033C21.536 41.7969 23.0232 44.7716 24.4044 46.259H23.1295C23.3845 46.769 23.2357 48.1714 23.1295 48.8088C23.0232 49.6588 23.7033 51.1036 22.1735 51.3586C21.0572 51.5447 19.5335 51.0067 18.6675 50.4133L18.6673 53.5897Z" fill="#E5B870"/>
<path fill-rule="evenodd" clip-rule="evenodd" d="M17.8729 38.7073C18.8122 39.1129 19.6149 39.6035 20.0793 40.0679C20.8923 40.8809 21.673 42.04 22.4145 43.1656C22.4699 43.2497 22.525 43.3335 22.5799 43.417C23.2671 44.4619 23.9194 45.4537 24.5463 46.1287C24.598 46.1845 24.6118 46.2656 24.5814 46.3353C24.551 46.405 24.4822 46.4501 24.4061 46.4501H23.3961C23.4185 46.5494 23.4338 46.656 23.4441 46.7647C23.4654 46.9892 23.4673 47.2413 23.4578 47.4931C23.4389 47.9949 23.3746 48.5109 23.3205 48.836C23.2978 49.0229 23.3173 49.2491 23.3425 49.5115C23.3435 49.5217 23.3445 49.5321 23.3455 49.5424C23.3693 49.789 23.3957 50.0621 23.3779 50.3198C23.3591 50.5907 23.2907 50.8668 23.1023 51.0941C22.912 51.3235 22.6206 51.4781 22.2066 51.5471C21.6093 51.6466 20.9181 51.5514 20.2743 51.3615C19.7619 51.2104 19.2681 50.996 18.8604 50.7593L18.8603 53.7038L18.7597 53.7579C15.3876 55.5737 12.5183 54.8124 11.4944 54.0161L11.4358 53.9705L10.8322 50.4403C10.4049 48.6214 9.67854 44.0953 10.1929 40.4948C10.3611 39.3175 10.9673 38.5742 11.8153 38.1694C12.6505 37.7707 13.7025 37.7081 14.7655 37.8393C15.8319 37.9709 16.93 38.3001 17.8729 38.7073ZM18.726 50.2196C18.4417 50.0176 18.2675 49.8298 18.2074 49.6895C18.1658 49.5924 18.0534 49.5475 17.9563 49.5891C17.8592 49.6307 17.8142 49.7431 17.8559 49.8402C17.9551 50.0718 18.1889 50.3032 18.478 50.5124L18.4778 53.4746C15.3335 55.1236 12.7213 54.4292 11.7875 53.7577L11.2072 50.3642L11.2058 50.3585C10.783 48.5614 10.0665 44.0839 10.5715 40.5488C10.7221 39.4951 11.2504 38.8629 11.98 38.5146C12.7224 38.1602 13.6909 38.092 14.7187 38.2189C15.743 38.3453 16.8058 38.6631 17.7213 39.0584C18.6402 39.4552 19.3932 39.9227 19.8089 40.3384C20.5895 41.119 21.3493 42.244 22.0951 43.376C22.1521 43.4626 22.2091 43.5492 22.266 43.6357C22.8483 44.5214 23.4229 45.3953 23.984 46.0676H22.8218L22.9602 46.3444C23.0079 46.4398 23.0438 46.5948 23.0634 46.8008C23.0825 47.0027 23.0847 47.2366 23.0756 47.4788C23.0574 47.963 22.9947 48.4647 22.9426 48.7772L22.9415 48.7849C22.9118 49.0224 22.9374 49.2942 22.9618 49.5481L22.9635 49.566C22.9883 49.8229 23.0119 50.068 22.9963 50.2935C22.9805 50.522 22.9255 50.708 22.8078 50.8499C22.692 50.9897 22.4948 51.1113 22.1438 51.1698C21.6248 51.2563 20.996 51.1756 20.3825 50.9947C19.7911 50.8203 19.2306 50.5577 18.8193 50.2838C18.7957 50.2539 18.7633 50.2312 18.726 50.2196Z" fill="#333333"/>
<path fill-rule="evenodd" clip-rule="evenodd" d="M19.5594 43.1703C19.3974 43.2099 19.2409 43.3565 19.1472 43.497C19.0887 43.5849 18.9699 43.6086 18.8821 43.5501C18.7942 43.4915 18.7704 43.3727 18.829 43.2849C18.9478 43.1067 19.1739 42.8708 19.4687 42.7988C19.6226 42.7612 19.7916 42.7697 19.9612 42.8509C20.1277 42.9307 20.2817 43.0742 20.4221 43.2849C20.4807 43.3727 20.457 43.4915 20.3691 43.5501C20.2812 43.6086 20.1625 43.5849 20.1039 43.497C19.9894 43.3252 19.8831 43.2376 19.7959 43.1959C19.7119 43.1556 19.6339 43.1521 19.5594 43.1703Z" fill="#333333"/>
<path d="M24.0875 39.2467C23.0676 41.2865 20.0503 40.9466 18.6692 40.5216C18.4141 42.8164 16.3315 45.7275 15.1629 47.2148C14.738 46.5774 13.5693 45.6212 12.6135 46.5774C11.9635 47.2276 12.9322 48.2772 13.5697 48.8085L10.3824 51.0395C9.61747 50.7845 9.10751 49.7647 8.7889 48.4898C8.47006 47.5337 7.57733 42.5614 7.83231 39.2467C8.15104 35.1033 9.68299 36.1111 11.6573 34.4658C13.5696 32.8721 17.8801 34.4506 19.5799 35.4068C21.492 36.3631 25.1074 37.2068 24.0875 39.2467Z" fill="#8F6E0D"/>
<path fill-rule="evenodd" clip-rule="evenodd" d="M19.6538 35.2662C20.0445 35.4613 20.5071 35.6518 20.993 35.8519C21.0927 35.8929 21.1933 35.9344 21.2946 35.9763C21.8863 36.2217 22.4944 36.4841 23.012 36.7825C23.5268 37.0793 23.972 37.4228 24.2187 37.8396C24.4732 38.2698 24.5071 38.7625 24.2293 39.3181C23.6851 40.4065 22.6118 40.8472 21.5306 40.967C20.5373 41.0771 19.5099 40.921 18.8023 40.7266C18.6324 41.8594 18.0604 43.1088 17.3956 44.2513C16.6918 45.4608 15.874 46.5669 15.2874 47.3135C15.2559 47.3537 15.207 47.3763 15.1559 47.3743C15.1049 47.3723 15.0579 47.3459 15.0295 47.3034C14.8297 47.0037 14.4534 46.6294 14.0237 46.4452C13.811 46.354 13.5916 46.3121 13.3765 46.342C13.1634 46.3716 12.9422 46.4734 12.7254 46.6902C12.5963 46.8194 12.5501 46.9625 12.5574 47.1182C12.5651 47.2807 12.632 47.4638 12.7454 47.6571C12.9724 48.044 13.3578 48.4253 13.6709 48.6862C13.709 48.718 13.7302 48.7657 13.7281 48.8153C13.726 48.8649 13.7009 48.9107 13.6602 48.9392L10.473 51.1703C10.4317 51.1992 10.3791 51.2069 10.3312 51.1909C9.89746 51.0463 9.55293 50.6911 9.28018 50.2282C9.00738 49.7653 8.79607 49.1776 8.63496 48.5345C8.46984 48.0347 8.16695 46.5442 7.93659 44.7735C7.70494 42.9928 7.54387 40.9083 7.67262 39.2346C7.83334 37.1453 8.30376 36.3018 9.03139 35.7894C9.31207 35.5917 9.62957 35.4454 9.95864 35.2938C10.0394 35.2566 10.1208 35.2191 10.2026 35.1804C10.6233 34.9814 11.0756 34.7426 11.5544 34.3436C12.0656 33.9176 12.7285 33.7104 13.4482 33.6475C14.1682 33.5845 14.9558 33.6648 15.7296 33.8242C17.2744 34.1423 18.7904 34.781 19.6538 35.2662ZM13.476 33.965C12.7965 34.0244 12.2035 34.2176 11.7585 34.5884C11.2501 35.0121 10.7706 35.2643 10.3389 35.4685C10.2494 35.5108 10.163 35.5507 10.0793 35.5893C9.75353 35.7396 9.46955 35.8706 9.21492 36.0499C8.60332 36.4807 8.14841 37.205 7.9904 39.2591C7.86417 40.9002 8.02198 42.9592 8.25265 44.7323C8.48371 46.5084 8.78512 47.9773 8.93928 48.4396C8.94057 48.4434 8.94172 48.4474 8.94271 48.4513C9.10002 49.0808 9.30254 49.6384 9.55478 50.0664C9.7891 50.4641 10.0575 50.7354 10.3589 50.8611L13.3098 48.7954C13.0166 48.533 12.6853 48.1843 12.4705 47.8184C12.3434 47.6016 12.2501 47.3671 12.2391 47.1333C12.2277 46.8928 12.3041 46.6609 12.5 46.4649C12.7611 46.2037 13.0444 46.0664 13.3325 46.0263C13.6186 45.9865 13.8972 46.0442 14.1492 46.1522C14.5654 46.3306 14.9266 46.6533 15.1658 46.9513C15.7345 46.218 16.4766 45.1969 17.1201 44.091C17.8156 42.8958 18.3862 41.6178 18.51 40.5042C18.5152 40.457 18.5413 40.4146 18.5809 40.3885C18.6206 40.3625 18.6699 40.3555 18.7153 40.3695C19.3909 40.5773 20.468 40.7641 21.4955 40.6502C22.5231 40.5363 23.4684 40.1271 23.9442 39.1756C24.1763 38.7113 24.1407 38.3337 23.9444 38.002C23.7403 37.657 23.3534 37.3473 22.8528 37.0587C22.3551 36.7717 21.7645 36.5163 21.1725 36.2708C21.0733 36.2297 20.9741 36.1888 20.8752 36.1481C20.388 35.9475 19.9107 35.751 19.5079 35.5495L19.5009 35.5461L19.501 35.5459C18.6639 35.075 17.1768 34.4476 15.6653 34.1364C14.91 33.9808 14.1552 33.9056 13.476 33.965Z" fill="#8F6E0D"/>
<path d="M122.848 117.292L121.254 147.252C119.214 148.017 116.792 147.89 115.836 147.252C115.836 147.252 115.198 127.81 114.879 125.26C114.416 121.555 115.517 117.292 115.517 117.292H122.848Z" fill="#805928"/>
<path fill-rule="evenodd" clip-rule="evenodd" d="M115.331 117.244C115.353 117.16 115.429 117.101 115.517 117.101H122.847C122.9 117.101 122.95 117.122 122.986 117.16C123.022 117.198 123.041 117.25 123.038 117.302L121.445 147.262C121.441 147.338 121.392 147.404 121.321 147.431C120.276 147.823 119.136 147.985 118.135 147.969C117.142 147.953 116.253 147.76 115.729 147.411C115.678 147.377 115.646 147.32 115.644 147.258L115.835 147.252C115.644 147.258 115.644 147.258 115.644 147.258L115.616 146.418C115.598 145.881 115.572 145.112 115.54 144.181C115.475 142.319 115.385 139.809 115.286 137.219C115.086 132.034 114.847 126.548 114.689 125.284C114.455 123.407 114.617 121.396 114.835 119.859C114.944 119.09 115.068 118.437 115.165 117.977C115.213 117.746 115.255 117.564 115.284 117.438C115.299 117.376 115.311 117.327 115.319 117.295L115.328 117.257L115.331 117.248L115.331 117.244C115.332 117.244 115.331 117.244 115.517 117.292L115.331 117.244ZM115.667 117.483C115.663 117.497 115.66 117.511 115.656 117.526C115.628 117.648 115.587 117.828 115.539 118.055C115.444 118.509 115.322 119.154 115.214 119.913C114.997 121.435 114.84 123.408 115.069 125.236C115.23 126.522 115.469 132.032 115.668 137.205C115.767 139.795 115.857 142.305 115.922 144.168C115.954 145.099 115.98 145.868 115.998 146.405L116.023 147.144C116.471 147.403 117.232 147.572 118.141 147.587C119.063 147.602 120.106 147.458 121.069 147.116L122.646 117.483H115.667Z" fill="#333333"/>
<path d="M130.177 95.9369C130.177 101.674 127.946 112.829 126.671 120.479H124.121H111.053C110.774 116.896 110.416 112.952 110.416 111.873C110.416 101.754 111.498 88.8232 112.932 81.913C113.052 81.3357 113.17 80.8026 113.285 80.3193H128.583C128.724 80.8465 128.861 81.3776 128.993 81.913C130.057 86.2326 130.177 90.8324 130.177 95.9369Z" fill="#007D8A"/>
<path fill-rule="evenodd" clip-rule="evenodd" d="M113.098 80.276C113.119 80.1898 113.196 80.1289 113.284 80.1289H128.583C128.67 80.1289 128.746 80.1872 128.768 80.2709C128.909 80.7991 129.046 81.3314 129.178 81.868C130.249 86.2127 130.368 90.8336 130.368 95.9377C130.368 98.8235 129.808 103.061 129.091 107.522C128.675 110.111 128.204 112.785 127.758 115.32C127.436 117.152 127.126 118.91 126.859 120.511C126.844 120.603 126.764 120.671 126.671 120.671H111.053C110.953 120.671 110.87 120.594 110.863 120.494C110.784 119.481 110.698 118.436 110.616 117.435C110.409 114.906 110.225 112.654 110.225 111.874C110.225 101.747 111.307 88.8022 112.745 81.8749C112.865 81.2962 112.983 80.7613 113.098 80.276ZM113.436 80.5114C113.346 80.8946 113.255 81.308 113.162 81.7488C117.181 82.2117 125.04 81.9436 128.751 81.736C128.649 81.3254 128.544 80.9172 128.436 80.5114H113.436ZM128.844 82.1138C125.158 82.3223 117.158 82.6006 113.084 82.1248C111.671 89.0592 110.607 101.847 110.607 111.874C110.607 112.637 110.789 114.858 110.995 117.373C111.073 118.324 111.154 119.316 111.23 120.288H126.509C126.771 118.722 127.071 117.018 127.383 115.247C127.828 112.717 128.297 110.051 128.713 107.461C129.43 102.998 129.986 98.7889 129.986 95.9377C129.986 90.8939 129.868 86.3638 128.844 82.1138Z" fill="#01727D"/>
<path d="M23.4053 148.526L24.0429 149.164C24.1492 149.164 24.1822 151.112 22.7678 151.395C21.1741 151.714 19.6869 150.97 18.6246 150.12V148.526H23.4053Z" fill="#D8BA8A"/>
<path fill-rule="evenodd" clip-rule="evenodd" d="M23.5407 148.392C23.5048 148.356 23.4562 148.336 23.4055 148.336H18.6246C18.519 148.336 18.4333 148.422 18.4333 148.527V150.121C18.4333 150.179 18.4598 150.234 18.5051 150.27C19.5859 151.135 21.1305 151.918 22.8055 151.583C23.6121 151.422 23.9941 150.784 24.1591 150.229C24.2421 149.949 24.2744 149.68 24.2788 149.478C24.2809 149.377 24.2764 149.288 24.2658 149.22C24.2608 149.187 24.253 149.15 24.2394 149.116C24.2329 149.099 24.2207 149.073 24.1986 149.046C24.1903 149.037 24.1774 149.023 24.1598 149.011L23.5407 148.392ZM23.3263 148.718L23.8881 149.28C23.894 149.32 23.8982 149.384 23.8964 149.469C23.8926 149.641 23.8647 149.877 23.7925 150.12C23.6469 150.609 23.3382 151.087 22.7305 151.208C21.2522 151.504 19.8531 150.838 18.8158 150.028V148.718H23.3263ZM24.0431 149.356C24.037 149.356 24.031 149.356 24.025 149.355C24.0308 149.356 24.0369 149.356 24.0431 149.356Z" fill="#333333"/>
<path d="M18.623 155.22V150.12C21.9378 150.375 23.6164 149.589 24.0414 149.164C25.4225 149.483 28.8223 150.248 31.3721 150.758C33.9219 151.268 34.7718 154.051 34.5593 155.22H18.623Z" fill="#333333"/>
<path fill-rule="evenodd" clip-rule="evenodd" d="M23.906 149.03C23.9526 148.983 24.02 148.964 24.0842 148.979C25.4647 149.297 28.8623 150.062 31.4094 150.571C32.752 150.839 33.6435 151.707 34.1684 152.649C34.6891 153.584 34.8633 154.617 34.7473 155.255C34.7307 155.346 34.6516 155.412 34.5591 155.412H18.6229C18.5173 155.412 18.4316 155.326 18.4316 155.221V150.121C18.4316 150.068 18.4539 150.017 18.4929 149.981C18.532 149.945 18.5844 149.926 18.6375 149.93C20.2778 150.057 21.5055 149.924 22.3701 149.712C23.2417 149.498 23.7288 149.207 23.906 149.03ZM24.0957 149.374C23.8163 149.608 23.2767 149.883 22.4613 150.084C21.5894 150.298 20.3872 150.429 18.8141 150.326V155.029H34.3914C34.4379 154.482 34.2778 153.632 33.8343 152.836C33.3499 151.966 32.5416 151.187 31.3344 150.946C28.8399 150.447 25.5344 149.705 24.0957 149.374Z" fill="#333333"/>
<path d="M27.5476 123.347C27.7917 133.551 25.6352 148.845 25.6352 148.845C25.6352 148.845 22.9157 149.102 21.1731 149.164C19.4305 149.226 16.0735 149.164 16.0735 149.164C15.1556 139.788 15.1173 125.578 15.1173 125.578C15.1173 125.578 13.3922 118.065 12.5675 109.642C8.42405 100.718 8.74282 97.6366 9.38027 96.5742H27.5476C27.5476 96.5742 27.3002 113.007 27.5476 123.347Z" fill="#69757B"/>
<path fill-rule="evenodd" clip-rule="evenodd" d="M9.21805 96.4766C9.25261 96.419 9.31486 96.3838 9.38203 96.3838H27.5494C27.6006 96.3838 27.6497 96.4043 27.6856 96.4408C27.7215 96.4773 27.7413 96.5267 27.7406 96.5779L27.5494 96.575C27.7406 96.5779 27.7406 96.5778 27.7406 96.5779L27.7379 96.7648C27.7361 96.8877 27.7336 97.0692 27.7304 97.3039C27.7242 97.7733 27.7155 98.4555 27.7058 99.3064C27.6865 101.008 27.6633 103.385 27.6478 106.085C27.6169 111.485 27.6169 118.176 27.7405 123.343C27.8629 128.457 27.3838 134.842 26.875 139.942C26.6205 142.494 26.3584 144.726 26.1599 146.32C26.0607 147.118 25.9773 147.756 25.9187 148.194C25.8895 148.413 25.8664 148.583 25.8506 148.698L25.8326 148.828L25.8265 148.872C25.8265 148.872 25.8264 148.873 25.637 148.846L25.6549 149.036L25.6238 149.039L25.5342 149.048C25.4563 149.055 25.343 149.065 25.2017 149.077C24.9191 149.103 24.5242 149.137 24.0747 149.173C23.1764 149.245 22.0574 149.325 21.1817 149.356C20.3058 149.387 19.0272 149.387 17.9702 149.379C17.4411 149.375 16.9666 149.37 16.6243 149.365C16.4532 149.362 16.3151 149.36 16.2198 149.358L16.0724 149.356C15.9753 149.354 15.8944 149.28 15.885 149.183C15.4253 144.488 15.1861 138.586 15.0618 133.861C14.9996 131.498 14.9661 129.427 14.9482 127.948C14.9392 127.208 14.9341 126.616 14.9313 126.209C14.9298 126.006 14.929 125.848 14.9285 125.742L14.9279 125.601L14.9276 125.6L14.9129 125.535C14.9 125.477 14.881 125.392 14.8565 125.281C14.8076 125.058 14.7369 124.731 14.6494 124.313C14.4745 123.475 14.2328 122.271 13.9653 120.804C13.4317 117.877 12.7952 113.9 12.3821 109.694C10.3165 105.241 9.35636 102.231 8.99453 100.194C8.63256 98.1563 8.86474 97.0655 9.21805 96.4766ZM15.1191 125.579C15.3103 125.578 15.3103 125.579 15.3103 125.579L15.3109 125.74C15.3114 125.846 15.3123 126.003 15.3137 126.207C15.3166 126.613 15.3216 127.204 15.3306 127.943C15.3485 129.421 15.382 131.49 15.4441 133.851C15.5669 138.517 15.8016 144.323 16.2491 148.976C16.3429 148.978 16.4723 148.98 16.6298 148.982C16.9714 148.987 17.445 148.993 17.973 148.997C19.0301 149.005 20.3013 149.005 21.168 148.974C22.0349 148.943 23.1469 148.863 24.0441 148.791C24.4923 148.755 24.8862 148.721 25.168 148.697C25.2912 148.686 25.3929 148.676 25.4684 148.669L25.4717 148.646C25.4874 148.531 25.5104 148.362 25.5396 148.144C25.5981 147.706 25.6813 147.069 25.7804 146.273C25.9786 144.681 26.2403 142.452 26.4944 139.904C27.0029 134.807 27.4799 128.442 27.3582 123.353C27.2344 118.18 27.2345 111.484 27.2654 106.083C27.2808 103.382 27.304 101.004 27.3234 99.3021C27.333 98.4508 27.3417 97.7684 27.348 97.2988C27.3511 97.0683 27.3536 96.8891 27.3553 96.7663H9.49436C9.234 97.271 9.0377 98.2503 9.3711 100.127C9.72559 102.123 10.6744 105.107 12.7427 109.562C12.7518 109.582 12.7575 109.603 12.7596 109.624C13.1713 113.829 13.8078 117.807 14.3416 120.735C14.6084 122.199 14.8495 123.4 15.0238 124.234C15.111 124.652 15.1814 124.977 15.2301 125.199C15.2544 125.309 15.2733 125.394 15.2861 125.451L15.3006 125.515L15.3054 125.536L15.1191 125.579ZM15.1191 125.579L15.3054 125.536C15.3086 125.55 15.3102 125.564 15.3103 125.579L15.1191 125.579ZM25.637 148.846L25.6549 149.036C25.7431 149.028 25.814 148.96 25.8264 148.873L25.637 148.846Z" fill="#69757B"/>
<path d="M8.74414 96.8935C6.44932 72.4154 10.2314 58.1153 11.6126 53.8656C14.1624 55.3955 17.2434 54.2906 18.6245 53.5469C22.768 57.3716 23.7241 61.515 24.6803 64.0648C25.8325 67.1373 28.5051 85.6319 28.1863 96.8935H8.74414Z" fill="#165C7D"/>
<path fill-rule="evenodd" clip-rule="evenodd" d="M18.5337 53.3783C18.6056 53.3396 18.6941 53.3508 18.7541 53.4062C22.3443 56.7202 23.5692 60.2804 24.4441 62.8235C24.589 63.2446 24.7243 63.6379 24.8592 63.9975C25.1546 64.7852 25.5402 66.535 25.9473 68.8739C26.3555 71.2196 26.7881 74.1748 27.1746 77.3852C27.9473 83.804 28.5371 91.2539 28.3773 96.8987C28.3744 97.0022 28.2897 97.0846 28.1862 97.0846H8.74397C8.64527 97.0846 8.56278 97.0094 8.55357 96.9112C6.25619 72.4058 10.0418 58.0795 11.4305 53.8063C11.4485 53.7509 11.4908 53.7067 11.5454 53.6863C11.5999 53.6659 11.6608 53.6715 11.7108 53.7014C12.937 54.4372 14.2968 54.5432 15.5299 54.3693C16.7639 54.1952 17.8578 53.7423 18.5337 53.3783ZM11.7224 54.1482C10.2978 58.627 6.69837 72.771 8.9182 96.7021H28C28.141 91.1079 27.5583 83.7725 26.7949 77.4309C26.7413 76.9855 26.6868 76.5451 26.6316 76.1106L20.6594 81.1038C20.5783 81.1715 20.4577 81.1608 20.39 81.0797C20.3222 80.9987 20.333 80.8781 20.414 80.8104L26.5135 75.7108C26.5325 75.6949 26.5537 75.6833 26.5759 75.6759C26.2497 73.153 25.9019 70.8438 25.5704 68.9395C25.1623 66.5946 24.7818 64.8804 24.5011 64.1318C24.3631 63.7638 24.2255 63.3646 24.0791 62.9395C23.2116 60.4216 22.0315 56.9966 18.5935 53.7791C17.883 54.1463 16.801 54.5763 15.5834 54.748C14.3606 54.9205 12.9892 54.8339 11.7224 54.1482Z" fill="#135371"/>
<path d="M26.593 90.5184C24.9647 88.4248 20.8559 80.638 20.8559 80.638C23.4057 78.4069 23.4057 78.4069 26.593 75.8571L30.597 83.5839L38.3858 96.8929L42.2106 102.949L39.9795 106.773L36.7922 102.63C36.7922 102.63 28.8241 93.387 26.593 90.5184Z" fill="#E5B870"/>
<path d="M42.5293 109.323C42.7418 109.536 43.2305 109.897 43.4854 109.642C43.5573 109.57 43.6616 109.433 43.7764 109.257C43.8842 109.092 44.0012 108.892 44.1093 108.679C44.172 108.555 44.2318 108.427 44.2849 108.298C44.4753 107.838 44.5818 107.373 44.4416 107.092L43.3849 108.325L42.5293 109.323Z" fill="#E5B870"/>
<path fill-rule="evenodd" clip-rule="evenodd" d="M44.1816 108.031L43.9785 107.926L44.304 107.546C44.302 107.563 44.2995 107.581 44.2966 107.599C44.2757 107.732 44.2356 107.879 44.1816 108.031ZM43.7229 108.224L44.0367 108.387C44.031 108.399 44.0252 108.412 44.0194 108.424L43.6892 108.263L43.7229 108.224ZM43.4321 108.563L43.8465 108.766C43.8097 108.833 43.7725 108.898 43.7356 108.96L43.3787 108.625L43.4321 108.563ZM43.1296 108.916L43.5249 109.286C43.4514 109.391 43.39 109.466 43.3485 109.508C43.3138 109.543 43.2387 109.565 43.0711 109.486C42.975 109.441 42.8776 109.374 42.7944 109.307L43.1296 108.916ZM44.2437 108.834C44.1422 109.028 44.0349 109.21 43.9349 109.363C43.8182 109.542 43.7052 109.692 43.6189 109.778C43.3987 109.999 43.1019 109.923 42.9083 109.832C42.7011 109.735 42.508 109.575 42.3923 109.46C42.3217 109.389 42.3173 109.276 42.3823 109.2L44.2946 106.969C44.3363 106.92 44.3996 106.896 44.4632 106.904C44.5268 106.911 44.5822 106.951 44.6109 107.008C44.7071 107.2 44.7098 107.434 44.6744 107.659C44.6383 107.888 44.5584 108.135 44.4599 108.373C44.4144 108.483 44.3644 108.592 44.312 108.699C44.3105 108.723 44.3043 108.748 44.2929 108.771C44.2807 108.796 44.2637 108.817 44.2437 108.834ZM42.374 103.046C42.41 102.985 42.4086 102.908 42.3705 102.848L38.5475 96.7947L30.7628 83.4928L26.7611 75.7703C26.7347 75.7195 26.687 75.6831 26.631 75.6712C26.5749 75.6593 26.5165 75.6732 26.4718 75.709C23.2827 78.2602 23.2805 78.262 20.7282 80.4952C20.6616 80.5536 20.6437 80.6501 20.685 80.7284L20.8542 80.6392C20.685 80.7284 20.685 80.7283 20.685 80.7284L20.7317 80.8167C20.7623 80.8743 20.8073 80.9591 20.8651 81.0677C20.9807 81.2849 21.1477 81.5976 21.3532 81.9792C21.7642 82.7425 22.3291 83.7821 22.945 84.8874C24.1733 87.0914 25.6152 89.5762 26.4403 90.637C27.559 92.0753 30.1119 95.1068 32.3819 97.775C33.5176 99.1099 34.5835 100.355 35.3655 101.267C35.7565 101.722 36.0765 102.095 36.2988 102.353L36.6422 102.752L39.8262 106.891C39.865 106.942 39.9264 106.97 39.9899 106.965C40.0535 106.961 40.1108 106.926 40.1429 106.871L42.374 103.046ZM36.7905 102.631C36.9353 102.506 36.9353 102.506 36.9352 102.506L36.5887 102.104C36.3665 101.845 36.0466 101.473 35.6558 101.018C34.874 100.106 33.8084 98.8616 32.6732 97.5272C30.4013 94.8567 27.8546 91.8324 26.7422 90.4022C25.939 89.3695 24.5123 86.914 23.2791 84.7012C22.6644 83.598 22.1003 82.5601 21.69 81.7979C21.4848 81.4168 21.3181 81.1048 21.2027 80.888C21.1588 80.8055 21.1223 80.7368 21.094 80.6834C22.1775 79.7354 22.7876 79.2022 23.4079 78.681C24.1536 78.0544 24.9139 77.4451 26.5287 76.1532L30.4255 83.6731C30.427 83.676 30.4286 83.6789 30.4302 83.6817L38.2223 96.9963L41.9851 102.954L39.9559 106.433L36.9421 102.515C36.9406 102.513 36.9391 102.511 36.9376 102.509C36.9369 102.508 36.936 102.507 36.9352 102.506L36.7905 102.631Z" fill="#333333"/>
<path fill-rule="evenodd" clip-rule="evenodd" d="M20.3842 65.2249C20.4476 65.1404 20.5674 65.1233 20.6519 65.1867C22.2174 66.3608 23.5616 68.3848 24.6037 70.4157C25.6484 72.4515 26.4017 74.5188 26.7766 75.8041L26.8124 75.927L23.529 78.5536L20.5437 81.2073L20.4177 81.1065C15.2567 76.9777 14.1824 70.7907 14.2903 68.2002C14.2947 68.0947 14.3838 68.0127 14.4894 68.0171C14.5949 68.0215 14.6769 68.1106 14.6725 68.2162C14.5688 70.7044 15.601 76.6766 20.5313 80.7066L23.2824 78.2612L26.3732 75.7886C25.9931 74.5171 25.2631 72.5385 24.2635 70.5903C23.2286 68.5735 21.9167 66.6134 20.4224 65.4927C20.338 65.4293 20.3208 65.3094 20.3842 65.2249Z" fill="#135371"/>
<path d="M128.584 80.3194H113.285C112.266 78.2796 109.567 70.1202 109.779 66.933C110.034 64.6381 112.967 60.1335 113.923 58.9648C114.242 58.6461 116.791 55.4589 119.023 54.184C120.297 55.4589 124.76 54.8214 126.353 53.8652C127.309 54.7152 129.253 57.812 129.54 61.8334C129.859 66.2955 129.54 73.6262 128.584 80.3194Z" fill="#007D8A"/>
<path fill-rule="evenodd" clip-rule="evenodd" d="M126.255 53.7021C126.326 53.6591 126.418 53.6676 126.48 53.7231C126.985 54.1721 127.724 55.1845 128.371 56.5804C129.021 57.9811 129.585 59.7832 129.731 61.8205C130.051 66.2996 129.731 73.6444 128.773 80.3473C128.76 80.4415 128.679 80.5115 128.584 80.5115H113.285C113.213 80.5115 113.147 80.4705 113.114 80.4057C112.596 79.3697 111.663 76.8063 110.886 74.1102C110.498 72.76 110.147 71.3717 109.906 70.1192C109.666 68.8706 109.534 67.7432 109.588 66.9211L109.589 66.9126L109.589 66.9127C109.656 66.3111 109.896 65.5789 110.224 64.8099C110.553 64.038 110.977 63.2165 111.422 62.433C112.309 60.8681 113.288 59.4399 113.775 58.8445C113.779 58.8396 113.783 58.8349 113.787 58.8304C113.834 58.7835 113.936 58.6663 114.088 58.4918C114.175 58.3917 114.278 58.2727 114.396 58.1374C114.716 57.7727 115.137 57.3022 115.617 56.8013C116.576 55.8033 117.787 54.6706 118.928 54.0187C119.002 53.9759 119.097 53.9886 119.158 54.0495C119.435 54.3266 119.906 54.5166 120.513 54.6187C121.116 54.7199 121.826 54.7304 122.553 54.6714C124.013 54.553 125.494 54.1586 126.255 53.7021ZM118.998 54.4207C117.941 55.0536 116.813 56.1084 115.893 57.0662C115.418 57.5613 115.002 58.0271 114.684 58.3895C114.578 58.5106 114.481 58.6217 114.397 58.719C114.24 58.9 114.124 59.0332 114.065 59.0936C113.594 59.6712 112.632 61.0747 111.754 62.6218C111.314 63.3974 110.898 64.2054 110.576 64.96C110.253 65.7156 110.031 66.4055 109.97 66.9507C109.919 67.7219 110.044 68.808 110.282 70.0471C110.519 71.2847 110.867 72.6613 111.254 74.0044C112.003 76.6048 112.893 79.0612 113.405 80.129H128.418C129.355 73.4901 129.664 66.2566 129.349 61.8478C129.208 59.8638 128.657 58.1068 128.024 56.7413C127.433 55.4675 126.777 54.5475 126.325 54.1021C125.469 54.568 123.999 54.9379 122.584 55.0527C121.836 55.1133 121.093 55.1038 120.45 54.9959C119.874 54.8992 119.358 54.7199 118.998 54.4207Z" fill="#007D8A"/>
<path d="M109.987 90.5187C111.616 88.4251 118.067 76.1761 118.067 76.1761C114.561 74.9012 115.517 75.2199 112.011 73.945L106.274 86.0566L98.1944 96.8932L92.5685 104.861C92.5685 104.861 92.2785 105.123 92.5285 106.006C92.5405 106.049 92.5538 106.092 92.5685 106.136C92.6743 106.454 92.6383 106.55 92.8873 106.774C93.1984 107.054 93.5323 107.131 93.8435 107.411C94.1547 107.691 94.8025 107.723 95.4371 107.73C98.0548 107.757 99.788 102.63 99.788 102.63C99.788 102.63 107.756 93.3872 109.987 90.5187Z" fill="#805928"/>
<path fill-rule="evenodd" clip-rule="evenodd" d="M92.4203 104.739C92.4171 104.743 92.4135 104.747 92.4098 104.751C92.3963 104.768 92.3803 104.789 92.3635 104.817C92.3296 104.872 92.2936 104.951 92.2684 105.059C92.2179 105.274 92.2128 105.594 92.3442 106.058C92.3571 106.104 92.3712 106.15 92.3868 106.197C92.4112 106.27 92.4275 106.33 92.4428 106.387L92.4439 106.391C92.4585 106.446 92.474 106.503 92.4955 106.559C92.5443 106.685 92.6183 106.789 92.7591 106.916C92.9309 107.071 93.1083 107.169 93.2667 107.257L93.2725 107.26C93.4352 107.35 93.5781 107.43 93.7153 107.553C93.9133 107.732 94.199 107.817 94.4892 107.862C94.7844 107.908 95.1173 107.918 95.4349 107.921C96.155 107.929 96.7986 107.581 97.3489 107.087C97.8995 106.592 98.3731 105.935 98.7583 105.288C99.1444 104.639 99.4466 103.991 99.6521 103.505C99.755 103.263 99.8339 103.06 99.8872 102.918C99.9139 102.846 99.9342 102.79 99.9478 102.752C99.9511 102.743 99.954 102.735 99.9565 102.727L100.279 102.352C100.502 102.094 100.822 101.722 101.213 101.266C101.995 100.354 103.061 99.109 104.196 97.7741C106.466 95.1059 109.019 92.0744 110.138 90.6361C110.555 90.1004 111.27 88.9301 112.102 87.4901C112.937 86.0455 113.897 84.3166 114.805 82.654C115.714 80.9913 116.571 79.3942 117.202 78.2128C117.517 77.6221 117.775 77.1352 117.955 76.7961C118.045 76.6265 118.115 76.4938 118.163 76.4035L118.235 76.2658C118.235 76.2657 118.236 76.2652 118.066 76.1761L118.236 76.2652C118.261 76.2164 118.265 76.1587 118.245 76.1072C118.225 76.0557 118.184 76.0153 118.132 75.9964C116.38 75.3593 115.743 75.1205 115.106 74.8817C114.468 74.6424 113.83 74.403 112.076 73.7653C111.983 73.7316 111.88 73.774 111.838 73.8632L106.109 85.9575L98.0408 96.7789L92.4203 104.739ZM117.795 76.2808C116.196 75.6989 115.584 75.4693 114.971 75.2396C114.355 75.0084 113.738 74.7771 112.109 74.1843L106.446 86.1385C106.441 86.1499 106.434 86.1608 106.427 86.1709L98.3489 97.0055L92.7245 104.972C92.718 104.981 92.7107 104.99 92.7026 104.998C92.701 105 92.6964 105.005 92.6903 105.015C92.6776 105.036 92.6568 105.078 92.6407 105.146C92.6169 105.248 92.6026 105.412 92.6449 105.661L93.4025 105.033C93.4838 104.965 93.6043 104.977 93.6717 105.058C93.7392 105.139 93.7279 105.26 93.6466 105.327L92.7485 106.072C92.7489 106.073 92.7493 106.075 92.7497 106.076C92.7776 106.16 92.7963 106.229 92.8115 106.286L92.8124 106.289C92.8283 106.348 92.839 106.387 92.8524 106.421C92.8642 106.452 92.8792 106.483 92.9074 106.519L94.0472 105.665C94.1317 105.601 94.2515 105.618 94.3149 105.703C94.3783 105.787 94.3611 105.907 94.2767 105.971L93.2032 106.776C93.2836 106.828 93.3677 106.875 93.4578 106.925L93.4636 106.928C93.5865 106.997 93.721 107.071 93.8554 107.173L94.6934 106.615C94.7812 106.556 94.9 106.58 94.9586 106.668C95.0172 106.756 94.9934 106.874 94.9055 106.933L94.2044 107.4C94.3001 107.435 94.4149 107.463 94.5483 107.484C94.8135 107.526 95.1218 107.535 95.4388 107.539C96.0276 107.545 96.5823 107.261 97.0932 106.802C97.6038 106.343 98.0543 105.723 98.4296 105.092C98.804 104.463 99.0987 103.831 99.2999 103.356C99.4004 103.119 99.4774 102.921 99.5291 102.783C99.5549 102.714 99.5744 102.66 99.5874 102.624C99.5939 102.606 99.5988 102.592 99.602 102.582L99.6055 102.572L99.6064 102.57L99.6066 102.569L99.7877 102.63M99.7877 102.63C99.6429 102.505 99.6429 102.505 99.643 102.505L99.9895 102.103C100.212 101.845 100.532 101.472 100.922 101.017C101.704 100.105 102.77 98.8607 103.905 97.5263C106.177 94.8558 108.724 91.8315 109.836 90.4013C110.233 89.8903 110.935 88.7444 111.771 87.2988C112.603 85.8579 113.562 84.1321 114.469 82.4706C115.377 80.8094 116.234 79.2134 116.864 78.0327C117.179 77.4424 117.438 76.9559 117.617 76.617C117.69 76.4798 117.75 76.3668 117.795 76.2808" fill="#333333"/>
<path d="M59.4211 92.7493C59.4211 92.7493 55.7298 96.7982 53.6841 98.4863C50.8812 100.799 45.0786 104.861 45.0786 104.861C45.0786 104.861 43.8038 108.048 42.21 109.323C41.7363 109.702 41.1347 109.377 40.9351 109.323C40.0888 109.161 40.2299 109.082 40.2977 108.686C39.6603 108.686 39.6603 108.367 39.6603 108.048L39.6603 108.048L39.3414 107.729C39.3414 107.729 39.3414 107.729 39.3414 107.729C39.2244 107.612 39.8695 105.919 40.6163 104.861C40.8215 104.57 39.0228 105.817 38.704 105.498C38.3854 104.223 39.1659 104.028 39.6602 103.905L39.6602 103.905C40.935 103.586 42.8474 101.992 42.8474 101.992L50.4968 94.6616L55.5965 89.2432C58.465 91.4743 56.5526 90.1995 59.4211 92.7493Z" fill="#A77427"/>
<path fill-rule="evenodd" clip-rule="evenodd" d="M39.5966 103.724C39.602 103.723 39.6074 103.721 39.6127 103.72C40.2133 103.57 40.9853 103.11 41.6225 102.672C41.9375 102.456 42.2133 102.249 42.4105 102.096C42.509 102.02 42.5877 101.957 42.6416 101.913C42.6686 101.892 42.6893 101.875 42.7033 101.863L42.719 101.85L50.3599 94.5277L55.4562 89.1129C55.5238 89.041 55.635 89.0324 55.7129 89.093C57.146 90.2077 57.3997 90.4575 57.653 90.753C57.6722 90.7754 57.6914 90.7981 57.7112 90.8215C57.9328 91.0832 58.2368 91.4423 59.5471 92.6071C59.5853 92.641 59.6084 92.6889 59.611 92.74C59.6137 92.791 59.5958 92.841 59.5614 92.8788L59.4201 92.75C59.5614 92.8788 59.5614 92.8788 59.5614 92.8788L59.5191 92.925C59.4915 92.9552 59.4508 92.9996 59.3982 93.0568C59.293 93.171 59.1406 93.336 58.9513 93.5393C58.5727 93.9459 58.0466 94.5056 57.4564 95.1182C56.2782 96.341 54.8371 97.7827 53.8047 98.6345C52.3981 99.7953 50.2423 101.392 48.4414 102.697C47.5402 103.349 46.7268 103.93 46.1386 104.347C45.8445 104.555 45.6067 104.723 45.4424 104.839C45.3603 104.897 45.2965 104.941 45.2532 104.972L45.2333 104.986C45.2238 105.009 45.2112 105.039 45.1957 105.076C45.1572 105.166 45.1005 105.297 45.0276 105.458C44.8818 105.78 44.6707 106.223 44.409 106.706C43.8896 107.665 43.1574 108.81 42.3284 109.473C42.033 109.709 41.7009 109.72 41.436 109.674C41.3039 109.651 41.1839 109.614 41.0877 109.58C41.0431 109.564 41.0076 109.551 40.9785 109.541C40.9406 109.527 40.9134 109.517 40.8904 109.51C40.6814 109.47 40.5224 109.433 40.405 109.392C40.2913 109.352 40.1823 109.298 40.1153 109.202C40.0422 109.096 40.0477 108.983 40.0594 108.903C40.0613 108.889 40.0636 108.876 40.0661 108.862C39.843 108.83 39.6802 108.744 39.5798 108.593C39.4818 108.446 39.4694 108.267 39.4681 108.128L39.2052 107.865C39.2052 107.865 39.2052 107.865 39.2052 107.865L39.3403 107.73M40.1305 105.264C40.0712 105.295 40.0084 105.328 39.9422 105.361C39.7092 105.48 39.4493 105.603 39.2236 105.675C39.1114 105.711 38.9968 105.738 38.8923 105.742C38.7923 105.746 38.6633 105.73 38.5677 105.634C38.5432 105.61 38.5258 105.579 38.5174 105.545C38.3484 104.869 38.46 104.424 38.739 104.137C38.9944 103.874 39.3586 103.783 39.5966 103.724M39.6714 107.714C39.6357 107.675 39.5988 107.645 39.5596 107.623C39.5482 107.616 39.537 107.61 39.5263 107.605C39.5345 107.562 39.5483 107.505 39.5688 107.435C39.6217 107.252 39.7118 107.004 39.8301 106.723C40.0669 106.16 40.4087 105.486 40.7715 104.972C40.7816 104.957 40.7947 104.937 40.8049 104.913C40.8123 104.895 40.8344 104.84 40.8149 104.772C40.7887 104.68 40.7131 104.641 40.6627 104.631C40.6213 104.622 40.5857 104.628 40.5699 104.631C40.5339 104.637 40.4972 104.651 40.4687 104.663C40.437 104.676 40.4013 104.693 40.3636 104.712C40.2889 104.748 40.1891 104.801 40.0794 104.859C39.9803 104.911 39.8731 104.967 39.769 105.02C39.5381 105.137 39.3013 105.248 39.1066 105.311C39.0086 105.342 38.9319 105.358 38.8778 105.36C38.8739 105.36 38.8703 105.36 38.867 105.36C38.7515 104.824 38.8663 104.555 39.0134 104.404C39.1863 104.226 39.4484 104.155 39.7052 104.091M39.7052 104.091C40.3793 103.922 41.2015 103.426 41.8391 102.987C42.1616 102.766 42.4435 102.554 42.6448 102.398C42.7455 102.32 42.8261 102.256 42.8818 102.211C42.9096 102.189 42.9312 102.171 42.9459 102.159L42.9627 102.145L42.9671 102.141L42.9683 102.14C42.9683 102.14 42.9688 102.14 42.8464 101.993L42.9683 102.14C42.9717 102.138 42.9755 102.134 42.9787 102.131L50.6281 94.8004C50.6305 94.7981 50.6328 94.7958 50.635 94.7934L55.6153 89.5018C56.9281 90.5263 57.1451 90.7482 57.3626 91.0019C57.3819 91.0244 57.4012 91.0472 57.4211 91.0707C57.6446 91.3343 57.9427 91.6858 59.1481 92.7637C59.1382 92.7745 59.1277 92.7858 59.1168 92.7978C59.012 92.9115 58.8601 93.076 58.6714 93.2787C58.2939 93.6841 57.7693 94.2421 57.181 94.8528C56.0021 96.0764 54.5747 97.5033 53.5613 98.3395C52.165 99.4918 50.0181 101.082 48.217 102.387C47.3171 103.039 46.5048 103.618 45.9173 104.035C45.6236 104.243 45.3862 104.411 45.2222 104.526C45.1402 104.584 45.0766 104.629 45.0335 104.659L44.9681 104.705C44.9681 104.705 44.9679 104.705 45.0775 104.862L44.9681 104.705C44.9376 104.726 44.9138 104.756 44.9 104.79M39.8508 108.112L40.7683 106.889C40.8317 106.804 40.8145 106.684 40.73 106.621C40.6455 106.558 40.5257 106.575 40.4623 106.659L39.6714 107.714" fill="#333333"/>
<path fill-rule="evenodd" clip-rule="evenodd" d="M116.203 63.0032C116.145 62.915 116.026 62.8904 115.938 62.9484C114.174 64.1075 113.392 66.1655 112.925 68.2457C112.728 69.1287 112.585 70.0263 112.45 70.8709C112.426 71.0241 112.402 71.1755 112.378 71.3248C112.22 72.3027 112.062 73.1842 111.829 73.8844L111.77 74.0603L118.126 76.4018L118.212 76.2993C120.24 73.8952 121.29 71.9611 121.817 70.2975C122.344 68.6322 122.343 67.2512 122.29 65.9688C122.285 65.8633 122.196 65.7813 122.091 65.7857C121.985 65.7901 121.903 65.8792 121.908 65.9847C121.96 67.2522 121.959 68.5803 121.452 70.182C120.952 71.7621 119.954 73.6213 118.006 75.9501L112.248 73.8287C112.462 73.1274 112.61 72.2832 112.755 71.3857C112.78 71.2349 112.804 71.0824 112.828 70.9286C112.963 70.0837 113.104 69.1996 113.299 68.3293C113.761 66.2662 114.517 64.3401 116.148 63.2681C116.236 63.2101 116.261 63.0915 116.203 63.0032Z" fill="#01727D"/>
<path d="M121.316 155.22L121.254 149.483V147.57H115.836V149.164C114.455 149.483 111.117 150.248 108.567 150.758C106.018 151.268 105.743 154.051 105.955 155.22H115.898C115.898 155.22 116.725 155.034 117.111 154.582C117.546 154.072 118.386 152.67 118.386 152.67H119.023V155.22H121.316Z" fill="#333333"/>
<path fill-rule="evenodd" clip-rule="evenodd" d="M121.446 147.571C121.446 147.466 121.36 147.38 121.254 147.38H115.836C115.73 147.38 115.645 147.466 115.645 147.571V149.013C114.185 149.349 110.99 150.079 108.53 150.571C107.178 150.841 106.427 151.72 106.048 152.672C105.672 153.615 105.656 154.64 105.767 155.255C105.784 155.346 105.863 155.412 105.956 155.412H115.898C115.912 155.412 115.926 155.41 115.94 155.407L115.898 155.221C115.94 155.407 115.94 155.407 115.94 155.407L115.941 155.407L115.944 155.406L115.952 155.404C115.959 155.403 115.969 155.4 115.982 155.397C116.007 155.391 116.043 155.381 116.087 155.368C116.175 155.342 116.297 155.303 116.432 155.249C116.695 155.142 117.033 154.969 117.256 154.707C117.484 154.441 117.81 153.951 118.073 153.539C118.206 153.33 118.325 153.138 118.411 152.998C118.444 152.944 118.472 152.898 118.494 152.862H118.832V155.221C118.832 155.326 118.918 155.412 119.023 155.412H121.317C121.368 155.412 121.417 155.391 121.453 155.355C121.488 155.319 121.508 155.27 121.508 155.218L121.446 149.482V147.571ZM118.222 152.573L118.212 152.588L118.185 152.633C118.162 152.672 118.127 152.729 118.085 152.798C118 152.937 117.882 153.127 117.75 153.333C117.485 153.749 117.173 154.216 116.965 154.459C116.803 154.649 116.535 154.794 116.288 154.894C116.168 154.942 116.059 154.978 115.98 155.001C115.94 155.012 115.909 155.021 115.887 155.026C115.883 155.027 115.879 155.028 115.876 155.029H106.12C106.048 154.464 106.088 153.604 106.403 152.813C106.746 151.954 107.407 151.185 108.605 150.946C111.158 150.435 114.498 149.67 115.879 149.351C115.966 149.331 116.027 149.254 116.027 149.165V147.762H121.063V149.486L121.123 155.029H119.214V152.671C119.214 152.565 119.129 152.48 119.023 152.48H118.386C118.319 152.48 118.256 152.515 118.222 152.573Z" fill="#333333"/>
<path d="M115.091 37.8645C116.111 39.9043 118.491 41.4767 119.872 41.0518C122.421 47.4262 122.801 45.3166 123.97 46.804C124.395 46.1665 125.564 45.2104 126.519 46.1665C127.169 46.8167 126.201 47.8664 125.563 48.3976C125.563 48.3976 125.055 53.075 126.246 54.4382C127.876 56.3052 124.728 62.6707 126.519 64.3837C128.085 65.8803 129.132 65.739 130.496 66.2961C132.698 67.1951 132.683 65.3511 133.684 64.3837C135.759 62.3768 133.684 60.8777 134.002 58.6467C136.233 55.7781 133.389 53.8091 134.321 51.6347C135.277 49.4036 133.729 45.8974 133.684 43.3479C133.662 42.1482 134.002 40.1606 132.409 38.567C129.859 36.5896 129.859 34.4236 126.353 34.7423C123.874 34.9676 121.041 33.4673 119.341 34.4236C117.429 35.3798 114.071 35.8247 115.091 37.8645Z" fill="#333333"/>
<path fill-rule="evenodd" clip-rule="evenodd" d="M119.267 34.2829C118.806 34.5129 118.258 34.7138 117.698 34.919L117.673 34.9283C117.107 35.1356 116.53 35.3479 116.045 35.5959C115.562 35.8424 115.144 36.1363 114.919 36.5204C114.686 36.919 114.675 37.3874 114.949 37.9359C115.473 38.9833 116.343 39.9066 117.258 40.5153C118.11 41.0813 119.037 41.3979 119.777 41.2412C121.018 44.3251 121.751 45.4062 122.339 45.8843C122.58 46.0803 122.799 46.1748 122.992 46.2582C123.039 46.2786 123.085 46.2984 123.129 46.3189C123.35 46.421 123.571 46.5534 123.846 46.9026C123.877 46.9428 123.926 46.9654 123.977 46.9634C124.028 46.9614 124.075 46.9351 124.103 46.8926C124.303 46.5928 124.68 46.2185 125.109 46.0343C125.322 45.9431 125.541 45.9012 125.757 45.9311C125.97 45.9608 126.191 46.0625 126.408 46.2794C126.537 46.4085 126.583 46.5516 126.576 46.7074C126.568 46.8698 126.501 47.0529 126.388 47.2462C126.161 47.6331 125.775 48.0144 125.462 48.2754C125.43 48.3018 125.41 48.3395 125.406 48.3806L125.564 48.3978C125.406 48.3806 125.406 48.3805 125.406 48.3806L125.406 48.3816L125.405 48.3843L125.404 48.3948L125.4 48.4349C125.397 48.47 125.392 48.5215 125.386 48.5874C125.374 48.7191 125.359 48.9085 125.344 49.1399C125.315 49.6025 125.289 50.2341 125.3 50.9095C125.311 51.584 125.359 52.3065 125.481 52.9492C125.602 53.5864 125.8 54.1694 126.127 54.5432C126.491 54.96 126.604 55.6514 126.566 56.5323C126.53 57.3783 126.358 58.3551 126.183 59.3455L126.166 59.4412C125.987 60.4577 125.81 61.4851 125.792 62.3665C125.774 63.2404 125.91 64.0212 126.41 64.4991C127.552 65.5907 128.454 65.8425 129.354 66.0938C129.711 66.1932 130.066 66.2925 130.437 66.4438C131.003 66.6749 131.447 66.7388 131.813 66.6693C132.183 66.599 132.449 66.3963 132.663 66.1428C132.843 65.9301 132.993 65.6722 133.139 65.4216C133.163 65.3802 133.187 65.339 133.211 65.2981C133.384 65.004 133.562 64.724 133.795 64.4985C134.331 63.9799 134.61 63.4834 134.72 62.9893C134.83 62.4974 134.77 62.0246 134.657 61.5618C134.603 61.3367 134.535 61.1106 134.467 60.8853L134.462 60.8676C134.392 60.6351 134.323 60.4029 134.266 60.1649C134.154 59.7023 134.088 59.2252 134.155 58.7105C134.711 57.9848 134.958 57.307 135.022 56.6626C135.086 56.0112 134.963 55.4055 134.803 54.8374C134.748 54.6435 134.691 54.4566 134.634 54.2738C134.522 53.9112 134.415 53.5652 134.349 53.215C134.252 52.6989 134.252 52.2027 134.468 51.6977C134.967 50.5327 134.808 49.0533 134.535 47.5819C134.462 47.1845 134.38 46.7875 134.299 46.3953C134.076 45.3138 133.86 44.2678 133.844 43.3452C133.841 43.1731 133.846 42.9808 133.851 42.7727C133.883 41.5771 133.929 39.8609 132.522 38.4545C132.517 38.4498 132.512 38.4453 132.507 38.4412C131.881 37.9558 131.411 37.4582 131.001 36.9861C130.879 36.8457 130.761 36.7062 130.646 36.5693C130.377 36.2505 130.121 35.9463 129.852 35.6805C129.463 35.2952 129.035 34.9766 128.474 34.7774C127.913 34.5785 127.232 34.5026 126.339 34.5837C125.309 34.6774 124.216 34.4661 123.146 34.2593C122.958 34.2229 122.771 34.1867 122.584 34.1523C121.968 34.0384 121.365 33.9452 120.807 33.9424C120.249 33.9397 119.724 34.027 119.267 34.2829ZM125.716 48.4781C126.032 48.2084 126.421 47.8189 126.662 47.4075C126.79 47.1907 126.883 46.9563 126.894 46.7224C126.905 46.4819 126.829 46.25 126.633 46.054C126.372 45.7928 126.089 45.6555 125.8 45.6154C125.514 45.5757 125.236 45.6333 124.984 45.7414C124.565 45.9209 124.202 46.2467 123.962 46.5464C123.709 46.2647 123.484 46.132 123.263 46.0297C123.208 46.0043 123.155 45.9815 123.104 45.9591C122.916 45.8775 122.744 45.8029 122.54 45.6371C122.016 45.2112 121.297 44.1835 120.021 40.9928C119.99 40.9157 119.905 40.8752 119.826 40.8996C119.205 41.0906 118.318 40.8368 117.435 40.2499C116.56 39.6687 115.73 38.7859 115.234 37.7934C114.999 37.322 115.025 36.9699 115.194 36.6815C115.372 36.3786 115.721 36.1191 116.19 35.8798C116.655 35.6421 117.213 35.4364 117.782 35.2276L117.817 35.2148C118.371 35.0118 118.935 34.8051 119.413 34.5663L119.42 34.5628C119.812 34.3421 120.278 34.2586 120.805 34.2612C121.333 34.2638 121.912 34.3522 122.526 34.4657C122.707 34.4991 122.89 34.5346 123.076 34.5706C124.144 34.7775 125.289 34.9993 126.368 34.9012C127.229 34.8229 127.862 34.8983 128.367 35.0777C128.871 35.2567 129.26 35.5435 129.628 35.9071C129.886 36.1624 130.128 36.449 130.391 36.7621C130.509 36.9013 130.631 37.0457 130.76 37.195C131.175 37.6732 131.659 38.1856 132.304 38.6869C133.597 39.9863 133.56 41.5426 133.532 42.7395C133.527 42.9563 133.522 43.1613 133.525 43.3509C133.542 44.3056 133.767 45.3963 133.992 46.4877C134.072 46.8737 134.151 47.2598 134.222 47.6399C134.496 49.1168 134.632 50.506 134.175 51.5721C133.926 52.1542 133.932 52.7196 134.036 53.2739C134.105 53.6416 134.221 54.0179 134.337 54.3912C134.392 54.5698 134.447 54.7477 134.496 54.9237C134.652 55.4783 134.763 56.0386 134.704 56.6311C134.646 57.2205 134.418 57.8534 133.877 58.549C133.86 58.5709 133.849 58.5969 133.845 58.6243C133.762 59.2094 133.836 59.7432 133.956 60.2397C134.016 60.4873 134.087 60.7275 134.157 60.9591L134.161 60.9732C134.229 61.2012 134.295 61.4203 134.348 61.637C134.455 62.0788 134.504 62.4965 134.409 62.9198C134.315 63.341 134.075 63.7845 133.574 64.2693C133.307 64.5275 133.111 64.8408 132.937 65.1364C132.911 65.1797 132.886 65.2226 132.861 65.2648C132.714 65.517 132.58 65.7474 132.419 65.9372C132.237 66.1532 132.031 66.3034 131.753 66.3562C131.471 66.4099 131.092 66.3671 130.557 66.1487C130.136 65.9765 129.754 65.8703 129.385 65.7679C128.511 65.5248 127.712 65.3025 126.63 64.2687C126.234 63.8901 126.093 63.2328 126.11 62.373C126.128 61.5208 126.3 60.5189 126.48 59.4965C126.486 59.4612 126.492 59.4257 126.499 59.3903C126.672 58.4087 126.847 57.4135 126.885 56.5459C126.923 55.6547 126.818 54.8503 126.367 54.3336C126.098 54.0258 125.913 53.5128 125.794 52.8897C125.677 52.2719 125.629 51.5695 125.618 50.9043C125.607 50.2398 125.634 49.617 125.662 49.16C125.677 48.9316 125.692 48.7449 125.703 48.6155C125.708 48.5578 125.713 48.5116 125.716 48.4781Z" fill="#333333"/>
<path d="M79.4999 129.403H59.4203C58.7828 123.347 59.4204 115.379 60.0577 108.367H78.5438C79.8187 115.379 80.1374 122.391 79.4999 129.403Z" fill="#00A9CD"/>
<path fill-rule="evenodd" clip-rule="evenodd" d="M59.8671 108.35C59.876 108.251 59.9586 108.176 60.0575 108.176H78.5436C78.636 108.176 78.7152 108.242 78.7317 108.333C80.0097 115.362 80.3293 122.391 79.6902 129.42C79.6812 129.519 79.5987 129.594 79.4997 129.594H59.4201C59.3223 129.594 59.2402 129.52 59.2299 129.423C58.5901 123.345 59.2301 115.358 59.8671 108.35ZM60.2322 108.558C59.6058 115.465 58.9921 123.249 59.5927 129.212H79.3249C79.9353 122.327 79.6215 115.443 78.3838 108.558H60.2322Z" fill="#009ED0"/>
<path d="M68.0821 111.632C65.0978 112.143 62.8328 111.542 62.0734 111.177L61.6058 117.311C63.0265 117.962 66.6643 118.019 68.1249 117.449L68.0821 111.632Z" fill="#66C5E3"/>
<path d="M81.0948 93.3872C81.0948 93.3872 82.7098 95.401 84.7555 97.0891C87.5584 99.402 93.0425 103.905 93.0425 103.905C93.0425 103.905 94.6359 106.136 96.2296 107.411C96.7033 107.79 97.3049 107.979 97.5045 107.926C98.3508 107.764 98.2097 107.684 98.1419 107.288C98.7793 107.288 98.7793 106.97 98.7793 106.651L98.7793 106.651L99.0982 106.332C99.0982 106.332 99.0982 106.332 99.0982 106.332C99.2152 106.215 98.5701 104.522 97.8233 103.464C97.6181 103.173 99.4168 104.42 99.7356 104.101C100.054 102.826 99.2737 102.631 98.7794 102.507L98.7794 102.507C97.5046 102.189 95.4374 101.037 95.4374 101.037L87.9428 93.2644L84.9195 90.2C82.0509 92.4311 84.282 91.1562 81.0948 93.3872Z" fill="#A77427"/>
<path fill-rule="evenodd" clip-rule="evenodd" d="M98.841 102.327C98.8356 102.325 98.8302 102.324 98.8249 102.323C98.2085 102.168 97.3883 101.809 96.7129 101.481C96.3773 101.318 96.0811 101.165 95.8688 101.053C95.7627 100.997 95.6776 100.951 95.6192 100.919C95.5912 100.904 95.5693 100.892 95.5542 100.884L88.078 93.1308L85.0547 90.0664C84.9866 89.9974 84.8777 89.9902 84.8012 90.0498C84.0823 90.6088 83.6785 90.9517 83.4281 91.1868C83.2078 91.3937 83.1058 91.5176 83.0181 91.6243C83.0048 91.6405 82.9918 91.6563 82.9788 91.6719C82.7985 91.8883 82.5808 92.1137 80.9842 93.2313C80.9409 93.2616 80.9121 93.3085 80.9046 93.3609C80.8971 93.4132 80.9116 93.4664 80.9447 93.5076L81.0939 93.388C80.9447 93.5076 80.9447 93.5076 80.9447 93.5076L80.9498 93.5139L80.9641 93.5316C80.9767 93.5471 80.9954 93.57 81.0198 93.5995C81.0685 93.6586 81.1403 93.7446 81.2326 93.853C81.4174 94.0698 81.6849 94.3762 82.0166 94.7355C82.6795 95.4537 83.6011 96.3859 84.6329 97.2373C86.0345 98.3939 88.1064 100.098 89.8278 101.513C90.6885 102.22 91.4616 102.856 92.0195 103.314L92.901 104.038L92.905 104.043C92.9173 104.06 92.9355 104.085 92.9591 104.118C93.0063 104.182 93.0754 104.275 93.1633 104.39C93.3389 104.621 93.5896 104.942 93.8906 105.303C94.4908 106.024 95.2973 106.912 96.1093 107.561C96.3636 107.765 96.6506 107.916 96.9018 108.01C97.0275 108.058 97.1478 108.092 97.2537 108.11C97.3508 108.127 97.456 108.135 97.5453 108.113C97.7552 108.073 97.9149 108.036 98.0326 107.995C98.1464 107.955 98.2553 107.901 98.3223 107.804C98.3954 107.699 98.3899 107.586 98.3783 107.505C98.3763 107.492 98.374 107.478 98.3715 107.465C98.5946 107.432 98.7575 107.346 98.8579 107.196C98.9559 107.049 98.9682 106.869 98.9696 106.731L99.2324 106.468C99.2324 106.468 99.2325 106.468 99.2324 106.468C99.2906 106.41 99.2989 106.336 99.3011 106.308C99.3042 106.27 99.3012 106.23 99.2964 106.194C99.2866 106.121 99.2651 106.03 99.2362 105.931C99.1777 105.729 99.0818 105.466 98.9601 105.177C98.7883 104.769 98.5611 104.299 98.3071 103.867C98.3664 103.898 98.4293 103.93 98.4955 103.964C98.7285 104.082 98.9883 104.205 99.2141 104.278C99.3263 104.314 99.4409 104.341 99.5453 104.345C99.6453 104.349 99.7743 104.332 99.8699 104.237C99.8944 104.212 99.9118 104.182 99.9202 104.148C100.089 103.472 99.9776 103.027 99.6987 102.74C99.4433 102.477 99.079 102.386 98.841 102.327ZM98.7662 106.316C98.8019 106.278 98.8388 106.248 98.8781 106.225C98.8894 106.219 98.9006 106.213 98.9113 106.208C98.9032 106.165 98.8893 106.108 98.8689 106.037C98.8159 105.855 98.7258 105.607 98.6075 105.326C98.3707 104.763 98.0289 104.088 97.6662 103.575C97.6561 103.56 97.6429 103.54 97.6327 103.516C97.6253 103.498 97.6033 103.442 97.6227 103.374C97.6489 103.283 97.7246 103.244 97.775 103.233C97.8163 103.225 97.8519 103.23 97.8678 103.233C97.9037 103.24 97.9404 103.254 97.969 103.266C98.0006 103.279 98.0363 103.296 98.074 103.314C98.1488 103.351 98.2485 103.404 98.3582 103.461C98.4573 103.514 98.5645 103.57 98.6686 103.623C98.8995 103.74 99.1363 103.851 99.331 103.914C99.4291 103.945 99.5057 103.961 99.5599 103.963C99.5637 103.963 99.5673 103.963 99.5706 103.963C99.6861 103.426 99.5713 103.158 99.4243 103.006C99.2514 102.828 98.9893 102.758 98.7325 102.694M98.7325 102.694C98.0742 102.529 97.2228 102.153 96.546 101.825C96.2055 101.66 95.9052 101.505 95.69 101.391C95.5824 101.334 95.496 101.288 95.4364 101.255C95.4065 101.239 95.3834 101.227 95.3677 101.218L95.3497 101.208L95.3438 101.205C95.3274 101.195 95.3119 101.184 95.2988 101.17L87.8057 93.3994L87.8042 93.3978L84.902 90.4562C84.2707 90.9506 83.9123 91.2569 83.6899 91.4656C83.4877 91.6555 83.3985 91.764 83.3133 91.8676C83.2998 91.884 83.2864 91.9003 83.2727 91.9168C83.0625 92.1689 82.8132 92.4127 81.3727 93.4259C81.4139 93.4753 81.4645 93.5354 81.5237 93.6049C81.7057 93.8185 81.9699 94.121 82.2976 94.4761C82.9537 95.1869 83.8624 96.1056 84.8763 96.9423C86.2776 98.0986 88.3493 99.8025 90.0706 101.217C90.9313 101.925 91.7044 102.56 92.2623 103.018L93.1627 103.758C93.1627 103.758 93.1629 103.758 93.0416 103.906L93.1627 103.758C93.1757 103.769 93.1874 103.781 93.1972 103.795M98.5869 106.715L97.6694 105.491C97.606 105.407 97.6231 105.287 97.7076 105.224C97.7921 105.16 97.912 105.177 97.9753 105.262L98.7662 106.316" fill="#333333"/>
<path d="M77.9076 83.1886C81.7323 84.1448 84.2821 87.0132 86.1944 89.8818L80.4574 94.0252L78.545 89.8818C79.4316 93.0691 78.8869 102.525 78.545 108.049C78.545 108.049 72.9041 109.005 68.9833 109.005C65.0625 109.005 59.7402 108.049 59.7402 108.049C60.319 101.972 60.1095 93.2664 61.2591 90.2845L59.7402 93.0691L54.6406 88.6069C59.7402 82.5511 61.9713 82.5511 65.796 82.2324C68.5119 83.0823 73.5172 84.4635 77.9076 83.1886Z" fill="#C6CED1"/>
<path fill-rule="evenodd" clip-rule="evenodd" d="M65.778 82.0417C65.8026 82.0396 65.8274 82.0424 65.851 82.0497C68.5694 82.9004 73.5232 84.2618 77.8521 83.0048C77.8846 82.9953 77.919 82.9947 77.9518 83.0029C81.8475 83.9768 84.4315 86.8957 86.3514 89.7756C86.4084 89.8611 86.3876 89.9765 86.3043 90.0367L80.5672 94.1801C80.5209 94.2135 80.462 94.2245 80.4067 94.21C80.3515 94.1955 80.3056 94.1571 80.2816 94.1052L79.0019 91.3324C79.0718 91.9132 79.1219 92.569 79.156 93.2788C79.2246 94.7058 79.2288 96.364 79.1948 98.0926C79.1266 101.55 78.9047 105.299 78.7338 108.061C78.7283 108.149 78.6624 108.223 78.5748 108.238L78.5429 108.049C78.5748 108.238 78.5749 108.237 78.5748 108.238L78.5737 108.238L78.5582 108.24L78.5098 108.248C78.4673 108.255 78.4046 108.266 78.3233 108.279C78.1609 108.305 77.9246 108.343 77.6289 108.387C77.0376 108.477 76.2083 108.597 75.2562 108.717C73.3539 108.956 70.9538 109.196 68.9811 109.196C67.0081 109.196 64.6875 108.956 62.8644 108.717C61.952 108.597 61.1623 108.477 60.6008 108.387C60.3199 108.342 60.0961 108.305 59.9423 108.279C59.8654 108.265 59.806 108.255 59.7658 108.248L59.7201 108.24L59.7054 108.237L59.7046 108.237C59.7045 108.237 59.7043 108.237 59.7381 108.049L59.7046 108.237C59.6067 108.22 59.5383 108.13 59.5477 108.031C59.7554 105.85 59.8613 103.332 59.9654 100.856C60.006 99.8888 60.0464 98.928 60.0925 97.9964C60.1744 96.3411 60.2743 94.7785 60.426 93.4418C60.4952 92.8325 60.5755 92.2667 60.6707 91.7586L59.906 93.1605C59.8782 93.2114 59.8288 93.247 59.7716 93.2572C59.7145 93.2673 59.6558 93.251 59.6122 93.2128L54.5126 88.7506C54.4342 88.682 54.4251 88.5632 54.4922 88.4835C57.0486 85.4478 58.9024 83.9096 60.6121 83.0954C62.2132 82.333 63.6747 82.2136 65.4162 82.0714C65.5354 82.0617 65.656 82.0518 65.778 82.0417ZM61.4309 90.3648L61.8183 89.6545C61.8655 89.5681 61.8393 89.4601 61.758 89.4048C61.6766 89.3495 61.5665 89.3649 61.5035 89.4405C61.3406 89.636 61.2026 89.8963 61.0831 90.2037L59.6845 92.7679L54.9059 88.5866C57.3857 85.6625 59.1657 84.2078 60.7765 83.4407C62.3123 82.7094 63.7076 82.5952 65.462 82.4515C65.5643 82.4431 65.6677 82.4346 65.7725 82.4259C68.4841 83.2729 73.4886 84.6487 77.9087 83.3865C81.5682 84.3202 84.0467 87.0431 85.9306 89.8348L80.5315 93.734L78.7165 89.8015C78.6748 89.711 78.5705 89.6678 78.477 89.7021C78.3834 89.7365 78.3319 89.8369 78.3586 89.9329C78.5742 90.7079 78.7058 91.8785 78.774 93.2972C78.842 94.7122 78.8464 96.3608 78.8124 98.085C78.7456 101.471 78.531 105.139 78.3614 107.885C78.3324 107.89 78.2993 107.895 78.2624 107.901C78.101 107.927 77.8659 107.965 77.5715 108.009C76.9826 108.099 76.1567 108.218 75.2084 108.337C73.3101 108.576 70.9292 108.814 68.9811 108.814C67.0334 108.814 64.7324 108.576 62.9142 108.337C62.006 108.218 61.22 108.099 60.6612 108.01C60.3818 107.965 60.1592 107.928 60.0066 107.902C59.9846 107.898 59.964 107.894 59.945 107.891C60.1429 105.74 60.2465 103.275 60.348 100.861C60.3885 99.8965 60.4288 98.94 60.4745 98.0153C60.5563 96.3618 60.6557 94.8091 60.8061 93.485C60.9561 92.164 61.1552 91.086 61.4309 90.3648Z" fill="#C6CED1"/>
<path d="M69.0428 67.0151C65.0295 67.4813 66.6539 69.5521 67.3228 70.3639C64.8 71.5817 64.0739 80.4706 63.8828 85.7475C63.8828 85.7475 66.8753 86.9699 70.1896 87.2697C73.0729 87.5306 76.2695 86.923 77.0697 86.3564C78.9044 81.2419 77.3564 70.5257 75.923 69.0035C74.4897 67.4813 72.0844 66.6618 69.0428 67.0151Z" fill="#333333"/>
<path fill-rule="evenodd" clip-rule="evenodd" d="M75.7836 69.1344C74.4021 67.6672 72.0631 66.8565 69.0647 67.2048C68.0742 67.3199 67.4587 67.5316 67.0941 67.7789C66.7401 68.019 66.6228 68.291 66.618 68.563C66.6129 68.8503 66.7332 69.1634 66.9101 69.4673C67.0853 69.7684 67.3035 70.0397 67.4702 70.2421C67.5076 70.2874 67.522 70.3473 67.5094 70.4047C67.4968 70.462 67.4586 70.5104 67.4058 70.5359C66.8454 70.8064 66.3493 71.5276 65.9258 72.6088C65.5068 73.6784 65.1762 75.0542 64.9167 76.5657C64.4069 79.5358 64.177 82.9988 64.0787 85.619C64.0813 85.62 64.0838 85.621 64.0864 85.622C64.1735 85.6555 64.3019 85.7039 64.4666 85.763C64.796 85.8812 65.2702 86.0422 65.8473 86.2126C67.0026 86.5535 68.5663 86.9306 70.2067 87.079C71.6304 87.2078 73.1348 87.1223 74.3821 86.934C75.0055 86.8399 75.5617 86.7206 76.0092 86.5909C76.4228 86.471 76.7289 86.3462 76.9106 86.2323C77.7932 83.7145 77.865 79.826 77.5314 76.3509C77.3636 74.6038 77.0944 72.971 76.779 71.6831C76.6212 71.0389 76.4527 70.4842 76.2809 70.0459C76.107 69.6024 75.9367 69.2969 75.7836 69.1344ZM63.8826 85.7473L63.8103 85.9244C63.7361 85.894 63.6886 85.8206 63.6915 85.7404C63.7872 83.099 64.0169 79.5476 64.5398 76.501C64.8011 74.9784 65.137 73.5738 65.5697 72.4693C65.9546 71.4867 66.4305 70.7032 67.0321 70.3092C66.8875 70.1271 66.7216 69.9038 66.5795 69.6597C66.3891 69.3325 66.2287 68.9465 66.2356 68.5563C66.2428 68.1509 66.4301 67.7671 66.8794 67.4624C67.318 67.1649 68.0045 66.943 69.0206 66.8249C72.1054 66.4666 74.5769 67.2949 76.0621 68.8721C76.2673 69.0901 76.459 69.4525 76.637 69.9063C76.817 70.3655 76.9902 70.9377 77.1505 71.5921C77.4711 72.9014 77.743 74.5527 77.9121 76.3143C78.2495 79.8291 78.1818 83.822 77.2496 86.4208C77.2363 86.4577 77.2121 86.4896 77.1801 86.5123C76.9527 86.6732 76.5772 86.8245 76.1157 86.9583C75.6486 87.0937 75.0754 87.2162 74.4392 87.3122C73.1673 87.5042 71.6318 87.592 70.1722 87.46C68.4983 87.3085 66.9086 86.9246 65.7391 86.5794C65.1538 86.4067 64.6727 86.2433 64.3374 86.123C64.1698 86.0628 64.0385 86.0134 63.949 85.9789C63.9042 85.9616 63.8698 85.9481 63.8465 85.9388L63.8199 85.9282L63.8129 85.9254L63.8111 85.9247L63.8103 85.9244C63.8103 85.9243 63.8103 85.9244 63.8826 85.7473Z" fill="#333333"/>
<g opacity="0.8">
<path d="M91.9328 24.5426C91.9328 35.6323 82.9428 44.6223 71.8531 44.6223C60.7634 44.6223 51.7734 35.6323 51.7734 24.5426C51.7734 13.4529 60.7634 4.46289 71.8531 4.46289C82.9428 4.46289 91.9328 13.4529 91.9328 24.5426Z" fill="#165C7D"/>
<path d="M85.7949 37.4219C84.0614 39.2911 81.9595 40.781 79.6217 41.7978C77.2839 42.8147 74.7609 43.3363 72.2116 43.33C71.6454 43.33 71.0862 43.3036 70.5341 43.2508C66.5898 44.2888 62.4234 44.1049 58.586 42.7233C61.1326 46.0357 64.6523 48.4677 68.6513 49.6782C72.6503 50.8887 76.9278 50.817 80.884 49.4731C84.8401 48.1291 88.2763 45.5805 90.7104 42.1846C93.1445 38.7887 94.4545 34.716 94.4566 30.5379C94.4551 29.6559 94.3969 28.7749 94.2825 27.9003C92.5626 31.9118 89.5832 35.2541 85.7949 37.4219Z" fill="#00A9CE"/>
<path d="M75.377 6.56781C78.2654 7.06269 80.9953 8.2353 83.3427 9.98946C85.6901 11.7436 87.5882 14.0293 88.8813 16.6591C91.8566 19.7323 93.7652 23.6806 94.3252 27.9214C96.0671 23.8753 96.4251 19.3675 95.3436 15.0972C94.2621 10.827 91.8017 7.03294 88.3439 4.30374C84.8861 1.57454 80.6243 0.062723 76.2196 0.00282734C71.8149 -0.0570683 67.5136 1.3383 63.9828 3.97247C64.4523 3.94082 64.9271 3.92499 65.4018 3.92499C68.9012 3.91512 72.3416 4.8266 75.377 6.56781Z" fill="#FFA300"/>
<path d="M90.7537 24.8195C90.76 29.4971 88.9874 34.0021 85.7953 37.4213C89.587 35.264 92.5736 31.9312 94.3038 27.9264C93.7449 23.6839 91.8363 19.7336 88.86 16.6591C90.1098 19.1976 90.7578 21.99 90.7537 24.8195Z" fill="#886B25"/>
<path d="M54.4716 30.0525C53.7326 27.5303 53.5386 24.8797 53.9023 22.2768C54.2661 19.6739 55.1794 17.1781 56.5816 14.9552C57.7331 10.5615 60.3428 6.68917 63.9828 3.97247C59.4092 4.29774 55.086 6.18436 51.7373 9.31652C48.3887 12.4487 46.2178 16.6362 45.588 21.1779C44.9583 25.7196 45.908 30.3398 48.278 34.2649C50.6481 38.19 54.2947 41.1817 58.6073 42.7391C55.9129 39.2413 54.4564 34.9477 54.4663 30.5325C54.4663 30.3848 54.4663 30.2213 54.4716 30.0525Z" fill="#00B140"/>
<path d="M70.5549 43.2505C66.8622 42.9143 63.3553 41.4778 60.4879 39.1268C57.6206 36.7757 55.5247 33.6183 54.4715 30.0631C54.4715 30.2319 54.4715 30.3954 54.4715 30.5906C54.4663 34.9985 55.9225 39.2837 58.6124 42.7757C62.4497 44.1572 66.616 44.3412 70.5601 43.3032L70.5549 43.2505Z" fill="#007D8A"/>
<path d="M56.5607 14.955C58.2262 12.3084 60.5352 10.1269 63.272 8.61408C66.0089 7.1013 69.0844 6.30657 72.2115 6.30404C73.2579 6.30601 74.3023 6.39422 75.3342 6.56779C72.3045 4.83203 68.8721 3.92253 65.3804 3.93031C64.9056 3.93031 64.4309 3.93031 63.9614 3.97778C60.3225 6.69307 57.7132 10.5633 56.5607 14.955Z" fill="#007041"/>
<g clip-path="url(#clip0_19798_33530)">
<path d="M79.0467 19.2176C78.6126 18.7833 78.0972 18.4388 77.5299 18.2037C76.9626 17.9686 76.3545 17.8477 75.7405 17.8477C75.1264 17.8477 74.5183 17.9686 73.9511 18.2037C73.3838 18.4388 72.8683 18.7833 72.4342 19.2176L71.5333 20.1185L70.6324 19.2176C69.7555 18.3407 68.5662 17.8481 67.3261 17.8481C66.086 17.8481 64.8968 18.3407 64.0199 19.2176C63.143 20.0945 62.6504 21.2838 62.6504 22.5238C62.6504 23.7639 63.143 24.9532 64.0199 25.8301L64.9208 26.731L71.5333 33.3435L78.1458 26.731L79.0467 25.8301C79.481 25.396 79.8255 24.8806 80.0606 24.3133C80.2957 23.746 80.4167 23.1379 80.4167 22.5238C80.4167 21.9098 80.2957 21.3017 80.0606 20.7344C79.8255 20.1671 79.481 19.6517 79.0467 19.2176Z" fill="#E1E5E7"/>
<path fill-rule="evenodd" clip-rule="evenodd" d="M73.7065 17.6155C74.3512 17.3484 75.0421 17.2109 75.7399 17.2109C76.4378 17.2109 77.1287 17.3484 77.7734 17.6155C78.4179 17.8826 79.0036 18.274 79.4968 18.7675C79.4969 18.7675 79.4969 18.7676 79.4969 18.7676C79.497 18.7676 79.497 18.7677 79.497 18.7677C79.9905 19.261 80.3819 19.8466 80.649 20.4912C80.9161 21.1358 81.0536 21.8268 81.0536 22.5246C81.0536 23.2224 80.9161 23.9133 80.649 24.558C80.3819 25.2026 79.9904 25.7883 79.4969 26.2816L79.0462 25.8308L79.4968 26.2817C79.4969 26.2816 79.4969 26.2816 79.4969 26.2816M71.5328 19.2178L71.082 19.6685L71.5328 20.1193L71.9835 19.6685L71.5328 19.2178ZM71.5328 32.4427L71.082 32.8935L71.5328 33.3442L71.9835 32.8935L71.5328 32.4427ZM73.7065 17.6155C73.0619 17.8826 72.4762 18.2741 71.983 18.7676L73.7065 17.6155ZM71.983 18.7676C71.9829 18.7676 71.9829 18.7677 71.9829 18.7677L71.983 18.7676Z" fill="#E1E5E7"/>
</g>
</g>
<defs>
<clipPath id="clip0_19798_33530">
<rect width="20.3984" height="20.3984" fill="white" transform="translate(61.334 15.2998)"/>
</clipPath>
</defs>
</svg>
