<svg width="182" height="161" viewBox="0 0 182 161" fill="none" xmlns="http://www.w3.org/2000/svg">
<path d="M79.2207 60.4235C78.2887 57.4659 79.9308 54.3128 82.8883 53.3808L160.833 28.8184C163.791 27.8864 166.944 29.5285 167.876 32.486L179.401 69.0586C180.333 72.0162 178.691 75.1693 175.733 76.1013L97.7883 100.664C94.8307 101.596 91.6777 99.9536 90.7457 96.9961L79.2207 60.4235Z" fill="#69757B"/>
<path d="M77.2871 58.8688C76.3551 55.9112 77.9972 52.7581 80.9547 51.8261L158.9 27.2637C161.857 26.3317 165.01 27.9738 165.942 30.9313L177.467 67.5039C178.399 70.4615 176.757 73.6146 173.8 74.5466L95.8547 99.109C92.8972 100.041 89.7441 98.3989 88.8121 95.4414L77.2871 58.8688Z" fill="#C6CED1"/>
<path d="M83.8598 61.3964C83.1142 59.0304 84.4278 56.5079 86.7939 55.7623L104.494 50.1846C106.86 49.439 109.382 50.7526 110.128 53.1186L115.706 70.8187C116.451 73.1847 115.138 75.7072 112.772 76.4528L95.0716 82.0305C92.7056 82.7761 90.1831 81.4625 89.4375 79.0965L83.8598 61.3964Z" fill="white"/>
<path d="M112.925 73.4519L92.5671 79.8672C90.9318 74.6779 90.7263 67.0634 98.9094 64.4847C106.494 62.0947 111.195 67.9633 112.925 73.4519Z" fill="#165C7D"/>
<path fill-rule="evenodd" clip-rule="evenodd" d="M91.7315 71.1105C92.5283 68.1248 94.6071 65.4878 98.8088 64.1638C102.713 62.9336 105.9 63.8296 108.323 65.7502C110.73 67.6585 112.369 70.5639 113.247 73.351C113.303 73.5285 113.204 73.7176 113.027 73.7736L92.669 80.1888C92.4915 80.2448 92.3023 80.1462 92.2464 79.9688C91.4188 77.3423 90.9415 74.071 91.7315 71.1105ZM92.7904 79.4442L112.5 73.2332C111.627 70.6345 110.086 68.0076 107.904 66.2782C105.648 64.4898 102.692 63.6466 99.0113 64.8064C95.03 66.061 93.12 68.5207 92.3825 71.2842C91.6692 73.9571 92.0467 76.9441 92.7904 79.4442Z" fill="#165C7D"/>
<path d="M102.656 68.1637C102.477 68.0706 102.281 68.0135 102.081 67.9959C101.88 67.9783 101.678 68.0004 101.485 68.061C101.293 68.1216 101.115 68.2195 100.96 68.349C100.806 68.4786 100.678 68.6373 100.585 68.8161L100.392 69.1871L100.021 68.9939C99.66 68.8059 99.239 68.769 98.8507 68.8913C98.4625 69.0137 98.1387 69.2853 97.9507 69.6463C97.7626 70.0074 97.7257 70.4284 97.8481 70.8167C97.9705 71.2049 98.242 71.5287 98.6031 71.7167L101.697 73.3279L103.308 70.2341C103.401 70.0553 103.458 69.8599 103.476 69.6591C103.493 69.4583 103.471 69.256 103.411 69.0637C103.35 68.8715 103.252 68.693 103.123 68.5386C102.993 68.3842 102.834 68.2568 102.656 68.1637Z" fill="#E1E5E7"/>
<path fill-rule="evenodd" clip-rule="evenodd" d="M100.6 67.9185C100.811 67.7415 101.055 67.6078 101.318 67.5251C101.58 67.4423 101.857 67.4121 102.131 67.4362C102.405 67.4602 102.672 67.5381 102.916 67.6652C103.16 67.7923 103.377 67.9664 103.554 68.1773C103.731 68.3882 103.865 68.6319 103.947 68.8946C104.03 69.1572 104.06 69.4335 104.036 69.7078C104.012 69.982 103.934 70.2489 103.807 70.493C103.807 70.493 103.807 70.493 103.807 70.493L102.196 73.5868C102.127 73.7189 102.009 73.8182 101.867 73.863C101.725 73.9077 101.571 73.8942 101.439 73.8254L98.3449 72.2143C97.8518 71.9575 97.4808 71.5153 97.3137 70.985C97.1466 70.4547 97.197 69.8797 97.4538 69.3866C97.7106 68.8934 98.1528 68.5225 98.6831 68.3554C99.1692 68.2022 99.6928 68.2318 100.156 68.4355C100.275 68.2404 100.425 68.0657 100.6 67.9185ZM101.655 68.5961C101.533 68.6345 101.42 68.6966 101.322 68.7787C101.224 68.8609 101.143 68.9615 101.084 69.0749L100.891 69.446C100.822 69.5781 100.704 69.6774 100.562 69.7222C100.42 69.767 100.266 69.7535 100.134 69.6847L99.7629 69.4915C99.5339 69.3722 99.2669 69.3488 99.0206 69.4264C98.7744 69.504 98.5691 69.6763 98.4498 69.9053C98.3306 70.1343 98.3072 70.4012 98.3848 70.6475C98.4623 70.8937 98.6346 71.0991 98.8636 71.2183L101.459 72.5701L102.811 69.9743C102.87 69.861 102.906 69.737 102.918 69.6096C102.929 69.4823 102.915 69.354 102.876 69.2321C102.838 69.1101 102.776 68.997 102.694 68.8991C102.612 68.8011 102.511 68.7203 102.398 68.6613C102.284 68.6023 102.16 68.566 102.033 68.5548C101.905 68.5436 101.777 68.5577 101.655 68.5961Z" fill="#E1E5E7"/>
<path d="M100.868 58.1633C101.493 60.1474 100.392 62.2627 98.4076 62.888C96.4234 63.5132 94.3081 62.4117 93.6829 60.4275C93.0576 58.4434 94.1592 56.3281 96.1433 55.7029C98.1275 55.0776 100.243 56.1792 100.868 58.1633Z" fill="#165C7D"/>
<path d="M114.859 49.8057L161.486 35.1126L162.934 39.7096L116.308 54.4026L114.859 49.8057Z" fill="#E1E5E7"/>
<path d="M117.963 59.6562L156.052 47.6535L157.5 52.2504L119.411 64.2532L117.963 59.6562Z" fill="#E1E5E7"/>
<path d="M123.965 78.7002L170.591 64.0072L172.04 68.6041L125.413 83.2971L123.965 78.7002Z" fill="#E1E5E7"/>
<path d="M92.4414 88.6338L118.71 80.356L120.158 84.953L93.89 93.2307L92.4414 88.6338Z" fill="#69757B"/>
<path fill-rule="evenodd" clip-rule="evenodd" d="M162 9.66016C162.248 9.66016 162.449 9.86126 162.449 10.1093V21.3388C162.449 21.5868 162.248 21.7879 162 21.7879C161.752 21.7879 161.551 21.5868 161.551 21.3388V10.1093C161.551 9.86126 161.752 9.66016 162 9.66016Z" fill="#165C7D"/>
<path fill-rule="evenodd" clip-rule="evenodd" d="M150.452 15.406C150.628 15.2306 150.912 15.2306 151.088 15.406L157.44 21.7583C157.615 21.9338 157.615 22.2182 157.44 22.3936C157.265 22.569 156.98 22.569 156.805 22.3936L150.452 16.0412C150.277 15.8658 150.277 15.5814 150.452 15.406Z" fill="#165C7D"/>
<path fill-rule="evenodd" clip-rule="evenodd" d="M173.161 15.406C172.985 15.2306 172.701 15.2306 172.526 15.406L166.173 21.7583C165.998 21.9338 165.998 22.2182 166.173 22.3936C166.349 22.569 166.633 22.569 166.809 22.3936L173.161 16.0412C173.336 15.8658 173.336 15.5814 173.161 15.406Z" fill="#165C7D"/>
<path d="M94.0385 101.037C105.112 96.6542 113.309 102.34 115.494 106.422C107.149 113.625 84.028 127.018 79.1832 130.068C74.3383 133.117 64.6719 136.848 53.9189 135.502L31.7002 156.028L4.78032 126.835L21.7375 109.342C19.902 98.1234 15.9856 89.2328 16.9938 82.9689C18.1363 75.8704 22.6839 64.1691 23.6324 61.0358L34.6076 15.4671C37.0126 15.0549 43.0561 18.2655 42.1113 24.5787L54.34 2.12442C56.9545 2.84547 62.1154 5.67727 61.8432 11.236C61.5711 16.7948 57.9465 20.7863 56.1683 22.0872L75.5189 7.93096C84.4912 19.4993 72.1298 28.4333 65.3973 36.053C60.1274 42.0172 48.8688 54.3221 43.5745 59.6274C43.5745 59.6274 59.7537 48.6177 69.1292 41.0053C78.5047 33.3929 88.9774 25.2835 88.9774 25.2835C92.033 27.8179 93.9845 36.6577 90.5411 42.0536C86.2039 48.85 75.5189 56.002 63.9566 69.1614C59.0543 74.7409 56.4053 80.6608 56.1683 85.502C55.9353 90.26 59.4189 104.502 70.1856 107.92C79.4211 110.852 90.5411 102.421 94.0385 101.037Z" fill="#D8BA8B"/>
<path fill-rule="evenodd" clip-rule="evenodd" d="M54.0439 1.96374C54.1187 1.82628 54.2784 1.75849 54.4293 1.80011C55.7798 2.17256 57.7752 3.08444 59.405 4.62145C61.0415 6.16488 62.3214 8.35276 62.1794 11.253C62.0124 14.6645 60.6151 17.4956 59.1278 19.5049L75.3197 7.65951C75.4669 7.55183 75.6731 7.58083 75.7848 7.72494C78.0658 10.6659 79.0084 13.4644 79.0059 16.1347C79.0035 18.7995 78.06 21.2994 76.6351 23.6479C75.2111 25.9949 73.2954 28.2082 71.3259 30.3024C70.5629 31.1136 69.7951 31.9038 69.0433 32.6776C67.8426 33.9132 66.6829 35.1068 65.6494 36.2765C61.0829 41.4447 52.0188 51.375 46.23 57.3918C47.8782 56.2503 50.1229 54.6844 52.6407 52.8967C57.8565 49.1934 64.2377 44.5431 68.9165 40.7442C73.6062 36.9364 78.5698 33.0047 82.3606 30.0253C84.2561 28.5355 85.8585 27.2837 86.9872 26.4042C87.5515 25.9645 87.9973 25.6179 88.3021 25.3812L88.7703 25.0179C88.7704 25.0179 88.7708 25.0176 88.9771 25.2839L88.7703 25.0179C88.8951 24.9213 89.0707 24.9239 89.1921 25.0246C90.011 25.7038 90.7325 26.7828 91.303 28.0789C91.8757 29.3797 92.3063 30.9215 92.5298 32.5501C92.9758 35.7991 92.6039 39.4473 90.8248 42.2353C88.6273 45.6788 84.833 49.1981 80.186 53.4698C80.0659 53.5802 79.9452 53.6912 79.8239 53.8026C75.2401 58.0154 69.8284 62.989 64.2094 69.3843C59.3393 74.927 56.7366 80.7773 56.5044 85.5189C56.3912 87.8322 57.1875 92.5267 59.3558 97.0688C61.5225 101.607 65.0278 105.93 70.2873 107.599C74.7834 109.027 79.7749 107.695 84.1284 105.789C86.2985 104.839 88.2933 103.753 89.9699 102.815C90.2272 102.671 90.4778 102.53 90.7209 102.394C92.0476 101.647 93.1521 101.026 93.9142 100.724C105.151 96.277 113.527 102.034 115.791 106.264C115.865 106.403 115.833 106.575 115.714 106.678C111.518 110.299 103.629 115.462 96.2039 120.089C92.4872 122.405 88.8805 124.591 85.9008 126.388C85.2705 126.768 84.6686 127.131 84.0998 127.474C81.9768 128.752 80.3147 129.754 79.3623 130.353C74.4912 133.419 64.8172 137.158 54.0325 135.856L31.9285 156.276C31.8628 156.336 31.7757 156.368 31.6864 156.365C31.5971 156.361 31.5128 156.322 31.4522 156.257L4.53236 127.064C4.4112 126.932 4.41373 126.729 4.53813 126.601L21.3772 109.23C20.6722 104.978 19.6721 101.067 18.7584 97.4943C18.4851 96.4254 18.2195 95.3867 17.9718 94.3783C16.891 89.9773 16.1444 86.1247 16.6609 82.9158C17.2369 79.3369 18.6676 74.6139 20.0659 70.4095C20.7708 68.29 21.4651 66.3086 22.042 64.6623C22.6136 63.0313 23.0698 61.7292 23.3069 60.9479L34.2798 15.3886C34.3113 15.2578 34.4177 15.1582 34.5504 15.1355C35.2339 15.0183 36.1274 15.1616 37.048 15.515C37.9761 15.8713 38.9636 16.4531 39.842 17.2521C41.3152 18.5921 42.4877 20.5511 42.5451 23.0776L54.0439 1.96374ZM41.7864 24.4709C42.2152 21.4727 41.0029 19.2188 39.3887 17.7505C38.5737 17.0092 37.6584 16.4711 36.8065 16.144C36.0593 15.8572 35.3844 15.7415 34.8798 15.7746L24.8171 57.5549L29.5746 46.8962C29.5783 46.8881 29.5822 46.8801 29.5864 46.8723L41.7864 24.4709ZM23.9483 61.1543C23.7086 61.9425 23.2457 63.2641 22.67 64.9076C22.0915 66.5591 21.3991 68.5356 20.7052 70.6221C19.3069 74.8264 17.8926 79.5033 17.3261 83.0228C16.8344 86.0779 17.5419 89.8025 18.6261 94.2176C18.871 95.2149 19.1348 96.2461 19.4069 97.3103C20.3336 100.934 21.358 104.939 22.0696 109.288C22.0869 109.394 22.0533 109.501 21.9791 109.577L5.2436 126.841L31.719 155.552L53.69 135.255C53.763 135.188 53.8619 135.156 53.9605 135.168C64.6192 136.502 74.2083 132.801 79.0034 129.783C79.9619 129.18 81.6323 128.173 83.7565 126.894C84.3245 126.552 84.9249 126.19 85.5528 125.811C88.5317 124.015 92.1351 121.831 95.8475 119.517C103.158 114.961 110.865 109.919 115.065 106.346C112.773 102.429 104.858 97.1176 94.1622 101.351C93.4466 101.634 92.3932 102.226 91.0609 102.975C90.8162 103.113 90.5621 103.256 90.2989 103.403C88.6183 104.344 86.6001 105.442 84.3986 106.406C80.009 108.328 74.8228 109.746 70.0834 108.241C64.5762 106.493 60.9563 101.985 58.7478 97.359C56.5408 92.7361 55.7118 87.9307 55.8315 85.4859C56.0734 80.5453 58.7688 74.5556 63.7032 68.9395C69.3463 62.5169 74.7806 57.5226 79.3628 53.3113C79.4858 53.1983 79.6082 53.0858 79.73 52.9738C84.4003 48.6807 88.1171 45.2258 90.2568 41.8728C91.9211 39.2649 92.2952 35.7952 91.8623 32.6417C91.6464 31.0691 91.2314 29.5885 90.6864 28.3504C90.1913 27.2257 89.5969 26.3192 88.9629 25.7212L88.7154 25.9133C88.4108 26.1498 87.9653 26.4962 87.4013 26.9357C86.2733 27.8146 84.6716 29.0659 82.777 30.555C78.9875 33.5334 74.027 37.4626 69.3412 41.2672C64.6445 45.0807 58.2484 49.7415 53.0308 53.4461C50.4211 55.2991 48.1045 56.9139 46.4404 58.0656C45.6083 58.6415 44.9393 59.1016 44.4782 59.4177C44.2477 59.5758 44.0691 59.6979 43.9482 59.7805L43.7645 59.9058C43.7644 59.9059 43.7637 59.9063 43.5742 59.6278L43.7645 59.9058C43.6208 60.0036 43.4257 59.9766 43.3148 59.8428C43.2039 59.709 43.213 59.5128 43.3357 59.3899C48.6228 54.0919 59.876 41.793 65.1445 35.8303C66.1857 34.6519 67.368 33.4349 68.5793 32.1881C69.329 31.4164 70.0898 30.6333 70.8351 29.8408C72.7965 27.7553 74.6727 25.5834 76.0591 23.2984C77.4445 21.0149 78.3299 18.6361 78.3322 16.134C78.3344 13.7138 77.5104 11.1434 75.4511 8.39824L56.3842 22.3469L30.1627 47.2318L23.9483 61.1543ZM31.1997 45.3187L55.9361 21.8433C55.9465 21.8335 55.9575 21.8243 55.9691 21.8158C57.6934 20.5543 61.2408 16.6469 61.5065 11.22C61.6366 8.56144 60.4722 6.55404 58.9427 5.11161C57.5068 3.75741 55.7599 2.91367 54.5056 2.52457L31.1997 45.3187Z" fill="black"/>
<path fill-rule="evenodd" clip-rule="evenodd" d="M4.42481 126.268C4.65423 126.059 5.00933 126.076 5.21796 126.305L32.3342 156.124C32.5428 156.354 32.5259 156.709 32.2965 156.917C32.0671 157.126 31.712 157.109 31.5034 156.88L4.38716 127.061C4.17853 126.831 4.19539 126.476 4.42481 126.268Z" fill="#E1E5E7"/>
<path fill-rule="evenodd" clip-rule="evenodd" d="M33.0378 157.589C33.2661 157.379 33.6213 157.394 33.8312 157.622L35.523 159.463C35.7329 159.691 35.718 160.046 35.4897 160.256C35.2614 160.466 34.9062 160.451 34.6963 160.223L33.0044 158.382C32.7946 158.154 32.8095 157.799 33.0378 157.589Z" fill="#E1E5E7"/>
<path fill-rule="evenodd" clip-rule="evenodd" d="M1.03781 122.59C1.2661 122.38 1.62129 122.395 1.83115 122.623L3.52304 124.464C3.7329 124.692 3.71795 125.047 3.48966 125.257C3.26137 125.467 2.90618 125.452 2.69632 125.224L1.00443 123.383C0.794577 123.155 0.809521 122.8 1.03781 122.59Z" fill="#E1E5E7"/>
</svg>
