<svg width="163" height="160" viewBox="0 0 163 160" fill="none" xmlns="http://www.w3.org/2000/svg">
<path d="M162.154 150.431C162.154 155.716 125.898 160.001 81.1738 160.001C36.4495 160.001 0.193359 155.716 0.193359 150.431C0.193359 145.145 36.4495 140.86 81.1738 140.86C125.898 140.86 162.154 145.145 162.154 150.431Z" fill="#C8CCD0"/>
<path d="M27.2802 132.484L26.9761 133.48C27.0337 133.588 25.0652 134.678 24.0097 133.39C22.8202 131.938 22.7719 130.018 23.0622 128.474L24.687 127.609L27.2802 132.484Z" fill="#805928"/>
<path fill-rule="evenodd" clip-rule="evenodd" d="M27.4915 132.549C27.5086 132.493 27.5027 132.432 27.4752 132.381L24.8821 127.506C24.8248 127.398 24.691 127.357 24.5833 127.415L22.9585 128.279C22.8993 128.311 22.8576 128.367 22.8452 128.433C22.5498 130.004 22.5889 132.004 23.8389 133.53C24.4409 134.265 25.299 134.308 25.9543 134.175C26.2841 134.109 26.5764 133.995 26.7849 133.89C26.8885 133.838 26.9768 133.785 27.0408 133.737C27.0713 133.714 27.1053 133.686 27.1327 133.654C27.1456 133.638 27.1664 133.611 27.181 133.575C27.1865 133.561 27.193 133.54 27.1962 133.516L27.4915 132.549ZM27.0423 132.507L26.7744 133.385C26.7373 133.412 26.6738 133.452 26.586 133.496C26.4086 133.585 26.1535 133.684 25.8665 133.743C25.2881 133.86 24.6342 133.804 24.1806 133.25C23.0774 131.903 22.9972 130.116 23.2604 128.619L24.5958 127.908L27.0423 132.507ZM26.7812 133.584C26.7779 133.578 26.7749 133.571 26.7723 133.565C26.7749 133.571 26.7778 133.578 26.7812 133.584Z" fill="#333333"/>
<path d="M17.8627 131.24L23.0622 128.474C24.6002 131.992 26.3123 133.277 26.976 133.48C27.4002 135.061 28.4643 138.942 29.3274 141.818C30.1905 144.695 27.7927 146.248 26.4858 146.665L17.8627 131.24Z" fill="#333333"/>
<path fill-rule="evenodd" clip-rule="evenodd" d="M27.0392 133.268C27.112 133.29 27.1682 133.349 27.1879 133.422C27.6119 135.003 28.6754 138.881 29.5375 141.755C29.9922 143.27 29.5866 144.453 28.8898 145.304C28.2016 146.145 27.2351 146.657 26.5516 146.876C26.4516 146.908 26.3429 146.865 26.2916 146.773L17.6685 131.347C17.6395 131.296 17.6326 131.234 17.6494 131.177C17.6661 131.12 17.7051 131.073 17.7575 131.045L22.9571 128.279C23.0114 128.25 23.0753 128.245 23.1334 128.265C23.1915 128.285 23.2385 128.329 23.2631 128.385C24.0242 130.126 24.8247 131.306 25.5102 132.072C26.2011 132.845 26.7625 133.184 27.0392 133.268ZM26.7913 133.648C26.401 133.49 25.8273 133.09 25.1809 132.367C24.4897 131.594 23.7035 130.44 22.9552 128.78L18.1641 131.329L26.587 146.396C27.194 146.171 27.9809 145.717 28.548 145.024C29.1611 144.275 29.5229 143.243 29.1145 141.882C28.2701 139.068 27.2341 135.295 26.7913 133.648Z" fill="#333333"/>
<path d="M58.7195 138.651L59.4559 139.388C59.5786 139.388 59.6167 141.638 57.9833 141.964C56.1427 142.332 54.4252 141.473 53.1983 140.492V138.651H58.7195Z" fill="#805928"/>
<path fill-rule="evenodd" clip-rule="evenodd" d="M58.8755 138.495C58.8341 138.454 58.7779 138.431 58.7193 138.431H53.1979C53.076 138.431 52.9771 138.53 52.9771 138.652V140.492C52.9771 140.559 53.0076 140.623 53.06 140.664C54.3081 141.663 56.092 142.568 58.0264 142.181C58.958 141.995 59.3992 141.257 59.5897 140.616C59.6856 140.294 59.7228 139.983 59.7279 139.749C59.7304 139.633 59.7251 139.53 59.7129 139.451C59.7071 139.414 59.6981 139.37 59.6824 139.331C59.675 139.312 59.6609 139.281 59.6353 139.251C59.6258 139.24 59.6108 139.225 59.5905 139.21L58.8755 138.495ZM58.6279 138.872L59.2768 139.521C59.2836 139.567 59.2884 139.641 59.2863 139.74C59.282 139.938 59.2497 140.21 59.1663 140.491C58.9981 141.056 58.6417 141.607 57.9398 141.748C56.2325 142.089 54.6168 141.321 53.4188 140.385V138.872H58.6279ZM59.4557 139.609C59.4487 139.609 59.4418 139.608 59.4349 139.608C59.4416 139.608 59.4485 139.609 59.4557 139.609Z" fill="#333333"/>
<path d="M53.1992 146.381V140.492C57.0274 140.786 58.966 139.878 59.4568 139.388C61.0519 139.756 64.9782 140.639 67.9229 141.228C70.8677 141.817 71.1131 144.664 70.8677 146.013L53.1992 146.381Z" fill="#333333"/>
<path fill-rule="evenodd" clip-rule="evenodd" d="M59.2988 139.232C59.3527 139.178 59.4305 139.156 59.5047 139.173C61.099 139.541 65.0229 140.423 67.9644 141.012C69.5158 141.322 70.3693 142.236 70.7936 143.25C71.2126 144.253 71.2115 145.347 71.0832 146.053C71.0644 146.156 70.9755 146.232 70.8705 146.234L53.202 146.602C53.1427 146.604 53.0853 146.581 53.0429 146.539C53.0005 146.498 52.9766 146.441 52.9766 146.382V140.492C52.9766 140.431 53.0022 140.372 53.0474 140.33C53.0925 140.288 53.153 140.267 53.2144 140.272C55.1086 140.418 56.5265 140.265 57.5251 140.02C58.5317 139.773 59.0943 139.436 59.2988 139.232ZM59.5179 139.629C59.1952 139.899 58.572 140.218 57.6304 140.449C56.6234 140.696 55.235 140.848 53.4183 140.729V146.156L70.6765 145.797C70.7625 145.155 70.7313 144.247 70.386 143.421C70.0127 142.528 69.2712 141.724 67.8778 141.445C64.997 140.869 61.1795 140.011 59.5179 139.629Z" fill="#333333"/>
<path d="M44.3628 67.6094L65.3441 71.2903C65.3441 71.2903 64.6079 93.744 63.8717 105.523C63.0221 119.116 61.295 138.283 61.295 138.283C61.295 138.283 59.6266 138.579 57.6141 138.651C55.6016 138.723 52.0927 138.651 52.0927 138.651C51.0326 127.823 50.2523 109.204 50.2523 109.204L29.6391 134.97C29.6391 134.97 27.0624 132.394 25.59 130.553C24.1177 128.713 21.541 125.032 21.541 125.032L40.6818 97.793C40.6818 97.793 40.706 85.9909 41.418 80.1245C42.1385 74.1891 44.3628 67.6094 44.3628 67.6094Z" fill="#69757B"/>
<path fill-rule="evenodd" clip-rule="evenodd" d="M44.1537 67.5388C44.1886 67.4355 44.2937 67.3732 44.4011 67.392L65.3824 71.0729C65.4907 71.092 65.5685 71.1878 65.5649 71.2977L65.3442 71.2905C65.5649 71.2977 65.5649 71.2975 65.5649 71.2977L65.5565 71.5529C65.5509 71.7202 65.5426 71.9672 65.5318 72.2858C65.5103 72.9228 65.4786 73.846 65.4384 74.9907C65.3578 77.28 65.2428 80.455 65.1048 83.9983C64.8287 91.0841 64.4605 99.6445 64.0922 105.537C63.6673 112.336 63.023 120.527 62.485 127.019C62.216 130.265 61.9735 133.086 61.7983 135.095C61.7107 136.1 61.6399 136.902 61.591 137.453C61.5666 137.728 61.5476 137.941 61.5347 138.084L61.5152 138.302C61.5152 138.302 61.5151 138.303 61.4945 138.301L61.5151 138.303C61.5062 138.402 61.4319 138.483 61.3338 138.501L61.3284 138.502L61.3134 138.504L61.2558 138.514C61.2054 138.522 61.1315 138.534 61.0366 138.549C60.8469 138.578 60.5733 138.618 60.2366 138.66C59.5635 138.743 58.6366 138.836 57.6221 138.872C56.6107 138.908 55.2262 138.908 54.0971 138.899C53.532 138.895 53.0299 138.888 52.6691 138.882C52.4887 138.88 52.3436 138.877 52.2435 138.875L52.089 138.872C51.9771 138.87 51.8839 138.784 51.873 138.673C51.3425 133.254 50.8822 125.888 50.5545 119.879C50.3907 116.874 50.26 114.208 50.1703 112.293C50.1254 111.335 50.0908 110.565 50.0673 110.035C50.0636 109.951 50.0602 109.873 50.0571 109.802L29.8117 135.108C29.7724 135.158 29.7141 135.188 29.6514 135.191C29.5887 135.195 29.5274 135.171 29.483 135.127L29.4754 135.119L29.4534 135.097L29.3687 135.012C29.2951 134.937 29.1884 134.829 29.0557 134.694C28.7905 134.423 28.4216 134.042 28.0065 133.604C27.1775 132.729 26.1599 131.619 25.4177 130.691C24.6777 129.766 23.6625 128.382 22.8343 127.232C22.4198 126.656 22.0513 126.138 21.7865 125.764C21.6541 125.576 21.5475 125.425 21.4741 125.321L21.3607 125.159L21.3603 125.159C21.3069 125.083 21.307 124.981 21.3604 124.905L40.4613 97.723L40.4616 97.6583C40.4619 97.5703 40.4625 97.4405 40.4635 97.2732C40.4656 96.9387 40.4693 96.4544 40.476 95.855C40.4894 94.6561 40.5147 92.9964 40.5623 91.1531C40.6573 87.4696 40.8415 83.0429 41.1989 80.0981C41.561 77.1153 42.3002 73.975 42.9475 71.5836C43.2714 70.3872 43.5727 69.3767 43.7931 68.665C43.9033 68.3092 43.9934 68.028 44.0559 67.8356C44.0871 67.7394 44.1115 67.6654 44.1281 67.6154L44.1471 67.5585L44.152 67.5439L44.1537 67.5388C44.1537 67.5388 44.1537 67.5388 44.3629 67.6096L44.1537 67.5388ZM44.5125 67.86C44.5017 67.8931 44.4895 67.9305 44.476 67.9721C44.414 68.1627 44.3246 68.442 44.2151 68.7957C43.9959 69.5033 43.6961 70.5086 43.3739 71.699C42.729 74.0814 41.9958 77.1986 41.6374 80.1513C41.2828 83.0729 41.0989 87.4804 41.0038 91.1645C40.9563 93.0051 40.9311 94.6626 40.9177 95.8599C40.911 96.4585 40.9073 96.9421 40.9053 97.2759C40.9042 97.4429 40.9036 97.5723 40.9033 97.6601L40.9028 97.7931C40.9028 97.7931 40.9028 97.7936 40.8332 97.7934L40.9028 97.7931C40.9027 97.8384 40.8887 97.8831 40.8627 97.9201L21.811 125.032L21.8354 125.067C21.9086 125.171 22.0149 125.322 22.147 125.508C22.4114 125.882 22.7791 126.399 23.1928 126.973C24.021 128.124 25.0303 129.5 25.7626 130.415C26.4928 131.328 27.4998 132.427 28.3272 133.3C28.7403 133.736 29.1075 134.115 29.3714 134.385C29.4703 134.486 29.5547 134.571 29.6215 134.639L50.0799 109.066C50.1375 108.994 50.2336 108.965 50.3211 108.994C50.4086 109.023 50.4692 109.103 50.473 109.195L50.2524 109.204C50.473 109.195 50.473 109.195 50.473 109.195L50.4731 109.196L50.4821 109.406C50.488 109.545 50.4969 109.75 50.5086 110.015C50.532 110.546 50.5666 111.315 50.6115 112.272C50.7012 114.186 50.8318 116.852 50.9956 119.855C51.3193 125.791 51.7721 133.044 52.2936 138.434C52.3903 138.436 52.5199 138.438 52.676 138.441C53.036 138.446 53.5369 138.453 54.1006 138.458C55.2291 138.467 56.6053 138.466 57.6064 138.431C58.6044 138.395 59.5179 138.304 60.1822 138.221C60.5141 138.18 60.7834 138.141 60.9695 138.112C61.0149 138.105 61.0553 138.099 61.0905 138.093L61.0948 138.045C61.102 137.965 61.1111 137.863 61.122 137.74C61.1306 137.644 61.1403 137.535 61.151 137.414C61.1999 136.863 61.2707 136.061 61.3583 135.057C61.5334 133.048 61.7759 130.227 62.0448 126.982C62.5827 120.492 63.2268 112.304 63.6514 105.509C64.0193 99.6227 64.3873 91.0669 64.6634 83.9811C64.8014 80.4385 64.9164 77.264 64.9969 74.9751C65.0372 73.8307 65.0688 72.9077 65.0904 72.2708C65.1012 71.9524 65.1094 71.7055 65.115 71.5382L65.1171 71.4749L44.5125 67.86Z" fill="#69757B"/>
<path fill-rule="evenodd" clip-rule="evenodd" d="M56.5278 83.2176C56.6493 83.2276 56.7398 83.3342 56.7298 83.4558L56.5097 83.4377L56.2896 83.4196C56.2996 83.298 56.4062 83.2076 56.5278 83.2176ZM50.2521 109.204L50.0878 109.057L50.0931 109.051L50.1092 109.033L50.1717 108.962C50.226 108.901 50.3049 108.812 50.4028 108.7C50.5986 108.475 50.8703 108.16 51.1736 107.797C51.7817 107.07 52.5113 106.158 53.0128 105.401C53.2042 105.112 53.4088 104.558 53.6161 103.778C53.8213 103.006 54.0228 102.039 54.2176 100.947C54.6072 98.7616 54.9673 96.0863 55.2745 93.4883C55.5815 90.8909 55.8353 88.3735 56.0124 86.5054C56.1009 85.5713 56.1702 84.7997 56.2174 84.2617C56.241 83.9927 56.259 83.782 56.2712 83.6387L56.2896 83.4196C56.2896 83.4194 56.2896 83.4196 56.5097 83.4377C56.7298 83.4558 56.7298 83.4556 56.7298 83.4558L56.7251 83.5121L56.7113 83.6761C56.6991 83.8198 56.681 84.0308 56.6574 84.3003C56.6101 84.8392 56.5407 85.6118 56.4521 86.547C56.2749 88.4173 56.0207 90.9382 55.7131 93.5401C55.4056 96.1414 55.0442 98.8265 54.6525 101.024C54.4566 102.123 54.2526 103.103 54.043 103.891C53.8357 104.671 53.6165 105.29 53.3809 105.645C52.8653 106.423 52.1225 107.351 51.5125 108.081C51.2067 108.446 50.933 108.764 50.7356 108.99C50.6369 109.103 50.5572 109.193 50.5022 109.255L50.4388 109.327L50.4222 109.345L50.4168 109.351L50.2521 109.204ZM50.2521 109.204L50.0878 109.057C50.0063 109.147 50.0138 109.287 50.1045 109.368C50.1953 109.45 50.3353 109.442 50.4168 109.351L50.2521 109.204Z" fill="#616C72"/>
<path d="M68.6995 27.7626C64.3525 27.8477 62.0857 25.332 61.4956 24.0636L62.5221 20.4528C63.0383 18.3731 64.6724 13.3641 67.0794 9.96564C70.0882 5.71763 76.1912 11.9453 77.0711 14.6824C77.8677 17.1602 77.8264 21.001 78.4607 23.2577L77.1509 22.5851C77.1439 23.2436 76.2513 24.6059 75.8058 25.2047C75.2483 26.0219 75.1848 27.8651 73.4786 27.32C72.2336 26.9222 70.952 25.5658 70.3753 24.4993L68.6995 27.7626Z" fill="#805928"/>
<path fill-rule="evenodd" clip-rule="evenodd" d="M75.7302 12.0534C76.4813 12.9657 77.0471 13.8931 77.2793 14.6152C77.6857 15.8793 77.8762 17.482 78.0442 19.0296C78.0568 19.1451 78.0692 19.2604 78.0816 19.3751C78.2364 20.8111 78.3833 22.1741 78.6712 23.1984C78.695 23.2829 78.6664 23.3735 78.5984 23.4291C78.5304 23.4847 78.4359 23.4947 78.3577 23.4546L77.3201 22.9218C77.2907 23.0356 77.2502 23.1532 77.2034 23.2703C77.1069 23.5122 76.9758 23.7722 76.8332 24.0259C76.5491 24.5314 76.2108 25.0276 75.9838 25.3332C75.8619 25.5131 75.7625 25.7558 75.6501 26.0387C75.6457 26.0498 75.6412 26.0609 75.6368 26.0721C75.5312 26.3379 75.4142 26.6324 75.2599 26.8878C75.0978 27.1562 74.8819 27.4037 74.5684 27.5379C74.2519 27.6733 73.8709 27.6783 73.4093 27.5308C72.7431 27.318 72.0832 26.8555 71.5219 26.3208C71.0752 25.8952 70.681 25.4145 70.387 24.9563L68.8336 27.9812L68.7017 27.9838C64.2594 28.0708 61.9168 25.4976 61.2933 24.1572L61.2586 24.0827L62.3066 20.3964C62.8263 18.3041 64.4681 13.2679 66.8971 9.83844C67.6909 8.71763 68.7058 8.27386 69.7905 8.30529C70.8589 8.33625 71.9728 8.82685 72.9957 9.52243C74.0218 10.2202 74.9763 11.1377 75.7302 12.0534ZM70.5337 24.3309C70.3482 23.9733 70.2682 23.6886 70.2805 23.5127C70.2889 23.391 70.1972 23.2855 70.0755 23.277C69.9538 23.2686 69.8483 23.3603 69.8398 23.482C69.8196 23.7724 69.9377 24.1335 70.1244 24.5008L68.5616 27.544C64.4799 27.574 62.3319 25.2512 61.7289 24.0437L62.7324 20.5137L62.7344 20.5065C63.2479 18.4371 64.8739 13.4591 67.2575 10.0937C67.9681 9.09054 68.8444 8.71977 69.7777 8.74682C70.7273 8.77433 71.7584 9.21522 72.7473 9.8877C73.733 10.558 74.6573 11.4451 75.3892 12.3341C76.124 13.2266 76.651 14.1041 76.8588 14.7504C77.249 15.9642 77.4361 17.5208 77.6051 19.0773C77.618 19.1963 77.6309 19.3153 77.6437 19.4342C77.7747 20.6513 77.9041 21.8523 78.1258 22.8389L76.9318 22.2259L76.928 22.5832C76.9267 22.7065 76.8818 22.8846 76.7932 23.1066C76.7064 23.3241 76.5852 23.5655 76.4481 23.8095C76.174 24.2974 75.8449 24.7798 75.6265 25.0734L75.6213 25.0807C75.4656 25.309 75.3484 25.6018 75.2396 25.8755L75.2319 25.8948C75.1218 26.1718 75.0168 26.436 74.8818 26.6595C74.7451 26.8859 74.5904 27.048 74.3947 27.1317C74.202 27.2142 73.9351 27.2351 73.5437 27.1101C72.9649 26.9251 72.3615 26.5106 71.8266 26.001C71.311 25.5098 70.8736 24.9444 70.5957 24.4461C70.5872 24.4029 70.5658 24.3625 70.5337 24.3309Z" fill="#333333"/>
<path fill-rule="evenodd" clip-rule="evenodd" d="M75.3779 18.5289C75.5163 18.6629 75.5867 18.9002 75.5982 19.095C75.6053 19.2167 75.7098 19.3097 75.8315 19.3025C75.9533 19.2954 76.0462 19.1909 76.0391 19.0691C76.0246 18.8222 75.9369 18.4552 75.6851 18.2115C75.5536 18.0843 75.3801 17.9942 75.1637 17.9762C74.9513 17.9586 74.714 18.0118 74.4512 18.1398C74.3415 18.1932 74.2959 18.3254 74.3493 18.4351C74.4027 18.5447 74.5349 18.5903 74.6446 18.5369C74.859 18.4325 75.016 18.4072 75.1272 18.4164C75.2345 18.4253 75.3143 18.4673 75.3779 18.5289Z" fill="#333333"/>
<path d="M81.9292 14.936C79.8053 16.4937 76.4194 15.5756 75.2246 14.4104C74.5819 15.3806 73.5516 17.6687 71.5396 16.6355C69.6131 16.4739 69.2103 18.9234 68.0915 19.4372C67.9912 18.5581 67.295 16.9593 65.8086 17.4374C64.7979 17.7625 65.2393 19.3519 65.614 20.2339C65.0524 20.2149 63.6336 20.1077 62.4513 19.8316C61.2689 19.5555 63.696 14.9471 63.6617 14.2464C63.767 13.5615 60.6336 12.6759 61.5645 10.2731C62.1971 8.63998 63.1972 9.03412 63.4059 7.4946C63.7232 5.15511 64.137 7.5233 67.0333 6.87443C68.4579 6.55526 70.366 2.47085 72.176 3.30826C73.9303 4.1199 76.1145 4.50237 75.7694 5.98023C74.7606 7.94499 78.7253 6.6704 80.0263 8.16598C79.6635 11.29 83.0498 14.1142 81.9292 14.936Z" fill="#333333"/>
<path fill-rule="evenodd" clip-rule="evenodd" d="M75.7513 4.94594C75.9662 5.24589 76.0483 5.60131 75.9501 6.02179C75.9467 6.03645 75.9415 6.05063 75.9346 6.06402C75.8159 6.29528 75.7843 6.45339 75.7941 6.55972C75.8029 6.65515 75.8465 6.72694 75.935 6.7907C76.0307 6.85962 76.1757 6.91578 76.3728 6.96129C76.5677 7.00628 76.7977 7.0375 77.0534 7.06584C77.1566 7.07728 77.264 7.08822 77.3743 7.09944C77.8021 7.14301 78.2734 7.19099 78.7124 7.28998C79.2649 7.41457 79.803 7.62687 80.1666 8.0449C80.2006 8.08396 80.2165 8.13551 80.2106 8.18692C80.0368 9.683 80.7607 11.1211 81.4246 12.3252C81.4709 12.4091 81.517 12.4922 81.5625 12.5742C81.8371 13.0686 82.0905 13.5249 82.2283 13.9083C82.3091 14.133 82.3581 14.353 82.339 14.5544C82.319 14.7657 82.2243 14.9486 82.0395 15.0842C80.9257 15.901 79.494 16.0608 78.2039 15.8762C77.0225 15.7071 75.9262 15.2446 75.2644 14.692C75.2216 14.7608 75.1767 14.8343 75.1294 14.9118L75.1229 14.9225C75.0294 15.0758 74.9272 15.2429 74.8163 15.4129C74.5949 15.7522 74.334 16.1105 74.0243 16.4069C73.7144 16.7036 73.3477 16.9459 72.9142 17.0397C72.4865 17.1324 72.0127 17.0763 71.4907 16.816C70.6493 16.76 70.1289 17.2557 69.6626 17.8917C69.5502 18.0449 69.4432 18.2032 69.3358 18.362L69.3202 18.3852C69.2084 18.5505 69.0957 18.7164 68.9799 18.8703C68.7509 19.1749 68.4931 19.4557 68.1698 19.6042C68.1162 19.6288 68.054 19.6262 68.0026 19.5972C67.9512 19.5683 67.9169 19.5164 67.9102 19.4578C67.863 19.0444 67.6739 18.4614 67.3296 18.0454C67.1591 17.8396 66.9559 17.6807 66.719 17.598C66.4845 17.516 66.2035 17.5039 65.8665 17.6123C65.6657 17.6769 65.5427 17.7995 65.4681 17.9634C65.3903 18.1344 65.3625 18.3578 65.377 18.6162C65.4061 19.1334 65.6009 19.7285 65.7849 20.1617C65.8095 20.2196 65.8028 20.286 65.7672 20.3378C65.7317 20.3896 65.6721 20.4197 65.6092 20.4176C65.0414 20.3983 63.6094 20.2904 62.4109 20.0106C62.1852 19.9579 62.0521 19.7961 61.9906 19.5945C61.9325 19.4037 61.9338 19.1676 61.9653 18.9177C62.0288 18.4143 62.2265 17.7741 62.4541 17.1361C62.6114 16.6954 62.7865 16.2464 62.9464 15.8364C63.0185 15.6516 63.0875 15.4746 63.1503 15.31C63.2523 15.043 63.338 14.8088 63.397 14.6209C63.4265 14.5269 63.4484 14.4472 63.4624 14.3825C63.4769 14.3151 63.4804 14.2747 63.4794 14.2552C63.4788 14.2428 63.4794 14.2304 63.4813 14.2182C63.483 14.2074 63.4824 14.1704 63.4201 14.0906C63.3596 14.0132 63.263 13.9237 63.1323 13.8166C63.0533 13.7517 62.9621 13.6809 62.8638 13.6045C62.6515 13.4395 62.4062 13.2489 62.1797 13.0385C61.8431 12.7259 61.5188 12.3453 61.3433 11.8754C61.1656 11.3996 61.1461 10.8471 61.3943 10.2063C61.7112 9.38843 62.123 9.04491 62.4708 8.75476C62.4898 8.73886 62.5087 8.72312 62.5274 8.70748C62.7036 8.55961 62.8493 8.4284 62.9662 8.24814C63.0817 8.07 63.1758 7.83296 63.2251 7.46959C63.2651 7.17435 63.3077 6.94448 63.3591 6.77051C63.4091 6.60088 63.4744 6.45884 63.5769 6.36559C63.6921 6.26069 63.8275 6.24015 63.9572 6.25894C64.0755 6.27606 64.203 6.32768 64.327 6.38133C64.36 6.39558 64.3938 6.4105 64.4287 6.42586C64.6677 6.5312 64.9543 6.6575 65.3284 6.73564C65.7539 6.82452 66.2962 6.851 66.9945 6.69456C67.138 6.66241 67.3 6.57948 67.4818 6.44643C67.6624 6.31419 67.853 6.13958 68.0535 5.93553C68.2974 5.68736 68.5441 5.40845 68.8 5.11929C68.9708 4.92627 69.1456 4.72868 69.3263 4.53262C69.768 4.05332 70.2362 3.59365 70.7168 3.30871C71.2016 3.02132 71.7268 2.89666 72.2548 3.14095C72.6404 3.31935 73.0474 3.47684 73.4494 3.63241C73.4977 3.65112 73.546 3.66979 73.5941 3.68848C74.0392 3.86116 74.4755 4.0348 74.8475 4.23142C75.2177 4.42715 75.543 4.65511 75.7513 4.94594ZM73.3163 3.97561C72.9158 3.82064 72.4973 3.65872 72.1002 3.47502C71.7232 3.30059 71.3311 3.37246 70.9045 3.62534C70.4738 3.88068 70.0366 4.30505 69.597 4.78207C69.4281 4.96527 69.2573 5.15814 69.0875 5.35C68.8247 5.64676 68.5641 5.94111 68.3161 6.19352C68.1091 6.40418 67.9027 6.59448 67.6992 6.74344C67.4969 6.89157 67.2877 7.0061 67.075 7.05374C66.3252 7.22173 65.7297 7.19551 65.2531 7.09596C64.8387 7.00939 64.5169 6.86727 64.2779 6.76176C64.2439 6.74673 64.2116 6.73245 64.1809 6.71917C64.0524 6.66357 63.9675 6.63235 63.9045 6.62323C63.853 6.61577 63.8381 6.62558 63.8246 6.6378C63.7984 6.66165 63.7567 6.72349 63.7121 6.87468C63.6688 7.02152 63.6291 7.22941 63.5898 7.51905C63.5347 7.92544 63.4255 8.21645 63.275 8.44843C63.1259 8.67829 62.9429 8.83927 62.764 8.98945C62.7451 9.00529 62.7261 9.02109 62.7071 9.03694C62.3723 9.31628 62.02 9.61024 61.7376 10.3393C61.5204 10.8999 61.5435 11.3592 61.6882 11.7466C61.8351 12.1399 62.113 12.4741 62.4303 12.7688C62.6454 12.9687 62.8654 13.1395 63.071 13.2991C63.1737 13.3788 63.2727 13.4557 63.3658 13.532C63.4995 13.6417 63.6231 13.7526 63.7102 13.864C63.7921 13.9689 63.8639 14.1026 63.8476 14.2553C63.8483 14.3188 63.8374 14.3897 63.8222 14.4601C63.805 14.54 63.7794 14.6315 63.7482 14.7311C63.6856 14.9304 63.5965 15.1733 63.4942 15.4413C63.4295 15.6107 63.3595 15.7903 63.2868 15.9767C63.1278 16.3843 62.9563 16.8242 62.8008 17.2598C62.5738 17.8961 62.3885 18.5035 62.3305 18.9637C62.3013 19.1956 62.3072 19.3704 62.3428 19.4872C62.3751 19.5932 62.4247 19.6358 62.4946 19.6521C63.496 19.8859 64.6739 19.9975 65.3384 20.0363C65.1822 19.6201 65.036 19.1082 65.0095 18.6369C64.9932 18.3471 65.0211 18.057 65.1331 17.811C65.2483 17.5578 65.4491 17.3599 65.7537 17.2619C66.1598 17.1313 66.5233 17.1397 66.8405 17.2505C67.1554 17.3605 67.4111 17.5667 67.6131 17.8107C67.939 18.2043 68.1382 18.712 68.2297 19.1384C68.3847 19.0189 68.533 18.8521 68.6858 18.649C68.7952 18.5036 68.9028 18.3452 69.0152 18.179L69.0321 18.1541C69.1385 17.9967 69.2491 17.8331 69.3657 17.674C69.8556 17.0059 70.492 16.3626 71.5564 16.4519C71.5804 16.4539 71.6037 16.4606 71.6251 16.4715C72.0958 16.7132 72.4941 16.7541 72.8363 16.68C73.1821 16.6051 73.4904 16.4084 73.7698 16.141C74.0496 15.8732 74.2925 15.5421 74.508 15.2118C74.6155 15.0471 74.715 14.8843 74.8087 14.7308L74.8173 14.7167C74.9071 14.5694 74.9926 14.4294 75.0727 14.3085C75.103 14.2627 75.152 14.2329 75.2066 14.2271C75.2611 14.2213 75.3154 14.2401 75.3546 14.2783C75.916 14.8258 77.0204 15.335 78.256 15.5118C79.4885 15.6881 80.8117 15.5281 81.8218 14.7873C81.9172 14.7174 81.9619 14.6323 81.9726 14.5196C81.9842 14.3971 81.9553 14.2372 81.8819 14.0328C81.7551 13.68 81.5193 13.255 81.2429 12.7569C81.197 12.6742 81.15 12.5896 81.1022 12.5029C80.4552 11.3292 79.6832 9.82562 79.836 8.22906C79.5487 7.93445 79.1254 7.76046 78.6314 7.64906C78.2163 7.55546 77.7743 7.51036 77.3487 7.46693C77.2353 7.45536 77.1231 7.44391 77.0129 7.4317C76.7547 7.40309 76.507 7.37003 76.29 7.31994C76.0753 7.27037 75.8744 7.20063 75.7199 7.08938C75.5583 6.97298 75.4475 6.81031 75.4275 6.59353C75.4091 6.39327 75.4702 6.16844 75.5964 5.9171C75.6633 5.60877 75.6011 5.36837 75.4521 5.1603C75.2931 4.9384 75.0274 4.74292 74.6754 4.55684C74.3252 4.37166 73.9081 4.20513 73.461 4.03164C73.4131 4.01305 73.3648 3.99438 73.3163 3.97561Z" fill="#333333"/>
<path fill-rule="evenodd" clip-rule="evenodd" d="M115.204 58.078C115.386 58.1689 115.459 58.39 115.368 58.5719L115.364 58.5797C114.64 60.0274 113.926 61.4571 113.564 64.7055C113.393 66.2479 113.423 67.3377 113.589 68.2409C113.754 69.1424 114.059 69.8784 114.465 70.7178C114.576 70.9484 114.695 71.1856 114.82 71.4348C115.611 73.0173 116.641 75.0775 117.605 78.9312C118.489 82.4687 118.614 86.2269 118.424 89.8982C118.278 92.712 117.946 95.4848 117.624 98.0747C117.601 98.2611 117.577 98.4466 117.554 98.631C117.257 101.014 116.982 103.225 116.879 105.174C116.592 110.627 119.387 113.359 120.725 114.028C120.907 114.119 120.981 114.34 120.89 114.522C120.799 114.704 120.578 114.777 120.396 114.687C118.789 113.883 115.842 110.873 116.144 105.136C116.248 103.159 116.527 100.922 116.823 98.5475C116.846 98.3604 116.87 98.1726 116.893 97.9839C117.215 95.3944 117.544 92.6465 117.688 89.8631C117.714 89.1347 117.487 88.3837 117.175 87.7272C116.864 87.0715 116.482 86.5388 116.235 86.2571C116.101 86.1044 116.116 85.8718 116.268 85.7377C116.421 85.6035 116.654 85.6185 116.788 85.7712C117.058 86.0788 117.438 86.6078 117.764 87.2556C117.775 84.4849 117.545 81.7282 116.89 79.1097C115.947 75.3361 114.948 73.3376 114.161 71.7631C114.035 71.5126 113.916 71.2728 113.802 71.0384C113.385 70.1759 113.048 69.3708 112.865 68.3739C112.682 67.3787 112.656 66.2128 112.833 64.6241C113.208 61.2527 113.963 59.7369 114.71 58.2426C114.801 58.0608 115.022 57.9871 115.204 58.078Z" fill="#8F6E0D"/>
<path d="M120.931 68.8599C119.551 69.8926 117.867 71.338 114.502 70.3754C111.698 69.5733 114.234 66.512 117.19 65.7199C119.896 64.995 121.891 63.4246 122.715 62.3754C124.147 63.8558 122.657 67.5691 120.931 68.8599Z" fill="#016D33"/>
<path d="M109.027 80.2437C109.938 82.2926 110.933 85.003 115.365 86.0462C119.058 86.9156 118.122 81.8293 115.268 79.0531C112.656 76.5123 111.387 73.4621 111.118 71.7479C108.552 72.5196 107.887 77.6825 109.027 80.2437Z" fill="#016D33"/>
<path d="M126.845 99.8219C125.772 102.232 124.603 105.419 119.39 106.646C115.047 107.669 116.147 101.687 119.504 98.4217C122.576 95.4334 124.069 91.8461 124.385 89.8301C127.403 90.7377 128.185 96.8097 126.845 99.8219Z" fill="#016D33"/>
<path d="M107.068 112.973C103.784 123.901 112.838 131.126 117.776 133.373C126.124 126.104 121.923 115.78 118.779 111.526C115.351 106.296 110.202 101.695 107.523 98.2171C105.628 95.758 100.338 90.7135 103.334 97.723C105.731 103.331 103.207 109.522 107.068 112.973Z" fill="#016D33"/>
<path d="M127.874 103.621C127.374 107.137 123.915 110.528 122.248 111.784C117.248 116.808 117.248 129.995 117.248 132.507C117.248 135.019 121.623 134.391 123.498 133.135C126.099 131.394 130.374 123.088 129.749 116.808C129.3 112.302 135.374 111.784 133.499 105.504C131.843 99.959 135.374 91.0611 134.749 87.9213C134.124 84.7814 137.874 80.3856 133.499 84.1534C129.124 87.9213 128.499 99.2248 127.874 103.621Z" fill="#016D33"/>
<path d="M117.249 55.4613C117.249 57.0877 115.93 58.4061 114.304 58.4061C112.678 58.4061 111.359 57.0877 111.359 55.4613C111.359 53.835 112.678 52.5166 114.304 52.5166C115.93 52.5166 117.249 53.835 117.249 55.4613Z" fill="#69757B"/>
<path d="M117.985 55.4613C117.985 57.0877 116.667 58.4061 115.04 58.4061C113.414 58.4061 112.096 57.0877 112.096 55.4613C112.096 53.835 113.414 52.5166 115.04 52.5166C116.667 52.5166 117.985 53.835 117.985 55.4613Z" fill="#FFA300"/>
<path d="M114.949 57.1903V56.7374C114.783 56.7345 114.625 56.7202 114.474 56.6943C114.325 56.6684 114.203 56.6346 114.108 56.5929V56.2435C114.207 56.2895 114.334 56.3298 114.489 56.3643C114.645 56.3988 114.798 56.4175 114.949 56.4204V55.4714C114.759 55.4182 114.602 55.3578 114.476 55.2902C114.353 55.2212 114.26 55.1371 114.198 55.0379C114.136 54.9387 114.105 54.8186 114.105 54.6777C114.105 54.531 114.14 54.4059 114.209 54.3024C114.279 54.1974 114.378 54.1155 114.504 54.0565C114.631 53.9976 114.779 53.9638 114.949 53.9552V53.582H115.212V53.9508C115.366 53.9552 115.506 53.9724 115.632 54.0026C115.759 54.0314 115.876 54.0687 115.984 54.1148L115.872 54.4146C115.774 54.3757 115.668 54.3427 115.555 54.3153C115.441 54.288 115.327 54.2693 115.212 54.2593V55.2018C115.405 55.2579 115.566 55.3175 115.695 55.3808C115.826 55.4441 115.924 55.5224 115.991 55.6159C116.057 55.7093 116.09 55.8301 116.09 55.9782C116.09 56.1882 116.013 56.3578 115.859 56.4872C115.705 56.6152 115.489 56.6928 115.212 56.7202V57.1903H114.949ZM115.212 56.401C115.389 56.3837 115.52 56.3413 115.607 56.2737C115.694 56.2047 115.738 56.1141 115.738 56.002C115.738 55.9214 115.721 55.8553 115.686 55.8035C115.653 55.7518 115.599 55.7072 115.522 55.6698C115.446 55.631 115.343 55.5943 115.212 55.5598V56.401ZM114.949 55.1112V54.2679C114.841 54.2751 114.75 54.2952 114.677 54.3283C114.604 54.3614 114.548 54.4045 114.511 54.4577C114.475 54.5109 114.457 54.5742 114.457 54.6475C114.457 54.7323 114.473 54.8035 114.504 54.861C114.538 54.9171 114.59 54.9653 114.662 55.0055C114.735 55.0443 114.831 55.0796 114.949 55.1112Z" fill="#754C04"/>
<path d="M115.776 90.7983C115.776 92.4246 114.458 93.743 112.831 93.743C111.205 93.743 109.887 92.4246 109.887 90.7983C109.887 89.1719 111.205 87.8535 112.831 87.8535C114.458 87.8535 115.776 89.1719 115.776 90.7983Z" fill="#69757B"/>
<path d="M116.513 90.7983C116.513 92.4246 115.194 93.743 113.568 93.743C111.941 93.743 110.623 92.4246 110.623 90.7983C110.623 89.1719 111.941 87.8535 113.568 87.8535C115.194 87.8535 116.513 89.1719 116.513 90.7983Z" fill="#FFA300"/>
<path d="M113.476 92.5273V92.0743C113.311 92.0715 113.153 92.0571 113.002 92.0312C112.852 92.0053 112.73 91.9715 112.635 91.9298V91.5804C112.734 91.6264 112.861 91.6667 113.017 91.7012C113.172 91.7357 113.325 91.7544 113.476 91.7573V90.8083C113.286 90.7551 113.129 90.6947 113.004 90.6271C112.88 90.5581 112.787 90.474 112.726 90.3748C112.664 90.2756 112.633 90.1555 112.633 90.0146C112.633 89.8679 112.667 89.7428 112.736 89.6393C112.807 89.5344 112.905 89.4524 113.032 89.3934C113.158 89.3345 113.306 89.3007 113.476 89.2921V88.9189H113.739V89.2878C113.893 89.2921 114.033 89.3093 114.16 89.3395C114.286 89.3683 114.404 89.4057 114.511 89.4517L114.399 89.7515C114.301 89.7126 114.196 89.6796 114.082 89.6523C113.969 89.6249 113.854 89.6062 113.739 89.5962V90.5387C113.932 90.5948 114.093 90.6544 114.222 90.7177C114.353 90.781 114.452 90.8593 114.518 90.9528C114.584 91.0463 114.617 91.167 114.617 91.3151C114.617 91.5251 114.54 91.6947 114.386 91.8241C114.232 91.9521 114.017 92.0298 113.739 92.0571V92.5273H113.476ZM113.739 91.7379C113.916 91.7206 114.048 91.6782 114.134 91.6106C114.222 91.5416 114.266 91.451 114.266 91.3389C114.266 91.2583 114.248 91.1922 114.214 91.1404C114.181 91.0887 114.126 91.0441 114.05 91.0067C113.974 90.9679 113.87 90.9312 113.739 90.8967V91.7379ZM113.476 90.4481V89.6048C113.368 89.612 113.278 89.6321 113.204 89.6652C113.131 89.6983 113.076 89.7414 113.038 89.7946C113.002 89.8478 112.984 89.9111 112.984 89.9844C112.984 90.0692 113 90.1404 113.032 90.1979C113.065 90.254 113.117 90.3022 113.189 90.3424C113.263 90.3813 113.358 90.4165 113.476 90.4481Z" fill="#754C04"/>
<path d="M122.403 73.8666C122.403 75.493 121.085 76.8114 119.458 76.8114C117.832 76.8114 116.514 75.493 116.514 73.8666C116.514 72.2403 117.832 70.9219 119.458 70.9219C121.085 70.9219 122.403 72.2403 122.403 73.8666Z" fill="#69757B"/>
<path d="M123.139 73.8666C123.139 75.493 121.821 76.8114 120.195 76.8114C118.568 76.8114 117.25 75.493 117.25 73.8666C117.25 72.2403 118.568 70.9219 120.195 70.9219C121.821 70.9219 123.139 72.2403 123.139 73.8666Z" fill="#FFA300"/>
<path d="M120.103 75.5956V75.1427C119.938 75.1398 119.78 75.1254 119.629 75.0996C119.479 75.0737 119.357 75.0399 119.262 74.9982V74.6488C119.361 74.6948 119.488 74.7351 119.644 74.7696C119.799 74.8041 119.952 74.8228 120.103 74.8256V73.8767C119.913 73.8235 119.756 73.7631 119.631 73.6955C119.507 73.6265 119.414 73.5424 119.353 73.4431C119.291 73.3439 119.26 73.2239 119.26 73.083C119.26 72.9363 119.294 72.8112 119.363 72.7077C119.434 72.6027 119.532 72.5208 119.659 72.4618C119.785 72.4028 119.933 72.3691 120.103 72.3604V71.9873H120.366V72.3561C120.52 72.3604 120.66 72.3777 120.787 72.4079C120.913 72.4366 121.03 72.474 121.138 72.52L121.026 72.8198C120.928 72.781 120.823 72.7479 120.709 72.7206C120.596 72.6933 120.481 72.6746 120.366 72.6645V73.6071C120.559 73.6631 120.72 73.7228 120.849 73.7861C120.98 73.8493 121.079 73.9277 121.145 74.0212C121.211 74.1146 121.244 74.2354 121.244 74.3835C121.244 74.5934 121.167 74.7631 121.013 74.8925C120.859 75.0205 120.644 75.0981 120.366 75.1254V75.5956H120.103ZM120.366 74.8062C120.543 74.789 120.675 74.7466 120.761 74.679C120.849 74.61 120.892 74.5194 120.892 74.4072C120.892 74.3267 120.875 74.2606 120.841 74.2088C120.808 74.157 120.753 74.1125 120.677 74.0751C120.601 74.0363 120.497 73.9996 120.366 73.9651V74.8062ZM120.103 73.5165V72.6732C119.995 72.6804 119.905 72.7005 119.831 72.7336C119.758 72.7666 119.703 72.8098 119.665 72.863C119.629 72.9162 119.611 72.9794 119.611 73.0528C119.611 73.1376 119.627 73.2088 119.659 73.2663C119.692 73.3224 119.744 73.3705 119.816 73.4108C119.89 73.4496 119.985 73.4848 120.103 73.5165Z" fill="#754C04"/>
<path d="M108.414 131.931C112.095 130.336 121.371 128.103 129.027 131.931H108.414Z" fill="#8F6E0D"/>
<path d="M145.222 131.29H91.4805C91.4805 139.02 101.787 153.008 117.983 153.008C134.915 153.008 145.222 139.02 145.222 131.29Z" fill="white"/>
<path fill-rule="evenodd" clip-rule="evenodd" d="M91.1875 130.995H145.518V131.29C145.518 135.262 142.885 140.764 138.157 145.26C133.416 149.768 126.536 153.302 117.985 153.302C109.798 153.302 103.101 149.765 98.4548 145.258C93.8196 140.762 91.1875 135.262 91.1875 131.29V130.995ZM91.7815 131.584C91.9081 135.324 94.4157 140.52 98.8648 144.836C103.421 149.255 109.976 152.713 117.985 152.713C126.365 152.713 133.105 149.252 137.751 144.834C142.288 140.519 144.797 135.323 144.924 131.584H91.7815Z" fill="white"/>
<path fill-rule="evenodd" clip-rule="evenodd" d="M98.1066 96.6887C100.315 95.5844 101.787 93.0077 99.5788 89.6949L94.4257 80.8607C92.9532 77.9159 88.8306 74.6032 82.6467 77.5479C76.4626 80.4925 76.7571 86.7501 78.2299 89.3269L84.4871 101.842L106.137 105.523C107.309 105.155 107.677 103.314 106.573 102.578L92.5852 99.2654L98.1066 96.6887ZM92.9532 82.8905L81.2907 89.3268C81.1709 88.9894 81.0095 88.613 80.8353 88.2069C79.7542 85.6857 78.1823 82.02 83.0185 79.4578C88.5031 76.552 90.6862 79.6931 92.1879 81.8537C92.4602 82.2455 92.7101 82.6051 92.9532 82.8905Z" fill="#165C7D"/>
<path fill-rule="evenodd" clip-rule="evenodd" d="M90.2182 77.1998C88.2942 76.3982 85.7831 76.2992 82.7417 77.7474C79.7133 79.1895 78.2833 81.4331 77.7824 83.6247C77.2788 85.8282 77.7143 87.9797 78.4218 89.2174L78.4248 89.2228L84.6347 101.643L106.119 105.296C106.581 105.128 106.903 104.671 106.991 104.152C107.078 103.63 106.921 103.096 106.482 102.784L91.9163 99.334L98.0106 96.49C99.0725 95.9583 99.942 95.0805 100.288 93.9552C100.633 92.8352 100.471 91.4311 99.3952 89.8175L99.3916 89.812L94.2314 80.966L94.2283 80.9597C93.512 79.5271 92.1497 78.0046 90.2182 77.1998ZM94.6201 80.7557C93.8631 79.2453 92.4291 77.6425 90.3881 76.7921C88.3366 75.9373 85.6944 75.8522 82.5518 77.3486C79.3962 78.8512 77.8815 81.2088 77.3518 83.5263C76.8256 85.8289 77.2717 88.0915 78.0352 89.4312L84.3398 102.041L106.152 105.75L106.203 105.734C106.887 105.519 107.316 104.884 107.426 104.225C107.538 103.563 107.336 102.822 106.695 102.395L106.662 102.373L93.2544 99.197L98.2002 96.889L98.2055 96.8864C99.351 96.3137 100.321 95.3515 100.71 94.0851C101.101 92.8138 100.896 91.2752 99.7664 89.5781L94.6201 80.7557ZM92.3572 81.7103L92.3694 81.7278C92.6435 82.1223 92.8868 82.472 93.1214 82.7474L93.2968 82.9533L81.1698 89.646L81.0827 89.4009C80.9657 89.0715 80.8074 88.7021 80.6325 88.2941L80.6238 88.2739C80.0886 87.0259 79.4085 85.44 79.4874 83.837C79.5275 83.024 79.7621 82.206 80.3037 81.4255C80.8442 80.6466 81.6829 79.9157 82.9152 79.2628C85.7002 77.7873 87.6936 77.8258 89.1937 78.5575C90.6646 79.2749 91.6136 80.6404 92.3572 81.7103ZM89.0001 78.9545C87.6622 78.302 85.8217 78.2228 83.122 79.6531C81.9363 80.2813 81.1578 80.9694 80.6666 81.6773C80.1766 82.3834 79.965 83.1199 79.9286 83.8587C79.8551 85.3508 80.4938 86.8499 81.0384 88.12L81.0404 88.1247C81.1733 88.4346 81.301 88.7323 81.4084 89.0098L92.6153 82.8249C92.4195 82.5739 92.2195 82.2862 92.0114 81.9867L92.0067 81.9799C91.2504 80.8918 90.3593 79.6175 89.0001 78.9545Z" fill="#135371"/>
<path fill-rule="evenodd" clip-rule="evenodd" d="M107.807 104.245C107.903 104.114 108.087 104.086 108.219 104.182C108.528 104.409 108.827 104.661 109.114 104.936C109.231 105.048 109.236 105.234 109.123 105.352C109.011 105.47 108.825 105.474 108.707 105.361C108.437 105.103 108.158 104.868 107.87 104.657C107.739 104.561 107.711 104.377 107.807 104.245ZM110.208 106.635C110.341 106.542 110.525 106.574 110.619 106.707C111.045 107.313 111.441 107.975 111.808 108.682C111.883 108.827 111.827 109.004 111.683 109.079C111.538 109.154 111.361 109.098 111.286 108.954C110.929 108.266 110.546 107.627 110.137 107.046C110.043 106.913 110.075 106.729 110.208 106.635ZM112.378 110.607C112.529 110.546 112.701 110.619 112.761 110.77C113.04 111.462 113.297 112.183 113.533 112.926C113.583 113.081 113.497 113.247 113.342 113.296C113.187 113.345 113.022 113.26 112.972 113.105C112.74 112.374 112.487 111.667 112.215 110.99C112.154 110.839 112.228 110.667 112.378 110.607ZM113.802 114.912C113.96 114.872 114.12 114.967 114.16 115.125C114.345 115.855 114.513 116.599 114.664 117.352C114.696 117.511 114.593 117.667 114.433 117.699C114.274 117.731 114.119 117.627 114.087 117.468C113.937 116.724 113.772 115.99 113.589 115.27C113.549 115.112 113.644 114.952 113.802 114.912ZM114.726 119.353C114.887 119.328 115.038 119.438 115.062 119.599C115.179 120.351 115.279 121.106 115.365 121.859C115.383 122.021 115.267 122.167 115.105 122.185C114.944 122.203 114.798 122.087 114.779 121.925C114.695 121.18 114.596 120.433 114.48 119.689C114.456 119.528 114.566 119.378 114.726 119.353ZM115.261 123.858C115.423 123.846 115.564 123.968 115.576 124.13C115.632 124.898 115.673 125.659 115.697 126.406C115.703 126.569 115.575 126.705 115.413 126.711C115.25 126.716 115.114 126.589 115.109 126.426C115.084 125.686 115.044 124.934 114.989 124.173C114.977 124.011 115.099 123.87 115.261 123.858ZM115.433 128.392C115.596 128.393 115.727 128.526 115.725 128.689C115.721 129.074 115.713 129.454 115.701 129.828C115.695 129.99 115.559 130.118 115.397 130.112C115.234 130.107 115.107 129.971 115.112 129.808C115.124 129.439 115.132 129.064 115.136 128.683C115.138 128.521 115.271 128.39 115.433 128.392Z" fill="#009ED0"/>
<path fill-rule="evenodd" clip-rule="evenodd" d="M107.161 105.268C107.302 105.187 107.482 105.235 107.563 105.376C107.747 105.695 107.925 106.011 108.097 106.324C108.175 106.467 108.122 106.646 107.98 106.724C107.837 106.802 107.658 106.75 107.58 106.607C107.411 106.298 107.235 105.986 107.053 105.67C106.972 105.529 107.02 105.349 107.161 105.268ZM108.702 108.122C108.849 108.052 109.025 108.113 109.096 108.259C109.422 108.933 109.719 109.595 109.99 110.245C110.052 110.395 109.981 110.567 109.831 110.63C109.68 110.692 109.508 110.621 109.446 110.471C109.18 109.831 108.887 109.18 108.566 108.516C108.495 108.37 108.556 108.193 108.702 108.122ZM110.387 112.099C110.541 112.046 110.708 112.129 110.761 112.283C111.002 112.988 111.212 113.683 111.394 114.37C111.435 114.527 111.342 114.688 111.184 114.73C111.027 114.772 110.866 114.678 110.824 114.521C110.646 113.847 110.44 113.166 110.204 112.473C110.151 112.319 110.233 112.152 110.387 112.099ZM111.531 116.264C111.691 116.233 111.845 116.339 111.875 116.499C112.011 117.222 112.119 117.94 112.202 118.655C112.22 118.817 112.104 118.963 111.943 118.982C111.781 119 111.635 118.884 111.616 118.723C111.535 118.021 111.43 117.317 111.296 116.607C111.266 116.448 111.371 116.294 111.531 116.264ZM112.072 120.548C112.234 120.54 112.373 120.664 112.381 120.827C112.419 121.55 112.435 122.274 112.434 123.002C112.434 123.165 112.302 123.297 112.139 123.297C111.977 123.296 111.845 123.164 111.845 123.002C111.846 122.282 111.83 121.569 111.793 120.857C111.785 120.695 111.91 120.556 112.072 120.548ZM112.104 124.868C112.267 124.875 112.393 125.012 112.386 125.174C112.357 125.887 112.317 126.608 112.268 127.341C112.257 127.503 112.117 127.626 111.955 127.615C111.792 127.604 111.67 127.464 111.68 127.301C111.729 126.573 111.769 125.857 111.798 125.151C111.804 124.988 111.942 124.862 112.104 124.868ZM111.837 129.182C112 129.195 112.12 129.337 112.107 129.499C112.079 129.855 112.049 130.215 112.019 130.578C112.005 130.74 111.863 130.86 111.701 130.847C111.539 130.833 111.418 130.691 111.432 130.529C111.462 130.166 111.492 129.807 111.52 129.451C111.533 129.289 111.675 129.169 111.837 129.182Z" fill="#009ED0"/>
<path d="M43.6268 67.9779C47.676 33.7454 58.0647 27.5056 61.6634 23.8068C63.525 26.6926 66.8144 27.8089 68.6248 27.7428C70.9671 33.8192 70.8659 38.3462 70.1297 47.7328C69.5234 55.4627 68.0876 62.8246 66.0805 71.2907L43.6268 67.9779Z" fill="#007D8A"/>
<path fill-rule="evenodd" clip-rule="evenodd" d="M61.6863 23.5868C61.7532 23.5935 61.8135 23.6303 61.85 23.6869C63.6653 26.5009 66.8774 27.5854 68.6178 27.5219C68.712 27.5185 68.798 27.5752 68.8319 27.6632C71.1938 33.7903 71.0872 38.3619 70.3509 47.7499C69.7434 55.4963 68.3046 62.8708 66.2965 71.3415C66.27 71.453 66.1627 71.5257 66.0493 71.509L43.5956 68.1961C43.4774 68.1787 43.3945 68.0704 43.4085 67.9517C45.4353 50.8162 49.051 40.6677 52.6226 34.3335C55.4883 29.2513 58.3286 26.626 60.2586 24.8421C60.7341 24.4026 61.1543 24.0141 61.5061 23.6526C61.553 23.6044 61.6193 23.5802 61.6863 23.5868ZM61.631 24.154C61.3109 24.4714 60.9472 24.8078 60.5469 25.1779C58.6162 26.9636 55.8352 29.5355 53.0074 34.5505C49.4874 40.7929 45.8994 50.8227 43.8725 67.7905L65.9133 71.0425C67.8949 62.6637 69.3103 55.3688 69.9105 47.7153C70.6407 38.4052 70.741 33.9197 68.475 27.9662C66.6201 27.9672 63.5066 26.864 61.631 24.154Z" fill="#01727D"/>
<path d="M85.3279 76.63L84.8539 73.1306C84.8539 73.1306 68.9978 67.132 67.1852 63.9283C66.03 61.8867 58.351 47.3641 58.351 47.3641L67.9214 45.1555L73.4432 59.1431L87.7987 68.7135C88.9029 69.4497 88.5913 69.195 90.3753 70.554C91.3608 71.3047 91.8477 73.1306 92.5839 75.3392C92.952 76.63 92.3549 77.0461 92.2158 77.5478L90.3753 73.8668L90.7434 78.2839C90.6321 78.6853 89.8308 80.8606 88.9029 80.8606C86.6944 80.8606 87.4306 80.8606 86.3263 80.4925C85.319 80.1568 85.5901 78.652 85.3279 76.63Z" fill="#805928"/>
<path fill-rule="evenodd" clip-rule="evenodd" d="M58.1503 47.2727C58.1788 47.2103 58.2347 47.1648 58.3015 47.1493L67.8719 44.9408C67.9784 44.9162 68.0869 44.9732 68.127 45.0749L73.6235 58.9981L87.9213 68.5302C88.1524 68.6842 88.3218 68.7951 88.4615 68.8866C88.9902 69.2326 89.0939 69.3005 90.5093 70.3787C91.052 70.7922 91.4384 71.4844 91.7778 72.317C92.0318 72.94 92.2689 73.667 92.5245 74.4508C92.6116 74.7178 92.7008 74.9914 92.7936 75.2698L92.7966 75.279C92.9927 75.9665 92.9353 76.4414 92.7975 76.816C92.734 76.9887 92.6547 77.1359 92.5881 77.2596L92.5784 77.2776C92.5068 77.4107 92.4559 77.5095 92.4288 77.6072C92.4044 77.6953 92.3282 77.7592 92.2372 77.768C92.1463 77.7768 92.0593 77.7287 92.0184 77.6469L90.6908 74.9918L90.9637 78.266C90.9658 78.292 90.9634 78.3182 90.9564 78.3434C90.8965 78.5595 90.662 79.22 90.3226 79.8305C90.1529 80.1357 89.951 80.4395 89.7237 80.6699C89.5003 80.8964 89.2226 81.0819 88.9031 81.0819L88.8991 81.0819C88.3504 81.0819 87.9804 81.0819 87.7192 81.0761C87.459 81.0703 87.2928 81.0587 87.1574 81.0316C87.0197 81.004 86.9208 80.9616 86.8045 80.9118L86.7974 80.9087C86.6791 80.8581 86.524 80.7916 86.2566 80.7024C85.6202 80.4903 85.421 79.9027 85.329 79.2237C85.2861 78.9072 85.2635 78.5465 85.2393 78.1598C85.2371 78.1246 85.2349 78.0892 85.2326 78.0537C85.2055 77.6236 85.1736 77.1569 85.1092 76.6594C85.1092 76.6596 85.1091 76.6592 85.1092 76.6594L84.6528 73.2907L84.5965 73.2691C84.4796 73.2243 84.308 73.1581 84.0891 73.0728C83.6512 72.9023 83.0239 72.6551 82.2655 72.3485C80.7489 71.7353 78.7072 70.8842 76.6083 69.9324C74.5102 68.9811 72.3506 67.9274 70.5998 66.9091C69.7245 66.4 68.9473 65.8974 68.3297 65.4185C67.7167 64.9433 67.2419 64.4773 66.9931 64.0375C66.4137 63.0134 64.2032 58.8685 62.14 54.9846C61.1079 53.0416 60.1119 51.1624 59.3739 49.769C59.0049 49.0722 58.7004 48.497 58.4882 48.0958L58.1563 47.4684C58.1562 47.4683 58.1559 47.4678 58.3512 47.3645L58.1559 47.4678C58.1239 47.4072 58.1218 47.3351 58.1503 47.2727ZM58.6807 47.5152L58.8786 47.8893C59.0908 48.2903 59.3953 48.8656 59.7642 49.5622C60.5022 50.9556 61.4981 52.8346 62.5301 54.7774C64.5953 58.6652 66.8019 62.8025 67.3776 63.82C67.5819 64.1812 67.9992 64.6034 68.6003 65.0694C69.1967 65.5318 69.9557 66.0234 70.8218 66.5273C72.5539 67.5347 74.6981 68.5813 76.7907 69.5301C78.8823 70.4785 80.918 71.3272 82.431 71.939C83.1875 72.2448 83.8131 72.4913 84.2494 72.6613C84.4676 72.7463 84.6384 72.8121 84.7547 72.8567L84.8872 72.9074L84.9316 72.9242C84.9317 72.9243 84.9322 72.9245 84.8541 73.1311L84.9316 72.9242C85.0074 72.9529 85.0621 73.0211 85.073 73.1014L85.5469 76.6007L85.5471 76.602C85.6137 77.1153 85.6463 77.5948 85.6735 78.0258C85.6756 78.0603 85.6778 78.0944 85.6799 78.1282C85.7045 78.52 85.7261 78.8646 85.7667 79.1644C85.8566 79.8272 86.0255 80.1598 86.3963 80.2834C86.6807 80.3782 86.8481 80.4499 86.9714 80.5027C87.0935 80.5551 87.1544 80.5805 87.244 80.5984C87.3386 80.6174 87.4715 80.6287 87.729 80.6345C87.9847 80.6401 88.3497 80.6402 88.9031 80.6402C89.0475 80.6402 89.2179 80.5537 89.4092 80.3598C89.5966 80.1697 89.776 79.9047 89.9365 79.6159C90.2389 79.0719 90.4533 78.4833 90.5201 78.262L90.1554 73.8856C90.1466 73.7801 90.2139 73.6832 90.3159 73.6546C90.4178 73.626 90.5257 73.6738 90.573 73.7685L92.2068 77.036C92.2716 76.9156 92.3333 76.7985 92.3829 76.6636C92.4862 76.3828 92.5434 76.0053 92.373 75.4048C92.278 75.1198 92.1876 74.8426 92.1 74.5742C91.8461 73.7956 91.6162 73.0908 91.3688 72.4837C91.0343 71.6635 90.6845 71.0674 90.2417 70.7301C88.8372 69.6602 88.7389 69.5959 88.2166 69.2541C88.0775 69.1631 87.9083 69.0524 87.6763 68.8977L73.3209 59.3273C73.2835 59.3023 73.2545 59.2665 73.238 59.2246L67.786 45.4139L58.6807 47.5152Z" fill="#333333"/>
<path fill-rule="evenodd" clip-rule="evenodd" d="M89.7297 80.5075C89.6286 80.518 89.5381 80.4445 89.5276 80.3434L89.0878 76.0948C89.0774 75.9937 89.1509 75.9032 89.252 75.8928C89.3531 75.8823 89.4435 75.9558 89.454 76.0569L89.8938 80.3055C89.9042 80.4066 89.8308 80.497 89.7297 80.5075Z" fill="#333333"/>
<path fill-rule="evenodd" clip-rule="evenodd" d="M88.4279 81.0447C88.3265 81.0528 88.2378 80.9772 88.2298 80.8759L87.8481 76.0909C87.84 75.9896 87.9156 75.9009 88.0169 75.8928C88.1182 75.8847 88.2069 75.9603 88.215 76.0616L88.5967 80.8466C88.6048 80.948 88.5292 81.0367 88.4279 81.0447Z" fill="#333333"/>
<path fill-rule="evenodd" clip-rule="evenodd" d="M87.2328 81.0434C87.1317 81.0544 87.0409 80.9813 87.03 80.8803L86.5109 76.0951C86.5 75.9941 86.573 75.9033 86.674 75.8923C86.7751 75.8814 86.8659 75.9544 86.8769 76.0555L87.3959 80.8406C87.4069 80.9416 87.3338 81.0324 87.2328 81.0434Z" fill="#333333"/>
<path d="M57.2698 48.3114C56.1653 42.0539 55.6744 38.741 56.9013 35.06C58.0055 31.7472 65.153 31.011 66.4721 33.5877C68.485 37.5196 69.0488 42.4219 69.0488 45.7347C69.0488 45.7347 66.4722 46.196 63.5274 46.839C59.6349 47.6889 57.2698 48.3114 57.2698 48.3114Z" fill="#007D8A"/>
<path fill-rule="evenodd" clip-rule="evenodd" d="M58.7867 33.2611C57.9697 33.7387 57.3627 34.3691 57.109 35.1302C55.9179 38.7037 56.3674 41.9233 57.444 48.0381C57.5007 48.0236 57.5674 48.0066 57.6441 47.9871C57.9273 47.9153 58.3453 47.8108 58.885 47.6797C59.9643 47.4175 61.5304 47.049 63.4785 46.6236C64.953 46.3016 66.3352 46.0252 67.3486 45.8293C67.8554 45.7313 68.27 45.6535 68.5581 45.6001C68.6654 45.5802 68.7551 45.5637 68.8255 45.5508C68.8048 42.2596 68.2272 37.5046 66.2737 33.6887C65.9836 33.122 65.3576 32.7114 64.5147 32.4781C63.6761 32.246 62.6552 32.1996 61.6332 32.3346C60.6115 32.4696 59.6026 32.784 58.7867 33.2611ZM69.0859 45.9525L69.2678 45.9199L69.2678 45.7351C69.2678 42.4056 68.7023 37.4635 66.6669 33.4875C66.2974 32.7658 65.5353 32.3022 64.6325 32.0524C63.7254 31.8013 62.6431 31.7557 61.5753 31.8967C60.5072 32.0378 59.4397 32.3676 58.5637 32.8797C57.6888 33.3913 56.9883 34.0953 56.6899 34.9905C55.4424 38.7335 55.9478 42.1031 57.0505 48.3501L57.0922 48.5864L57.3242 48.5253L57.3309 48.5236L57.3512 48.5183L57.4325 48.4972C57.5044 48.4786 57.6117 48.451 57.7526 48.4153C58.0345 48.3438 58.4511 48.2396 58.9892 48.1089C60.0656 47.8474 61.6283 47.4797 63.5727 47.0552C65.0428 46.7341 66.4214 46.4584 67.4325 46.263C67.938 46.1652 68.3515 46.0876 68.6386 46.0344C68.7821 46.0078 68.8941 45.9873 68.97 45.9735L69.0565 45.9578L69.0859 45.9525Z" fill="#01727D"/>
</svg>
