<svg width="134" height="160" viewBox="0 0 134 160" fill="none" xmlns="http://www.w3.org/2000/svg">
<path d="M66.8848 26.8115V91.0125L112.127 45.7703C102.217 34.9982 84.5508 26.8115 66.8848 26.8115Z" fill="#00C246"/>
<path fill-rule="evenodd" clip-rule="evenodd" d="M66.4434 26.3701H66.8843C84.6696 26.3701 102.455 34.6056 112.451 45.4713L112.737 45.7825L66.4434 92.0765V26.3701ZM67.3252 27.2537V89.9475L111.514 45.7585C101.721 35.322 84.5543 27.3872 67.3252 27.2537Z" fill="#00C246"/>
<path d="M66.4531 26.8115V91.0125L21.2109 45.7703C31.1211 34.9982 48.7871 26.8115 66.4531 26.8115Z" fill="#007D8A"/>
<path fill-rule="evenodd" clip-rule="evenodd" d="M66.8945 26.3701H66.4536C48.6682 26.3701 30.8832 34.6056 20.8869 45.4713L20.6005 45.7825L66.8945 92.0765V26.3701ZM66.0127 27.2537V89.9475L21.8237 45.7585C31.6165 35.322 48.7836 27.3872 66.0127 27.2537Z" fill="#007D8A"/>
<path d="M0.529297 90.5811L64.7303 90.5811L19.488 45.3388C8.71599 55.249 0.529299 72.915 0.529297 90.5811Z" fill="#009ED0"/>
<path fill-rule="evenodd" clip-rule="evenodd" d="M0.0878906 91.0215L0.0878907 90.5806C0.0878932 72.7952 8.32334 55.0102 19.189 45.0138L19.5003 44.7275L65.7943 91.0215L0.0878906 91.0215ZM0.971466 90.1396L63.6653 90.1396L19.4763 45.9507C9.03973 55.7435 1.10495 72.9105 0.971466 90.1396Z" fill="#009ED0"/>
<path d="M132.809 90.5811L68.6076 90.5811L113.85 45.3388C124.622 55.249 132.809 72.915 132.809 90.5811Z" fill="#016D33"/>
<path fill-rule="evenodd" clip-rule="evenodd" d="M133.25 91.0215L133.25 90.5806C133.25 72.7952 125.015 55.0102 114.149 45.0138L113.838 44.7275L67.5436 91.0215L133.25 91.0215ZM132.366 90.1396L69.6726 90.1396L113.862 45.9507C124.298 55.7435 132.233 72.9105 132.366 90.1396Z" fill="#016D33"/>
<path d="M66.4531 155.213V91.0119L21.2109 136.254C31.1211 147.026 48.7871 155.213 66.4531 155.213Z" fill="#00C246"/>
<path fill-rule="evenodd" clip-rule="evenodd" d="M66.8945 155.654H66.4536C48.6682 155.654 30.8832 147.419 20.8869 136.553L20.6005 136.242L66.8945 89.9479V155.654ZM66.0127 154.771V92.0769L21.8237 136.266C31.6165 146.702 48.7836 154.637 66.0127 154.771Z" fill="#00C246"/>
<path d="M66.8848 155.213V91.0119L112.127 136.254C102.217 147.026 84.5508 155.213 66.8848 155.213Z" fill="#007D8A"/>
<path fill-rule="evenodd" clip-rule="evenodd" d="M66.4434 155.654H66.8843C84.6696 155.654 102.455 147.419 112.451 136.553L112.737 136.242L66.4434 89.9479V155.654ZM67.3252 154.771V92.0769L111.514 136.266C101.721 146.702 84.5543 154.637 67.3252 154.771Z" fill="#007D8A"/>
<path d="M132.809 91.4434L68.6076 91.4434L113.85 136.686C124.622 126.775 132.809 109.109 132.809 91.4434Z" fill="#009ED0"/>
<path fill-rule="evenodd" clip-rule="evenodd" d="M133.25 91.002L133.25 91.4429C133.25 109.228 125.015 127.013 114.149 137.01L113.838 137.296L67.5436 91.0019L133.25 91.002ZM132.366 91.8838L69.6726 91.8838L113.862 136.073C124.298 126.28 132.233 109.113 132.366 91.8838Z" fill="#009ED0"/>
<path d="M0.529297 91.4434L64.7303 91.4434L19.488 136.686C8.71599 126.775 0.529299 109.109 0.529297 91.4434Z" fill="#016D33"/>
<path fill-rule="evenodd" clip-rule="evenodd" d="M0.0878906 91.002L0.0878907 91.4429C0.0878932 109.228 8.32334 127.013 19.189 137.01L19.5003 137.296L65.7943 91.0019L0.0878906 91.002ZM0.971466 91.8838L63.6653 91.8838L19.4763 136.073C9.03973 126.28 1.10495 109.113 0.971466 91.8838Z" fill="#016D33"/>
<path d="M82.1014 159.738H52.5589V105.944C49.0315 105.503 41.9766 102.681 41.9766 94.9206V78.1651C41.9766 67.2364 44.7946 61.158 46.5583 58.8587L46.5791 58.8271L56.9683 43.0165V18.6392C56.9683 12.1199 67.9916 11.6789 67.9916 18.6392V26.9539L73.7237 18.6392C75.7814 20.256 81.833 24.9069 76.8103 32.7491L67.5507 48.3946V54.3548C68.2856 52.1501 70.0664 49.2364 71.6915 47.8354C73.6277 46.1663 79.4559 46.9535 80.9542 50.481C81.6622 52.1501 81.1322 55.2288 80.7787 56.5594C83.1558 50.9219 88.7155 52.3851 90.4792 55.0307C91.7963 57.0064 91.802 58.1172 90.4792 61.2037L88.7155 65.8335V93.1568C89.0682 100.565 84.747 104.768 82.1014 105.944V159.738Z" fill="#E5B870"/>
<path fill-rule="evenodd" clip-rule="evenodd" d="M58.8576 15.1144C57.8824 15.9159 57.2318 17.0921 57.2318 18.6391V42.1633L67.726 26.8718V18.6391C67.726 16.9766 67.0713 15.7756 66.1018 14.9917C65.1254 14.2022 63.8117 13.8222 62.4842 13.8488C61.1568 13.8753 59.8386 14.3081 58.8576 15.1144ZM68.2084 27.104L57.1868 43.1639L48.3009 56.6869C49.5278 55.796 50.9926 55.1903 52.456 54.7884C54.8238 54.138 57.2318 54.0087 58.7381 54.0901H63.8713L76.5863 32.6062C79.0501 28.7593 78.7833 25.734 77.6832 23.4754C76.646 21.346 74.8549 19.8688 73.7806 19.0212L68.2084 27.104ZM64.4862 54.0901H67.2851V49.3609L64.4862 54.0901ZM67.8142 48.4669V52.9678C68.1607 52.2006 68.5896 51.4057 69.0621 50.653C69.8098 49.4619 70.6776 48.3592 71.5177 47.6349C72.0556 47.1712 72.8399 46.8954 73.7109 46.786C74.5864 46.676 75.5744 46.7307 76.5447 46.9514C78.4752 47.3906 80.4013 48.5051 81.1967 50.3775C81.5768 51.2735 81.6161 52.5146 81.5272 53.6674C81.4949 54.0867 81.4451 54.5003 81.3862 54.8895C82.6077 53.1377 84.249 52.4312 85.8567 52.4242C87.8499 52.4157 89.7653 53.4845 90.6982 54.8838C91.3693 55.8904 91.7319 56.7144 91.7326 57.7004C91.7334 58.6689 91.384 59.7609 90.7234 61.3029L88.9789 65.8821V93.1505C89.3278 100.529 85.1092 104.805 82.3649 106.113V160.002H52.2933V106.175C50.4979 105.91 47.9355 105.077 45.7805 103.385C43.522 101.612 41.7109 98.8938 41.7109 94.9205V78.165C41.7109 67.2073 44.5328 61.0685 46.3414 58.7053L56.7027 42.9372V18.6391C56.7027 16.9265 57.43 15.6028 58.5216 14.7056C59.6075 13.8132 61.0452 13.3483 62.4736 13.3198C63.9019 13.2912 65.344 13.6986 66.4345 14.5802C67.5319 15.4675 68.2551 16.8216 68.2551 18.6391V26.104L73.6647 18.2571L73.8861 18.4311C73.9058 18.4466 73.9259 18.4624 73.9464 18.4784C74.9907 19.2984 77.0092 20.8832 78.1589 23.2437C79.3429 25.6745 79.5907 28.8942 77.0345 32.8877L67.8142 48.4669ZM46.7987 58.9729L46.7731 59.012L46.7672 59.0196C45.0482 61.2607 42.2401 67.2773 42.2401 78.165V94.9205C42.2401 98.7076 43.9565 101.28 46.1073 102.969C48.2671 104.664 50.8648 105.466 52.5907 105.681L52.8224 105.71V159.473H81.8358V105.772L81.9929 105.702C84.5465 104.567 88.7973 100.46 88.4501 93.1693L88.4498 93.163V67.271L83.6669 79.8263C82.3666 82.8897 79.0119 83.4007 76.3497 82.4617C75.0109 81.9894 73.8067 81.1419 73.077 80.0242C72.7059 79.4558 72.4596 78.8199 72.3807 78.1348L71.9362 79.2396C71.9361 79.2397 71.9362 79.2395 71.9362 79.2396C71.4086 80.5608 70.2716 81.24 68.9515 81.4275C67.6389 81.6139 66.1266 81.3209 64.7689 80.6926C63.4108 80.064 62.1795 79.087 61.4461 77.8744C60.708 76.654 60.4783 75.1981 61.1314 73.6562L64.1025 66.0163C63.3206 66.2082 62.494 66.4996 61.4828 66.9431C60.4613 67.3911 59.3371 68.1996 58.3733 69.2273C57.4096 70.2549 56.6198 71.4871 56.2484 72.7742C55.8785 74.0563 55.924 75.3886 56.6204 76.6443C57.3194 77.9046 58.6921 79.1204 61.0398 80.1265C66.0483 82.273 68.5993 85.638 69.7401 88.9817C70.8772 92.3144 70.6092 95.6119 70.0079 97.6412C69.9664 97.7813 69.8192 97.8613 69.6791 97.8197C69.539 97.7782 69.4591 97.631 69.5006 97.4909C70.0752 95.5518 70.3363 92.3677 69.2393 89.1525C68.1461 85.9483 65.6999 82.6994 60.8314 80.6129C58.4151 79.5773 56.9313 78.2959 56.1577 76.9009C55.3814 75.5012 55.3383 74.0198 55.74 72.6275C56.1403 71.2401 56.9825 69.9368 57.9874 68.8653C58.9922 67.7939 60.1734 66.9396 61.2703 66.4585C62.8642 65.7594 64.0343 65.42 65.2909 65.2583C66.4333 65.1112 67.6431 65.1121 69.2914 65.1132C69.442 65.1133 69.5961 65.1134 69.7543 65.1134C73.8964 65.1134 76.3101 63.2896 77.666 61.052C78.9703 58.8996 79.3049 56.3457 79.208 54.6192H58.7237L58.7165 54.6188C57.2587 54.5393 54.9048 54.6645 52.5962 55.2986C50.2825 55.9341 48.058 57.0685 46.7987 58.9729C46.7988 58.9729 46.7987 58.973 46.7987 58.9729ZM64.7198 65.8831C64.7171 65.8938 64.7137 65.9043 64.7097 65.9148L61.6202 73.8591C61.0387 75.2291 61.2381 76.508 61.8988 77.6006C62.5649 78.7019 63.7036 79.6166 64.9911 80.2124C66.279 80.8084 67.6878 81.0725 68.8771 80.9036C70.0586 80.7358 71.0041 80.1472 71.4447 79.0434L72.6722 75.9932C72.6725 75.9924 72.6728 75.9916 72.6731 75.9909C72.6973 75.9274 72.7229 75.8638 72.7499 75.8C72.7502 75.7993 72.7506 75.7985 72.7509 75.7977L80.526 56.4758C80.6985 55.8223 80.9136 54.7443 80.9997 53.6267C81.0872 52.4903 81.0375 51.3574 80.7097 50.5843C80.0066 48.9293 78.2695 47.8864 76.4273 47.4674C75.5112 47.259 74.5855 47.2094 73.7768 47.311C72.9637 47.4131 72.2934 47.6648 71.8632 48.0357C71.0782 48.7124 70.243 49.7671 69.5103 50.9343C68.8561 51.9764 68.2922 53.0944 67.9233 54.0901H79.6982L79.7184 54.3327C79.8688 56.1371 79.5571 58.9522 78.1185 61.3262C76.6689 63.7185 74.0855 65.6426 69.7543 65.6426C69.5995 65.6426 69.4489 65.6425 69.302 65.6424C67.6399 65.6413 66.4652 65.6406 65.3584 65.783C65.1441 65.8106 64.9322 65.8436 64.7198 65.8831ZM81.0214 56.6621L73.2398 75.9999L73.2379 76.0045L73.1668 76.1813C73.1665 76.1821 73.1662 76.1829 73.1659 76.1837C72.6547 77.5296 72.8726 78.7431 73.5201 79.735C74.1735 80.7359 75.2725 81.5206 76.5257 81.9627C79.0464 82.8518 82.0299 82.3211 83.1777 79.624L90.2347 61.0994C90.8955 59.5575 91.2042 58.5522 91.2035 57.7008C91.2029 56.8658 90.9041 56.1465 90.258 55.1773C89.4272 53.9311 87.6809 52.9455 85.859 52.9534C84.0661 52.9611 82.1729 53.9328 81.0222 56.6602C81.0219 56.6608 81.0217 56.6615 81.0214 56.6621Z" fill="#333333"/>
<path fill-rule="evenodd" clip-rule="evenodd" d="M49.4727 159.09C49.4727 158.847 49.6701 158.649 49.9136 158.649H83.4245C83.668 158.649 83.8654 158.847 83.8654 159.09C83.8654 159.334 83.668 159.531 83.4245 159.531H49.9136C49.6701 159.531 49.4727 159.334 49.4727 159.09Z" fill="#E1E5E7"/>
<path fill-rule="evenodd" clip-rule="evenodd" d="M85.1875 159.09C85.1875 158.847 85.3849 158.649 85.6284 158.649H87.8331C88.0766 158.649 88.274 158.847 88.274 159.09C88.274 159.334 88.0766 159.531 87.8331 159.531H85.6284C85.3849 159.531 85.1875 159.334 85.1875 159.09Z" fill="#E1E5E7"/>
<path fill-rule="evenodd" clip-rule="evenodd" d="M45.0625 159.09C45.0625 158.847 45.2599 158.649 45.5034 158.649H47.7081C47.9516 158.649 48.149 158.847 48.149 159.09C48.149 159.334 47.9516 159.531 47.7081 159.531H45.5034C45.2599 159.531 45.0625 159.334 45.0625 159.09Z" fill="#E1E5E7"/>
<path fill-rule="evenodd" clip-rule="evenodd" d="M62.259 0.00195312C62.4538 0.00195312 62.6117 0.159883 62.6117 0.354699V9.17335C62.6117 9.36817 62.4538 9.5261 62.259 9.5261C62.0642 9.5261 61.9062 9.36817 61.9062 9.17335V0.354699C61.9062 0.159883 62.0642 0.00195312 62.259 0.00195312Z" fill="#165C7D"/>
<path fill-rule="evenodd" clip-rule="evenodd" d="M53.1908 4.51522C53.3286 4.37746 53.5519 4.37746 53.6897 4.51522L58.6783 9.5038C58.816 9.64156 58.816 9.86491 58.6783 10.0027C58.5405 10.1404 58.3172 10.1404 58.1794 10.0027L53.1908 5.01408C53.0531 4.87632 53.0531 4.65298 53.1908 4.51522Z" fill="#165C7D"/>
<path fill-rule="evenodd" clip-rule="evenodd" d="M71.026 4.51522C70.8882 4.37746 70.6649 4.37746 70.5271 4.51522L65.5385 9.5038C65.4008 9.64156 65.4008 9.86491 65.5385 10.0027C65.6763 10.1404 65.8996 10.1404 66.0374 10.0027L71.026 5.01408C71.1637 4.87632 71.1637 4.65298 71.026 4.51522Z" fill="#165C7D"/>
<path d="M83.4238 7.60107C84.7432 7.13497 87.2142 5.53568 87.2217 2.72169C87.198 2.50854 87.1865 2.30582 87.1865 2.11816C87.2109 2.32521 87.2222 2.52637 87.2217 2.72169C87.4284 4.58441 88.5563 7.24325 90.9197 7.60107C89.9118 8.36404 87.2889 10.7527 87.1591 12.9908C87.1771 13.1837 87.1865 13.3809 87.1865 13.5824C87.1558 13.3872 87.1476 13.1896 87.1591 12.9908C86.8932 10.1296 84.7457 8.22369 83.4238 7.60107Z" fill="#FFA300"/>
<path fill-rule="evenodd" clip-rule="evenodd" d="M87.1718 1.85398C87.3117 1.84576 87.4337 1.94797 87.4501 2.08709C87.4751 2.29909 87.4871 2.50572 87.4872 2.70694C87.5887 3.60229 87.911 4.68541 88.4856 5.583C89.0622 6.48355 89.8767 7.17537 90.9602 7.33941C91.0654 7.35533 91.1508 7.43272 91.177 7.53583C91.2032 7.63894 91.1651 7.74771 91.0803 7.81192C90.5895 8.18341 89.6978 8.95727 88.9155 9.91051C88.1316 10.8658 87.492 11.9599 87.4253 12.9868C87.4428 13.1812 87.4519 13.3798 87.4519 13.5823C87.4519 13.7205 87.3457 13.8353 87.208 13.8461C87.0703 13.8569 86.9475 13.7599 86.926 13.6234C86.8932 13.415 86.884 13.2053 86.8948 12.996C86.632 10.2641 84.5722 8.43391 83.312 7.84032C83.2149 7.79461 83.1551 7.69482 83.1605 7.58768C83.1659 7.48054 83.2354 7.38727 83.3366 7.35153C83.9628 7.13032 84.8739 6.63454 85.6255 5.85779C86.371 5.08736 86.9502 4.05141 86.958 2.73552C86.9345 2.5192 86.9228 2.31189 86.9228 2.11808C86.9228 1.978 87.032 1.8622 87.1718 1.85398ZM87.2623 4.17301C87.001 4.99282 86.5371 5.67653 86.0057 6.22572C85.3789 6.87351 84.6527 7.34056 84.0353 7.63324C85.1732 8.33384 86.6019 9.7405 87.1854 11.724C87.4855 10.9539 87.9804 10.2159 88.5065 9.57484C89.1268 8.81896 89.8112 8.17319 90.3305 7.73553C89.3295 7.42107 88.5758 6.70526 88.04 5.86828C87.7002 5.33752 87.4434 4.75165 87.2623 4.17301Z" fill="#FFA300"/>
<path d="M89.5977 22.6689C90.529 22.3462 92.2732 21.239 92.2785 19.2909C92.2618 19.1433 92.2536 19.003 92.2536 18.873C92.2709 19.0164 92.2789 19.1557 92.2785 19.2909C92.4244 20.5804 93.2206 22.4212 94.8888 22.6689C94.1774 23.1971 92.3259 24.8508 92.2344 26.4003C92.247 26.5338 92.2536 26.6704 92.2536 26.8098C92.232 26.6747 92.2262 26.5379 92.2344 26.4003C92.0466 24.4194 90.5307 23.0999 89.5977 22.6689Z" fill="#FFA300"/>
<path fill-rule="evenodd" clip-rule="evenodd" d="M92.2367 18.6099C92.3765 18.6015 92.4985 18.7034 92.5152 18.8424C92.5331 18.9907 92.5418 19.1355 92.542 19.2767C92.613 19.8847 92.8368 20.6194 93.2333 21.2269C93.6315 21.8369 94.1891 22.2986 94.9266 22.4081C95.0325 22.4238 95.1184 22.5017 95.1444 22.6055C95.1704 22.7092 95.1314 22.8184 95.0455 22.8822C94.703 23.1365 94.0784 23.6681 93.531 24.3223C92.9818 24.9786 92.5462 25.7162 92.4986 26.3975C92.5108 26.5325 92.5171 26.6703 92.5171 26.8107C92.5171 26.9487 92.4111 27.0635 92.2736 27.0745C92.136 27.0854 92.0132 26.9888 91.9913 26.8526C91.9675 26.7041 91.9606 26.5551 91.968 26.4068C91.7837 24.5576 90.3584 23.3131 89.4856 22.91C89.3877 22.8647 89.327 22.7645 89.3324 22.6567C89.3377 22.5489 89.408 22.4551 89.51 22.4198C89.9427 22.2699 90.5751 21.9325 91.0959 21.4045C91.6106 20.8828 92.0061 20.1869 92.0128 19.3058C91.9963 19.155 91.988 19.01 91.988 18.8739C91.988 18.734 92.097 18.6182 92.2367 18.6099ZM92.3033 20.532C92.1072 21.0217 91.8079 21.4363 91.4726 21.7761C91.0676 22.1867 90.6052 22.4939 90.1935 22.7014C90.9459 23.1911 91.8334 24.0791 92.2612 25.302C92.4801 24.8262 92.7961 24.376 93.1252 23.9827C93.523 23.5073 93.9575 23.0946 94.3101 22.7939C93.6517 22.5505 93.1509 22.0688 92.7902 21.5161C92.5878 21.2061 92.4266 20.8698 92.3033 20.532Z" fill="#FFA300"/>
<path d="M80.7793 17.3779C81.7106 17.0552 83.4548 15.948 83.4601 13.9999C83.4434 13.8523 83.4353 13.7119 83.4353 13.582C83.4525 13.7254 83.4605 13.8646 83.4601 13.9999C83.6061 15.2894 84.4022 17.1302 86.0705 17.3779C85.359 17.9061 83.5076 19.5598 83.416 21.1093C83.4286 21.2428 83.4353 21.3793 83.4353 21.5188C83.4136 21.3837 83.4079 21.2469 83.416 21.1093C83.2282 19.1284 81.7124 17.8089 80.7793 17.3779Z" fill="#FFA300"/>
<path fill-rule="evenodd" clip-rule="evenodd" d="M83.4184 13.3179C83.5581 13.3095 83.6802 13.4114 83.6969 13.5504C83.7147 13.6987 83.7234 13.8435 83.7236 13.9847C83.7947 14.5927 84.0184 15.3274 84.4149 15.9349C84.8131 16.5449 85.3707 17.0066 86.1083 17.1161C86.2141 17.1318 86.3 17.2097 86.326 17.3135C86.3521 17.4172 86.313 17.5265 86.2271 17.5902C85.8846 17.8445 85.26 18.3761 84.7126 19.0303C84.1635 19.6866 83.7278 20.4242 83.6803 21.1055C83.6924 21.2405 83.6988 21.3783 83.6988 21.5187C83.6988 21.6567 83.5927 21.7715 83.4552 21.7825C83.3177 21.7934 83.1948 21.6969 83.173 21.5606C83.1492 21.4121 83.1423 21.2631 83.1497 21.1148C82.9653 19.2656 81.54 18.0211 80.6673 17.618C80.5693 17.5727 80.5086 17.4725 80.514 17.3647C80.5194 17.2569 80.5896 17.1632 80.6916 17.1278C81.1243 16.9779 81.7567 16.6405 82.2776 16.1125C82.7923 15.5908 83.1877 14.8949 83.1944 14.0138C83.1779 13.863 83.1696 13.718 83.1696 13.5819C83.1696 13.442 83.2787 13.3262 83.4184 13.3179ZM83.485 15.24C83.2889 15.7298 82.9895 16.1443 82.6543 16.4841C82.2492 16.8947 81.7868 17.2019 81.3752 17.4094C82.1276 17.8991 83.0151 18.7871 83.4429 20.01C83.6618 19.5342 83.9778 19.084 84.3068 18.6907C84.7046 18.2153 85.1391 17.8026 85.4917 17.5019C84.8334 17.2585 84.3326 16.7768 83.9718 16.2241C83.7695 15.9141 83.6082 15.5778 83.485 15.24Z" fill="#FFA300"/>
</svg>
