<svg width="138" height="160" viewBox="0 0 138 160" fill="none" xmlns="http://www.w3.org/2000/svg">
<path d="M137.976 155.003C137.976 157.763 107.211 160.001 69.2603 160.001C31.3099 160.001 0.544922 157.763 0.544922 155.003C0.544922 152.243 31.3099 150.006 69.2603 150.006C107.211 150.006 137.976 152.243 137.976 155.003Z" fill="#C8CCD0"/>
<path d="M64.638 29.9292L37.0435 26.4062L38.7626 19.4553L43.5763 21.4181L48.1895 19.7231L53.264 23.2149L57.2776 21.1986L58.4076 24.2741L60.2753 22.8055L62.0394 24.9859L64.8367 22.935L66.8703 26.3405L64.638 29.9292Z" fill="#FFA300"/>
<path fill-rule="evenodd" clip-rule="evenodd" d="M48.1252 19.5475C48.1823 19.5265 48.246 19.5345 48.2961 19.569L53.2793 22.998L57.1939 21.0314C57.2416 21.0075 57.2972 21.005 57.3469 21.0246C57.3966 21.0443 57.4355 21.0841 57.4539 21.1343L58.4949 23.9676L60.1598 22.6584C60.2404 22.5951 60.3569 22.6082 60.4214 22.6879L62.0731 24.7294L64.7262 22.7842C64.7688 22.753 64.8225 22.7411 64.8742 22.7516C64.926 22.7621 64.9709 22.7939 64.9979 22.8392L67.0315 26.2447C67.0675 26.3049 67.0668 26.3802 67.0298 26.4397L64.7975 30.0284C64.7588 30.0906 64.6873 30.1246 64.6146 30.1153L37.0201 26.5924C36.9671 26.5856 36.9195 26.5565 36.8893 26.5124C36.859 26.4683 36.8491 26.4134 36.8619 26.3615L38.5811 19.4106C38.5941 19.3578 38.6295 19.3132 38.678 19.2885C38.7265 19.2639 38.7834 19.2615 38.8338 19.282L43.5802 21.2174L48.1252 19.5475ZM38.8929 19.7109L37.2763 26.2472L64.5427 29.7283L66.6512 26.3388L64.7817 23.2082L62.1506 25.1373C62.0699 25.1965 61.957 25.1818 61.8941 25.1041L60.2462 23.0673L58.5238 24.4217C58.4766 24.4587 58.4146 24.471 58.3568 24.4546C58.2991 24.4383 58.2527 24.3953 58.232 24.339L57.1745 21.4606L53.3485 23.3827C53.2874 23.4134 53.2144 23.4084 53.1581 23.3696L48.1635 19.9327L43.6413 21.5942C43.5975 21.6103 43.5492 21.6095 43.5059 21.5919L38.8929 19.7109Z" fill="#FFA300"/>
<path fill-rule="evenodd" clip-rule="evenodd" d="M29.0159 30.4393C34.3901 30.592 38.8705 26.3591 39.0232 20.9849C39.1759 15.6107 34.943 11.1303 29.5688 10.9776C24.1945 10.8249 19.7141 15.0578 19.5615 20.432C19.4088 25.8062 23.6417 30.2867 29.0159 30.4393ZM24.6792 22.4035C25.8548 22.4369 26.8349 21.5109 26.8683 20.3353C26.9017 19.1597 25.9758 18.1796 24.8002 18.1462C23.6246 18.1128 22.6445 19.0388 22.6111 20.2144C22.5777 21.39 23.5036 22.3701 24.6792 22.4035Z" fill="#FFA300"/>
<path fill-rule="evenodd" clip-rule="evenodd" d="M19.3831 3.79126C19.4987 3.71589 19.6536 3.7485 19.7289 3.8641L23.1408 9.09691C23.2162 9.21251 23.1836 9.36732 23.068 9.44269C22.9524 9.51807 22.7975 9.48546 22.7222 9.36986L19.3103 4.13705C19.2349 4.02145 19.2675 3.86663 19.3831 3.79126Z" fill="#165C7D"/>
<path fill-rule="evenodd" clip-rule="evenodd" d="M15.7468 9.97717C15.7753 9.84213 15.9078 9.75572 16.0428 9.78417L20.933 10.8142C21.068 10.8427 21.1544 10.9752 21.126 11.1103C21.0976 11.2453 20.965 11.3317 20.83 11.3033L15.9398 10.2732C15.8048 10.2447 15.7184 10.1122 15.7468 9.97717Z" fill="#165C7D"/>
<path fill-rule="evenodd" clip-rule="evenodd" d="M26.3297 3.0774C26.1947 3.04896 26.0621 3.13537 26.0337 3.27041L25.0036 8.16058C24.9752 8.29562 25.0616 8.42815 25.1966 8.45659C25.3317 8.48504 25.4642 8.39862 25.4926 8.26359L26.5227 3.37341C26.5512 3.23838 26.4647 3.10585 26.3297 3.0774Z" fill="#165C7D"/>
<path d="M45.4294 55.9949C43.8676 57.869 39.495 56.6125 38.558 55.8837L37.6208 52.4513C37.2043 50.6814 36.4964 46.2669 36.9961 42.7687C37.6208 38.3959 44.6415 40.7314 46.3665 42.4564C47.9282 44.0181 49.3857 46.9333 50.7392 48.3909H49.4898C49.7397 48.8906 49.5939 50.2649 49.4898 50.8896C49.3857 51.7225 50.0522 53.1385 48.5529 53.3883C47.4594 53.5706 45.967 53.0439 45.1182 52.4627L45.4294 55.9949Z" fill="#D8BA8B"/>
<path fill-rule="evenodd" clip-rule="evenodd" d="M44.3367 40.9904C45.2572 41.3879 46.0438 41.8687 46.4989 42.3238C47.2957 43.1205 48.0606 44.2564 48.7873 45.3595C48.8416 45.4418 48.8956 45.524 48.9494 45.6058C49.6229 46.6298 50.2621 47.6017 50.8764 48.2632C50.9271 48.3179 50.9406 48.3974 50.9109 48.4657C50.8811 48.534 50.8136 48.5782 50.7391 48.5782H49.7493C49.7712 48.6755 49.7862 48.7799 49.7963 48.8865C49.8172 49.1064 49.819 49.3535 49.8097 49.6003C49.7912 50.092 49.7282 50.5977 49.6752 50.9163C49.6529 51.0994 49.672 51.3212 49.6968 51.5782C49.6977 51.5883 49.6987 51.5984 49.6997 51.6086C49.723 51.8502 49.7488 52.1178 49.7314 52.3704C49.7131 52.6359 49.646 52.9064 49.4613 53.1291C49.2749 53.354 48.9893 53.5055 48.5836 53.5731C47.9985 53.6706 47.3214 53.5774 46.6907 53.3915C46.2021 53.2475 45.7308 53.0447 45.3377 52.8203L45.6227 56.0554L45.5732 56.1148C45.1474 56.6258 44.5375 56.9141 43.8668 57.054C43.1963 57.1939 42.4522 57.1884 41.7367 57.1013C41.0202 57.0142 40.3245 56.8443 39.7473 56.6496C39.1754 56.4566 38.7023 56.2334 38.4428 56.0316L38.3935 55.9932L37.4381 52.4942C37.0196 50.7154 36.3059 46.2743 36.8105 42.7421C36.9753 41.5884 37.5694 40.86 38.4003 40.4633C39.2188 40.0726 40.2498 40.0112 41.2915 40.1398C42.3366 40.2688 43.4127 40.5914 44.3367 40.9904ZM45.1727 52.2722C44.8942 52.0742 44.7234 51.8903 44.6645 51.7527C44.6237 51.6576 44.5135 51.6135 44.4184 51.6543C44.3233 51.6951 44.2792 51.8052 44.32 51.9004C44.4183 52.1299 44.6514 52.3591 44.939 52.5659L45.2356 55.9322C44.8823 56.3241 44.3797 56.5641 43.7902 56.6871C43.1724 56.816 42.4719 56.8132 41.7819 56.7293C41.0929 56.6455 40.4222 56.4817 39.8671 56.2944C39.3472 56.119 38.9439 55.9281 38.7215 55.7716L37.8023 52.4051C37.3879 50.6419 36.6869 46.2573 37.1815 42.7951C37.329 41.7624 37.8468 41.1429 38.5618 40.8016C39.2893 40.4543 40.2385 40.3875 41.2456 40.5118C42.2494 40.6357 43.291 40.9471 44.1881 41.3345C45.0886 41.7234 45.8265 42.1815 46.2339 42.5888C46.9989 43.3538 47.7435 44.4563 48.4743 45.5657C48.5302 45.6505 48.586 45.7354 48.6418 45.8201C49.2125 46.6881 49.7756 47.5445 50.3254 48.2034H49.1865L49.3221 48.4746C49.3689 48.5681 49.404 48.72 49.4232 48.9219C49.442 49.1197 49.4441 49.3489 49.4352 49.5862C49.4173 50.0608 49.3559 50.5524 49.3048 50.8587L49.3037 50.8663C49.2747 51.099 49.2997 51.3654 49.3237 51.6141L49.3254 51.6317C49.3496 51.8835 49.3727 52.1237 49.3575 52.3446C49.342 52.5685 49.2881 52.7509 49.1728 52.8899C49.0593 53.0268 48.866 53.1461 48.522 53.2034C48.0136 53.2881 47.3978 53.2091 46.7967 53.032C46.2169 52.8611 45.6673 52.6037 45.2642 52.3351C45.2409 52.3057 45.209 52.2835 45.1727 52.2722Z" fill="#333333"/>
<path fill-rule="evenodd" clip-rule="evenodd" d="M46.4223 45.4379C46.584 45.4143 46.78 45.4901 46.9167 45.5833C47.0022 45.6416 47.1188 45.6196 47.1772 45.5341C47.2355 45.4486 47.2134 45.332 47.1279 45.2737C46.9545 45.1554 46.6625 45.0241 46.3682 45.067C46.2146 45.0894 46.0641 45.1593 45.9399 45.2953C45.818 45.4289 45.7307 45.6159 45.6805 45.8589C45.6596 45.9602 45.7248 46.0594 45.8261 46.0803C45.9275 46.1013 46.0266 46.0361 46.0476 45.9347C46.0885 45.7366 46.1529 45.618 46.2168 45.548C46.2784 45.4805 46.3479 45.4488 46.4223 45.4379Z" fill="#333333"/>
<path d="M49.2806 40.0011C48.2811 42.0001 45.9489 43.5409 44.5954 43.1245C42.0971 49.3713 41.7244 47.3039 40.5792 48.7615C40.1627 48.1368 39.0175 47.1998 38.0808 48.1368C37.4439 48.774 38.3932 49.8027 39.0178 50.3232C39.0178 50.3232 39.5155 54.9069 38.3489 56.2429C36.7512 58.0725 34.0653 63.6826 32.3097 65.3613C30.7759 66.828 28.102 67.6265 26.7653 68.1724C24.6079 69.0535 23.9976 66.9372 23.0172 65.9892C20.9834 64.0225 24.5788 63.1749 24.2665 60.9885C22.0802 58.1775 31.3489 55.6263 30.4356 53.4955C29.4986 51.3091 31.0161 47.8731 31.0602 45.3746C31.081 44.1989 30.7479 42.2512 32.3097 40.6895C34.8085 38.7517 34.8083 36.629 38.2441 36.9414C40.6736 37.1622 43.4499 35.6919 45.1157 36.629C46.9895 37.5661 50.2801 38.0021 49.2806 40.0011Z" fill="#333333"/>
<path fill-rule="evenodd" clip-rule="evenodd" d="M45.1889 36.4909C45.6403 36.7163 46.1775 36.9132 46.7262 37.1143L46.7512 37.1234C47.3056 37.3266 47.8707 37.5346 48.3466 37.7777C48.8195 38.0192 49.2292 38.3072 49.4497 38.6836C49.6785 39.0742 49.689 39.5333 49.4202 40.0708C48.907 41.0972 48.0546 42.002 47.1572 42.5986C46.3227 43.1532 45.414 43.4635 44.6893 43.3098C43.4725 46.3321 42.7545 47.3915 42.1784 47.8601C41.9422 48.0521 41.7279 48.1447 41.5388 48.2264C41.4924 48.2465 41.4475 48.2659 41.4041 48.2859C41.188 48.3859 40.9708 48.5157 40.702 48.8579C40.671 48.8973 40.6231 48.9195 40.5731 48.9175C40.523 48.9156 40.477 48.8897 40.4492 48.8481C40.2534 48.5544 39.8847 48.1875 39.4635 48.007C39.2551 47.9177 39.0401 47.8766 38.8293 47.9059C38.6204 47.9349 38.4037 48.0347 38.1912 48.2472C38.0647 48.3737 38.0194 48.514 38.0266 48.6666C38.0342 48.8258 38.0997 49.0052 38.2109 49.1946C38.4333 49.5738 38.811 49.9475 39.1178 50.2032C39.1489 50.2291 39.1687 50.2661 39.1731 50.3063L39.0178 50.3232C39.1731 50.3063 39.1731 50.3062 39.1731 50.3063L39.1735 50.31L39.1745 50.3202L39.1785 50.3596C39.1819 50.394 39.1868 50.4444 39.1925 50.5089C39.2039 50.638 39.2189 50.8236 39.2332 51.0504C39.2618 51.5037 39.2878 52.1228 39.277 52.7845C39.2662 53.4455 39.2187 54.1536 39.099 54.7834C38.9803 55.4079 38.7864 55.9792 38.4665 56.3455C37.7557 57.1595 36.8208 58.7418 35.8386 60.4043C35.7338 60.5817 35.6285 60.7599 35.5229 60.9382C34.9775 61.8587 34.4255 62.7776 33.8995 63.5718C33.3749 64.3638 32.8699 65.0417 32.4176 65.4741C31.6308 66.2265 30.5588 66.8016 29.5264 67.2551C28.8767 67.5404 28.2258 67.7841 27.6707 67.992C27.3505 68.1118 27.0621 68.2198 26.8243 68.3169C26.2615 68.5468 25.7853 68.5865 25.3712 68.4882C24.9585 68.3901 24.6251 68.1589 24.3402 67.8778C24.0568 67.5983 23.8137 67.2614 23.5863 66.9453L23.5814 66.9386C23.3521 66.62 23.14 66.3252 22.9086 66.1014C22.3796 65.5899 22.1893 65.1228 22.2432 64.6672C22.2953 64.2269 22.5734 63.8369 22.876 63.4716C22.96 63.3701 23.0461 63.2703 23.1321 63.1707C23.3661 62.8995 23.5988 62.6297 23.7846 62.3328C24.0272 61.9453 24.1751 61.5316 24.1171 61.0501C23.8415 60.6815 23.7396 60.3052 23.7863 59.9276C23.8337 59.5443 24.032 59.1786 24.3157 58.8324C24.8805 58.1431 25.8262 57.482 26.7885 56.856C27.0023 56.7168 27.2171 56.5794 27.4294 56.4435C28.183 55.9611 28.9061 55.4982 29.4501 55.0494C29.7985 54.762 30.0601 54.4907 30.2079 54.2356C30.3531 53.9851 30.3812 53.765 30.292 53.557C29.8028 52.4154 29.9591 50.9656 30.2264 49.5236C30.2985 49.1341 30.3788 48.7452 30.4581 48.3608C30.6766 47.3009 30.888 46.2759 30.904 45.3718C30.907 45.2031 30.902 45.0146 30.8966 44.8107C30.8655 43.639 30.8208 41.9573 32.1993 40.579C32.2039 40.5743 32.2088 40.57 32.214 40.566C32.8274 40.0903 33.2884 39.6026 33.69 39.14C33.8094 39.0024 33.9247 38.8656 34.0377 38.7315C34.3011 38.4191 34.5523 38.1211 34.8157 37.8605C35.1973 37.483 35.6163 37.1708 36.1665 36.9755C36.7155 36.7806 37.3835 36.7062 38.2582 36.7858C39.2679 36.8775 40.3392 36.6704 41.3875 36.4678C41.5718 36.4321 41.7555 36.3967 41.9379 36.3629C42.542 36.2513 43.1328 36.16 43.6801 36.1573C44.2268 36.1546 44.7413 36.2402 45.1889 36.4909ZM38.8688 50.4018C38.5589 50.1375 38.178 49.7558 37.9415 49.3527C37.8168 49.1403 37.7255 48.9105 37.7146 48.6814C37.7035 48.4456 37.7784 48.2184 37.9703 48.0263C38.2262 47.7703 38.5039 47.6358 38.7862 47.5965C39.0666 47.5575 39.3396 47.6141 39.5866 47.7199C39.9971 47.8959 40.353 48.2152 40.5874 48.5088C40.836 48.2328 41.0563 48.1027 41.2729 48.0025C41.3266 47.9776 41.3782 47.9552 41.4286 47.9333C41.613 47.8534 41.7815 47.7802 41.9813 47.6177C42.4944 47.2004 43.1998 46.1932 44.4504 43.0664C44.4806 42.9909 44.5636 42.9512 44.6413 42.9751C45.2494 43.1623 46.119 42.9136 46.9843 42.3384C47.8411 41.7689 48.6545 40.9038 49.1408 39.9311C49.3718 39.4692 49.3458 39.1241 49.1802 38.8415C49.0063 38.5446 48.6636 38.2903 48.2046 38.0558C47.7486 37.8229 47.2022 37.6213 46.6438 37.4167L46.6095 37.4041C46.0665 37.2052 45.5139 37.0027 45.0459 36.7686L45.0391 36.7652C44.6545 36.5489 44.1985 36.4671 43.6817 36.4696C43.164 36.4722 42.5965 36.5589 41.9946 36.6701C41.8178 36.7028 41.638 36.7376 41.4558 36.7729C40.4099 36.9756 39.2879 37.193 38.2299 37.0968C37.3867 37.0202 36.7663 37.094 36.271 37.2698C35.7768 37.4453 35.3955 37.7263 35.0353 38.0826C34.7824 38.3328 34.5457 38.6136 34.2871 38.9204C34.1721 39.0569 34.0528 39.1984 33.9259 39.3447C33.5191 39.8133 33.0453 40.3155 32.4133 40.8067C31.1453 42.0801 31.1817 43.6053 31.2097 44.7782C31.2148 44.9907 31.2196 45.1916 31.2163 45.3773C31.1998 46.3129 30.9793 47.3818 30.7586 48.4513C30.6806 48.8296 30.6025 49.2079 30.5335 49.5805C30.2652 51.0277 30.1313 52.3892 30.5791 53.4339C30.7183 53.7586 30.6565 54.0843 30.4782 54.3922C30.3024 54.6954 30.0069 54.995 29.6489 55.2903C29.0888 55.7524 28.3434 56.2295 27.5869 56.7136C27.3772 56.8478 27.1665 56.9826 26.9588 57.1178C25.9913 57.7472 25.0868 58.3842 24.5573 59.0304C24.2937 59.352 24.1337 59.6634 24.0963 59.966C24.0596 60.2626 24.1384 60.5694 24.3898 60.8926C24.4064 60.914 24.4172 60.9395 24.4211 60.9664C24.506 61.5611 24.323 62.0613 24.0494 62.4985C23.8498 62.8174 23.5935 63.1144 23.3549 63.3909C23.2723 63.4867 23.1918 63.5799 23.1165 63.6708C22.8135 64.0366 22.5936 64.3638 22.5534 64.7039C22.5149 65.0287 22.6378 65.4051 23.1257 65.8769C23.3774 66.1203 23.6035 66.4345 23.8253 66.7427L23.8398 66.7629C24.0699 67.0827 24.2981 67.3976 24.5595 67.6555C24.8193 67.9118 25.1043 68.1037 25.4434 68.1843C25.7812 68.2646 26.1903 68.2385 26.7062 68.0278C26.9618 67.9234 27.2577 67.8127 27.5817 67.6916C28.1281 67.4872 28.7541 67.2531 29.4008 66.9691C30.423 66.5201 31.4548 65.9626 32.2017 65.2484C32.6273 64.8415 33.1163 64.1885 33.6391 63.3993C34.1603 62.6123 34.7088 61.6996 35.2541 60.779C35.3608 60.599 35.4674 60.4184 35.5738 60.2384C36.5493 58.587 37.4999 56.9776 38.2313 56.1401C38.4947 55.8384 38.6761 55.3358 38.7922 54.7251C38.9072 54.1197 38.954 53.4314 38.9647 52.7795C38.9753 52.1283 38.9497 51.5179 38.9215 51.0701C38.9074 50.8462 38.8926 50.6633 38.8813 50.5365C38.8763 50.48 38.872 50.4347 38.8688 50.4018Z" fill="#333333"/>
<path d="M50.8169 133.138L48.0059 115.96L55.1897 115.335C55.1897 115.335 56.769 130.19 57.0638 133.138C57.322 135.721 56.7282 143.758 57.0638 146.569C57.213 147.819 58.3132 148.443 58.3132 148.443C59.8749 149.068 62.686 149.068 65.1847 149.693C67.6209 150.302 67.8917 151.879 67.6834 152.816H53.2114C53.2114 152.816 52.4828 152.816 52.0663 152.191C51.4416 151.254 52.0663 148.443 52.0663 148.443L50.8169 133.138Z" fill="#D8BA8B"/>
<path fill-rule="evenodd" clip-rule="evenodd" d="M55.3769 115.316L55.1905 115.335C55.3769 115.316 55.3769 115.316 55.3769 115.316L55.6282 117.683C55.7809 119.122 55.9875 121.071 56.2034 123.112C56.635 127.194 57.1036 131.645 57.2511 133.12C57.3741 134.351 57.306 136.794 57.2358 139.309C57.2315 139.464 57.2272 139.619 57.2229 139.774C57.1485 142.465 57.0849 145.159 57.2507 146.547C57.319 147.12 57.6057 147.553 57.8817 147.847C58.0194 147.993 58.1528 148.103 58.2512 148.176C58.3003 148.212 58.3405 148.239 58.3677 148.257C58.3803 148.265 58.3902 148.271 58.3968 148.275C59.1505 148.573 60.2126 148.726 61.4223 148.883C61.5228 148.896 61.6242 148.909 61.7263 148.922C62.8512 149.066 64.0737 149.222 65.2309 149.511C66.4856 149.825 67.2106 150.396 67.588 151.037C67.9634 151.674 67.9792 152.353 67.8672 152.857L67.8346 153.004H53.2122V152.817C53.2122 153.004 53.2123 153.004 53.2122 153.004H53.2114L53.2104 153.004L53.2075 153.004L53.1987 153.004C53.1914 153.004 53.1815 153.003 53.1691 153.002C53.1444 153.001 53.1098 152.998 53.0676 152.993C52.9834 152.982 52.8672 152.96 52.7366 152.916C52.4753 152.829 52.1489 152.652 51.9112 152.296C51.7274 152.02 51.6466 151.629 51.6167 151.225C51.5863 150.815 51.6067 150.364 51.6463 149.949C51.6859 149.532 51.7453 149.147 51.7947 148.865C51.8194 148.724 51.8416 148.609 51.8578 148.529C51.8658 148.489 51.8724 148.458 51.8769 148.437L51.8781 148.431L50.6316 133.162L47.7891 115.791L55.3574 115.133L55.3769 115.316ZM52.25 148.484L52.2497 148.486L52.2485 148.492L52.2436 148.515C52.2393 148.535 52.233 148.565 52.2252 148.603C52.2096 148.681 52.1879 148.793 52.1638 148.93C52.1156 149.205 52.0578 149.581 52.0194 149.984C51.9809 150.389 51.9623 150.816 51.9905 151.197C52.0191 151.584 52.0945 151.895 52.223 152.088C52.4018 152.356 52.6479 152.492 52.8551 152.561C52.9586 152.595 53.0507 152.612 53.1161 152.621C53.1487 152.625 53.1743 152.627 53.1911 152.628C53.1995 152.629 53.2056 152.629 53.2092 152.629L53.2122 152.629L53.213 152.629L67.5286 152.629C67.5905 152.217 67.5475 151.706 67.2651 151.227C66.9501 150.692 66.3217 150.17 65.14 149.875C64.0054 149.591 62.8045 149.438 61.6759 149.293C61.5748 149.28 61.4742 149.267 61.3744 149.254C60.1705 149.099 59.0517 148.941 58.2444 148.618L58.2325 148.613L58.2214 148.607L58.314 148.444C58.2214 148.607 58.2215 148.607 58.2214 148.607L58.2196 148.606L58.2162 148.604L58.2048 148.597C58.1998 148.594 58.1937 148.59 58.1867 148.586C58.1803 148.582 58.173 148.577 58.1651 148.572C58.1316 148.551 58.0846 148.519 58.0282 148.477C57.9157 148.394 57.7647 148.27 57.6087 148.104C57.2973 147.773 56.9593 147.269 56.8785 146.592C56.7086 145.169 56.7742 142.44 56.8482 139.763C56.8523 139.615 56.8564 139.468 56.8605 139.32C56.9312 136.786 56.9987 134.363 56.8781 133.158C56.7308 131.684 56.2623 127.234 55.8306 123.151C55.6148 121.11 55.4082 119.161 55.2555 117.722L55.0236 115.538L48.2242 116.129L51.0039 133.116L52.2562 148.457L52.25 148.484Z" fill="#333333"/>
<path d="M65.8096 155.003L53.0036 155.003C53.0036 155.003 51.6309 155.003 51.6309 154.066C51.6309 153.037 53.3159 153.129 53.3159 153.129L59.2504 153.129C58.7507 150.63 61.1244 149.172 62.3738 148.756C63.4149 148.86 65.7471 149.006 66.7466 150.005C65.2474 149.755 64.2479 152.088 63.9355 153.129H67.0589C68.3083 153.129 68.3083 154.378 67.6836 154.69C67.0589 155.003 66.4343 155.003 65.8096 155.003Z" fill="#333333"/>
<path fill-rule="evenodd" clip-rule="evenodd" d="M62.3164 148.578C62.3415 148.57 62.3681 148.567 62.3944 148.569C62.4716 148.577 62.5566 148.585 62.6481 148.594C63.1659 148.642 63.8931 148.711 64.6159 148.861C65.4594 149.037 66.3399 149.332 66.881 149.873C66.9386 149.93 66.9524 150.018 66.9151 150.091C66.8779 150.163 66.7981 150.203 66.7177 150.19C66.0831 150.084 65.5201 150.519 65.0515 151.19C64.6578 151.754 64.3663 152.436 64.1944 152.941H67.0609C67.4045 152.941 67.68 153.027 67.8844 153.178C68.0893 153.328 68.2107 153.535 68.2589 153.752C68.3526 154.173 68.1705 154.657 67.7693 154.858C67.105 155.19 66.4422 155.19 65.8264 155.19L53.0054 155.19L53.0054 155.003C53.0054 155.19 53.0055 155.19 53.0054 155.19L53.0047 155.19L53.0034 155.19L52.9994 155.19L52.9858 155.19C52.9742 155.189 52.9578 155.189 52.9373 155.188C52.8964 155.186 52.8387 155.182 52.7698 155.174C52.6329 155.159 52.447 155.127 52.2585 155.063C51.8884 154.937 51.4453 154.656 51.4453 154.066C51.4453 153.749 51.5782 153.512 51.7737 153.343C51.9628 153.18 52.205 153.086 52.4296 153.029C52.6564 152.973 52.8803 152.951 53.0456 152.943C53.1287 152.939 53.1982 152.939 53.2474 152.939C53.272 152.939 53.2915 152.94 53.3052 152.94L53.3213 152.941L53.3222 152.941L59.0305 152.941C58.8617 151.723 59.3451 150.75 60.0217 150.033C60.7348 149.276 61.6696 148.794 62.3164 148.578ZM59.4094 152.941L63.7995 152.941C63.9719 152.406 64.2918 151.623 64.7442 150.975C65.1189 150.439 65.6148 149.955 66.2207 149.83C65.7668 149.548 65.1666 149.359 64.5396 149.228C63.8392 149.082 63.1358 149.016 62.617 148.967C62.5395 148.96 62.4661 148.953 62.3975 148.946C61.7966 149.153 60.9421 149.603 60.2944 150.29C59.6661 150.956 59.239 151.837 59.4094 152.941ZM53.3072 153.316L53.3045 153.316L53.2924 153.315C53.2814 153.315 53.2648 153.314 53.2433 153.314C53.2003 153.314 53.1381 153.314 53.0633 153.317C52.9126 153.325 52.7153 153.344 52.5208 153.393C52.3242 153.442 52.1452 153.518 52.0183 153.627C51.8979 153.731 51.8201 153.868 51.8201 154.066C51.8201 154.412 52.0634 154.6 52.3796 154.708C52.5343 154.761 52.6916 154.788 52.8121 154.802C52.8719 154.809 52.9214 154.812 52.9556 154.814C52.9726 154.814 52.9857 154.815 52.9943 154.815L53.0036 154.815L53.0054 154.815L65.8115 154.815C66.4409 154.815 67.0221 154.812 67.6017 154.523C67.8253 154.411 67.9555 154.114 67.893 153.833C67.8631 153.698 67.7893 153.573 67.6624 153.48C67.5349 153.386 67.3419 153.316 67.0609 153.316L53.3177 153.316C53.3143 153.316 53.3106 153.316 53.3072 153.316Z" fill="#333333"/>
<path d="M35.3959 131.7C35.2974 129.454 35.9027 119.485 36.2449 115.406L44.9822 115.023L42.004 132.661C42.004 132.661 41.3714 145.174 41.8469 150.489C41.9582 151.733 40.6672 152.104 40.6672 152.104L31.4704 156.259C26.505 157.101 27.3592 155.188 28.2406 153.899C29.3556 152.268 33.3425 151.246 34.6426 150.179C35.8497 149.188 36.4601 148.849 36.7038 147.275C36.485 142.282 35.4944 133.947 35.3959 131.7Z" fill="#D8BA8B"/>
<path fill-rule="evenodd" clip-rule="evenodd" d="M36.0722 115.226L45.2057 114.826L42.1908 132.682L42.1844 132.813C42.1799 132.905 42.1733 133.042 42.1651 133.218C42.1488 133.571 42.1259 134.08 42.1 134.707C42.0482 135.963 41.984 137.692 41.9347 139.587C41.8359 143.381 41.7971 147.827 42.0338 150.472C42.0965 151.174 41.7593 151.634 41.4164 151.909C41.2465 152.046 41.0741 152.139 40.9448 152.197C40.8799 152.227 40.8251 152.248 40.7858 152.262C40.7693 152.268 40.7554 152.273 40.7447 152.276C40.7427 152.277 40.7408 152.278 40.7389 152.278L40.7338 152.28L31.5257 156.44L31.5019 156.444C30.2532 156.656 29.3541 156.697 28.7223 156.613C28.0935 156.529 27.69 156.313 27.4993 155.97C27.311 155.631 27.3664 155.231 27.4992 154.866C27.6338 154.496 27.8632 154.12 28.0861 153.793C28.3867 153.354 28.8709 152.968 29.4298 152.621C29.9912 152.273 30.6435 151.955 31.2945 151.658C31.5677 151.533 31.8387 151.413 32.1034 151.295C32.4755 151.13 32.8351 150.971 33.1707 150.812C33.7444 150.541 34.2185 150.285 34.5239 150.035C34.6492 149.932 34.7668 149.837 34.8774 149.748C35.3109 149.398 35.6361 149.135 35.89 148.827C36.1952 148.457 36.3975 148.016 36.5159 147.265C36.406 144.776 36.105 141.458 35.8183 138.476C35.7619 137.889 35.706 137.315 35.6523 136.763C35.4327 134.507 35.2486 132.616 35.2089 131.709C35.1098 129.448 35.7164 119.466 36.0584 115.39L36.0722 115.226ZM40.6157 151.924L40.6167 151.924L40.6247 151.921C40.6322 151.919 40.644 151.915 40.6594 151.909C40.6903 151.898 40.7355 151.881 40.7898 151.856C40.8992 151.806 41.0426 151.729 41.1816 151.617C41.4564 151.396 41.709 151.049 41.6604 150.506C41.4216 147.836 41.4613 143.368 41.56 139.577C41.6094 137.68 41.6736 135.949 41.7255 134.692C41.7515 134.064 41.7743 133.554 41.7907 133.201C41.7989 133.025 41.8055 132.887 41.81 132.794L41.817 132.653C41.817 132.653 41.817 132.652 42.0042 132.662L41.817 132.653L41.8176 132.641L44.7589 115.221L36.4182 115.586C36.0735 119.765 35.4868 129.49 35.5833 131.692C35.6226 132.589 35.8052 134.465 36.0246 136.719C36.0785 137.273 36.1346 137.85 36.1914 138.44C36.4787 141.429 36.7815 144.765 36.8912 147.267L36.892 147.286L36.8891 147.304C36.7635 148.116 36.5396 148.628 36.1793 149.065C35.8989 149.406 35.5356 149.699 35.0975 150.052C34.99 150.139 34.878 150.229 34.7617 150.324C34.4171 150.607 33.9052 150.88 33.3309 151.151C32.9936 151.311 32.6245 151.474 32.2474 151.642C31.9829 151.759 31.7145 151.878 31.4502 151.999C30.8025 152.294 30.1679 152.604 29.6274 152.939C29.0846 153.276 28.6524 153.629 28.3955 154.005C28.1777 154.324 27.9697 154.669 27.8514 154.994C27.7314 155.324 27.7183 155.592 27.8269 155.788C27.9332 155.979 28.192 156.164 28.7721 156.241C29.3454 156.318 30.1942 156.284 31.4154 156.078L40.6026 151.928L40.6157 151.924Z" fill="#333333"/>
<path d="M31.2274 157.832L41.971 153.297C42.5814 152.957 42.2009 151.411 41.5905 151.75L32.0812 155.919C31.1586 156.272 30.1711 156.565 28.6624 156.381C27.1536 156.197 27.6717 155.174 27.3322 154.564C26.7218 154.903 26.4646 156.165 26.804 156.775C27.0387 157.198 27.7881 157.827 28.4189 157.955C29.2189 158.118 30.3049 158.185 31.2274 157.832Z" fill="#333333"/>
<path fill-rule="evenodd" clip-rule="evenodd" d="M41.7786 151.891C41.7574 151.888 41.7265 151.89 41.6818 151.914C41.6766 151.917 41.6713 151.92 41.6659 151.922L32.1565 156.091C32.1538 156.092 32.1511 156.093 32.1483 156.094C31.2098 156.453 30.1899 156.757 28.6398 156.568C28.2423 156.519 27.9555 156.413 27.7508 156.254C27.5427 156.092 27.4373 155.889 27.3787 155.684C27.3332 155.525 27.3138 155.353 27.2968 155.203C27.2929 155.168 27.2892 155.135 27.2852 155.103C27.2747 155.018 27.263 154.941 27.2469 154.871C27.0903 155.041 26.9639 155.304 26.8948 155.61C26.8019 156.02 26.8294 156.436 26.9679 156.685C27.0681 156.865 27.2924 157.109 27.5769 157.327C27.8607 157.544 28.1796 157.715 28.4564 157.772C29.2399 157.932 30.2835 157.992 31.1576 157.658L41.8878 153.129C41.9731 153.078 42.039 152.977 42.0719 152.825C42.1056 152.67 42.0986 152.484 42.0567 152.314C42.014 152.141 41.9415 152.008 41.8669 151.94C41.8316 151.907 41.8017 151.894 41.7786 151.891ZM42.4382 152.904C42.3909 153.123 42.2784 153.341 42.0623 153.461C42.0564 153.464 42.0503 153.467 42.0441 153.47L31.2945 158.007C30.3242 158.379 29.1972 158.305 28.3815 158.139C28.0276 158.067 27.6564 157.86 27.3491 157.624C27.0425 157.39 26.7748 157.109 26.6403 156.867C26.4394 156.505 26.4258 155.984 26.5292 155.527C26.6321 155.072 26.8673 154.608 27.2413 154.4C27.3317 154.35 27.4458 154.382 27.4961 154.473C27.6002 154.66 27.6343 154.871 27.6572 155.057C27.6622 155.097 27.6667 155.136 27.671 155.175C27.6879 155.323 27.7029 155.455 27.7391 155.581C27.782 155.731 27.8512 155.857 27.9809 155.958C28.1141 156.061 28.3283 156.152 28.6852 156.196C30.1503 156.374 31.1048 156.092 32.0101 155.746L41.508 151.582C41.6134 151.526 41.7249 151.503 41.836 151.521C41.9481 151.538 42.0434 151.593 42.12 151.663C42.2694 151.8 42.3683 152.011 42.4207 152.225C42.4739 152.441 42.4858 152.685 42.4382 152.904Z" fill="#333333"/>
<path d="M27.3328 154.564C29.5248 153.218 31.6065 154.585 32.3802 155.593L35.4459 154.209C35.3474 151.962 32.8356 151.718 30.9679 151.904C30.2299 152.186 27.8255 153.917 27.3328 154.564Z" fill="#333333"/>
<path fill-rule="evenodd" clip-rule="evenodd" d="M31.0124 152.087C30.845 152.155 30.5796 152.303 30.2578 152.506C29.9251 152.715 29.5435 152.976 29.1687 153.248C28.846 153.483 28.5297 153.725 28.2552 153.95C29.041 153.728 29.7914 153.797 30.4482 154.017C31.3108 154.308 32.0132 154.86 32.4353 155.362L35.2504 154.091C35.2088 153.628 35.0529 153.271 34.8232 152.993C34.5713 152.69 34.2211 152.471 33.8063 152.319C32.9796 152.018 31.9299 151.998 31.0124 152.087ZM35.1117 152.754C35.4186 153.124 35.607 153.601 35.6332 154.2C35.6366 154.276 35.593 154.347 35.5232 154.379L32.4574 155.764C32.3781 155.799 32.2846 155.776 32.2316 155.707C31.8651 155.229 31.1811 154.659 30.3287 154.373C29.4834 154.089 28.4738 154.083 27.431 154.723C27.3541 154.77 27.2545 154.756 27.1939 154.689C27.1334 154.622 27.1291 154.522 27.1838 154.45C27.3208 154.27 27.5778 154.029 27.8843 153.771C28.1947 153.51 28.5682 153.221 28.9483 152.945C29.3284 152.669 29.717 152.403 30.0581 152.188C30.3953 151.976 30.6976 151.806 30.901 151.728C30.9166 151.722 30.9328 151.718 30.9494 151.717C31.8935 151.622 33.0217 151.634 33.9347 151.967C34.3936 152.135 34.8065 152.386 35.1117 152.754Z" fill="#333333"/>
<path d="M56.749 32.5652H52.6885C52.0638 31.6282 50.8144 26.6307 50.8144 26.6307C50.8144 26.6307 50.6895 26.3184 51.4391 26.3184C52.1888 26.3184 52.7926 27.776 53.3132 28.8171L57.3736 29.1294C57.6235 29.6292 57.0613 31.6282 56.749 32.5652Z" fill="#D8BA8B"/>
<path fill-rule="evenodd" clip-rule="evenodd" d="M50.7012 26.3574C50.8205 26.2082 51.0554 26.1309 51.441 26.1309C51.6922 26.1309 51.9134 26.2533 52.1021 26.4229C52.2911 26.5927 52.4639 26.8241 52.6227 27.0777C52.8625 27.4606 53.0867 27.9219 53.2922 28.3448C53.341 28.4453 53.3888 28.5437 53.4355 28.6383L57.3899 28.9425C57.4555 28.9475 57.5137 28.9867 57.5431 29.0455C57.59 29.1394 57.6114 29.253 57.6201 29.3678C57.629 29.4853 57.6257 29.6186 57.614 29.7606C57.5906 30.0447 57.5321 30.3798 57.4571 30.7232C57.3069 31.4109 57.0862 32.1516 56.9286 32.6244C56.9031 32.7009 56.8315 32.7525 56.7508 32.7525H52.6904C52.6277 32.7525 52.5692 32.7212 52.5344 32.6691C52.3625 32.4111 52.1602 31.8993 51.9566 31.3031C51.7502 30.6985 51.5345 29.9825 51.3389 29.298C51.1432 28.613 50.9671 27.9577 50.84 27.4737C50.7765 27.2317 50.7251 27.0324 50.6896 26.8936C50.6719 26.8241 50.6581 26.7698 50.6488 26.7329L50.6363 26.6834C50.6342 26.6767 50.6319 26.6685 50.6297 26.6589C50.6252 26.6393 50.6211 26.6129 50.6211 26.5818C50.6211 26.5176 50.639 26.4351 50.7012 26.3574ZM50.9955 26.5858C50.9955 26.5859 50.9955 26.5858 50.9955 26.5858V26.5858ZM50.9985 26.5869L51.0122 26.6411C51.0215 26.6777 51.0351 26.7317 51.0528 26.8008C51.0881 26.9389 51.1392 27.1374 51.2025 27.3785C51.3292 27.8608 51.5045 28.5134 51.6993 29.195C51.8941 29.8769 52.1078 30.586 52.3113 31.182C52.4937 31.7161 52.662 32.1409 52.7955 32.3777H56.6151C56.7653 31.9144 56.9572 31.2554 57.0909 30.6433C57.1643 30.3073 57.219 29.9904 57.2405 29.7299C57.2512 29.5995 57.2533 29.4874 57.2463 29.3962C57.2437 29.3616 57.2399 29.3319 57.2354 29.3065L53.6769 29.0328C53.6978 29.0635 53.7197 29.0956 53.7424 29.1289C53.8164 29.2373 53.8986 29.3579 53.9787 29.4786C54.0899 29.6461 54.2004 29.8186 54.2837 29.9668C54.3252 30.0406 54.3619 30.1119 54.3887 30.1756C54.4128 30.2327 54.4395 30.3071 54.4395 30.3787C54.4395 30.4822 54.3555 30.5661 54.252 30.5661C54.1485 30.5661 54.0646 30.4822 54.0646 30.3787C54.0646 30.3804 54.0647 30.3812 54.0646 30.3813C54.0641 30.3813 54.0613 30.3638 54.0434 30.3212C54.0243 30.2759 53.9951 30.2184 53.9569 30.1504C53.8807 30.0148 53.7765 29.8516 53.6665 29.6859C53.5877 29.5673 53.5076 29.4499 53.434 29.342C53.4049 29.2993 53.3769 29.2581 53.3503 29.219C53.2612 29.0877 53.1804 28.9669 53.1474 28.9008C53.0814 28.7689 53.015 28.6323 52.9478 28.4939C52.7442 28.075 52.5331 27.6408 52.3051 27.2767C52.1542 27.0357 52.003 26.8377 51.8516 26.7017C51.7 26.5654 51.5646 26.5057 51.441 26.5057C51.1165 26.5057 51.0197 26.5683 50.9985 26.5869Z" fill="#333333"/>
<path d="M27.4522 32.5652H31.5127C32.1374 31.6282 33.3867 26.6307 33.3867 26.6307C33.3867 26.6307 33.5117 26.3184 32.762 26.3184C32.0124 26.3184 31.034 29.0253 30.5134 30.0665H27.0777C26.8278 30.5662 27.1399 31.6282 27.4522 32.5652Z" fill="#D8BA8B"/>
<path fill-rule="evenodd" clip-rule="evenodd" d="M33.5019 26.3574C33.3826 26.2082 33.1477 26.1309 32.7621 26.1309C32.6115 26.1309 32.4747 26.1984 32.3578 26.2877C32.2399 26.3779 32.1265 26.5021 32.0186 26.6441C31.8025 26.9283 31.5874 27.3118 31.3843 27.7181C31.1804 28.126 30.9842 28.5657 30.8076 28.9658C30.7884 29.0093 30.7695 29.0523 30.7508 29.0946C30.6187 29.3943 30.4996 29.6646 30.3966 29.879H27.0778C27.0068 29.879 26.9419 29.9191 26.9101 29.9826C26.8298 30.1433 26.8006 30.3355 26.7995 30.5348C26.7985 30.7359 26.826 30.9579 26.8702 31.1873C26.9586 31.6455 27.1182 32.1554 27.2745 32.6244C27.3 32.7009 27.3716 32.7525 27.4523 32.7525H31.5128C31.5754 32.7525 31.6339 32.7212 31.6687 32.6691C31.8407 32.4111 32.0429 31.8993 32.2465 31.3031C32.4529 30.6985 32.6687 29.9825 32.8643 29.298C33.0599 28.613 33.236 27.9577 33.3631 27.4737C33.4267 27.2317 33.478 27.0324 33.5135 26.8936C33.5312 26.8241 33.545 26.7698 33.5543 26.7329L33.5668 26.6834C33.5689 26.6767 33.5712 26.6685 33.5734 26.6589C33.5779 26.6393 33.582 26.6129 33.582 26.5818C33.582 26.5176 33.5641 26.4351 33.5019 26.3574ZM33.2076 26.5858C33.2076 26.5859 33.2076 26.5858 33.2076 26.5858V26.5858ZM33.2046 26.5869L33.1909 26.6411C33.1817 26.6777 33.168 26.7317 33.1503 26.8008C33.115 26.9389 33.0639 27.1374 33.0006 27.3785C32.8739 27.8608 32.6986 28.5134 32.5039 29.195C32.309 29.8769 32.0953 30.586 31.8918 31.182C31.7094 31.7161 31.5412 32.1409 31.4076 32.3777H27.5877C27.4469 31.9492 27.3139 31.5089 27.2382 31.1163C27.1966 30.9006 27.1734 30.7047 27.1744 30.5369C27.175 30.4245 27.1864 30.3304 27.207 30.2538H30.0719C29.8528 30.4958 29.63 30.7897 29.4089 31.2319C29.3626 31.3245 29.4001 31.4371 29.4927 31.4834C29.5853 31.5297 29.6978 31.4921 29.7441 31.3996C30.0427 30.8025 30.3376 30.5074 30.6461 30.1989C30.6603 30.1846 30.6722 30.1682 30.6812 30.1502C30.7993 29.9138 30.9401 29.5945 31.0934 29.2468C31.1122 29.204 31.1313 29.1607 31.1505 29.1172C31.3272 28.7169 31.5201 28.2847 31.7196 27.8857C31.9198 27.4851 32.1225 27.1268 32.3169 26.8709C32.4143 26.7429 32.5044 26.6475 32.5854 26.5855C32.6676 26.5228 32.7254 26.5057 32.7621 26.5057C33.0866 26.5057 33.1834 26.5683 33.2046 26.5869Z" fill="#333333"/>
<path d="M32.3875 32.2529C33.481 36.3133 33.6368 42.2479 33.9492 44.7466C34.2615 47.2454 34.2615 53.1799 35.1986 55.6787C36.4479 55.3663 38.2319 55.6787 38.9466 55.6787C38.9466 55.6787 40.5083 56.6158 42.3824 56.6158C44.2565 56.6158 45.8182 55.6787 45.8182 55.6787C47.3799 55.3663 48.9415 55.9911 49.2539 55.6787C49.5663 55.3663 49.8786 54.117 51.4403 52.8676V43.4973L52.3774 32.5653C52.3774 32.5653 53.6267 32.2529 54.8761 32.2529C56.1255 32.253 57.6872 32.5653 57.6872 32.5653C57.6872 32.5653 58.5657 45.6837 58.3119 49.7441C58.0581 53.8046 56.4379 59.7391 56.4379 59.7391C56.4379 59.7391 57.0625 67.2452 57.0625 72.8575C57.0625 78.4698 56.4379 89.4116 56.4379 89.4116C56.4379 89.4116 48.367 90.3487 43.9442 90.3487C38.0097 90.3487 36.4479 90.5569 31.7628 90.3487C29.2641 83.7895 30.2011 68.4847 29.2641 64.1119C28.6787 61.3802 26.7653 50.6811 26.7653 47.5577C26.7653 45.059 26.3489 36.3134 26.1406 32.2529H29.2641H32.3875Z" fill="#016D33"/>
<path fill-rule="evenodd" clip-rule="evenodd" d="M26.0047 32.1238C26.04 32.0865 26.0892 32.0654 26.1405 32.0654H32.3874C32.4721 32.0654 32.5463 32.1223 32.5683 32.2041C33.1195 34.2506 33.4329 36.7628 33.6478 39.0679C33.7427 40.0865 33.8182 41.0614 33.8863 41.9402C33.973 43.0604 34.0477 44.0243 34.1351 44.7233C34.2332 45.5086 34.301 46.6347 34.376 47.8811C34.4209 48.6264 34.4683 49.4146 34.5264 50.1987C34.6766 52.2261 34.8976 54.2231 35.3191 55.4593C35.9365 55.3339 36.6468 55.3384 37.2835 55.3743C37.5959 55.392 37.8948 55.4175 38.1593 55.4401C38.1903 55.4427 38.2209 55.4453 38.2509 55.4479C38.5405 55.4725 38.7774 55.4912 38.9465 55.4912C38.9805 55.4912 39.0138 55.5004 39.0429 55.5178C39.0428 55.5178 39.0429 55.5178 39.0429 55.5178L39.0434 55.5181L39.0461 55.5198L39.0582 55.5268C39.0691 55.5331 39.0858 55.5426 39.108 55.5548C39.1522 55.5793 39.2183 55.6147 39.3037 55.6574C39.4745 55.7428 39.7222 55.8572 40.0275 55.9717C40.6393 56.2012 41.4751 56.4283 42.3823 56.4283C43.2895 56.4283 44.1253 56.2012 44.7371 55.9717C45.0424 55.8572 45.2901 55.7428 45.461 55.6574C45.5463 55.6147 45.6124 55.5793 45.6567 55.5548C45.6678 55.5486 45.6776 55.5431 45.686 55.5384C45.6942 55.5338 45.701 55.5299 45.7064 55.5268L45.7185 55.5198L45.7212 55.5181C45.7396 55.5071 45.7603 55.499 45.7813 55.4948C46.5945 55.3322 47.4019 55.4144 48.0277 55.4926C48.088 55.5002 48.1462 55.5076 48.2025 55.5148C48.4436 55.5456 48.6471 55.5717 48.8133 55.5792C48.915 55.5839 48.992 55.5808 49.0478 55.5709C49.1053 55.5607 49.1207 55.5467 49.1213 55.5461C49.176 55.4914 49.2411 55.3823 49.3428 55.1941C49.357 55.1678 49.3717 55.1404 49.3871 55.1119C49.4754 54.9473 49.5829 54.7473 49.7189 54.5262C50.0306 54.0198 50.4937 53.4 51.2528 52.7781V43.4972C51.2528 43.4938 51.2529 43.4903 51.2531 43.4868C51.2532 43.485 51.2534 43.4831 51.2535 43.4812L52.1905 32.5492C52.1974 32.4694 52.2541 32.4028 52.3318 32.3834L52.3331 32.3831L52.3361 32.3823L52.3475 32.3795C52.3575 32.3771 52.372 32.3737 52.3908 32.3693C52.4284 32.3605 52.4832 32.348 52.5527 32.3331C52.6917 32.3034 52.8898 32.2637 53.1273 32.2242C53.6013 32.1451 54.2372 32.0654 54.876 32.0654C55.5138 32.0654 56.2268 32.145 56.7766 32.2235C57.0523 32.2629 57.2886 32.3023 57.4561 32.3318C57.5399 32.3466 57.6066 32.359 57.6524 32.3676L57.7051 32.3777L57.7189 32.3805L57.7234 32.3814L57.6871 32.5652C57.8741 32.5527 57.8741 32.5527 57.8741 32.5528L57.8839 32.7012C57.8903 32.7984 57.8996 32.9414 57.9114 33.1248C57.9349 33.4916 57.9682 34.0202 58.0075 34.6671C58.0859 35.9608 58.1878 37.7282 58.2818 39.6227C58.4695 43.4064 58.6265 47.7128 58.4988 49.7557C58.371 51.8009 57.8999 54.3111 57.4627 56.3043C57.2438 57.3022 57.0329 58.1728 56.8766 58.794C56.7985 59.1046 56.7341 59.353 56.6891 59.5238C56.6666 59.6092 56.649 59.6752 56.637 59.7199L56.6272 59.7563L56.6316 59.8095C56.6339 59.8376 56.6367 59.8723 56.64 59.9135C56.6433 59.9551 56.6471 60.0033 56.6514 60.0577C56.6685 60.2742 56.693 60.5896 56.7223 60.9857C56.7809 61.7777 56.859 62.8922 56.9372 64.1822C57.0934 66.7615 57.2499 70.0456 57.2499 72.8574C57.2499 75.6683 57.0935 79.8106 56.9373 83.2476C56.8592 84.9666 56.7811 86.5102 56.7225 87.624C56.6932 88.1809 56.6688 88.6304 56.6517 88.9407C56.6432 89.0959 56.6365 89.2162 56.6319 89.2978L56.6249 89.4217C56.6249 89.4218 56.6249 89.4222 56.4378 89.4115C56.4594 89.5977 56.4593 89.5977 56.4593 89.5977L56.4579 89.5979L56.3673 89.6083C56.3388 89.6115 56.3038 89.6155 56.2628 89.6201C56.217 89.6253 56.1637 89.6313 56.1031 89.6381C55.8735 89.6637 55.5407 89.7004 55.1274 89.7443C54.301 89.8322 53.1529 89.9495 51.8665 90.0667C49.2957 90.301 46.1648 90.536 43.9441 90.536C41.7058 90.536 40.0878 90.5658 38.6877 90.5915C36.3846 90.6339 34.6707 90.6654 31.7544 90.5358C31.6797 90.5325 31.6142 90.4851 31.5876 90.4153C30.3252 87.1015 29.9354 81.6028 29.7404 76.4173C29.6916 75.1182 29.6549 73.8362 29.6202 72.6108L29.6179 72.5295C29.5839 71.3333 29.5516 70.1921 29.511 69.1409C29.428 66.9857 29.311 65.2257 29.0807 64.1511C28.7871 62.7809 28.1619 59.4198 27.6101 56.0116C27.0593 52.6097 26.5778 49.1376 26.5778 47.5576C26.5778 45.065 26.1617 36.3256 25.9534 32.2624C25.9507 32.2111 25.9693 32.161 26.0047 32.1238ZM56.4378 89.4115L56.4593 89.5977C56.5498 89.5872 56.6197 89.5127 56.6249 89.4217L56.4378 89.4115ZM56.2596 89.2433C56.264 89.1637 56.2701 89.0551 56.2775 88.9201C56.2946 88.6101 56.319 88.1609 56.3482 87.6043C56.4068 86.4912 56.4848 84.9485 56.5629 83.2306C56.7191 79.7935 56.875 75.6588 56.875 72.8574C56.875 70.0569 56.7191 66.7818 56.563 64.2049C56.485 62.9169 56.407 61.8041 56.3485 61.0133C56.3192 60.618 56.2948 60.3032 56.2778 60.0872C56.2693 59.9793 56.2626 59.896 56.258 59.8398L56.251 59.7549C56.251 59.7548 56.251 59.7545 56.4378 59.739L56.257 59.6896L56.2581 59.6855L56.2615 59.6729L56.275 59.6228C56.2869 59.5786 56.3043 59.5132 56.3267 59.4284C56.3713 59.2588 56.4354 59.0117 56.5131 58.7026C56.6687 58.0842 56.8787 57.2174 57.0966 56.224C57.5329 54.2349 57.9988 51.7476 58.1247 49.7323C58.2508 47.7148 58.0955 43.4318 57.9074 39.6412C57.8135 37.7485 57.7117 35.9826 57.6333 34.6897C57.5941 34.0433 57.5608 33.5153 57.5373 33.1488C57.5256 32.9656 57.5163 32.8228 57.5099 32.7258L57.5097 32.7223C57.4756 32.7161 57.4358 32.7089 57.391 32.701C57.2266 32.672 56.9945 32.6333 56.7236 32.5946C56.1802 32.5169 55.4876 32.4403 54.876 32.4402C54.2655 32.4402 53.6519 32.5167 53.1889 32.5939C52.958 32.6324 52.7656 32.6708 52.6313 32.6996C52.6022 32.7059 52.5758 32.7117 52.5524 32.7169L51.6286 43.4945L51.6339 43.5423C51.6387 43.5859 51.6457 43.65 51.6543 43.7329C51.6715 43.8987 51.6953 44.1392 51.7218 44.4389C51.7747 45.0384 51.8381 45.8752 51.8805 46.8249C51.9649 48.7203 51.966 51.0809 51.6244 52.902C51.6162 52.9461 51.5923 52.9858 51.5573 53.0138C50.7967 53.6224 50.3417 54.2294 50.0382 54.7226C49.9083 54.9336 49.8065 55.1232 49.7181 55.2877C49.7025 55.3167 49.6873 55.3449 49.6725 55.3724C49.5859 55.5326 49.5013 55.6853 49.4087 55.7876C49.3665 55.8695 49.3278 55.9334 49.2938 55.9894C49.2867 56.0012 49.2797 56.0127 49.273 56.0239C49.2317 56.0927 49.1945 56.1587 49.1539 56.2575C49.0702 56.4606 48.9689 56.8096 48.813 57.5893C48.7927 57.6908 48.6939 57.7567 48.5924 57.7364C48.491 57.7161 48.4251 57.6173 48.4454 57.5158C48.6018 56.7339 48.7087 56.3541 48.8073 56.1148C48.8325 56.0535 48.8569 56.002 48.8809 55.9561C48.8531 55.9558 48.8248 55.955 48.7963 55.9537C48.6132 55.9453 48.3898 55.9167 48.1477 55.8857C48.093 55.8787 48.0375 55.8716 47.9812 55.8646C47.3661 55.7877 46.6236 55.7146 45.885 55.8564C45.8729 55.8633 45.8572 55.8722 45.838 55.8828C45.7895 55.9096 45.7189 55.9474 45.6286 55.9926C45.448 56.0829 45.1882 56.2028 44.8688 56.3226C44.2312 56.5617 43.3492 56.8031 42.3823 56.8031C41.4155 56.8031 40.5334 56.5617 39.8958 56.3226C39.5764 56.2028 39.3166 56.0829 39.136 55.9926C39.0457 55.9474 38.9751 55.9096 38.9266 55.8828C38.915 55.8764 38.9046 55.8706 38.8956 55.8655C38.7135 55.8624 38.4792 55.8435 38.2192 55.8214C38.189 55.8188 38.1583 55.8162 38.1273 55.8135C37.8623 55.7909 37.569 55.7658 37.2624 55.7485C36.6423 55.7135 35.9848 55.7115 35.425 55.8203C35.5237 56.2505 35.6398 56.8715 35.7127 57.5321C35.7966 58.2923 35.8253 59.1223 35.6946 59.7757C35.6743 59.8772 35.5755 59.9431 35.4741 59.9228C35.3726 59.9025 35.3067 59.8037 35.327 59.7022C35.4462 59.1063 35.4228 58.3225 35.3402 57.5732C35.2585 56.8335 35.1212 56.1444 35.0192 55.7342C34.5422 54.4542 34.308 52.3239 34.1526 50.2264C34.0934 49.4263 34.0455 48.6304 34.0006 47.8827C33.9263 46.648 33.86 45.5445 33.7631 44.7698C33.6751 44.0656 33.599 43.0846 33.5113 41.9532C33.4431 41.0741 33.3679 40.1042 33.2746 39.1027C33.0649 36.8533 32.7629 34.4288 32.2432 32.4402H26.3378C26.5489 36.5776 26.9526 45.0926 26.9526 47.5576C26.9526 49.1011 27.4278 52.5403 27.9801 55.9517C28.5313 59.3567 29.1554 62.711 29.4472 64.0725C29.6854 65.1843 29.8027 66.9772 29.8856 69.1265C29.9262 70.1795 29.9586 71.3223 29.9925 72.5177L29.9948 72.6001C30.0296 73.8258 30.0662 75.1061 30.115 76.4032C30.3082 81.5422 30.6923 86.909 31.8947 90.1668C34.7259 90.2896 36.4068 90.2586 38.6669 90.2169C40.0667 90.1911 41.6888 90.1612 43.9441 90.1612C46.1462 90.1612 49.2621 89.9277 51.8325 89.6934C53.1166 89.5764 54.2627 89.4594 55.0878 89.3716C55.5003 89.3277 55.8325 89.2912 56.0615 89.2656C56.1399 89.2568 56.2063 89.2493 56.2596 89.2433ZM56.4378 59.739L56.257 59.6896C56.2512 59.7107 56.2492 59.733 56.251 59.7549L56.4378 59.739ZM57.6871 32.5652L57.8741 32.5528C57.8684 32.4684 57.8065 32.398 57.7234 32.3814L57.6871 32.5652Z" fill="#035E2D"/>
<path d="M59.2505 116.273C52.7538 118.522 38.2195 118.459 31.7644 118.147C29.4534 111.676 30.5267 98.8283 31.5246 91.91C31.6057 91.3482 31.6862 90.8254 31.7644 90.3483C35.3856 90.3483 40.9005 90.3183 45.8198 90.229C50.9427 90.136 55.4198 89.9786 56.4395 89.7236C56.5306 90.2399 56.6306 90.8264 56.7368 91.4724C57.7232 97.4712 59.2505 108.603 59.2505 116.273Z" fill="#69757B"/>
<path fill-rule="evenodd" clip-rule="evenodd" d="M56.5891 89.4932L56.624 89.6912C56.7152 90.2082 56.8153 90.7954 56.9216 91.4421C57.9082 97.442 59.4379 108.587 59.4379 116.273V116.406L59.3118 116.45C56.0348 117.584 50.7522 118.131 45.4999 118.358C40.2407 118.584 34.9876 118.491 31.7553 118.334L31.6301 118.328L31.5879 118.21C30.42 114.94 30.112 110.08 30.2162 105.192C30.3206 100.297 30.8393 95.3481 31.3391 91.8834C31.4203 91.3204 31.501 90.7964 31.5794 90.3181L31.6052 90.161H31.7644C35.3847 90.161 40.8985 90.131 45.8163 90.0417C48.3772 89.9952 50.7753 89.9327 52.66 89.8499C53.6025 89.8085 54.4153 89.7622 55.0552 89.7104C55.6998 89.6582 56.1561 89.6014 56.394 89.5419L56.5891 89.4932ZM52.6765 90.2244C50.787 90.3073 48.3852 90.37 45.8231 90.4165C40.974 90.5045 35.5467 90.5349 31.9237 90.5358C31.8634 90.9089 31.8019 91.3086 31.7398 91.7319C33.5496 91.8086 35.7104 91.8655 38.0136 91.8956C41.8979 91.9462 46.1848 91.9206 49.8733 91.7855C52.5268 91.6883 54.8652 91.5347 56.5205 91.3131C56.4387 90.819 56.3609 90.3619 56.2883 89.9467C56.0044 89.9976 55.5939 90.0428 55.0854 90.084C54.439 90.1363 53.6211 90.1829 52.6765 90.2244ZM56.5813 91.6831C54.9499 91.9022 52.6707 92.0545 50.0936 92.1523C50.2333 93.0376 50.6781 94.2589 51.5956 95.2583C52.5782 96.3285 54.1117 97.1548 56.4296 97.0328L56.4493 97.4071C54.0197 97.535 52.3777 96.6643 51.3195 95.5117C50.3293 94.4331 49.8582 93.1168 49.7165 92.1662C46.1073 92.2945 41.9488 92.3197 38.1601 92.2723C37.9831 93.0299 37.5863 94.4616 36.8046 95.7426C35.9678 97.1138 34.668 98.3444 32.7013 98.3444V97.9696C34.4828 97.9696 35.6817 96.8632 36.4847 95.5473C37.2098 94.3591 37.5942 93.0263 37.7762 92.2672C35.5413 92.2362 33.447 92.1799 31.686 92.1047C31.1953 95.5491 30.6932 100.403 30.5909 105.2C30.4881 110.023 30.7902 114.766 31.8993 117.966C35.1315 118.118 40.3055 118.206 45.4837 117.983C50.6684 117.76 55.8337 117.224 59.0629 116.139C59.0455 108.567 57.5624 97.6857 56.5813 91.6831Z" fill="#616C72"/>
<path d="M82.375 63.8005C82.375 62.4205 83.4937 61.3018 84.8737 61.3018H107.987C109.367 61.3018 110.486 62.4205 110.486 63.8005V77.5436C110.486 78.9236 109.367 80.0423 107.987 80.0423H84.8737C83.4937 80.0423 82.375 78.9236 82.375 77.5436V63.8005Z" fill="#333333"/>
<path d="M84.25 63.1758H108.613V78.1682H84.25V63.1758Z" fill="#33B2DA"/>
<path d="M92.9961 60.0521C92.9961 59.3621 93.5555 58.8027 94.2455 58.8027H99.2429C99.933 58.8027 100.492 59.3621 100.492 60.0521V61.3015H92.9961V60.0521Z" fill="#333333"/>
<path d="M111.735 68.1729C112.425 68.1729 112.984 68.7322 112.984 69.4222L112.984 71.921C112.984 72.611 112.425 73.1703 111.735 73.1703L110.486 73.1703L110.486 68.1729L111.735 68.1729Z" fill="#333333"/>
<path d="M81.1263 68.1729C80.4363 68.1729 79.877 68.7322 79.877 69.4222L79.877 71.921C79.877 72.611 80.4363 73.1703 81.1263 73.1703L82.3757 73.1703L82.3757 68.1729L81.1263 68.1729Z" fill="#333333"/>
<path d="M79.2539 155.004H114.236V156.253H79.2539V155.004Z" fill="#C6CED1"/>
<path d="M89.8734 82.5404L91.7475 81.291H101.742L103.617 82.5404L106.74 150.631L101.742 155.004H91.7475L86.75 150.631L89.8734 82.5404Z" fill="#A7B0B5"/>
<path d="M91.7475 155.004V81.291L89.8734 82.5404L86.75 150.631L91.7475 155.004Z" fill="#C6CED1"/>
<path d="M101.743 155.004V81.291L103.617 82.5404L106.74 150.631L101.743 155.004Z" fill="#C6CED1"/>
<path d="M93.6211 95.6586C93.6211 93.9336 95.0195 92.5352 96.7445 92.5352C98.4695 92.5352 99.8679 93.9336 99.8679 95.6586V109.402C99.8679 111.127 98.4695 112.525 96.7445 112.525C95.0195 112.525 93.6211 111.127 93.6211 109.402V95.6586Z" fill="#C6CED1"/>
<path d="M86.7501 150.631L91.7476 155.004H79.2539L86.7501 150.631Z" fill="#A7B0B5"/>
<path d="M106.74 150.631L101.743 155.004H114.236L106.74 150.631Z" fill="#A7B0B5"/>
<path d="M93.6211 135.638C93.6211 135.293 93.9008 135.014 94.2458 135.014H99.2433C99.5883 135.014 99.8679 135.293 99.8679 135.638C99.8679 135.983 99.5883 136.263 99.2433 136.263H94.2458C93.9008 136.263 93.6211 135.983 93.6211 135.638Z" fill="#69757B"/>
<path d="M94.2461 80.042H99.2436V81.2914H94.2461V80.042Z" fill="#333333"/>
<path fill-rule="evenodd" clip-rule="evenodd" d="M91.7087 81.1087C91.8099 81.087 91.9096 81.1515 91.9312 81.2527C92.0618 81.8621 92.2041 82.5707 92.3589 83.3423C92.7621 85.3511 93.2509 87.7862 93.8422 90.0049C94.2512 91.5395 94.7067 92.9603 95.2124 94.0566C95.4653 94.6047 95.7281 95.0659 96.0001 95.418C96.2733 95.7717 96.5461 96.0028 96.8151 96.1104C96.9112 96.1488 96.9579 96.2579 96.9195 96.354C96.881 96.4501 96.772 96.4968 96.6759 96.4584C96.3202 96.3161 95.9976 96.0279 95.7034 95.6471C95.4081 95.2648 95.1316 94.7762 94.8721 94.2136C94.3529 93.0883 93.8909 91.6433 93.48 90.1014C92.8855 87.8705 92.3926 85.4149 91.9888 83.4032C91.8347 82.6355 91.6936 81.9324 91.5647 81.3312C91.5431 81.23 91.6075 81.1304 91.7087 81.1087Z" fill="#333333"/>
<path fill-rule="evenodd" clip-rule="evenodd" d="M101.782 81.1087C101.68 81.087 101.581 81.1515 101.559 81.2527C101.428 81.8621 101.286 82.5707 101.131 83.3423C100.728 85.3511 100.239 87.7862 99.6481 90.0049C99.2391 91.5395 98.7836 92.9603 98.2778 94.0566C98.025 94.6047 97.7621 95.0659 97.4902 95.418C97.217 95.7717 96.9441 96.0028 96.6752 96.1104C96.5791 96.1488 96.5323 96.2579 96.5708 96.354C96.6092 96.4501 96.7183 96.4968 96.8144 96.4584C97.1701 96.3161 97.4926 96.0279 97.7868 95.6471C98.0821 95.2648 98.3586 94.7762 98.6182 94.2136C99.1373 93.0883 99.5993 91.6433 100.01 90.1014C100.605 87.8705 101.098 85.4149 101.501 83.4032C101.656 82.6355 101.797 81.9324 101.925 81.3312C101.947 81.23 101.883 81.1304 101.782 81.1087Z" fill="#333333"/>
<path fill-rule="evenodd" clip-rule="evenodd" d="M93.8534 81.127C92.9773 81.2048 92.2538 81.3206 91.8072 81.4694C91.7091 81.5021 91.6029 81.449 91.5702 81.3508C91.5375 81.2526 91.5906 81.1465 91.6888 81.1138C92.1792 80.9504 92.9394 80.8319 93.8202 80.7536C94.7053 80.675 95.726 80.6358 96.7455 80.6357C97.7649 80.6357 98.7857 80.6749 99.6708 80.7535C100.552 80.8318 101.312 80.9503 101.802 81.1137C101.9 81.1465 101.953 81.2526 101.921 81.3508C101.888 81.449 101.782 81.502 101.684 81.4693C101.237 81.3205 100.514 81.2047 99.6376 81.1269C98.7657 81.0494 97.7563 81.0105 96.7455 81.0106C95.7347 81.0106 94.7253 81.0495 93.8534 81.127Z" fill="#333333"/>
<path d="M94.8711 97.5329C94.8711 97.1879 95.1508 96.9082 95.4958 96.9082H97.9945C98.3395 96.9082 98.6192 97.1879 98.6192 97.5329V101.281C98.6192 101.626 98.3395 101.906 97.9945 101.906H95.4958C95.1508 101.906 94.8711 101.626 94.8711 101.281V97.5329Z" fill="#012F44"/>
<path d="M94.2475 68.7976C94.2475 70.1776 93.1288 71.2963 91.7487 71.2963C90.3687 71.2963 89.25 70.1776 89.25 68.7976C89.25 67.4176 90.3687 66.2988 91.7487 66.2988C93.1288 66.2988 94.2475 67.4176 94.2475 68.7976Z" fill="white"/>
<path d="M92.3737 68.1732C92.3737 68.8632 91.8144 69.4226 91.1244 69.4226C90.4344 69.4226 89.875 68.8632 89.875 68.1732C89.875 67.4832 90.4344 66.9238 91.1244 66.9238C91.8144 66.9238 92.3737 67.4832 92.3737 68.1732Z" fill="#333333"/>
<path d="M98.6217 68.7976C98.6217 70.1776 99.7404 71.2963 101.12 71.2963C102.5 71.2963 103.619 70.1776 103.619 68.7976C103.619 67.4176 102.5 66.2988 101.12 66.2988C99.7404 66.2988 98.6217 67.4176 98.6217 68.7976Z" fill="white"/>
<path d="M99.2454 68.1732C99.2454 68.8632 99.8048 69.4226 100.495 69.4226C101.185 69.4226 101.744 68.8632 101.744 68.1732C101.744 67.4832 101.185 66.9238 100.495 66.9238C99.8048 66.9238 99.2454 67.4832 99.2454 68.1732Z" fill="#333333"/>
<path fill-rule="evenodd" clip-rule="evenodd" d="M92.8593 73.5879C92.9742 73.5113 93.1293 73.5424 93.2059 73.6572C93.7044 74.4051 94.6397 75.2878 95.8152 75.5428C96.9645 75.7921 98.413 75.4553 99.993 73.6321C100.083 73.5279 100.241 73.5166 100.345 73.607C100.45 73.6974 100.461 73.8552 100.371 73.9594C98.7023 75.8844 97.0794 76.3284 95.7092 76.0312C94.3651 75.7396 93.3326 74.7483 92.79 73.9344C92.7135 73.8196 92.7445 73.6644 92.8593 73.5879Z" fill="#333333"/>
<path fill-rule="evenodd" clip-rule="evenodd" d="M88.7558 65.956C88.4003 66.2668 88.2309 66.6781 88.1848 66.9546C88.1678 67.0567 88.0712 67.1256 87.9691 67.1086C87.867 67.0916 87.7981 66.995 87.8151 66.893C87.8731 66.5447 88.0785 66.0502 88.5091 65.6738C88.9465 65.2914 89.6011 65.0445 90.5252 65.1765C90.6276 65.1912 90.6988 65.2861 90.6842 65.3885C90.6696 65.491 90.5746 65.5622 90.4722 65.5476C89.6471 65.4297 89.1044 65.6513 88.7558 65.956Z" fill="#333333"/>
<path fill-rule="evenodd" clip-rule="evenodd" d="M103.443 66.003C103.786 66.3029 103.95 66.7003 103.994 66.9648C104.017 67.1009 104.145 67.1929 104.281 67.1702C104.418 67.1475 104.509 67.0188 104.487 66.8826C104.427 66.5224 104.215 66.0141 103.772 65.6268C103.32 65.2314 102.647 64.9803 101.706 65.1146C101.57 65.1342 101.475 65.2607 101.494 65.3973C101.514 65.534 101.64 65.6289 101.777 65.6094C102.585 65.4939 103.11 65.7112 103.443 66.003Z" fill="#333333"/>
<path d="M110.49 55.1906C111.425 54.8604 113.175 53.7275 113.181 51.7342C113.164 51.5832 113.156 51.4396 113.156 51.3066C113.173 51.4533 113.181 51.5958 113.181 51.7342C113.327 53.0537 114.126 54.9371 115.8 55.1906C115.086 55.731 113.228 57.4231 113.136 59.0085C113.149 59.1451 113.156 59.2848 113.156 59.4276C113.134 59.2893 113.128 59.1493 113.136 59.0085C112.948 56.9817 111.427 55.6316 110.49 55.1906Z" fill="#FFA300"/>
<path fill-rule="evenodd" clip-rule="evenodd" d="M113.144 51.1195C113.244 51.1136 113.33 51.1861 113.342 51.2846C113.359 51.4348 113.368 51.5811 113.368 51.7237C113.44 52.3579 113.668 53.1252 114.075 53.761C114.484 54.3989 115.061 54.889 115.828 55.0052C115.903 55.0165 115.963 55.0713 115.982 55.1443C116 55.2173 115.973 55.2944 115.913 55.3399C115.565 55.603 114.934 56.1512 114.38 56.8265C113.824 57.5031 113.371 58.2782 113.324 59.0056C113.336 59.1433 113.343 59.284 113.343 59.4275C113.343 59.5253 113.268 59.6067 113.17 59.6143C113.073 59.6219 112.986 59.5532 112.97 59.4566C112.947 59.3089 112.941 59.1604 112.948 59.0121C112.762 57.0769 111.303 55.7805 110.41 55.36C110.342 55.3276 110.299 55.2569 110.303 55.181C110.307 55.1051 110.356 55.0391 110.428 55.0138C110.871 54.8571 111.517 54.5059 112.049 53.9556C112.577 53.4099 112.987 52.6761 112.993 51.7439C112.976 51.5907 112.968 51.4438 112.968 51.3066C112.968 51.2073 113.045 51.1253 113.144 51.1195ZM113.209 52.7622C113.023 53.3429 112.695 53.8272 112.318 54.2163C111.874 54.6751 111.36 55.006 110.923 55.2133C111.729 55.7096 112.741 56.706 113.154 58.111C113.367 57.5655 113.717 57.0428 114.09 56.5887C114.529 56.0532 115.014 55.5958 115.382 55.2858C114.673 55.063 114.139 54.556 113.759 53.9631C113.519 53.5871 113.337 53.1721 113.209 52.7622Z" fill="#FFA300"/>
<path d="M116.738 62.7406C117.398 62.512 118.634 61.7277 118.637 60.3477C118.625 60.2432 118.62 60.1438 118.62 60.0518C118.632 60.1533 118.638 60.2519 118.637 60.3477C118.741 61.2612 119.305 62.5651 120.486 62.7406C119.982 63.1148 118.671 64.2862 118.606 65.3838C118.615 65.4784 118.62 65.5751 118.62 65.6739C118.604 65.5782 118.6 65.4813 118.606 65.3838C118.473 63.9806 117.399 63.046 116.738 62.7406Z" fill="#FFA300"/>
<path fill-rule="evenodd" clip-rule="evenodd" d="M118.606 59.8646C118.705 59.8587 118.792 59.9309 118.804 60.0293C118.816 60.1344 118.822 60.2369 118.823 60.3369C118.873 60.7677 119.031 61.2881 119.312 61.7184C119.594 62.1505 119.989 62.4776 120.512 62.5552C120.587 62.5663 120.648 62.6215 120.666 62.695C120.685 62.7685 120.657 62.8458 120.596 62.891C120.353 63.0711 119.911 63.4477 119.523 63.9111C119.134 64.376 118.826 64.8985 118.792 65.3811C118.801 65.4767 118.805 65.5743 118.805 65.6738C118.805 65.7716 118.73 65.8529 118.633 65.8607C118.535 65.8684 118.448 65.8 118.433 65.7035C118.416 65.5983 118.411 65.4928 118.416 65.3877C118.286 64.0778 117.276 63.1962 116.658 62.9107C116.588 62.8786 116.545 62.8076 116.549 62.7312C116.553 62.6549 116.603 62.5885 116.675 62.5635C116.981 62.4573 117.429 62.2182 117.798 61.8443C118.163 61.4747 118.443 60.9817 118.448 60.3576C118.436 60.2508 118.43 60.1481 118.43 60.0517C118.43 59.9525 118.507 59.8705 118.606 59.8646ZM118.654 61.2262C118.515 61.5731 118.303 61.8667 118.065 62.1075C117.778 62.3983 117.451 62.6159 117.159 62.7629C117.692 63.1098 118.321 63.7389 118.624 64.6051C118.779 64.2681 119.003 63.9491 119.236 63.6706C119.518 63.3338 119.825 63.0414 120.075 62.8285C119.609 62.656 119.254 62.3148 118.998 61.9233C118.855 61.7037 118.741 61.4655 118.654 61.2262Z" fill="#FFA300"/>
<path d="M84.2988 55.3299C83.6312 55.0941 82.381 54.2849 82.3772 52.861C82.3892 52.7532 82.395 52.6506 82.395 52.5557C82.3827 52.6604 82.3769 52.7622 82.3772 52.861C82.2726 53.8035 81.7019 55.1488 80.5061 55.3299C81.0161 55.7159 82.3432 56.9245 82.4088 58.057C82.3998 58.1546 82.395 58.2544 82.395 58.3563C82.4106 58.2576 82.4147 58.1576 82.4088 58.057C82.5434 56.6093 83.63 55.6449 84.2988 55.3299Z" fill="#FFA300"/>
<path fill-rule="evenodd" clip-rule="evenodd" d="M82.4061 52.3685C82.3071 52.3627 82.2206 52.4351 82.209 52.5336C82.1962 52.6419 82.19 52.7475 82.1899 52.8505C82.1389 53.2962 81.9781 53.8347 81.6931 54.2799C81.4068 54.7271 81.0065 55.0645 80.4781 55.1445C80.4036 55.1558 80.3431 55.2106 80.3246 55.2836C80.306 55.3567 80.333 55.4337 80.3931 55.4792C80.6387 55.6652 81.0867 56.0539 81.4793 56.5323C81.8731 57.0122 82.187 57.5532 82.221 58.0543C82.2123 58.1529 82.2077 58.2536 82.2077 58.3562C82.2077 58.4541 82.283 58.5354 82.3805 58.5431C82.4781 58.5507 82.565 58.482 82.5802 58.3853C82.5972 58.2773 82.6021 58.1688 82.5968 58.0608C82.7291 56.7046 83.7536 55.7938 84.3788 55.4993C84.4475 55.467 84.4899 55.3963 84.4861 55.3204C84.4823 55.2445 84.433 55.1784 84.3613 55.1531C84.0513 55.0436 83.5977 54.7969 83.2239 54.4105C82.8544 54.0287 82.5694 53.5181 82.5647 52.8707C82.5766 52.7606 82.5825 52.6548 82.5825 52.5556C82.5825 52.4563 82.5052 52.3743 82.4061 52.3685ZM82.3587 53.7597C82.4987 54.1184 82.7135 54.4221 82.9545 54.6712C83.2479 54.9743 83.5834 55.2004 83.8809 55.3521C83.3387 55.709 82.6964 56.3614 82.3891 57.261C82.2326 56.913 82.0058 56.583 81.7691 56.2946C81.4806 55.9431 81.1652 55.6384 80.9109 55.4182C81.3876 55.2414 81.7491 54.8876 82.0088 54.482C82.1544 54.2545 82.2703 54.0076 82.3587 53.7597Z" fill="#FFA300"/>
<path d="M71.8047 57.8279C71.1371 57.5921 69.8869 56.7829 69.8831 55.3591C69.895 55.2512 69.9009 55.1487 69.9009 55.0537C69.8885 55.1585 69.8828 55.2603 69.8831 55.3591C69.7785 56.3016 69.2078 57.6469 68.012 57.8279C68.5219 58.214 69.8491 59.4226 69.9147 60.555C69.9056 60.6526 69.9009 60.7524 69.9009 60.8544C69.9164 60.7556 69.9205 60.6556 69.9147 60.555C70.0493 59.1073 71.1358 58.143 71.8047 57.8279Z" fill="#FFA300"/>
<path fill-rule="evenodd" clip-rule="evenodd" d="M69.912 54.8675C69.8129 54.8617 69.7265 54.9341 69.7149 55.0326C69.7021 55.1409 69.6959 55.2465 69.6957 55.3495C69.6448 55.7952 69.484 56.3337 69.199 56.7789C68.9127 57.2261 68.5123 57.5635 67.984 57.6435C67.9095 57.6548 67.849 57.7096 67.8304 57.7827C67.8119 57.8557 67.8389 57.9328 67.8989 57.9782C68.1446 58.1642 68.5925 58.5529 68.9852 59.0314C69.3789 59.5112 69.6928 60.0522 69.7269 60.5533C69.7181 60.6519 69.7136 60.7526 69.7136 60.8552C69.7136 60.9531 69.7888 61.0345 69.8864 61.0421C69.9839 61.0497 70.0709 60.981 70.0861 60.8844C70.1031 60.7763 70.108 60.6678 70.1027 60.5598C70.2349 59.2036 71.2594 58.2928 71.8846 57.9984C71.9534 57.966 71.9958 57.8953 71.9919 57.8194C71.9881 57.7435 71.9389 57.6774 71.8672 57.6521C71.5571 57.5426 71.1035 57.2959 70.7297 56.9096C70.3602 56.5277 70.0753 56.0171 70.0706 55.3697C70.0825 55.2596 70.0884 55.1539 70.0884 55.0546C70.0884 54.9554 70.011 54.8733 69.912 54.8675ZM69.8645 56.2587C70.0046 56.6174 70.2193 56.9211 70.4604 57.1702C70.7537 57.4734 71.0892 57.6995 71.3868 57.8512C70.8446 58.2081 70.2023 58.8605 69.895 59.7601C69.7385 59.412 69.5117 59.0821 69.2749 58.7936C68.9865 58.4421 68.671 58.1375 68.4168 57.9172C68.8935 57.7405 69.255 57.3866 69.5146 56.981C69.6603 56.7535 69.7761 56.5066 69.8645 56.2587Z" fill="#FFA300"/>
<path d="M79.4355 63.2214C78.9643 63.0581 78.0818 62.4979 78.0791 61.5122C78.0875 61.4375 78.0917 61.3665 78.0917 61.3008C78.083 61.3733 78.0789 61.4438 78.0791 61.5122C78.0053 62.1647 77.6024 63.0961 76.7583 63.2214C77.1183 63.4887 78.0551 64.3254 78.1014 65.1094C78.095 65.177 78.0917 65.246 78.0917 65.3166C78.1026 65.2482 78.1056 65.179 78.1014 65.1094C78.1964 64.1071 78.9634 63.4395 79.4355 63.2214Z" fill="#FFA300"/>
<path fill-rule="evenodd" clip-rule="evenodd" d="M78.103 61.1136C78.004 61.1077 77.9176 61.1799 77.9057 61.2783C77.8966 61.3543 77.892 61.4287 77.8918 61.5013C77.8563 61.8015 77.7455 62.1636 77.5507 62.462C77.3548 62.7621 77.0846 62.9834 76.7309 63.0359C76.6559 63.0471 76.5951 63.1022 76.5766 63.1757C76.5582 63.2492 76.5859 63.3266 76.6467 63.3718C76.8173 63.4985 77.1301 63.7646 77.4039 64.0918C77.6788 64.4203 77.8892 64.7809 77.9136 65.107C77.9075 65.1755 77.9044 65.2453 77.9044 65.3165C77.9044 65.4143 77.9795 65.4956 78.0769 65.5033C78.1743 65.5111 78.2613 65.4427 78.2768 65.3462C78.2893 65.2685 78.293 65.1907 78.2894 65.1136C78.3819 64.2044 79.0848 63.5898 79.5142 63.3914C79.5836 63.3594 79.6266 63.2884 79.6228 63.212C79.619 63.1357 79.5692 63.0693 79.497 63.0442C79.2847 62.9707 78.9721 62.804 78.7151 62.5435C78.4625 62.2874 78.2708 61.949 78.2667 61.5219C78.275 61.445 78.2792 61.3707 78.2792 61.3007C78.2792 61.2015 78.202 61.1196 78.103 61.1136ZM78.0692 62.2785C78.1687 62.4826 78.3022 62.6587 78.4483 62.8067C78.6319 62.9928 78.8381 63.1378 79.0297 63.2431C78.6832 63.487 78.2988 63.886 78.0809 64.4191C77.9725 64.2136 77.8333 64.021 77.6913 63.8513C77.5122 63.6372 77.3186 63.448 77.1517 63.3009C77.4576 63.1651 77.6927 62.9302 77.8646 62.6668C77.9452 62.5434 78.0131 62.412 78.0692 62.2785Z" fill="#FFA300"/>
</svg>
