<svg width="116" height="161" viewBox="0 0 116 161" fill="none" xmlns="http://www.w3.org/2000/svg">
<path opacity="0.3" d="M104.605 102.291H73.6377V117.775H99.6055C102.367 117.775 104.605 115.536 104.605 112.775V102.291Z" fill="#E1E5E7"/>
<path opacity="0.3" d="M31.7012 145.517H0.733429V161H26.7012C29.4626 161 31.7012 158.762 31.7012 156V145.517Z" fill="#E1E5E7"/>
<path d="M7.83203 121.969C7.83203 116.446 12.3092 111.969 17.832 111.969H88.1546C93.6775 111.969 98.1546 116.446 98.1546 121.969V143.259C98.1546 148.782 93.6775 153.259 88.1546 153.259H7.83203V121.969Z" fill="#C8CCD0"/>
<path d="M39.7674 135.84L39.1222 137.453C39.0147 137.453 39.0577 137.711 40.09 138.743C41.1222 139.775 43.5308 138.313 44.6061 137.453V135.84H39.7674Z" fill="#805928" stroke="#333333" stroke-width="0.6" stroke-linecap="round" stroke-linejoin="round"/>
<path d="M65.573 135.194L66.2183 135.839C66.3258 135.839 66.3592 137.811 64.9278 138.098C63.3147 138.42 61.8095 137.667 60.7342 136.807V135.194H65.573Z" fill="#805928" stroke="#333333" stroke-width="0.6" stroke-linecap="round" stroke-linejoin="round"/>
<path d="M45.5974 142.483L44.5384 137.432C41.3079 138.372 39.4819 137.942 38.9727 137.61C37.6707 138.212 34.4619 139.676 32.0421 140.71C29.6223 141.745 29.9236 144.231 30.3768 145.344L45.5974 142.483Z" fill="#333333" stroke="#333333" stroke-width="0.6" stroke-linecap="round" stroke-linejoin="round"/>
<path d="M60.7344 141.969V136.808C64.0892 137.066 65.7881 136.27 66.2182 135.84C67.6161 136.162 71.057 136.937 73.6376 137.453C76.2182 137.969 76.4333 140.463 76.2182 141.646L60.7344 141.969Z" fill="#333333" stroke="#333333" stroke-width="0.6" stroke-linecap="round" stroke-linejoin="round"/>
<path d="M40.7353 88.42L66.2191 82.291C66.2191 82.291 67.5817 98.6001 67.832 109.065C68.0791 119.392 67.832 135.517 67.832 135.517C67.832 135.517 65.0796 135.776 63.3159 135.839C61.5522 135.902 58.7998 135.839 58.7998 135.839C57.8707 126.35 56.8643 111.646 56.8643 111.646C56.8643 111.646 55.1183 98.2355 54.2836 89.7104L50.7353 112.291L47.1869 135.839C47.1869 135.839 44.1748 136.162 42.3482 136.162C40.5215 136.162 37.832 135.839 37.832 135.839L39.1224 112.291L40.7353 88.42Z" fill="#165C7D" stroke="#165C7D" stroke-width="0.6" stroke-linecap="round" stroke-linejoin="round"/>
<path d="M98.1543 1V7.45161" stroke="#040F14" stroke-width="0.8" stroke-linecap="round" stroke-linejoin="round"/>
<path d="M91.7031 4.22559L95.3527 7.87517" stroke="#040F14" stroke-width="0.8" stroke-linecap="round" stroke-linejoin="round"/>
<path d="M104.385 4.22559L100.735 7.87517" stroke="#040F14" stroke-width="0.8" stroke-linecap="round" stroke-linejoin="round"/>
<path d="M112.347 29.7103L106.852 27.0767" stroke="#040F14" stroke-width="0.8" stroke-linecap="round" stroke-linejoin="round"/>
<path d="M112.4 22.4668L107.591 24.3402" stroke="#040F14" stroke-width="0.8" stroke-linecap="round" stroke-linejoin="round"/>
<path d="M107.301 34.0781L105.427 29.2688" stroke="#040F14" stroke-width="0.8" stroke-linecap="round" stroke-linejoin="round"/>
<path d="M89.1214 49.3864L86.5408 50.3542L78.7988 28.4187L96.5408 10.6768C98.7988 11.6445 100.826 14.6618 102.347 17.451C104.283 20.9993 104.713 25.4079 104.283 26.4832L87.1859 31.3219L89.1214 49.3864Z" fill="#016D33"/>
<path d="M104.283 26.4832L87.1859 31.3219L89.1214 49.3864L86.5408 50.3542L78.7988 28.4187L96.5408 10.6768M104.283 26.4832C104.713 25.4079 104.283 20.9993 102.347 17.451C100.826 14.6618 98.7988 11.6445 96.5408 10.6768M104.283 26.4832C96.5408 21.0639 95.8956 13.6875 96.5408 10.6768" stroke="#025521" stroke-width="0.6" stroke-linejoin="round"/>
<path d="M96.8633 11.3236V11.3223C99.4439 13.2577 103.96 19.3868 103.96 25.5158C96.864 20.3552 96.8636 14.7203 96.8633 11.3236Z" fill="#00B040"/>
<path d="M83.3642 39.0157L79.6029 42.777L82.2344 47.313L84.3751 44.5479L83.5712 42.4641C83.8081 41.878 83.8101 41.3114 83.8192 40.9457C83.83 40.514 83.911 40.1525 84.5567 40.2082C84.5567 40.2082 85.8565 40.564 86.494 40.3754C87.1314 40.1869 87.4971 39.5594 87.6002 39.2692C86.7638 39.1703 84.9478 38.9473 84.3751 38.8466C83.8024 38.7459 83.4625 38.9173 83.3642 39.0157Z" fill="#805928"/>
<path d="M82.2344 43.9335C82.9721 43.511 83.3627 42.98 83.5712 42.4641M83.5712 42.4641C83.8081 41.878 83.8101 41.3114 83.8192 40.9457C83.83 40.514 83.911 40.1525 84.5567 40.2082C84.5567 40.2082 85.8565 40.564 86.494 40.3754C87.1314 40.1869 87.4971 39.5594 87.6002 39.2692C86.7638 39.1703 84.9478 38.9473 84.3751 38.8466C83.8024 38.7459 83.4625 38.9173 83.3642 39.0157L79.6029 42.777L82.2344 47.313L84.3751 44.5479L83.5712 42.4641Z" stroke="#333333" stroke-width="0.6" stroke-linejoin="round"/>
<path d="M87.3657 41.9815L88.5304 42.6952L89.3639 42.6022L88.8849 38.3158L87.3496 37.5228C86.8627 37.4808 86.9491 38.1119 87.0531 38.4327L86.8341 38.3038C86.6843 38.4009 86.1597 38.7408 86.7025 39.2829L86.9672 39.4944C86.61 39.5343 86.4251 40.0372 86.9679 40.5793C86.6188 40.9076 87.0921 41.6906 87.3657 41.9815Z" fill="#805928"/>
<path d="M86.9679 40.5793C86.6188 40.9076 87.0921 41.6906 87.3657 41.9815L88.5304 42.6952L89.3639 42.6022L88.8849 38.3158L87.3496 37.5228C86.8627 37.4808 86.9491 38.1119 87.0531 38.4327M86.9679 40.5793L89.165 41.901M86.9679 40.5793C86.4251 40.0372 86.61 39.5343 86.9672 39.4944M89.0319 40.7103L86.9672 39.4944M86.9672 39.4944L86.7025 39.2829C86.1597 38.7408 86.6843 38.4009 86.8341 38.3038L87.0531 38.4327M88.8989 39.5197L87.0531 38.4327" stroke="#333333" stroke-width="0.6" stroke-linejoin="round"/>
<path d="M37.5098 93.5806V88.884L41.7033 88.0967C41.9184 88.8494 42.542 90.8064 43.3162 92.6128C43.7439 93.6107 44.7137 94.9772 44.9291 95.8386C45.1037 96.5365 44.9291 96.8064 44.6065 97.1289L41.7033 94.2257L42.3485 100.032C42.0904 100.29 40.9506 99.2795 40.413 98.7418C40.3055 98.7418 39.8969 98.6128 39.1227 98.0967C38.3485 97.5806 37.7248 94.8709 37.5098 93.5806Z" fill="#805928" stroke="#333333" stroke-width="0.6" stroke-linecap="round" stroke-linejoin="round"/>
<path d="M40.7354 94.5482L41.3805 99.3869" stroke="#333333" stroke-width="0.5" stroke-linecap="round"/>
<path d="M39.9293 93.9032L40.4131 98.7421" stroke="#333333" stroke-width="0.5" stroke-linecap="round"/>
<path d="M38.961 93.7546L39.4448 98.0967" stroke="#333333" stroke-width="0.5" stroke-linecap="round"/>
<path d="M54.6056 39.7093C51.2508 41.5158 48.4766 40.462 47.5089 39.7093L46.8637 36.4835C46.4336 34.6556 45.7024 30.0964 46.2185 26.4835C46.8637 21.9674 54.1145 24.3795 55.8961 26.161C57.509 27.7738 59.0142 30.7846 60.4121 32.29H59.1218C59.3798 32.8061 59.2293 34.2255 59.1218 34.8706C59.0142 35.7308 59.7026 37.1932 58.1542 37.4513C57.0244 37.6396 55.4823 37.0951 54.6058 36.4945L54.6056 39.7093Z" fill="#805928"/>
<path d="M47.5089 39.7093L47.2147 39.7682L47.2366 39.8776L47.3247 39.9461L47.5089 39.7093ZM54.6056 39.7093L54.7479 39.9735L54.9056 39.8885L54.9056 39.7094L54.6056 39.7093ZM54.9058 36.4836C54.9058 36.3179 54.7715 36.1835 54.6058 36.1835C54.4401 36.1835 54.3058 36.3178 54.3058 36.4835L54.9058 36.4836ZM54.2362 35.7202C54.1709 35.5679 53.9946 35.4974 53.8423 35.5626C53.69 35.6279 53.6195 35.8043 53.6847 35.9565L54.2362 35.7202ZM58.1542 37.4513L58.2035 37.7472L58.1542 37.4513ZM59.1218 34.8706L58.8256 34.8213L58.8241 34.8334L59.1218 34.8706ZM59.1218 32.29V31.99H58.6364L58.8534 32.4241L59.1218 32.29ZM60.4121 32.29V32.59C60.5314 32.59 60.6394 32.5193 60.6871 32.4099C60.7348 32.3005 60.7131 32.1733 60.6319 32.0858L60.4121 32.29ZM55.8961 26.161L55.684 26.3731L55.8961 26.161ZM46.2185 26.4835L46.5155 26.526L46.2185 26.4835ZM46.8637 36.4835L47.158 36.4246L47.1557 36.4148L46.8637 36.4835ZM47.3247 39.9461C48.3775 40.765 51.279 41.8413 54.7479 39.9735L54.4634 39.4452C51.2226 41.1902 48.5757 40.1591 47.693 39.4725L47.3247 39.9461ZM54.3058 36.4835L54.3058 36.4945L54.9058 36.4946L54.9058 36.4836L54.3058 36.4835ZM54.3058 36.4945L54.3056 39.7093L54.9056 39.7094L54.9058 36.4946L54.3058 36.4945ZM53.6847 35.9565C53.8072 36.2423 54.1018 36.5129 54.4362 36.742L54.7754 36.2471C54.4603 36.0312 54.2881 35.8414 54.2362 35.7202L53.6847 35.9565ZM54.4362 36.742C54.9034 37.0621 55.5373 37.361 56.2001 37.5565C56.8601 37.7511 57.5771 37.8516 58.2035 37.7472L58.1049 37.1553C57.6014 37.2393 56.9825 37.1616 56.3698 36.981C55.7601 36.8012 55.1847 36.5275 54.7753 36.2471L54.4362 36.742ZM58.2035 37.7472C58.64 37.6744 58.9611 37.5089 59.1744 37.2516C59.3848 36.9978 59.4578 36.6934 59.4776 36.4074C59.4971 36.125 59.4661 35.8268 59.4416 35.5717C59.4156 35.3016 59.3975 35.0837 59.4194 34.9078L58.8241 34.8334C58.7923 35.0876 58.8199 35.3751 58.8443 35.6292C58.8702 35.8983 58.8944 36.1431 58.879 36.3661C58.8638 36.5855 58.8119 36.7488 58.7125 36.8687C58.616 36.9851 58.4426 37.0991 58.1049 37.1553L58.2035 37.7472ZM59.4177 34.9199C59.4731 34.5877 59.5393 34.0586 59.5586 33.5432C59.5683 33.2856 59.5666 33.0254 59.5444 32.7918C59.5229 32.565 59.4797 32.3351 59.3901 32.1558L58.8534 32.4241C58.8928 32.5029 58.9277 32.644 58.9471 32.8486C58.9659 33.0465 58.9682 33.2783 58.9591 33.5206C58.9408 34.0053 58.878 34.5084 58.8258 34.8213L59.4177 34.9199ZM59.1218 32.59H60.4121V31.99H59.1218V32.59ZM60.6319 32.0858C59.9544 31.3562 59.2451 30.2541 58.4853 29.1007C57.7359 27.9633 56.9401 26.7807 56.1082 25.9489L55.684 26.3731C56.465 27.1542 57.2282 28.2833 57.9842 29.4308C58.7297 30.5624 59.4719 31.7184 60.1922 32.4941L60.6319 32.0858ZM56.1082 25.9489C55.6246 25.4653 54.7984 24.9623 53.842 24.5493C52.8801 24.1339 51.7589 23.7976 50.6679 23.6629C49.5822 23.5289 48.4943 23.5907 47.623 24.0066C46.7319 24.4321 46.0967 25.2152 45.9216 26.4411L46.5155 26.526C46.663 25.4938 47.176 24.8849 47.8815 24.5481C48.607 24.2018 49.5641 24.1312 50.5944 24.2584C51.6195 24.3849 52.6853 24.7033 53.6042 25.1001C54.5286 25.4993 55.2768 25.966 55.684 26.3731L56.1082 25.9489ZM45.9216 26.4411C45.3976 30.1084 46.1382 34.7101 46.5717 36.5522L47.1557 36.4148C46.7289 34.601 46.0072 30.0845 46.5155 26.526L45.9216 26.4411ZM46.5695 36.5424L47.2147 39.7682L47.803 39.6505L47.1579 36.4247L46.5695 36.5424Z" fill="#333333"/>
<circle cx="55.8968" cy="29.0648" r="0.322581" fill="#333333"/>
<path d="M59.7869 24.4131C58.7546 26.4776 55.7475 27.1172 54.3496 26.6871C54.237 27.7008 54.3496 29.897 52.3675 29.897C50.8009 30.5422 51.4675 32.613 50.8009 33.4614C50.3708 32.8162 49.188 31.8485 48.2207 32.8162C47.5629 33.4742 48.5432 34.5366 49.1884 35.0742C48.743 35.2842 47.594 35.7686 46.5617 36.0266C45.5295 36.2847 45.5769 31.7204 45.2697 31.1879C45.0775 30.6118 42.2803 31.1757 42.0441 28.9299C41.8836 27.4035 42.821 27.3104 42.3675 26.0266C41.6783 24.0758 42.9489 25.7564 44.9471 24.0912C45.9299 23.2721 45.7825 19.3241 47.5288 19.2524C49.2213 19.1829 51.0772 18.6067 51.3998 19.897C51.3998 21.8325 53.9804 19.2518 55.5933 19.897C56.5611 22.4777 60.3315 23.3238 59.7869 24.4131Z" fill="#333333" stroke="#333333" stroke-width="0.5" stroke-linecap="round" stroke-linejoin="round"/>
<path d="M37.9938 43.9035C39.8003 40.5487 45.5741 39.71 47.5096 39.71C47.5096 39.71 49.1225 40.6779 51.058 40.6779C52.9934 40.6779 54.6063 39.71 54.6063 39.71C59.2834 39.7099 59.7676 39.7101 62.9934 41.323C66.2193 42.9359 71.058 50.6777 71.058 50.6777L79.4451 42.6132C79.4451 42.6132 80.4911 43.9264 81.058 44.8713C81.6249 45.8161 82.3483 47.4519 82.3483 47.4519C82.3483 47.4519 72.682 63.5809 69.1225 63.5809C66.494 63.5809 65.0214 57.4245 64.4308 54.2039C64.8989 57.248 65.736 63.2761 65.736 67.4519C65.736 73.2481 66.2193 82.2908 66.2193 82.2908C66.2193 82.2908 59.3695 84.4456 54.9289 85.5164C50.4884 86.5872 43.4777 87.7745 43.4777 87.7745C43.4777 87.7745 41.476 88.4903 40.0902 88.7422C38.7045 88.9942 36.3809 89.0648 36.3809 89.0648C36.3809 89.0648 30.6819 71.6454 31.8647 65.5164C33.0475 59.3874 36.1874 47.2583 37.9938 43.9035Z" fill="#007D8A"/>
<path d="M43.4777 87.7745L41.2196 68.4196L43.4777 55.839M43.4777 87.7745C43.4777 87.7745 50.4884 86.5872 54.9289 85.5164C59.3695 84.4456 66.2193 82.2908 66.2193 82.2908C66.2193 82.2908 65.736 73.2481 65.736 67.4519C65.736 61.6556 64.1231 52.2906 64.1231 52.2906C64.1231 52.2906 65.563 63.5809 69.1225 63.5809C72.682 63.5809 82.3483 47.4519 82.3483 47.4519C82.3483 47.4519 81.6249 45.8161 81.058 44.8713C80.4911 43.9264 79.4451 42.6132 79.4451 42.6132L71.058 50.6777C71.058 50.6777 66.2193 42.9359 62.9934 41.323C59.7676 39.7101 59.2834 39.7099 54.6064 39.71C54.6064 39.71 52.9934 40.6779 51.058 40.6779C49.1225 40.6779 47.5096 39.71 47.5096 39.71C45.5741 39.71 39.8003 40.5487 37.9938 43.9035C36.1874 47.2583 33.0475 59.3874 31.8647 65.5164C30.6819 71.6454 36.3809 89.0648 36.3809 89.0648C36.3809 89.0648 38.7045 88.9942 40.0902 88.7422C41.476 88.4903 43.4777 87.7745 43.4777 87.7745Z" stroke="#01727D" stroke-width="0.6" stroke-linecap="round" stroke-linejoin="round"/>
</svg>
