<svg width="183" height="160" viewBox="0 0 183 160" fill="none" xmlns="http://www.w3.org/2000/svg">
<path opacity="0.5" d="M33.1855 8.29016C33.1855 3.71163 36.8972 0 41.4757 0H140.958C145.536 0 149.248 3.71163 149.248 8.29016V149.223H33.1855V8.29016Z" fill="#C6CED1"/>
<path d="M45.6211 15.7514C45.6211 13.0043 47.8481 10.7773 50.5952 10.7773H131.839C134.586 10.7773 136.813 13.0043 136.813 15.7514C136.813 18.4986 134.586 20.7255 131.839 20.7255H50.5952C47.8481 20.7255 45.6211 18.4986 45.6211 15.7514Z" fill="#C8CCD0"/>
<path fill-rule="evenodd" clip-rule="evenodd" d="M129.766 16.9942C130.682 16.9942 131.424 16.2519 131.424 15.3362C131.424 14.4205 130.682 13.6782 129.766 13.6782C128.85 13.6782 128.108 14.4205 128.108 15.3362C128.108 16.2519 128.85 16.9942 129.766 16.9942ZM129.766 17.4087C130.911 17.4087 131.838 16.4808 131.838 15.3362C131.838 14.1916 130.911 13.2637 129.766 13.2637C128.621 13.2637 127.693 14.1916 127.693 15.3362C127.693 16.4808 128.621 17.4087 129.766 17.4087Z" fill="#566476"/>
<path fill-rule="evenodd" clip-rule="evenodd" d="M131.262 16.4499C131.334 16.3605 131.464 16.346 131.554 16.4175L133.626 18.0755C133.715 18.147 133.73 18.2775 133.658 18.3668C133.587 18.4562 133.457 18.4707 133.367 18.3992L131.295 16.7412C131.205 16.6697 131.191 16.5392 131.262 16.4499Z" fill="#566476"/>
<path d="M182.407 153.367C182.407 157.03 141.579 160 91.2151 160C40.8514 160 0.0234375 157.03 0.0234375 153.367C0.0234375 149.705 40.8514 146.735 91.2151 146.735C141.579 146.735 182.407 149.705 182.407 153.367Z" fill="#C8CCD0"/>
<path d="M41.9823 138.446L47.6337 141.917C45.0951 145.416 44.8239 147.812 45.0056 148.572C43.7123 149.886 40.5507 153.133 38.2501 155.611C35.9496 158.09 33.0734 156.648 31.9229 155.617L41.9823 138.446Z" fill="#333333"/>
<path fill-rule="evenodd" clip-rule="evenodd" d="M45.2472 148.514C45.2671 148.597 45.2427 148.685 45.1825 148.746C43.8898 150.059 40.7302 153.304 38.4321 155.78C37.2202 157.086 35.8405 157.367 34.6166 157.176C33.4077 156.987 32.3584 156.341 31.7567 155.802C31.6686 155.723 31.6483 155.593 31.7081 155.491L41.7675 138.32C41.8013 138.262 41.8569 138.22 41.9217 138.204C41.9866 138.188 42.0552 138.199 42.1122 138.234L47.7636 141.704C47.8226 141.741 47.8639 141.8 47.8774 141.868C47.8909 141.936 47.8754 142.006 47.8348 142.062C46.5786 143.794 45.8893 145.245 45.5361 146.347C45.18 147.459 45.1714 148.197 45.2472 148.514ZM44.7368 148.49C44.6675 148.021 44.7293 147.235 45.0624 146.196C45.4186 145.084 46.091 143.662 47.2757 141.989L42.0683 138.79L32.2425 155.563C32.8075 156.023 33.6972 156.529 34.6933 156.684C35.7702 156.852 36.9789 156.615 38.0675 155.442C40.3182 153.017 43.3906 149.859 44.7368 148.49Z" fill="#333333"/>
<path d="M49.5242 143.151L47.7574 142.068C47.8031 141.937 47.3681 141.99 45.6779 142.803C43.9877 143.617 44.4499 146.898 45.0366 148.568L47.2814 149.513L49.5242 143.151Z" fill="#D8BA8A"/>
<path fill-rule="evenodd" clip-rule="evenodd" d="M49.6537 142.938C49.7537 142.999 49.7972 143.122 49.7582 143.233L47.5154 149.595C47.4926 149.66 47.4442 149.712 47.3815 149.74C47.3188 149.767 47.2475 149.768 47.1843 149.742L44.9395 148.796C44.8749 148.769 44.8247 148.716 44.8014 148.649C44.5003 147.793 44.2311 146.525 44.2542 145.359C44.2769 144.214 44.5865 143.052 45.5695 142.578C46.4173 142.17 46.9617 141.947 47.2937 141.843C47.4535 141.793 47.5888 141.762 47.6918 141.764C47.7351 141.764 47.8327 141.77 47.9136 141.84C47.9348 141.859 47.9531 141.88 47.9679 141.904L49.6537 142.938ZM49.2223 143.257L47.6269 142.279C47.6229 142.276 47.6191 142.274 47.6153 142.271C47.576 142.279 47.5197 142.294 47.4425 142.318C47.1458 142.411 46.6276 142.621 45.7852 143.027C45.078 143.367 44.7736 144.252 44.7515 145.369C44.7307 146.418 44.9643 147.571 45.2352 148.381L47.1341 149.181L49.2223 143.257ZM47.686 142.261C47.691 142.261 47.6899 142.262 47.6843 142.261C47.6849 142.261 47.6855 142.261 47.686 142.261Z" fill="#333333"/>
<path d="M123.132 141.763L123.961 142.592C124.099 142.592 124.142 145.125 122.303 145.493C120.23 145.908 118.296 144.941 116.914 143.835V141.763H123.132Z" fill="#D8BA8A"/>
<path fill-rule="evenodd" clip-rule="evenodd" d="M123.307 141.586C123.26 141.54 123.197 141.514 123.131 141.514H116.914C116.776 141.514 116.665 141.625 116.665 141.762V143.835C116.665 143.91 116.699 143.982 116.758 144.029C118.164 145.154 120.173 146.172 122.351 145.737C123.4 145.527 123.897 144.697 124.111 143.975C124.219 143.612 124.261 143.261 124.267 142.998C124.27 142.868 124.264 142.752 124.25 142.663C124.244 142.621 124.233 142.572 124.216 142.528C124.207 142.507 124.191 142.472 124.163 142.438C124.152 142.425 124.135 142.408 124.112 142.391L123.307 141.586ZM123.028 142.011L123.759 142.742C123.767 142.793 123.772 142.877 123.77 142.988C123.765 143.211 123.728 143.517 123.634 143.833C123.445 144.47 123.044 145.091 122.253 145.249C120.331 145.634 118.511 144.768 117.162 143.714V142.011H123.028ZM123.96 142.84C123.953 142.84 123.945 142.84 123.937 142.839C123.944 142.84 123.952 142.84 123.96 142.84Z" fill="#333333"/>
<path d="M116.914 150.466V143.834C121.225 144.166 123.408 143.143 123.961 142.591C125.757 143.005 130.178 144 133.494 144.663C136.81 145.327 137.087 148.532 136.81 150.052L116.914 150.466Z" fill="#333333"/>
<path fill-rule="evenodd" clip-rule="evenodd" d="M123.784 142.416C123.844 142.355 123.932 142.33 124.015 142.349C125.811 142.763 130.229 143.758 133.542 144.42C135.289 144.77 136.25 145.798 136.728 146.941C137.2 148.07 137.198 149.302 137.054 150.097C137.033 150.213 136.933 150.299 136.814 150.301L116.918 150.716C116.851 150.717 116.787 150.692 116.739 150.645C116.691 150.598 116.664 150.534 116.664 150.467V143.835C116.664 143.766 116.693 143.7 116.744 143.653C116.795 143.605 116.863 143.582 116.932 143.587C119.065 143.751 120.662 143.579 121.786 143.303C122.92 143.025 123.553 142.646 123.784 142.416ZM124.03 142.863C123.667 143.168 122.965 143.526 121.905 143.786C120.771 144.065 119.207 144.236 117.161 144.102V150.213L136.596 149.808C136.693 149.086 136.658 148.063 136.269 147.133C135.848 146.127 135.013 145.222 133.444 144.908C130.2 144.259 125.901 143.294 124.03 142.863Z" fill="#333333"/>
<path d="M77.1237 121.866C70.4915 112.249 73.2549 99.0681 75.4656 93.6795C87.6246 94.094 113.02 93.3479 122.305 93.6795C131.59 94.0111 131.839 102.384 131.839 106.529L130.181 142.177C130.181 142.177 125.634 142.591 122.72 142.591C119.806 142.591 115.259 142.177 115.259 142.177L112.357 111.503C112.357 111.503 109.456 112.747 106.554 113.576C104.019 114.3 99.5074 114.405 99.5074 114.405C98.1257 121.728 95.1136 137.534 94.1188 142.177C93.124 146.819 87.2103 150.605 84.1706 150.882C84.1706 150.882 72.0778 152.72 64.2742 153.369C56.2018 154.039 43.5488 154.198 43.5488 154.198C43.5488 154.198 45.0744 149.155 46.4504 146.322C47.8263 143.489 50.5955 139.69 50.5955 139.69L77.1237 136.374C76.1286 134.384 76.7091 125.873 77.1237 121.866Z" fill="#8F6E0D"/>
<path fill-rule="evenodd" clip-rule="evenodd" d="M101.541 93.4451C109.988 93.3571 117.935 93.2742 122.313 93.4306C124.672 93.5149 126.476 94.1111 127.85 95.0377C129.223 95.9642 130.152 97.2104 130.779 98.5698C132.027 101.278 132.086 104.459 132.086 106.529V106.54L130.428 142.188C130.422 142.312 130.326 142.413 130.202 142.424L130.201 142.424L130.15 142.429L130 142.442C129.87 142.453 129.68 142.47 129.444 142.489C128.971 142.528 128.311 142.58 127.559 142.632C126.057 142.735 124.184 142.84 122.718 142.84C121.253 142.84 119.38 142.735 117.878 142.632C117.126 142.58 116.466 142.528 115.993 142.489C115.757 142.47 115.567 142.453 115.437 142.442L115.287 142.429L115.236 142.424L115.257 142.177L115.235 142.424C115.116 142.413 115.021 142.319 115.01 142.2L112.14 111.863C112.084 111.886 112.021 111.912 111.951 111.94C111.632 112.071 111.177 112.253 110.631 112.461C109.539 112.877 108.081 113.397 106.621 113.815C105.328 114.184 103.545 114.393 102.099 114.51C101.373 114.568 100.727 114.604 100.262 114.625C100.03 114.636 99.8426 114.643 99.7134 114.647C98.3159 122.051 95.3475 137.624 94.3606 142.229C93.8461 144.63 92.0694 146.782 90.0641 148.362C88.0642 149.936 85.785 150.981 84.1994 151.128L84.1978 151.128L84.0686 151.148C84.0194 151.155 83.9575 151.165 83.8835 151.176C83.8211 151.185 83.7502 151.196 83.6711 151.207C83.3249 151.259 82.8218 151.333 82.1936 151.425C80.9374 151.607 79.1811 151.858 77.1808 152.128C73.1813 152.669 68.202 153.291 64.2935 153.616C60.2503 153.952 55.0635 154.159 50.8904 154.283C48.8032 154.345 46.9685 154.385 45.6555 154.411C44.999 154.423 44.4729 154.432 44.1108 154.438C43.9298 154.441 43.7898 154.443 43.6951 154.444L43.553 154.446L43.5512 154.446C43.5511 154.446 43.5506 154.446 43.5475 154.197C43.3095 154.125 43.3095 154.125 43.3095 154.125L43.3106 154.121L43.314 154.11L43.3272 154.067C43.3387 154.029 43.3559 153.973 43.3782 153.901C43.4228 153.757 43.4879 153.549 43.5704 153.29C43.7353 152.771 43.9696 152.051 44.247 151.241C44.8008 149.625 45.5303 147.644 46.2254 146.213C46.9208 144.781 47.9646 143.112 48.8303 141.806C49.2639 141.152 49.6543 140.586 49.9364 140.184C50.0775 139.984 50.1915 139.823 50.2703 139.713C50.3097 139.658 50.3404 139.616 50.3612 139.587L50.3849 139.554L50.391 139.546L50.3926 139.544L50.3931 139.543C50.4336 139.488 50.4952 139.451 50.5633 139.443L76.7691 136.167C76.5763 135.604 76.4614 134.79 76.3962 133.848C76.3164 132.697 76.3087 131.312 76.3451 129.87C76.4168 127.027 76.6598 123.942 76.8656 121.931C73.5518 117.081 72.5903 111.357 72.7287 106.18C72.8677 100.977 74.1182 96.305 75.2342 93.5847C75.2737 93.4885 75.3689 93.427 75.4728 93.4306C81.5455 93.6376 90.9278 93.5548 99.9594 93.4615C100.488 93.4561 101.016 93.4506 101.541 93.4451ZM50.7323 139.923C50.716 139.945 50.6967 139.972 50.6746 140.003C50.5966 140.112 50.4836 140.271 50.3435 140.47C50.0634 140.869 49.6755 141.431 49.2449 142.081C48.382 143.382 47.3533 145.029 46.6728 146.43C45.9919 147.832 45.2706 149.789 44.7176 151.402C44.4416 152.208 44.2085 152.925 44.0444 153.44C43.9806 153.641 43.9273 153.811 43.8859 153.944C43.9499 153.943 44.0224 153.942 44.1031 153.94C44.4646 153.935 44.99 153.926 45.6459 153.913C46.9576 153.888 48.7906 153.847 50.8757 153.786C55.0472 153.662 60.223 153.455 64.2523 153.12C68.1474 152.797 73.1163 152.176 77.1141 151.635C79.1124 151.365 80.8671 151.115 82.1221 150.933C82.7496 150.841 83.2521 150.767 83.5978 150.715C83.7706 150.69 83.9042 150.67 83.9945 150.656L84.1314 150.635C84.1315 150.635 84.1319 150.635 84.1693 150.881L84.1314 150.635C84.1348 150.635 84.1388 150.634 84.1423 150.634C84.1438 150.634 84.1453 150.634 84.1468 150.634C85.6006 150.501 87.794 149.516 89.7563 147.971C91.7164 146.427 93.394 144.366 93.8743 142.124C94.8682 137.486 97.8789 121.687 99.2612 114.361C99.6763 111.871 99.6775 111.865 100.507 108.133C100.537 107.999 100.669 107.914 100.804 107.944C100.938 107.974 101.022 108.107 100.992 108.241C100.493 110.488 100.295 111.379 100.126 112.275C100.026 112.804 99.9367 113.335 99.8012 114.146C99.9181 114.142 100.066 114.136 100.239 114.128C100.7 114.107 101.34 114.072 102.059 114.014C103.502 113.897 105.242 113.691 106.484 113.336C107.926 112.925 109.369 112.409 110.454 111.996C110.996 111.789 111.447 111.609 111.763 111.48C111.921 111.415 112.045 111.364 112.129 111.329C112.172 111.311 112.204 111.297 112.225 111.288L112.243 111.281C114.278 110.058 115.09 109.246 115.907 108.429L115.911 108.426C116.008 108.328 116.165 108.328 116.262 108.426C116.359 108.523 116.359 108.68 116.262 108.777C115.443 109.597 114.616 110.422 112.618 111.635L115.485 141.947C115.615 141.958 115.802 141.974 116.034 141.993C116.505 142.032 117.163 142.084 117.912 142.136C119.412 142.239 121.271 142.342 122.718 142.342C124.166 142.342 126.025 142.239 127.525 142.136C128.274 142.084 128.932 142.032 129.403 141.993C129.629 141.975 129.812 141.959 129.941 141.948L131.589 106.523C131.589 104.448 131.523 101.373 130.327 98.7781C129.731 97.4846 128.856 96.3163 127.572 95.4501C126.288 94.584 124.578 94.0092 122.295 93.9277C117.93 93.7718 109.992 93.8545 101.537 93.9426C101.015 93.948 100.49 93.9535 99.9645 93.9589C91.0226 94.0513 81.7199 94.1336 75.6296 93.9335C74.5514 96.6239 73.3605 101.156 73.2259 106.194C73.0886 111.332 74.0507 116.974 77.3271 121.724C77.3607 121.773 77.3758 121.832 77.3697 121.891C77.1629 123.89 76.9147 127.013 76.8424 129.882C76.8062 131.317 76.8141 132.684 76.8924 133.813C76.9716 134.956 77.1209 135.815 77.3448 136.262C77.3809 136.334 77.3797 136.42 77.3416 136.491C77.3036 136.562 77.2333 136.61 77.1532 136.62L50.7323 139.923ZM43.5475 154.197L43.3095 154.125C43.2865 154.201 43.3011 154.283 43.3487 154.347C43.3964 154.41 43.472 154.447 43.5512 154.446L43.5475 154.197Z" fill="#85630C"/>
<path d="M78.367 101.555C77.0406 102.218 74.4983 101.831 73.393 101.555C73.1719 102.881 72.9163 105.151 72.9782 107.358C73.0323 109.289 72.8806 112.234 73.8075 113.161C75.051 114.404 76.709 113.99 78.367 113.575L78.367 113.575V101.555Z" fill="#85630C"/>
<path d="M95.4194 53.9062C91.1085 56.2274 87.5437 54.8733 86.3002 53.9062L85.4712 49.7611C84.9185 47.4122 83.979 41.5538 84.6422 36.9113C85.4712 31.1082 94.7883 34.2077 97.0776 36.4969C99.1501 38.5694 101.084 42.4381 102.881 44.3725H101.222C101.554 45.0357 101.361 46.8595 101.222 47.6885C101.084 48.7939 100.694 50.5705 98.6765 50.5705C97.323 50.5705 96.215 50.2021 95.4194 49.7328V53.9062Z" fill="#D8BA8A"/>
<path fill-rule="evenodd" clip-rule="evenodd" d="M94.3826 34.5512C95.6042 35.0787 96.6481 35.7167 97.2521 36.3207C98.3094 37.378 99.3246 38.8855 100.289 40.3493C100.361 40.4586 100.433 40.5677 100.504 40.6763C101.398 42.0352 102.246 43.325 103.061 44.2029C103.129 44.2754 103.147 44.3809 103.107 44.4716C103.068 44.5622 102.978 44.6209 102.879 44.6209H101.566C101.595 44.75 101.615 44.8886 101.628 45.03C101.656 45.3219 101.658 45.6498 101.646 45.9774C101.621 46.63 101.538 47.3012 101.467 47.7241C101.397 48.2817 101.26 49.0466 100.863 49.6763C100.453 50.3263 99.7744 50.8188 98.6752 50.8188C97.4754 50.8188 96.4577 50.5388 95.6667 50.1491V54.0544L95.5359 54.1248C91.1305 56.497 87.4602 55.1242 86.1462 54.1022L86.0731 54.0453L85.2268 49.8136C84.6712 47.4503 83.7254 41.5607 84.3946 36.8758C84.6134 35.3447 85.4017 34.3782 86.5045 33.8517C87.5908 33.3331 88.9589 33.2517 90.3414 33.4223C91.7282 33.5935 93.1564 34.0216 94.3826 34.5512ZM95.1693 49.8723C94.5423 49.4794 94.0975 49.0174 93.8932 48.6088C93.8317 48.486 93.8815 48.3366 94.0044 48.2751C94.1272 48.2137 94.2766 48.2635 94.3381 48.3864C94.4985 48.7073 94.9035 49.1401 95.5444 49.5182C96.3027 49.9656 97.3671 50.3214 98.6752 50.3214C99.5931 50.3214 100.118 49.9257 100.442 49.4111C100.778 48.878 100.906 48.2047 100.974 47.6574L100.976 47.6473C101.043 47.2408 101.125 46.5884 101.149 45.9587C101.161 45.6437 101.158 45.3395 101.133 45.077C101.107 44.809 101.061 44.6075 100.999 44.4834L100.819 44.1234H102.33C101.601 43.2491 100.853 42.1125 100.096 40.9607C100.022 40.8482 99.9478 40.7355 99.8737 40.623C98.9038 39.1507 97.9156 37.6876 96.9004 36.6724C96.3597 36.1318 95.3805 35.5239 94.1854 35.0078C92.9949 34.4937 91.6127 34.0804 90.2805 33.916C88.9439 33.751 87.6842 33.8397 86.7188 34.3006C85.7699 34.7536 85.0828 35.5757 84.887 36.9462C84.2303 41.5436 85.162 47.3666 85.7119 49.7038L85.7139 49.7119L86.5242 53.7644C87.7493 54.6639 91.0958 55.8859 95.1693 53.7563V49.8723Z" fill="#333333"/>
<path d="M97.0203 39.7931L150.492 25.6998C151.735 25.4235 154.72 25.4511 155.052 29.4304C155.252 31.8321 154.703 35.2074 153.176 37.7205C152.173 39.3713 150.747 40.6501 148.834 41.0366C148.511 41.1019 148.209 41.1145 147.928 41.0801L97.0203 43.5237C94.9477 43.5236 95.3628 40.2076 97.0203 39.7931Z" fill="#016D33"/>
<path fill-rule="evenodd" clip-rule="evenodd" d="M148.72 26.4233C148.288 26.7714 147.862 27.1924 147.462 27.6705C146.526 28.7869 145.71 30.236 145.276 31.8526C144.724 33.9122 144.639 36.1609 145.047 37.9485C145.335 39.2148 145.887 40.3028 146.738 40.8879L97.0132 43.2746C96.5736 43.2731 96.2902 43.1011 96.1139 42.8542C95.9294 42.5959 95.8448 42.2298 95.8685 41.8281C95.892 41.4283 96.022 41.017 96.2369 40.6859C96.4516 40.355 96.7409 40.1186 97.0793 40.034L148.72 26.4233ZM147.937 40.8303C146.745 40.673 145.92 39.5432 145.532 37.838C145.145 36.1412 145.222 33.9756 145.757 31.9815C146.17 30.4412 146.949 29.056 147.843 27.99C148.737 26.9233 149.727 26.1979 150.554 25.9401C151.146 25.8104 152.133 25.7588 153.001 26.1915C153.853 26.6158 154.643 27.5316 154.802 29.4507C154.999 31.8096 154.457 35.1304 152.962 37.591C151.986 39.1972 150.618 40.4156 148.802 40.7888L147.937 40.8303ZM147.918 41.3292C148.222 41.3638 148.543 41.3484 148.882 41.2801C150.883 40.8757 152.36 39.5394 153.387 37.8493C154.946 35.2836 155.502 31.8539 155.298 29.4094C155.126 27.3492 154.258 26.2615 153.223 25.7463C152.211 25.2418 151.089 25.3116 150.437 25.4567L96.9587 39.5515C96.9582 39.5516 96.9577 39.5517 96.9571 39.5518C96.4675 39.6748 96.0839 40.008 95.8197 40.4151C95.5553 40.8224 95.4002 41.3178 95.3719 41.7988C95.3437 42.2779 95.4403 42.7668 95.7091 43.1432C95.9853 43.53 96.4256 43.772 97.019 43.772L97.025 43.772L147.918 41.3292Z" fill="#025528"/>
<path d="M151.734 26.1143C146.759 26.1143 143.858 39.3785 148.417 40.2075C152.496 40.9491 157.951 27.3578 151.734 26.1143Z" fill="#01A648"/>
<path d="M145.93 33.5764C146.759 31.0893 151.982 28.768 154.634 32.7472C151.318 36.7265 148.002 35.6489 145.93 33.5764Z" fill="white"/>
<path fill-rule="evenodd" clip-rule="evenodd" d="M146.218 33.5111C147.209 34.4627 148.455 35.1538 149.82 35.182C151.192 35.2104 152.739 34.5693 154.32 32.7312C153.064 30.9748 151.265 30.6139 149.652 30.9789C148.818 31.1676 148.038 31.5503 147.418 32.0335C146.849 32.4774 146.429 32.9956 146.218 33.5111ZM149.542 30.4938C151.364 30.0815 153.446 30.5181 154.84 32.6087C154.901 32.7003 154.895 32.8213 154.824 32.9059C153.132 34.9366 151.407 35.7123 149.809 35.6793C148.221 35.6465 146.817 34.8157 145.753 33.7517C145.686 33.6851 145.663 33.5866 145.692 33.4972C145.92 32.8156 146.439 32.1667 147.112 31.6413C147.788 31.1141 148.635 30.6989 149.542 30.4938Z" fill="white"/>
<path d="M152.146 32.7469C152.146 33.6626 151.404 34.8194 150.488 34.8194C149.572 34.8194 148.83 34.0771 148.83 33.1614C148.83 32.2457 149.572 31.0889 150.488 31.0889C151.404 31.0889 152.146 31.8312 152.146 32.7469Z" fill="#333333"/>
<path d="M110.7 34.4048C110.286 34.7079 109.457 36.0629 109.457 36.0629L105.312 44.7677C105.312 44.7677 107.155 45.1795 108.628 46.4256C109.515 47.1767 110.7 48.0836 111.115 49.3271L118.575 33.9903C118.706 33.376 117.514 33.1336 116.917 33.8256C116.817 33.6191 115.839 32.4851 114.691 33.8256C114.28 32.7153 113.19 33.2978 112.772 33.9903C112.408 33.4934 111.114 34.1017 110.7 34.4048Z" fill="#D8BA8A"/>
<path fill-rule="evenodd" clip-rule="evenodd" d="M111.097 49.5757C110.996 49.569 110.909 49.502 110.877 49.4061C110.686 48.8336 110.314 48.3273 109.868 47.8647C109.498 47.4815 109.09 47.1401 108.706 46.8179C108.624 46.7497 108.544 46.6824 108.465 46.6158C107.756 46.0157 106.953 45.6133 106.323 45.3605C106.009 45.2345 105.74 45.1465 105.55 45.0903C105.455 45.0622 105.381 45.042 105.33 45.0291C105.305 45.0226 105.286 45.0179 105.273 45.0148L105.259 45.0116L105.256 45.0109C105.256 45.0109 105.256 45.0108 105.31 44.7681C105.364 44.5253 105.364 44.5253 105.364 44.5254L105.366 44.5258L105.371 44.527L105.389 44.5311C105.404 44.5347 105.426 44.5401 105.454 44.5473C105.504 44.5603 105.575 44.5793 105.663 44.605C105.672 44.6077 105.682 44.6105 105.692 44.6134C105.894 44.6733 106.177 44.7662 106.508 44.8989C107.168 45.1635 108.023 45.59 108.786 46.2361C108.861 46.2994 108.939 46.3644 109.019 46.4311C109.404 46.7534 109.836 47.1152 110.226 47.5194C110.571 47.8773 110.892 48.2776 111.127 48.7293L118.334 33.9145C118.338 33.8652 118.322 33.8265 118.281 33.7882C118.227 33.7356 118.125 33.6851 117.982 33.6647C117.704 33.625 117.359 33.711 117.124 33.9654L114.653 39.0731L114.205 38.8564L116.628 33.8482C116.599 33.8136 116.562 33.7739 116.518 33.733C116.411 33.6346 116.272 33.537 116.112 33.4803C115.955 33.4249 115.778 33.4079 115.581 33.469C115.386 33.5292 115.154 33.6712 114.898 33.9646L112.579 38.6604L112.133 38.4402L114.416 33.8166C114.336 33.6422 114.241 33.5508 114.156 33.5043C114.056 33.45 113.935 33.4382 113.793 33.4736C113.497 33.5471 113.172 33.8111 112.988 34.1111L110.921 38.247L110.476 38.0246L112.454 34.0676C112.423 34.0594 112.386 34.0537 112.34 34.0516C112.201 34.0453 112.023 34.0759 111.826 34.1359C111.431 34.2559 111.029 34.4715 110.845 34.6059C110.77 34.6606 110.658 34.7792 110.523 34.9477C110.393 35.1107 110.254 35.303 110.126 35.4888C109.999 35.6742 109.884 35.8506 109.8 35.9807C109.759 36.0458 109.725 36.0991 109.702 36.1361L109.676 36.1786L109.674 36.1822L105.663 44.605M112.717 33.6362C112.961 33.3374 113.308 33.0814 113.673 32.9909C113.906 32.9329 114.161 32.9404 114.394 33.0675C114.534 33.1437 114.654 33.2561 114.752 33.4024C114.979 33.1961 115.207 33.0639 115.433 32.9939C115.746 32.897 116.034 32.9251 116.278 33.0114C116.519 33.0965 116.714 33.2373 116.856 33.3677C116.888 33.3975 116.918 33.4277 116.946 33.4577C117.286 33.201 117.705 33.1227 118.052 33.1723C118.266 33.2027 118.475 33.2847 118.625 33.4288C118.784 33.5809 118.869 33.7966 118.817 34.0423C118.813 34.0621 118.806 34.0813 118.797 34.0995L111.336 49.4363C111.292 49.5272 111.197 49.5823 111.097 49.5757M112.717 33.6362C112.605 33.5831 112.481 33.5601 112.363 33.5547C112.144 33.5448 111.904 33.5921 111.681 33.66C111.234 33.7957 110.782 34.0359 110.551 34.2045C110.419 34.3013 110.272 34.4658 110.135 34.6366C109.994 34.8128 109.848 35.0161 109.716 35.2069C109.585 35.3982 109.467 35.5795 109.381 35.7128C109.339 35.7796 109.304 35.8344 109.28 35.8728L109.253 35.9172L109.245 35.9291L109.243 35.933L109.455 36.0632" fill="#333333"/>
<path d="M115.635 41.2533L115.258 49.3275L122.719 49.742L123.548 42.2548L117.978 42.2548C117.539 41.9144 117.227 41.5549 117.777 40.9296C117.777 40.9296 119.137 39.8568 119.428 39.0538C119.719 38.2507 119.349 37.394 119.127 37.066C118.387 37.8555 116.772 39.5635 116.231 40.0789C115.69 40.5944 115.608 41.0766 115.635 41.2533Z" fill="#D8BA8A"/>
<path fill-rule="evenodd" clip-rule="evenodd" d="M119.147 36.8179C119.223 36.8239 119.291 36.8639 119.333 36.9266C119.461 37.1148 119.621 37.4387 119.712 37.8245C119.803 38.2111 119.828 38.6781 119.661 39.1383C119.575 39.3755 119.417 39.6175 119.242 39.8394C119.065 40.0641 118.86 40.2815 118.667 40.4703C118.474 40.6594 118.291 40.8224 118.156 40.938C118.088 40.996 118.033 41.0422 117.994 41.0741C117.975 41.0893 117.961 41.1012 117.95 41.1097C117.718 41.3791 117.716 41.5334 117.745 41.6264C117.779 41.7403 117.883 41.8586 118.064 42.0059L123.548 42.0059C123.618 42.0059 123.686 42.036 123.733 42.0887C123.78 42.1414 123.803 42.2116 123.795 42.2819L122.966 49.7692C122.951 49.9004 122.837 49.9974 122.705 49.9901L115.244 49.5756C115.108 49.568 115.003 49.452 115.009 49.3156L115.385 41.2626C115.355 40.977 115.495 40.4362 116.059 39.8987C116.594 39.3893 118.203 37.6877 118.946 36.8957C118.998 36.8405 119.072 36.8118 119.147 36.8179ZM117.789 42.4232C117.582 42.259 117.353 42.0494 117.269 41.7712C117.17 41.4448 117.286 41.1111 117.591 40.7651C117.6 40.7538 117.611 40.7435 117.623 40.7342L117.777 40.9294L117.623 40.7342L117.623 40.7342L117.623 40.7341L117.624 40.7337L117.626 40.7317L117.637 40.7232C117.646 40.7157 117.66 40.7042 117.679 40.6893C117.715 40.6594 117.768 40.6156 117.832 40.5604C117.961 40.4498 118.136 40.2944 118.319 40.115C118.503 39.9351 118.692 39.7338 118.852 39.5314C119.013 39.3264 119.134 39.1331 119.194 38.9687C119.318 38.626 119.304 38.263 119.228 37.9386C119.188 37.7688 119.132 37.6146 119.074 37.486C119.159 37.3953 119.238 37.3113 119.309 37.2359L119.127 37.0658L118.921 37.2049C118.966 37.2718 119.021 37.3681 119.074 37.486C118.27 38.3407 116.897 39.7872 116.402 40.2588C115.903 40.7342 115.869 41.1399 115.88 41.216C115.883 41.2321 115.884 41.2484 115.883 41.2647L115.518 49.0926L115.272 49.0789L115.258 49.3272L115.506 49.3388L115.518 49.0926L122.497 49.4804L122.471 49.7144L122.719 49.7418L122.732 49.4935L122.497 49.4804L123.27 42.5033L123.548 42.5033L123.548 42.2546L123.3 42.2272L123.27 42.5033L118.436 42.5033C118.434 42.5003 118.433 42.4974 118.431 42.4945C118.326 42.3361 118.241 42.2085 118.189 42.1243M118.436 42.5033C118.676 42.865 119.02 43.3837 119.321 43.9114C119.544 44.3006 119.755 44.7118 119.903 45.0994C120.048 45.4801 120.144 45.8686 120.106 46.2009L119.611 46.1436C119.636 45.9333 119.575 45.6369 119.438 45.2765C119.303 44.923 119.106 44.5369 118.89 44.1584C118.592 43.6377 118.277 43.1627 118.04 42.8068C117.94 42.6556 117.854 42.5258 117.789 42.4232" fill="#333333"/>
<path d="M124.281 34.0082L125.301 32.5798L125.257 31.503L119.72 31.7294L118.565 33.6256C118.467 34.2459 119.283 34.1923 119.704 34.0879L119.519 34.357C119.63 34.5579 120.018 35.261 120.762 34.6143L121.057 34.2941C121.076 34.7555 121.704 35.038 122.448 34.3913C122.837 34.8684 123.883 34.3326 124.281 34.0082Z" fill="#D8BA8A"/>
<path fill-rule="evenodd" clip-rule="evenodd" d="M119.506 31.6011C119.549 31.5301 119.625 31.4854 119.708 31.482L125.246 31.2556C125.312 31.2529 125.376 31.2765 125.425 31.3212C125.473 31.3659 125.502 31.428 125.505 31.4939L125.548 32.5707C125.551 32.6259 125.534 32.6804 125.502 32.7254L124.482 34.1538C124.469 34.1717 124.454 34.1879 124.437 34.2019C124.216 34.3821 123.828 34.6131 123.436 34.7383C123.239 34.8009 123.026 34.8424 122.823 34.8274C122.692 34.8177 122.56 34.7836 122.442 34.713C122.089 34.9678 121.736 35.0607 121.433 35.0037C121.247 34.9686 121.089 34.8768 120.978 34.7467L120.944 34.7839C120.937 34.7906 120.931 34.797 120.924 34.803C120.714 34.9854 120.509 35.091 120.306 35.122C120.099 35.1538 119.92 35.1038 119.776 35.0188C119.512 34.8638 119.36 34.5873 119.304 34.4861C119.303 34.4833 119.301 34.4807 119.3 34.4782C119.286 34.4536 119.277 34.4273 119.273 34.4005C119.144 34.4055 119.011 34.3988 118.888 34.373C118.738 34.3416 118.571 34.2758 118.452 34.1375C118.326 33.9903 118.284 33.799 118.318 33.5879C118.323 33.5558 118.334 33.525 118.351 33.4972L119.506 31.6011ZM119.813 34.3677C119.868 34.4514 119.94 34.5382 120.028 34.5902C120.088 34.6253 120.152 34.6424 120.231 34.6304C120.312 34.6179 120.43 34.5707 120.588 34.4363L120.861 34.1396L122.423 31.8688L121.393 31.9109L121.468 31.9624L119.813 34.3677ZM120.885 31.9317L119.553 33.8675C119.372 33.9032 119.153 33.9203 118.989 33.8861C118.895 33.8664 118.849 33.8358 118.829 33.813C118.819 33.8013 118.801 33.7752 118.804 33.7092L119.862 31.9735L120.885 31.9317ZM122.931 31.848L123.006 31.8995L121.317 34.3541C121.344 34.4309 121.411 34.4934 121.525 34.5149C121.675 34.5431 121.936 34.4987 122.261 34.2239L123.958 31.8061L122.931 31.848ZM124.467 31.7852L124.543 31.8385L122.799 34.3233C122.817 34.327 122.838 34.3297 122.86 34.3313C122.975 34.3399 123.121 34.3166 123.284 34.2644C123.597 34.1646 123.916 33.9786 124.098 33.8365L125.048 32.5057L125.018 31.7627L124.467 31.7852Z" fill="#333333"/>
<path d="M75.4665 93.6795C75.6046 92.436 76.1297 89.6173 77.1245 88.2909C72.1504 85.638 72.8412 76.4083 73.8084 72.1251C75.3283 67.151 80.109 56.5396 87.0727 53.8867C87.0727 53.8867 88.7307 55.1303 91.2178 55.1303C93.7048 55.1303 95.3628 53.8867 95.3628 53.8867H99.0934L105.311 44.7676C106.831 45.1821 110.119 46.6743 111.114 49.3272L107.798 55.9593C109.042 56.3738 110.7 56.7883 112.772 58.4463L115.259 49.3272C117.055 49.3272 121.062 49.4101 122.72 49.7417C122.444 56.512 121.808 70.4671 121.477 72.1251C121.062 74.1976 118.99 80.0007 111.943 79.1717C110.409 78.9912 109.024 78.5813 107.798 78.0441C108.213 82.2887 108.793 91.3582 107.798 93.6795C98.1815 95.0059 82.2368 94.2322 75.4665 93.6795Z" fill="#165C7D"/>
<path fill-rule="evenodd" clip-rule="evenodd" d="M105.104 44.6272C105.164 44.5395 105.273 44.4994 105.375 44.5273C106.158 44.7409 107.385 45.228 108.546 46.0007C109.705 46.7719 110.823 47.8448 111.346 49.2395C111.37 49.3043 111.366 49.3762 111.335 49.4381L108.148 55.8123C108.194 55.8271 108.241 55.8421 108.288 55.8572C109.418 56.2206 110.875 56.6895 112.629 58.0203L115.018 49.2614C115.047 49.1532 115.146 49.0782 115.258 49.0782C116.159 49.0782 117.613 49.0989 119.051 49.1613C120.483 49.2234 121.917 49.3274 122.768 49.4975C122.888 49.5215 122.973 49.6292 122.968 49.7515C122.829 53.1372 122.601 58.3195 122.366 62.863C122.249 65.1347 122.13 67.2475 122.019 68.8966C121.909 70.5359 121.806 71.7391 121.719 72.1736C121.507 73.2351 120.872 75.2517 119.38 76.9029C117.878 78.5665 115.519 79.8427 111.913 79.4184C110.511 79.2535 109.233 78.9006 108.084 78.4349C108.283 80.5648 108.506 83.6759 108.574 86.5769C108.61 88.1245 108.603 89.6165 108.523 90.8696C108.444 92.1119 108.293 93.1533 108.025 93.7772C107.991 93.8573 107.917 93.9136 107.831 93.9256C98.1846 95.2561 82.2158 94.4798 75.4449 93.9271C75.3779 93.9216 75.316 93.8892 75.2732 93.8374C75.2305 93.7855 75.2106 93.7185 75.218 93.6517C75.2883 93.0191 75.4562 91.9912 75.7326 90.952C75.9784 90.0279 76.3166 89.0687 76.7636 88.3732C74.336 86.9268 73.3095 83.9372 72.9898 80.8447C72.6582 77.6365 73.0767 74.2303 73.5645 72.07C73.5659 72.064 73.5675 72.058 73.5693 72.0521C74.3346 69.5475 75.9181 65.6306 78.187 62.0033C80.4511 58.3834 83.4236 55.0099 86.9828 53.654C87.0625 53.6237 87.1521 53.6363 87.2204 53.6873C87.2203 53.6873 87.2204 53.6873 87.2204 53.6873L87.2232 53.6894L87.2352 53.698C87.2463 53.706 87.2636 53.7182 87.287 53.734C87.3336 53.7656 87.4043 53.8117 87.4973 53.8675C87.6833 53.9791 87.9583 54.1292 88.3092 54.2796C89.0117 54.5807 90.0144 54.8813 91.2165 54.8813C92.4185 54.8813 93.4212 54.5807 94.1237 54.2796C94.4747 54.1292 94.7496 53.9791 94.9357 53.8675C95.0286 53.8117 95.0993 53.7656 95.146 53.734C95.1693 53.7182 95.1866 53.706 95.1978 53.698L95.2098 53.6894L95.2122 53.6875C95.2122 53.6876 95.2123 53.6875 95.3615 53.8864C95.5108 54.0854 95.5107 54.0855 95.5106 54.0855L95.5099 54.0861L95.5084 54.0872L95.5036 54.0907L95.4869 54.1028C95.4754 54.111 95.4599 54.1219 95.4405 54.1352C95.4356 54.1385 95.4304 54.1421 95.4249 54.1458C95.3712 54.1822 95.2929 54.2332 95.1916 54.294C94.989 54.4155 94.694 54.5763 94.3196 54.7368C93.5713 55.0575 92.5014 55.3787 91.2165 55.3787C89.9315 55.3787 88.8616 55.0575 88.1133 54.7368C87.7389 54.5763 87.4439 54.4155 87.2414 54.294C87.1577 54.2438 87.0897 54.2002 87.0383 54.1661C83.6863 55.4936 80.829 58.7173 78.6087 62.267C76.369 65.8478 74.8033 69.7187 74.0477 72.1886C73.5692 74.312 73.1604 77.6572 73.4846 80.7935C73.8095 83.9368 74.8604 86.7845 77.2133 88.0567C79.6244 88.6479 83.277 88.1471 87.0084 86.2047C90.7472 84.2584 94.5436 80.8749 97.2134 75.7406L97.2163 75.7352L97.3548 75.4839C97.4446 75.3209 97.5753 75.0831 97.7394 74.7845C98.0674 74.1871 98.5284 73.346 99.0602 72.3708C100.124 70.4203 101.47 67.9344 102.603 65.791C103.734 63.6493 104.977 61.1647 105.936 59.2146C106.416 58.2398 106.825 57.3989 107.114 56.8018C107.259 56.5032 107.373 56.2656 107.452 56.1027L107.572 55.8519L107.574 55.8477L110.841 49.3142C110.354 48.103 109.355 47.1366 108.27 46.4147C107.24 45.7289 106.154 45.2783 105.414 45.0559L99.301 54.0215L86.869 74.3272C86.7994 74.4408 86.6527 74.4794 86.5362 74.4148C86.4197 74.3502 86.3749 74.2052 86.4344 74.0861C88.7312 69.4925 88.8952 65.6124 88.8952 63.4201C88.8952 63.2828 89.0066 63.1714 89.1439 63.1714C89.2813 63.1714 89.3926 63.2828 89.3926 63.4201C89.3926 65.152 89.2915 67.9335 88.1462 71.2884L98.6482 54.1352H95.4405M105.104 44.6272L98.9607 53.6377L105.104 44.6272ZM107.927 56.2634L107.9 56.3183C107.822 56.4816 107.707 56.7196 107.562 57.0185C107.273 57.6164 106.863 58.4583 106.383 59.4343C105.422 61.3859 104.177 63.8754 103.043 66.0233C101.909 68.1697 100.561 70.6578 99.4969 72.609C98.9648 73.5846 98.5036 74.4262 98.1754 75.0239C98.0112 75.3227 97.8804 75.5606 97.7905 75.7238L97.6533 75.9728C94.9346 81.1997 91.0633 84.6547 87.238 86.6459C83.5016 88.5909 79.7882 89.149 77.2287 88.5713C76.8053 89.1978 76.4662 90.1289 76.2133 91.0799C75.9786 91.9622 75.8241 92.8374 75.7433 93.4521C82.617 94.0001 98.1377 94.7312 107.619 93.4524C107.82 92.8975 107.953 91.9878 108.027 90.838C108.105 89.6051 108.113 88.1291 108.077 86.5886C108.005 83.5602 107.764 80.2981 107.56 78.1763C106.152 77.1055 105.315 76.2398 104.833 75.3684C104.337 74.4712 104.232 73.5929 104.232 72.5393C104.232 72.4019 104.343 72.2906 104.481 72.2906C104.618 72.2906 104.729 72.4019 104.729 72.5393C104.729 73.5583 104.832 74.338 105.268 75.1278C105.707 75.9212 106.497 76.7492 107.923 77.8277C109.122 78.3501 110.474 78.7483 111.971 78.9244C115.411 79.3291 117.612 78.1184 119.011 76.5695C120.421 75.0083 121.029 73.087 121.232 72.076C121.311 71.6815 121.412 70.5186 121.523 68.8633C121.633 67.218 121.752 65.108 121.87 62.8373C122.1 58.3916 122.323 53.3333 122.462 49.947C121.635 49.8072 120.348 49.7154 119.03 49.6582C117.697 49.6005 116.35 49.5786 115.448 49.5759L113.013 58.5021C112.737 59.9515 112.324 62.2441 111.98 64.4227C111.634 66.6147 111.362 68.6664 111.362 69.6377C111.362 69.7751 111.25 69.8864 111.113 69.8864C110.975 69.8864 110.864 69.7751 110.864 69.6377C110.864 68.6195 111.144 66.5261 111.489 64.345C111.823 62.2284 112.222 60.0056 112.498 58.5476C110.738 57.1689 109.295 56.7042 108.135 56.3307C108.064 56.308 107.995 56.2856 107.927 56.2634Z" fill="#165C7D"/>
<path d="M102.406 33.9895C101.08 36.6423 97.9847 38.6872 96.1885 38.1346C92.8729 46.4247 92.3784 43.6811 90.8586 45.6154C90.3059 44.7864 88.7861 43.5429 87.543 44.7864C86.6977 45.632 87.9575 46.9971 88.7865 47.688C88.7865 47.688 89.447 53.771 87.8988 55.5439C85.7785 57.972 83.1816 57.0465 80.8518 59.2744C78.8163 61.2207 77.5358 63.005 75.4635 63.005C73.3911 63.005 72.6194 62.1905 71.3184 60.9324C68.6193 58.3224 73.1654 55.0589 72.9759 54.3003C68.4167 50.5697 70.6023 49.4168 71.3183 46.4247C71.7196 44.7476 74.6346 45.5956 74.6932 42.2799C74.7207 40.7197 76.2926 37.3056 79.8448 36.062C82.1202 34.0272 80.4377 32.7459 84.997 30.6735C87.9443 29.3339 95.2804 26.9624 97.4911 28.2061C99.9778 29.4497 103.733 31.3366 102.406 33.9895Z" fill="#333333"/>
<path fill-rule="evenodd" clip-rule="evenodd" d="M97.5884 28.0232C98.825 28.6416 100.409 29.4353 101.516 30.4143C102.071 30.9056 102.522 31.4566 102.743 32.0718C102.967 32.6954 102.948 33.3695 102.592 34.0824C101.911 35.4445 100.779 36.6453 99.5884 37.437C98.481 38.173 97.2751 38.5848 96.3133 38.3809C94.6986 42.3917 93.7457 43.7976 92.9812 44.4195C92.6677 44.6744 92.3834 44.7972 92.1324 44.9056C92.0708 44.9322 92.0111 44.958 91.9536 44.9846C91.6668 45.1174 91.3786 45.2896 91.0218 45.7437C90.9808 45.796 90.9172 45.8254 90.8508 45.8228C90.7844 45.8202 90.7232 45.786 90.6864 45.7307C90.4265 45.3409 89.9372 44.854 89.3783 44.6145C89.1017 44.4959 88.8164 44.4414 88.5366 44.4803C88.2594 44.5189 87.9717 44.6512 87.6898 44.9332C87.522 45.1011 87.4618 45.2873 87.4714 45.4898C87.4814 45.7011 87.5684 45.9392 87.7159 46.1906C88.0111 46.6937 88.5123 47.1897 88.9195 47.529C88.9607 47.5634 88.987 47.6125 88.9928 47.6659L88.7868 47.6882C88.8999 47.6759 88.9509 47.6704 88.9739 47.6679C88.9928 47.6659 88.9928 47.6658 88.9928 47.6659L88.9933 47.6707L88.9948 47.6843L89.0001 47.7365C89.0046 47.7822 89.011 47.8491 89.0186 47.9348C89.0337 48.1061 89.0536 48.3524 89.0726 48.6533C89.1106 49.2549 89.145 50.0765 89.1307 50.9547C89.1164 51.8319 89.0534 52.7716 88.8945 53.6074C88.737 54.4361 88.4797 55.1943 88.0552 55.6805C86.9528 56.9428 85.7219 57.3316 84.512 57.6835C84.4679 57.6963 84.4239 57.7091 84.3798 57.7219C83.2155 58.0595 82.0776 58.3894 80.9953 59.4244C80.6132 59.7897 80.2587 60.1486 79.9182 60.4932C79.8074 60.6053 79.6981 60.716 79.5898 60.8248C79.1507 61.2663 78.7289 61.6779 78.3038 62.0295C77.4515 62.7343 76.5676 63.2125 75.4637 63.2125C74.3967 63.2125 73.6483 63.0019 72.997 62.6195C72.3997 62.2687 71.8917 61.7765 71.3043 61.2073C71.2615 61.1658 71.2183 61.1239 71.1746 61.0817C70.4576 60.3883 70.2111 59.6363 70.2587 58.8888C70.3056 58.1535 70.6357 57.4423 71.0307 56.8123C71.3639 56.2808 71.7543 55.7906 72.08 55.3817C72.1408 55.3054 72.1993 55.2319 72.2548 55.1615C72.434 54.9342 72.5779 54.7436 72.6712 54.5891C72.7178 54.512 72.7472 54.4514 72.7626 54.4054C72.7637 54.4021 72.7647 54.3989 72.7657 54.3959C70.5384 52.5565 69.8909 51.2928 69.9622 50.0737C69.9974 49.472 70.208 48.9022 70.4419 48.3163C70.4691 48.2481 70.4967 48.1795 70.5245 48.1104C70.7381 47.5799 70.9624 47.0226 71.117 46.3767C71.2341 45.8871 71.5381 45.5863 71.8965 45.3607C72.0732 45.2495 72.2665 45.1542 72.4587 45.0634C72.5019 45.043 72.545 45.0228 72.588 45.0027C72.7393 44.9318 72.8891 44.8617 73.0383 44.7835C73.4181 44.5844 73.7673 44.3461 74.0278 43.9723C74.2871 43.6001 74.4721 43.0738 74.4862 42.2765C74.5009 41.4442 74.9207 40.1613 75.7775 38.9338C76.632 37.7098 77.9334 36.5226 79.7371 35.8806C80.5441 35.15 80.8123 34.5401 81.0877 33.9139C81.1782 33.7081 81.2694 33.5006 81.3808 33.2865C81.8424 32.3992 82.6045 31.5338 84.9115 30.4851C86.3973 29.8098 88.9804 28.8778 91.4714 28.27C92.7169 27.966 93.9461 27.7415 95.0074 27.672C96.0558 27.6034 96.9797 27.6829 97.5884 28.0232ZM88.5891 47.7926C88.1777 47.4419 87.6723 46.9353 87.3584 46.4004C87.193 46.1184 87.0717 45.8135 87.0574 45.5094C87.0426 45.1966 87.1419 44.895 87.3967 44.6401C87.7363 44.3004 88.1048 44.1219 88.4795 44.0697C88.8515 44.018 89.2138 44.093 89.5416 44.2335C90.0864 44.467 90.5587 44.8908 90.8698 45.2804C91.1997 44.9141 91.492 44.7415 91.7795 44.6085C91.8508 44.5755 91.9193 44.5457 91.9862 44.5167C92.2308 44.4106 92.4545 44.3135 92.7196 44.0979C93.4005 43.5441 94.3367 42.2074 95.9963 38.0579C96.0364 37.9577 96.1466 37.905 96.2497 37.9367C97.0567 38.185 98.2107 37.855 99.359 37.0917C100.496 36.3359 101.576 35.1879 102.221 33.897C102.528 33.2835 102.537 32.7269 102.353 32.2118C102.165 31.6882 101.77 31.1924 101.241 30.7248C100.182 29.7874 98.6481 29.0166 97.3986 28.3917L97.3896 28.3872C96.893 28.1078 96.0729 28.0177 95.0345 28.0856C94.0064 28.1529 92.8029 28.3717 91.5696 28.6727C89.103 29.2746 86.5445 30.1982 85.083 30.8625C82.8307 31.8863 82.1544 32.6976 81.7486 33.4778C81.653 33.6614 81.5701 33.8504 81.4845 34.0455C81.2003 34.6936 80.8865 35.409 79.9832 36.2168C79.9629 36.2349 79.9392 36.2489 79.9135 36.2579C78.1856 36.8628 76.9377 37.9961 76.1174 39.1711C75.2934 40.3516 74.9135 41.5559 74.9006 42.2838C74.8854 43.1444 74.6841 43.7555 74.3678 44.2093C74.0528 44.6614 73.6371 44.9376 73.2307 45.1506C73.0725 45.2336 72.9115 45.3089 72.759 45.3803C72.7172 45.3999 72.6761 45.4191 72.6359 45.4381C72.4452 45.5283 72.2713 45.6145 72.1173 45.7115C71.8145 45.9021 71.6036 46.1242 71.5201 46.4731C71.3579 47.1509 71.1218 47.7372 70.9088 48.266C70.881 48.335 70.8536 48.4029 70.8268 48.47C70.592 49.0584 70.4069 49.5711 70.376 50.0979C70.3162 51.1217 70.8393 52.2843 73.1074 54.1402C73.1419 54.1684 73.1664 54.207 73.1772 54.2503C73.2026 54.352 73.1839 54.453 73.1556 54.5373C73.1265 54.6238 73.0803 54.7137 73.026 54.8035C72.9176 54.9829 72.7585 55.1921 72.5803 55.4181C72.5227 55.4913 72.4626 55.5667 72.4009 55.6443C72.0749 56.0536 71.7015 56.5227 71.3819 57.0324C71.0014 57.6393 70.7129 58.2808 70.6724 58.9152C70.6327 59.5374 70.8301 60.172 71.4627 60.7837C71.5026 60.8223 71.5419 60.8603 71.5807 60.8979C72.181 61.4792 72.6542 61.9375 73.2069 62.262C73.7848 62.6013 74.4583 62.798 75.4637 62.798C76.4322 62.798 77.2247 62.384 78.0396 61.7101C78.4481 61.3723 78.8577 60.973 79.2959 60.5325C79.4022 60.4256 79.5103 60.3162 79.6204 60.2048C79.9617 59.8593 80.3221 59.4946 80.7088 59.1249C81.8659 58.0184 83.0908 57.6636 84.2481 57.3284C84.2976 57.3141 84.347 57.2998 84.3962 57.2855C85.5974 56.9361 86.725 56.5735 87.743 55.4078C88.0925 55.0075 88.3333 54.3404 88.4873 53.53C88.64 52.7267 88.7022 51.8131 88.7163 50.948C88.7304 50.0839 88.6964 49.2738 88.6589 48.6794C88.6402 48.3824 88.6206 48.1396 88.6057 47.9713C88.599 47.8964 88.5933 47.8362 88.5891 47.7926Z" fill="#333333"/>
</svg>
