<svg width="121" height="160" viewBox="0 0 121 160" fill="none" xmlns="http://www.w3.org/2000/svg">
<path d="M38.084 35.5322C38.084 29.2829 43.1501 24.2168 49.3994 24.2168H90.1349C96.3842 24.2168 101.45 29.2829 101.45 35.5322V139.634C101.45 145.883 96.3842 150.949 90.1349 150.949H49.3994C43.1501 150.949 38.084 145.883 38.084 139.634V35.5322Z" fill="#C6CED1"/>
<path d="M40.3477 37.7949C40.3477 31.5456 45.4137 26.4795 51.6631 26.4795H87.8724C94.1217 26.4795 99.1878 31.5456 99.1878 37.7949V137.371C99.1878 143.62 94.1217 148.686 87.8724 148.686H51.6631C45.4137 148.686 40.3477 143.62 40.3477 137.371V37.7949Z" fill="#E1E5E7"/>
<path d="M117.294 42.3218C117.294 51.6958 109.695 59.2949 100.321 59.2949C90.9468 59.2949 83.3477 51.6958 83.3477 42.3218C83.3477 32.9478 90.9468 25.3486 100.321 25.3486C109.695 25.3486 117.294 32.9478 117.294 42.3218Z" fill="#69757B"/>
<path d="M118.425 43.4536C118.425 52.8276 110.826 60.4267 101.452 60.4267C92.0776 60.4267 84.4785 52.8276 84.4785 43.4536C84.4785 34.0796 92.0776 26.4805 101.452 26.4805C110.826 26.4805 118.425 34.0796 118.425 43.4536Z" fill="#FFA300"/>
<path d="M101.518 52.6892V50.3686C100.671 50.3539 99.8604 50.2802 99.0869 50.1476C98.3207 50.015 97.6945 49.8419 97.2083 49.6282V47.8381C97.7166 48.0738 98.3686 48.2801 99.1642 48.4569C99.9598 48.6337 100.744 48.7295 101.518 48.7442V43.8821C100.545 43.6096 99.7388 43.3002 99.0979 42.9539C98.4644 42.6003 97.9892 42.1694 97.6724 41.661C97.3557 41.1527 97.1973 40.5376 97.1973 39.8157C97.1973 39.0642 97.3741 38.4233 97.7277 37.8929C98.0886 37.3551 98.5933 36.9352 99.2416 36.6332C99.8898 36.3312 100.649 36.158 101.518 36.1138V34.2021H102.866V36.0917C103.654 36.1138 104.373 36.2022 105.021 36.3569C105.669 36.5043 106.269 36.6958 106.822 36.9316L106.247 38.4675C105.746 38.2686 105.205 38.0992 104.623 37.9592C104.041 37.8193 103.455 37.7235 102.866 37.6719V42.5009C103.853 42.7882 104.678 43.0939 105.341 43.418C106.012 43.7422 106.516 44.1437 106.855 44.6225C107.194 45.1013 107.363 45.7202 107.363 46.4789C107.363 47.5545 106.969 48.4238 106.181 49.0868C105.393 49.7424 104.288 50.1402 102.866 50.2802V52.6892H101.518ZM102.866 48.6448C103.772 48.5564 104.446 48.3391 104.888 47.9928C105.338 47.6392 105.562 47.1751 105.562 46.6005C105.562 46.1879 105.474 45.8491 105.297 45.5839C105.128 45.3187 104.848 45.0903 104.457 44.8988C104.067 44.6999 103.536 44.512 102.866 44.3352V48.6448ZM101.518 42.0367V37.7161C100.965 37.7529 100.501 37.8561 100.126 38.0255C99.7499 38.195 99.4662 38.416 99.2747 38.6885C99.0905 38.9611 98.9985 39.2852 98.9985 39.661C98.9985 40.0956 99.0795 40.4603 99.2416 40.7549C99.411 41.0422 99.6799 41.289 100.048 41.4953C100.424 41.6942 100.914 41.8747 101.518 42.0367Z" fill="#333333"/>
<path fill-rule="evenodd" clip-rule="evenodd" d="M83.3471 14.7119C83.5971 14.7119 83.7998 14.9146 83.7998 15.1645V29.3088C83.7998 29.5588 83.5971 29.7614 83.3471 29.7614C83.0972 29.7614 82.8945 29.5588 82.8945 29.3088V15.1645C82.8945 14.9146 83.0972 14.7119 83.3471 14.7119Z" fill="#333333"/>
<path fill-rule="evenodd" clip-rule="evenodd" d="M94.6616 0.00195312C94.9116 0.00195312 95.1142 0.204597 95.1142 0.45457V22.5196C95.1142 22.7696 94.9116 22.9722 94.6616 22.9722C94.4116 22.9722 94.209 22.7696 94.209 22.5196V0.45457C94.209 0.204597 94.4116 0.00195312 94.6616 0.00195312Z" fill="#333333"/>
<path fill-rule="evenodd" clip-rule="evenodd" d="M118.425 10.752C118.675 10.752 118.878 10.9546 118.878 11.2046V29.875C118.878 30.125 118.675 30.3276 118.425 30.3276C118.175 30.3276 117.973 30.125 117.973 29.875V11.2046C117.973 10.9546 118.175 10.752 118.425 10.752Z" fill="#333333"/>
<path fill-rule="evenodd" clip-rule="evenodd" d="M112.767 14.7119C113.017 14.7119 113.22 14.9146 113.22 15.1645V23.0853C113.22 23.3353 113.017 23.5379 112.767 23.5379C112.517 23.5379 112.314 23.3353 112.314 23.0853V15.1645C112.314 14.9146 112.517 14.7119 112.767 14.7119Z" fill="#333333"/>
<path fill-rule="evenodd" clip-rule="evenodd" d="M89.0054 10.1855C89.2553 10.1855 89.458 10.3882 89.458 10.6382V19.1247C89.458 19.3747 89.2553 19.5773 89.0054 19.5773C88.7554 19.5773 88.5527 19.3747 88.5527 19.1247V10.6382C88.5527 10.3882 88.7554 10.1855 89.0054 10.1855Z" fill="#333333"/>
<path fill-rule="evenodd" clip-rule="evenodd" d="M113.898 59.9736C114.148 59.9736 114.351 60.1763 114.351 60.4262V67.7813C114.351 68.0312 114.148 68.2339 113.898 68.2339C113.648 68.2339 113.445 68.0312 113.445 67.7813V60.4262C113.445 60.1763 113.648 59.9736 113.898 59.9736Z" fill="#333333"/>
<path fill-rule="evenodd" clip-rule="evenodd" d="M108.242 63.3682C108.492 63.3682 108.694 63.5708 108.694 63.8208V75.1362C108.694 75.3862 108.492 75.5888 108.242 75.5888C107.992 75.5888 107.789 75.3862 107.789 75.1362V63.8208C107.789 63.5708 107.992 63.3682 108.242 63.3682Z" fill="#333333"/>
<path d="M104.848 5.32563C106.043 4.91159 108.281 3.49091 108.288 0.991197C108.266 0.801857 108.256 0.621777 108.256 0.455078C108.278 0.638999 108.288 0.817697 108.288 0.991197C108.475 2.64588 109.496 5.00778 111.637 5.32563C110.724 6.00339 108.348 8.12528 108.231 10.1134C108.247 10.2848 108.256 10.46 108.256 10.639C108.228 10.4656 108.22 10.29 108.231 10.1134C107.99 7.57174 106.045 5.87871 104.848 5.32563Z" fill="#FFA300"/>
<path fill-rule="evenodd" clip-rule="evenodd" d="M108.233 0.114875C108.412 0.104133 108.569 0.234887 108.59 0.413197C108.613 0.603542 108.624 0.789319 108.625 0.970479C108.716 1.75065 109.003 2.69341 109.512 3.47283C110.023 4.2556 110.738 4.84797 111.684 4.9885C111.82 5.00866 111.93 5.1086 111.964 5.24174C111.997 5.37488 111.947 5.51502 111.837 5.59684C111.397 5.92314 110.596 6.60524 109.894 7.44463C109.189 8.28674 108.63 9.23321 108.569 10.1074C108.585 10.2806 108.593 10.4574 108.593 10.6376C108.593 10.8146 108.457 10.9619 108.28 10.976C108.104 10.9901 107.946 10.8661 107.918 10.6914C107.888 10.5008 107.879 10.3096 107.888 10.1193C107.652 7.74657 105.823 6.14976 104.703 5.63245C104.577 5.57437 104.499 5.44576 104.506 5.30744C104.513 5.16913 104.603 5.04886 104.734 5.00352C105.289 4.81117 106.101 4.37818 106.769 3.70078C107.43 3.03139 107.937 2.13845 107.946 1.00782C107.924 0.814368 107.914 0.628361 107.914 0.453729C107.914 0.274135 108.054 0.125616 108.233 0.114875ZM108.318 2.58123C108.067 3.20963 107.683 3.74152 107.252 4.1776C106.733 4.70436 106.139 5.09853 105.611 5.36484C106.577 5.99314 107.715 7.13264 108.264 8.70171C108.545 8.09125 108.951 7.51351 109.373 7.00894C109.883 6.39895 110.441 5.86931 110.893 5.48354C110.049 5.1712 109.406 4.55308 108.943 3.84393C108.683 3.44616 108.477 3.01467 108.318 2.58123Z" fill="#FFA300"/>
<path d="M98.0586 15.5092C99.2536 15.0952 101.492 13.6745 101.498 11.1748C101.477 10.9855 101.467 10.8054 101.467 10.6387C101.489 10.8226 101.499 11.0013 101.498 11.1748C101.686 12.8295 102.707 15.1914 104.848 15.5092C103.935 16.187 101.559 18.3089 101.442 20.297C101.458 20.4684 101.467 20.6436 101.467 20.8225C101.439 20.6492 101.431 20.4736 101.442 20.297C101.201 17.7553 99.2559 16.0623 98.0586 15.5092Z" fill="#FFA300"/>
<path fill-rule="evenodd" clip-rule="evenodd" d="M101.444 10.2994C101.623 10.2887 101.78 10.4195 101.801 10.5978C101.824 10.7881 101.835 10.9739 101.836 11.155C101.927 11.9352 102.214 12.878 102.723 13.6574C103.234 14.4402 103.949 15.0325 104.895 15.1731C105.031 15.1932 105.141 15.2932 105.175 15.4263C105.208 15.5594 105.158 15.6996 105.048 15.7814C104.608 16.1077 103.807 16.7898 103.105 17.6292C102.4 18.4713 101.841 19.4178 101.78 20.292C101.796 20.4652 101.804 20.6419 101.804 20.8222C101.804 20.9992 101.668 21.1465 101.491 21.1606C101.315 21.1746 101.157 21.0507 101.129 20.8759C101.098 20.6854 101.09 20.4942 101.099 20.3039C100.863 17.9311 99.0337 16.3343 97.9139 15.817C97.7882 15.7589 97.7103 15.6303 97.7172 15.492C97.7241 15.3537 97.8143 15.2334 97.9451 15.1881C98.5003 14.9957 99.3118 14.5627 99.9801 13.8854C100.641 13.216 101.148 12.323 101.157 11.1924C101.135 10.9989 101.125 10.8129 101.125 10.6383C101.125 10.4587 101.265 10.3102 101.444 10.2994ZM101.529 12.7658C101.278 13.3942 100.894 13.9261 100.463 14.3622C99.9437 14.8889 99.3504 15.2831 98.8222 15.5494C99.7876 16.1777 100.926 17.3172 101.475 18.8863C101.756 18.2758 102.162 17.6981 102.584 17.1935C103.094 16.5835 103.652 16.0539 104.104 15.6681C103.259 15.3558 102.617 14.7377 102.154 14.0285C101.894 13.6307 101.687 13.1992 101.529 12.7658Z" fill="#FFA300"/>
<path d="M0.744141 73.4971V105.686L10.7102 96.6923C25.1056 96.8501 51.5109 96.6923 57.2184 96.6923C64.337 96.6923 67.659 96.6923 69.5573 91.0119C70.0318 88.645 69.5573 81.9056 69.5573 73.4971C69.5573 64.0297 62.4387 64.0297 57.2184 64.0297C45.354 63.5563 19.5163 64.0298 10.7102 64.0297C2.1678 64.0296 0.744203 69.2368 0.744141 73.4971Z" fill="#007D8A"/>
<path fill-rule="evenodd" clip-rule="evenodd" d="M21.2427 64.2915C16.8714 64.3337 13.1437 64.3697 10.7098 64.3697C6.51056 64.3697 4.13318 65.6459 2.79157 67.3744C1.43682 69.1199 1.08325 71.3947 1.08322 73.4977V104.923L10.4824 96.4409C10.5457 96.3837 10.6282 96.3525 10.7135 96.3534C21.6947 96.4738 39.6646 96.4105 50.1039 96.3737C53.3474 96.3623 55.8639 96.3534 57.218 96.3534C60.8025 96.3534 63.341 96.3486 65.2293 95.6637C66.1586 95.3267 66.9239 94.8255 67.5722 94.0746C68.2207 93.3234 68.7639 92.3083 69.2281 90.9252C69.4523 89.7807 69.4547 87.5574 69.3955 84.5273C69.3809 83.7816 69.3627 82.9894 69.3435 82.1559C69.2849 79.6059 69.2174 76.6695 69.2174 73.4977C69.2174 71.1723 68.7803 69.4584 68.0672 68.1908C67.3562 66.9269 66.3585 66.0843 65.1965 65.5189C62.8478 64.3761 59.8477 64.3697 57.218 64.3697H57.2045L57.2045 64.3694C48.6197 64.0269 32.7148 64.1806 21.2427 64.2915ZM57.2248 63.6908C48.6202 63.3479 32.6797 63.5019 21.2078 63.6128C16.8464 63.6549 13.1308 63.6908 10.7098 63.6908C6.36664 63.6908 3.76104 65.0181 2.25524 66.9582C0.762585 68.8813 0.404329 71.3403 0.404297 73.4977V105.687C0.404297 105.821 0.483289 105.943 0.605864 105.997C0.72844 106.052 0.871608 106.029 0.971192 105.939L10.8387 97.0338C21.8375 97.1523 39.7185 97.0893 50.1143 97.0526C53.3542 97.0412 55.8671 97.0323 57.218 97.0323H57.2865C60.7867 97.0324 63.447 97.0324 65.4608 96.302C66.4892 95.929 67.3551 95.365 68.0861 94.5183C68.8136 93.6756 69.3954 92.5667 69.8788 91.12C69.8833 91.1066 69.8869 91.093 69.8897 91.0792C70.1361 89.8506 70.1332 87.5292 70.0742 84.514C70.0596 83.7645 70.0413 82.9698 70.0221 82.1347C69.9636 79.586 69.8963 76.6609 69.8963 73.4977C69.8963 71.0894 69.4437 69.253 68.6589 67.8579C67.872 66.4591 66.7638 65.5265 65.4936 64.9084C62.9909 63.6907 59.8414 63.6908 57.2582 63.6908L57.2248 63.6908Z" fill="#007D8A"/>
<path d="M19.6654 75.502L19.2875 79.4502L23.2158 78.3065L23.4744 80.0469L19.7151 80.4348L22.1417 83.667L20.5306 84.5521L18.7305 81.0116L17.0796 84.5521L15.4088 83.667L17.8156 80.4348L14.0762 80.0469L14.3546 78.3065L18.2233 79.4502L17.8355 75.502H19.6654Z" fill="#333333"/>
<path d="M30.8835 75.502L30.5056 79.4502L34.434 78.3065L34.6926 80.0469L30.9333 80.4348L33.3599 83.667L31.7488 84.5521L29.9487 81.0116L28.2978 84.5521L26.627 83.667L29.0337 80.4348L25.2943 80.0469L25.5728 78.3065L29.4415 79.4502L29.0536 75.502H30.8835Z" fill="#333333"/>
<path d="M42.1017 75.502L41.7238 79.4502L45.6522 78.3065L45.9107 80.0469L42.1514 80.4348L44.5781 83.667L42.967 84.5521L41.1669 81.0116L39.516 84.5521L37.8452 83.667L40.2519 80.4348L36.5125 80.0469L36.791 78.3065L40.6597 79.4502L40.2718 75.502H42.1017Z" fill="#333333"/>
<path d="M53.3199 75.502L52.942 79.4502L56.8703 78.3065L57.1289 80.0469L53.3696 80.4348L55.7962 83.667L54.1851 84.5521L52.385 81.0116L50.7341 84.5521L49.0634 83.667L51.4701 80.4348L47.7307 80.0469L48.0092 78.3065L51.8778 79.4502L51.49 75.502H53.3199Z" fill="#333333"/>
<path d="M120.687 111.828C107.108 103.574 92.4434 103.71 79.9512 111.828V145.388L100.59 160.002L120.687 145.388V111.828Z" fill="#00C246"/>
<path d="M118.424 113.451C106.354 106.057 93.319 106.179 82.2148 113.451V143.515L100.561 156.607L118.424 143.515V113.451Z" fill="#016D33"/>
<path fill-rule="evenodd" clip-rule="evenodd" d="M92.3985 130.583C91.7736 130.583 91.267 131.089 91.267 131.714V139.635C91.267 140.26 91.7736 140.767 92.3985 140.767H108.24C108.865 140.767 109.372 140.26 109.372 139.635V131.714C109.372 131.089 108.865 130.583 108.24 130.583H92.3985ZM89.0039 131.714C89.0039 129.839 90.5237 128.32 92.3985 128.32H108.24C110.115 128.32 111.635 129.839 111.635 131.714V139.635C111.635 141.51 110.115 143.03 108.24 143.03H92.3985C90.5237 143.03 89.0039 141.51 89.0039 139.635V131.714Z" fill="#00C246"/>
<path fill-rule="evenodd" clip-rule="evenodd" d="M100.319 120.399C99.1189 120.399 97.9677 120.876 97.1188 121.725C96.27 122.573 95.7932 123.725 95.7932 124.925V129.451C95.7932 130.076 95.2865 130.583 94.6616 130.583C94.0367 130.583 93.5301 130.076 93.5301 129.451V124.925C93.5301 123.124 94.2454 121.397 95.5186 120.124C96.7918 118.851 98.5187 118.136 100.319 118.136C102.12 118.136 103.847 118.851 105.12 120.124C106.393 121.397 107.109 123.124 107.109 124.925V129.451C107.109 130.076 106.602 130.583 105.977 130.583C105.352 130.583 104.845 130.076 104.845 129.451V124.925C104.845 123.725 104.369 122.573 103.52 121.725C102.671 120.876 101.52 120.399 100.319 120.399Z" fill="#00C246"/>
<path fill-rule="evenodd" clip-rule="evenodd" d="M95.3183 119.924C96.6445 118.598 98.4434 117.853 100.319 117.853C102.195 117.853 103.993 118.598 105.32 119.924C106.646 121.25 107.391 123.049 107.391 124.925V128.036H108.24C110.271 128.036 111.917 129.683 111.917 131.714V139.635C111.917 141.666 110.271 143.312 108.24 143.312H92.3982C90.3672 143.312 88.7207 141.666 88.7207 139.635V131.714C88.7207 129.683 90.3672 128.036 92.3982 128.036H93.2469V124.925C93.2469 123.049 93.992 121.25 95.3183 119.924ZM93.2469 128.602H92.3982C90.6796 128.602 89.2865 129.995 89.2865 131.714V139.635C89.2865 141.353 90.6796 142.746 92.3982 142.746H108.24C109.958 142.746 111.352 141.353 111.352 139.635V131.714C111.352 129.995 109.958 128.602 108.24 128.602H107.391V129.451C107.391 129.769 107.286 130.063 107.108 130.299H108.24C109.021 130.299 109.654 130.933 109.654 131.714V139.635C109.654 140.416 109.021 141.049 108.24 141.049H92.3982C91.617 141.049 90.9838 140.416 90.9838 139.635V131.714C90.9838 130.933 91.617 130.299 92.3982 130.299H93.5297C93.3521 130.063 93.2469 129.769 93.2469 129.451V128.602ZM95.7929 130.299C95.9705 130.063 96.0757 129.769 96.0757 129.451V128.602H104.562V129.451C104.562 129.769 104.668 130.063 104.845 130.299H95.7929ZM92.3982 130.865C91.9295 130.865 91.5496 131.245 91.5496 131.714V139.635C91.5496 140.103 91.9295 140.483 92.3982 140.483H108.24C108.708 140.483 109.088 140.103 109.088 139.635V131.714C109.088 131.245 108.708 130.865 108.24 130.865H92.3982ZM105.128 128.602V129.451C105.128 129.92 105.508 130.299 105.977 130.299C106.445 130.299 106.825 129.92 106.825 129.451V128.602H105.128ZM106.825 128.036H105.128V124.925C105.128 123.649 104.621 122.426 103.72 121.524C102.818 120.622 101.594 120.116 100.319 120.116C99.0436 120.116 97.8204 120.622 96.9185 121.524C96.0166 122.426 95.51 123.649 95.51 124.925V128.036H93.8126V124.925C93.8126 123.199 94.4981 121.544 95.7183 120.324C96.9385 119.104 98.5934 118.418 100.319 118.418C102.045 118.418 103.7 119.104 104.92 120.324C106.14 121.544 106.825 123.199 106.825 124.925V128.036ZM96.0757 128.036V124.925C96.0757 123.799 96.5228 122.72 97.3186 121.924C98.1143 121.128 99.1936 120.681 100.319 120.681C101.444 120.681 102.524 121.128 103.319 121.924C104.115 122.72 104.562 123.799 104.562 124.925V128.036H96.0757ZM95.51 128.602H93.8126V129.451C93.8126 129.92 94.1926 130.299 94.6613 130.299C95.13 130.299 95.51 129.92 95.51 129.451V128.602Z" fill="#00C246"/>
<path d="M77.6887 94.3736C77.6887 99.3731 73.6358 103.426 68.6363 103.426C63.6369 103.426 59.584 99.3731 59.584 94.3736C59.584 89.3742 63.6369 85.3213 68.6363 85.3213C73.6358 85.3213 77.6887 89.3742 77.6887 94.3736Z" fill="#016D33"/>
<path d="M76.5578 94.3736C76.5578 99.3731 72.5049 103.426 67.5055 103.426C62.506 103.426 58.4531 99.3731 58.4531 94.3736C58.4531 89.3742 62.506 85.3213 67.5055 85.3213C72.5049 85.3213 76.5578 89.3742 76.5578 94.3736Z" fill="#00C246"/>
<path fill-rule="evenodd" clip-rule="evenodd" d="M73.3863 90.6617C73.7177 90.9931 73.7177 91.5304 73.3863 91.8618L66.6442 98.6039C66.3128 98.9354 65.7754 98.9354 65.444 98.6039L62.3794 95.5393C62.048 95.2079 62.048 94.6706 62.3794 94.3392C62.7108 94.0077 63.2482 94.0077 63.5796 94.3392L66.0441 96.8037L72.1861 90.6617C72.5175 90.3302 73.0549 90.3302 73.3863 90.6617Z" fill="white"/>
</svg>
