<svg width="148" height="160" viewBox="0 0 148 160" fill="none" xmlns="http://www.w3.org/2000/svg">
<path d="M23.9939 30.0552H4.58476C3.95852 23.1678 3.97994 21.7219 7.0891 16.2812C12.0981 7.51597 23.3679 9.39363 23.9939 21.9158V30.0552Z" fill="#69757B"/>
<path d="M15.8546 11.2716C7.34654 10.664 4.79344 24.0023 4.58474 30.0547H0.828125C0.828125 13.7759 10.8458 6.2627 17.7329 6.2627H112.274C125.422 6.2627 125.422 23.7936 125.422 33.1852V41.3244V155.901H27.1244C21.6147 152.896 20.2373 148.388 20.2373 142.753L23.9939 33.1852C23.9939 25.0458 24.62 11.8976 15.8546 11.2716Z" fill="#C6CED1"/>
<path fill-rule="evenodd" clip-rule="evenodd" d="M39.6465 35.6897C39.6465 34.9981 40.2071 34.4375 40.8987 34.4375H104.135C104.827 34.4375 105.387 34.9981 105.387 35.6897C105.387 36.3813 104.827 36.9419 104.135 36.9419H40.8987C40.2071 36.9419 39.6465 36.3813 39.6465 35.6897Z" fill="#69757B"/>
<path fill-rule="evenodd" clip-rule="evenodd" d="M39.6465 50.0901C39.6465 49.3985 40.2071 48.8379 40.8987 48.8379H95.9957C96.6872 48.8379 97.2479 49.3985 97.2479 50.0901C97.2479 50.7817 96.6872 51.3423 95.9957 51.3423H40.8987C40.2071 51.3423 39.6465 50.7817 39.6465 50.0901Z" fill="#69757B"/>
<path fill-rule="evenodd" clip-rule="evenodd" d="M40.2734 66.3684C40.2734 65.6768 40.8341 65.1162 41.5256 65.1162H101.005C101.697 65.1162 102.258 65.6768 102.258 66.3684C102.258 67.06 101.697 67.6206 101.005 67.6206H41.5256C40.8341 67.6206 40.2734 67.06 40.2734 66.3684Z" fill="#69757B"/>
<path fill-rule="evenodd" clip-rule="evenodd" d="M39.6465 101.43C39.6465 100.738 40.2071 100.178 40.8987 100.178H100.378C101.07 100.178 101.631 100.738 101.631 101.43C101.631 102.122 101.07 102.682 100.378 102.682H40.8987C40.2071 102.682 39.6465 102.122 39.6465 101.43Z" fill="#69757B"/>
<path fill-rule="evenodd" clip-rule="evenodd" d="M39.6465 115.204C39.6465 114.513 40.2071 113.952 40.8987 113.952H77.8387C78.5303 113.952 79.0909 114.513 79.0909 115.204C79.0909 115.896 78.5303 116.457 77.8387 116.457H40.8987C40.2071 116.457 39.6465 115.896 39.6465 115.204Z" fill="#69757B"/>
<path fill-rule="evenodd" clip-rule="evenodd" d="M39.6465 87.6555C39.6465 86.964 40.2071 86.4033 40.8987 86.4033H77.8387C78.5303 86.4033 79.0909 86.964 79.0909 87.6555C79.0909 88.3471 78.5303 88.9077 77.8387 88.9077H40.8987C40.2071 88.9077 39.6465 88.3471 39.6465 87.6555Z" fill="#69757B"/>
<path d="M144.832 20.0372C144.832 31.1024 135.862 40.0725 124.797 40.0725C113.732 40.0725 104.762 31.1024 104.762 20.0372C104.762 8.97205 113.732 0.00195312 124.797 0.00195312C135.862 0.00195312 144.832 8.97205 144.832 20.0372Z" fill="#69757B"/>
<path d="M142.479 158.088C138.096 160.715 126.826 160.715 122.443 157.612V155.706C126.693 157.612 136.844 157.584 142.479 156.332V158.088Z" fill="#8F6E0D"/>
<path d="M122.443 155.706C131.835 154.454 142.479 156.332 142.479 156.332C142.479 156.332 131.835 160.089 122.443 155.706Z" fill="#FFA300"/>
<path d="M141.227 156.836C136.844 159.463 125.574 159.463 121.191 156.36V154.454C125.441 156.36 135.592 156.332 141.227 155.08V156.836Z" fill="#8F6E0D"/>
<path d="M121.191 154.454C130.583 153.202 141.227 155.08 141.227 155.08C141.227 155.08 130.583 158.837 121.191 154.454Z" fill="#FFA300"/>
<path d="M142.479 154.331C138.096 156.958 126.826 156.958 122.443 153.855V151.949C126.693 153.855 136.844 153.828 142.479 152.575V154.331Z" fill="#8F6E0D"/>
<path d="M122.443 151.949C131.835 150.697 142.479 152.575 142.479 152.575C142.479 152.575 131.835 156.332 122.443 151.949Z" fill="#FFA300"/>
<path d="M121.188 151.049C125.354 154.007 136.59 154.88 141.2 152.125L141.348 150.226C136.963 151.796 126.845 150.983 121.324 149.299L121.188 151.049Z" fill="#8F6E0D"/>
<path d="M141.348 150.226C132.081 148.25 121.324 149.299 121.324 149.299C121.324 149.299 131.645 153.868 141.348 150.226Z" fill="#FFA300"/>
<path d="M142.541 149.322C138.224 152.055 126.958 152.332 122.5 149.338L122.453 147.433C126.749 149.233 136.895 148.957 142.498 147.566L142.541 149.322Z" fill="#8F6E0D"/>
<path d="M122.454 147.432C131.812 145.95 142.499 147.566 142.499 147.566C142.499 147.566 131.95 151.583 122.454 147.432Z" fill="#FFA300"/>
<path d="M142.479 146.819C138.096 149.445 126.826 149.445 122.443 146.342V144.437C126.693 146.342 136.844 146.315 142.479 145.063V146.819Z" fill="#8F6E0D"/>
<path d="M122.443 144.436C131.835 143.184 142.479 145.062 142.479 145.062C142.479 145.062 131.835 148.819 122.443 144.436Z" fill="#FFA300"/>
<path d="M141.227 145.567C136.844 148.193 125.574 148.193 121.191 145.09V143.185C125.441 145.09 135.592 145.063 141.227 143.811V145.567Z" fill="#8F6E0D"/>
<path d="M121.191 143.184C130.583 141.932 141.227 143.81 141.227 143.81C141.227 143.81 130.583 147.567 121.191 143.184Z" fill="#FFA300"/>
<path d="M142.479 143.062C138.096 145.689 126.826 145.689 122.443 142.585V140.68C126.693 142.585 136.844 142.558 142.479 141.306V143.062Z" fill="#8F6E0D"/>
<path d="M122.443 140.679C131.835 139.427 142.479 141.306 142.479 141.306C142.479 141.306 131.835 145.062 122.443 140.679Z" fill="#FFA300"/>
<path d="M121.188 139.78C125.354 142.738 136.59 143.61 141.2 140.856L141.348 138.956C136.963 140.527 126.845 139.714 121.324 138.029L121.188 139.78Z" fill="#8F6E0D"/>
<path d="M141.348 138.957C132.081 136.981 121.324 138.029 121.324 138.029C121.324 138.029 131.645 142.599 141.348 138.957Z" fill="#FFA300"/>
<path d="M142.541 138.052C138.224 140.786 126.958 141.063 122.5 138.068L122.453 136.163C126.749 137.964 136.895 137.687 142.498 136.297L142.541 138.052Z" fill="#8F6E0D"/>
<path d="M122.454 136.163C131.812 134.68 142.499 136.296 142.499 136.296C142.499 136.296 131.95 140.313 122.454 136.163Z" fill="#FFA300"/>
<path d="M123.654 136.801C128.037 139.428 139.307 139.428 143.689 136.325V134.419C139.44 136.325 129.289 136.297 123.654 135.045V136.801Z" fill="#8F6E0D"/>
<path d="M143.689 134.419C134.298 133.167 123.654 135.045 123.654 135.045C123.654 135.045 134.298 138.801 143.689 134.419Z" fill="#FFA300"/>
<path d="M124.906 135.548C129.289 138.175 140.559 138.175 144.941 135.072V133.166C140.692 135.072 130.541 135.044 124.906 133.792V135.548Z" fill="#8F6E0D"/>
<path d="M144.941 133.166C135.55 131.914 124.906 133.792 124.906 133.792C124.906 133.792 135.55 137.549 144.941 133.166Z" fill="#FFA300"/>
<path d="M123.654 133.044C128.037 135.671 139.307 135.671 143.689 132.568V130.662C139.44 132.568 129.289 132.54 123.654 131.288V133.044Z" fill="#8F6E0D"/>
<path d="M143.689 130.662C134.298 129.41 123.654 131.288 123.654 131.288C123.654 131.288 134.298 135.045 143.689 130.662Z" fill="#FFA300"/>
<path d="M144.947 129.762C140.78 132.72 129.544 133.593 124.935 130.838L124.787 128.938C129.172 130.509 139.29 129.696 144.811 128.011L144.947 129.762Z" fill="#8F6E0D"/>
<path d="M124.787 128.939C134.054 126.963 144.811 128.012 144.811 128.012C144.811 128.012 134.49 132.581 124.787 128.939Z" fill="#FFA300"/>
<path d="M123.592 128.035C127.909 130.768 139.175 131.045 143.633 128.051L143.68 126.146C139.384 127.946 129.238 127.67 123.635 126.279L123.592 128.035Z" fill="#8F6E0D"/>
<path d="M143.679 126.145C134.321 124.663 123.634 126.279 123.634 126.279C123.634 126.279 134.183 130.296 143.679 126.145Z" fill="#FFA300"/>
<path d="M102.367 155.583C106.75 158.21 118.02 158.21 122.402 155.107V153.201C118.152 155.107 108.002 155.079 102.367 153.827V155.583Z" fill="#8F6E0D"/>
<path d="M122.402 153.201C113.011 151.949 102.367 153.827 102.367 153.827C102.367 153.827 113.011 157.584 122.402 153.201Z" fill="#FFA300"/>
<path d="M103.619 154.331C108.002 156.958 119.272 156.958 123.654 153.855V151.949C119.404 153.855 109.254 153.828 103.619 152.575V154.331Z" fill="#8F6E0D"/>
<path d="M123.654 151.949C114.263 150.697 103.619 152.575 103.619 152.575C103.619 152.575 114.263 156.332 123.654 151.949Z" fill="#FFA300"/>
<path d="M102.367 151.826C106.75 154.453 118.02 154.453 122.402 151.35V149.444C118.152 151.35 108.002 151.323 102.367 150.07V151.826Z" fill="#8F6E0D"/>
<path d="M122.402 149.444C113.011 148.192 102.367 150.07 102.367 150.07C102.367 150.07 113.011 153.827 122.402 149.444Z" fill="#FFA300"/>
<path d="M123.658 148.544C119.491 151.503 108.255 152.375 103.646 149.621L103.498 147.721C107.883 149.292 118.001 148.478 123.522 146.794L123.658 148.544Z" fill="#8F6E0D"/>
<path d="M103.498 147.721C112.765 145.746 123.522 146.794 123.522 146.794C123.522 146.794 113.201 151.364 103.498 147.721Z" fill="#FFA300"/>
<path d="M102.305 146.817C106.622 149.551 117.888 149.827 122.346 146.833L122.393 144.928C118.097 146.728 107.95 146.452 102.348 145.061L102.305 146.817Z" fill="#8F6E0D"/>
<path d="M122.392 144.927C113.034 143.445 102.347 145.061 102.347 145.061C102.347 145.061 112.895 149.078 122.392 144.927Z" fill="#FFA300"/>
<path d="M102.367 144.314C106.75 146.94 118.02 146.94 122.402 143.837V141.932C118.152 143.837 108.002 143.81 102.367 142.558V144.314Z" fill="#8F6E0D"/>
<path d="M122.402 141.931C113.011 140.679 102.367 142.558 102.367 142.558C102.367 142.558 113.011 146.314 122.402 141.931Z" fill="#FFA300"/>
<path d="M103.619 143.062C108.002 145.689 119.272 145.689 123.654 142.585V140.68C119.404 142.585 109.254 142.558 103.619 141.306V143.062Z" fill="#8F6E0D"/>
<path d="M123.654 140.679C114.263 139.427 103.619 141.306 103.619 141.306C103.619 141.306 114.263 145.062 123.654 140.679Z" fill="#FFA300"/>
<path d="M102.367 140.557C106.75 143.184 118.02 143.184 122.402 140.08V138.175C118.152 140.08 108.002 140.053 102.367 138.801V140.557Z" fill="#8F6E0D"/>
<path d="M122.402 138.175C113.011 136.922 102.367 138.801 102.367 138.801C102.367 138.801 113.011 142.557 122.402 138.175Z" fill="#FFA300"/>
<path d="M123.658 137.275C119.491 140.233 108.255 141.106 103.646 138.351L103.498 136.451C107.883 138.022 118.001 137.209 123.522 135.524L123.658 137.275Z" fill="#8F6E0D"/>
<path d="M103.498 136.452C112.765 134.476 123.522 135.525 123.522 135.525C123.522 135.525 113.201 140.094 103.498 136.452Z" fill="#FFA300"/>
<path d="M102.305 135.547C106.622 138.281 117.888 138.558 122.346 135.563L122.393 133.658C118.097 135.459 107.95 135.182 102.348 133.792L102.305 135.547Z" fill="#8F6E0D"/>
<path d="M122.392 133.658C113.034 132.175 102.347 133.792 102.347 133.792C102.347 133.792 112.895 137.809 122.392 133.658Z" fill="#FFA300"/>
<path d="M121.192 134.296C116.809 136.923 105.539 136.923 101.156 133.82V131.914C105.406 133.82 115.557 133.792 121.192 132.54V134.296Z" fill="#8F6E0D"/>
<path d="M101.156 131.914C110.548 130.662 121.192 132.54 121.192 132.54C121.192 132.54 110.548 136.297 101.156 131.914Z" fill="#FFA300"/>
<path d="M119.94 133.044C115.557 135.671 104.287 135.671 99.9043 132.568V130.662C104.154 132.568 114.305 132.54 119.94 131.288V133.044Z" fill="#8F6E0D"/>
<path d="M99.9043 130.662C109.296 129.41 119.94 131.288 119.94 131.288C119.94 131.288 109.296 135.045 99.9043 130.662Z" fill="#FFA300"/>
<path d="M121.192 130.539C116.809 133.166 105.539 133.166 101.156 130.063V128.157C105.406 130.063 115.557 130.036 121.192 128.783V130.539Z" fill="#8F6E0D"/>
<path d="M101.156 128.157C110.548 126.905 121.192 128.783 121.192 128.783C121.192 128.783 110.548 132.54 101.156 128.157Z" fill="#FFA300"/>
<path d="M99.899 127.257C104.065 130.215 115.301 131.088 119.911 128.333L120.059 126.434C115.674 128.004 105.556 127.191 100.035 125.507L99.899 127.257Z" fill="#8F6E0D"/>
<path d="M120.058 126.434C110.792 124.458 100.035 125.507 100.035 125.507C100.035 125.507 110.356 130.076 120.058 126.434Z" fill="#FFA300"/>
<path d="M121.254 125.53C116.937 128.263 105.67 128.54 101.213 125.546L101.166 123.641C105.461 125.441 115.608 125.165 121.211 123.774L121.254 125.53Z" fill="#8F6E0D"/>
<path d="M101.167 123.64C110.525 122.158 121.211 123.774 121.211 123.774C121.211 123.774 110.663 127.791 101.167 123.64Z" fill="#FFA300"/>
<path d="M100.495 123.014C104.722 125.884 115.974 126.522 120.525 123.672L120.633 121.77C116.282 123.432 106.149 122.83 100.594 121.261L100.495 123.014Z" fill="#8F6E0D"/>
<path d="M120.632 121.77C111.326 119.988 100.593 121.261 100.593 121.261C100.593 121.261 111.007 125.614 120.632 121.77Z" fill="#FFA300"/>
<path d="M101.815 121.834C106.042 124.705 117.294 125.343 121.845 122.492L121.953 120.59C117.602 122.252 107.47 121.65 101.915 120.081L101.815 121.834Z" fill="#8F6E0D"/>
<path d="M121.952 120.59C112.647 118.808 101.914 120.081 101.914 120.081C101.914 120.081 112.328 124.434 121.952 120.59Z" fill="#FFA300"/>
<path d="M100.708 119.263C104.935 122.133 116.187 122.771 120.738 119.921L120.846 118.019C116.495 119.681 106.362 119.079 100.807 117.51L100.708 119.263Z" fill="#8F6E0D"/>
<path d="M120.845 118.019C111.539 116.237 100.806 117.51 100.806 117.51C100.806 117.51 111.22 121.863 120.845 118.019Z" fill="#FFA300"/>
<path d="M122.151 117.193C117.824 119.911 106.557 120.146 102.11 117.135L102.07 115.229C106.359 117.046 116.507 116.807 122.114 115.437L122.151 117.193Z" fill="#8F6E0D"/>
<path d="M102.07 115.229C111.433 113.781 122.114 115.437 122.114 115.437C122.114 115.437 111.55 119.415 102.07 115.229Z" fill="#FFA300"/>
<path d="M100.925 114.258C105.081 117.232 116.313 118.146 120.933 115.408L121.088 113.509C116.697 115.063 106.583 114.213 101.068 112.508L100.925 114.258Z" fill="#8F6E0D"/>
<path d="M121.088 113.509C111.829 111.499 101.068 112.508 101.068 112.508C101.068 112.508 111.372 117.116 121.088 113.509Z" fill="#FFA300"/>
<path d="M140.241 111.817C140.241 116.427 136.503 120.165 131.893 120.165C127.282 120.165 123.545 116.427 123.545 111.817C123.545 107.206 127.282 103.469 131.893 103.469C136.503 103.469 140.241 107.206 140.241 111.817Z" fill="#69757B"/>
<path d="M142.329 111.817C142.329 116.427 138.591 120.165 133.981 120.165C129.37 120.165 125.633 116.427 125.633 111.817C125.633 107.206 129.37 103.469 133.981 103.469C138.591 103.469 142.329 107.206 142.329 111.817Z" fill="#FFA300"/>
<path d="M133.305 117.185V115.901C132.836 115.893 132.388 115.852 131.96 115.779C131.536 115.706 131.189 115.61 130.92 115.492V114.501C131.201 114.632 131.562 114.746 132.002 114.843C132.443 114.941 132.877 114.994 133.305 115.002V112.312C132.767 112.161 132.32 111.99 131.966 111.799C131.615 111.603 131.352 111.364 131.177 111.083C131.002 110.802 130.914 110.462 130.914 110.062C130.914 109.646 131.012 109.292 131.208 108.998C131.407 108.701 131.686 108.468 132.045 108.301C132.404 108.134 132.824 108.038 133.305 108.014V106.956H134.051V108.002C134.487 108.014 134.884 108.063 135.243 108.148C135.602 108.23 135.934 108.336 136.24 108.466L135.922 109.316C135.644 109.206 135.345 109.112 135.023 109.035C134.701 108.957 134.377 108.904 134.051 108.876V111.548C134.597 111.707 135.053 111.876 135.42 112.055C135.791 112.235 136.07 112.457 136.258 112.722C136.445 112.987 136.539 113.329 136.539 113.749C136.539 114.344 136.321 114.825 135.885 115.192C135.449 115.555 134.837 115.775 134.051 115.852V117.185H133.305ZM134.051 114.947C134.552 114.899 134.925 114.778 135.17 114.587C135.418 114.391 135.543 114.134 135.543 113.816C135.543 113.588 135.494 113.401 135.396 113.254C135.302 113.107 135.147 112.981 134.931 112.875C134.715 112.765 134.422 112.661 134.051 112.563V114.947ZM133.305 111.291V108.9C132.999 108.921 132.742 108.978 132.534 109.072C132.326 109.165 132.17 109.288 132.064 109.438C131.962 109.589 131.911 109.769 131.911 109.977C131.911 110.217 131.956 110.419 132.045 110.582C132.139 110.741 132.288 110.877 132.492 110.991C132.699 111.102 132.97 111.201 133.305 111.291Z" fill="#754C04"/>
<path d="M135.231 91.7816C135.231 96.3921 131.494 100.13 126.883 100.13C122.273 100.13 118.535 96.3921 118.535 91.7816C118.535 87.1711 122.273 83.4336 126.883 83.4336C131.494 83.4336 135.231 87.1711 135.231 91.7816Z" fill="#69757B"/>
<path d="M137.319 91.7816C137.319 96.3921 133.582 100.13 128.971 100.13C124.361 100.13 120.623 96.3921 120.623 91.7816C120.623 87.1711 124.361 83.4336 128.971 83.4336C133.582 83.4336 137.319 87.1711 137.319 91.7816Z" fill="#FFA300"/>
<path d="M128.295 97.1501V95.8661C127.826 95.8579 127.378 95.8172 126.95 95.7438C126.526 95.6704 126.179 95.5746 125.91 95.4564V94.4659C126.192 94.5964 126.552 94.7105 126.993 94.8083C127.433 94.9061 127.867 94.9591 128.295 94.9673V92.277C127.757 92.1262 127.311 91.955 126.956 91.7634C126.605 91.5678 126.342 91.3293 126.167 91.048C125.992 90.7668 125.904 90.4264 125.904 90.027C125.904 89.6112 126.002 89.2566 126.198 88.9631C126.398 88.6655 126.677 88.4332 127.035 88.266C127.394 88.0989 127.814 88.0031 128.295 87.9787V86.9209H129.041V87.9664C129.477 87.9787 129.875 88.0276 130.233 88.1132C130.592 88.1947 130.924 88.3007 131.23 88.4311L130.912 89.281C130.635 89.171 130.335 89.0772 130.013 88.9998C129.691 88.9223 129.367 88.8693 129.041 88.8408V91.5127C129.587 91.6717 130.044 91.8409 130.411 92.0202C130.781 92.1996 131.061 92.4217 131.248 92.6867C131.436 92.9516 131.529 93.294 131.529 93.7139C131.529 94.309 131.311 94.79 130.875 95.1568C130.439 95.5196 129.828 95.7397 129.041 95.8172V97.1501H128.295ZM129.041 94.9123C129.542 94.8633 129.915 94.7431 130.16 94.5515C130.408 94.3559 130.533 94.0991 130.533 93.7811C130.533 93.5529 130.484 93.3653 130.386 93.2186C130.292 93.0719 130.137 92.9455 129.921 92.8395C129.705 92.7295 129.412 92.6255 129.041 92.5277V94.9123ZM128.295 91.2559V88.8652C127.989 88.8856 127.732 88.9427 127.525 89.0364C127.317 89.1302 127.16 89.2525 127.054 89.4033C126.952 89.5541 126.901 89.7335 126.901 89.9414C126.901 90.1818 126.946 90.3836 127.035 90.5467C127.129 90.7056 127.278 90.8422 127.482 90.9563C127.69 91.0664 127.961 91.1662 128.295 91.2559Z" fill="#754C04"/>
<path d="M32.4107 74.0784C32.4107 81.7626 26.1815 87.9918 18.4974 87.9918C10.8132 87.9918 4.58398 81.7626 4.58398 74.0784C4.58398 66.3943 10.8132 60.165 18.4974 60.165C26.1815 60.165 32.4107 66.3943 32.4107 74.0784Z" fill="#69757B"/>
<path d="M35.8893 74.0784C35.8893 81.7626 29.66 87.9918 21.9759 87.9918C14.2917 87.9918 8.0625 81.7626 8.0625 74.0784C8.0625 66.3943 14.2917 60.165 21.9759 60.165C29.66 60.165 35.8893 66.3943 35.8893 74.0784Z" fill="#FFA300"/>
<path d="M20.8778 82.5591V80.5047C20.1278 80.4916 19.4104 80.4264 18.7256 80.309C18.0473 80.1916 17.493 80.0384 17.0625 79.8492V78.2644C17.5125 78.4731 18.0897 78.6557 18.7941 78.8123C19.4984 78.9688 20.193 79.0536 20.8778 79.0666V74.7622C20.0169 74.5208 19.3028 74.2469 18.7354 73.9404C18.1745 73.6273 17.7538 73.2458 17.4734 72.7958C17.193 72.3458 17.0527 71.8012 17.0527 71.1621C17.0527 70.4968 17.2093 69.9294 17.5223 69.4599C17.8419 68.9838 18.2886 68.612 18.8626 68.3446C19.4365 68.0772 20.1082 67.9239 20.8778 67.8848V66.1924H22.0713V67.8652C22.7692 67.8848 23.4051 67.9631 23.979 68.1C24.5529 68.2305 25.0845 68.4 25.5736 68.6087L25.0649 69.9686C24.6214 69.7925 24.142 69.6425 23.6268 69.5186C23.1116 69.3946 22.5931 69.3098 22.0713 69.2642V73.5393C22.9453 73.7937 23.6757 74.0643 24.2627 74.3513C24.8562 74.6382 25.3029 74.9937 25.6029 75.4176C25.9029 75.8415 26.053 76.3894 26.053 77.0611C26.053 78.0133 25.704 78.7829 25.0062 79.3699C24.3083 79.9503 23.3301 80.3025 22.0713 80.4264V82.5591H20.8778ZM22.0713 78.9786C22.8735 78.9003 23.4703 78.7079 23.8616 78.4014C24.2594 78.0883 24.4583 77.6774 24.4583 77.1687C24.4583 76.8035 24.3801 76.5035 24.2236 76.2687C24.0736 76.0339 23.8257 75.8317 23.4801 75.6622C23.1344 75.4861 22.6648 75.3198 22.0713 75.1633V78.9786ZM20.8778 73.1284V69.3033C20.3887 69.3359 19.9778 69.4272 19.6452 69.5772C19.3126 69.7273 19.0615 69.9229 18.8919 70.1642C18.7289 70.4055 18.6473 70.6925 18.6473 71.0251C18.6473 71.4099 18.7191 71.7327 18.8626 71.9936C19.0126 72.248 19.2506 72.4664 19.5767 72.6491C19.9093 72.8252 20.343 72.9849 20.8778 73.1284Z" fill="#754C04"/>
<path d="M147.336 22.5421C147.336 33.6073 138.366 42.5774 127.301 42.5774C116.236 42.5774 107.266 33.6073 107.266 22.5421C107.266 11.4769 116.236 2.50684 127.301 2.50684C138.366 2.50684 147.336 11.4769 147.336 22.5421Z" fill="#52B3E0"/>
<path d="M118.787 16.6165V15.6749C118.787 14.9983 118.934 14.3828 119.227 13.8284C119.521 13.2741 119.941 12.8298 120.487 12.4955C121.033 12.1613 121.681 11.9941 122.431 11.9941C123.198 11.9941 123.85 12.1613 124.388 12.4955C124.934 12.8298 125.354 13.2741 125.647 13.8284C125.941 14.3828 126.088 14.9983 126.088 15.6749V16.6165C126.088 17.2769 125.941 17.8842 125.647 18.4386C125.362 18.993 124.946 19.4373 124.4 19.7715C123.862 20.1058 123.214 20.2729 122.456 20.2729C121.698 20.2729 121.041 20.1058 120.487 19.7715C119.941 19.4373 119.521 18.993 119.227 18.4386C118.934 17.8842 118.787 17.2769 118.787 16.6165ZM120.487 15.6749V16.6165C120.487 16.9915 120.556 17.3462 120.695 17.6804C120.842 18.0147 121.062 18.2878 121.355 18.4997C121.649 18.7035 122.015 18.8054 122.456 18.8054C122.896 18.8054 123.259 18.7035 123.544 18.4997C123.829 18.2878 124.041 18.0147 124.18 17.6804C124.318 17.3462 124.388 16.9915 124.388 16.6165V15.6749C124.388 15.2918 124.314 14.9331 124.168 14.5988C124.029 14.2564 123.813 13.9833 123.52 13.7795C123.234 13.5675 122.871 13.4616 122.431 13.4616C121.999 13.4616 121.636 13.5675 121.343 13.7795C121.058 13.9833 120.842 14.2564 120.695 14.5988C120.556 14.9331 120.487 15.2918 120.487 15.6749ZM127.457 26.644V25.6901C127.457 25.0216 127.604 24.4102 127.897 23.8558C128.191 23.3015 128.611 22.8572 129.157 22.5229C129.703 22.1887 130.351 22.0216 131.101 22.0216C131.868 22.0216 132.52 22.1887 133.058 22.5229C133.604 22.8572 134.024 23.3015 134.317 23.8558C134.611 24.4102 134.758 25.0216 134.758 25.6901V26.644C134.758 27.3124 134.611 27.9239 134.317 28.4782C134.032 29.0326 133.616 29.4769 133.07 29.8111C132.532 30.1454 131.884 30.3125 131.126 30.3125C130.368 30.3125 129.715 30.1454 129.169 29.8111C128.623 29.4769 128.199 29.0326 127.897 28.4782C127.604 27.9239 127.457 27.3124 127.457 26.644ZM129.157 25.6901V26.644C129.157 27.019 129.226 27.3777 129.365 27.7201C129.512 28.0543 129.732 28.3274 130.025 28.5394C130.319 28.7432 130.685 28.8451 131.126 28.8451C131.566 28.8451 131.929 28.7432 132.214 28.5394C132.508 28.3274 132.724 28.0543 132.862 27.7201C133.001 27.3858 133.07 27.0271 133.07 26.644V25.6901C133.07 25.307 132.997 24.9483 132.85 24.614C132.711 24.2798 132.495 24.0107 132.202 23.8069C131.917 23.595 131.55 23.489 131.101 23.489C130.669 23.489 130.306 23.595 130.013 23.8069C129.728 24.0107 129.512 24.2798 129.365 24.614C129.226 24.9483 129.157 25.307 129.157 25.6901ZM131.664 14.7823L122.969 28.6984L121.698 27.8913L130.392 13.9752L131.664 14.7823Z" fill="white"/>
</svg>
