<svg width="163" height="160" viewBox="0 0 163 160" fill="none" xmlns="http://www.w3.org/2000/svg">
<path d="M66.6232 120.396C69.4665 122.1 76.7778 122.1 79.6211 120.087V118.851C76.864 120.087 70.2788 120.069 66.6232 119.257V120.396Z" fill="#8F6E0D"/>
<path d="M79.6211 118.851C73.5283 118.038 66.6232 119.257 66.6232 119.257C66.6232 119.257 73.5283 121.694 79.6211 118.851Z" fill="#FFA300"/>
<path d="M67.4357 119.583C70.279 121.288 77.5903 121.288 80.4336 119.274V118.038C77.6765 119.274 71.0913 119.257 67.4357 118.444V119.583Z" fill="#8F6E0D"/>
<path d="M80.4336 118.038C74.3408 117.226 67.4357 118.444 67.4357 118.444C67.4357 118.444 74.3408 120.881 80.4336 118.038Z" fill="#FFA300"/>
<path d="M66.6232 117.959C69.4665 119.664 76.7778 119.664 79.6211 117.65V116.414C76.864 117.65 70.2788 117.633 66.6232 116.82V117.959Z" fill="#8F6E0D"/>
<path d="M79.6211 116.414C73.5283 115.602 66.6232 116.82 66.6232 116.82C66.6232 116.82 73.5283 119.257 79.6211 116.414Z" fill="#FFA300"/>
<path d="M80.436 115.83C77.7332 117.749 70.4438 118.315 67.4531 116.528L67.3574 115.296C70.202 116.315 76.766 115.787 80.3478 114.694L80.436 115.83Z" fill="#8F6E0D"/>
<path d="M67.3576 115.296C73.3692 114.014 80.3479 114.695 80.3479 114.695C80.3479 114.695 73.6522 117.659 67.3576 115.296Z" fill="#FFA300"/>
<path d="M66.5813 114.709C69.3819 116.482 76.691 116.662 79.5829 114.719L79.6133 113.483C76.8266 114.652 70.2439 114.472 66.6093 113.57L66.5813 114.709Z" fill="#8F6E0D"/>
<path d="M79.6142 113.483C73.5432 112.521 66.6102 113.57 66.6102 113.57C66.6102 113.57 73.4534 116.176 79.6142 113.483Z" fill="#FFA300"/>
<path d="M66.6232 113.084C69.4665 114.789 76.7778 114.789 79.6211 112.775V111.539C76.864 112.775 70.2788 112.758 66.6232 111.945V113.084Z" fill="#8F6E0D"/>
<path d="M79.6211 111.539C73.5283 110.727 66.6232 111.945 66.6232 111.945C66.6232 111.945 73.5283 114.382 79.6211 111.539Z" fill="#FFA300"/>
<path d="M67.4357 112.273C70.279 113.977 77.5903 113.977 80.4336 111.964V110.728C77.6765 111.964 71.0913 111.946 67.4357 111.134V112.273Z" fill="#8F6E0D"/>
<path d="M80.4336 110.728C74.3408 109.915 67.4357 111.134 67.4357 111.134C67.4357 111.134 74.3408 113.571 80.4336 110.728Z" fill="#FFA300"/>
<path d="M66.6232 110.648C69.4665 112.352 76.7778 112.352 79.6211 110.339V109.103C76.864 110.339 70.2788 110.321 66.6232 109.509V110.648Z" fill="#8F6E0D"/>
<path d="M79.6211 109.103C73.5283 108.29 66.6232 109.509 66.6232 109.509C66.6232 109.509 73.5283 111.946 79.6211 109.103Z" fill="#FFA300"/>
<path d="M80.436 108.519C77.7332 110.438 70.4438 111.004 67.4531 109.217L67.3574 107.984C70.202 109.003 76.766 108.476 80.3478 107.383L80.436 108.519Z" fill="#8F6E0D"/>
<path d="M67.3576 107.984C73.3692 106.703 80.3479 107.383 80.3479 107.383C80.3479 107.383 73.6522 110.347 67.3576 107.984Z" fill="#FFA300"/>
<path d="M66.5813 107.397C69.3819 109.171 76.691 109.351 79.5829 107.408L79.6133 106.172C76.8266 107.34 70.2439 107.161 66.6093 106.259L66.5813 107.397Z" fill="#8F6E0D"/>
<path d="M79.6142 106.172C73.5432 105.21 66.6102 106.259 66.6102 106.259C66.6102 106.259 73.4534 108.865 79.6142 106.172Z" fill="#FFA300"/>
<path d="M78.8378 106.586C75.9945 108.29 68.6831 108.29 65.8398 106.277V105.041C68.597 106.277 75.1821 106.26 78.8378 105.447V106.586Z" fill="#8F6E0D"/>
<path d="M65.8398 105.041C71.9326 104.229 78.8378 105.447 78.8378 105.447C78.8378 105.447 71.9326 107.884 65.8398 105.041Z" fill="#FFA300"/>
<path d="M78.0253 105.774C75.182 107.478 67.8706 107.478 65.0273 105.465V104.229C67.7845 105.465 74.3696 105.447 78.0253 104.635V105.774Z" fill="#8F6E0D"/>
<path d="M65.0273 104.228C71.1201 103.416 78.0253 104.635 78.0253 104.635C78.0253 104.635 71.1201 107.072 65.0273 104.228Z" fill="#FFA300"/>
<path d="M78.8378 104.149C75.9945 105.853 68.6831 105.853 65.8398 103.84V102.604C68.597 103.84 75.1821 103.822 78.8378 103.01V104.149Z" fill="#8F6E0D"/>
<path d="M65.8398 102.603C71.9326 101.791 78.8378 103.01 78.8378 103.01C78.8378 103.01 71.9326 105.447 65.8398 102.603Z" fill="#FFA300"/>
<path d="M64.2128 126.896C61.3695 128.6 54.0581 128.6 51.2148 126.587V125.351C53.972 126.587 60.5571 126.569 64.2128 125.757V126.896Z" fill="#8F6E0D"/>
<path d="M51.2148 125.351C57.3076 124.538 64.2128 125.757 64.2128 125.757C64.2128 125.757 57.3076 128.194 51.2148 125.351Z" fill="#FFA300"/>
<path d="M63.4003 126.082C60.557 127.787 53.2456 127.787 50.4023 125.773V124.537C53.1595 125.773 59.7446 125.756 63.4003 124.943V126.082Z" fill="#8F6E0D"/>
<path d="M50.4023 124.537C56.4951 123.725 63.4003 124.943 63.4003 124.943C63.4003 124.943 56.4951 127.38 50.4023 124.537Z" fill="#FFA300"/>
<path d="M64.2128 124.457C61.3695 126.162 54.0581 126.162 51.2148 124.148V122.912C53.972 124.148 60.5571 124.131 64.2128 123.318V124.457Z" fill="#8F6E0D"/>
<path d="M51.2148 122.912C57.3076 122.1 64.2128 123.318 64.2128 123.318C64.2128 123.318 57.3076 125.755 51.2148 122.912Z" fill="#FFA300"/>
<path d="M50.3999 122.329C53.1028 124.248 60.3922 124.815 63.3828 123.027L63.4785 121.795C60.6339 122.814 54.0699 122.286 50.4881 121.194L50.3999 122.329Z" fill="#8F6E0D"/>
<path d="M63.4784 121.795C57.4668 120.513 50.488 121.194 50.488 121.194C50.488 121.194 57.1837 124.158 63.4784 121.795Z" fill="#FFA300"/>
<path d="M64.2546 121.208C61.4541 122.981 54.1449 123.161 51.253 121.218L51.2227 119.982C54.0093 121.151 60.592 120.971 64.2266 120.069L64.2546 121.208Z" fill="#8F6E0D"/>
<path d="M51.2217 119.982C57.2927 119.02 64.2257 120.069 64.2257 120.069C64.2257 120.069 57.3825 122.675 51.2217 119.982Z" fill="#FFA300"/>
<path d="M64.2128 119.583C61.3695 121.288 54.0581 121.288 51.2148 119.274V118.038C53.972 119.274 60.5571 119.257 64.2128 118.444V119.583Z" fill="#8F6E0D"/>
<path d="M51.2148 118.038C57.3076 117.226 64.2128 118.444 64.2128 118.444C64.2128 118.444 57.3076 120.881 51.2148 118.038Z" fill="#FFA300"/>
<path d="M63.4003 118.771C60.557 120.475 53.2456 120.475 50.4023 118.462V117.226C53.1595 118.462 59.7446 118.444 63.4003 117.632V118.771Z" fill="#8F6E0D"/>
<path d="M50.4023 117.226C56.4951 116.413 63.4003 117.632 63.4003 117.632C63.4003 117.632 56.4951 120.069 50.4023 117.226Z" fill="#FFA300"/>
<path d="M64.2128 117.147C61.3695 118.851 54.0581 118.851 51.2148 116.838V115.602C53.972 116.838 60.5571 116.82 64.2128 116.008V117.147Z" fill="#8F6E0D"/>
<path d="M51.2148 115.602C57.3076 114.789 64.2128 116.008 64.2128 116.008C64.2128 116.008 57.3076 118.445 51.2148 115.602Z" fill="#FFA300"/>
<path d="M50.3999 115.018C53.1028 116.937 60.3922 117.503 63.3828 115.716L63.4785 114.483C60.6339 115.502 54.0699 114.975 50.4881 113.882L50.3999 115.018Z" fill="#8F6E0D"/>
<path d="M63.4784 114.483C57.4668 113.202 50.488 113.882 50.488 113.882C50.488 113.882 57.1837 116.847 63.4784 114.483Z" fill="#FFA300"/>
<path d="M64.2546 113.896C61.4541 115.67 54.1449 115.85 51.253 113.907L51.2227 112.671C54.0093 113.839 60.592 113.66 64.2266 112.758L64.2546 113.896Z" fill="#8F6E0D"/>
<path d="M51.2217 112.671C57.2927 111.709 64.2257 112.758 64.2257 112.758C64.2257 112.758 57.3825 115.364 51.2217 112.671Z" fill="#FFA300"/>
<path d="M52.0001 113.084C54.8434 114.789 62.1547 114.789 64.998 112.775V111.539C62.2409 112.775 55.6558 112.758 52.0001 111.945V113.084Z" fill="#8F6E0D"/>
<path d="M64.998 111.539C58.9053 110.727 52.0001 111.945 52.0001 111.945C52.0001 111.945 58.9053 114.382 64.998 111.539Z" fill="#FFA300"/>
<path d="M85.6197 126.2C83.0501 127.74 76.4426 127.74 73.873 125.921V124.804C76.3648 125.921 82.3159 125.905 85.6197 125.171V126.2Z" fill="#8F6E0D"/>
<path d="M73.873 124.804C79.3793 124.07 85.6197 125.171 85.6197 125.171C85.6197 125.171 79.3793 127.374 73.873 124.804Z" fill="#FFA300"/>
<path d="M84.8833 125.468C82.3138 127.008 75.7063 127.008 73.1367 125.189V124.071C75.6284 125.189 81.5796 125.173 84.8833 124.438V125.468Z" fill="#8F6E0D"/>
<path d="M73.1367 124.072C78.6429 123.338 84.8833 124.439 84.8833 124.439C84.8833 124.439 78.6429 126.641 73.1367 124.072Z" fill="#FFA300"/>
<path d="M85.6197 123.998C83.0501 125.538 76.4426 125.538 73.873 123.719V122.602C76.3648 123.719 82.3159 123.703 85.6197 122.969V123.998Z" fill="#8F6E0D"/>
<path d="M73.873 122.602C79.3793 121.868 85.6197 122.969 85.6197 122.969C85.6197 122.969 79.3793 125.172 73.873 122.602Z" fill="#FFA300"/>
<path d="M73.1356 122.074C75.5782 123.808 82.1658 124.32 84.8686 122.705L84.9551 121.591C82.3843 122.512 76.4523 122.035 73.2153 121.047L73.1356 122.074Z" fill="#8F6E0D"/>
<path d="M84.9551 121.591C79.5222 120.433 73.2153 121.048 73.2153 121.048C73.2153 121.048 79.2664 123.727 84.9551 121.591Z" fill="#FFA300"/>
<path d="M85.6563 121.062C83.1253 122.664 76.5198 122.827 73.9064 121.071L73.8789 119.954C76.3973 121.01 82.3463 120.848 85.631 120.033L85.6563 121.062Z" fill="#8F6E0D"/>
<path d="M73.8792 119.954C79.3658 119.085 85.6313 120.033 85.6313 120.033C85.6313 120.033 79.4469 122.388 73.8792 119.954Z" fill="#FFA300"/>
<path d="M85.6197 119.593C83.0501 121.133 76.4426 121.133 73.873 119.314V118.196C76.3648 119.314 82.3159 119.298 85.6197 118.563V119.593Z" fill="#8F6E0D"/>
<path d="M73.873 118.197C79.3793 117.463 85.6197 118.564 85.6197 118.564C85.6197 118.564 79.3793 120.766 73.873 118.197Z" fill="#FFA300"/>
<path d="M84.8833 118.859C82.3138 120.4 75.7063 120.4 73.1367 118.58V117.463C75.6284 118.58 81.5796 118.564 84.8833 117.83V118.859Z" fill="#8F6E0D"/>
<path d="M73.1367 117.463C78.6429 116.729 84.8833 117.83 84.8833 117.83C84.8833 117.83 78.6429 120.033 73.1367 117.463Z" fill="#FFA300"/>
<path d="M85.6197 117.392C83.0501 118.932 76.4426 118.932 73.873 117.112V115.995C76.3648 117.112 82.3159 117.096 85.6197 116.362V117.392Z" fill="#8F6E0D"/>
<path d="M73.873 115.996C79.3793 115.261 85.6197 116.363 85.6197 116.363C85.6197 116.363 79.3793 118.565 73.873 115.996Z" fill="#FFA300"/>
<path d="M73.1356 115.468C75.5782 117.203 82.1658 117.714 84.8686 116.099L84.9551 114.985C82.3843 115.906 76.4523 115.43 73.2153 114.442L73.1356 115.468Z" fill="#8F6E0D"/>
<path d="M84.9551 114.985C79.5222 113.827 73.2153 114.441 73.2153 114.441C73.2153 114.441 79.2664 117.121 84.9551 114.985Z" fill="#FFA300"/>
<path d="M85.6563 114.453C83.1253 116.056 76.5198 116.218 73.9064 114.463L73.8789 113.346C76.3973 114.401 82.3463 114.239 85.631 113.424L85.6563 114.453Z" fill="#8F6E0D"/>
<path d="M73.8792 113.346C79.3658 112.477 85.6313 113.424 85.6313 113.424C85.6313 113.424 79.4469 115.78 73.8792 113.346Z" fill="#FFA300"/>
<path d="M74.5815 113.72C77.1511 115.26 83.7586 115.26 86.3281 113.44V112.323C83.8364 113.44 77.8852 113.424 74.5815 112.69V113.72Z" fill="#8F6E0D"/>
<path d="M86.3281 112.324C80.8219 111.589 74.5815 112.691 74.5815 112.691C74.5815 112.691 80.8219 114.893 86.3281 112.324Z" fill="#FFA300"/>
<path d="M81.2378 127.014C83.8073 128.554 90.4148 128.554 92.9844 126.734V125.617C90.4927 126.734 84.5415 126.718 81.2378 125.984V127.014Z" fill="#8F6E0D"/>
<path d="M92.9844 125.618C87.4781 124.883 81.2378 125.985 81.2378 125.985C81.2378 125.985 87.4781 128.187 92.9844 125.618Z" fill="#FFA300"/>
<path d="M81.9721 126.281C84.5417 127.821 91.1492 127.821 93.7188 126.002V124.885C91.227 126.002 85.2759 125.986 81.9721 125.252V126.281Z" fill="#8F6E0D"/>
<path d="M93.7188 124.884C88.2125 124.15 81.9721 125.251 81.9721 125.251C81.9721 125.251 88.2125 127.454 93.7188 124.884Z" fill="#FFA300"/>
<path d="M81.2378 124.811C83.8073 126.351 90.4148 126.351 92.9844 124.531V123.414C90.4927 124.531 84.5415 124.515 81.2378 123.781V124.811Z" fill="#8F6E0D"/>
<path d="M92.9844 123.414C87.4781 122.68 81.2378 123.782 81.2378 123.782C81.2378 123.782 87.4781 125.984 92.9844 123.414Z" fill="#FFA300"/>
<path d="M93.7218 122.887C91.2792 124.622 84.6916 125.133 81.9888 123.518L81.9023 122.404C84.4731 123.325 90.4051 122.849 93.6421 121.861L93.7218 122.887Z" fill="#8F6E0D"/>
<path d="M81.9024 122.405C87.3352 121.247 93.6421 121.861 93.6421 121.861C93.6421 121.861 87.591 124.54 81.9024 122.405Z" fill="#FFA300"/>
<path d="M81.2011 121.874C83.7321 123.477 90.3376 123.639 92.9511 121.884L92.9785 120.767C90.4601 121.822 84.5111 121.66 81.2264 120.845L81.2011 121.874Z" fill="#8F6E0D"/>
<path d="M92.9782 120.767C87.4916 119.898 81.2261 120.845 81.2261 120.845C81.2261 120.845 87.4105 123.2 92.9782 120.767Z" fill="#FFA300"/>
<path d="M81.2378 120.406C83.8073 121.946 90.4148 121.946 92.9844 120.127V119.01C90.4927 120.127 84.5415 120.111 81.2378 119.377V120.406Z" fill="#8F6E0D"/>
<path d="M92.9844 119.01C87.4781 118.276 81.2378 119.377 81.2378 119.377C81.2378 119.377 87.4781 121.58 92.9844 119.01Z" fill="#FFA300"/>
<path d="M81.9721 119.672C84.5417 121.212 91.1492 121.212 93.7188 119.393V118.275C91.227 119.393 85.2759 119.377 81.9721 118.642V119.672Z" fill="#8F6E0D"/>
<path d="M93.7188 118.276C88.2125 117.542 81.9721 118.643 81.9721 118.643C81.9721 118.643 88.2125 120.845 93.7188 118.276Z" fill="#FFA300"/>
<path d="M81.2378 118.204C83.8073 119.744 90.4148 119.744 92.9844 117.925V116.808C90.4927 117.925 84.5415 117.909 81.2378 117.175V118.204Z" fill="#8F6E0D"/>
<path d="M92.9844 116.808C87.4781 116.074 81.2378 117.175 81.2378 117.175C81.2378 117.175 87.4781 119.378 92.9844 116.808Z" fill="#FFA300"/>
<path d="M60.8341 129.332C63.6774 131.037 70.9887 131.037 73.832 129.023V127.787C71.0749 129.023 64.4898 129.006 60.8341 128.193V129.332Z" fill="#8F6E0D"/>
<path d="M73.832 127.787C67.7392 126.975 60.8341 128.193 60.8341 128.193C60.8341 128.193 67.7392 130.63 73.832 127.787Z" fill="#FFA300"/>
<path d="M61.6466 128.52C64.4899 130.224 71.8012 130.224 74.6445 128.211V126.975C71.8874 128.211 65.3023 128.193 61.6466 127.381V128.52Z" fill="#8F6E0D"/>
<path d="M74.6445 126.975C68.5517 126.162 61.6466 127.381 61.6466 127.381C61.6466 127.381 68.5517 129.818 74.6445 126.975Z" fill="#FFA300"/>
<path d="M60.8341 126.895C63.6774 128.599 70.9887 128.599 73.832 126.586V125.35C71.0749 126.586 64.4898 126.568 60.8341 125.756V126.895Z" fill="#8F6E0D"/>
<path d="M73.832 125.35C67.7392 124.537 60.8341 125.756 60.8341 125.756C60.8341 125.756 67.7392 128.193 73.832 125.35Z" fill="#FFA300"/>
<path d="M74.6469 124.766C71.9441 126.685 64.6547 127.251 61.6641 125.464L61.5684 124.231C64.4129 125.251 70.9769 124.723 74.5587 123.63L74.6469 124.766Z" fill="#8F6E0D"/>
<path d="M61.5685 124.232C67.5801 122.95 74.5589 123.63 74.5589 123.63C74.5589 123.63 67.8631 126.595 61.5685 124.232Z" fill="#FFA300"/>
<path d="M60.7922 123.645C63.5928 125.418 70.902 125.598 73.7939 123.655L73.8242 122.419C71.0375 123.587 64.4548 123.408 60.8202 122.506L60.7922 123.645Z" fill="#8F6E0D"/>
<path d="M73.8252 122.419C67.7542 121.457 60.8212 122.506 60.8212 122.506C60.8212 122.506 67.6644 125.112 73.8252 122.419Z" fill="#FFA300"/>
<path d="M60.8341 122.021C63.6774 123.725 70.9887 123.725 73.832 121.712V120.476C71.0749 121.712 64.4898 121.694 60.8341 120.882V122.021Z" fill="#8F6E0D"/>
<path d="M73.832 120.476C67.7392 119.663 60.8341 120.882 60.8341 120.882C60.8341 120.882 67.7392 123.319 73.832 120.476Z" fill="#FFA300"/>
<path d="M61.6466 121.208C64.4899 122.913 71.8012 122.913 74.6445 120.899V119.663C71.8874 120.899 65.3023 120.882 61.6466 120.069V121.208Z" fill="#8F6E0D"/>
<path d="M74.6445 119.663C68.5517 118.851 61.6466 120.069 61.6466 120.069C61.6466 120.069 68.5517 122.506 74.6445 119.663Z" fill="#FFA300"/>
<path d="M60.8341 119.583C63.6774 121.288 70.9887 121.288 73.832 119.274V118.038C71.0749 119.274 64.4898 119.257 60.8341 118.444V119.583Z" fill="#8F6E0D"/>
<path d="M73.832 118.038C67.7392 117.226 60.8341 118.444 60.8341 118.444C60.8341 118.444 67.7392 120.881 73.832 118.038Z" fill="#FFA300"/>
<path d="M74.6469 117.454C71.9441 119.373 64.6547 119.94 61.6641 118.152L61.5684 116.92C64.4129 117.939 70.9769 117.411 74.5587 116.319L74.6469 117.454Z" fill="#8F6E0D"/>
<path d="M61.5685 116.92C67.5801 115.638 74.5589 116.319 74.5589 116.319C74.5589 116.319 67.8631 119.283 61.5685 116.92Z" fill="#FFA300"/>
<path d="M60.7922 116.333C63.5928 118.106 70.902 118.286 73.7939 116.343L73.8242 115.107C71.0375 116.276 64.4548 116.096 60.8202 115.194L60.7922 116.333Z" fill="#8F6E0D"/>
<path d="M73.8252 115.107C67.7542 114.145 60.8212 115.194 60.8212 115.194C60.8212 115.194 67.6644 117.8 73.8252 115.107Z" fill="#FFA300"/>
<path d="M154.802 145.38C154.802 153.007 120.795 159.19 78.8454 159.19C36.8956 159.19 2.88867 153.007 2.88867 145.38C2.88867 137.752 36.8956 131.569 78.8454 131.569C120.795 131.569 154.802 137.752 154.802 145.38Z" fill="#C8CCD0"/>
<path opacity="0.7" d="M52.7626 144.567L39.8924 144.567V137.934C39.8924 135.227 39.1733 135.056 36.592 134.444L36.5 134.422C21.6796 130.903 16.1017 118.52 14.9317 116.179C13.4894 113.293 9.60156 113.838 7.52151 113.838H4.01132C0.618938 107.197 0.229008 99.7836 3.62131 92.7675C5.83137 92.7675 6.47177 92.6775 8.02922 92.7675C14.6594 93.1504 13.8325 92.7675 14.9317 89.2485C16.6094 83.8773 22.8496 74.3253 29.362 72.7718V55.2133C37.4742 54.9012 46.0025 64.708 49.2525 69.6505C59.9128 69.5204 82.7873 69.5056 89.0336 69.6505C96.7173 69.8287 112.965 69.6505 121.901 83.2329C131.385 97.648 125.963 129.538 111.746 133.6C107.164 134.909 106.584 135.585 106.584 137.933V144.567H93.7138V137.933C93.7138 134.422 91.7638 134.422 89.0336 134.422H57.8328C53.9328 134.422 52.7626 134.422 52.7626 137.934V144.567Z" fill="#009ED0"/>
<path opacity="0.7" fill-rule="evenodd" clip-rule="evenodd" d="M49.4688 69.2416C47.8041 66.7485 44.893 63.1373 41.3941 60.1524C37.8209 57.1041 33.5602 54.6452 29.3463 54.8074C29.1282 54.8158 28.9558 54.995 28.9558 55.2133V72.4569C25.6766 73.362 22.5363 76.1519 20.0157 79.3259C17.4067 82.6112 15.4003 86.3857 14.5439 89.1274C14.4082 89.5619 14.3015 89.9491 14.2081 90.2879L14.1999 90.3177C14.1035 90.6672 14.0231 90.9564 13.9377 91.2045C13.7679 91.6978 13.6002 91.9591 13.335 92.1294C13.0505 92.3121 12.5901 92.4318 11.733 92.4682C10.8843 92.5042 9.71254 92.4578 8.05259 92.3619C7.07673 92.3055 6.4412 92.319 5.57838 92.3372C5.053 92.3483 4.44334 92.3612 3.62126 92.3612C3.46546 92.3612 3.32339 92.4503 3.25558 92.5906C-0.196337 99.7301 0.203896 107.278 3.64956 114.022C3.71897 114.158 3.85869 114.244 4.01127 114.244H7.52146C7.80811 114.244 8.11713 114.235 8.44179 114.225C9.35463 114.197 10.3911 114.166 11.4019 114.327C12.7495 114.541 13.9299 115.083 14.5683 116.36C14.6121 116.448 14.6621 116.55 14.7186 116.665C16.1729 119.625 21.9486 131.384 36.4061 134.817L36.4982 134.839C37.1498 134.994 37.6584 135.115 38.0674 135.252C38.4747 135.389 38.7456 135.53 38.9366 135.704C39.2984 136.033 39.4861 136.586 39.4861 137.934V144.567C39.4861 144.791 39.668 144.973 39.8923 144.973L52.7626 144.973C52.8703 144.973 52.9736 144.93 53.0498 144.854C53.126 144.778 53.1688 144.675 53.1688 144.567V137.934C53.1688 136.181 53.4709 135.532 54.0343 135.215C54.3472 135.039 54.7885 134.935 55.4289 134.882C56.0665 134.828 56.8516 134.828 57.8327 134.828H89.0335C89.7213 134.828 90.3341 134.828 90.8775 134.881C91.4206 134.934 91.8602 135.036 92.2074 135.22C92.5435 135.398 92.8091 135.661 92.9969 136.072C93.1896 136.494 93.3076 137.089 93.3076 137.933V144.567C93.3076 144.791 93.4894 144.973 93.7138 144.973H106.584C106.808 144.973 106.99 144.791 106.99 144.567V137.933C106.99 136.787 107.135 136.188 107.714 135.683C108.024 135.412 108.479 135.152 109.159 134.875C109.837 134.6 110.716 134.317 111.858 133.99C115.543 132.937 118.619 130.094 121.009 126.258C123.401 122.419 125.13 117.552 126.11 112.374C128.067 102.038 127.063 90.34 122.24 83.0095C113.513 69.7452 97.9213 69.4266 89.9492 69.2637C89.635 69.2572 89.3326 69.2511 89.043 69.2443C82.8322 69.1002 60.2224 69.114 49.4688 69.2416ZM29.7681 55.6122C33.5462 55.6226 37.4532 57.8582 40.8669 60.7704C44.3848 63.7715 47.305 67.4281 48.9131 69.8736C48.9892 69.9893 49.119 70.0583 49.2574 70.0566C59.9166 69.9265 82.7852 69.9117 89.0241 70.0565C89.3014 70.0629 89.5892 70.0689 89.8871 70.0751C97.892 70.2419 113.076 70.5583 121.561 83.4561C126.222 90.5407 127.249 101.995 125.312 112.223C124.345 117.328 122.646 122.095 120.319 125.829C117.991 129.565 115.058 132.231 111.634 133.209C110.485 133.538 109.573 133.83 108.853 134.123C108.136 134.415 107.587 134.716 107.18 135.071C106.323 135.818 106.178 136.731 106.178 137.933V144.161H94.12V137.933C94.12 137.022 93.9942 136.3 93.7359 135.735C93.4728 135.158 93.0802 134.763 92.5876 134.502C92.1059 134.247 91.5461 134.13 90.9558 134.072C90.3694 134.016 89.7193 134.016 89.0466 134.016H57.8167C56.8547 134.016 56.0364 134.016 55.3614 134.072C54.6856 134.128 54.1031 134.244 53.6359 134.507C52.6393 135.068 52.3564 136.174 52.3564 137.934V144.161L40.2985 144.16V137.934C40.2985 136.575 40.1268 135.689 39.4836 135.103C39.1722 134.819 38.7794 134.634 38.3259 134.482C37.8778 134.331 37.3339 134.202 36.7016 134.052L36.5938 134.027C22.5154 130.684 16.8879 119.236 15.4436 116.298C15.3879 116.185 15.3385 116.084 15.295 115.997C14.4911 114.389 13.0064 113.76 11.5295 113.525C10.4354 113.351 9.27787 113.386 8.35114 113.414C8.04607 113.423 7.76601 113.431 7.52146 113.431H4.26116C1.062 107.025 0.699676 99.9203 3.87767 93.1732C4.6143 93.1709 5.16371 93.159 5.635 93.1489C6.46843 93.1309 7.05755 93.1182 8.00575 93.1729C9.66088 93.2685 10.872 93.3178 11.7675 93.2798C12.6544 93.2421 13.2991 93.1179 13.774 92.8129C14.2683 92.4955 14.5144 92.0251 14.7059 91.4689C14.8011 91.1922 14.8883 90.8772 14.983 90.5337L14.9904 90.5068C15.0842 90.1667 15.1878 89.7908 15.3194 89.3696C16.1407 86.74 18.0933 83.0529 20.6519 79.8311C23.2191 76.5984 26.3354 73.9113 29.4562 73.1669C29.6391 73.1232 29.7681 72.9598 29.7681 72.7718V55.6122Z" fill="#009ED0"/>
<path d="M35.3839 71.0473C35.0589 62.2737 31.4574 56.8308 29.6973 55.2061V72.2658C31.322 71.4535 32.9467 71.0473 35.3839 71.0473Z" fill="#165C7D"/>
<path d="M3.70121 114.103C0.0457516 110.041 -0.360516 97.8556 3.29503 92.5752C6.13846 98.2618 6.13843 109.229 3.70121 114.103Z" fill="#165C7D"/>
<path d="M33.759 93.3873C33.759 94.7333 32.6679 95.8244 31.3219 95.8244C29.9759 95.8244 28.8848 94.7333 28.8848 93.3873C28.8848 92.0413 29.9759 90.9502 31.3219 90.9502C32.6679 90.9502 33.759 92.0413 33.759 93.3873Z" fill="#165C7D"/>
<path d="M63.8164 73.8906H81.6886V75.5154H63.8164V73.8906Z" fill="#165C7D"/>
<path d="M90.7245 148.514C87.8812 150.218 80.5699 150.218 77.7266 148.205V146.969C80.4837 148.205 87.0688 148.187 90.7245 147.375V148.514Z" fill="#8F6E0D"/>
<path d="M77.7266 146.969C83.8193 146.156 90.7245 147.375 90.7245 147.375C90.7245 147.375 83.8193 149.812 77.7266 146.969Z" fill="#FFA300"/>
<path d="M89.912 147.702C87.0687 149.406 79.7574 149.406 76.9141 147.393V146.156C79.6712 147.393 86.2563 147.375 89.912 146.562V147.702Z" fill="#8F6E0D"/>
<path d="M76.9141 146.156C83.0068 145.344 89.912 146.562 89.912 146.562C89.912 146.562 83.0068 149 76.9141 146.156Z" fill="#FFA300"/>
<path d="M90.7245 146.078C87.8812 147.782 80.5699 147.782 77.7266 145.768V144.532C80.4837 145.768 87.0688 145.751 90.7245 144.938V146.078Z" fill="#8F6E0D"/>
<path d="M77.7266 144.532C83.8193 143.72 90.7245 144.938 90.7245 144.938C90.7245 144.938 83.8193 147.375 77.7266 144.532Z" fill="#FFA300"/>
<path d="M76.9117 143.947C79.6145 145.867 86.9039 146.433 89.8945 144.646L89.9902 143.413C87.1457 144.432 80.5817 143.905 76.9999 142.812L76.9117 143.947Z" fill="#8F6E0D"/>
<path d="M89.9901 143.413C83.9785 142.132 76.9997 142.812 76.9997 142.812C76.9997 142.812 83.6955 145.776 89.9901 143.413Z" fill="#FFA300"/>
<path d="M90.7664 142.828C87.9658 144.602 80.6566 144.781 77.7647 142.838L77.7344 141.603C80.521 142.771 87.1038 142.591 90.7384 141.689L90.7664 142.828Z" fill="#8F6E0D"/>
<path d="M77.7334 141.602C83.8044 140.641 90.7374 141.689 90.7374 141.689C90.7374 141.689 83.8942 144.295 77.7334 141.602Z" fill="#FFA300"/>
<path d="M90.7245 141.203C87.8812 142.907 80.5699 142.907 77.7266 140.893V139.657C80.4837 140.893 87.0688 140.876 90.7245 140.063V141.203Z" fill="#8F6E0D"/>
<path d="M77.7266 139.657C83.8193 138.845 90.7245 140.063 90.7245 140.063C90.7245 140.063 83.8193 142.5 77.7266 139.657Z" fill="#FFA300"/>
<path d="M89.912 140.391C87.0687 142.095 79.7574 142.095 76.9141 140.082V138.846C79.6712 140.082 86.2563 140.064 89.912 139.252V140.391Z" fill="#8F6E0D"/>
<path d="M76.9141 138.846C83.0068 138.033 89.912 139.252 89.912 139.252C89.912 139.252 83.0068 141.689 76.9141 138.846Z" fill="#FFA300"/>
<path d="M90.7245 138.765C87.8812 140.469 80.5699 140.469 77.7266 138.456V137.22C80.4837 138.456 87.0688 138.438 90.7245 137.626V138.765Z" fill="#8F6E0D"/>
<path d="M77.7266 137.22C83.8193 136.407 90.7245 137.626 90.7245 137.626C90.7245 137.626 83.8193 140.063 77.7266 137.22Z" fill="#FFA300"/>
<path d="M76.9117 136.637C79.6145 138.556 86.9039 139.122 89.8945 137.335L89.9902 136.103C87.1457 137.122 80.5817 136.594 76.9999 135.501L76.9117 136.637Z" fill="#8F6E0D"/>
<path d="M89.9901 136.103C83.9785 134.821 76.9997 135.501 76.9997 135.501C76.9997 135.501 83.6955 138.466 89.9901 136.103Z" fill="#FFA300"/>
<path d="M90.7664 135.516C87.9658 137.289 80.6566 137.469 77.7647 135.526L77.7344 134.29C80.521 135.458 87.1038 135.279 90.7384 134.377L90.7664 135.516Z" fill="#8F6E0D"/>
<path d="M77.7334 134.29C83.8044 133.328 90.7374 134.377 90.7374 134.377C90.7374 134.377 83.8942 136.983 77.7334 134.29Z" fill="#FFA300"/>
<path d="M78.5118 134.705C81.3551 136.409 88.6665 136.409 91.5098 134.395V133.159C88.7526 134.395 82.1675 134.378 78.5118 133.565V134.705Z" fill="#8F6E0D"/>
<path d="M91.5098 133.159C85.417 132.347 78.5118 133.565 78.5118 133.565C78.5118 133.565 85.417 136.002 91.5098 133.159Z" fill="#FFA300"/>
<path d="M79.3224 133.892C82.1657 135.596 89.477 135.596 92.3203 133.583V132.347C89.5632 133.583 82.978 133.565 79.3224 132.753V133.892Z" fill="#8F6E0D"/>
<path d="M92.3203 132.347C86.2275 131.534 79.3224 132.753 79.3224 132.753C79.3224 132.753 86.2275 135.19 92.3203 132.347Z" fill="#FFA300"/>
<path d="M97.1935 148.514C100.037 150.218 107.348 150.218 110.191 148.205V146.969C107.434 148.205 100.849 148.187 97.1935 147.375V148.514Z" fill="#8F6E0D"/>
<path d="M110.191 146.969C104.099 146.156 97.1935 147.375 97.1935 147.375C97.1935 147.375 104.099 149.812 110.191 146.969Z" fill="#FFA300"/>
<path d="M98.006 147.703C100.849 149.407 108.161 149.407 111.004 147.393V146.157C108.247 147.393 101.662 147.376 98.006 146.563V147.703Z" fill="#8F6E0D"/>
<path d="M111.004 146.157C104.911 145.345 98.006 146.563 98.006 146.563C98.006 146.563 104.911 149 111.004 146.157Z" fill="#FFA300"/>
<path d="M97.1935 146.078C100.037 147.782 107.348 147.782 110.191 145.768V144.532C107.434 145.768 100.849 145.751 97.1935 144.938V146.078Z" fill="#8F6E0D"/>
<path d="M110.191 144.532C104.099 143.72 97.1935 144.938 97.1935 144.938C97.1935 144.938 104.099 147.375 110.191 144.532Z" fill="#FFA300"/>
<path d="M111.006 143.948C108.303 145.868 101.014 146.434 98.0235 144.647L97.9277 143.414C100.772 144.433 107.336 143.906 110.918 142.813L111.006 143.948Z" fill="#8F6E0D"/>
<path d="M97.9279 143.414C103.939 142.132 110.918 142.813 110.918 142.813C110.918 142.813 104.223 145.777 97.9279 143.414Z" fill="#FFA300"/>
<path d="M97.1516 142.826C99.9522 144.6 107.261 144.779 110.153 142.836L110.184 141.601C107.397 142.769 100.814 142.589 97.1796 141.687L97.1516 142.826Z" fill="#8F6E0D"/>
<path d="M110.185 141.6C104.114 140.639 97.1806 141.687 97.1806 141.687C97.1806 141.687 104.024 144.293 110.185 141.6Z" fill="#FFA300"/>
<path d="M97.1935 141.204C100.037 142.908 107.348 142.908 110.191 140.894V139.658C107.434 140.894 100.849 140.877 97.1935 140.064V141.204Z" fill="#8F6E0D"/>
<path d="M110.191 139.658C104.099 138.846 97.1935 140.064 97.1935 140.064C97.1935 140.064 104.099 142.501 110.191 139.658Z" fill="#FFA300"/>
<path d="M98.006 140.391C100.849 142.095 108.161 142.095 111.004 140.082V138.846C108.247 140.082 101.662 140.064 98.006 139.252V140.391Z" fill="#8F6E0D"/>
<path d="M111.004 138.846C104.911 138.033 98.006 139.252 98.006 139.252C98.006 139.252 104.911 141.689 111.004 138.846Z" fill="#FFA300"/>
<path d="M97.1935 138.766C100.037 140.47 107.348 140.47 110.191 138.457V137.221C107.434 138.457 100.849 138.439 97.1935 137.627V138.766Z" fill="#8F6E0D"/>
<path d="M110.191 137.221C104.099 136.408 97.1935 137.627 97.1935 137.627C97.1935 137.627 104.099 140.064 110.191 137.221Z" fill="#FFA300"/>
<path d="M111.006 136.637C108.303 138.556 101.014 139.122 98.0235 137.335L97.9277 136.103C100.772 137.122 107.336 136.594 110.918 135.501L111.006 136.637Z" fill="#8F6E0D"/>
<path d="M97.9279 136.103C103.939 134.821 110.918 135.501 110.918 135.501C110.918 135.501 104.223 138.466 97.9279 136.103Z" fill="#FFA300"/>
<path d="M97.1516 135.516C99.9522 137.289 107.261 137.469 110.153 135.526L110.184 134.29C107.397 135.458 100.814 135.279 97.1796 134.377L97.1516 135.516Z" fill="#8F6E0D"/>
<path d="M110.185 134.29C104.114 133.328 97.1806 134.377 97.1806 134.377C97.1806 134.377 104.024 136.983 110.185 134.29Z" fill="#FFA300"/>
<path d="M109.406 134.705C106.563 136.409 99.2515 136.409 96.4082 134.395V133.159C99.1653 134.395 105.75 134.378 109.406 133.565V134.705Z" fill="#8F6E0D"/>
<path d="M96.4082 133.159C102.501 132.347 109.406 133.565 109.406 133.565C109.406 133.565 102.501 136.002 96.4082 133.159Z" fill="#FFA300"/>
<path d="M108.596 133.892C105.752 135.596 98.441 135.596 95.5977 133.583V132.347C98.3548 133.583 104.94 133.565 108.596 132.753V133.892Z" fill="#8F6E0D"/>
<path d="M95.5977 132.347C101.69 131.534 108.596 132.753 108.596 132.753C108.596 132.753 101.69 135.19 95.5977 132.347Z" fill="#FFA300"/>
<path d="M109.406 132.267C106.563 133.971 99.2515 133.971 96.4082 131.958V130.722C99.1653 131.958 105.75 131.94 109.406 131.128V132.267Z" fill="#8F6E0D"/>
<path d="M96.4082 130.722C102.501 129.909 109.406 131.128 109.406 131.128C109.406 131.128 102.501 133.565 96.4082 130.722Z" fill="#FFA300"/>
<path d="M95.5933 130.138C98.2961 132.057 105.586 132.623 108.576 130.836L108.672 129.604C105.827 130.623 99.2633 130.095 95.6815 129.002L95.5933 130.138Z" fill="#8F6E0D"/>
<path d="M108.672 129.604C102.66 128.322 95.6814 129.002 95.6814 129.002C95.6814 129.002 102.377 131.967 108.672 129.604Z" fill="#FFA300"/>
<path d="M109.448 129.017C106.647 130.79 99.3383 130.97 96.4464 129.027L96.416 127.791C99.2027 128.959 105.785 128.78 109.42 127.878L109.448 129.017Z" fill="#8F6E0D"/>
<path d="M96.4151 127.791C102.486 126.829 109.419 127.878 109.419 127.878C109.419 127.878 102.576 130.484 96.4151 127.791Z" fill="#FFA300"/>
<path d="M95.9804 127.383C98.7226 129.246 106.022 129.66 108.975 127.81L109.045 126.576C106.222 127.654 99.6487 127.264 96.0448 126.246L95.9804 127.383Z" fill="#8F6E0D"/>
<path d="M109.045 126.577C103.008 125.421 96.0447 126.246 96.0447 126.246C96.0447 126.246 102.801 129.071 109.045 126.577Z" fill="#FFA300"/>
<path d="M96.8378 126.619C99.5801 128.481 106.88 128.895 109.832 127.046L109.902 125.812C107.08 126.89 100.506 126.499 96.9023 125.481L96.8378 126.619Z" fill="#8F6E0D"/>
<path d="M109.902 125.812C103.865 124.656 96.9021 125.482 96.9021 125.482C96.9021 125.482 103.658 128.306 109.902 125.812Z" fill="#FFA300"/>
<path d="M96.1171 124.951C98.8594 126.813 106.159 127.227 109.112 125.378L109.182 124.144C106.359 125.222 99.7854 124.831 96.1816 123.813L96.1171 124.951Z" fill="#8F6E0D"/>
<path d="M109.181 124.144C103.144 122.988 96.1814 123.814 96.1814 123.814C96.1814 123.814 102.938 126.638 109.181 124.144Z" fill="#FFA300"/>
<path d="M110.029 123.608C107.222 125.371 99.9125 125.523 97.0278 123.57L97.002 122.334C99.7843 123.512 106.368 123.357 110.006 122.469L110.029 123.608Z" fill="#8F6E0D"/>
<path d="M97.0019 122.334C103.076 121.395 110.006 122.469 110.006 122.469C110.006 122.469 103.153 125.049 97.0019 122.334Z" fill="#FFA300"/>
<path d="M96.2594 121.705C98.9551 123.634 106.242 124.227 109.24 122.451L109.34 121.219C106.492 122.227 99.9295 121.676 96.3518 120.569L96.2594 121.705Z" fill="#8F6E0D"/>
<path d="M109.341 121.219C103.334 119.915 96.3526 120.569 96.3526 120.569C96.3526 120.569 103.037 123.559 109.341 121.219Z" fill="#FFA300"/>
<path d="M116.693 148.514C119.537 150.218 126.848 150.218 129.691 148.205V146.969C126.934 148.205 120.349 148.187 116.693 147.375V148.514Z" fill="#8F6E0D"/>
<path d="M129.691 146.969C123.599 146.156 116.693 147.375 116.693 147.375C116.693 147.375 123.599 149.812 129.691 146.969Z" fill="#FFA300"/>
<path d="M117.506 147.703C120.349 149.407 127.661 149.407 130.504 147.393V146.157C127.747 147.393 121.162 147.376 117.506 146.563V147.703Z" fill="#8F6E0D"/>
<path d="M130.504 146.157C124.411 145.345 117.506 146.563 117.506 146.563C117.506 146.563 124.411 149 130.504 146.157Z" fill="#FFA300"/>
<path d="M116.693 146.078C119.537 147.782 126.848 147.782 129.691 145.768V144.532C126.934 145.768 120.349 145.751 116.693 144.938V146.078Z" fill="#8F6E0D"/>
<path d="M129.691 144.532C123.599 143.72 116.693 144.938 116.693 144.938C116.693 144.938 123.599 147.375 129.691 144.532Z" fill="#FFA300"/>
<path d="M130.506 143.947C127.803 145.867 120.514 146.433 117.523 144.646L117.428 143.413C120.272 144.432 126.836 143.905 130.418 142.812L130.506 143.947Z" fill="#8F6E0D"/>
<path d="M117.428 143.413C123.439 142.132 130.418 142.812 130.418 142.812C130.418 142.812 123.723 145.776 117.428 143.413Z" fill="#FFA300"/>
<path d="M116.652 142.826C119.452 144.6 126.761 144.779 129.653 142.836L129.684 141.601C126.897 142.769 120.314 142.589 116.68 141.687L116.652 142.826Z" fill="#8F6E0D"/>
<path d="M129.685 141.6C123.614 140.639 116.681 141.687 116.681 141.687C116.681 141.687 123.524 144.293 129.685 141.6Z" fill="#FFA300"/>
<path d="M116.693 141.204C119.537 142.908 126.848 142.908 129.691 140.894V139.658C126.934 140.894 120.349 140.877 116.693 140.064V141.204Z" fill="#8F6E0D"/>
<path d="M129.691 139.658C123.599 138.846 116.693 140.064 116.693 140.064C116.693 140.064 123.599 142.501 129.691 139.658Z" fill="#FFA300"/>
<path d="M117.506 140.391C120.349 142.095 127.661 142.095 130.504 140.082V138.846C127.747 140.082 121.162 140.064 117.506 139.252V140.391Z" fill="#8F6E0D"/>
<path d="M130.504 138.846C124.411 138.033 117.506 139.252 117.506 139.252C117.506 139.252 124.411 141.689 130.504 138.846Z" fill="#FFA300"/>
<path d="M116.693 138.765C119.537 140.469 126.848 140.469 129.691 138.456V137.22C126.934 138.456 120.349 138.438 116.693 137.626V138.765Z" fill="#8F6E0D"/>
<path d="M129.691 137.22C123.599 136.407 116.693 137.626 116.693 137.626C116.693 137.626 123.599 140.063 129.691 137.22Z" fill="#FFA300"/>
<path d="M130.506 136.637C127.803 138.556 120.514 139.122 117.523 137.335L117.428 136.103C120.272 137.122 126.836 136.594 130.418 135.501L130.506 136.637Z" fill="#8F6E0D"/>
<path d="M117.428 136.103C123.439 134.821 130.418 135.501 130.418 135.501C130.418 135.501 123.723 138.466 117.428 136.103Z" fill="#FFA300"/>
<path d="M116.652 135.516C119.452 137.289 126.761 137.469 129.653 135.526L129.684 134.29C126.897 135.458 120.314 135.279 116.68 134.377L116.652 135.516Z" fill="#8F6E0D"/>
<path d="M129.685 134.29C123.614 133.328 116.681 134.377 116.681 134.377C116.681 134.377 123.524 136.983 129.685 134.29Z" fill="#FFA300"/>
<path d="M128.906 134.705C126.063 136.409 118.752 136.409 115.908 134.395V133.159C118.665 134.395 125.25 134.378 128.906 133.565V134.705Z" fill="#8F6E0D"/>
<path d="M115.908 133.159C122.001 132.347 128.906 133.565 128.906 133.565C128.906 133.565 122.001 136.002 115.908 133.159Z" fill="#FFA300"/>
<path d="M128.096 133.892C125.252 135.596 117.941 135.596 115.098 133.583V132.347C117.855 133.583 124.44 133.565 128.096 132.753V133.892Z" fill="#8F6E0D"/>
<path d="M115.098 132.347C121.19 131.534 128.096 132.753 128.096 132.753C128.096 132.753 121.19 135.19 115.098 132.347Z" fill="#FFA300"/>
<path d="M128.906 132.267C126.063 133.971 118.752 133.971 115.908 131.958V130.722C118.665 131.958 125.25 131.94 128.906 131.128V132.267Z" fill="#8F6E0D"/>
<path d="M115.908 130.722C122.001 129.909 128.906 131.128 128.906 131.128C128.906 131.128 122.001 133.565 115.908 130.722Z" fill="#FFA300"/>
<path d="M115.093 130.138C117.796 132.057 125.086 132.623 128.076 130.836L128.172 129.604C125.327 130.623 118.763 130.095 115.182 129.002L115.093 130.138Z" fill="#8F6E0D"/>
<path d="M128.172 129.604C122.16 128.322 115.181 129.002 115.181 129.002C115.181 129.002 121.877 131.967 128.172 129.604Z" fill="#FFA300"/>
<path d="M128.948 129.017C126.147 130.79 118.838 130.97 115.946 129.027L115.916 127.791C118.703 128.959 125.285 128.78 128.92 127.878L128.948 129.017Z" fill="#8F6E0D"/>
<path d="M115.915 127.791C121.986 126.829 128.919 127.878 128.919 127.878C128.919 127.878 122.076 130.484 115.915 127.791Z" fill="#FFA300"/>
<path d="M115.478 127.383C118.221 129.246 125.52 129.66 128.473 127.81L128.543 126.576C125.72 127.654 119.147 127.264 115.543 126.246L115.478 127.383Z" fill="#8F6E0D"/>
<path d="M128.543 126.577C122.506 125.421 115.543 126.246 115.543 126.246C115.543 126.246 122.299 129.071 128.543 126.577Z" fill="#FFA300"/>
<path d="M116.334 126.619C119.076 128.481 126.376 128.895 129.328 127.046L129.398 125.812C126.576 126.89 120.002 126.499 116.398 125.481L116.334 126.619Z" fill="#8F6E0D"/>
<path d="M129.398 125.812C123.361 124.656 116.398 125.482 116.398 125.482C116.398 125.482 123.154 128.306 129.398 125.812Z" fill="#FFA300"/>
<path d="M115.615 124.951C118.357 126.813 125.657 127.227 128.61 125.378L128.68 124.144C125.857 125.222 119.283 124.831 115.68 123.813L115.615 124.951Z" fill="#8F6E0D"/>
<path d="M128.68 124.144C122.642 122.988 115.679 123.814 115.679 123.814C115.679 123.814 122.436 126.638 128.68 124.144Z" fill="#FFA300"/>
<path d="M129.525 123.608C126.718 125.371 119.409 125.523 116.524 123.57L116.498 122.334C119.28 123.512 125.864 123.357 129.502 122.469L129.525 123.608Z" fill="#8F6E0D"/>
<path d="M116.498 122.334C122.573 121.395 129.502 122.469 129.502 122.469C129.502 122.469 122.649 125.049 116.498 122.334Z" fill="#FFA300"/>
<path d="M115.757 121.705C118.453 123.634 125.74 124.227 128.738 122.451L128.838 121.219C125.99 122.227 119.428 121.676 115.85 120.569L115.757 121.705Z" fill="#8F6E0D"/>
<path d="M128.839 121.219C122.832 119.915 115.851 120.569 115.851 120.569C115.851 120.569 122.535 123.559 128.839 121.219Z" fill="#FFA300"/>
<path d="M115.139 120.071C117.881 121.933 125.18 122.347 128.133 120.498L128.203 119.264C125.38 120.342 118.807 119.951 115.203 118.934L115.139 120.071Z" fill="#8F6E0D"/>
<path d="M128.203 119.264C122.166 118.108 115.203 118.934 115.203 118.934C115.203 118.934 121.959 121.758 128.203 119.264Z" fill="#FFA300"/>
<path d="M115.994 119.306C118.736 121.169 126.036 121.582 128.989 119.733L129.059 118.499C126.236 119.577 119.662 119.187 116.059 118.169L115.994 119.306Z" fill="#8F6E0D"/>
<path d="M129.058 118.5C123.021 117.344 116.058 118.169 116.058 118.169C116.058 118.169 122.814 120.993 129.058 118.5Z" fill="#FFA300"/>
<path d="M115.275 117.638C118.018 119.501 125.317 119.914 128.27 118.065L128.34 116.831C125.517 117.909 118.944 117.519 115.34 116.501L115.275 117.638Z" fill="#8F6E0D"/>
<path d="M128.34 116.832C122.303 115.676 115.34 116.501 115.34 116.501C115.34 116.501 122.096 119.325 128.34 116.832Z" fill="#FFA300"/>
<path d="M129.186 116.294C126.378 118.057 119.069 118.21 116.184 116.256L116.158 115.021C118.941 116.199 125.524 116.044 129.162 115.155L129.186 116.294Z" fill="#8F6E0D"/>
<path d="M116.158 115.02C122.233 114.081 129.162 115.155 129.162 115.155C129.162 115.155 122.309 117.736 116.158 115.02Z" fill="#FFA300"/>
<path d="M115.418 114.392C118.113 116.321 125.401 116.914 128.398 115.138L128.498 113.906C125.65 114.915 119.088 114.363 115.51 113.257L115.418 114.392Z" fill="#8F6E0D"/>
<path d="M128.499 113.906C122.492 112.602 115.511 113.257 115.511 113.257C115.511 113.257 122.196 116.246 128.499 113.906Z" fill="#FFA300"/>
<path d="M115.879 113.581C118.722 115.286 126.034 115.286 128.877 113.272V112.036C126.12 113.272 119.535 113.255 115.879 112.442V113.581Z" fill="#8F6E0D"/>
<path d="M128.877 112.036C122.784 111.224 115.879 112.442 115.879 112.442C115.879 112.442 122.784 114.879 128.877 112.036Z" fill="#FFA300"/>
<path d="M116.692 112.769C119.535 114.473 126.846 114.473 129.689 112.46V111.224C126.932 112.46 120.347 112.442 116.692 111.63V112.769Z" fill="#8F6E0D"/>
<path d="M129.689 111.224C123.597 110.411 116.692 111.63 116.692 111.63C116.692 111.63 123.597 114.067 129.689 111.224Z" fill="#FFA300"/>
<path d="M115.879 111.145C118.722 112.849 126.034 112.849 128.877 110.836V109.6C126.12 110.836 119.535 110.818 115.879 110.006V111.145Z" fill="#8F6E0D"/>
<path d="M128.877 109.6C122.784 108.787 115.879 110.006 115.879 110.006C115.879 110.006 122.784 112.443 128.877 109.6Z" fill="#FFA300"/>
<path d="M129.692 109.016C126.989 110.935 119.7 111.501 116.709 109.714L116.613 108.481C119.458 109.501 126.022 108.973 129.604 107.88L129.692 109.016Z" fill="#8F6E0D"/>
<path d="M116.613 108.482C122.625 107.2 129.604 107.88 129.604 107.88C129.604 107.88 122.908 110.845 116.613 108.482Z" fill="#FFA300"/>
<path d="M115.837 107.895C118.638 109.668 125.947 109.848 128.839 107.905L128.869 106.669C126.082 107.837 119.5 107.658 115.865 106.756L115.837 107.895Z" fill="#8F6E0D"/>
<path d="M128.87 106.669C122.799 105.707 115.866 106.756 115.866 106.756C115.866 106.756 122.709 109.362 128.87 106.669Z" fill="#FFA300"/>
<path d="M115.879 106.27C118.722 107.974 126.034 107.974 128.877 105.961V104.725C126.12 105.961 119.535 105.943 115.879 105.131V106.27Z" fill="#8F6E0D"/>
<path d="M128.877 104.725C122.784 103.912 115.879 105.131 115.879 105.131C115.879 105.131 122.784 107.568 128.877 104.725Z" fill="#FFA300"/>
<path d="M116.692 105.458C119.535 107.163 126.846 107.163 129.689 105.149V103.913C126.932 105.149 120.347 105.132 116.692 104.319V105.458Z" fill="#8F6E0D"/>
<path d="M129.689 103.913C123.597 103.101 116.692 104.319 116.692 104.319C116.692 104.319 123.597 106.756 129.689 103.913Z" fill="#FFA300"/>
<path d="M115.879 103.833C118.722 105.538 126.034 105.538 128.877 103.524V102.288C126.12 103.524 119.535 103.507 115.879 102.694V103.833Z" fill="#8F6E0D"/>
<path d="M128.877 102.288C122.784 101.476 115.879 102.694 115.879 102.694C115.879 102.694 122.784 105.131 128.877 102.288Z" fill="#FFA300"/>
<path d="M129.692 101.704C126.989 103.623 119.7 104.19 116.709 102.402L116.613 101.17C119.458 102.189 126.022 101.661 129.604 100.569L129.692 101.704Z" fill="#8F6E0D"/>
<path d="M116.613 101.17C122.625 99.8883 129.604 100.569 129.604 100.569C129.604 100.569 122.908 103.533 116.613 101.17Z" fill="#FFA300"/>
<path d="M115.837 100.583C118.638 102.356 125.947 102.536 128.839 100.593L128.869 99.3574C126.082 100.526 119.5 100.346 115.865 99.4442L115.837 100.583Z" fill="#8F6E0D"/>
<path d="M128.87 99.3573C122.799 98.3955 115.866 99.4441 115.866 99.4441C115.866 99.4441 122.709 102.05 128.87 99.3573Z" fill="#FFA300"/>
<path d="M128.092 99.7709C125.248 101.475 117.937 101.475 115.094 99.4618V98.2256C117.851 99.4618 124.436 99.4441 128.092 98.6318V99.7709Z" fill="#8F6E0D"/>
<path d="M115.094 98.2255C121.187 97.4132 128.092 98.6317 128.092 98.6317C128.092 98.6317 121.187 101.069 115.094 98.2255Z" fill="#FFA300"/>
<path d="M127.281 98.9594C124.438 100.664 117.127 100.664 114.283 98.6503V97.4141C117.04 98.6503 123.625 98.6326 127.281 97.8202V98.9594Z" fill="#8F6E0D"/>
<path d="M114.283 97.414C120.376 96.6016 127.281 97.8202 127.281 97.8202C127.281 97.8202 120.376 100.257 114.283 97.414Z" fill="#FFA300"/>
<path d="M128.092 97.3344C125.248 99.0385 117.937 99.0385 115.094 97.0253V95.7891C117.851 97.0253 124.436 97.0076 128.092 96.1952V97.3344Z" fill="#8F6E0D"/>
<path d="M115.094 95.789C121.187 94.9766 128.092 96.1952 128.092 96.1952C128.092 96.1952 121.187 98.6323 115.094 95.789Z" fill="#FFA300"/>
<path d="M114.277 95.2052C116.98 97.1244 124.269 97.6905 127.26 95.9034L127.355 94.6709C124.511 95.69 117.947 95.1625 114.365 94.0695L114.277 95.2052Z" fill="#8F6E0D"/>
<path d="M127.355 94.671C121.344 93.3893 114.365 94.0696 114.365 94.0696C114.365 94.0696 121.061 97.034 127.355 94.671Z" fill="#FFA300"/>
<path fill-rule="evenodd" clip-rule="evenodd" d="M109.914 97.8717C110.129 97.8077 110.355 97.9301 110.419 98.1452L111.462 101.649C111.526 101.864 111.403 102.09 111.188 102.154C110.973 102.218 110.747 102.096 110.683 101.881L109.916 99.3034C101.079 114.867 84.014 124.853 76.4592 127.946C76.2516 128.031 76.0144 127.931 75.9295 127.724C75.8445 127.516 75.9439 127.279 76.1515 127.194C83.6157 124.139 100.475 114.258 109.191 98.9343L106.642 99.6931C106.427 99.7571 106.201 99.6346 106.137 99.4196C106.073 99.2046 106.195 98.9784 106.41 98.9144L109.914 97.8717Z" fill="#165C7D"/>
<path opacity="0.7" fill-rule="evenodd" clip-rule="evenodd" d="M123.789 74.3247C123.812 75.0135 123.981 75.6512 124.318 76.1782C124.936 77.1439 125.933 77.6984 126.924 77.87C127.93 78.0443 128.844 77.8128 129.328 77.3284C129.545 77.1113 129.725 76.7045 129.777 76.1911C129.828 75.6862 129.749 75.1297 129.511 74.6478C129.276 74.1724 128.885 73.7666 128.291 73.5398C127.692 73.3109 126.851 73.251 125.7 73.5414C124.975 73.7244 124.341 73.9923 123.789 74.3247ZM123.017 74.8704C123.1 75.4964 123.298 76.0899 123.634 76.6159C124.393 77.8021 125.605 78.4661 126.786 78.6704C127.95 78.8721 129.168 78.6369 129.902 77.9028C130.295 77.5107 130.521 76.902 130.585 76.273C130.65 75.6355 130.553 74.9228 130.239 74.2876C129.922 73.6461 129.383 73.0873 128.581 72.7809C127.784 72.4766 126.765 72.4349 125.501 72.7537C124.894 72.9071 124.343 73.1148 123.844 73.3664C123.977 72.4475 124.33 71.4898 124.858 70.6162C125.991 68.7451 127.778 67.5037 129.535 67.8591C129.755 67.9036 129.969 67.7614 130.013 67.5415C130.058 67.3216 129.916 67.1073 129.696 67.0628C127.438 66.6061 125.366 68.2079 124.163 70.1955C123.489 71.3101 123.039 72.6226 122.979 73.8806C121.743 74.7374 120.906 75.8969 120.361 77.1239C119.513 79.0366 119.369 81.122 119.51 82.5302C119.532 82.7534 119.731 82.9163 119.955 82.894C120.178 82.8716 120.341 82.6726 120.318 82.4494C120.189 81.1497 120.324 79.2112 121.104 77.4534C121.53 76.4937 122.146 75.5905 123.017 74.8704Z" fill="#009ED0"/>
<path d="M141.804 136.944C135.305 132.994 128.286 133.059 122.307 136.944V153.007L132.185 160.002L141.804 153.007V136.944Z" fill="#00C246"/>
<path d="M140.721 137.722C134.944 134.183 128.705 134.241 123.391 137.722V152.112L132.171 158.378L140.721 152.112V137.722Z" fill="#016D33"/>
<path fill-rule="evenodd" clip-rule="evenodd" d="M128.265 145.92C127.966 145.92 127.724 146.163 127.724 146.462V150.253C127.724 150.552 127.966 150.795 128.265 150.795H135.847C136.147 150.795 136.389 150.552 136.389 150.253V146.462C136.389 146.163 136.147 145.92 135.847 145.92H128.265ZM126.641 146.462C126.641 145.565 127.368 144.837 128.265 144.837H135.847C136.745 144.837 137.472 145.565 137.472 146.462V150.253C137.472 151.15 136.745 151.878 135.847 151.878H128.265C127.368 151.878 126.641 151.15 126.641 150.253V146.462Z" fill="#00C246"/>
<path fill-rule="evenodd" clip-rule="evenodd" d="M132.056 141.046C131.482 141.046 130.931 141.274 130.525 141.681C130.118 142.087 129.89 142.638 129.89 143.212V145.379C129.89 145.678 129.648 145.92 129.349 145.92C129.049 145.92 128.807 145.678 128.807 145.379V143.212C128.807 142.351 129.149 141.524 129.759 140.915C130.368 140.305 131.195 139.963 132.056 139.963C132.918 139.963 133.745 140.305 134.354 140.915C134.964 141.524 135.306 142.351 135.306 143.212V145.379C135.306 145.678 135.063 145.92 134.764 145.92C134.465 145.92 134.223 145.678 134.223 145.379V143.212C134.223 142.638 133.995 142.087 133.588 141.681C133.182 141.274 132.631 141.046 132.056 141.046Z" fill="#00C246"/>
<path fill-rule="evenodd" clip-rule="evenodd" d="M129.615 140.771C130.263 140.124 131.141 139.76 132.056 139.76C132.972 139.76 133.85 140.124 134.498 140.771C135.145 141.418 135.509 142.297 135.509 143.212V144.634H135.847C136.857 144.634 137.675 145.452 137.675 146.462V150.253C137.675 151.262 136.857 152.081 135.847 152.081H128.265C127.256 152.081 126.438 151.262 126.438 150.253V146.462C126.438 145.452 127.256 144.634 128.265 144.634H128.604V143.212C128.604 142.297 128.968 141.418 129.615 140.771ZM128.604 145.04H128.265C127.48 145.04 126.844 145.677 126.844 146.462V150.253C126.844 151.038 127.48 151.675 128.265 151.675H135.847C136.633 151.675 137.269 151.038 137.269 150.253V146.462C137.269 145.677 136.633 145.04 135.847 145.04H135.509V145.379C135.509 145.501 135.48 145.616 135.428 145.717H135.847C136.259 145.717 136.592 146.051 136.592 146.462V150.253C136.592 150.664 136.259 150.998 135.847 150.998H128.265C127.854 150.998 127.521 150.664 127.521 150.253V146.462C127.521 146.051 127.854 145.717 128.265 145.717H128.685C128.633 145.616 128.604 145.501 128.604 145.379V145.04ZM130.012 145.717C130.064 145.616 130.093 145.501 130.093 145.379V145.04H134.02V145.379C134.02 145.501 134.049 145.616 134.101 145.717H130.012ZM128.265 146.123C128.078 146.123 127.927 146.275 127.927 146.462V150.253C127.927 150.44 128.078 150.591 128.265 150.591H135.847C136.034 150.591 136.186 150.44 136.186 150.253V146.462C136.186 146.275 136.034 146.123 135.847 146.123H128.265ZM134.426 145.04V145.379C134.426 145.566 134.577 145.717 134.764 145.717C134.951 145.717 135.103 145.566 135.103 145.379V145.04H134.426ZM135.103 144.634H134.426V143.212C134.426 142.584 134.176 141.981 133.732 141.537C133.287 141.093 132.685 140.843 132.056 140.843C131.428 140.843 130.825 141.093 130.381 141.537C129.937 141.981 129.687 142.584 129.687 143.212V144.634H129.01V143.212C129.01 142.404 129.331 141.63 129.902 141.058C130.474 140.487 131.248 140.166 132.056 140.166C132.864 140.166 133.639 140.487 134.211 141.058C134.782 141.63 135.103 142.404 135.103 143.212V144.634ZM130.093 144.634V143.212C130.093 142.692 130.3 142.192 130.668 141.824C131.036 141.456 131.536 141.249 132.056 141.249C132.577 141.249 133.076 141.456 133.445 141.824C133.813 142.192 134.02 142.692 134.02 143.212V144.634H130.093ZM129.687 145.04H129.01V145.379C129.01 145.566 129.162 145.717 129.348 145.717C129.535 145.717 129.687 145.566 129.687 145.379V145.04Z" fill="#00C246"/>
<path d="M79.6651 67.0767C79.6651 71.3712 76.1837 74.8526 71.8892 74.8526C67.5947 74.8526 64.1133 71.3712 64.1133 67.0767C64.1133 62.7822 67.5947 59.3008 71.8892 59.3008C76.1837 59.3008 79.6651 62.7822 79.6651 67.0767Z" fill="#69757B"/>
<path d="M80.7549 67.0767C80.7549 71.3712 77.2735 74.8526 72.979 74.8526C68.6845 74.8526 65.2031 71.3712 65.2031 67.0767C65.2031 62.7822 68.6845 59.3008 72.979 59.3008C77.2735 59.3008 80.7549 62.7822 80.7549 67.0767Z" fill="#FFA300"/>
<path d="M72.3608 72.1149V70.9487C71.935 70.9413 71.5278 70.9043 71.1391 70.8377C70.754 70.771 70.4394 70.684 70.195 70.5767V69.677C70.4505 69.7955 70.7781 69.8991 71.1779 69.988C71.5778 70.0769 71.9721 70.125 72.3608 70.1324V67.6889C71.8721 67.5519 71.4667 67.3965 71.1446 67.2224C70.8262 67.0447 70.5874 66.8282 70.4282 66.5727C70.2691 66.3173 70.1895 66.0081 70.1895 65.6453C70.1895 65.2677 70.2783 64.9456 70.456 64.679C70.6374 64.4088 70.891 64.1977 71.2168 64.0459C71.5426 63.8942 71.9239 63.8072 72.3608 63.7849V62.8242H73.0383V63.7738C73.4344 63.7849 73.7954 63.8294 74.1212 63.9071C74.447 63.9812 74.7487 64.0774 75.0264 64.1959L74.7376 64.9678C74.4859 64.8678 74.2138 64.7827 73.9213 64.7123C73.6288 64.642 73.3345 64.5939 73.0383 64.568V66.9948C73.5344 67.1391 73.949 67.2928 74.2822 67.4557C74.6191 67.6186 74.8728 67.8204 75.0431 68.061C75.2134 68.3016 75.2985 68.6126 75.2985 68.994C75.2985 69.5345 75.1004 69.9713 74.7043 70.3045C74.3082 70.634 73.7528 70.834 73.0383 70.9043V72.1149H72.3608ZM73.0383 70.0824C73.4937 70.038 73.8324 69.9288 74.0546 69.7548C74.2804 69.5771 74.3933 69.3438 74.3933 69.055C74.3933 68.8477 74.3489 68.6774 74.26 68.5441C74.1749 68.4109 74.0342 68.2961 73.838 68.1998C73.6418 68.0999 73.3752 68.0055 73.0383 67.9166V70.0824ZM72.3608 66.7615V64.5902C72.0831 64.6087 71.8499 64.6605 71.6611 64.7457C71.4723 64.8308 71.3297 64.9419 71.2335 65.0789C71.1409 65.2158 71.0946 65.3787 71.0946 65.5676C71.0946 65.786 71.1354 65.9692 71.2168 66.1173C71.302 66.2617 71.4371 66.3857 71.6222 66.4894C71.811 66.5894 72.0572 66.6801 72.3608 66.7615Z" fill="#754C04"/>
<path d="M87.2313 56.1969C79.1076 61.4506 79.6474 68.2817 82.3571 69.8788C89.2622 65.4107 105.103 55.6623 108.353 52.819C111.602 49.9757 114.446 48.7571 118.914 41.1105L145.757 33.2723L139.258 8.08886L114.455 16.6243C106.891 15.0653 99.6351 13.7218 95.355 14.2314C90.5047 14.8088 83.7649 16.0062 81.6115 16.5626L50.3731 22.741C50.0262 24.362 52.037 28.554 56.3487 28.0888L40.7655 35.7631C41.182 37.5579 42.9602 41.1401 46.7411 41.1105C50.522 41.0809 53.3326 38.7319 54.2653 37.5611L44.116 50.3014C51.7182 56.7146 58.8231 47.0932 63.7076 42.2086C67.637 38.2793 67.8708 38.0455 70.2026 36.1158C70.1947 36.1232 68.1745 38.0083 67.7691 38.9589C62.9018 50.3727 55.5836 65.361 55.5836 65.361C58.0207 67.3919 62.5242 67.0858 65.7386 64.1426C69.7783 60.4437 72.2375 53.1756 77.9241 45.0519C80.8177 40.9182 83.1695 40.6716 88.0437 40.6334C92.9179 40.5952 95.355 43.4767 95.355 47.1324C95.355 53.7153 89.3771 54.8092 87.2313 56.1969Z" fill="#D8BA8A"/>
<path fill-rule="evenodd" clip-rule="evenodd" d="M40.6574 35.544C40.5558 35.5941 40.502 35.7075 40.5276 35.8178C40.7432 36.7468 41.3075 38.129 42.3072 39.2804C43.3113 40.4368 44.7646 41.3693 46.7425 41.3538C49.0228 41.336 50.9561 40.4974 52.3575 39.5638L43.9249 50.1491C43.8427 50.2523 43.8575 50.4022 43.9584 50.4873C45.8996 52.1249 47.8274 52.7518 49.7073 52.6724C51.5795 52.5934 53.3762 51.8151 55.0652 50.6943C56.7547 49.5733 58.3521 48.0991 59.8277 46.6066C60.5616 45.8642 61.2675 45.1151 61.9402 44.4012L61.9521 44.3885C62.6293 43.6699 63.272 42.9881 63.8795 42.3805C65.7843 40.4757 66.8189 39.4412 67.6441 38.6616C67.6056 38.731 67.572 38.7983 67.5445 38.8629C65.1126 44.5656 62.0677 51.1629 59.6302 56.3358C58.4115 58.922 57.3449 61.1516 56.583 62.7346C56.2021 63.5261 55.8973 64.156 55.6878 64.5879C55.583 64.8039 55.5021 64.9703 55.4473 65.0828L55.3644 65.253C55.3644 65.253 55.3641 65.2536 55.4005 65.2714L55.3644 65.253C55.3152 65.3538 55.3409 65.4759 55.4271 65.5478C57.9832 67.6779 62.6251 67.3231 65.9027 64.322C67.9565 62.4415 69.5988 59.6639 71.4264 56.3745C71.6575 55.9585 71.8918 55.5339 72.1304 55.1015C73.7842 52.1045 75.6464 48.7297 78.1233 45.1913C79.5527 43.1493 80.8283 42.095 82.3261 41.5347C83.8383 40.9691 85.6016 40.8959 88.0451 40.8767C90.4335 40.858 92.1948 41.5539 93.3577 42.6729C94.5208 43.7921 95.1108 45.3589 95.1109 47.132C95.1108 50.3305 93.6668 52.1815 91.9549 53.4147C91.093 54.0356 90.1618 54.5004 89.3027 54.8994C89.1328 54.9784 88.9647 55.0552 88.8 55.1304C88.1439 55.4301 87.5424 55.7048 87.0985 55.9919C82.9943 58.6461 81.0507 61.7178 80.4928 64.3583C79.9385 66.9814 80.7548 69.2172 82.2329 70.0884C82.3124 70.1352 82.4115 70.1332 82.489 70.083C84.2893 68.9181 86.6941 67.3962 89.3254 65.7308C91.7423 64.2012 94.3505 62.5505 96.8569 60.9444C102.078 57.5988 106.871 54.4388 108.513 53.002C109.165 52.4313 109.8 51.9271 110.441 51.4187C110.592 51.2982 110.745 51.1774 110.897 51.0554C111.692 50.4204 112.499 49.7569 113.345 48.941C115.027 47.3189 116.854 45.1047 119.075 41.3169L145.825 33.5059C145.951 33.469 146.026 33.3385 145.993 33.211L139.494 8.02757C139.477 7.96175 139.433 7.90602 139.373 7.87382C139.313 7.84163 139.243 7.8359 139.178 7.85802L114.438 16.3718C110.678 15.5973 106.991 14.876 103.707 14.4105C100.409 13.9429 97.4989 13.7303 95.3258 13.989C90.4751 14.5665 83.7324 15.7635 81.5569 16.3245L50.3254 22.5015C50.2299 22.5204 50.1547 22.5943 50.1344 22.6896C50.035 23.1539 50.1081 23.7673 50.3228 24.4034C50.5393 25.0451 50.9076 25.7333 51.4266 26.3533C52.288 27.3822 53.5702 28.2279 55.2609 28.3522L40.6574 35.544ZM56.2797 27.8505C54.2396 28.0563 52.749 27.1735 51.8003 26.0404C51.3211 25.4679 50.9822 24.8333 50.7846 24.2475C50.6129 23.7389 50.5533 23.2842 50.5872 22.9466L79.0595 17.3153L71.8414 20.1877C71.8355 20.19 71.8296 20.1926 71.8239 20.1955L56.2797 27.8505ZM81.6869 16.7944C83.8415 16.2401 90.5496 15.0484 95.3834 14.473C97.4904 14.2221 100.348 14.4265 103.639 14.8931C106.925 15.359 110.624 16.0832 114.405 16.8626C114.448 16.8715 114.492 16.8686 114.534 16.8544L139.088 8.40473L145.462 33.1042L118.845 40.8762C118.785 40.8936 118.734 40.9334 118.703 40.9872C116.478 44.7948 114.663 46.9925 113.007 48.5902C112.177 49.3902 111.385 50.0424 110.593 50.6745C110.443 50.7947 110.292 50.9144 110.141 51.0343C109.5 51.5432 108.854 52.0561 108.192 52.6352C106.585 54.0417 101.832 57.1776 96.5939 60.534C94.0941 62.1359 91.4865 63.7862 89.0686 65.3165C86.497 66.9441 84.1399 68.4359 82.355 69.5892C81.1949 68.806 80.4585 66.8782 80.9697 64.4591C81.4953 61.9714 83.3437 59.0006 87.3632 56.4012C87.7742 56.1353 88.3317 55.8805 88.9832 55.5828C89.1522 55.5055 89.3274 55.4254 89.5081 55.3415C90.3735 54.9395 91.339 54.4591 92.2398 53.8102C94.0533 52.5038 95.5983 50.5164 95.5983 47.132C95.5983 45.2495 94.9697 43.5477 93.6957 42.3217C92.4215 41.0956 90.5272 40.3699 88.0413 40.3893C85.6106 40.4084 83.7609 40.4776 82.1553 41.0782C80.5353 41.6842 79.1883 42.82 77.724 44.9117C75.2311 48.473 73.356 51.8713 71.7027 54.8676C71.4644 55.2996 71.2306 55.7232 71.0003 56.1378C69.1667 59.4381 67.5595 62.144 65.5735 63.9625C62.4885 66.7873 58.2397 67.0931 55.8876 65.292C55.9424 65.1794 56.0228 65.0142 56.1263 64.8006C56.336 64.3683 56.641 63.738 57.0222 62.946C57.7846 61.362 58.8518 59.1312 60.0711 56.5436C62.5095 51.3689 65.5574 44.7652 67.9928 39.0541C68.0807 38.848 68.2657 38.5732 68.5097 38.2658C68.7503 37.9627 69.036 37.6432 69.3119 37.3504C69.8321 36.7981 70.3088 36.3495 70.3633 36.2985C70.5088 36.178 70.6626 36.0509 70.8261 35.9158C71.2906 35.5319 71.8329 35.0837 72.4849 34.5415L72.4865 34.5401L78.0806 29.8027C78.1832 29.7158 78.1966 29.5618 78.1099 29.459C78.0232 29.3563 77.8696 29.3432 77.7668 29.4298L70.0468 35.9277C70.0464 35.928 70.0461 35.9283 70.0457 35.9286C67.706 37.8647 67.4647 38.1061 63.5369 42.0339L63.5349 42.0359C62.9213 42.6495 62.2734 43.3368 61.5974 44.0542L61.5871 44.0651C60.9134 44.7802 60.2108 45.5257 59.4811 46.2639C58.0131 47.7487 56.4434 49.1949 54.7957 50.2882C53.1477 51.3817 51.4375 52.1115 49.6867 52.1855C48.0007 52.2566 46.2511 51.7207 44.4552 50.2657L54.4457 37.7248L72.0666 20.6227L81.6869 16.7944ZM70.653 21.3154L54.0951 37.3859C54.0876 37.3931 54.0806 37.4008 54.0742 37.4089C53.1716 38.5419 50.4241 40.8375 46.7387 40.8664C44.9358 40.8805 43.6095 40.0368 42.6752 38.9608C41.8017 37.9548 41.2795 36.754 41.0492 35.8944L70.653 21.3154Z" fill="#333333"/>
<path fill-rule="evenodd" clip-rule="evenodd" d="M138.303 4.31128C138.52 4.25511 138.742 4.38563 138.798 4.60282L146.996 36.3021C147.053 36.5193 146.922 36.7409 146.705 36.797C146.488 36.8532 146.266 36.7227 146.21 36.5055L138.011 4.80623C137.955 4.58905 138.086 4.36745 138.303 4.31128Z" fill="#E1E5E7"/>
<path fill-rule="evenodd" clip-rule="evenodd" d="M147.01 37.6566C147.227 37.5992 147.449 37.7285 147.506 37.9454L148.025 39.9089C148.083 40.1258 147.953 40.3481 147.736 40.4054C147.52 40.4627 147.297 40.3334 147.24 40.1165L146.721 38.1531C146.663 37.9362 146.793 37.7139 147.01 37.6566Z" fill="#E1E5E7"/>
<path fill-rule="evenodd" clip-rule="evenodd" d="M137.262 0.384099C137.478 0.326758 137.701 0.456088 137.758 0.672965L138.277 2.63642C138.335 2.8533 138.205 3.0756 137.988 3.13294C137.772 3.19028 137.549 3.06095 137.492 2.84408L136.973 0.880617C136.915 0.663739 137.045 0.44144 137.262 0.384099Z" fill="#E1E5E7"/>
</svg>
