<svg width="137" height="160" viewBox="0 0 137 160" fill="none" xmlns="http://www.w3.org/2000/svg">
<path d="M134.839 149.678C134.839 155.379 104.654 160.001 67.4194 160.001C30.1847 160.001 0 155.379 0 149.678C0 143.977 30.1847 139.355 67.4194 139.355C104.654 139.355 134.839 143.977 134.839 149.678Z" fill="#C8CCD0"/>
<path d="M130.968 145.485C130.968 149.226 127.935 152.259 124.194 152.259C120.453 152.259 117.42 149.226 117.42 145.485C117.42 141.744 120.453 138.711 124.194 138.711C127.935 138.711 130.968 141.744 130.968 145.485Z" fill="#69757B"/>
<path d="M130.324 144.84C130.324 148.581 127.291 151.614 123.55 151.614C119.808 151.614 116.775 148.581 116.775 144.84C116.775 141.098 119.808 138.065 123.55 138.065C127.291 138.065 130.324 141.098 130.324 144.84Z" fill="#C6CED1"/>
<path d="M87.2358 92.2434C87.2006 94.2278 83.2934 107.949 83.2934 107.949L82.1117 110.001L82.1117 112.259C81.888 112.216 81.4256 112.051 81.3658 111.734L80.7275 113.721C80.4983 114.276 80.3954 115.252 80.0704 115.864C79.6054 116.738 79.117 116.517 79.117 116.517C79.117 116.517 78.782 114.314 78.7625 113.957L78.7058 111.338C79.4811 110.049 80.7666 107.896 81.291 107.421L81.6831 98.7109L82.6759 90.7588L87.2358 92.2434Z" fill="#805928"/>
<path fill-rule="evenodd" clip-rule="evenodd" d="M78.927 116.546L79.1183 116.517L79.0387 116.694C78.9789 116.667 78.9368 116.611 78.927 116.546ZM81.1025 107.335C80.9646 107.475 80.7981 107.689 80.6187 107.94C80.4095 108.232 80.1734 108.59 79.9307 108.97C79.4787 109.679 78.9996 110.476 78.6232 111.102C78.5953 111.148 78.568 111.193 78.5413 111.238C78.5224 111.269 78.5129 111.305 78.5137 111.342L78.5704 113.961L78.5706 113.968C78.581 114.157 78.6715 114.809 78.7569 115.399C78.8 115.697 78.8425 115.984 78.8743 116.196C78.8901 116.302 78.9033 116.39 78.9125 116.451L78.927 116.546L79.1183 116.517C79.0387 116.694 79.0385 116.694 79.0387 116.694L79.0393 116.694L79.0401 116.694L79.0416 116.695L79.0454 116.697L79.0552 116.701C79.0628 116.703 79.0725 116.707 79.0841 116.71C79.1073 116.717 79.1385 116.725 79.1765 116.73C79.253 116.74 79.3566 116.74 79.4763 116.704C79.7202 116.63 79.9938 116.422 80.2426 115.954C80.418 115.625 80.5297 115.205 80.6242 114.817C80.6393 114.755 80.654 114.694 80.6683 114.634C80.7469 114.307 80.817 114.015 80.9077 113.795C80.9097 113.79 80.9115 113.785 80.9131 113.78L81.4319 112.165C81.4813 112.205 81.533 112.239 81.5825 112.267C81.7559 112.366 81.9485 112.425 82.0764 112.449C82.1331 112.46 82.1917 112.445 82.2363 112.409C82.2808 112.372 82.3066 112.317 82.3066 112.259L82.3066 110.053L83.4625 108.046C83.4704 108.032 83.4765 108.018 83.4809 108.002L83.2947 107.949C83.4809 108.002 83.4809 108.002 83.4809 108.002L83.5248 107.848C83.5535 107.747 83.5955 107.598 83.649 107.408C83.7559 107.029 83.9087 106.485 84.0922 105.826C84.4592 104.508 84.9489 102.731 85.4397 100.89C85.9305 99.0506 86.4227 97.1474 86.7946 95.5794C86.9805 94.7955 87.1367 94.0939 87.2476 93.5251C87.3576 92.9613 87.4259 92.5142 87.4307 92.2469C87.4322 92.1619 87.378 92.0858 87.2971 92.0594L82.7372 90.5748C82.6822 90.557 82.6222 90.5645 82.5735 90.5955C82.5247 90.6265 82.4923 90.6776 82.4852 90.7349L81.4924 98.6871C81.4918 98.6921 81.4913 98.6972 81.4911 98.7023L81.1025 107.335ZM83.1151 107.873L83.1524 107.742C83.181 107.641 83.223 107.493 83.2764 107.303C83.3833 106.924 83.536 106.381 83.7193 105.722C84.0861 104.405 84.5754 102.629 85.0657 100.791C85.5561 98.9521 86.0473 97.0529 86.418 95.49C86.6033 94.7085 86.7582 94.0125 86.8677 93.451C86.9583 92.9866 87.0159 92.6234 87.0359 92.3815L82.8403 91.0155L81.8775 98.7274L81.4857 107.429C81.4834 107.481 81.4606 107.529 81.4224 107.564C81.3083 107.668 81.1402 107.876 80.9337 108.165C80.7301 108.45 80.4981 108.8 80.257 109.178C79.8079 109.882 79.3314 110.675 78.9546 111.302C78.9368 111.331 78.9192 111.361 78.9019 111.389L78.9573 113.95C78.9598 113.992 78.967 114.063 78.9778 114.155L79.164 111.921C79.1729 111.814 79.2664 111.735 79.3729 111.744C79.4795 111.753 79.5586 111.846 79.5497 111.953L79.2272 115.824C79.2258 115.84 79.2224 115.856 79.2172 115.871C79.2317 115.969 79.2452 116.059 79.2571 116.139C79.2693 116.221 79.28 116.292 79.2884 116.348C79.3107 116.346 79.3364 116.341 79.365 116.333C79.4082 116.32 79.4633 116.295 79.5266 116.249C79.4979 116.212 79.4824 116.165 79.4866 116.114L79.8091 112.243C79.818 112.137 79.9116 112.058 80.0181 112.066C80.0794 112.072 80.1317 112.105 80.1633 112.152C80.198 112.1 80.2573 112.066 80.3246 112.066C80.4315 112.066 80.5182 112.152 80.5182 112.259L80.5182 113.729C80.5275 113.703 80.5371 113.679 80.5469 113.655L81.5002 110.686C81.5043 110.673 81.5099 110.661 81.5167 110.649L83.1151 107.873ZM80.1854 114.974C80.1517 114.94 80.1311 114.892 80.1311 114.84L80.1311 113.042L79.904 115.767C80.0199 115.547 80.1073 115.271 80.1854 114.974ZM81.9195 110.725L81.8624 110.824L81.5694 111.737C81.5968 111.8 81.663 111.867 81.7747 111.931C81.8213 111.958 81.8708 111.981 81.9195 112L81.9195 110.725Z" fill="#333333"/>
<path d="M105.712 93.7073C105.615 95.5223 108.294 108.31 108.294 108.31L109.12 110.013L108.711 113.226C108.85 113.334 109.174 113.484 109.356 113.226C109.538 112.968 109.683 112.021 109.733 111.579L110.264 113.749C110.413 114.197 110.456 114.922 110.628 115.484C110.657 115.578 110.689 115.667 110.725 115.749C111.093 116.578 111.554 116.408 111.554 116.408C111.554 116.408 112.003 114.417 112.044 114.092L112.265 111.703C111.641 110.475 110.712 108.211 110.264 107.742L110.264 99.6779L109.974 92.647L105.712 93.7073Z" fill="#805928"/>
<path fill-rule="evenodd" clip-rule="evenodd" d="M111.742 116.451L111.554 116.409L111.621 116.59C111.682 116.568 111.728 116.515 111.742 116.451ZM110.457 107.67C110.577 107.815 110.71 108.039 110.848 108.295C111.011 108.597 111.19 108.966 111.374 109.356C111.497 109.619 111.622 109.89 111.746 110.158C111.992 110.691 112.231 111.21 112.438 111.616C112.454 111.649 112.461 111.685 112.458 111.722L112.236 114.111L112.236 114.117C112.214 114.291 112.088 114.881 111.972 115.414C111.914 115.683 111.856 115.943 111.813 116.135C111.792 116.231 111.774 116.31 111.762 116.365L111.742 116.451L111.554 116.409C111.621 116.59 111.621 116.59 111.621 116.59L111.62 116.59L111.619 116.591L111.618 116.591L111.614 116.593L111.604 116.596C111.597 116.598 111.587 116.6 111.576 116.603C111.554 116.608 111.524 116.613 111.488 116.615C111.415 116.62 111.318 116.612 111.209 116.571C110.986 116.486 110.746 116.274 110.548 115.828C110.508 115.737 110.473 115.641 110.443 115.541C110.353 115.246 110.297 114.911 110.246 114.606C110.194 114.293 110.149 114.017 110.08 113.811C110.079 113.806 110.077 113.801 110.076 113.796L109.774 112.561C109.743 112.709 109.708 112.853 109.67 112.979C109.629 113.113 109.579 113.247 109.514 113.339C109.37 113.542 109.162 113.582 108.988 113.555C108.825 113.53 108.679 113.447 108.593 113.38C108.538 113.338 108.51 113.271 108.519 113.203L108.921 110.046L108.12 108.395C108.113 108.381 108.108 108.366 108.105 108.351L108.294 108.311C108.105 108.351 108.105 108.351 108.105 108.351L108.075 108.206C108.055 108.112 108.026 107.974 107.99 107.797C107.917 107.444 107.813 106.937 107.688 106.323C107.438 105.095 107.106 103.439 106.777 101.727C106.448 100.014 106.122 98.2433 105.884 96.7866C105.765 96.0584 105.667 95.4071 105.603 94.88C105.539 94.358 105.506 93.9438 105.519 93.6977C105.523 93.6127 105.583 93.5407 105.665 93.5201L109.927 92.4598C109.983 92.4457 110.043 92.4578 110.09 92.4927C110.136 92.5276 110.165 92.5815 110.167 92.6396L110.457 99.6705L110.457 107.67ZM108.479 108.248L108.454 108.127C108.434 108.033 108.406 107.895 108.369 107.719C108.296 107.366 108.192 106.859 108.067 106.246C107.817 105.019 107.486 103.365 107.157 101.654C106.828 99.9423 106.503 98.1757 106.266 96.7242C106.147 95.9983 106.051 95.3527 105.987 94.833C105.936 94.4109 105.907 94.0809 105.903 93.8598L109.79 92.8927L110.07 99.6825L110.07 107.743C110.07 107.793 110.09 107.841 110.124 107.877C110.215 107.972 110.347 108.179 110.507 108.479C110.665 108.771 110.841 109.133 111.023 109.521C111.144 109.777 111.267 110.044 111.39 110.31C111.628 110.826 111.863 111.336 112.067 111.741L111.851 114.072C111.831 114.227 111.712 114.791 111.594 115.331C111.574 115.426 111.553 115.519 111.533 115.609L111.807 112.599C111.817 112.493 111.738 112.399 111.632 112.389C111.525 112.379 111.431 112.458 111.421 112.564L111.107 116.02C111.042 115.939 110.971 115.827 110.902 115.671C110.874 115.608 110.849 115.54 110.825 115.467L111.161 112.604C111.174 112.498 111.098 112.402 110.992 112.39C110.885 112.377 110.789 112.453 110.777 112.559L110.578 114.249C110.543 114.05 110.503 113.858 110.45 113.697L109.772 110.924C109.769 110.911 109.764 110.898 109.758 110.885L108.479 108.248ZM109.23 110.683L109.401 111.036L109.537 111.592C109.512 111.81 109.465 112.133 109.405 112.434C109.373 112.593 109.337 112.743 109.3 112.867C109.26 112.996 109.224 113.078 109.198 113.115C109.16 113.17 109.115 113.183 109.047 113.173C109.004 113.166 108.959 113.15 108.919 113.129L109.23 110.683Z" fill="#333333"/>
<path d="M28.7088 141.938L28.0636 143.55C27.9561 143.55 27.9991 143.808 29.0314 144.841C30.0636 145.873 32.4722 144.411 33.5475 143.55V141.938H28.7088Z" fill="#D8BA8A"/>
<path fill-rule="evenodd" clip-rule="evenodd" d="M28.5292 141.866C28.5586 141.792 28.6298 141.744 28.7089 141.744H33.5476C33.6545 141.744 33.7412 141.831 33.7412 141.938V143.551C33.7412 143.609 33.7145 143.665 33.6685 143.702C33.1215 144.139 32.2339 144.732 31.3449 145.085C30.9007 145.262 30.4446 145.383 30.0241 145.389C29.6007 145.395 29.2 145.283 28.8946 144.978C28.3765 144.46 28.0959 144.125 27.9581 143.914C27.893 143.815 27.8433 143.718 27.8324 143.631C27.8267 143.585 27.8278 143.511 27.8797 143.444C27.8895 143.432 27.8999 143.421 27.9108 143.412L28.5292 141.866ZM28.84 142.131L28.2435 143.622C28.2422 143.626 28.2409 143.629 28.2395 143.632C28.2493 143.65 28.263 143.673 28.2823 143.703C28.3972 143.879 28.6543 144.19 29.1684 144.704C29.3792 144.915 29.6666 145.007 30.0187 145.002C30.3738 144.997 30.7806 144.893 31.2019 144.726C32.0066 144.406 32.8223 143.872 33.3541 143.457V142.131H28.84Z" fill="#333333"/>
<path d="M54.5142 141.292L55.1596 141.937C55.2671 141.937 55.3005 143.909 53.8691 144.195C52.256 144.518 50.7509 143.765 49.6757 142.905V141.292H54.5142Z" fill="#D8BA8A"/>
<path fill-rule="evenodd" clip-rule="evenodd" d="M54.6528 141.155C54.6165 141.119 54.5673 141.099 54.516 141.099H49.6773C49.5704 141.099 49.4837 141.185 49.4837 141.292V142.905C49.4837 142.964 49.5104 143.019 49.5564 143.056C50.6502 143.931 52.2135 144.724 53.9087 144.385C54.7251 144.222 55.1118 143.576 55.2787 143.014C55.3627 142.731 55.3954 142.459 55.3999 142.254C55.4021 142.152 55.3974 142.062 55.3867 141.993C55.3817 141.96 55.3738 141.922 55.36 141.888C55.3535 141.871 55.3411 141.844 55.3187 141.818C55.3103 141.808 55.2972 141.794 55.2794 141.782L54.6528 141.155ZM54.4358 141.486L55.0045 142.054C55.0105 142.094 55.0147 142.16 55.0128 142.246C55.0091 142.42 54.9808 142.658 54.9077 142.904C54.7603 143.4 54.4479 143.883 53.8328 144.006C52.3367 144.305 50.9207 143.631 49.8708 142.811V141.486H54.4358ZM55.1613 142.131C55.1552 142.131 55.1491 142.131 55.143 142.13C55.1489 142.131 55.155 142.131 55.1613 142.131Z" fill="#333333"/>
<path d="M34.5369 148.581L33.4779 143.529C30.2474 144.47 28.4213 144.04 27.9121 143.707C26.6102 144.31 23.4014 145.773 20.9815 146.808C18.5617 147.843 18.8631 150.328 19.3163 151.442L34.5369 148.581Z" fill="#333333"/>
<path fill-rule="evenodd" clip-rule="evenodd" d="M28.0186 143.545C27.9628 143.508 27.892 143.503 27.8315 143.531C26.5301 144.134 23.3234 145.596 20.9061 146.63C19.6313 147.175 19.0635 148.112 18.8821 149.059C18.703 149.994 18.9006 150.932 19.1377 151.515C19.1723 151.6 19.2623 151.649 19.3527 151.632L34.5733 148.771C34.6244 148.761 34.6696 148.731 34.6985 148.688C34.7274 148.645 34.7377 148.592 34.727 148.541L33.668 143.489C33.6569 143.436 33.6243 143.391 33.5781 143.363C33.5319 143.335 33.4762 143.328 33.4244 143.343C31.8259 143.809 30.5823 143.933 29.6818 143.902C28.7739 143.871 28.2309 143.684 28.0186 143.545ZM27.9022 143.925C28.2276 144.099 28.8193 144.26 29.6686 144.289C30.5767 144.32 31.7949 144.201 33.3317 143.772L34.3076 148.427L19.4404 151.221C19.2512 150.687 19.1147 149.902 19.2623 149.132C19.4219 148.298 19.9133 147.475 21.0583 146.986C23.4256 145.974 26.5458 144.552 27.9022 143.925Z" fill="#333333"/>
<path d="M49.6758 148.067V142.905C53.0306 143.163 54.7295 142.368 55.1597 141.938C56.5575 142.26 59.9984 143.034 62.579 143.55C65.1597 144.067 65.3747 146.561 65.1597 147.744L49.6758 148.067Z" fill="#333333"/>
<path fill-rule="evenodd" clip-rule="evenodd" d="M55.023 141.801C55.0702 141.754 55.1383 141.734 55.2034 141.749C56.6006 142.072 60.0393 142.845 62.6172 143.361C63.9767 143.633 64.7247 144.433 65.0965 145.323C65.4637 146.201 65.4628 147.16 65.3503 147.779C65.3338 147.869 65.2559 147.936 65.1639 147.938L49.68 148.26C49.628 148.261 49.5777 148.241 49.5405 148.205C49.5034 148.169 49.4824 148.119 49.4824 148.067V142.905C49.4824 142.852 49.5049 142.8 49.5445 142.763C49.584 142.727 49.6371 142.708 49.6908 142.712C51.3509 142.84 52.5934 142.707 53.4685 142.492C54.3507 142.275 54.8437 141.98 55.023 141.801ZM55.215 142.149C54.9322 142.386 54.3861 142.665 53.5608 142.868C52.6783 143.084 51.4616 143.217 49.8695 143.113V147.869L64.9939 147.554C65.0693 146.992 65.0419 146.196 64.7393 145.472C64.4122 144.689 63.7624 143.985 62.5412 143.74C60.0166 143.235 56.6711 142.484 55.215 142.149Z" fill="#333333"/>
<path d="M29.6767 94.5177L55.1605 88.3887C55.1605 88.3887 56.5231 104.698 56.7734 115.163C57.0205 125.49 56.7734 141.614 56.7734 141.614C56.7734 141.614 54.021 141.874 52.2573 141.937C50.4937 142 47.7412 141.937 47.7412 141.937C46.8121 132.448 45.8057 117.744 45.8057 117.744C45.8057 117.744 44.0597 104.333 43.2251 95.808L39.6767 118.389L36.1283 141.937C36.1283 141.937 33.1162 142.26 31.2896 142.26C29.4629 142.26 26.7734 141.937 26.7734 141.937L28.0638 118.389L29.6767 94.5177Z" fill="#69757B"/>
<path fill-rule="evenodd" clip-rule="evenodd" d="M55.3536 88.3727L55.1607 88.3889C55.3536 88.3727 55.3536 88.3726 55.3536 88.3727L55.369 88.5587C55.379 88.6808 55.3938 88.8612 55.4127 89.0945C55.4504 89.561 55.5047 90.2392 55.5705 91.0857C55.7022 92.7786 55.8804 95.1448 56.0664 97.8382C56.4384 103.224 56.8418 109.921 56.9671 115.158C57.0907 120.325 57.0907 126.94 57.0598 132.263C57.0444 134.924 57.0212 137.263 57.0019 138.936C56.9923 139.773 56.9836 140.443 56.9773 140.904C56.9754 141.042 56.9738 141.162 56.9723 141.261C56.9714 141.328 56.9706 141.385 56.9699 141.434L56.9672 141.617C56.9672 141.617 56.9672 141.618 56.7736 141.615L56.7918 141.807L56.7602 141.81L56.6696 141.819C56.5907 141.826 56.4761 141.836 56.3331 141.849C56.0471 141.874 55.6473 141.909 55.1924 141.945C54.2833 142.018 53.1507 142.099 52.2644 142.131C51.3781 142.162 50.2455 142.162 49.3364 142.154C48.8814 142.15 48.4817 142.145 48.1957 142.14C48.0526 142.137 47.938 142.135 47.8592 142.133L47.7685 142.131L47.7375 142.131C47.6396 142.129 47.5583 142.054 47.5487 141.956C47.084 137.209 46.6 131.159 46.2322 126.297C46.0483 123.865 45.8935 121.73 45.7846 120.203C45.7302 119.44 45.6872 118.828 45.6579 118.408C45.6432 118.197 45.6319 118.035 45.6243 117.924L45.6132 117.763L45.5373 117.176C45.4879 116.792 45.4164 116.235 45.328 115.54C45.1513 114.149 44.9069 112.206 44.6364 109.996C44.157 106.079 43.5953 101.324 43.1831 97.3231L39.8682 118.418L39.8681 118.419L36.3199 141.966C36.3067 142.053 36.2366 142.12 36.149 142.13L36.1468 142.13L36.1144 142.133L36.0152 142.144C35.929 142.152 35.8039 142.165 35.648 142.18C35.3364 142.211 34.9018 142.251 34.41 142.291C33.4279 142.372 32.2115 142.453 31.2898 142.453C30.3675 142.453 29.2315 142.372 28.3294 142.291C27.8777 142.251 27.4832 142.21 27.2017 142.18C27.0609 142.165 26.9483 142.152 26.8708 142.143L26.7817 142.133L26.7586 142.13L26.7511 142.129C26.6498 142.117 26.5748 142.029 26.5804 141.927L27.8707 118.378L27.8708 118.376L29.4837 94.5048C29.4895 94.4204 29.5493 94.3495 29.6316 94.3297L55.1155 88.2007C55.1704 88.1875 55.2283 88.1989 55.2741 88.232C55.3199 88.2651 55.3489 88.3165 55.3536 88.3727ZM45.8059 117.744C45.999 117.73 45.999 117.731 45.999 117.731L46.0105 117.898C46.0181 118.008 46.0294 118.17 46.044 118.381C46.0734 118.801 46.1163 119.412 46.1707 120.176C46.2796 121.702 46.4344 123.837 46.6182 126.267C46.9816 131.071 47.4581 137.031 47.9173 141.747C47.9914 141.749 48.0877 141.751 48.2023 141.753C48.4875 141.757 48.8861 141.763 49.3397 141.767C50.2478 141.775 51.3733 141.775 52.2506 141.744C53.1279 141.712 54.2534 141.632 55.1615 141.559C55.6151 141.523 56.0137 141.489 56.2989 141.463C56.4129 141.453 56.5087 141.445 56.5827 141.438L56.5828 141.428C56.5846 141.308 56.5871 141.129 56.5902 140.899C56.5965 140.438 56.6052 139.768 56.6148 138.932C56.6341 137.259 56.6573 134.921 56.6727 132.26C56.7036 126.939 56.7036 120.328 56.5801 115.168C56.4551 109.94 56.0521 103.25 55.6802 97.8649C55.4943 95.1729 55.3162 92.8078 55.1846 91.1157C55.1188 90.2697 55.0646 89.5919 55.0268 89.1257C55.0099 88.9165 54.9963 88.7499 54.9864 88.6298L29.8604 94.6728L28.2572 118.399L28.2571 118.402L26.9769 141.766C27.0475 141.774 27.1373 141.784 27.2431 141.795C27.5229 141.825 27.915 141.866 28.364 141.906C29.2633 141.986 30.3854 142.066 31.2898 142.066C32.1946 142.066 33.3976 141.986 34.3783 141.906C34.8677 141.865 35.3004 141.825 35.6106 141.795C35.7561 141.781 35.8746 141.769 35.9594 141.76L39.4855 118.36L39.4857 118.359L43.034 95.7782C43.0492 95.6819 43.1335 95.6119 43.2309 95.6148C43.3283 95.6176 43.4084 95.6924 43.4179 95.7894C43.8349 100.049 44.4799 105.531 45.0207 109.949C45.291 112.158 45.5353 114.101 45.712 115.491C45.8004 116.186 45.8718 116.743 45.9212 117.126L45.9977 117.718C45.9978 117.718 45.9978 117.719 45.8059 117.744ZM45.8059 117.744L45.9977 117.718C45.9982 117.722 45.9987 117.727 45.999 117.731L45.8059 117.744ZM56.7736 141.615L56.7918 141.807C56.8901 141.798 56.9656 141.716 56.9672 141.618L56.7736 141.615Z" fill="#69757B"/>
<path d="M84.2507 47.1904C84.9058 47.5122 84.4606 48.1424 84.1562 48.4172C82.3294 50.0663 78.631 53.9791 77.614 54.7527C76.6941 55.4526 76.2912 55.3761 75.8818 55.1749C75.2835 54.6687 74.3733 53.5684 74.3387 53.1434C74.2849 52.4803 74.4333 51.9166 75.3467 51.092C76.1011 50.411 79.7407 47.2664 80.4714 46.6067C81.2021 45.9471 81.7613 45.9672 81.8978 46.0342L84.2507 47.1904Z" fill="#C6CED1"/>
<path d="M83.2835 47.3523C83.7855 47.5989 83.1833 48.6546 82.9372 48.8911C81.4609 50.3103 78.2742 53.3687 77.4567 54.0393C76.7171 54.6459 76.5854 54.8845 76.2716 54.7303C75.8195 54.3294 74.9349 53.3448 74.9206 52.9942C74.8984 52.4472 75.018 52.0033 75.7562 51.2937C76.3659 50.7076 79.5229 48.0713 80.1134 47.5036C80.7039 46.9359 81.2364 46.3465 82.0553 46.7488L83.2835 47.3523Z" fill="#E1E5E7"/>
<path d="M75.7511 49.3414C75.7511 49.3414 72.5793 51.2945 71.289 52.9057C69.9987 54.5169 61.1221 59.5968 61.1221 59.5968L59.7969 58.0124L55.232 62.6842C55.232 62.6842 56.3359 67.3902 58.5077 69.2706C59.3479 69.9981 72.9019 56.7767 72.9019 56.7767L75.8051 55.1638C75.8051 55.1638 75.3891 54.7914 75.16 54.5186C74.8678 54.1708 74.5148 53.5509 74.5148 53.5509C74.8631 53.0234 75.7331 51.68 75.8146 51.3233C75.9107 50.9023 76.0617 50.564 76.6836 50.7466C76.6836 50.7466 77.8871 51.353 78.5493 51.2945C79.2115 51.2361 79.6943 50.6935 79.8529 50.4295C79.0526 50.1668 77.3169 49.5882 76.7755 49.376C76.2341 49.1638 75.867 49.2645 75.7511 49.3414Z" fill="#E5B870"/>
<path fill-rule="evenodd" clip-rule="evenodd" d="M80.0326 50.3608C80.0531 50.416 80.0474 50.4776 80.0171 50.528C79.9261 50.6795 79.7503 50.8991 79.5081 51.09C79.2652 51.2813 78.9442 51.4527 78.5646 51.4862C78.369 51.5035 78.1464 51.4714 77.9323 51.4208C77.7156 51.3697 77.4948 51.2964 77.2983 51.2225C77.1015 51.1485 76.9263 51.0728 76.8003 51.0156C76.7373 50.9869 76.6864 50.9629 76.651 50.9458C76.6343 50.9378 76.621 50.9313 76.6116 50.9267C76.3453 50.8516 76.2359 50.9011 76.1795 50.9516C76.1026 51.0206 76.0502 51.1524 76.0016 51.3653C75.9746 51.4836 75.892 51.6565 75.7952 51.8377C75.6943 52.0266 75.565 52.2479 75.4285 52.4724C75.1873 52.8694 74.9203 53.2826 74.7409 53.5559C74.7778 53.6181 74.8296 53.704 74.89 53.8002C75.014 53.9973 75.1694 54.2298 75.3065 54.393C75.4141 54.521 75.5691 54.6764 75.7008 54.8027C75.7659 54.8652 75.8241 54.9193 75.8659 54.9578C75.8868 54.977 75.9036 54.9923 75.9151 55.0027L75.9283 55.0146L75.9324 55.0183M76.682 50.7455L76.769 50.5727L76.7718 50.574L76.7813 50.5787C76.7897 50.5829 76.8024 50.5891 76.8189 50.5971C76.852 50.613 76.9003 50.6358 76.9604 50.6631C77.0808 50.7178 77.2478 50.79 77.4346 50.8602C77.6218 50.9306 77.826 50.998 78.0212 51.0441C78.219 51.0908 78.3951 51.1126 78.5306 51.1006C78.8133 51.0757 79.0647 50.9465 79.2685 50.7859C79.3751 50.7019 79.4655 50.6118 79.5372 50.5287C78.6701 50.2424 77.1984 49.7492 76.7032 49.5551C76.2038 49.3593 75.9064 49.4685 75.8565 49.5016L75.851 49.5052L75.8489 49.5064L75.8423 49.5104L75.816 49.5268C75.7928 49.5413 75.7585 49.5628 75.7143 49.5908C75.6258 49.6469 75.4977 49.7289 75.3399 49.8325C75.0241 50.0396 74.5898 50.3324 74.1157 50.6751C73.1622 51.3642 72.0658 52.2422 71.4384 53.0256C71.263 53.2446 70.9691 53.5112 70.601 53.8058C70.23 54.1027 69.7735 54.4361 69.2647 54.7889C68.247 55.4945 67.0132 56.2826 65.8218 57.019C64.63 57.7557 63.4788 58.4418 62.6257 58.9436C62.1991 59.1946 61.847 59.3995 61.6014 59.5418C61.4786 59.6129 61.3825 59.6683 61.317 59.706L61.217 59.7635C61.2169 59.7635 61.2166 59.7637 61.1204 59.5957L61.217 59.7635C61.1356 59.81 61.0321 59.7918 60.972 59.7199L59.7841 58.2997L55.444 62.7414C55.451 62.7691 55.4595 62.8022 55.4694 62.8402C55.5034 62.9709 55.5545 63.1602 55.6226 63.3935C55.7589 63.8602 55.963 64.5017 56.2342 65.2011C56.7765 66.5993 57.5742 68.194 58.611 69.1042C58.6347 69.1019 58.675 69.0925 58.7356 69.0688C58.8628 69.0191 59.0385 68.9227 59.2606 68.779C59.7023 68.4931 60.2939 68.0419 60.987 67.4744C62.3713 66.3409 64.141 64.7595 65.8872 63.1529C67.6327 61.5468 69.3522 59.9178 70.6355 58.6902C71.2771 58.0764 71.8096 57.563 72.1816 57.2031C72.3677 57.0232 72.5136 56.8816 72.613 56.785L72.7645 56.6376C72.7646 56.6375 72.7651 56.637 72.9003 56.7756M58.5966 69.1047C58.5966 69.1047 58.597 69.1047 58.5976 69.1048L58.5966 69.1047ZM61.1648 59.347C61.2268 59.3112 61.3084 59.2641 61.4074 59.2068C61.6523 59.065 62.0037 58.8604 62.4294 58.61C63.281 58.109 64.4296 57.4244 65.6183 56.6897C66.8073 55.9548 68.0346 55.1708 69.0441 54.4707C69.549 54.1207 69.9976 53.7929 70.3591 53.5036C70.7234 53.212 70.9891 52.9674 71.1363 52.7836C71.7993 51.9557 72.9339 51.0516 73.8889 50.3614C74.369 50.0144 74.8083 49.7182 75.1276 49.5088C75.2873 49.404 75.4171 49.3209 75.5071 49.2639C75.5521 49.2353 75.5872 49.2133 75.611 49.1984L75.6384 49.1814L75.6454 49.177C75.8291 49.0573 76.2643 48.9673 76.8445 49.1947C77.3795 49.4044 79.1088 49.9809 79.9116 50.2445C79.9675 50.2628 80.0121 50.3057 80.0326 50.3608" fill="#333333"/>
<path d="M79.3035 53.4493L79.3105 52.6528C79.3758 52.412 79.6334 51.8737 79.9115 51.8764C80.023 51.4139 80.3403 51.2721 80.4719 51.4037L80.499 51.2012C80.6105 50.7388 80.9491 50.8096 81.0459 50.8298L81.0473 50.9773C81.1807 50.7942 81.48 50.4834 81.6096 50.7048L81.6768 51.6904L79.6105 53.7565L78.7075 53.8719L79.3035 53.4493Z" fill="#E5B870"/>
<path fill-rule="evenodd" clip-rule="evenodd" d="M81.8696 51.6772C81.8734 51.733 81.8529 51.7877 81.8134 51.8272L79.7472 53.8933C79.7169 53.9236 79.6774 53.9429 79.6349 53.9484L78.7319 54.0639C78.6438 54.0751 78.5593 54.025 78.527 53.9422C78.4947 53.8595 78.5229 53.7654 78.5954 53.714L79.1106 53.3486L79.1167 52.651C79.1169 52.6345 79.1191 52.618 79.1235 52.602C79.1614 52.4624 79.2503 52.249 79.3689 52.0674C79.4284 51.9763 79.5008 51.8848 79.5849 51.8143C79.6333 51.7738 79.6915 51.7353 79.7581 51.7106C79.8284 51.5056 79.9405 51.3514 80.073 51.2586C80.1401 51.2117 80.223 51.1761 80.3084 51.166C80.3091 51.1625 80.3098 51.1591 80.3106 51.1557C80.3791 50.8718 80.5313 50.7137 80.7155 50.6511C80.8768 50.5964 81.0291 50.6285 81.0814 50.6395C81.0828 50.6397 81.084 50.64 81.0852 50.6403C81.1281 50.5995 81.174 50.561 81.2212 50.529C81.2863 50.4849 81.378 50.4365 81.4822 50.4346C81.6071 50.4324 81.7121 50.4971 81.7764 50.607C81.7915 50.6328 81.8004 50.6617 81.8025 50.6916L81.8696 51.6772ZM80.8538 51.0136C80.8492 51.0148 80.8446 51.0161 80.84 51.0177C80.8035 51.0301 80.7325 51.0667 80.6892 51.2373L80.6654 51.4156L80.6748 52.4183L80.8654 52.2277C80.8653 52.2259 80.8652 52.224 80.8652 52.2221L80.8538 51.0136ZM81.2488 51.8443L81.2412 51.0421C81.2955 50.9747 81.3634 50.9035 81.4258 50.8582L81.4775 51.6157L81.2488 51.8443ZM80.2914 52.8016C80.2913 52.7998 80.2913 52.7979 80.2913 52.7961L80.2799 51.5872C80.2219 51.6345 80.1493 51.7319 80.1048 51.9003L80.1045 52.9885L80.2914 52.8016ZM79.7175 53.3756C79.7174 53.3731 79.7173 53.3706 79.7173 53.3681L79.7176 52.2428C79.7094 52.2544 79.7012 52.2665 79.693 52.279C79.6038 52.4157 79.5349 52.5774 79.5036 52.6808L79.4976 53.3698L79.6103 53.4827L79.7175 53.3756ZM80.3535 51.5511C80.3534 51.5515 80.3514 51.5517 80.348 51.5502C80.3519 51.5499 80.3536 51.5506 80.3535 51.5511Z" fill="#333333"/>
<path d="M26.4494 99.6788V94.9823C26.4494 94.9823 22.2558 79.0337 22.2559 75.8079C22.2559 73.7521 23.2236 63.5498 23.2236 63.5498L30.643 65.1627L28.3849 75.1627L30.3204 94.195C30.5354 94.9477 31.4817 96.9046 32.2559 98.7111C32.6835 99.709 33.6533 101.075 33.8688 101.937C34.0433 102.635 33.8688 102.905 33.5462 103.227L30.643 100.324L31.2881 106.13C31.0301 106.389 29.8903 105.378 29.3526 104.84C29.2451 104.84 28.8365 104.711 28.0623 104.195C27.2881 103.679 26.6645 100.969 26.4494 99.6788Z" fill="#E5B870"/>
<path fill-rule="evenodd" clip-rule="evenodd" d="M23.1096 63.3937C23.1543 63.3611 23.2108 63.3491 23.2649 63.3609L30.6843 64.9738C30.7347 64.9847 30.7786 65.0154 30.8064 65.0589C30.8341 65.1024 30.8433 65.1552 30.8319 65.2055L28.5808 75.1747L30.5114 94.1582C30.618 94.5218 30.8984 95.1773 31.2554 95.9793C31.3599 96.2141 31.4706 96.4604 31.5845 96.7141C31.862 97.3322 32.159 97.9935 32.4339 98.635C32.6071 99.0391 32.872 99.5061 33.1441 99.9858C33.1996 100.084 33.2554 100.182 33.3108 100.281C33.6306 100.849 33.9415 101.429 34.0567 101.89C34.1487 102.258 34.1557 102.54 34.0785 102.782C34.0016 103.023 33.8491 103.198 33.6832 103.364C33.6076 103.44 33.4851 103.44 33.4095 103.364L30.8964 100.851L31.4807 106.109C31.4872 106.168 31.4667 106.226 31.4252 106.268C31.3399 106.353 31.2303 106.371 31.1396 106.364C31.0509 106.358 30.9597 106.328 30.8745 106.291C30.7027 106.215 30.5052 106.085 30.3094 105.939C29.9371 105.66 29.5362 105.294 29.2632 105.024C29.2296 105.018 29.1941 105.008 29.1578 104.997C29.0825 104.974 28.9893 104.938 28.8774 104.887C28.6535 104.785 28.3487 104.619 27.9551 104.356C27.7163 104.197 27.5136 103.89 27.3405 103.539C27.1635 103.179 27.0028 102.741 26.8615 102.285C26.5787 101.371 26.3672 100.362 26.2587 99.7108C26.2569 99.7003 26.256 99.6897 26.256 99.679V95.0074L26.2152 94.8515C26.1845 94.7338 26.1394 94.5607 26.082 94.3394C25.9673 93.8968 25.8034 93.2609 25.6068 92.4878C25.2135 90.9416 24.689 88.8463 24.1646 86.6499C23.6401 84.4538 23.1153 82.1553 22.7215 80.2032C22.3293 78.2589 22.0625 76.6375 22.0625 75.8081C22.0625 74.7696 22.3056 71.6943 22.5471 68.8915C22.6681 67.4873 22.7891 66.1474 22.8798 65.1585C22.9252 64.6641 22.963 64.2575 22.9895 63.9744L23.0311 63.5322C23.0311 63.5321 23.0311 63.5317 23.2238 63.55L23.0311 63.5322C23.0363 63.4771 23.0649 63.4264 23.1096 63.3937ZM23.396 63.7855L23.3749 64.0104C23.3485 64.2933 23.3107 64.6997 23.2653 65.1939C23.1746 66.1823 23.0537 67.5214 22.9328 68.9247C22.6904 71.737 22.4496 74.7907 22.4496 75.8081C22.4496 76.5915 22.7069 78.1733 23.101 80.1267C23.4935 82.0722 24.0171 84.3657 24.5411 86.56C25.065 88.754 25.5889 90.8474 25.9819 92.3924C26.1784 93.1648 26.3422 93.8001 26.4568 94.2423C26.5141 94.4634 26.5591 94.6362 26.5898 94.7536L26.6366 94.9325C26.6366 94.9326 26.6368 94.9332 26.4496 94.9825L26.6368 94.9332C26.641 94.9493 26.6431 94.9658 26.6431 94.9825V99.663C26.7504 100.302 26.9572 101.285 27.2313 102.17C27.3695 102.617 27.5233 103.034 27.6878 103.368C27.8561 103.71 28.0216 103.935 28.1699 104.034C28.5505 104.288 28.8371 104.444 29.0379 104.535C29.1384 104.581 29.2158 104.61 29.2716 104.627C29.323 104.643 29.3476 104.646 29.3522 104.647C29.3526 104.647 29.353 104.647 29.3522 104.647C29.4035 104.647 29.4534 104.667 29.4897 104.703C29.7549 104.969 30.167 105.349 30.5414 105.629C30.73 105.77 30.8995 105.879 31.0308 105.936C31.0464 105.943 31.0607 105.949 31.074 105.954L30.4508 100.346C30.4417 100.264 30.4852 100.185 30.5593 100.15C30.6334 100.114 30.7219 100.129 30.78 100.187L33.5417 102.949C33.6227 102.854 33.6774 102.765 33.7097 102.664C33.7568 102.516 33.7638 102.314 33.6812 101.984C33.581 101.583 33.2993 101.05 32.9734 100.47C32.9201 100.375 32.8657 100.28 32.8111 100.183C32.539 99.7039 32.2607 99.2134 32.0782 98.7875C31.8046 98.1492 31.5099 97.4929 31.2329 96.8761C31.1186 96.6216 31.0073 96.3738 30.9018 96.1368C30.5438 95.3326 30.2466 94.6408 30.1345 94.2483C30.1313 94.2373 30.1292 94.2261 30.128 94.2147L28.1925 75.1825C28.1904 75.1617 28.1917 75.1407 28.1963 75.1203L30.4114 65.3106L23.396 63.7855Z" fill="#333333"/>
<path fill-rule="evenodd" clip-rule="evenodd" d="M30.3422 105.646C30.2539 105.658 30.1728 105.596 30.1611 105.507L29.516 100.669C29.5042 100.58 29.5663 100.499 29.6546 100.487C29.7429 100.476 29.824 100.538 29.8358 100.626L30.4808 105.465C30.4926 105.553 30.4305 105.634 30.3422 105.646Z" fill="#333333"/>
<path fill-rule="evenodd" clip-rule="evenodd" d="M29.3677 105.001C29.279 105.01 29.2 104.945 29.1911 104.856L28.7073 100.017C28.6984 99.9287 28.7631 99.8497 28.8517 99.8408C28.9404 99.832 29.0194 99.8966 29.0283 99.9853L29.5121 104.824C29.521 104.913 29.4563 104.992 29.3677 105.001Z" fill="#333333"/>
<path fill-rule="evenodd" clip-rule="evenodd" d="M28.4033 104.355C28.3147 104.365 28.235 104.301 28.2251 104.213L27.7413 99.8706C27.7314 99.7821 27.7952 99.7023 27.8837 99.6924C27.9723 99.6826 28.052 99.7464 28.0619 99.8349L28.5457 104.177C28.5556 104.266 28.4918 104.345 28.4033 104.355Z" fill="#333333"/>
<path d="M43.547 45.807C40.1922 47.6134 37.418 46.5597 36.4503 45.807L35.8051 42.5812C35.375 40.7532 34.6438 36.1941 35.1599 32.5812C35.8051 28.0651 43.0559 30.4771 44.8375 32.2587C46.4504 33.8715 47.9556 36.8823 49.3535 38.3876H48.0632C48.3212 38.9038 48.1707 40.3231 48.0632 40.9683C47.9556 41.8285 48.644 43.2909 47.0956 43.5489C45.9658 43.7372 44.4237 43.1927 43.5472 42.5922L43.547 45.807Z" fill="#E5B870"/>
<path fill-rule="evenodd" clip-rule="evenodd" d="M42.7394 30.7449C43.6901 31.1554 44.5025 31.6519 44.9726 32.122C45.7954 32.9448 46.5855 34.1179 47.336 35.2572C47.392 35.3422 47.4478 35.4271 47.5034 35.5116C48.1989 36.5691 48.8591 37.5729 49.4935 38.2561C49.5459 38.3125 49.5599 38.3946 49.5291 38.4652C49.4983 38.5357 49.4287 38.5814 49.3517 38.5814H48.3295C48.3521 38.6818 48.3676 38.7897 48.378 38.8998C48.3996 39.127 48.4015 39.3821 48.3919 39.637C48.3728 40.1448 48.3076 40.6671 48.253 40.9962C48.23 41.1853 48.2497 41.4143 48.2752 41.6798C48.2762 41.6902 48.2772 41.7006 48.2782 41.7111C48.3023 41.9606 48.329 42.237 48.311 42.4979C48.292 42.7721 48.2228 43.0515 48.0321 43.2815C47.8395 43.5138 47.5445 43.6702 47.1256 43.74C46.521 43.8408 45.8214 43.7444 45.1698 43.5522C44.6512 43.3993 44.1515 43.1823 43.7389 42.9427L43.7388 45.9228L43.637 45.9776C40.2086 47.8237 37.3522 46.7553 36.3296 45.96L36.2728 45.9157L35.6142 42.6225C35.1818 40.7833 34.4457 36.1999 34.9665 32.554C35.1368 31.3625 35.7503 30.6102 36.6085 30.2005C37.4539 29.797 38.5186 29.7336 39.5945 29.8664C40.6738 29.9996 41.7852 30.3328 42.7394 30.7449ZM43.6029 42.3965C43.3152 42.192 43.1388 42.002 43.078 41.86C43.0359 41.7617 42.9221 41.7162 42.8238 41.7583C42.7256 41.8004 42.6801 41.9142 42.7222 42.0125C42.8227 42.2469 43.0592 42.4811 43.3518 42.6928L43.3517 45.6908C40.1816 47.3481 37.5772 46.3971 36.6238 45.6971L35.9931 42.5434L35.9917 42.537C35.5637 40.7182 34.8386 36.1865 35.3497 32.6087C35.5021 31.5422 36.0368 30.9024 36.7753 30.5499C37.5266 30.1912 38.5069 30.1222 39.547 30.2506C40.5838 30.3785 41.6595 30.7002 42.586 31.1003C43.516 31.5019 44.2781 31.975 44.6989 32.3957C45.4889 33.1858 46.2579 34.3244 47.0127 35.4701C47.0704 35.5577 47.1281 35.6454 47.1856 35.7329C47.775 36.6293 48.3566 37.5138 48.9244 38.1943H47.7482L47.8883 38.4744C47.9366 38.571 47.9729 38.7278 47.9927 38.9364C48.0121 39.1406 48.0143 39.3774 48.0051 39.6225C47.9866 40.1126 47.9232 40.6203 47.8705 40.9366L47.8693 40.9445C47.8393 41.1848 47.8652 41.4599 47.8899 41.7168L47.8917 41.735C47.9167 41.995 47.9406 42.2431 47.9248 42.4713C47.9088 42.7025 47.8531 42.8908 47.7341 43.0344C47.6168 43.1758 47.4172 43.299 47.062 43.3582C46.5367 43.4457 45.9004 43.3641 45.2793 43.1809C44.6808 43.0044 44.1135 42.7387 43.6973 42.4614C43.6734 42.4312 43.6406 42.4082 43.6029 42.3965Z" fill="#333333"/>
<path fill-rule="evenodd" clip-rule="evenodd" d="M44.4475 35.0442C44.2835 35.0843 44.1252 35.2326 44.0304 35.3749C43.9711 35.4638 43.8509 35.4878 43.762 35.4285C43.673 35.3692 43.649 35.2491 43.7083 35.1601C43.8285 34.9798 44.0573 34.741 44.3557 34.6682C44.5115 34.6301 44.6826 34.6388 44.8542 34.721C45.0227 34.8017 45.1786 34.9469 45.3207 35.1601C45.38 35.2491 45.356 35.3692 45.267 35.4285C45.1781 35.4878 45.0579 35.4638 44.9986 35.3749C44.8827 35.201 44.7752 35.1123 44.6869 35.0701C44.6018 35.0293 44.5229 35.0258 44.4475 35.0442Z" fill="#333333"/>
<path d="M48.7263 30.5108C47.6941 32.5753 44.6869 33.2149 43.2891 32.7848C43.1764 33.7985 43.2891 35.9946 41.307 35.9946C39.7404 36.6398 40.4069 38.7106 39.7404 39.559C39.3103 38.9139 38.1275 37.9461 37.1601 38.9138C36.5023 39.5719 37.4827 40.6343 38.1279 41.1719C37.6824 41.3818 36.5334 41.8662 35.5012 42.1243C34.4689 42.3824 34.5163 37.8181 34.2091 37.2856C34.017 36.7095 31.2197 37.2734 30.9836 35.0275C30.823 33.5011 31.7605 33.4081 31.307 32.1243C30.6178 30.1735 31.8884 31.854 33.8865 30.1888C34.8694 29.3697 34.722 25.4217 36.4682 25.35C38.1608 25.2805 40.0166 24.7044 40.3392 25.9946C40.3392 27.9302 42.9199 25.3495 44.5328 25.9946C45.5005 28.5754 49.271 29.4215 48.7263 30.5108Z" fill="#8F6E0D"/>
<path fill-rule="evenodd" clip-rule="evenodd" d="M39.9111 25.1965C40.1987 25.3444 40.405 25.5886 40.4968 25.9557C40.5 25.9685 40.5016 25.9816 40.5016 25.9948C40.5016 26.2226 40.5402 26.3585 40.5904 26.4375C40.6355 26.5084 40.6983 26.5469 40.7928 26.5612C40.895 26.5766 41.0305 26.5623 41.2024 26.5189C41.3723 26.476 41.5641 26.4082 41.7748 26.328C41.8599 26.2956 41.948 26.2611 42.0384 26.2257C42.3894 26.0884 42.776 25.9372 43.1579 25.8386C43.6384 25.7146 44.1429 25.6647 44.5938 25.845C44.6359 25.8619 44.6689 25.8957 44.6849 25.9382C45.1483 27.174 46.2883 28.0053 47.2879 28.6783C47.3575 28.7253 47.4267 28.7715 47.4951 28.8172C47.9071 29.0928 48.2872 29.347 48.5481 29.5908C48.7011 29.7337 48.8273 29.8855 48.8931 30.0502C48.962 30.2229 48.9615 30.4035 48.8717 30.5831C48.3303 31.6657 47.2781 32.3634 46.1985 32.7359C45.2098 33.077 44.17 33.1553 43.4328 32.9894C43.427 33.0602 43.4215 33.1354 43.4156 33.2148L43.4148 33.2258C43.4032 33.3826 43.3905 33.5539 43.3721 33.7308C43.3354 34.0839 43.2754 34.4677 43.1526 34.8227C43.0297 35.1781 42.8408 35.5138 42.5405 35.7604C42.2441 36.0039 41.8523 36.1499 41.3411 36.1559C40.6628 36.449 40.4555 37.0437 40.3465 37.7262C40.3203 37.8907 40.3002 38.0569 40.2801 38.2237L40.2771 38.248C40.2562 38.4216 40.2348 38.5961 40.2061 38.7624C40.1494 39.0916 40.0609 39.4137 39.8683 39.6588C39.8364 39.6995 39.7869 39.7224 39.7352 39.7203C39.6835 39.7183 39.636 39.6917 39.6073 39.6486C39.405 39.3453 39.0242 38.9664 38.5893 38.78C38.374 38.6877 38.152 38.6453 37.9342 38.6756C37.7185 38.7056 37.4947 38.8086 37.2753 39.028C37.1446 39.1587 37.0978 39.3036 37.1053 39.4612C37.1131 39.6256 37.1808 39.8109 37.2956 40.0066C37.5253 40.3981 37.9153 40.7841 38.2322 41.0482C38.2745 41.0834 38.2959 41.1379 38.2889 41.1925C38.282 41.2472 38.2476 41.2945 38.1977 41.318C37.7473 41.5302 36.5878 42.0193 35.5414 42.2809C35.3444 42.3302 35.1758 42.2573 35.0472 42.1248C34.9255 41.9993 34.832 41.8148 34.7565 41.6073C34.6045 41.1895 34.5023 40.6112 34.4244 40.0227C34.3706 39.6162 34.3274 39.1961 34.2879 38.8125C34.2701 38.6395 34.2531 38.4739 34.2362 38.3204C34.2088 38.0715 34.1819 37.8546 34.1526 37.6844C34.138 37.5994 34.1232 37.5285 34.1082 37.4724C34.0926 37.4141 34.0791 37.3812 34.0705 37.3663C34.0651 37.357 34.0606 37.347 34.0572 37.3368C34.0542 37.3277 34.0389 37.299 33.9584 37.2618C33.8802 37.2256 33.7691 37.1946 33.6243 37.1634C33.5368 37.1445 33.4373 37.1257 33.3301 37.1055C33.0985 37.0619 32.831 37.0115 32.5703 36.9381C32.1827 36.8291 31.7776 36.6623 31.4526 36.3662C31.1236 36.0664 30.8872 35.6435 30.8242 35.0445C30.7439 34.2801 30.9274 33.8475 31.0824 33.482C31.0909 33.462 31.0993 33.4422 31.1076 33.4225C31.1858 33.2367 31.2468 33.0761 31.2658 32.8888C31.2846 32.7036 31.263 32.4812 31.156 32.1782C31.069 31.932 31.0102 31.7357 30.9806 31.5795C30.9517 31.4273 30.9458 31.2904 30.9883 31.1767C31.0361 31.0488 31.1335 30.9786 31.2422 30.9413C31.3412 30.9073 31.4612 30.8965 31.5794 30.8887C31.6108 30.8866 31.6432 30.8847 31.6765 30.8827C31.905 30.8691 32.179 30.8529 32.5019 30.7641C32.8692 30.663 33.3026 30.4666 33.7844 30.0651C33.8834 29.9826 33.9765 29.8531 34.0649 29.6766C34.1528 29.5012 34.2315 29.2888 34.3061 29.0494C34.3969 28.7583 34.4776 28.4421 34.5613 28.1143C34.6172 27.8954 34.6744 27.6714 34.7368 27.4462C34.8893 26.8958 35.0703 26.35 35.3309 25.9355C35.5938 25.5174 35.9533 25.2099 36.4627 25.189C36.8348 25.1738 37.2151 25.1336 37.5908 25.094C37.6359 25.0892 37.681 25.0844 37.7261 25.0797C38.1421 25.0362 38.5518 24.9969 38.9205 25.0013C39.2874 25.0057 39.6323 25.0532 39.9111 25.1965ZM37.6244 25.4148C37.2501 25.4543 36.859 25.4956 36.476 25.5113C36.1122 25.5263 35.8353 25.7393 35.604 26.1072C35.3704 26.4786 35.1994 26.9845 35.0476 27.5324C34.9894 27.7428 34.9334 27.9615 34.8778 28.1791C34.7917 28.5156 34.7064 28.8494 34.6141 29.1454C34.537 29.3925 34.4523 29.6235 34.3533 29.8211C34.2549 30.0176 34.1376 30.1906 33.9909 30.3129C33.4736 30.744 32.9988 30.9619 32.5875 31.0751C32.2297 31.1735 31.9219 31.1915 31.6934 31.2049C31.6609 31.2068 31.63 31.2086 31.6007 31.2105C31.4783 31.2187 31.3996 31.2283 31.3469 31.2464C31.3037 31.2612 31.296 31.2748 31.2904 31.2897C31.2795 31.3188 31.2718 31.3837 31.2975 31.5194C31.3225 31.6513 31.3748 31.8292 31.4601 32.0707C31.5798 32.4096 31.6112 32.6802 31.5867 32.9213C31.5625 33.1602 31.4843 33.3589 31.4049 33.5476C31.3965 33.5675 31.3881 33.5874 31.3796 33.6074C31.2304 33.9592 31.0734 34.3294 31.1451 35.0108C31.2002 35.5348 31.402 35.8836 31.6699 36.1277C31.9419 36.3756 32.2923 36.5248 32.6576 36.6276C32.9053 36.6973 33.1453 36.7423 33.3694 36.7845C33.4813 36.8055 33.5894 36.8258 33.6924 36.848C33.8406 36.88 33.9813 36.917 34.0939 36.969C34.1997 37.018 34.3092 37.0935 34.3576 37.2191C34.3836 37.2683 34.4034 37.3279 34.4198 37.3889C34.4383 37.4581 34.455 37.5396 34.4705 37.6298C34.5015 37.8102 34.5293 38.0353 34.5568 38.2851C34.5742 38.4431 34.5915 38.6111 34.6095 38.7856C34.6487 39.167 34.691 39.5786 34.7442 39.9804C34.8219 40.5673 34.9207 41.115 35.0597 41.497C35.1297 41.6895 35.2043 41.8234 35.2787 41.9002C35.3464 41.9699 35.4021 41.9832 35.4631 41.968C36.3374 41.7494 37.3003 41.3648 37.8339 41.1291C37.5455 40.8672 37.2267 40.5266 37.0174 40.1698C36.8886 39.9504 36.7943 39.7131 36.7831 39.4765C36.7716 39.233 36.8489 38.9983 37.0471 38.8C37.3114 38.5356 37.5982 38.3966 37.8898 38.3561C38.1793 38.3158 38.4613 38.3742 38.7164 38.4835C39.128 38.6599 39.4865 38.9759 39.7285 39.2717C39.8015 39.1165 39.8504 38.9271 39.8882 38.7077C39.9153 38.5505 39.9358 38.3839 39.9569 38.2093L39.96 38.1832C39.98 38.0179 40.0007 37.8461 40.028 37.6753C40.1425 36.9584 40.381 36.2022 41.2466 35.8457C41.2661 35.8376 41.287 35.8335 41.308 35.8335C41.7717 35.8335 42.0986 35.7059 42.3357 35.5112C42.5753 35.3144 42.7369 35.0377 42.8477 34.7173C42.9586 34.3966 43.0155 34.0412 43.0512 33.6974C43.0691 33.526 43.0815 33.3593 43.0931 33.2021L43.0942 33.1876C43.1053 33.0368 43.1158 32.8934 43.1299 32.7671C43.1352 32.7194 43.1615 32.6765 43.2017 32.6501C43.2418 32.6237 43.2917 32.6167 43.3376 32.6308C43.9944 32.8329 45.0592 32.7877 46.0933 32.431C47.1247 32.0751 48.0922 31.4206 48.5831 30.4388C48.6295 30.3461 48.6302 30.2619 48.5935 30.1698C48.5535 30.0696 48.467 29.9564 48.3279 29.8265C48.0879 29.6022 47.7339 29.3653 47.319 29.0876C47.2501 29.0416 47.1796 28.9944 47.1077 28.9459C46.1334 28.2899 44.9297 27.4268 44.4097 26.121C44.0678 26.0063 43.6682 26.0401 43.2385 26.151C42.8774 26.2442 42.5148 26.3859 42.1656 26.5225C42.0726 26.5588 41.9805 26.5948 41.8897 26.6294C41.677 26.7104 41.4706 26.7839 41.2814 26.8317C41.0942 26.879 40.9096 26.905 40.7447 26.8801C40.5721 26.8541 40.4206 26.7716 40.3182 26.6106C40.2237 26.4619 40.1813 26.2621 40.1791 26.0157C40.1078 25.7485 39.9631 25.586 39.7636 25.4834C39.5509 25.3741 39.2655 25.328 38.9166 25.3239C38.5694 25.3197 38.1776 25.3568 37.7596 25.4006C37.7148 25.4053 37.6697 25.41 37.6244 25.4148Z" fill="#8F6E0D"/>
<path d="M26.9356 50.0012C28.742 46.6463 34.5159 45.8076 36.4513 45.8076C36.4513 45.8076 38.0642 46.7755 39.9997 46.7755C41.9352 46.7755 43.5481 45.8076 43.5481 45.8076C48.2252 45.8076 48.7094 45.8078 51.9352 47.4207C55.161 49.0336 61.2901 58.711 61.2901 58.711L55.161 63.5497C53.5304 60.5385 53.1683 59.0888 53.0878 58.5934C53.2497 60.0447 54.2205 68.8514 54.5159 73.8723C54.8385 79.3562 55.161 88.3884 55.161 88.3884C55.161 88.3884 48.3113 90.5433 43.8707 91.6141C39.4301 92.6848 30.6449 94.1949 30.6449 94.1949C30.6449 94.1949 30.3223 81.6142 29.9997 76.1304C29.8532 73.6389 30.3223 67.4207 30.3223 67.4207C30.3223 67.4207 27.7035 67.1534 26.1288 66.7755C24.5541 66.3976 22.2578 65.4852 22.2578 65.4852C23.7246 59.3296 25.5802 52.5183 26.9356 50.0012Z" fill="#165C7D"/>
<path fill-rule="evenodd" clip-rule="evenodd" d="M48.3187 45.8191C49.4572 46.0261 50.4062 46.4409 52.02 47.2478C52.8616 47.6686 53.8703 48.6004 54.8994 49.7354C55.9338 50.8762 57.0066 52.2429 57.9762 53.5559C58.9462 54.8694 59.8149 56.1321 60.441 57.0661C60.7541 57.5332 61.0066 57.9183 61.181 58.1868C61.2681 58.321 61.3358 58.4261 61.3816 58.4977L61.4339 58.5794L61.4472 58.6004L61.4515 58.6071C61.4515 58.6072 61.4518 58.6075 61.449 58.6093C61.4411 58.6144 61.4112 58.6333 61.2977 58.7052L61.4515 58.6071C61.5045 58.6909 61.486 58.8017 61.4082 58.8631L55.2792 63.7018C55.2344 63.7372 55.1762 63.751 55.1202 63.7395C55.0643 63.7279 55.0163 63.6923 54.9891 63.6421C54.2789 62.3305 53.8067 61.3111 53.4928 60.5344C53.8421 63.7863 54.478 69.9622 54.7073 73.8611C54.8687 76.6049 55.0301 80.2353 55.151 83.1791C55.2115 84.6511 55.2619 85.9517 55.2972 86.8843C55.3149 87.3506 55.3287 87.7249 55.3382 87.9827L55.3526 88.3813C55.3527 88.3813 55.3527 88.3817 55.2892 88.384L55.3526 88.3813C55.3558 88.4683 55.3004 88.5471 55.2173 88.5732L55.1592 88.3886C55.2173 88.5732 55.2174 88.5732 55.2173 88.5732L55.216 88.5736L55.1391 88.5978C55.0877 88.6139 55.0119 88.6376 54.9138 88.6681C54.7176 88.7292 54.4325 88.8176 54.0765 88.927C53.3644 89.1459 52.3688 89.449 51.2343 89.7855C48.9662 90.4582 46.1397 91.2658 43.9143 91.8024C41.6885 92.3391 38.3775 92.9851 35.6262 93.4965C34.2498 93.7523 33.0124 93.9746 32.119 94.133C31.6723 94.2122 31.3116 94.2754 31.0625 94.3188C30.938 94.3405 30.8414 94.3572 30.7759 94.3686L30.6776 94.3855L30.6763 94.3857C30.6763 94.3858 30.6759 94.3858 30.6431 94.1951C30.4497 94.2 30.4497 94.2 30.4496 94.1999L30.4352 93.6489C30.4257 93.2943 30.4119 92.7815 30.3942 92.149C30.3589 90.8841 30.3085 89.1404 30.2481 87.2254C30.1271 83.3944 29.9659 78.8808 29.8048 76.1419C29.7307 74.8836 29.8122 72.6953 29.911 70.8312C29.9606 69.897 30.0147 69.041 30.0564 68.4184C30.0773 68.1072 30.0951 67.8542 30.1076 67.6791C30.1099 67.6481 30.1119 67.6195 30.1138 67.5934C30.0464 67.5861 29.9625 67.5767 29.8647 67.5655C29.5937 67.5344 29.2159 67.4891 28.7886 67.4318C27.9361 67.3177 26.8794 67.1553 26.0818 66.9639C25.2839 66.7724 24.3082 66.4469 23.5359 66.1711C23.1489 66.0329 22.8113 65.9065 22.5705 65.8147C22.4501 65.7688 22.3537 65.7315 22.2875 65.7056L22.2113 65.6758L22.1915 65.668L22.1851 65.6654C22.0957 65.6299 22.0455 65.534 22.0678 65.4405C22.8016 62.3609 23.6331 59.1157 24.451 56.3245C25.2672 53.5392 26.0748 51.1884 26.7634 49.9096C27.7025 48.1655 29.6573 47.0964 31.5828 46.4627C33.5146 45.8268 35.4625 45.6143 36.4496 45.6143C36.4846 45.6143 36.519 45.6238 36.5491 45.6418C36.5491 45.6418 36.5491 45.6418 36.5491 45.6418L36.5524 45.6438L36.5649 45.651C36.5762 45.6576 36.5934 45.6674 36.6163 45.68C36.662 45.7053 36.7302 45.7418 36.8184 45.7859C36.9948 45.8742 37.2507 45.9923 37.5659 46.1105C38.1978 46.3475 39.061 46.5822 39.998 46.5822C40.9349 46.5822 41.7981 46.3475 42.43 46.1105C42.7452 45.9923 43.0011 45.8742 43.1775 45.7859C43.2657 45.7418 43.3339 45.7053 43.3796 45.68C43.4025 45.6674 43.4197 45.6576 43.431 45.651L43.4435 45.6438L43.4463 45.6421C43.4462 45.6422 43.4467 45.6418 43.5463 45.8078C43.6459 45.9738 43.6459 45.9738 43.6458 45.9738L43.6441 45.9749L43.6398 45.9774L43.6245 45.9863C43.6174 45.9904 43.6086 45.9954 43.5981 46.0014C43.589 46.0065 43.5785 46.0123 43.5669 46.0188C43.5169 46.0464 43.4439 46.0855 43.3506 46.1321C43.1642 46.2254 42.8958 46.3492 42.5659 46.473C41.9075 46.7199 40.9965 46.9693 39.998 46.9693C38.9994 46.9693 38.0884 46.7199 37.43 46.473C37.1001 46.3492 36.8317 46.2254 36.6453 46.1321C36.552 46.0855 36.4791 46.0464 36.429 46.0188C36.4175 46.0124 36.4072 46.0067 36.3981 46.0016C35.4335 46.0088 33.5608 46.2192 31.7038 46.8304C29.8069 47.4547 27.9715 48.4824 27.1042 50.0931C26.4374 51.3314 25.6396 53.6449 24.8225 56.4334C24.0215 59.1666 23.2067 62.3396 22.4834 65.3665C22.5433 65.3898 22.6191 65.419 22.7084 65.453C22.9473 65.5441 23.2822 65.6694 23.6661 65.8066C24.4357 66.0814 25.3954 66.4011 26.1722 66.5875C26.9493 66.774 27.9894 66.9343 28.84 67.0482C29.2643 67.105 29.6396 67.1501 29.9088 67.1809C30.0182 67.1935 30.11 67.2036 30.1804 67.2113L31.7478 61.8824C31.7779 61.7798 31.8855 61.7212 31.9881 61.7513C32.0906 61.7815 32.1493 61.8891 32.1191 61.9916L30.512 67.4558L30.5084 67.5055C30.505 67.5516 30.5 67.6195 30.4937 67.7068C30.4812 67.8814 30.4635 68.1337 30.4427 68.4443C30.401 69.0656 30.347 69.9198 30.2976 70.8517C30.1985 72.7194 30.1187 74.886 30.1912 76.1192C30.3527 78.8641 30.514 83.3828 30.635 87.2132C30.6955 89.1288 30.7459 90.873 30.7812 92.1383C30.7988 92.7709 30.8127 93.2838 30.8221 93.6386L30.8308 93.9662C30.8786 93.9579 30.9339 93.9483 30.9961 93.9374C31.2448 93.8941 31.6051 93.8309 32.0514 93.7518C32.944 93.5936 34.1804 93.3715 35.5554 93.1159C38.3069 92.6045 41.6088 91.9602 43.8235 91.4261C46.0387 90.892 48.8573 90.0867 51.1243 89.4143C52.2573 89.0783 53.2516 88.7757 53.9627 88.557C54.3182 88.4477 54.6029 88.3595 54.7987 88.2985C54.8507 88.2823 54.8965 88.268 54.9356 88.2558C54.9442 88.2531 54.9525 88.2505 54.9605 88.248L54.9513 87.9969C54.9419 87.7393 54.928 87.3651 54.9104 86.899C54.8751 85.9666 54.8247 84.6665 54.7643 83.1949C54.6433 80.2516 54.4821 76.624 54.3209 73.8838C54.0262 68.8744 53.0578 60.0867 52.8942 58.6197C52.8825 58.5469 52.8764 58.4924 52.8731 58.4544C52.8715 58.4351 52.8706 58.42 52.8701 58.4091L52.8696 58.3958L52.8696 58.3914L52.8696 58.3897L52.8695 58.389C52.8695 58.389 52.8695 58.3885 53.0631 58.3885L53.2554 58.3668L53.2779 58.5672C53.3533 59.0272 53.6937 60.4019 55.2204 63.2551L61.0309 58.6678C60.987 58.5995 60.9284 58.5087 60.8563 58.3976C60.6829 58.1305 60.4314 57.747 60.1195 57.2817C59.4955 56.3508 58.6303 55.0933 57.6648 53.7858C56.699 52.4779 55.6347 51.1227 54.6126 49.9954C53.5853 48.8623 52.6182 47.9796 51.8469 47.594C50.2349 46.788 49.3289 46.3962 48.2495 46.1999C47.1699 46.0036 45.9112 46.0013 43.5981 46.0014M53.0631 58.3885L53.2554 58.3668C53.2439 58.2647 53.1547 58.1894 53.0522 58.1952C52.9497 58.201 52.8695 58.2864 52.8695 58.389L53.0631 58.3885ZM30.6431 94.1951L30.4496 94.1999C30.4511 94.2561 30.4769 94.309 30.5203 94.3447C30.5637 94.3803 30.621 94.3953 30.6763 94.3857L30.6431 94.1951Z" fill="#135371"/>
<path d="M94.8986 127.677L94.576 148.967C92.5115 149.741 91.3502 148.967 90.3824 148.322L88.7695 127.677H94.8986Z" fill="#805928"/>
<path fill-rule="evenodd" clip-rule="evenodd" d="M88.6257 127.546C88.6623 127.506 88.7138 127.483 88.7678 127.483H94.8968C94.9486 127.483 94.9983 127.504 95.0347 127.541C95.0711 127.578 95.0911 127.628 95.0903 127.68L94.7677 148.97C94.7665 149.05 94.7167 149.121 94.6422 149.148C93.5758 149.548 92.7282 149.553 92.0166 149.364C91.3161 149.178 90.7613 148.808 90.282 148.489L90.2733 148.483C90.2239 148.45 90.1923 148.396 90.1877 148.337L88.5748 127.692C88.5706 127.638 88.589 127.585 88.6257 127.546ZM88.977 127.87L90.5663 148.213C91.0291 148.521 91.5156 148.831 92.1157 148.99C92.7167 149.149 93.4446 149.16 94.3827 148.831L94.7003 127.87H88.977Z" fill="#333333"/>
<path d="M94.5754 148.968C92.5108 150.259 90.9194 149.076 90.3818 148.323L90.3223 147.098H94.5754V148.968Z" fill="#E1E5E7"/>
<path fill-rule="evenodd" clip-rule="evenodd" d="M90.1823 146.963C90.2188 146.925 90.2695 146.903 90.3225 146.903H94.5755C94.6824 146.903 94.7691 146.99 94.7691 147.097V148.967C94.7691 149.034 94.7347 149.096 94.6781 149.132C93.5988 149.806 92.6262 149.841 91.8479 149.596C91.0786 149.352 90.5137 148.84 90.2245 148.435C90.2029 148.405 90.1905 148.369 90.1887 148.332L90.1291 147.106C90.1266 147.053 90.1458 147.002 90.1823 146.963ZM90.5256 147.29L90.5725 148.255C90.8307 148.596 91.3163 149.022 91.9645 149.226C92.6118 149.431 93.435 149.42 94.382 148.859V147.29H90.5256Z" fill="#333333"/>
<path d="M94.5762 152.838V149.035C92.0315 149.225 90.7428 148.639 90.4166 148.322C89.3563 148.56 86.7464 149.13 84.7889 149.511C82.8315 149.891 82.179 151.967 82.3421 152.838H94.5762Z" fill="#333333"/>
<path fill-rule="evenodd" clip-rule="evenodd" d="M90.5493 148.184C90.5025 148.138 90.4358 148.119 90.3721 148.134C89.3124 148.371 86.7046 148.941 84.7499 149.321C83.7043 149.524 83.0092 150.181 82.6003 150.894C82.196 151.599 82.0577 152.383 82.1497 152.874C82.1669 152.966 82.2468 153.032 82.34 153.032H94.574C94.6809 153.032 94.7676 152.945 94.7676 152.839V149.036C94.7676 148.982 94.7452 148.93 94.7057 148.894C94.6662 148.857 94.6133 148.839 94.5596 148.843C93.3041 148.936 92.3661 148.838 91.7072 148.681C91.0412 148.522 90.6764 148.307 90.5493 148.184ZM90.3618 148.533C90.5886 148.71 91.0049 148.911 91.6174 149.057C92.2823 149.216 93.1934 149.314 94.3805 149.243V152.645H82.5119C82.4902 152.25 82.6122 151.651 82.936 151.087C83.302 150.449 83.9118 149.878 84.8237 149.701C86.7277 149.331 89.2467 148.782 90.3618 148.533Z" fill="#333333"/>
<path d="M99.7404 127.677V148.967C101.805 149.741 102.966 148.967 103.934 148.322L105.547 127.677H99.7404Z" fill="#805928"/>
<path fill-rule="evenodd" clip-rule="evenodd" d="M105.687 127.546C105.65 127.506 105.599 127.483 105.545 127.483H99.7383C99.6314 127.483 99.5447 127.57 99.5447 127.677V148.967C99.5447 149.048 99.5948 149.12 99.6703 149.148C100.737 149.548 101.584 149.553 102.296 149.364C102.996 149.178 103.551 148.808 104.031 148.489L104.039 148.483C104.089 148.45 104.12 148.396 104.125 148.337L105.738 127.692C105.742 127.638 105.723 127.585 105.687 127.546ZM105.335 127.87L103.746 148.213C103.283 148.521 102.797 148.831 102.197 148.99C101.596 149.149 100.869 149.16 99.9318 148.832V127.87H105.335Z" fill="#333333"/>
<path d="M99.7383 148.968C101.803 150.259 103.394 149.076 103.932 148.323L104.008 147.098H99.7383V148.968Z" fill="#E1E5E7"/>
<path fill-rule="evenodd" clip-rule="evenodd" d="M104.149 146.964C104.112 146.925 104.061 146.903 104.008 146.903H99.7381C99.6312 146.903 99.5446 146.99 99.5446 147.097V148.967C99.5446 149.034 99.579 149.096 99.6355 149.132C100.715 149.806 101.687 149.841 102.466 149.596C103.235 149.352 103.8 148.84 104.089 148.435C104.11 148.405 104.123 148.37 104.125 148.334L104.201 147.109C104.204 147.056 104.185 147.003 104.149 146.964ZM103.802 147.29L103.742 148.254C103.484 148.595 102.998 149.021 102.349 149.226C101.702 149.431 100.879 149.42 99.9317 148.859V147.29H103.802Z" fill="#333333"/>
<path d="M99.7402 152.838V149.035C102.285 149.225 103.574 148.639 103.9 148.322C104.96 148.56 107.57 149.13 109.527 149.511C111.485 149.891 112.137 151.967 111.974 152.838H99.7402Z" fill="#333333"/>
<path fill-rule="evenodd" clip-rule="evenodd" d="M103.763 148.184C103.81 148.138 103.877 148.119 103.94 148.134C105 148.371 107.608 148.941 109.563 149.321C110.608 149.524 111.303 150.181 111.712 150.894C112.116 151.599 112.255 152.383 112.163 152.874C112.146 152.966 112.066 153.032 111.973 153.032H99.7385C99.6316 153.032 99.5449 152.945 99.5449 152.839V149.036C99.5449 148.982 99.5673 148.93 99.6068 148.894C99.6463 148.857 99.6992 148.839 99.7529 148.843C101.008 148.936 101.946 148.838 102.605 148.681C103.271 148.522 103.636 148.307 103.763 148.184ZM103.951 148.533C103.724 148.71 103.308 148.911 102.695 149.057C102.03 149.216 101.119 149.314 99.932 149.243V152.645H111.801C111.822 152.25 111.7 151.651 111.376 151.087C111.011 150.449 110.401 149.878 109.489 149.701C107.585 149.331 105.066 148.782 103.951 148.533Z" fill="#333333"/>
<path d="M105.161 106.388C106.451 113.484 109.032 122.904 108.387 130.001L98.7095 130.324L96.4514 118.065L95.4837 129.678L85.1611 129.356C84.5159 123.227 86.8337 113.484 87.4788 106.388H105.161Z" fill="#00A9CD"/>
<path fill-rule="evenodd" clip-rule="evenodd" d="M87.2862 106.37C87.2952 106.271 87.3788 106.194 87.4789 106.194H105.161C105.255 106.194 105.335 106.261 105.352 106.353C105.645 107.965 106.005 109.697 106.379 111.498C106.416 111.676 106.453 111.855 106.49 112.034C106.903 114.026 107.327 116.093 107.691 118.161C108.417 122.294 108.905 126.444 108.58 130.019C108.571 130.116 108.491 130.191 108.393 130.195L98.7161 130.517C98.6203 130.52 98.5366 130.453 98.5193 130.359L96.524 119.527L95.6767 129.695C95.6682 129.797 95.5808 129.875 95.4778 129.872L85.1552 129.549C85.0585 129.546 84.9789 129.472 84.9688 129.376C84.6433 126.285 85.0653 122.295 85.6446 118.208C85.8252 116.933 86.021 115.649 86.2149 114.379C86.6445 111.563 87.0643 108.811 87.2862 106.37ZM87.6554 106.581C87.4285 108.99 87.0157 111.697 86.5954 114.452C86.402 115.72 86.207 116.998 86.0278 118.262C85.4588 122.277 85.0492 126.153 85.3369 129.168L95.3062 129.479L96.2587 118.05C96.2667 117.953 96.3451 117.877 96.442 117.872C96.5389 117.868 96.6243 117.935 96.6419 118.031L98.8698 130.125L108.209 129.813C108.499 126.33 108.023 122.287 107.309 118.228C106.947 116.167 106.524 114.105 106.111 112.113C106.074 111.933 106.036 111.754 105.999 111.576C105.638 109.835 105.288 108.153 105 106.581H87.6554Z" fill="#009ED0"/>
<path d="M98.6681 111.384C101.689 111.902 103.981 111.293 104.75 110.924L105.223 117.131C103.785 117.79 100.103 117.849 98.6249 117.272L98.6681 111.384Z" fill="#66C5E3"/>
<path d="M95.4832 79.9996C96.5252 82.4216 99.4673 81.2476 100.339 80.7432L101.503 76.9957C102.057 75.5566 104.173 72.8302 104.156 69.8335C104.134 66.0875 97.9667 67.2412 96.3186 68.4918C94.8266 69.624 93.2663 71.9055 91.9612 72.9743L93.0109 73.1182C92.8576 73.3423 92.7804 73.8227 92.7453 74.2931C93.6889 74.6221 93.2817 75.2175 92.7231 75.2177C92.7147 75.9295 91.9916 77.0424 93.2225 77.425C94.1202 77.7041 95.4346 77.4335 96.2148 77.043L95.4832 79.9996Z" fill="#805928"/>
<path fill-rule="evenodd" clip-rule="evenodd" d="M98.1823 67.461C97.3612 67.6895 96.6402 68.0043 96.2004 68.3381C95.4359 68.9182 94.66 69.7873 93.9229 70.6298C93.868 70.6926 93.8134 70.7551 93.7589 70.8174C93.0744 71.6011 92.4273 72.3419 91.8373 72.825C91.7778 72.8738 91.7528 72.9532 91.7737 73.0273C91.7946 73.1014 91.8574 73.156 91.9337 73.1665L92.723 73.2747C92.6904 73.3691 92.6644 73.4712 92.643 73.5745C92.5979 73.7926 92.569 74.0393 92.5511 74.2791C92.5446 74.3666 92.5976 74.4474 92.6804 74.4763C92.8986 74.5524 93.0142 74.6359 93.0691 74.7013C93.1188 74.7604 93.1174 74.8006 93.11 74.8265C93.1002 74.8613 93.0667 74.9104 92.9944 74.9537C92.9237 74.9959 92.8281 75.0245 92.7218 75.0245C92.6158 75.0246 92.5296 75.1098 92.5283 75.2158C92.5265 75.3683 92.4858 75.5495 92.4349 75.7649C92.4328 75.7736 92.4308 75.7822 92.4287 75.791C92.3815 75.9906 92.3283 76.215 92.3137 76.4322C92.2983 76.6612 92.3236 76.9044 92.4584 77.1214C92.5947 77.3407 92.8252 77.505 93.1638 77.6103C93.651 77.7617 94.2364 77.7608 94.7905 77.6769C95.1925 77.6159 95.588 77.5097 95.9314 77.378L95.2784 80.0167L95.3042 80.0765C95.5812 80.7205 95.9908 81.1367 96.4696 81.3813C96.9449 81.624 97.4743 81.6906 97.9843 81.6625C98.9997 81.6064 99.983 81.1725 100.434 80.9111L100.5 80.8733L101.685 77.0598C101.818 76.7154 102.047 76.289 102.322 75.7842C102.348 75.7374 102.374 75.6901 102.4 75.6422C102.657 75.1738 102.944 74.6488 103.217 74.0832C103.817 72.8376 104.357 71.375 104.348 69.8328C104.342 68.8331 103.921 68.1419 103.259 67.7063C102.609 67.2786 101.742 67.1078 100.849 67.0958C99.9518 67.0838 99.0072 67.2315 98.1823 67.461ZM96.1783 76.8439C96.4308 76.7114 96.5869 76.5811 96.6469 76.4813C96.702 76.3897 96.8209 76.36 96.9125 76.4151C97.0042 76.4701 97.0338 76.589 96.9787 76.6807C96.8665 76.8675 96.6426 77.0347 96.3804 77.175L95.6857 79.9822C95.9281 80.5144 96.2664 80.8428 96.6457 81.0365C97.0424 81.2391 97.4984 81.3016 97.963 81.276C98.8514 81.2269 99.7303 80.858 100.175 80.6128L101.319 76.9326L101.322 76.9266C101.466 76.5525 101.708 76.1004 101.983 75.5985C102.008 75.5518 102.034 75.5045 102.06 75.4568C102.317 74.9876 102.6 74.4711 102.868 73.9151C103.459 72.6886 103.969 71.2895 103.961 69.835C103.956 68.9616 103.598 68.3924 103.046 68.0298C102.483 67.6593 101.701 67.4944 100.843 67.4829C99.9895 67.4714 99.0819 67.6125 98.2861 67.8339C97.4866 68.0564 96.8186 68.3548 96.4344 68.6464C95.7068 69.1985 94.9565 70.0363 94.2142 70.8847C94.1574 70.9497 94.1005 71.0148 94.0437 71.0798C93.4844 71.7204 92.9304 72.3548 92.4067 72.8406L93.3462 72.9694L93.1694 73.2279C93.1154 73.3069 93.0638 73.4515 93.0221 73.653C92.9899 73.8083 92.9661 73.9844 92.9491 74.1656C93.132 74.2448 93.2716 74.3406 93.3654 74.4522C93.4873 74.5973 93.5289 74.7677 93.4826 74.9317C93.4387 75.0869 93.3246 75.2072 93.193 75.2859C93.1072 75.3372 93.0084 75.3745 92.9028 75.3946C92.8839 75.5476 92.8466 75.7059 92.8116 75.854L92.8085 75.8671C92.7589 76.077 92.7124 76.2737 92.6999 76.4582C92.6874 76.6443 92.7116 76.7955 92.7872 76.9171C92.8612 77.0362 93.0018 77.1545 93.2787 77.2406C93.6892 77.3682 94.2099 77.3733 94.7325 77.2941C95.2341 77.2181 95.7202 77.067 96.0859 76.8905C96.1118 76.867 96.1438 76.8508 96.1783 76.8439Z" fill="#333333"/>
<path d="M95.7321 70.8174C95.7123 70.9624 95.8137 71.096 95.9586 71.1158C96.1035 71.1357 96.2371 71.0343 96.257 70.8894C96.2769 70.7444 96.1755 70.6108 96.0305 70.591C95.8856 70.5711 95.752 70.6725 95.7321 70.8174Z" fill="#333333"/>
<path d="M93.3487 66.6358C93.9583 68.4305 96.3333 69.2862 97.5185 69.0922C97.4971 69.9294 97.1605 71.7035 98.773 71.9245C99.9755 72.6241 99.2023 74.2345 99.65 74.999C100.072 74.5221 101.142 73.8667 101.821 74.7619C102.283 75.3706 101.367 76.1255 100.782 76.4909C101.121 76.7114 102.303 78.2681 102.813 77.5587C103.916 76.024 104.189 78.7809 106.792 76.4183C108.957 74.8762 107.249 73.0865 108.496 71.1167C106.578 70.8538 105.121 69.7676 106.522 68.8925C107.962 67.9924 107.717 67.506 106.277 65.9285C105.568 65.1525 105.309 64.0575 103.897 63.8044C102.527 63.5591 101.082 62.8834 100.676 63.8971C100.46 65.4718 98.6481 63.0845 97.264 63.4295C96.1889 65.421 93.0271 65.6889 93.3487 66.6358Z" fill="#333333"/>
<path fill-rule="evenodd" clip-rule="evenodd" d="M101.104 63.2686C100.846 63.3595 100.644 63.5413 100.526 63.8373C100.521 63.8496 100.517 63.8624 100.516 63.8754C100.491 64.0583 100.445 64.1583 100.401 64.2109C100.362 64.2563 100.315 64.2778 100.244 64.2788C100.165 64.2798 100.06 64.2548 99.9265 64.2008C99.7947 64.1476 99.6474 64.0718 99.4851 63.9831C99.42 63.9475 99.3525 63.9098 99.2831 63.8711C99.0128 63.7201 98.7131 63.5528 98.4117 63.4294C98.0325 63.274 97.6207 63.1745 97.2249 63.2731C97.1809 63.2841 97.1435 63.3131 97.122 63.353C96.6121 64.2976 95.6004 64.8434 94.7114 65.2798C94.6497 65.3101 94.5884 65.3399 94.5278 65.3695C94.1622 65.5475 93.822 65.7132 93.5805 65.8839C93.4387 65.984 93.3151 66.0964 93.2402 66.2285C93.161 66.3681 93.1401 66.5235 93.1959 66.6879C93.5188 67.6386 94.304 68.3283 95.1449 68.7539C95.9009 69.1364 96.7274 69.3184 97.3489 69.2741C97.3462 69.3225 97.343 69.3734 97.3396 69.4267L97.3391 69.4353C97.331 69.5642 97.3222 69.7053 97.3175 69.8518C97.3079 70.144 97.3139 70.4654 97.3748 70.7711C97.4358 71.0772 97.5537 71.3769 97.7753 71.6162C97.9933 71.8517 98.3003 72.0164 98.7181 72.0798C99.2197 72.386 99.3208 72.8779 99.3333 73.4412C99.3363 73.5773 99.3341 73.7143 99.3318 73.8524L99.3315 73.8723C99.3292 74.0158 99.3272 74.1608 99.332 74.3002C99.3414 74.5753 99.3776 74.8533 99.5107 75.0807C99.5369 75.1253 99.5828 75.1547 99.6343 75.1597C99.6857 75.1647 99.7365 75.1448 99.7707 75.106C99.9663 74.8849 100.314 74.6229 100.682 74.5216C100.864 74.4716 101.043 74.4625 101.211 74.5096C101.376 74.5563 101.542 74.661 101.693 74.8595C101.779 74.9736 101.799 75.0883 101.777 75.2082C101.754 75.3347 101.681 75.4736 101.567 75.6181C101.34 75.9072 100.983 76.1756 100.696 76.3544C100.65 76.3836 100.621 76.4346 100.621 76.4897C100.62 76.5448 100.648 76.5963 100.694 76.6263C100.723 76.645 100.769 76.6841 100.835 76.7465C100.892 76.8008 100.957 76.8661 101.031 76.9395C101.039 76.9479 101.048 76.9564 101.057 76.965C101.223 77.1304 101.423 77.3289 101.631 77.4986C101.835 77.6656 102.064 77.8194 102.287 77.8782C102.401 77.9084 102.522 77.9159 102.64 77.88C102.76 77.8435 102.862 77.7664 102.944 77.653C103.206 77.2884 103.386 77.223 103.53 77.2267C103.612 77.2289 103.701 77.2539 103.812 77.2969C103.862 77.3163 103.913 77.3382 103.969 77.3621L103.985 77.3692C104.047 77.3954 104.113 77.4234 104.183 77.4499C104.467 77.5578 104.814 77.6423 105.265 77.5345C105.709 77.4284 106.235 77.1407 106.894 76.5443C107.452 76.1449 107.771 75.7219 107.947 75.2757C108.122 74.8311 108.15 74.3763 108.15 73.928C108.15 73.8059 108.148 73.6843 108.146 73.563C108.132 72.7824 108.119 72.0132 108.632 71.2032C108.662 71.1568 108.665 71.0987 108.642 71.0489C108.619 70.9991 108.572 70.9646 108.518 70.9571C107.574 70.8278 106.77 70.498 106.376 70.1183C106.181 69.93 106.108 69.7517 106.129 69.5936C106.151 69.4331 106.276 69.2364 106.607 69.0294C106.971 68.8019 107.245 68.5911 107.42 68.3723C107.6 68.1465 107.677 67.9085 107.639 67.642C107.603 67.387 107.463 67.1243 107.256 66.8364C107.047 66.5466 106.756 66.2143 106.396 65.82C106.227 65.6355 106.084 65.4302 105.938 65.2146C105.922 65.1903 105.905 65.1658 105.889 65.1412C105.76 64.9506 105.627 64.7529 105.475 64.5683C105.127 64.1438 104.678 63.7807 103.925 63.6458C103.625 63.5921 103.321 63.5173 103.02 63.4431C102.983 63.4342 102.947 63.4253 102.911 63.4164C102.578 63.3346 102.247 63.2566 101.945 63.2188C101.644 63.1812 101.353 63.1808 101.104 63.2686ZM102.943 63.7564C103.243 63.8302 103.557 63.9077 103.868 63.9634C104.528 64.0816 104.914 64.3926 105.226 64.7728C105.367 64.9449 105.492 65.1295 105.621 65.3215C105.638 65.346 105.654 65.3707 105.671 65.3954C105.817 65.6113 105.972 65.834 106.157 66.0374C106.518 66.4319 106.797 66.752 106.994 67.0251C107.193 67.3003 107.295 67.5111 107.32 67.6874C107.343 67.8522 107.302 68.0031 107.168 68.171C107.028 68.3458 106.792 68.5333 106.436 68.7559C106.067 68.9864 105.849 69.2537 105.809 69.5512C105.77 69.8511 105.918 70.1249 106.152 70.3505C106.579 70.7618 107.358 71.0861 108.237 71.2398C107.794 72.0629 107.809 72.859 107.823 73.5782C107.825 73.697 107.827 73.8138 107.827 73.9282C107.827 74.3663 107.799 74.7711 107.647 75.1574C107.496 75.54 107.218 75.9172 106.699 76.2872C106.694 76.2908 106.689 76.2948 106.684 76.2991C106.044 76.8797 105.563 77.1316 105.19 77.2207C104.823 77.3084 104.545 77.2426 104.297 77.1484C104.234 77.1244 104.173 77.0987 104.112 77.0725C104.106 77.0701 104.101 77.0676 104.095 77.0652C104.04 77.0417 103.984 77.0178 103.929 76.9963C103.808 76.9492 103.677 76.9079 103.538 76.9043C103.239 76.8965 102.971 77.062 102.682 77.4647C102.636 77.5287 102.589 77.5582 102.546 77.5714C102.5 77.5853 102.443 77.5858 102.369 77.5664C102.216 77.526 102.032 77.4098 101.835 77.2488C101.641 77.0905 101.451 76.9028 101.284 76.7365C101.276 76.7279 101.267 76.7193 101.258 76.7107C101.186 76.6381 101.117 76.5696 101.056 76.5123C101.055 76.5106 101.053 76.509 101.051 76.5073C101.314 76.326 101.61 76.0848 101.821 75.8176C101.951 75.6515 102.058 75.4647 102.094 75.2671C102.132 75.0628 102.094 74.8549 101.95 74.6646C101.761 74.4155 101.538 74.2665 101.298 74.1991C101.061 74.1323 100.82 74.1491 100.596 74.2106C100.254 74.3049 99.9377 74.5084 99.7074 74.7142C99.6753 74.593 99.6599 74.4512 99.6543 74.2891C99.6499 74.1591 99.6517 74.0219 99.6541 73.8775L99.6544 73.8557C99.6566 73.7192 99.6589 73.5765 99.6558 73.434C99.6425 72.8358 99.5323 72.1799 98.8541 71.7853C98.8359 71.7747 98.8158 71.7678 98.7949 71.7649C98.4233 71.714 98.178 71.5764 98.012 71.3971C97.8438 71.2154 97.7449 70.9778 97.6912 70.7081C97.6373 70.438 97.6307 70.1451 97.6399 69.8623C97.6445 69.7213 97.6529 69.5847 97.661 69.4555L97.6618 69.4433C97.6696 69.3197 97.677 69.2013 97.6797 69.0965C97.6809 69.0484 97.6606 69.0024 97.6244 68.9708C97.5882 68.9392 97.5398 68.9254 97.4924 68.9332C96.9433 69.0231 96.0883 68.8698 95.2905 68.466C94.4952 68.0635 93.788 67.4281 93.5014 66.5841C93.4768 66.5118 93.4844 66.4517 93.5207 66.3876C93.5614 66.316 93.6404 66.2365 93.7666 66.1473C93.9848 65.9931 94.2967 65.8411 94.6655 65.6612C94.7267 65.6314 94.7894 65.6008 94.8536 65.5694C95.7152 65.1464 96.7939 64.5779 97.3692 63.5721C97.6486 63.523 97.9592 63.5926 98.2894 63.7279C98.5709 63.8432 98.8482 63.9979 99.1168 64.1478C99.1887 64.1878 99.2599 64.2276 99.3304 64.2661C99.4946 64.3559 99.6555 64.4393 99.8057 64.4999C99.9541 64.5598 100.106 64.6032 100.248 64.6013C100.399 64.5993 100.539 64.5462 100.647 64.4194C100.745 64.3038 100.802 64.1413 100.832 63.9401C100.917 63.7403 101.046 63.6309 101.211 63.5728C101.39 63.5098 101.622 63.5036 101.905 63.5389C102.186 63.574 102.499 63.6475 102.834 63.7297C102.87 63.7385 102.906 63.7474 102.943 63.7564Z" fill="#333333"/>
<path d="M100.338 80.639C108.449 82.8723 109.547 91.0609 110.321 93.7196L105.24 94.3576L105.023 92.7993C105.783 98.5118 106.265 104.245 106.265 109.033H96.5951C92.7577 109.033 86.6128 108.395 86.6128 108.395C86.7653 104.183 87.2285 95.8183 88.0799 90.9026L87.2367 93.7196L81.9336 91.7412C85.9889 84.7224 85.0531 81.9152 95.3473 80.001C96.907 80.9581 97.8428 81.5962 100.338 80.639Z" fill="#C6CED1"/>
<path fill-rule="evenodd" clip-rule="evenodd" d="M95.3121 79.8109C95.3592 79.8021 95.4079 79.8111 95.4487 79.8362C95.4832 79.8573 95.5172 79.8783 95.551 79.899C96.2898 80.3529 96.8618 80.7043 97.5328 80.8488C98.2246 80.9978 99.0426 80.929 100.269 80.4585C100.308 80.4437 100.35 80.4417 100.39 80.4526C107.731 82.4739 109.419 89.3106 110.237 92.6237C110.337 93.0288 110.424 93.3812 110.507 93.6657C110.523 93.7201 110.514 93.7787 110.483 93.826C110.452 93.8734 110.401 93.9047 110.345 93.9118L105.439 94.5279C106.07 99.6561 106.459 104.724 106.459 109.033C106.459 109.14 106.372 109.227 106.266 109.227H96.5953C94.6685 109.227 92.1665 109.067 90.1498 108.907C89.1407 108.827 88.2517 108.748 87.6149 108.688C87.2966 108.658 87.0412 108.633 86.8654 108.615C86.7774 108.607 86.7094 108.6 86.6633 108.595L86.5942 108.588L86.5933 108.588C86.5932 108.588 86.593 108.588 86.613 108.395L86.5933 108.588C86.492 108.577 86.4159 108.49 86.4196 108.388C86.5474 104.857 86.8939 98.3969 87.5059 93.4959L87.4223 93.7752C87.4069 93.8266 87.371 93.8692 87.323 93.893C87.2751 93.9169 87.2194 93.9198 87.1692 93.9011L81.8661 91.9227C81.8128 91.9028 81.7709 91.8604 81.7516 91.8068C81.7324 91.7532 81.7377 91.6938 81.7662 91.6445C82.571 90.2516 83.1776 89.0269 83.7175 87.9368C83.8553 87.6587 83.9887 87.3893 84.1199 87.1282C84.7638 85.8472 85.3576 84.7597 86.1541 83.831C87.7577 81.9614 90.1519 80.7704 95.3121 79.8109ZM88.2688 90.9472L89.3515 87.3304C89.378 87.2419 89.3383 87.1471 89.2567 87.1038C89.1752 87.0606 89.0744 87.081 89.0161 87.1526C88.7816 87.4403 88.579 87.9338 88.3974 88.556C88.2145 89.1829 88.0462 89.9662 87.8914 90.8584L87.1108 93.4661L82.2153 91.6398C82.9709 90.3166 83.5519 89.1435 84.0666 88.1042C84.2037 87.8274 84.3361 87.5601 84.4658 87.302C85.1088 86.0228 85.6848 84.9728 86.4479 84.0831C87.9566 82.3242 90.2271 81.1573 95.3097 80.2051C95.3299 80.2176 95.3501 80.23 95.3702 80.2423C96.088 80.6838 96.7135 81.0684 97.4514 81.2272C98.2288 81.3946 99.1107 81.3094 100.348 80.8427C107.399 82.8191 109.029 89.3739 109.855 92.6985C109.934 93.0159 110.006 93.3039 110.074 93.5557L105.406 94.1419L105.215 92.7739C105.215 92.7736 105.215 92.7734 105.215 92.7731C105.114 92.0148 105.008 91.2568 104.897 90.5014C104.882 90.3958 104.784 90.3227 104.678 90.3377C104.573 90.3528 104.499 90.4505 104.514 90.5561L104.514 90.5573L104.831 92.825C104.831 92.8253 104.831 92.8255 104.831 92.8258C105.581 98.4561 106.059 104.102 106.072 108.84H96.5953C94.6846 108.84 92.1954 108.681 90.1804 108.521C89.1736 108.442 88.2865 108.362 87.6512 108.302C87.3335 108.272 87.0789 108.248 86.9037 108.23C86.8706 108.227 86.8404 108.224 86.8131 108.221C86.972 103.958 87.4332 95.7806 88.2688 90.9472Z" fill="#C6CED1"/>
<path opacity="0.6" d="M3.54883 0.000976562L76.4521 55.1623L83.2262 48.7107L136.775 0.000976562H3.54883Z" fill="url(#paint0_linear_19798_33514)"/>
<path d="M79.1705 29.2665C78.5629 29.2665 77.9916 29.03 77.5621 28.6006L75.2396 26.2782C75.0766 26.1147 74.7924 26.1152 74.6294 26.2782L72.2985 28.6091C71.8689 29.0384 71.2976 29.2749 70.6901 29.2749H70.2324L73.1738 32.2163C74.0924 33.1349 75.5818 33.1349 76.5004 32.2163L79.4503 29.2665H79.1705Z" fill="#69757B"/>
<path d="M81.8906 23.5L80.108 21.7174C80.0688 21.7331 80.0263 21.743 79.9814 21.743H79.171C78.752 21.743 78.3418 21.9129 78.0458 22.2091L75.7233 24.5316C75.5061 24.7489 75.2205 24.8577 74.9352 24.8577C74.6496 24.8577 74.3643 24.7489 74.147 24.5318L71.8159 22.2007C71.5198 21.9044 71.1097 21.7345 70.6906 21.7345H69.6941C69.6516 21.7345 69.6118 21.7245 69.5743 21.7103L67.7847 23.5C66.866 24.4185 66.866 25.9079 67.7847 26.8266L69.5743 28.6162C69.6118 28.6021 69.6516 28.592 69.6941 28.592H70.6906C71.1097 28.592 71.5198 28.4221 71.8159 28.1259L74.1468 25.795C74.5681 25.374 75.3025 25.3738 75.7233 25.7952L78.0458 28.1173C78.3418 28.4137 78.752 28.5836 79.171 28.5836H79.9814C80.0264 28.5836 80.0688 28.5933 80.1081 28.6091L81.8906 26.8266C82.8092 25.9079 82.8092 24.4185 81.8906 23.5Z" fill="#69757B"/>
<path d="M70.69 21.0514C71.2975 21.0514 71.8688 21.288 72.2984 21.7174L74.6293 24.0487C74.7971 24.2165 75.0713 24.2173 75.2396 24.0484L77.5619 21.7258C77.9915 21.2965 78.5629 21.0599 79.1704 21.0599H79.4501L76.5003 18.1101C75.5817 17.1915 74.0923 17.1915 73.1737 18.1101L70.2324 21.0514H70.69Z" fill="#69757B"/>
<path d="M78.5279 29.2665C77.9204 29.2665 77.349 29.03 76.9195 28.6006L74.5971 26.2782C74.4341 26.1147 74.1498 26.1152 73.9868 26.2782L71.6559 28.6091C71.2263 29.0384 70.655 29.2749 70.0475 29.2749H69.5898L72.5312 32.2163C73.4498 33.1349 74.9392 33.1349 75.8578 32.2163L78.8077 29.2665H78.5279Z" fill="#32BCAD"/>
<path d="M81.248 23.5L79.4654 21.7174C79.4262 21.7331 79.3837 21.743 79.3389 21.743H78.5284C78.1094 21.743 77.6992 21.9129 77.4032 22.2091L75.0807 24.5316C74.8635 24.7489 74.5779 24.8577 74.2926 24.8577C74.0071 24.8577 73.7217 24.7489 73.5044 24.5318L71.1733 22.2007C70.8772 21.9044 70.4671 21.7345 70.048 21.7345H69.0515C69.009 21.7345 68.9693 21.7245 68.9318 21.7103L67.1421 23.5C66.2235 24.4185 66.2235 25.9079 67.1421 26.8266L68.9317 28.6162C68.9692 28.6021 69.009 28.592 69.0515 28.592H70.048C70.4671 28.592 70.8772 28.4221 71.1733 28.1259L73.5042 25.795C73.9255 25.374 74.6599 25.3738 75.0807 25.7952L77.4032 28.1173C77.6992 28.4137 78.1094 28.5836 78.5284 28.5836H79.3389C79.3838 28.5836 79.4262 28.5933 79.4655 28.6091L81.248 26.8266C82.1667 25.9079 82.1667 24.4185 81.248 23.5Z" fill="#32BCAD"/>
<path d="M70.0474 21.0514C70.6549 21.0514 71.2263 21.288 71.6558 21.7174L73.9867 24.0487C74.1546 24.2165 74.4287 24.2173 74.597 24.0484L76.9194 21.7258C77.349 21.2965 77.9203 21.0599 78.5278 21.0599H78.8075L75.8578 18.1101C74.9391 17.1915 73.4497 17.1915 72.5311 18.1101L69.5898 21.0514H70.0474Z" fill="#32BCAD"/>
<path fill-rule="evenodd" clip-rule="evenodd" d="M100.692 12.7248C100.644 12.8182 100.537 12.8801 100.39 12.8981L99.2925 13.0327L99.4486 14.3301C99.4583 14.4095 99.4026 14.4817 99.3244 14.4912L99.1294 14.5152C99.0514 14.5247 98.9797 14.4681 98.97 14.3888L98.8126 13.0915L98.2994 13.1545C98.3594 12.9572 98.3304 12.7346 98.215 12.5182L97.6538 11.4875L98.4358 8.76382C98.464 8.66162 98.4889 8.57832 98.5101 8.51428C98.5643 8.59713 98.6218 8.69585 98.6469 8.73849L100.657 12.3756C100.727 12.507 100.739 12.6311 100.692 12.7248ZM97.8833 13.0612C97.8455 13.1433 97.7605 13.202 97.6448 13.2293C97.5251 13.2305 97.4279 13.1939 97.3714 13.1232C97.3077 13.0437 97.2921 12.9236 97.327 12.7841L97.5004 12.0898L97.8441 12.7215C97.9117 12.8485 97.9257 12.9691 97.8833 13.0612ZM96.9907 13.3155L96.4767 13.3785L96.6374 14.6754C96.6472 14.7547 96.5912 14.827 96.5133 14.8365L96.3183 14.8604C96.24 14.87 96.1686 14.8134 96.1589 14.7341L96.0926 14.2162L95.9971 13.4374L94.899 13.572C94.7526 13.59 94.6341 13.5557 94.5649 13.4766C94.4959 13.3973 94.478 13.2738 94.5135 13.1325L95.5847 9.11961C95.5993 9.06901 95.6319 8.95785 95.6643 8.86381C95.7004 8.92111 95.7451 8.99615 95.7973 9.08849L97.2012 11.5442L96.9181 12.6778C96.8584 12.9157 96.8846 13.1383 96.9907 13.3155ZM101.027 12.1705L99.0126 8.5263C98.8168 8.19066 98.6719 7.95033 98.4412 7.97834C98.2066 8.00879 98.1284 8.29022 98.03 8.64511L97.3619 10.9725L96.1629 8.87575C95.9808 8.55357 95.8367 8.29939 95.602 8.32649C95.3718 8.3564 95.2886 8.6233 95.1783 9.00125L94.105 13.0223C94.0346 13.3036 94.0869 13.5716 94.2486 13.7577C94.4101 13.9438 94.666 14.0305 94.9509 13.9956L95.6302 13.9123L95.7402 14.7847C95.7786 15.0979 96.0613 15.3221 96.3702 15.2843L96.5652 15.2604C96.8741 15.2225 97.0943 14.9365 97.0559 14.6234L97.0035 14.1961C97.0017 14.1815 96.9994 14.1655 96.9965 14.1507L96.9475 13.7507L97.6311 13.6669C97.654 13.6641 97.6754 13.6601 97.697 13.6557C97.7184 13.6548 97.7393 13.6536 97.7622 13.6508L98.4459 13.567L98.4949 13.9669C98.4956 13.982 98.4973 13.9981 98.4991 14.0127L98.5515 14.44C98.5899 14.7531 98.8726 14.9774 99.1816 14.9395L99.3765 14.9156C99.6855 14.8777 99.9056 14.5918 99.8672 14.2787L99.7632 13.4055L100.442 13.3222C100.727 13.2872 100.955 13.1412 101.067 12.9216C101.179 12.7019 101.164 12.4293 101.027 12.1705Z" fill="#69757B"/>
<path fill-rule="evenodd" clip-rule="evenodd" d="M78.5171 40.5161C78.5421 40.6564 78.4486 40.7904 78.3083 40.8154L77.5892 40.9433L77.8038 42.149C77.8158 42.2164 77.8006 42.2857 77.7614 42.3419C77.7222 42.398 77.6624 42.4363 77.595 42.4483L75.892 42.7514C75.7517 42.7764 75.6177 42.6829 75.5927 42.5426L75.3781 41.3369L73.8729 41.6049C73.8856 41.8042 73.8708 42.0047 73.8287 42.2008C73.7683 42.4819 73.653 42.7483 73.4892 42.9847C73.3255 43.221 73.1166 43.4226 72.8746 43.5779C72.6326 43.7332 72.3623 43.8391 72.0792 43.8895C71.7962 43.9399 71.5059 43.9338 71.2252 43.8715C70.9445 43.8093 70.6789 43.6921 70.4436 43.5268C70.2084 43.3615 70.0082 43.1513 69.8545 42.9082C69.7009 42.6652 69.5968 42.3942 69.5483 42.1108L69.5478 42.1081C69.4574 41.5436 69.5924 40.9663 69.9236 40.5003C70.2547 40.0344 70.7557 39.7172 71.3185 39.617C71.8813 39.5168 72.4609 39.6417 72.9325 39.9647C73.3338 40.2396 73.6295 40.6392 73.7766 41.0978L78.2178 40.3072C78.3582 40.2822 78.4922 40.3757 78.5171 40.5161ZM77.0811 41.0338L75.8863 41.2465L76.0556 42.198L77.2505 41.9854L77.0811 41.0338ZM73.3361 41.4552C73.3351 41.4513 73.3342 41.4473 73.3334 41.4433C73.2495 41.0152 73.0008 40.6371 72.6408 40.3905C72.2809 40.144 71.8385 40.0487 71.4089 40.1251C70.9794 40.2016 70.597 40.4437 70.3442 40.7994C70.0917 41.1546 69.9887 41.5947 70.0573 42.0251C70.0944 42.2409 70.1737 42.4473 70.2908 42.6324C70.408 42.8179 70.5609 42.9783 70.7404 43.1045C70.92 43.2307 71.1227 43.3201 71.3369 43.3676C71.5512 43.4152 71.7727 43.4198 71.9888 43.3814C72.2048 43.3429 72.4112 43.2621 72.5959 43.1435C72.7806 43.025 72.94 42.8711 73.065 42.6907C73.1899 42.5104 73.278 42.307 73.3241 42.0925C73.3691 41.8828 73.3731 41.6664 73.3361 41.4552Z" fill="#69757B"/>
<path fill-rule="evenodd" clip-rule="evenodd" d="M92.1975 24.448C90.455 24.0496 88.7194 25.1392 88.321 26.8817C87.9226 28.6243 89.0122 30.3598 90.7547 30.7583C92.4972 31.1567 94.2328 30.0671 94.6313 28.3245C95.0297 26.582 93.9401 24.8464 92.1975 24.448ZM87.8178 26.7667C88.2798 24.7463 90.2922 23.4829 92.3126 23.9449C94.333 24.4068 95.5964 26.4192 95.1344 28.4396C94.6724 30.46 92.6601 31.7234 90.6397 31.2614C88.6193 30.7995 87.3559 28.7871 87.8178 26.7667Z" fill="#69757B"/>
<path d="M91.3883 29.1542C91.5917 29.2007 91.806 29.1611 91.9841 29.0442C92.1622 28.9273 92.2895 28.7426 92.3379 28.5307C92.3863 28.3189 92.352 28.0972 92.2424 27.9145C92.1328 27.7318 91.957 27.6031 91.7536 27.5566L91.2434 27.4399C91.2065 27.436 91.1709 27.424 91.1391 27.4047C91.1072 27.3854 91.0797 27.3593 91.0584 27.3281C91.0372 27.2968 91.0226 27.2611 91.0157 27.2233C91.0087 27.1856 91.0096 27.1465 91.0182 27.1089C91.0268 27.0712 91.043 27.0357 91.0657 27.0047C91.0883 26.9736 91.117 26.9478 91.1497 26.9289C91.1824 26.91 91.2185 26.8984 91.2556 26.8949C91.2927 26.8914 91.33 26.8961 91.3649 26.9086L92.642 27.2006L92.7643 26.6657L91.9974 26.4904L92.1189 25.959L91.6087 25.8423L91.4872 26.3737C91.2891 26.3425 91.0856 26.3908 90.9179 26.5089C90.7503 26.627 90.6311 26.8061 90.5846 27.0097C90.538 27.2134 90.5675 27.4264 90.6672 27.6056C90.7668 27.7848 90.9291 27.9168 91.1211 27.9748L91.6313 28.0914C91.6682 28.0954 91.7038 28.1074 91.7357 28.1266C91.7676 28.1459 91.7951 28.172 91.8163 28.2033C91.8376 28.2346 91.8522 28.2703 91.8591 28.308C91.866 28.3458 91.8652 28.3848 91.8565 28.4225C91.8479 28.4602 91.8318 28.4957 91.8091 28.5267C91.7864 28.5577 91.7578 28.5835 91.7251 28.6024C91.6923 28.6213 91.6562 28.6329 91.6191 28.6364C91.582 28.64 91.5448 28.6353 91.5098 28.6228L90.2327 28.3308L90.1112 28.8622L90.8782 29.0375L90.7519 29.5897L91.2621 29.7064L91.3883 29.1542Z" fill="#69757B"/>
<path fill-rule="evenodd" clip-rule="evenodd" d="M58.5035 26.0358C58.6399 25.9547 58.8255 25.9933 58.9182 26.1222L60.3419 28.1014C60.4345 28.2302 60.3991 28.4004 60.2627 28.4816L58.1674 29.7281C58.031 29.8092 57.8453 29.7705 57.7527 29.6417C57.66 29.5129 57.6954 29.3427 57.8318 29.2616L59.331 28.3697L53.783 27.2145C53.621 27.1808 53.5148 27.0331 53.5457 26.8846C53.5766 26.7362 53.733 26.6431 53.8949 26.6769L59.4429 27.8321L58.4243 26.416C58.3317 26.2872 58.3671 26.1169 58.5035 26.0358Z" fill="#69757B"/>
<path fill-rule="evenodd" clip-rule="evenodd" d="M55.1278 28.9019C55.0351 28.7731 54.8494 28.7344 54.7131 28.8156L52.6177 30.0621C52.4814 30.1432 52.4459 30.3134 52.5386 30.4422L53.9622 32.4215C54.0549 32.5503 54.2406 32.589 54.377 32.5078C54.5133 32.4267 54.5488 32.2565 54.4561 32.1277L53.4375 30.7116L58.9855 31.8668C59.1475 31.9005 59.3038 31.8075 59.3348 31.659C59.3657 31.5106 59.2594 31.3629 59.0975 31.3292L53.5495 30.1739L55.0486 29.2821C55.185 29.2009 55.2204 29.0307 55.1278 28.9019Z" fill="#69757B"/>
<path fill-rule="evenodd" clip-rule="evenodd" d="M75.4787 5.2639C75.5616 5.34297 75.5824 5.46722 75.5299 5.56902L74.3717 7.81286L77.0495 8.79684C77.1434 8.83138 77.209 8.91717 77.2176 9.01693C77.2261 9.1167 77.1763 9.21243 77.0895 9.26252L72.363 11.9934C72.2638 12.0507 72.1387 12.0358 72.0558 11.9567C71.9729 11.8776 71.952 11.7534 72.0045 11.6516L73.1628 9.40773L70.485 8.42375C70.391 8.38922 70.3255 8.30343 70.3169 8.20366C70.3083 8.1039 70.3582 8.00817 70.4449 7.95807L75.1715 5.22721C75.2707 5.16989 75.3958 5.18484 75.4787 5.2639ZM71.1802 8.12934L73.6152 9.0241C73.6846 9.04963 73.7398 9.10377 73.7667 9.17275C73.7935 9.24174 73.7894 9.31892 73.7555 9.3847L72.8669 11.1061L76.3543 9.09126L73.9193 8.19649C73.8498 8.17096 73.7946 8.11682 73.7678 8.04784C73.7409 7.97886 73.745 7.90167 73.779 7.8359L74.6675 6.11445L71.1802 8.12934Z" fill="#69757B"/>
<path fill-rule="evenodd" clip-rule="evenodd" d="M47.103 9.15728C47.2565 8.68263 47.7656 8.42225 48.2403 8.57571L49.289 8.91476C49.4246 8.95861 49.499 9.10409 49.4552 9.2397C49.4113 9.37531 49.2658 9.44971 49.1302 9.40586L48.0815 9.06681C47.8781 9.00104 47.6599 9.11263 47.5941 9.31605L47.255 10.3648C47.2112 10.5004 47.0657 10.5748 46.9301 10.5309C46.7945 10.4871 46.7201 10.3416 46.7639 10.206L47.103 9.15728ZM52.2892 10.156C52.3331 10.0204 52.4785 9.94596 52.6141 9.98981L53.6628 10.3289C54.1375 10.4823 54.3979 10.9915 54.2444 11.4661L53.9054 12.5148C53.8615 12.6505 53.716 12.7249 53.5804 12.681C53.4448 12.6372 53.3704 12.4917 53.4143 12.3561L53.7533 11.3074C53.8191 11.1039 53.7075 10.8857 53.5041 10.82L52.4554 10.4809C52.3198 10.4371 52.2454 10.2916 52.2892 10.156ZM46.0138 13.365C46.1495 13.4088 46.2238 13.5543 46.18 13.6899L45.8409 14.7386C45.7752 14.942 45.8868 15.1603 46.0902 15.226L47.1389 15.5651C47.2745 15.6089 47.3489 15.7544 47.3051 15.89C47.2612 16.0256 47.1157 16.1 46.9801 16.0562L45.9314 15.7171C45.4568 15.5637 45.1964 15.0545 45.3498 14.5798L45.6889 13.5311C45.7327 13.3955 45.8782 13.3211 46.0138 13.365ZM52.6642 15.5151C52.7998 15.5589 52.8742 15.7044 52.8303 15.84L52.4913 16.8887C52.3378 17.3634 51.8286 17.6237 51.354 17.4703L50.3053 17.1312C50.1697 17.0874 50.0953 16.9419 50.1391 16.8063C50.183 16.6707 50.3284 16.5963 50.4641 16.6401L51.5128 16.9792C51.7162 17.0449 51.9344 16.9334 52.0002 16.7299L52.3392 15.6812C52.3831 15.5456 52.5285 15.4712 52.6642 15.5151Z" fill="#69757B"/>
<path fill-rule="evenodd" clip-rule="evenodd" d="M49.6569 10.9495L48.6778 10.6329C48.6099 10.611 48.5372 10.6482 48.5153 10.716L48.1987 11.6952C48.1768 11.763 48.214 11.8357 48.2818 11.8576L49.261 12.1742C49.3288 12.1961 49.4015 12.1589 49.4234 12.0911L49.74 11.112C49.7619 11.0442 49.7247 10.9714 49.6569 10.9495ZM48.8365 10.1418C48.4975 10.0322 48.1338 10.2182 48.0242 10.5572L47.7076 11.5364C47.598 11.8754 47.784 12.2391 48.123 12.3487L49.1022 12.6653C49.4412 12.7749 49.8049 12.5889 49.9145 12.2499L50.2311 11.2707C50.3407 10.9317 50.1547 10.568 49.8157 10.4584L48.8365 10.1418Z" fill="#69757B"/>
<path fill-rule="evenodd" clip-rule="evenodd" d="M52.1061 11.7415L51.127 11.4249C51.0592 11.403 50.9864 11.4402 50.9645 11.508L50.6479 12.4872C50.626 12.555 50.6632 12.6277 50.731 12.6496L51.7102 12.9662C51.778 12.9881 51.8507 12.9509 51.8726 12.8831L52.1892 11.904C52.2111 11.8362 52.1739 11.7634 52.1061 11.7415ZM51.2858 10.9338C50.9467 10.8242 50.583 11.0102 50.4734 11.3492L50.1568 12.3284C50.0472 12.6674 50.2332 13.0311 50.5722 13.1407L51.5514 13.4573C51.8904 13.5669 52.2541 13.3809 52.3637 13.0419L52.6803 12.0627C52.7899 11.7237 52.6039 11.36 52.2649 11.2504L51.2858 10.9338Z" fill="#69757B"/>
<path fill-rule="evenodd" clip-rule="evenodd" d="M51.3132 14.1897L50.334 13.8732C50.2662 13.8512 50.1935 13.8884 50.1715 13.9562L49.855 14.9354C49.833 15.0032 49.8702 15.076 49.938 15.0979L50.9172 15.4144C50.985 15.4364 51.0578 15.3992 51.0797 15.3314L51.3963 14.3522C51.4182 14.2844 51.381 14.2117 51.3132 14.1897ZM50.4928 13.3821C50.1537 13.2725 49.79 13.4584 49.6804 13.7975L49.3639 14.7766C49.2543 15.1157 49.4402 15.4794 49.7793 15.589L50.7584 15.9055C51.0975 16.0152 51.4612 15.8292 51.5708 15.4901L51.8874 14.511C51.997 14.1719 51.811 13.8082 51.4719 13.6986L50.4928 13.3821Z" fill="#69757B"/>
<defs>
<linearGradient id="paint0_linear_19798_33514" x1="77.0972" y1="54.1945" x2="78.065" y2="-2.90225" gradientUnits="userSpaceOnUse">
<stop offset="0.0304733" stop-color="#E7EEF1"/>
<stop offset="0.592978" stop-color="#E9EFF2"/>
<stop offset="1" stop-color="white"/>
</linearGradient>
</defs>
</svg>
