<svg width="160" height="161" viewBox="0 0 160 161" fill="none" xmlns="http://www.w3.org/2000/svg">
<path d="M159.791 136.726C159.791 150.133 124.221 161.002 80.3428 161.002C36.4647 161.002 0.894531 150.133 0.894531 136.726C0.894531 123.319 36.4647 112.45 80.3428 112.45C124.221 112.45 159.791 123.319 159.791 136.726Z" fill="#C8CCD0"/>
<path d="M96.3429 23.3332L61.5843 1.816C58.4947 -0.0966468 52.7567 1.81605 51.1016 2.91939L99.1016 152.437C104.067 151.333 105.722 149.126 105.722 146.919C105.906 114.184 106.164 46.5056 105.722 37.6781C105.281 28.8505 99.6533 25.5402 96.3429 23.3332Z" fill="#69757B"/>
<path fill-rule="evenodd" clip-rule="evenodd" d="M51.7598 3.16728L99.4703 151.783C101.619 151.249 103.024 150.503 103.897 149.689C104.82 148.827 105.17 147.869 105.17 146.919L105.17 146.916C105.354 114.166 105.611 46.513 105.17 37.7056C104.956 33.4185 103.488 30.4987 101.687 28.3802C100.036 26.4377 98.099 25.157 96.5023 24.1014C96.346 23.998 96.193 23.8969 96.0438 23.7974L61.2931 2.28507C59.9295 1.44094 57.8977 1.40857 55.905 1.77909C54.1915 2.09769 52.6325 2.69024 51.7598 3.16728ZM55.7033 0.694233C57.7658 0.310723 60.1478 0.278331 61.8739 1.34685L96.6325 22.8641L96.6481 22.8741C96.7986 22.9744 96.9546 23.0775 97.1156 23.1838C98.7054 24.2337 100.77 25.5972 102.528 27.6655C104.479 29.9608 106.045 33.11 106.272 37.6505C106.715 46.4981 106.457 114.199 106.273 146.921" fill="#69757B"/>
<path d="M95.9573 151.851L52.5119 124.575C49.4279 122.381 49.2881 120.744 49.2535 118.574C48.7104 84.5706 47.8415 14.8174 48.7104 7.83483C49.5793 0.85223 54.5031 2.016 56.8564 3.47071C68.4419 10.1987 92.4816 24.4185 95.9573 27.4734C99.4329 30.5283 101.877 34.0071 101.931 38.9292C102.293 71.6602 101.931 138.701 101.931 145.305C101.931 151.851 100.476 153.475 95.9573 151.851Z" fill="#C6CED1"/>
<path fill-rule="evenodd" clip-rule="evenodd" d="M57.1409 2.9975C55.9069 2.23645 53.9339 1.50314 52.0965 1.95304C51.1564 2.18324 50.2733 2.71973 49.5742 3.67744C48.882 4.62567 48.3887 5.96039 48.1639 7.76686C47.9414 9.5543 47.8337 15.2668 47.8016 23.2998C47.7693 31.3557 47.8134 41.7946 47.9017 53.0761C48.0782 75.6397 48.4312 101.581 48.7028 118.583C48.7201 119.667 48.7608 120.722 49.2361 121.79C49.7147 122.866 50.6033 123.894 52.1929 125.025L52.206 125.034L95.7154 152.35L95.7716 152.37C98.04 153.186 99.8647 153.314 101.048 152.013C101.609 151.396 101.959 150.518 102.175 149.425C102.392 148.326 102.484 146.957 102.484 145.305C102.484 144.088 102.496 140.815 102.514 136.08C102.593 115.142 102.779 65.6202 102.484 38.9233C102.427 33.7842 99.8609 30.1693 96.3224 27.0592C95.4152 26.2617 93.2209 24.7761 90.3087 22.9156C87.3797 21.0443 83.6825 18.7675 79.7347 16.3777C71.8413 11.5994 62.9357 6.36276 57.1409 2.9975ZM50.4654 4.32805C49.9165 5.08 49.4685 6.2183 49.2589 7.90312C49.0468 9.60699 48.9373 15.2321 48.905 23.3043C48.8728 31.3536 48.9169 41.7875 49.0051 53.0675C49.1816 75.6271 49.5346 101.565 49.8061 118.566C49.8234 119.652 49.87 120.5 50.2442 121.341C50.6141 122.173 51.3343 123.057 52.8199 124.117L96.2006 151.352C98.4146 152.139 99.5631 152.006 100.231 151.271C100.599 150.866 100.895 150.213 101.093 149.211C101.29 148.214 101.38 146.926 101.38 145.305C101.38 144.084 101.393 140.804 101.41 136.061C101.489 115.112 101.675 65.6205 101.38 38.9355C101.328 34.2304 99.0067 30.8876 95.594 27.888C94.7634 27.158 92.6494 25.7205 89.7146 23.8454C86.7965 21.9811 83.108 19.7096 79.1632 17.3216C71.2744 12.5461 62.3711 7.31088 56.5803 3.94797L56.5672 3.94034C55.4474 3.24813 53.7858 2.67545 52.3589 3.02483C51.6653 3.19467 51.0074 3.58557 50.4654 4.32805Z" fill="#C6CED1"/>
<path d="M94.6868 149.126L54.4012 123.393C51.5522 121.279 51.4231 119.703 51.3911 117.613C50.8894 84.8589 50.0867 17.6703 50.8894 10.9444C51.6921 4.21847 56.2408 5.33946 58.4148 6.74068C69.1176 13.2214 91.3259 26.9184 94.5367 29.8609C97.7476 32.8035 99.0503 36.2469 99.1005 40.9881C99.435 72.5157 99.1005 137.248 99.1005 143.609C99.1005 148.271 97.9971 150.229 94.6868 149.126Z" fill="#E1E5E7"/>
<path fill-rule="evenodd" clip-rule="evenodd" d="M58.708 6.27287C57.5644 5.53763 55.724 4.8209 54.0023 5.26049C52.1856 5.72431 50.7584 7.39389 50.3425 10.8792C50.137 12.6008 50.0375 18.1031 50.0078 25.8409C49.978 33.6005 50.0188 43.6556 50.1003 54.5224C50.2634 76.2564 50.5895 101.244 50.8403 117.621C50.8563 118.664 50.8938 119.681 51.3333 120.711C51.7765 121.749 52.6003 122.743 54.0734 123.836L54.0889 123.848L94.4483 149.628L94.5132 149.65C95.3883 149.941 96.1771 150.052 96.8706 149.928C97.5844 149.801 98.1547 149.433 98.5799 148.857C98.9931 148.297 99.2563 147.56 99.4195 146.695C99.5835 145.827 99.6532 144.793 99.6532 143.609C99.6532 142.438 99.6646 139.282 99.681 134.717C99.7538 114.515 99.926 66.7012 99.6532 40.9824C99.6016 36.1196 98.2547 32.5193 94.9104 29.4544C94.0697 28.6839 92.0396 27.2511 89.35 25.4594C86.6437 23.6566 83.2279 21.4633 79.5807 19.1612C72.2886 14.5586 64.0615 9.51452 58.708 6.27287ZM54.2753 6.32964C53.0734 6.63649 51.8249 7.76937 51.4381 11.01C51.2423 12.6513 51.1411 18.0698 51.1112 25.8451C51.0814 33.5985 51.1222 43.6488 51.2037 54.5141C51.3667 76.2443 51.6928 101.228 51.9437 117.604C51.9597 118.651 52.0028 119.468 52.3482 120.277C52.6885 121.075 53.35 121.923 54.7156 122.939L94.9261 148.624C95.6746 148.866 96.245 148.919 96.6772 148.842C97.1014 148.767 97.4276 148.56 97.6921 148.202C97.9685 147.828 98.188 147.27 98.3352 146.491C98.4816 145.715 98.5498 144.756 98.5498 143.609C98.5498 142.434 98.5612 139.272 98.5776 134.699C98.6504 114.486 98.8225 66.7014 98.5498 40.9941C98.5008 36.3747 97.2423 33.0881 94.1649 30.2679C93.4002 29.5671 91.4502 28.1843 88.7382 26.3777C86.0429 24.5822 82.6357 22.3944 78.9917 20.0944C71.7041 15.4946 63.4794 10.452 58.1299 7.21284L58.1167 7.20482C57.0857 6.54032 55.5687 5.99941 54.2753 6.32964Z" fill="#E1E5E7"/>
<path d="M88.6184 81.2642L60.4805 63.6091V26.6436L88.6184 44.2987V81.2642Z" fill="white"/>
<path d="M70.4105 34.9196L62.6864 29.9541V41.3564L70.4105 45.9571V34.9196ZM63.8818 32.8966L69.0172 36.207V43.3194L63.8818 40.069V32.8966ZM68.4655 37.2854L64.8595 34.9196V39.3898L68.4655 41.6991V37.2854Z" fill="#333333"/>
<path d="M71.7758 54.7845V60.3017L74.5344 61.6464V68.27L72.3275 66.9196V69.1265L76.7413 71.8879V62.5857L81.1551 64.716V69.361L82.8103 70.2332V68.2077L86.6724 70.2332L86.6724 67.1636L81.1551 64.716L81.3792 59.9912L71.7758 54.7845ZM76.7413 62.5857L74.5344 61.6464V58.6466L76.7413 59.75V62.5857ZM86.6724 71.0257L83.9138 69.681V73.2326L79.5 70.5023V73.4426L86.6724 77.9541V71.0257ZM73.431 66.6119V62.7498L71.2241 61.6464V65.5084L73.431 66.6119Z" fill="#333333"/>
<path d="M81.3792 59.9912L86.6724 62.5091V58.0953L81.3792 55.3366V59.9912Z" fill="#333333"/>
<path d="M86.6724 45.4051L78.3965 40.4401V52.0258L86.6724 56.62V45.4051ZM80.0517 43.1987L85.2791 46.2935V53.9339L80.0517 50.9229V43.1987ZM84.4655 47.0608L80.6034 44.8539V49.8194L84.4655 52.0258V47.0608Z" fill="#333333"/>
<path d="M69.8589 55.7425L62.1348 51.4713V62.7676L69.8589 67.6533V55.7425ZM63.3302 53.8602L68.4656 56.6188V64.713L63.3302 61.5863V53.8602ZM67.9139 57.7242L64.0518 55.8855V60.851L67.9139 63.0579V57.7242Z" fill="#333333"/>
<path d="M62.6864 46.3527L67.6519 49.0073V45.9569L62.6864 43.0423V46.3527Z" fill="#333333"/>
<path d="M67.6519 52.7766L71.7758 54.9683V51.4744L67.6519 49.0073V52.7766Z" fill="#333333"/>
<path d="M71.7758 51.4744L74.7963 53.2488V50.0076L71.7758 48.164V51.4744Z" fill="#333333"/>
<path d="M74.7963 53.2488L78.3965 55.3366V52.0258L74.7963 50.0076V53.2488Z" fill="#333333"/>
<path d="M84.0258 65.134L86.6724 66.3711V62.5091L84.0258 61.2501V65.134Z" fill="#333333"/>
<path d="M72.5909 43.7504L76.4529 45.7697V41.3564L72.5909 39.2527V43.7504Z" fill="#333333"/>
<path d="M76.4529 47.7731L78.1348 48.7127V46.6633L76.4529 45.7697V47.7731Z" fill="#333333"/>
<path d="M78.0027 66.6182L79.6846 67.5579V65.5084L78.0027 64.6148V66.6182Z" fill="#333333"/>
<path d="M64.8934 50.7161L66.5752 51.6558V49.6063L64.8934 48.7127V50.7161Z" fill="#333333"/>
<path fill-rule="evenodd" clip-rule="evenodd" d="M62.5116 68.5424C62.6391 68.3346 62.5741 68.0628 62.3663 67.9353L57.6113 65.0166V56.9877C57.6113 56.7439 57.4137 56.5463 57.1699 56.5463C56.9261 56.5463 56.7285 56.7439 56.7285 56.9877V65.2635C56.7285 65.417 56.8082 65.5594 56.939 65.6397L61.9045 68.6877C62.1123 68.8152 62.3841 68.7501 62.5116 68.5424Z" fill="#165C7D"/>
<path fill-rule="evenodd" clip-rule="evenodd" d="M91.5894 87.1682C91.4482 87.2457 91.2759 87.2401 91.14 87.1537L85.071 83.2916C84.8654 83.1607 84.8048 82.8879 84.9356 82.6822C85.0665 82.4766 85.3393 82.416 85.545 82.5468L90.9356 85.9772V77.402C90.9356 77.1582 91.1332 76.9606 91.377 76.9606C91.6207 76.9606 91.8184 77.1582 91.8184 77.402V86.7813C91.8184 86.9424 91.7306 87.0907 91.5894 87.1682Z" fill="#165C7D"/>
<path fill-rule="evenodd" clip-rule="evenodd" d="M56.9546 20.7406C57.0942 20.6626 57.265 20.6662 57.4012 20.75L64.5736 25.1638C64.7812 25.2916 64.846 25.5635 64.7182 25.7711C64.5905 25.9787 64.3186 26.0434 64.111 25.9156L57.6113 21.9158V29.9535C57.6113 30.1973 57.4137 30.3949 57.1699 30.3949C56.9261 30.3949 56.7285 30.1973 56.7285 29.9535V21.1259C56.7285 20.966 56.815 20.8186 56.9546 20.7406Z" fill="#165C7D"/>
<path fill-rule="evenodd" clip-rule="evenodd" d="M84.9356 38.5443C84.8048 38.75 84.8654 39.0228 85.071 39.1537L90.9356 42.8856V50.3675C90.9356 50.6113 91.1332 50.8089 91.377 50.8089C91.6207 50.8089 91.8184 50.6113 91.8184 50.3675V42.6433C91.8184 42.4924 91.7413 42.352 91.6139 42.271L85.545 38.4089C85.3393 38.278 85.0665 38.3387 84.9356 38.5443Z" fill="#165C7D"/>
<path d="M57.1699 21.126L91.3768 42.6431V86.5188L57.1699 65.5532V21.126Z" fill="#FFA300" fill-opacity="0.1"/>
<path fill-rule="evenodd" clip-rule="evenodd" d="M91.0544 63.6501L56.3299 44.5394L56.6492 43.9594L91.3736 63.0701L91.0544 63.6501Z" fill="#69757B"/>
<path d="M57.3736 44.7335C57.106 45.2213 56.4935 45.3997 56.0057 45.132C55.5179 44.8644 55.3394 44.2519 55.6071 43.7641C55.8748 43.2763 56.4872 43.0979 56.9751 43.3655C57.4629 43.6332 57.6413 44.2456 57.3736 44.7335Z" fill="#69757B"/>
<path d="M92.3502 64.1055C92.0825 64.5933 91.4701 64.7718 90.9823 64.5041C90.4945 64.2364 90.316 63.624 90.5837 63.1362C90.8514 62.6484 91.4638 62.4699 91.9516 62.7376C92.4394 63.0053 92.6179 63.6177 92.3502 64.1055Z" fill="#69757B"/>
<g opacity="0.8">
<path d="M75.2627 88.4701C75.2627 92.2586 72.9596 95.3298 70.1186 95.3298C67.2777 95.3298 64.9746 92.2586 64.9746 88.4701C64.9746 84.6815 67.2777 81.6104 70.1186 81.6104C72.9596 81.6104 75.2627 84.6815 75.2627 88.4701Z" fill="#165C7D"/>
<path d="M66.835 92.8881C66.3186 92.3604 65.8936 91.7006 65.5868 90.9502C65.28 90.1999 65.098 89.3752 65.0523 88.5282C65.0417 88.3401 65.0382 88.1537 65.0416 87.9689C64.6994 86.6855 64.6696 85.2967 64.9562 83.9864C64.1455 84.9177 63.581 86.1496 63.3417 87.5091C63.1025 88.8687 63.2006 90.2878 63.6222 91.5673C64.0438 92.8468 64.7678 93.9226 65.6927 94.6436C66.6176 95.3647 67.6968 95.6949 68.7791 95.588C69.0076 95.5647 69.2347 95.5227 69.4591 95.4622C68.388 94.9942 67.4669 94.0906 66.835 92.8881Z" fill="#00A9CE"/>
<path d="M74.6334 88.6324C74.5589 89.6046 74.3059 90.5417 73.8952 91.3666C73.4844 92.1916 72.9276 92.881 72.2705 93.3783C71.5297 94.4459 70.5425 95.1816 69.4544 95.4769C70.5348 95.9512 71.7091 95.954 72.7951 95.4847C73.8811 95.0154 74.8182 94.1003 75.4609 92.8814C76.1035 91.6625 76.4159 90.2078 76.3496 88.7431C76.2833 87.2784 75.8419 85.8856 75.094 84.7806C75.1109 84.9357 75.1238 85.093 75.1326 85.2507C75.2002 86.4129 75.0281 87.5792 74.6334 88.6324Z" fill="#FFA300"/>
<path d="M70.1915 94.2106C68.98 94.3332 67.78 93.8603 66.835 92.8881C67.4643 94.092 68.3832 94.9984 69.4527 95.4699C70.5412 95.1749 71.529 94.4391 72.2701 93.3712C71.6358 93.8518 70.9245 94.139 70.1915 94.2106Z" fill="#886B25"/>
<path d="M68.1618 82.2932C68.8014 81.9827 69.4844 81.85 70.1653 81.9037C70.8463 81.9575 71.5098 82.1966 72.1116 82.6051C73.2711 82.8743 74.3226 83.6415 75.094 84.7806C74.9247 83.2697 74.3557 81.8822 73.4822 80.8506C72.6086 79.8189 71.4836 79.2057 70.2955 79.1135C69.1074 79.0214 67.9283 79.4559 66.9556 80.3443C65.983 81.2328 65.2758 82.5212 64.9525 83.9939C65.8085 83.0087 66.8935 82.4143 68.0374 82.3038C68.0756 82.3 68.118 82.2958 68.1618 82.2932Z" fill="#00B140"/>
<path d="M65.0421 87.9758C65.0605 86.7405 65.3674 85.5386 65.9231 84.5255C66.4788 83.5125 67.2577 82.7349 68.1591 82.2934C68.1154 82.2978 68.073 82.302 68.0224 82.307C66.8806 82.4189 65.7977 83.013 64.9431 83.9965C64.6566 85.3068 64.6863 86.6955 65.0285 87.9789L65.0421 87.9758Z" fill="#007D8A"/>
<path d="M72.1113 82.5981C72.8278 83.0832 73.4358 83.794 73.8785 84.6641C74.3212 85.5342 74.5842 86.5354 74.6429 87.5741C74.6619 87.9217 74.6584 88.2709 74.6327 88.6182C75.026 87.5671 75.1978 86.4034 75.1309 85.2438C75.122 85.0861 75.1132 84.9284 75.0922 84.7736C74.3212 83.6348 73.2703 82.8678 72.1113 82.5981Z" fill="#007041"/>
</g>
<path d="M43.3763 89.4291L70.9626 92.1877V83.9119C66.5488 83.9119 55.5608 82.9576 50.5488 81.7047C43.9283 80.0498 43.928 80.0498 42.8247 80.0498H42.8246C41.9418 80.0498 38.9625 81.7049 37.3074 82.2565C35.8361 82.4404 32.1212 82.8082 29.0315 82.8082C25.9419 82.8082 26.0889 84.6473 26.2728 85.5668C24.2498 84.0955 20.8659 82.1461 19.1004 81.7047C17.3349 81.2634 16.5257 82.0726 16.3418 82.8082L29.0315 92.7392L43.3763 89.4291Z" fill="#D8BA8B"/>
<path fill-rule="evenodd" clip-rule="evenodd" d="M39.9658 81.4889C39.0639 81.9024 38.1221 82.3342 37.413 82.5705C37.3923 82.5774 37.371 82.5822 37.3494 82.5849C35.8716 82.7697 32.1415 83.1392 29.0325 83.1392C27.5474 83.1392 26.9566 83.578 26.7134 84.0061C26.4977 84.3859 26.4978 84.8472 26.5551 85.2509L36.2232 85.7882C36.4057 85.7984 36.5455 85.9546 36.5354 86.1371C36.5252 86.3197 36.369 86.4594 36.1865 86.4493L26.2554 85.8973C26.1918 85.8938 26.1306 85.872 26.0791 85.8345C25.0801 85.108 23.7403 84.2601 22.4314 83.5395C21.115 82.8148 19.8594 82.2354 19.0211 82.0259C18.1956 81.8195 17.6407 81.9163 17.2854 82.1068C17.0101 82.2544 16.8318 82.47 16.732 82.6924L29.1121 92.3811L43.3028 89.1065C43.338 89.0984 43.3743 89.0961 43.4102 89.0997L70.6325 91.8219V84.2412C66.0067 84.1967 55.395 83.2571 50.4695 82.0259C43.8879 80.3807 43.8763 80.3807 42.856 80.3808L42.8257 80.3808C42.6746 80.3808 42.3773 80.4602 41.9418 80.6263C41.523 80.7861 41.0244 81.0064 40.4935 81.2476C40.3206 81.3263 40.144 81.4072 39.9658 81.4889ZM25.8609 84.8706C24.9357 84.2364 23.8322 83.5549 22.7507 82.9595C21.4281 82.2314 20.1089 81.6154 19.1817 81.3836C18.2417 81.1486 17.5092 81.2356 16.9726 81.5233C16.4367 81.8106 16.134 82.2783 16.0216 82.7279C15.9899 82.8547 16.0358 82.9883 16.1387 83.0689L28.8285 92.9999C28.9072 93.0615 29.0095 93.0842 29.1069 93.0617L43.3986 89.7639L70.9306 92.5171C71.0236 92.5264 71.1163 92.4959 71.1857 92.4332C71.255 92.3704 71.2946 92.2812 71.2946 92.1877V83.9119C71.2946 83.729 71.1464 83.5808 70.9635 83.5808C66.5661 83.5808 55.6071 82.6277 50.63 81.3836L50.4421 81.3366C44.0341 79.7347 43.9701 79.7188 42.8257 79.7188C42.5353 79.7188 42.1289 79.8463 41.7058 80.0077C41.266 80.1755 40.7508 80.4035 40.2196 80.6449C40.0401 80.7265 39.859 80.8095 39.6781 80.8924C38.7883 81.3001 37.9025 81.7061 37.2345 81.932C35.748 82.1164 32.0801 82.4771 29.0325 82.4771C27.428 82.4771 26.5474 82.9579 26.1377 83.6791C25.917 84.0678 25.8557 84.4914 25.8609 84.8706ZM19.3724 83.1847C19.4693 83.0296 19.6735 82.9825 19.8286 83.0794L24.2173 85.8224L26.9485 86.9148C27.1182 86.9827 27.2008 87.1754 27.1329 87.3451C27.065 87.5149 26.8723 87.5975 26.7026 87.5296L23.944 86.4261C23.9257 86.4188 23.9081 86.4099 23.8915 86.3995L19.4777 83.6408C19.3226 83.5439 19.2755 83.3397 19.3724 83.1847ZM18.826 83.7282C18.9274 83.5761 19.1329 83.535 19.285 83.6364L27.5609 89.1537C27.713 89.2551 27.7541 89.4606 27.6527 89.6127C27.5513 89.7648 27.3457 89.8059 27.1936 89.7045L18.9178 84.1873C18.7656 84.0859 18.7245 83.8803 18.826 83.7282Z" fill="#333333"/>
<path d="M35.6684 73.4055C35.6684 77.1114 32.6641 80.1157 28.9582 80.1157C25.2523 80.1157 22.248 77.1114 22.248 73.4055C22.248 69.6996 25.2523 66.6953 28.9582 66.6953C32.6641 66.6953 35.6684 69.6996 35.6684 73.4055Z" fill="#69757B"/>
<path d="M36.2036 73.4055C36.2036 77.1114 33.1993 80.1157 29.4934 80.1157C25.7875 80.1157 22.7832 77.1114 22.7832 73.4055C22.7832 69.6996 25.7875 66.6953 29.4934 66.6953C33.1993 66.6953 36.2036 69.6996 36.2036 73.4055Z" fill="#FFA300"/>
<path d="M29.2204 77.4895V76.6016C28.864 76.5958 28.535 76.5642 28.2333 76.5068C27.9344 76.4464 27.6758 76.3688 27.4574 76.274V75.3559C27.6787 75.4594 27.9517 75.5527 28.2764 75.6361C28.6011 75.7194 28.9158 75.7668 29.2204 75.7783V74.1619C28.8037 74.0211 28.4646 73.8746 28.2031 73.7223C27.9445 73.57 27.7548 73.3933 27.6342 73.1921C27.5135 72.9881 27.4531 72.7438 27.4531 72.4594C27.4531 72.1663 27.5264 71.9148 27.673 71.705C27.8224 71.4924 28.0293 71.3243 28.2936 71.2007C28.5609 71.0772 28.8698 71.0039 29.2204 70.9809V70.2783H29.7807V70.968C30.0997 70.9766 30.3942 71.0125 30.6643 71.0757C30.9373 71.1361 31.1974 71.2208 31.4445 71.33L31.1298 72.1318C30.9143 72.0456 30.6902 71.9752 30.4574 71.9206C30.2247 71.866 29.9991 71.8286 29.7807 71.8085V73.3861C30.1313 73.501 30.4431 73.6246 30.7161 73.7568C30.9919 73.889 31.2074 74.0556 31.3626 74.2568C31.5207 74.455 31.5997 74.7151 31.5997 75.0369C31.5997 75.4594 31.4445 75.8085 31.1342 76.0844C30.8238 76.3573 30.3727 76.5211 29.7807 76.5757V77.4895H29.2204ZM29.7807 75.7438C30.0566 75.7094 30.262 75.6375 30.3971 75.5283C30.5321 75.4163 30.5997 75.2711 30.5997 75.093C30.5997 74.9723 30.5709 74.8703 30.5135 74.7869C30.4589 74.7036 30.3712 74.6289 30.2505 74.5628C30.1327 74.4967 29.9761 74.4321 29.7807 74.3688V75.7438ZM29.2204 73.1749V71.8257C29.0537 71.843 28.9129 71.8775 28.798 71.9292C28.683 71.9809 28.5968 72.0484 28.5393 72.1318C28.4819 72.2151 28.4531 72.3142 28.4531 72.4292C28.4531 72.5556 28.479 72.6634 28.5307 72.7525C28.5824 72.8415 28.6643 72.9191 28.7764 72.9852C28.8913 73.0513 29.0393 73.1145 29.2204 73.1749Z" fill="#754C04"/>
<path fill-rule="evenodd" clip-rule="evenodd" d="M20.5982 61.1046C20.8024 60.9715 21.0759 61.0291 21.209 61.2333L24.141 65.73C24.2741 65.9342 24.2165 66.2077 24.0123 66.3408C23.8081 66.474 23.5347 66.4164 23.4015 66.2122L20.4696 61.7154C20.3364 61.5112 20.394 61.2378 20.5982 61.1046Z" fill="#165C7D"/>
<path fill-rule="evenodd" clip-rule="evenodd" d="M17.3761 66.5642C17.4264 66.3257 17.6605 66.173 17.899 66.2233L22.1013 67.1084C22.3398 67.1587 22.4925 67.3928 22.4422 67.6313C22.392 67.8699 22.1579 68.0225 21.9194 67.9723L17.7171 67.0871C17.4785 67.0368 17.3259 66.8027 17.3761 66.5642Z" fill="#165C7D"/>
<path fill-rule="evenodd" clip-rule="evenodd" d="M26.738 60.4598C26.4995 60.4096 26.2654 60.5622 26.2151 60.8007L25.33 65.003C25.2797 65.2416 25.4324 65.4757 25.6709 65.5259C25.9094 65.5761 26.1435 65.4235 26.1938 65.185L27.0789 60.9827C27.1292 60.7442 26.9766 60.51 26.738 60.4598Z" fill="#165C7D"/>
</svg>
