<svg width="113" height="160" viewBox="0 0 113 160" fill="none" xmlns="http://www.w3.org/2000/svg">
<path d="M50.0937 155.132L22.1036 137.623L32.2019 120.968C29.1059 118.559 26.7687 113.129 28.3874 104.544L34.2063 67.8415C38.4267 69.3958 44.8085 71.5234 46.0112 81.743L86.3644 112.801L73.7018 129.244C68.9142 136.198 63.3871 138.015 60.215 137.637L50.0937 155.132Z" fill="#805928"/>
<path fill-rule="evenodd" clip-rule="evenodd" d="M34.4174 68.2026L28.648 104.593C27.0406 113.118 29.3736 118.431 32.3643 120.757C32.4709 120.84 32.4985 120.99 32.4285 121.105L22.4663 137.536L50.0003 154.76L59.9836 137.504C60.0368 137.412 60.1398 137.36 60.2455 137.373C63.293 137.736 68.7331 135.99 73.4815 129.093C73.4842 129.089 73.487 129.085 73.4899 129.081L85.99 112.849L46.3581 82.3462C46.3678 82.4272 46.3779 82.5149 46.3883 82.6089C46.451 83.1755 46.5248 83.9724 46.5691 84.8946C46.6575 86.7343 46.6297 89.0924 46.1525 91.1192C45.683 93.1137 45.2163 94.8876 44.867 96.1629C44.6923 96.8006 44.5469 97.3138 44.4451 97.6677C44.3974 97.8338 44.3592 97.9648 44.3322 98.0572C51.6119 104.787 54.2049 114.786 51.3802 122.456C51.3294 122.594 51.1764 122.665 51.0384 122.614C50.9005 122.563 50.8298 122.41 50.8806 122.272C53.6357 114.791 51.0881 104.944 43.8505 98.3376C43.775 98.2687 43.7456 98.1627 43.7749 98.0648L43.7853 98.0296L43.8161 97.925C43.8432 97.8329 43.8829 97.6966 43.9335 97.5206C44.0347 97.1686 44.1795 96.6576 44.3535 96.0223C44.7016 94.7515 45.1666 92.984 45.6343 90.9972C46.0945 89.0426 46.125 86.7429 46.0374 84.9202C45.9937 84.0111 45.921 83.2256 45.8592 82.6675C45.8283 82.3886 45.8001 82.1667 45.7798 82.0149C45.7696 81.939 45.7614 81.8807 45.7557 81.8415L45.7492 81.7972L45.7476 81.7863L45.7472 81.7837L45.7456 81.7737C45.1511 76.7222 43.2825 73.6979 41.0633 71.742C38.9391 69.8697 36.4772 68.9591 34.4174 68.2026ZM46.2611 81.5998C45.6385 76.4979 43.726 73.3792 41.4153 71.3426C39.2017 69.3915 36.6389 68.4509 34.5814 67.6956C34.4856 67.6605 34.3908 67.6257 34.2972 67.5912C34.2225 67.5637 34.1393 67.5711 34.0706 67.6114C34.0019 67.6517 33.9548 67.7206 33.9423 67.7993L28.1241 104.498C26.5271 112.973 28.7473 118.471 31.8522 121.029L21.875 137.484C21.7995 137.609 21.838 137.771 21.9614 137.848L49.9515 155.358C50.0127 155.396 50.0868 155.408 50.1569 155.39C50.227 155.373 50.2869 155.328 50.3231 155.265L60.3579 137.92C63.6747 138.226 69.1748 136.284 73.9161 129.401L86.5743 112.963C86.6174 112.907 86.6364 112.836 86.6273 112.766C86.6182 112.696 86.5817 112.633 86.5257 112.59L46.2611 81.5998Z" fill="#333333"/>
<path d="M95.6843 51.5686L100.674 46.8009C103.073 44.8085 109.728 49.6883 104.938 54.442C110.361 50.1283 114.608 57.6738 110.542 61.6696L95.088 77.7364L95.3811 64.8742L95.6843 51.5686Z" fill="#805928"/>
<path fill-rule="evenodd" clip-rule="evenodd" d="M100.851 47.0005L95.9482 51.6854L95.6637 64.1724L104.742 54.2627C104.743 54.2609 104.745 54.2592 104.747 54.2575C104.748 54.2562 104.749 54.2548 104.75 54.2535C105.908 53.1045 106.353 51.972 106.364 50.9599C106.375 49.9436 105.951 49.0113 105.302 48.2671C104.652 47.5215 103.788 46.9792 102.954 46.7423C102.118 46.5052 101.358 46.5844 100.851 47.0005ZM95.6453 64.9807L95.37 77.0599L110.355 61.4801C112.288 59.581 112.245 56.8396 111.077 55.0879C110.496 54.2159 109.645 53.6036 108.634 53.4533C107.63 53.304 106.426 53.6045 105.12 54.6379L95.6453 64.9807ZM106.155 53.36C106.66 52.5481 106.888 51.7392 106.896 50.9659C106.909 49.7926 106.419 48.7381 105.703 47.9172C104.988 47.0977 104.038 46.4965 103.099 46.2302C102.166 45.9653 101.197 46.0215 100.504 46.5966C100.5 46.6005 100.495 46.6046 100.491 46.6089L95.5007 51.3767C95.4497 51.4254 95.4201 51.4925 95.4185 51.5631L94.8222 77.7307C94.8197 77.8404 94.8848 77.9403 94.9861 77.9825C95.0874 78.0246 95.2041 78.0003 95.2802 77.9213L110.731 61.8572C112.862 59.7606 112.814 56.7333 111.52 54.7925C110.87 53.8179 109.897 53.1029 108.713 52.9268C107.922 52.8092 107.058 52.9345 106.155 53.36Z" fill="#333333"/>
<path fill-rule="evenodd" clip-rule="evenodd" d="M21.1262 136.993C21.2577 136.786 21.5319 136.725 21.7386 136.857L50.8131 155.344C51.0199 155.475 51.0809 155.749 50.9494 155.956C50.818 156.163 50.5438 156.224 50.337 156.092L21.2625 137.605C21.0558 137.474 20.9947 137.2 21.1262 136.993Z" fill="#E1E5E7"/>
<path fill-rule="evenodd" clip-rule="evenodd" d="M51.5391 156.132C51.6696 155.925 51.9435 155.863 52.1509 155.993L54.0284 157.174C54.2358 157.305 54.2981 157.579 54.1676 157.786C54.0372 157.993 53.7633 158.056 53.5559 157.925L51.6784 156.744C51.471 156.614 51.4087 156.34 51.5391 156.132Z" fill="#E1E5E7"/>
<path fill-rule="evenodd" clip-rule="evenodd" d="M17.3692 134.631C17.4997 134.424 17.7736 134.362 17.981 134.492L19.8585 135.673C20.0658 135.804 20.1282 136.078 19.9977 136.285C19.8672 136.493 19.5933 136.555 19.386 136.424L17.5085 135.243C17.3011 135.113 17.2387 134.839 17.3692 134.631Z" fill="#E1E5E7"/>
<path d="M46.2891 30.1696C46.2891 25.2693 50.2615 21.2969 55.1618 21.2969H87.1037C92.004 21.2969 95.9764 25.2693 95.9764 30.1696V111.799C95.9764 116.699 92.004 120.672 87.1037 120.672H55.1618C50.2615 120.672 46.2891 116.699 46.2891 111.799V30.1696Z" fill="#C6CED1"/>
<path d="M48.0645 31.944C48.0645 27.0438 52.0369 23.0713 56.9372 23.0713H85.33C90.2303 23.0713 94.2027 27.0438 94.2027 31.944V110.024C94.2027 114.924 90.2303 118.897 85.33 118.897H56.9372C52.0369 118.897 48.0645 114.924 48.0645 110.024V31.944Z" fill="#E1E5E7"/>
<path fill-rule="evenodd" clip-rule="evenodd" d="M52.1445 74.5338C52.1445 74.7298 52.3034 74.8887 52.4994 74.8887H59.5976C59.7936 74.8887 59.9525 74.7298 59.9525 74.5338C59.9525 74.3378 59.7936 74.1789 59.5976 74.1789H52.8544V67.4356C52.8544 67.2396 52.6955 67.0807 52.4994 67.0807C52.3034 67.0807 52.1445 67.2396 52.1445 67.4356V74.5338Z" fill="#165C7D"/>
<path fill-rule="evenodd" clip-rule="evenodd" d="M90.1191 74.5338C90.1191 74.7298 89.9602 74.8887 89.7642 74.8887H82.666C82.47 74.8887 82.3111 74.7298 82.3111 74.5338C82.3111 74.3378 82.47 74.1789 82.666 74.1789H89.4093V67.4356C89.4093 67.2396 89.5682 67.0807 89.7642 67.0807C89.9602 67.0807 90.1191 67.2396 90.1191 67.4356V74.5338Z" fill="#165C7D"/>
<path fill-rule="evenodd" clip-rule="evenodd" d="M52.1445 37.268C52.1445 37.072 52.3034 36.9131 52.4994 36.9131H59.5976C59.7936 36.9131 59.9525 37.072 59.9525 37.268C59.9525 37.464 59.7936 37.6229 59.5976 37.6229H52.8544V44.3662C52.8544 44.5622 52.6955 44.7211 52.4994 44.7211C52.3034 44.7211 52.1445 44.5622 52.1445 44.3662V37.268Z" fill="#165C7D"/>
<path fill-rule="evenodd" clip-rule="evenodd" d="M90.1191 37.268C90.1191 37.072 89.9602 36.9131 89.7642 36.9131H82.666C82.47 36.9131 82.3111 37.072 82.3111 37.268C82.3111 37.464 82.47 37.6229 82.666 37.6229H89.4093V44.3662C89.4093 44.5622 89.5682 44.7211 89.7642 44.7211C89.9602 44.7211 90.1191 44.5622 90.1191 44.3662V37.268Z" fill="#165C7D"/>
<g clip-path="url(#clip0_19798_33508)">
<path d="M85.3283 41.7041H56.9355V70.0969H85.3283V41.7041Z" fill="white"/>
<path d="M59.894 43.4785H58.7109V44.6615H59.894V43.4785Z" fill="#333333"/>
<path d="M61.077 43.4785H59.894V44.6615H61.077V43.4785Z" fill="#333333"/>
<path d="M62.26 43.4785H61.077V44.6615H62.26V43.4785Z" fill="#333333"/>
<path d="M63.4431 43.4785H62.26V44.6615H63.4431V43.4785Z" fill="#333333"/>
<path d="M64.6261 43.4785H63.4431V44.6615H64.6261V43.4785Z" fill="#333333"/>
<path d="M65.8091 43.4785H64.6261V44.6615H65.8091V43.4785Z" fill="#333333"/>
<path d="M66.9922 43.4785H65.8091V44.6615H66.9922V43.4785Z" fill="#333333"/>
<path d="M69.3582 43.4785H68.1752V44.6615H69.3582V43.4785Z" fill="#333333"/>
<path d="M70.5413 43.4785H69.3582V44.6615H70.5413V43.4785Z" fill="#333333"/>
<path d="M74.0904 43.4785H72.9073V44.6615H74.0904V43.4785Z" fill="#333333"/>
<path d="M76.4564 43.4785H75.2734V44.6615H76.4564V43.4785Z" fill="#333333"/>
<path d="M77.6395 43.4785H76.4564V44.6615H77.6395V43.4785Z" fill="#333333"/>
<path d="M78.8225 43.4785H77.6395V44.6615H78.8225V43.4785Z" fill="#333333"/>
<path d="M80.0055 43.4785H78.8225V44.6615H80.0055V43.4785Z" fill="#333333"/>
<path d="M81.1886 43.4785H80.0055V44.6615H81.1886V43.4785Z" fill="#333333"/>
<path d="M82.3716 43.4785H81.1886V44.6615H82.3716V43.4785Z" fill="#333333"/>
<path d="M83.5546 43.4785H82.3716V44.6615H83.5546V43.4785Z" fill="#333333"/>
<path d="M59.894 44.6615H58.7109V45.8446H59.894V44.6615Z" fill="#333333"/>
<path d="M66.9922 44.6615H65.8091V45.8446H66.9922V44.6615Z" fill="#333333"/>
<path d="M71.7243 44.6615H70.5413L70.5413 45.8446H71.7243V44.6615Z" fill="#333333"/>
<path d="M76.4564 44.6615H75.2734V45.8446H76.4564V44.6615Z" fill="#333333"/>
<path d="M83.5546 44.6615H82.3716V45.8446H83.5546V44.6615Z" fill="#333333"/>
<path d="M59.894 45.8446H58.7109V47.0276H59.894V45.8446Z" fill="#333333"/>
<path d="M62.26 45.8446H61.077V47.0276H62.26V45.8446Z" fill="#333333"/>
<path d="M63.4431 45.8446H62.26V47.0276H63.4431V45.8446Z" fill="#333333"/>
<path d="M64.6261 45.8446H63.4431V47.0276H64.6261V45.8446Z" fill="#333333"/>
<path d="M66.9922 45.8446H65.8091V47.0276H66.9922V45.8446Z" fill="#333333"/>
<path d="M70.5413 45.8446H69.3582V47.0276H70.5413L70.5413 45.8446Z" fill="#333333"/>
<path d="M71.7243 45.8446H70.5413L70.5413 47.0276H71.7243V45.8446Z" fill="#333333"/>
<path d="M72.9073 45.8446H71.7243V47.0276H72.9073V45.8446Z" fill="#333333"/>
<path d="M76.4564 45.8446H75.2734V47.0276H76.4564V45.8446Z" fill="#333333"/>
<path d="M78.8225 45.8446H77.6395V47.0276H78.8225V45.8446Z" fill="#333333"/>
<path d="M80.0055 45.8446H78.8225V47.0276H80.0055V45.8446Z" fill="#333333"/>
<path d="M81.1886 45.8446H80.0055V47.0276H81.1886V45.8446Z" fill="#333333"/>
<path d="M83.5546 45.8446H82.3716V47.0276H83.5546V45.8446Z" fill="#333333"/>
<path d="M59.894 47.0276H58.7109V48.2106H59.894V47.0276Z" fill="#333333"/>
<path d="M62.26 47.0276H61.077V48.2106H62.26V47.0276Z" fill="#333333"/>
<path d="M63.4431 47.0276H62.26V48.2106H63.4431V47.0276Z" fill="#333333"/>
<path d="M64.6261 47.0276H63.4431V48.2106H64.6261V47.0276Z" fill="#333333"/>
<path d="M66.9922 47.0276H65.8091V48.2106H66.9922V47.0276Z" fill="#333333"/>
<path d="M70.5413 47.0276H69.3582V48.2106H70.5413V47.0276Z" fill="#333333"/>
<path d="M71.7243 47.0276H70.5413V48.2106H71.7243V47.0276Z" fill="#333333"/>
<path d="M74.0904 47.0276H72.9073V48.2106H74.0904V47.0276Z" fill="#333333"/>
<path d="M76.4564 47.0276H75.2734V48.2106H76.4564V47.0276Z" fill="#333333"/>
<path d="M78.8225 47.0276H77.6395V48.2106H78.8225V47.0276Z" fill="#333333"/>
<path d="M80.0055 47.0276H78.8225V48.2106H80.0055V47.0276Z" fill="#333333"/>
<path d="M81.1886 47.0276H80.0055V48.2106H81.1886V47.0276Z" fill="#333333"/>
<path d="M83.5546 47.0276H82.3716V48.2106H83.5546V47.0276Z" fill="#333333"/>
<path d="M59.894 48.2106H58.7109V49.3937H59.894V48.2106Z" fill="#333333"/>
<path d="M62.26 48.2106H61.077V49.3937H62.26V48.2106Z" fill="#333333"/>
<path d="M63.4431 48.2106H62.26V49.3937H63.4431V48.2106Z" fill="#333333"/>
<path d="M64.6261 48.2106H63.4431V49.3937H64.6261V48.2106Z" fill="#333333"/>
<path d="M66.9922 48.2106H65.8091V49.3937H66.9922V48.2106Z" fill="#333333"/>
<path d="M69.3582 48.2106H68.1752V49.3937H69.3582L69.3582 48.2106Z" fill="#333333"/>
<path d="M71.7243 48.2106H70.5413L70.5413 49.3937H71.7243V48.2106Z" fill="#333333"/>
<path d="M76.4564 48.2106H75.2734V49.3937H76.4564V48.2106Z" fill="#333333"/>
<path d="M78.8225 48.2106H77.6395V49.3937H78.8225V48.2106Z" fill="#333333"/>
<path d="M80.0055 48.2106H78.8225V49.3937H80.0055V48.2106Z" fill="#333333"/>
<path d="M81.1886 48.2106H80.0055V49.3937H81.1886V48.2106Z" fill="#333333"/>
<path d="M83.5546 48.2106H82.3716V49.3937H83.5546V48.2106Z" fill="#333333"/>
<path d="M59.894 49.3937H58.7109V50.5767H59.894V49.3937Z" fill="#333333"/>
<path d="M66.9922 49.3937H65.8091V50.5767H66.9922V49.3937Z" fill="#333333"/>
<path d="M70.5413 49.3937H69.3582L69.3582 50.5767H70.5413L70.5413 49.3937Z" fill="#333333"/>
<path d="M74.0904 49.3937H72.9073V50.5767H74.0904V49.3937Z" fill="#333333"/>
<path d="M76.4564 49.3937H75.2734V50.5767H76.4564V49.3937Z" fill="#333333"/>
<path d="M83.5546 49.3937H82.3716V50.5767H83.5546V49.3937Z" fill="#333333"/>
<path d="M59.894 50.5767H58.7109V51.7597H59.894V50.5767Z" fill="#333333"/>
<path d="M61.077 50.5767H59.894V51.7597H61.077V50.5767Z" fill="#333333"/>
<path d="M62.26 50.5767H61.077V51.7597H62.26V50.5767Z" fill="#333333"/>
<path d="M63.4431 50.5767H62.26V51.7597H63.4431V50.5767Z" fill="#333333"/>
<path d="M64.6261 50.5767H63.4431V51.7597H64.6261V50.5767Z" fill="#333333"/>
<path d="M65.8091 50.5767H64.6261V51.7597H65.8091V50.5767Z" fill="#333333"/>
<path d="M66.9922 50.5767H65.8091V51.7597H66.9922V50.5767Z" fill="#333333"/>
<path d="M69.3582 50.5767H68.1752V51.7597H69.3582L69.3582 50.5767Z" fill="#333333"/>
<path d="M71.7243 50.5767H70.5413L70.5413 51.7597H71.7243V50.5767Z" fill="#333333"/>
<path d="M74.0904 50.5767H72.9073V51.7597H74.0904V50.5767Z" fill="#333333"/>
<path d="M76.4564 50.5767H75.2734V51.7597H76.4564V50.5767Z" fill="#333333"/>
<path d="M77.6395 50.5767H76.4564V51.7597H77.6395V50.5767Z" fill="#333333"/>
<path d="M78.8225 50.5767H77.6395V51.7597H78.8225V50.5767Z" fill="#333333"/>
<path d="M80.0055 50.5767H78.8225V51.7597H80.0055V50.5767Z" fill="#333333"/>
<path d="M81.1886 50.5767H80.0055V51.7597H81.1886V50.5767Z" fill="#333333"/>
<path d="M82.3716 50.5767H81.1886V51.7597H82.3716V50.5767Z" fill="#333333"/>
<path d="M83.5546 50.5767H82.3716V51.7597H83.5546V50.5767Z" fill="#333333"/>
<path d="M69.3582 51.7597H68.1752V52.9428H69.3582V51.7597Z" fill="#333333"/>
<path d="M71.7243 51.7597H70.5413V52.9428H71.7243V51.7597Z" fill="#333333"/>
<path d="M72.9073 51.7597H71.7243V52.9428H72.9073V51.7597Z" fill="#333333"/>
<path d="M74.0904 51.7597H72.9073V52.9428H74.0904V51.7597Z" fill="#333333"/>
<path d="M59.894 52.9428H58.7109V54.1258H59.894V52.9428Z" fill="#333333"/>
<path d="M63.4431 52.9428H62.26V54.1258H63.4431V52.9428Z" fill="#333333"/>
<path d="M64.6261 52.9428H63.4431V54.1258H64.6261V52.9428Z" fill="#333333"/>
<path d="M65.8091 52.9428H64.6261V54.1258H65.8091V52.9428Z" fill="#333333"/>
<path d="M66.9922 52.9428H65.8091V54.1258H66.9922V52.9428Z" fill="#333333"/>
<path d="M68.1752 52.9428L66.9922 52.9428V54.1258H68.1752L68.1752 52.9428Z" fill="#333333"/>
<path d="M69.3582 52.9428H68.1752L68.1752 54.1258H69.3582V52.9428Z" fill="#333333"/>
<path d="M70.5413 52.9428H69.3582V54.1258H70.5413L70.5413 52.9428Z" fill="#333333"/>
<path d="M74.0904 52.9428H72.9073V54.1258H74.0904V52.9428Z" fill="#333333"/>
<path d="M75.2734 52.9428L74.0904 52.9428V54.1258H75.2734V52.9428Z" fill="#333333"/>
<path d="M76.4564 52.9428H75.2734V54.1258H76.4564V52.9428Z" fill="#333333"/>
<path d="M78.8225 52.9428H77.6395V54.1258H78.8225V52.9428Z" fill="#333333"/>
<path d="M83.5546 52.9428H82.3716V54.1258H83.5546V52.9428Z" fill="#333333"/>
<path d="M59.894 54.1258H58.7109V55.3088H59.894V54.1258Z" fill="#333333"/>
<path d="M61.077 54.1258L59.894 54.1258V55.3088H61.077V54.1258Z" fill="#333333"/>
<path d="M62.26 54.1258L61.077 54.1258V55.3088H62.26V54.1258Z" fill="#333333"/>
<path d="M64.6261 54.1258H63.4431V55.3088H64.6261V54.1258Z" fill="#333333"/>
<path d="M65.8091 54.1258H64.6261V55.3088H65.8091V54.1258Z" fill="#333333"/>
<path d="M68.1752 54.1258H66.9922V55.3088H68.1752V54.1258Z" fill="#333333"/>
<path d="M70.5413 54.1258H69.3582L69.3582 55.3088H70.5413V54.1258Z" fill="#333333"/>
<path d="M72.9073 54.1258L71.7243 54.1258V55.3088H72.9073V54.1258Z" fill="#333333"/>
<path d="M74.0904 54.1258H72.9073V55.3088H74.0904V54.1258Z" fill="#333333"/>
<path d="M75.2734 54.1258H74.0904V55.3088H75.2734V54.1258Z" fill="#333333"/>
<path d="M76.4564 54.1258H75.2734V55.3088H76.4564V54.1258Z" fill="#333333"/>
<path d="M83.5546 54.1258H82.3716V55.3088H83.5546V54.1258Z" fill="#333333"/>
<path d="M59.894 55.3088H58.7109V56.4919H59.894V55.3088Z" fill="#333333"/>
<path d="M64.6261 55.3088H63.4431V56.4919H64.6261V55.3088Z" fill="#333333"/>
<path d="M66.9922 55.3088H65.8091V56.4919H66.9922V55.3088Z" fill="#333333"/>
<path d="M69.3582 55.3088H68.1752L68.1752 56.4919H69.3582L69.3582 55.3088Z" fill="#333333"/>
<path d="M70.5413 55.3088H69.3582L69.3582 56.4919H70.5413V55.3088Z" fill="#333333"/>
<path d="M75.2734 55.3088H74.0904V56.4919H75.2734V55.3088Z" fill="#333333"/>
<path d="M76.4564 55.3088H75.2734V56.4919H76.4564V55.3088Z" fill="#333333"/>
<path d="M78.8225 55.3088H77.6395V56.4919H78.8225V55.3088Z" fill="#333333"/>
<path d="M80.0055 55.3088H78.8225V56.4919H80.0055V55.3088Z" fill="#333333"/>
<path d="M83.5546 55.3088H82.3716V56.4919H83.5546V55.3088Z" fill="#333333"/>
<path d="M59.894 56.4919H58.7109V57.6749H59.894V56.4919Z" fill="#333333"/>
<path d="M61.077 56.4919L59.894 56.4919V57.6749H61.077V56.4919Z" fill="#333333"/>
<path d="M62.26 56.4919H61.077V57.6749H62.26V56.4919Z" fill="#333333"/>
<path d="M63.4431 56.4919L62.26 56.4919V57.6749H63.4431V56.4919Z" fill="#333333"/>
<path d="M65.8091 56.4919H64.6261V57.6749H65.8091V56.4919Z" fill="#333333"/>
<path d="M68.1752 56.4919H66.9922V57.6749H68.1752L68.1752 56.4919Z" fill="#333333"/>
<path d="M69.3582 56.4919H68.1752L68.1752 57.6749H69.3582V56.4919Z" fill="#333333"/>
<path d="M70.5413 56.4919H69.3582V57.6749H70.5413V56.4919Z" fill="#333333"/>
<path d="M71.7243 56.4919L70.5413 56.4919V57.6749H71.7243V56.4919Z" fill="#333333"/>
<path d="M77.6395 56.4919H76.4564V57.6749H77.6395V56.4919Z" fill="#333333"/>
<path d="M78.8225 56.4919H77.6395V57.6749H78.8225V56.4919Z" fill="#333333"/>
<path d="M80.0055 56.4919H78.8225V57.6749H80.0055V56.4919Z" fill="#333333"/>
<path d="M81.1886 56.4919L80.0055 56.4919V57.6749H81.1886V56.4919Z" fill="#333333"/>
<path d="M59.894 57.6749H58.7109V58.8579H59.894V57.6749Z" fill="#333333"/>
<path d="M61.077 57.6749H59.894V58.8579H61.077V57.6749Z" fill="#333333"/>
<path d="M62.26 57.6749H61.077V58.8579H62.26V57.6749Z" fill="#333333"/>
<path d="M63.4431 57.6749H62.26V58.8579H63.4431V57.6749Z" fill="#333333"/>
<path d="M64.6261 57.6749H63.4431V58.8579H64.6261V57.6749Z" fill="#333333"/>
<path d="M66.9922 57.6749H65.8091V58.8579H66.9922V57.6749Z" fill="#333333"/>
<path d="M68.1752 57.6749H66.9922V58.8579H68.1752V57.6749Z" fill="#333333"/>
<path d="M70.5413 57.6749H69.3582L69.3582 58.8579H70.5413V57.6749Z" fill="#333333"/>
<path d="M74.0904 57.6749H72.9073V58.8579H74.0904V57.6749Z" fill="#333333"/>
<path d="M75.2734 57.6749H74.0904V58.8579H75.2734V57.6749Z" fill="#333333"/>
<path d="M76.4564 57.6749H75.2734V58.8579H76.4564V57.6749Z" fill="#333333"/>
<path d="M77.6395 57.6749H76.4564V58.8579H77.6395V57.6749Z" fill="#333333"/>
<path d="M80.0055 57.6749H78.8225V58.8579H80.0055V57.6749Z" fill="#333333"/>
<path d="M83.5546 57.6749H82.3716V58.8579H83.5546V57.6749Z" fill="#333333"/>
<path d="M69.3582 58.8579H68.1752L68.1752 60.041H69.3582L69.3582 58.8579Z" fill="#333333"/>
<path d="M72.9073 58.8579H71.7243V60.041H72.9073V58.8579Z" fill="#333333"/>
<path d="M74.0904 58.8579H72.9073V60.041H74.0904V58.8579Z" fill="#333333"/>
<path d="M75.2734 58.8579H74.0904V60.041H75.2734V58.8579Z" fill="#333333"/>
<path d="M76.4564 58.8579H75.2734V60.041H76.4564V58.8579Z" fill="#333333"/>
<path d="M82.3716 58.8579H81.1886V60.041H82.3716V58.8579Z" fill="#333333"/>
<path d="M83.5546 58.8579H82.3716V60.041H83.5546V58.8579Z" fill="#333333"/>
<path d="M59.894 60.041H58.7109V61.224H59.894V60.041Z" fill="#333333"/>
<path d="M61.077 60.041H59.894V61.224H61.077V60.041Z" fill="#333333"/>
<path d="M62.26 60.041H61.077V61.224H62.26V60.041Z" fill="#333333"/>
<path d="M63.4431 60.041H62.26V61.224H63.4431V60.041Z" fill="#333333"/>
<path d="M64.6261 60.041H63.4431V61.224H64.6261V60.041Z" fill="#333333"/>
<path d="M65.8091 60.041H64.6261V61.224H65.8091V60.041Z" fill="#333333"/>
<path d="M66.9922 60.041H65.8091V61.224H66.9922V60.041Z" fill="#333333"/>
<path d="M69.3582 60.041H68.1752V61.224H69.3582V60.041Z" fill="#333333"/>
<path d="M71.7243 60.041H70.5413V61.224H71.7243L71.7243 60.041Z" fill="#333333"/>
<path d="M72.9073 60.041H71.7243L71.7243 61.224H72.9073V60.041Z" fill="#333333"/>
<path d="M74.0904 60.041H72.9073V61.224H74.0904V60.041Z" fill="#333333"/>
<path d="M75.2734 60.041H74.0904V61.224H75.2734V60.041Z" fill="#333333"/>
<path d="M78.8225 60.041H77.6395V61.224H78.8225V60.041Z" fill="#333333"/>
<path d="M81.1886 60.041H80.0055V61.224H81.1886V60.041Z" fill="#333333"/>
<path d="M82.3716 60.041H81.1886V61.224H82.3716V60.041Z" fill="#333333"/>
<path d="M83.5546 60.041H82.3716V61.224H83.5546V60.041Z" fill="#333333"/>
<path d="M59.894 61.224H58.7109V62.407H59.894V61.224Z" fill="#333333"/>
<path d="M66.9922 61.224H65.8091V62.407H66.9922V61.224Z" fill="#333333"/>
<path d="M69.3582 61.224H68.1752V62.407H69.3582V61.224Z" fill="#333333"/>
<path d="M71.7243 61.224H70.5413V62.407H71.7243V61.224Z" fill="#333333"/>
<path d="M74.0904 61.224H72.9073V62.407H74.0904V61.224Z" fill="#333333"/>
<path d="M77.6395 61.224H76.4564V62.407H77.6395V61.224Z" fill="#333333"/>
<path d="M78.8225 61.224H77.6395V62.407H78.8225V61.224Z" fill="#333333"/>
<path d="M83.5546 61.224H82.3716V62.407H83.5546V61.224Z" fill="#333333"/>
<path d="M59.894 62.407H58.7109V63.5901H59.894V62.407Z" fill="#333333"/>
<path d="M62.26 62.407H61.077V63.5901H62.26V62.407Z" fill="#333333"/>
<path d="M63.4431 62.407H62.26V63.5901H63.4431V62.407Z" fill="#333333"/>
<path d="M64.6261 62.407H63.4431V63.5901H64.6261V62.407Z" fill="#333333"/>
<path d="M66.9922 62.407H65.8091V63.5901H66.9922V62.407Z" fill="#333333"/>
<path d="M69.3582 62.407H68.1752V63.5901H69.3582V62.407Z" fill="#333333"/>
<path d="M71.7243 62.407H70.5413V63.5901H71.7243V62.407Z" fill="#333333"/>
<path d="M72.9073 62.407H71.7243V63.5901H72.9073V62.407Z" fill="#333333"/>
<path d="M76.4564 62.407H75.2734V63.5901H76.4564V62.407Z" fill="#333333"/>
<path d="M77.6395 62.407H76.4564V63.5901H77.6395V62.407Z" fill="#333333"/>
<path d="M81.1886 62.407H80.0055V63.5901H81.1886V62.407Z" fill="#333333"/>
<path d="M83.5546 62.407H82.3716V63.5901H83.5546V62.407Z" fill="#333333"/>
<path d="M59.894 63.5901H58.7109V64.7731H59.894V63.5901Z" fill="#333333"/>
<path d="M62.26 63.5901H61.077V64.7731H62.26V63.5901Z" fill="#333333"/>
<path d="M63.4431 63.5901H62.26V64.7731H63.4431V63.5901Z" fill="#333333"/>
<path d="M64.6261 63.5901H63.4431V64.7731H64.6261V63.5901Z" fill="#333333"/>
<path d="M66.9922 63.5901H65.8091V64.7731H66.9922V63.5901Z" fill="#333333"/>
<path d="M69.3582 63.5901H68.1752V64.7731H69.3582V63.5901Z" fill="#333333"/>
<path d="M71.7243 63.5901H70.5413V64.7731H71.7243V63.5901Z" fill="#333333"/>
<path d="M72.9073 63.5901H71.7243V64.7731H72.9073V63.5901Z" fill="#333333"/>
<path d="M76.4564 63.5901H75.2734V64.7731H76.4564V63.5901Z" fill="#333333"/>
<path d="M59.894 64.7731H58.7109V65.9561H59.894V64.7731Z" fill="#333333"/>
<path d="M62.26 64.7731H61.077V65.9561H62.26V64.7731Z" fill="#333333"/>
<path d="M63.4431 64.7731H62.26V65.9561H63.4431V64.7731Z" fill="#333333"/>
<path d="M64.6261 64.7731H63.4431V65.9561H64.6261V64.7731Z" fill="#333333"/>
<path d="M66.9922 64.7731H65.8091V65.9561H66.9922V64.7731Z" fill="#333333"/>
<path d="M70.5413 64.7731H69.3582L69.3582 65.9561H70.5413L70.5413 64.7731Z" fill="#333333"/>
<path d="M71.7243 64.7731H70.5413L70.5413 65.9561H71.7243V64.7731Z" fill="#333333"/>
<path d="M75.2734 64.7731H74.0904V65.9561H75.2734V64.7731Z" fill="#333333"/>
<path d="M78.8225 64.7731H77.6395V65.9561H78.8225V64.7731Z" fill="#333333"/>
<path d="M80.0055 64.7731H78.8225V65.9561H80.0055V64.7731Z" fill="#333333"/>
<path d="M81.1886 64.7731H80.0055V65.9561H81.1886V64.7731Z" fill="#333333"/>
<path d="M83.5546 64.7731H82.3716V65.9561H83.5546V64.7731Z" fill="#333333"/>
<path d="M59.894 65.9561H58.7109V67.1392H59.894V65.9561Z" fill="#333333"/>
<path d="M66.9922 65.9561H65.8091V67.1392H66.9922V65.9561Z" fill="#333333"/>
<path d="M71.7243 65.9561H70.5413L70.5413 67.1392H71.7243V65.9561Z" fill="#333333"/>
<path d="M72.9073 65.9561H71.7243V67.1392H72.9073V65.9561Z" fill="#333333"/>
<path d="M74.0904 65.9561H72.9073V67.1392H74.0904V65.9561Z" fill="#333333"/>
<path d="M76.4564 65.9561H75.2734V67.1392H76.4564V65.9561Z" fill="#333333"/>
<path d="M77.6395 65.9561H76.4564V67.1392H77.6395V65.9561Z" fill="#333333"/>
<path d="M80.0055 65.9561H78.8225V67.1392H80.0055V65.9561Z" fill="#333333"/>
<path d="M59.894 67.1392H58.7109V68.3222H59.894V67.1392Z" fill="#333333"/>
<path d="M61.077 67.1392H59.894V68.3222H61.077V67.1392Z" fill="#333333"/>
<path d="M62.26 67.1392H61.077V68.3222H62.26V67.1392Z" fill="#333333"/>
<path d="M63.4431 67.1392H62.26V68.3222H63.4431V67.1392Z" fill="#333333"/>
<path d="M64.6261 67.1392H63.4431V68.3222H64.6261V67.1392Z" fill="#333333"/>
<path d="M65.8091 67.1392H64.6261V68.3222H65.8091V67.1392Z" fill="#333333"/>
<path d="M66.9922 67.1392H65.8091V68.3222H66.9922V67.1392Z" fill="#333333"/>
<path d="M69.3582 67.1392H68.1752V68.3222H69.3582V67.1392Z" fill="#333333"/>
<path d="M70.5413 67.1392H69.3582V68.3222H70.5413L70.5413 67.1392Z" fill="#333333"/>
<path d="M74.0904 67.1392H72.9073V68.3222H74.0904V67.1392Z" fill="#333333"/>
<path d="M75.2734 67.1392H74.0904V68.3222H75.2734V67.1392Z" fill="#333333"/>
<path d="M77.6395 67.1392H76.4564V68.3222H77.6395V67.1392Z" fill="#333333"/>
<path d="M78.8225 67.1392H77.6395V68.3222H78.8225V67.1392Z" fill="#333333"/>
<path d="M80.0055 67.1392H78.8225V68.3222H80.0055V67.1392Z" fill="#333333"/>
<path d="M83.5546 67.1392H82.3716V68.3222H83.5546V67.1392Z" fill="#333333"/>
</g>
<path d="M84.5865 88.6639C85.0218 88.0003 91.362 81.4531 95.0799 77.8041C98.7092 75.3709 102.89 78.6963 101.827 82.9339C101.282 85.1024 99.4296 86.8963 96.1738 90.5581C97.1335 89.6046 98.5208 89.8135 98.5208 89.8135C102.844 90.0758 103.595 95.685 100.626 98.0309L92.665 106.621C87.2922 110.68 83.7895 103.645 88.2364 99.2865C88.2364 99.2865 92.918 94.22 96.1738 90.5581C94.7512 92.1582 92.972 94.0147 90.9528 95.6442C86.0172 99.6273 82.2733 92.1907 84.5865 88.6639Z" fill="#805928"/>
<path fill-rule="evenodd" clip-rule="evenodd" d="M100.375 77.6568C101.826 78.7789 102.642 80.778 102.084 82.9986C101.798 84.1371 101.172 85.1631 100.224 86.3518C99.5524 87.195 98.7063 88.135 97.69 89.2641C97.5848 89.381 97.4777 89.5 97.3688 89.6211C97.4729 89.5967 97.5734 89.5783 97.6687 89.5646C97.9205 89.5285 98.1398 89.5245 98.2969 89.5296C98.3757 89.5321 98.4393 89.537 98.4842 89.5413C98.5067 89.5435 98.5245 89.5455 98.5373 89.5471L98.5461 89.5483C100.841 89.6918 102.192 91.2637 102.568 93.0869C102.941 94.8929 102.369 96.9809 100.807 98.2266L92.8595 106.802C92.8488 106.814 92.8372 106.824 92.8247 106.834C91.4423 107.878 90.145 108.234 89.0396 108.064C87.9319 107.892 87.0639 107.198 86.5345 106.239C85.48 104.328 85.7495 101.354 88.0446 99.101L88.2475 98.8811C88.3818 98.7354 88.5774 98.5233 88.8222 98.2573C89.3118 97.7252 89.9986 96.9777 90.787 96.1157C90.7974 96.1043 90.8078 96.093 90.8183 96.0816C89.6456 96.9308 88.5159 97.1846 87.5001 96.9912C86.4048 96.7826 85.4922 96.0634 84.8327 95.1229C84.1728 94.1819 83.7523 93.0013 83.6455 91.8265C83.5388 90.6526 83.7437 89.4623 84.3632 88.5178C84.4306 88.415 84.5922 88.2243 84.8104 87.9793C85.0347 87.7273 85.3342 87.4011 85.6917 87.0184C86.4068 86.2527 87.3575 85.2568 88.4102 84.1683C90.5154 81.9914 93.0316 79.4406 94.8928 77.6139C94.9045 77.6024 94.9173 77.592 94.931 77.5828C96.8431 76.3009 98.921 76.5315 100.375 77.6568ZM95.9741 90.3811C96.4491 89.8469 96.893 89.3538 97.3065 88.8943C98.3169 87.7718 99.1466 86.85 99.8081 86.02C100.737 84.8541 101.309 83.8989 101.568 82.869C102.074 80.8519 101.331 79.0695 100.05 78.0778C98.777 77.0932 96.959 76.8755 95.2478 78.0114C93.3928 79.8326 90.8893 82.3706 88.7929 84.5384C87.7413 85.6258 86.7929 86.6192 86.0807 87.3818C85.7245 87.7632 85.4282 88.0859 85.208 88.3333C84.9816 88.5875 84.8498 88.7466 84.8084 88.8097C84.2713 89.6286 84.0768 90.6904 84.1757 91.7783C84.2745 92.8652 84.6647 93.9561 85.2686 94.8173C85.8728 95.6789 86.6771 96.2925 87.5997 96.4682C88.515 96.6425 89.5972 96.3954 90.785 95.4369C92.7879 93.8205 94.556 91.9761 95.9741 90.3811ZM96.3664 90.7412C94.7383 92.5722 92.7557 94.7524 91.1799 96.475C90.391 97.3375 89.7038 98.0854 89.2139 98.6178C88.9689 98.884 88.7733 99.0962 88.6388 99.242L88.4314 99.4668C88.4284 99.47 88.4251 99.4734 88.422 99.4765C86.2745 101.581 86.0731 104.301 87.0006 105.982C87.4626 106.819 88.1998 107.395 89.121 107.537C90.0401 107.68 91.1888 107.397 92.4851 106.423L100.43 97.8498C100.44 97.8398 100.45 97.8304 100.461 97.8219C101.855 96.7201 102.387 94.8389 102.047 93.1946C101.71 91.5637 100.526 90.2018 98.504 90.0791C98.4962 90.0786 98.4884 90.0778 98.4807 90.0766L98.4797 90.0765L98.4713 90.0754C98.4633 90.0744 98.4503 90.0729 98.433 90.0712C98.3983 90.0678 98.3461 90.0638 98.2798 90.0617C98.1468 90.0574 97.9593 90.0607 97.7443 90.0916C97.3143 90.1533 96.7914 90.3221 96.3664 90.7412Z" fill="#333333"/>
<path d="M52.5 37.2676H89.7655V74.5331H52.5V37.2676Z" fill="#FFA300" fill-opacity="0.1"/>
<path fill-rule="evenodd" clip-rule="evenodd" d="M89.5075 62.6476H53.3105V62.1152H89.5075V62.6476Z" fill="#69757B"/>
<path d="M54.1202 62.3814C54.1202 62.8288 53.7575 63.1915 53.3101 63.1915C52.8627 63.1915 52.5 62.8288 52.5 62.3814C52.5 61.934 52.8627 61.5713 53.3101 61.5713C53.7575 61.5713 54.1202 61.934 54.1202 62.3814Z" fill="#69757B"/>
<path d="M89.6105 62.3814C89.6105 62.8288 89.2478 63.1915 88.8004 63.1915C88.3529 63.1915 87.9902 62.8288 87.9902 62.3814C87.9902 61.934 88.3529 61.5713 88.8004 61.5713C89.2478 61.5713 89.6105 61.934 89.6105 62.3814Z" fill="#69757B"/>
<path d="M56.9358 24.4025C56.9358 30.5278 51.9702 35.4934 45.8448 35.4934C39.7195 35.4934 34.7539 30.5278 34.7539 24.4025C34.7539 18.2771 39.7195 13.3115 45.8448 13.3115C51.9702 13.3115 56.9358 18.2771 56.9358 24.4025Z" fill="#69757B"/>
<path d="M57.8225 24.4025C57.8225 30.5278 52.8569 35.4934 46.7316 35.4934C40.6062 35.4934 35.6406 30.5278 35.6406 24.4025C35.6406 18.2771 40.6062 13.3115 46.7316 13.3115C52.8569 13.3115 57.8225 18.2771 57.8225 24.4025Z" fill="#FFA300"/>
<path d="M92.4269 70.9839C92.4269 74.9042 89.2489 78.0821 85.3287 78.0821C81.4084 78.0821 78.2305 74.9042 78.2305 70.9839C78.2305 67.0637 81.4084 63.8857 85.3287 63.8857C89.2489 63.8857 92.4269 67.0637 92.4269 70.9839Z" fill="#016D33"/>
<path d="M91.5401 70.9839C91.5401 74.9042 88.3622 78.0821 84.4419 78.0821C80.5217 78.0821 77.3438 74.9042 77.3438 70.9839C77.3438 67.0637 80.5217 63.8857 84.4419 63.8857C88.3622 63.8857 91.5401 67.0637 91.5401 70.9839Z" fill="#00C246"/>
<path fill-rule="evenodd" clip-rule="evenodd" d="M89.0542 68.0728C89.3141 68.3327 89.3141 68.7541 89.0542 69.0139L83.7676 74.3006C83.5077 74.5605 83.0863 74.5605 82.8265 74.3006L80.4234 71.8976C80.1635 71.6377 80.1635 71.2164 80.4234 70.9565C80.6833 70.6966 81.1046 70.6966 81.3645 70.9565L83.297 72.889L88.1131 68.0728C88.373 67.813 88.7944 67.813 89.0542 68.0728Z" fill="white"/>
<path d="M48.3236 23.9488C48.3236 24.6686 48.269 25.3115 48.1598 25.8776C48.0506 26.4437 47.8788 26.9229 47.6442 27.3151C47.4097 27.7073 47.1064 28.0066 46.7344 28.2128C46.3624 28.415 45.9156 28.5161 45.394 28.5161C44.7349 28.5161 44.189 28.3361 43.7564 27.9762C43.3277 27.6164 43.0063 27.0968 42.792 26.4174C42.5817 25.7341 42.4766 24.9112 42.4766 23.9488C42.4766 23.0026 42.5716 22.1899 42.7616 21.5106C42.9557 20.8272 43.2671 20.3036 43.6957 19.9396C44.1243 19.5717 44.6904 19.3877 45.394 19.3877C46.0612 19.3877 46.6111 19.5697 47.0438 19.9336C47.4764 20.2935 47.7979 20.8151 48.0082 21.4984C48.2184 22.1778 48.3236 22.9946 48.3236 23.9488ZM43.4895 23.9488C43.4895 24.7737 43.5522 25.4611 43.6775 26.0111C43.8029 26.561 44.005 26.9734 44.284 27.2484C44.5671 27.5193 44.9371 27.6548 45.394 27.6548C45.8509 27.6548 46.2189 27.5193 46.4979 27.2484C46.7809 26.9775 46.9851 26.5671 47.1105 26.0171C47.2399 25.4672 47.3046 24.7778 47.3046 23.9488C47.3046 23.1361 47.2419 22.4568 47.1166 21.9109C46.9912 21.361 46.789 20.9485 46.51 20.6736C46.231 20.3945 45.859 20.255 45.394 20.255C44.929 20.255 44.557 20.3945 44.278 20.6736C43.999 20.9485 43.7968 21.361 43.6714 21.9109C43.5501 22.4568 43.4895 23.1361 43.4895 23.9488Z" fill="#333333"/>
<path d="M50.0812 30.6336V29.8148C49.7823 29.8096 49.4963 29.7836 49.2234 29.7368C48.9531 29.69 48.7321 29.629 48.5605 29.5536V28.9219C48.7399 29.0051 48.97 29.0779 49.2507 29.1403C49.5314 29.2026 49.8083 29.2364 50.0812 29.2416V27.526C49.7381 27.4298 49.4534 27.3207 49.2273 27.1985C49.0037 27.0737 48.8361 26.9216 48.7243 26.7423C48.6125 26.5629 48.5566 26.3459 48.5566 26.0911C48.5566 25.826 48.619 25.5998 48.7438 25.4127C48.8712 25.2229 49.0492 25.0747 49.278 24.9682C49.5067 24.8616 49.7745 24.8005 50.0812 24.7849V24.1104H50.5569V24.7771C50.835 24.7849 51.0885 24.8161 51.3172 24.8707C51.546 24.9227 51.7578 24.9903 51.9528 25.0734L51.75 25.6154C51.5733 25.5452 51.3822 25.4855 51.1769 25.4361C50.9715 25.3867 50.7649 25.3529 50.5569 25.3347V27.0386C50.9052 27.14 51.1964 27.2479 51.4303 27.3622C51.6669 27.4766 51.8449 27.6183 51.9645 27.7873C52.0841 27.9562 52.1439 28.1746 52.1439 28.4423C52.1439 28.8218 52.0048 29.1286 51.7267 29.3625C51.4485 29.5939 51.0586 29.7342 50.5569 29.7836V30.6336H50.0812ZM50.5569 29.2065C50.8766 29.1754 51.1145 29.0987 51.2705 28.9765C51.429 28.8517 51.5083 28.688 51.5083 28.4852C51.5083 28.3396 51.4771 28.2201 51.4147 28.1265C51.3549 28.0329 51.2562 27.9523 51.1184 27.8847C50.9806 27.8145 50.7935 27.7483 50.5569 27.6859V29.2065ZM50.0812 26.8749V25.3503C49.8863 25.3633 49.7225 25.3997 49.5899 25.4595C49.4573 25.5192 49.3573 25.5972 49.2897 25.6934C49.2247 25.7896 49.1922 25.904 49.1922 26.0365C49.1922 26.1899 49.2208 26.3186 49.278 26.4226C49.3378 26.5239 49.4327 26.611 49.5626 26.6838C49.6952 26.754 49.8681 26.8177 50.0812 26.8749Z" fill="#333333"/>
<path fill-rule="evenodd" clip-rule="evenodd" d="M32.2309 4.38428C32.3951 4.27723 32.615 4.32354 32.722 4.48774L37.5681 11.9202C37.6752 12.0844 37.6288 12.3043 37.4646 12.4113C37.3004 12.5184 37.0806 12.4721 36.9735 12.3079L32.1274 4.87542C32.0204 4.71123 32.0667 4.49134 32.2309 4.38428Z" fill="#165C7D"/>
<path fill-rule="evenodd" clip-rule="evenodd" d="M27.0692 13.1713C27.1096 12.9795 27.2979 12.8567 27.4897 12.8971L34.4355 14.3602C34.6273 14.4006 34.75 14.5888 34.7096 14.7806C34.6692 14.9725 34.481 15.0952 34.2892 15.0548L27.3434 13.5917C27.1516 13.5513 27.0288 13.3631 27.0692 13.1713Z" fill="#165C7D"/>
<path fill-rule="evenodd" clip-rule="evenodd" d="M42.1 3.37118C41.9082 3.33078 41.7199 3.45351 41.6795 3.64532L40.2165 10.5911C40.1761 10.7829 40.2988 10.9711 40.4906 11.0115C40.6824 11.0519 40.8706 10.9292 40.911 10.7374L42.3741 3.79162C42.4145 3.59982 42.2918 3.41158 42.1 3.37118Z" fill="#165C7D"/>
<defs>
<clipPath id="clip0_19798_33508">
<rect width="28.3928" height="28.3928" fill="white" transform="translate(56.9355 41.7041)"/>
</clipPath>
</defs>
</svg>
