<svg width="171" height="160" viewBox="0 0 171 160" fill="none" xmlns="http://www.w3.org/2000/svg">
<path d="M125.037 64.5806C126.985 66.9175 132.437 65.3508 133.606 64.442L134.774 60.1618C135.294 57.9548 136.176 52.4501 135.553 48.0878C134.774 42.6351 126.02 45.5474 123.869 47.6984C121.921 49.6458 120.104 53.281 118.416 55.0985H119.974C119.662 55.7217 119.844 57.4355 119.974 58.2144C120.104 59.253 119.273 61.0187 121.142 61.3303C122.506 61.5575 124.367 60.9007 125.425 60.176L125.037 64.5806Z" fill="#E5B870"/>
<path fill-rule="evenodd" clip-rule="evenodd" d="M126.4 45.8707C125.252 46.3664 124.272 46.9659 123.704 47.5335C122.711 48.5269 121.757 49.9434 120.85 51.3189C120.783 51.4216 120.715 51.524 120.648 51.6261C119.809 52.9029 119.011 54.1149 118.245 54.9398C118.182 55.0079 118.165 55.107 118.202 55.1922C118.24 55.2774 118.324 55.3325 118.417 55.3325H119.651C119.624 55.4538 119.605 55.5841 119.592 55.7169C119.566 55.9913 119.564 56.2993 119.576 56.6071C119.599 57.2202 119.677 57.8508 119.743 58.2482C119.771 58.4765 119.747 58.7529 119.716 59.0735C119.715 59.0861 119.714 59.0987 119.713 59.1114C119.684 59.4126 119.651 59.7464 119.673 60.0614C119.696 60.3924 119.78 60.7297 120.01 61.0075C120.242 61.2879 120.599 61.4768 121.104 61.5611C121.834 61.6827 122.678 61.5664 123.465 61.3346C124.074 61.155 124.662 60.9022 125.152 60.6223L124.797 64.6564L124.858 64.7305C125.389 65.3677 126.15 65.7272 126.986 65.9017C127.822 66.0761 128.75 66.0692 129.642 65.9607C130.536 65.852 131.403 65.6402 132.123 65.3974C132.836 65.1568 133.426 64.8785 133.75 64.6267L133.811 64.5789L135.003 60.2157C135.525 57.9976 136.415 52.4597 135.785 48.0551C135.58 46.6164 134.839 45.7082 133.803 45.2135C132.782 44.7262 131.497 44.6497 130.198 44.8101C128.894 44.9709 127.552 45.3732 126.4 45.8707ZM125.358 59.9389C125.705 59.692 125.918 59.4626 125.992 59.2911C126.042 59.1725 126.18 59.1175 126.298 59.1684C126.417 59.2192 126.472 59.3566 126.421 59.4752C126.298 59.7614 126.008 60.0473 125.649 60.3051L125.279 64.5028C125.72 64.9915 126.347 65.2908 127.082 65.4441C127.852 65.6048 128.726 65.6014 129.586 65.4967C130.445 65.3922 131.282 65.188 131.974 64.9545C132.622 64.7358 133.125 64.4977 133.402 64.3025L134.548 60.1046C135.065 57.9059 135.939 52.4384 135.323 48.1212C135.139 46.8335 134.493 46.0609 133.601 45.6353C132.694 45.2022 131.511 45.1189 130.255 45.2739C129.003 45.4284 127.704 45.8167 126.586 46.2998C125.463 46.7848 124.542 47.356 124.034 47.864C123.081 48.8179 122.152 50.1926 121.241 51.576C121.171 51.6817 121.101 51.7876 121.032 51.8933C120.32 52.9756 119.618 54.0436 118.933 54.8651H120.353L120.184 55.2033C120.125 55.32 120.081 55.5093 120.058 55.7611C120.034 56.0078 120.031 56.2936 120.043 56.5896C120.065 57.1813 120.141 57.7944 120.205 58.1763L120.206 58.1857C120.243 58.4759 120.211 58.8081 120.182 59.1183L120.18 59.1402C120.149 59.4542 120.12 59.7536 120.139 60.0292C120.159 60.3084 120.226 60.5358 120.37 60.7092C120.511 60.8799 120.752 61.0286 121.181 61.1001C121.815 61.2057 122.583 61.1072 123.333 60.8863C124.056 60.6732 124.741 60.3522 125.244 60.0174C125.273 59.9806 125.312 59.953 125.358 59.9389Z" fill="#333333"/>
<path fill-rule="evenodd" clip-rule="evenodd" d="M123.799 51.4166C123.597 51.3872 123.353 51.4816 123.183 51.5979C123.076 51.6706 122.931 51.6431 122.858 51.5365C122.785 51.4299 122.813 51.2845 122.919 51.2118C123.135 51.0643 123.5 50.9006 123.866 50.9541C124.058 50.982 124.246 51.0691 124.401 51.2388C124.553 51.4054 124.661 51.6385 124.724 51.9415C124.75 52.0679 124.669 52.1915 124.542 52.2177C124.416 52.2438 124.292 52.1625 124.266 52.0361C124.215 51.789 124.135 51.6411 124.055 51.5539C123.979 51.4697 123.892 51.4301 123.799 51.4166Z" fill="#333333"/>
<path d="M162.818 146.759C162.818 154.073 126.373 160.002 81.4158 160.002C36.4587 160.002 0.0136719 154.073 0.0136719 146.759C0.0136719 139.445 36.4587 133.517 81.4158 133.517C126.373 133.517 162.818 139.445 162.818 146.759Z" fill="#C8CCD0"/>
<path d="M44.5725 127.088L33.509 129.123C32.0791 126.877 32.2095 123.806 32.73 122.502L43.123 120.229L44.5725 127.088Z" fill="#E5B870"/>
<path fill-rule="evenodd" clip-rule="evenodd" d="M43.2492 120.033C43.3015 120.067 43.3382 120.12 43.351 120.181L44.8005 127.04C44.8135 127.102 44.8011 127.166 44.766 127.218C44.7309 127.271 44.6761 127.307 44.6141 127.318L33.5506 129.353C33.457 129.37 33.3624 129.329 33.3112 129.249C32.5696 128.084 32.2372 126.714 32.1543 125.475C32.0716 124.24 32.2355 123.109 32.5123 122.415C32.5411 122.343 32.6037 122.29 32.6795 122.274L43.0725 120.001C43.1333 119.988 43.1969 119.999 43.2492 120.033ZM42.9424 120.508L32.9035 122.703C32.6842 123.327 32.5459 124.327 32.6206 125.444C32.6966 126.58 32.9917 127.812 33.6231 128.865L44.2936 126.902L42.9424 120.508Z" fill="#333333"/>
<path d="M27.8125 131.073L33.7253 129.105C32.1505 125.36 32.4143 123.111 32.7431 122.454C31.8405 120.976 29.6417 117.329 28.0664 114.569C26.4912 111.81 23.5513 112.514 22.2783 113.212L27.8125 131.073Z" fill="#333333"/>
<path fill-rule="evenodd" clip-rule="evenodd" d="M32.9514 122.558C32.9875 122.486 32.9839 122.4 32.9419 122.332C32.0398 120.854 29.8423 117.209 28.2688 114.453C27.4389 112.999 26.2365 112.447 25.0758 112.361C23.9294 112.275 22.8312 112.641 22.1654 113.006C22.0679 113.06 22.0215 113.174 22.0544 113.28L27.5886 131.142C27.6072 131.202 27.6492 131.252 27.7051 131.281C27.761 131.309 27.826 131.314 27.8856 131.294L33.7985 129.327C33.8603 129.306 33.9107 129.261 33.9375 129.201C33.9644 129.142 33.9654 129.074 33.9401 129.014C33.1609 127.161 32.8402 125.687 32.7527 124.602C32.6645 123.509 32.8144 122.832 32.9514 122.558ZM32.4793 122.471C32.3157 122.885 32.2043 123.617 32.2868 124.64C32.3751 125.733 32.6864 127.178 33.4128 128.962L27.9645 130.776L22.5588 113.329C23.1742 113.028 24.0963 112.756 25.041 112.827C26.0623 112.903 27.1175 113.379 27.8629 114.685C29.4039 117.384 31.5402 120.93 32.4793 122.471Z" fill="#333333"/>
<path d="M83.2713 50.0903C82.3935 50.1683 82.6213 51.0716 82.8449 51.5135C84.1865 54.1648 86.6534 60.1792 87.463 61.4925C88.1953 62.6806 88.6824 62.7694 89.231 62.7206C90.125 62.4103 91.6283 61.5661 91.8518 61.1023C92.2006 60.3787 92.2782 59.6791 91.6074 58.3535C91.0533 57.2585 88.3191 52.135 87.7824 51.0744C87.2458 50.0139 86.6071 49.7937 86.4242 49.8099L83.2713 50.0903Z" fill="#C6CED1"/>
<path d="M84.2914 50.6921C83.6187 50.7519 83.8386 52.2027 84.013 52.5761C85.0597 54.8161 87.3212 59.6458 87.9509 60.7564C88.5205 61.7611 88.5653 62.0871 88.9857 62.0497C89.6693 61.7945 91.0935 61.0695 91.2618 60.6808C91.5244 60.0741 91.5825 59.5221 91.0592 58.4021C90.6269 57.477 88.2156 53.1356 87.7969 52.2396C87.3782 51.3436 87.0344 50.4482 85.9372 50.5458L84.2914 50.6921Z" fill="#E1E5E7"/>
<path d="M99.6051 82.6428C102.689 83.6393 108.682 81.3258 108.682 81.3258C110.869 77.114 109.202 75.325 107.903 73.5361L101.246 74.5921L89.7925 63.2879C89.3041 62.1194 89.0137 59.0036 88.6242 58.2246C88.3455 57.6672 88.2347 57.4457 87.8452 57.4457L87.4557 60.951C86.6768 60.1721 83.9504 53.9403 83.9504 53.9403C83.5447 53.4898 83.1715 55.4982 83.1715 55.4982C83.1715 55.4982 82.7819 56.6667 83.5609 58.2246L84.7293 62.1194L87.8452 65.6248C87.8452 65.6248 96.1782 81.5355 99.6051 82.6428Z" fill="#E5B870"/>
<path fill-rule="evenodd" clip-rule="evenodd" d="M83.3308 56.6916C83.3772 57.0927 83.4989 57.5807 83.7687 58.1204C83.7747 58.1324 83.7797 58.1449 83.7836 58.1577L84.9371 62.0031L88.0187 65.4698C88.0313 65.484 88.0422 65.4998 88.0511 65.5166L87.844 65.6251C88.0511 65.5166 88.051 65.5165 88.0511 65.5166L88.0748 65.5619L88.145 65.6946C88.2067 65.8111 88.2976 65.9822 88.4147 66.2004C88.6489 66.6369 88.9873 67.2618 89.4041 68.0153C90.2379 69.5224 91.3848 71.5428 92.6384 73.5971C93.8925 75.6524 95.2504 77.7369 96.5061 79.3746C97.1342 80.1937 97.7331 80.8963 98.2777 81.4264C98.8281 81.9621 99.301 82.2996 99.6758 82.4207C100.405 82.6563 101.323 82.7004 102.305 82.6247C103.284 82.5492 104.309 82.3562 105.244 82.131C106.178 81.906 107.017 81.65 107.623 81.45C107.925 81.3501 108.17 81.2644 108.338 81.2037C108.412 81.177 108.471 81.1552 108.514 81.1391C109.551 79.1107 109.656 77.6925 109.372 76.5804C109.116 75.5769 108.541 74.798 107.956 74.0059C107.903 73.934 107.85 73.8619 107.797 73.7896L101.281 74.8231C101.208 74.8348 101.133 74.8108 101.08 74.7586L89.6272 63.4545C89.6052 63.4328 89.5877 63.4069 89.5757 63.3783C89.3191 62.7643 89.1201 61.6613 88.94 60.6515C88.935 60.6236 88.9301 60.5957 88.9251 60.5679C88.8391 60.0851 88.7564 59.6216 88.6727 59.2291C88.5824 58.806 88.4961 58.4937 88.414 58.3294C88.2684 58.0381 88.1861 57.878 88.1005 57.7817C88.0816 57.7605 88.0642 57.7444 88.0474 57.7319L87.6868 60.9771C87.6769 61.0664 87.6167 61.1421 87.5319 61.1718C87.4471 61.2015 87.3528 61.18 87.2893 61.1165C87.1701 60.9974 87.0298 60.793 86.8807 60.5479C86.728 60.2971 86.5551 59.985 86.3714 59.6361C86.0039 58.9378 85.5884 58.0822 85.1983 57.2533C84.8081 56.424 84.4423 55.6193 84.1742 55.0222C84.0401 54.7235 83.9304 54.4767 83.8542 54.3044C83.8359 54.2631 83.8195 54.2261 83.8052 54.1937C83.7945 54.2125 83.7835 54.2332 83.7725 54.2555C83.7756 54.2624 83.7784 54.2694 83.7809 54.2767L85.1431 58.2711C85.1848 58.3932 85.1195 58.526 84.9974 58.5677C84.8752 58.6093 84.7424 58.5441 84.7008 58.4219L83.5269 54.9799C83.5025 55.0741 83.4809 55.1641 83.4628 55.2436C83.4426 55.3322 83.4268 55.4071 83.4161 55.4597C83.4145 55.4676 83.413 55.4751 83.4116 55.482L84.3641 58.271C84.4059 58.3931 84.3407 58.5259 84.2185 58.5676C84.0964 58.6094 83.9636 58.5442 83.9218 58.422L83.3308 56.6916ZM82.9432 55.4419L82.9421 55.4453C82.9387 55.4567 82.9342 55.4726 82.9289 55.4927C82.9184 55.533 82.9049 55.5905 82.8917 55.6636C82.8651 55.8097 82.8392 56.0185 82.8392 56.2774C82.8392 56.7924 82.9416 57.5036 83.3416 58.3111L84.5043 62.1868C84.5141 62.2194 84.5309 62.2495 84.5535 62.275L87.6504 65.759L87.6613 65.7796L87.7319 65.9134C87.794 66.0305 87.8854 66.2024 88.0029 66.4214C88.2378 66.8593 88.5772 67.4861 88.9951 68.2415C89.8309 69.7522 90.9813 71.7787 92.2394 73.8405C93.4968 75.9013 94.8647 78.002 96.1352 79.659C96.7703 80.4873 97.3846 81.2093 97.9517 81.7613C98.513 82.3077 99.0501 82.7097 99.5321 82.8654C100.345 83.128 101.332 83.1684 102.341 83.0907C103.353 83.0126 104.404 82.814 105.353 82.5854C106.303 82.3566 107.155 82.0966 107.769 81.8939C108.076 81.7925 108.325 81.7053 108.496 81.6433C108.582 81.6123 108.649 81.5877 108.694 81.5707L108.746 81.5511L108.76 81.5459L108.763 81.5446L108.764 81.5442C108.764 81.5442 108.765 81.5441 108.68 81.326L108.764 81.5442C108.817 81.5237 108.862 81.4843 108.888 81.4337C110 79.2927 110.149 77.7329 109.825 76.4648C109.544 75.3663 108.911 74.51 108.329 73.7239C108.248 73.6144 108.168 73.5063 108.091 73.399C108.039 73.3279 107.952 73.2918 107.865 73.3056L101.324 74.343L89.9896 63.1556C89.7657 62.5916 89.5801 61.5785 89.4001 60.5694C89.395 60.5405 89.3898 60.5117 89.3847 60.4828C89.2992 60.003 89.2152 59.5321 89.1297 59.1316C89.0408 58.7148 88.9446 58.3456 88.832 58.1204C88.8275 58.1112 88.8229 58.1021 88.8184 58.093C88.6912 57.8386 88.5818 57.6196 88.4497 57.4711C88.3756 57.3878 88.2893 57.3195 88.1821 57.2741C88.0763 57.2292 87.9635 57.2122 87.844 57.2122C87.725 57.2122 87.6249 57.3018 87.6118 57.4201L87.2895 60.3206C87.2863 60.3154 87.2831 60.3102 87.2799 60.3049C87.1344 60.0658 86.9665 59.7632 86.785 59.4184C86.4223 58.7291 86.0101 57.8808 85.6212 57.0543C85.2325 56.2283 84.868 55.4263 84.6006 54.8307C84.4669 54.533 84.3575 54.2869 84.2816 54.1153C84.2436 54.0295 84.214 53.9623 84.1939 53.9167L84.1634 53.8472C84.1534 53.8242 84.1396 53.8028 84.1229 53.7842C84.0357 53.6874 83.9034 53.6127 83.7446 53.651C83.6134 53.6825 83.5237 53.78 83.4682 53.8553C83.3517 54.0134 83.2577 54.2544 83.1852 54.4787C83.1102 54.7108 83.0492 54.9552 83.0071 55.1397C82.9859 55.2324 82.9694 55.3109 82.9581 55.3664C82.9525 55.3942 82.9481 55.4163 82.9451 55.4315L82.9432 55.4419Z" fill="#333333"/>
<path d="M42.0794 128.453L40.5215 115.21L51.0376 113.383L67.0064 98.4625C68.5643 96.9046 70.9763 96.5925 72.8487 96.9046C75.1856 97.2941 93.1421 100.41 102.449 101.189C105.105 97.2392 109.135 93.8641 111.797 91.8413C112.187 91.4518 112.645 90.8909 112.965 90.6729L118.029 92.4518L127.376 96.1256L126.783 97.2941L124.261 103.915C120.21 115.444 112.446 119.624 109.071 120.274L42.0794 128.453Z" fill="#165C7D"/>
<path fill-rule="evenodd" clip-rule="evenodd" d="M112.833 90.4799C112.895 90.4382 112.972 90.4281 113.042 90.4527L118.114 92.2345L127.461 95.9084C127.523 95.9325 127.571 95.9813 127.594 96.0429C127.618 96.1045 127.614 96.173 127.584 96.2318L126.996 97.3891L124.48 103.993C124.48 103.994 124.48 103.995 124.479 103.996C120.403 115.595 112.577 119.837 109.114 120.503C109.111 120.504 109.108 120.505 109.104 120.505C109.102 120.505 109.1 120.506 109.098 120.506L42.1071 128.685C42.0454 128.693 41.9832 128.675 41.9344 128.637C41.8855 128.598 41.8539 128.542 41.8467 128.48L40.2887 115.238C40.2742 115.115 40.3586 115.002 40.4808 114.98L50.9282 113.165L66.8433 98.2948C68.4744 96.6661 70.9734 96.3555 72.8864 96.6744C73.0816 96.7069 73.3851 96.7583 73.7828 96.8258C78.1361 97.5635 93.7802 100.215 102.332 100.945C105.006 97.0175 109.001 93.6733 111.642 91.6652C111.765 91.5414 111.894 91.4027 112.025 91.2603C112.094 91.185 112.165 91.1087 112.236 91.033C112.437 90.8193 112.649 90.6056 112.833 90.4799ZM111.789 92.1409C109.133 94.1711 105.227 97.4754 102.643 101.32C101.724 102.686 101.226 103.722 100.722 105.161C100.694 105.242 100.624 105.3 100.54 105.315L51.0769 113.614L51.0756 113.614L40.7788 115.403L42.2834 128.193L109.034 120.043C112.326 119.406 120.017 115.286 124.039 103.838L124.041 103.832L126.462 97.4774C124.144 97.0669 120.51 95.9673 117.345 94.6741C116.901 95.4533 116.575 96.6513 116.929 97.9009C117.306 99.232 118.471 100.678 121.229 101.75C121.349 101.797 121.409 101.933 121.362 102.053C121.315 102.173 121.18 102.233 121.059 102.186C118.209 101.077 116.907 99.5401 116.479 98.0282C116.092 96.6606 116.433 95.36 116.91 94.4953C116.446 94.3067 115.991 94.1293 115.549 93.9574L115.502 93.9391C114.969 93.7312 114.456 93.5309 113.98 93.33C113.113 92.9641 112.347 92.5876 111.789 92.1409ZM126.651 97.0359L127.051 96.2494L117.947 92.6712L113.005 90.9351C112.884 91.0344 112.739 91.1804 112.577 91.3532C112.512 91.4217 112.445 91.4942 112.377 91.5677C112.299 91.6529 112.219 91.7394 112.14 91.8224C112.638 92.2053 113.329 92.5482 114.161 92.8994C114.63 93.0973 115.137 93.2953 115.672 93.5036L115.721 93.5225C116.24 93.7247 116.784 93.9366 117.338 94.1659C120.576 95.5045 124.34 96.6416 126.651 97.0359ZM51.7632 113.025L100.327 104.876C100.787 103.584 101.256 102.594 102.037 101.388C93.41 100.626 78.0044 98.0153 73.7021 97.2861C73.3056 97.2189 73.0035 97.1677 72.8096 97.1354C70.9789 96.8303 68.6558 97.1433 67.171 98.6281L67.1654 98.6337L51.7632 113.025Z" fill="#135371"/>
<path d="M127.377 96.1262L112.966 90.2839C111.719 87.7912 111.927 85.6101 112.187 81.7153C111.252 81.7974 109.72 81.7495 108.681 81.7153L107.902 73.1466C108.214 72.835 113.355 70.0307 115.303 68.8623C118.029 66.5254 118.418 65.3569 125.04 64.1885C126.286 65.7464 131.271 65.7464 133.219 64.1885C134.387 65.2271 136.763 67.064 137.114 71.9782C137.503 77.4309 131.531 90.4137 127.377 96.1262Z" fill="#007D8A"/>
<path fill-rule="evenodd" clip-rule="evenodd" d="M124.998 63.9577C125.083 63.9428 125.168 63.9751 125.222 64.0418C125.489 64.3766 125.981 64.6506 126.634 64.8397C127.281 65.027 128.06 65.1226 128.866 65.1226C130.49 65.1226 132.159 64.7355 133.072 64.0053C133.161 63.9342 133.288 63.9375 133.373 64.0131C133.432 64.0655 133.495 64.1202 133.56 64.1775C134.137 64.6832 134.946 65.3929 135.668 66.5018C136.474 67.7398 137.168 69.466 137.346 71.9608C137.446 73.3642 137.138 75.2289 136.565 77.3096C135.992 79.3955 135.148 81.718 134.164 84.0452C132.196 88.697 129.656 93.3879 127.565 96.2629C127.502 96.3498 127.388 96.3824 127.288 96.3421L112.877 90.4998C112.824 90.4784 112.781 90.4386 112.756 90.3877C111.532 87.9397 111.678 85.7745 111.919 82.2007C111.924 82.1234 111.93 82.0455 111.935 81.9669C110.979 82.0224 109.613 81.9791 108.673 81.9481C108.555 81.9443 108.459 81.8532 108.448 81.7357L107.669 73.1671C107.663 73.098 107.687 73.0297 107.736 72.9807C107.773 72.9441 107.828 72.904 107.882 72.8667C107.942 72.826 108.017 72.7773 108.105 72.7221C108.283 72.6115 108.519 72.4705 108.798 72.3076C109.356 71.9817 110.09 71.5646 110.873 71.1216C111.134 70.9742 111.4 70.8239 111.668 70.6731C113 69.9215 114.354 69.1573 115.165 68.6713C115.539 68.3504 115.872 68.0481 116.186 67.7628C116.989 67.0346 117.669 66.4172 118.593 65.8841C119.894 65.1333 121.679 64.5434 124.998 63.9577ZM115.39 69.0815C114.571 69.5714 113.218 70.3347 111.895 71.0814C111.629 71.2319 111.363 71.3817 111.103 71.5285C110.319 71.9716 109.588 72.3871 109.033 72.7111C108.756 72.8733 108.524 73.0116 108.353 73.1185C108.267 73.1721 108.198 73.2167 108.147 73.2519C108.147 73.2522 108.146 73.2524 108.146 73.2526L108.895 81.4877C109.924 81.5209 111.307 81.5572 112.165 81.4818C114.299 81.2878 115.924 80.9985 117.448 80.332C118.97 79.6661 120.407 78.616 122.147 76.8755C122.239 76.7843 122.387 76.7843 122.478 76.8755C122.569 76.9668 122.569 77.1147 122.478 77.206C120.713 78.9708 119.229 80.063 117.635 80.7602C116.092 81.4353 114.462 81.7331 112.406 81.9288C112.4 82.0108 112.395 82.092 112.39 82.1724C112.148 85.7642 112.011 87.8006 113.135 90.1L127.294 95.84C129.337 92.9905 131.808 88.4143 133.733 83.8631C134.712 81.5488 135.548 79.2463 136.115 77.1857C136.683 75.1201 136.974 73.3171 136.88 71.9941C136.707 69.5748 136.037 67.9255 135.276 66.7569C134.591 65.7045 133.827 65.0343 133.252 64.5288C133.236 64.5155 133.221 64.5022 133.206 64.489C132.153 65.2356 130.45 65.5899 128.866 65.5899C128.026 65.5899 127.203 65.4908 126.504 65.2886C125.869 65.1047 125.312 64.8285 124.95 64.4411C121.732 65.016 120.041 65.5885 118.827 66.289C117.949 66.7955 117.32 67.366 116.535 68.0782C116.412 68.19 116.285 68.3052 116.153 68.4243C116.824 68.2607 117.207 68.1464 117.486 68.0632C117.636 68.0185 117.756 67.9828 117.874 67.9533C118.292 67.8489 118.616 67.8489 119.91 67.8489L119.976 67.8489C120.105 67.8489 120.209 67.9536 120.209 68.0826C120.209 68.2117 120.105 68.3163 119.976 68.3163C118.598 68.3163 118.342 68.3181 117.988 68.4067C117.893 68.4304 117.786 68.4622 117.648 68.5034C117.267 68.6166 116.649 68.8007 115.39 69.0815Z" fill="#007D8A"/>
<path d="M121.142 45.1028C120.363 48.9976 127.244 49.1274 128.932 48.6081C129.322 50.166 131.454 50.223 130.88 53.6714C131.399 52.8925 132.827 51.724 133.995 52.8925C134.789 53.687 133.606 54.9697 132.827 55.6188C132.128 56.2013 128.932 61.4611 128.932 64.5769C128.932 68.4718 129.711 69.2507 130.101 71.1982C130.49 73.1456 146.459 73.1456 144.901 71.9772C143.343 70.8087 142.564 61.0716 142.174 51.724C141.863 44.2459 135.949 41.8571 133.031 41.5974C129.322 38.871 123.479 40.429 121.142 45.1028Z" fill="#8F6E0D"/>
<path fill-rule="evenodd" clip-rule="evenodd" d="M133.103 41.4087C129.281 38.6455 123.343 40.2676 120.969 45.0159C120.961 45.0314 120.955 45.0479 120.952 45.0648C120.744 46.104 121.05 46.9087 121.658 47.5058C122.255 48.0926 123.134 48.469 124.066 48.7C125.002 48.9318 126.012 49.0221 126.894 49.0221C127.659 49.0221 128.341 48.9542 128.801 48.8453C128.922 49.1856 129.12 49.4555 129.336 49.7007C129.436 49.8133 129.542 49.9237 129.647 50.0325C129.675 50.0619 129.703 50.0912 129.731 50.1204C129.864 50.2594 129.994 50.3995 130.116 50.5524C130.357 50.8557 130.567 51.2097 130.684 51.6908C130.801 52.1739 130.829 52.7967 130.688 53.6396C130.673 53.7302 130.723 53.819 130.809 53.8528C130.894 53.8865 130.991 53.8561 131.042 53.7797C131.286 53.4134 131.746 52.956 132.271 52.7309C132.531 52.6195 132.799 52.5682 133.062 52.6048C133.323 52.641 133.593 52.7654 133.858 53.0304C134.016 53.1882 134.072 53.3631 134.063 53.5534C134.054 53.7519 133.972 53.9756 133.833 54.2119C133.556 54.6846 133.085 55.1506 132.702 55.4695C132.596 55.5581 132.458 55.7202 132.303 55.9266C132.145 56.1372 131.96 56.4069 131.76 56.7216C131.358 57.3512 130.89 58.1666 130.443 59.0612C129.556 60.8406 128.738 62.97 128.738 64.5771C128.738 67.3315 129.131 68.5722 129.496 69.7226C129.65 70.2078 129.798 70.6768 129.91 71.2366C129.947 71.4226 130.072 71.5735 130.23 71.6949C130.388 71.8174 130.598 71.9247 130.842 72.0203C131.331 72.2116 131.996 72.3694 132.765 72.4981C134.305 72.7558 136.299 72.9022 138.227 72.951C140.154 72.9998 142.026 72.9512 143.321 72.8162C143.964 72.7492 144.483 72.6592 144.797 72.5417C144.877 72.5117 144.95 72.4776 145.012 72.4374C145.071 72.3987 145.133 72.3446 145.171 72.2689C145.213 72.1834 145.213 72.0892 145.175 72.0033C145.14 71.9269 145.08 71.8677 145.018 71.8216C144.866 71.7071 144.699 71.4663 144.532 71.0779C144.367 70.6956 144.21 70.1945 144.062 69.5883C143.767 68.3765 143.512 66.7668 143.293 64.8954C142.856 61.1539 142.564 56.3885 142.37 51.7161C142.211 47.9202 140.628 45.4027 138.705 43.8043C136.811 42.2303 134.595 41.5529 133.103 41.4087ZM121.329 45.1666C123.627 40.6039 129.324 39.1139 132.916 41.7546C132.944 41.7757 132.978 41.7885 133.014 41.7916C134.439 41.9185 136.608 42.568 138.456 44.1038C140.297 45.6343 141.827 48.0502 141.98 51.7324C142.175 56.4076 142.468 61.1845 142.907 64.9406C143.126 66.818 143.383 68.4459 143.684 69.6806C143.834 70.2976 143.997 70.822 144.174 71.2323C144.346 71.6309 144.542 71.9468 144.775 72.1257C144.747 72.1412 144.709 72.1586 144.66 72.1769C144.398 72.2754 143.922 72.3619 143.281 72.4288C142.008 72.5615 140.155 72.6102 138.236 72.5617C136.318 72.5131 134.344 72.3674 132.829 72.1139C132.07 71.9869 131.436 71.8344 130.984 71.6575C130.757 71.569 130.585 71.4777 130.468 71.3868C130.349 71.2949 130.304 71.2176 130.292 71.1602C130.17 70.5482 130.014 70.0576 129.856 69.5615C129.496 68.4301 129.127 67.2702 129.127 64.5771C129.127 63.0684 129.907 61.01 130.792 59.235C131.232 58.3524 131.694 57.5489 132.088 56.9311C132.285 56.6221 132.464 56.3609 132.615 56.1603C132.769 55.9553 132.883 55.8257 132.952 55.7687C133.348 55.4384 133.859 54.9384 134.169 54.4089C134.325 54.144 134.439 53.8575 134.452 53.5718C134.466 53.2779 134.373 52.9945 134.133 52.755C133.814 52.4358 133.468 52.268 133.116 52.219C132.766 52.1704 132.426 52.2409 132.118 52.3729C131.752 52.5298 131.42 52.7782 131.154 53.0409C131.199 52.4705 131.16 51.9993 131.062 51.5988C130.929 51.0506 130.689 50.6464 130.42 50.3097C130.287 50.1426 130.147 49.9922 130.012 49.8512C129.982 49.8199 129.953 49.7893 129.924 49.7591C129.82 49.6512 129.721 49.5486 129.628 49.4429C129.392 49.1754 129.208 48.9074 129.122 48.5611C129.109 48.5092 129.075 48.465 129.028 48.4387C128.982 48.4124 128.926 48.4065 128.875 48.4222C128.481 48.5437 127.756 48.6327 126.894 48.6327C126.036 48.6327 125.058 48.5445 124.16 48.3219C123.258 48.0985 122.457 47.7446 121.931 47.2279C121.42 46.7262 121.157 46.062 121.329 45.1666Z" fill="#8F6E0D"/>
<path d="M133.218 56.0093C133.218 56.6546 132.695 57.1777 132.049 57.1777C131.404 57.1777 130.881 56.6546 130.881 56.0093C130.881 55.364 131.404 54.8408 132.049 54.8408C132.695 54.8408 133.218 55.364 133.218 56.0093Z" fill="#E1E5E7"/>
<path d="M25.7207 0.3125L50.4529 2.06518L75.1852 3.81786L74.7412 26.0184L74.4062 42.7663L74.1336 56.3982L73.6272 81.7146L49.674 80.7409L25.7207 79.7672V54.0613V22.9026V0.3125Z" fill="#C6CED1"/>
<path fill-rule="evenodd" clip-rule="evenodd" d="M25.5074 0.0845848C25.5707 0.0256459 25.6556 -0.00435526 25.7418 0.0017568L75.2063 3.50711C75.3718 3.51884 75.4991 3.65824 75.4958 3.82415L73.9378 81.7209C73.9362 81.8047 73.9009 81.8842 73.8399 81.9416C73.7789 81.999 73.6973 82.0294 73.6137 82.026L25.7071 80.0786C25.5401 80.0718 25.4082 79.9345 25.4082 79.7673V0.312564C25.4082 0.2261 25.4441 0.143524 25.5074 0.0845848ZM26.0314 0.647014V22.6102L49.922 24.1288L50.1375 2.35533L26.0314 0.647014ZM50.7603 2.39946L50.5448 24.1684L74.4352 25.6869L74.8668 4.10779L50.7603 2.39946ZM74.4228 26.3105L50.5386 24.7924L50.2402 54.933L73.8275 56.0716L74.4228 26.3105ZM73.8151 56.6949L50.234 55.5566L49.9876 80.4419L73.3212 81.3905L73.8151 56.6949ZM49.3647 80.4166L49.6111 55.5265L26.0314 54.3883V79.4681L49.3647 80.4166ZM26.0314 53.7644L49.6173 54.9029L49.9158 24.7528L26.0314 23.2347V53.7644Z" fill="#F1F1F1"/>
<path d="M44.8046 46.2716H26.1094V37.703C29.5368 33.6524 32.9903 38.3521 34.2885 41.2083C36.6254 40.8188 39.7413 39.261 41.2992 43.1558C42.234 42.8442 43.6362 42.7663 44.0256 43.9347C46.752 43.1558 47.531 44.7137 47.9205 45.4927C48.2321 46.1158 45.9731 46.2716 44.8046 46.2716Z" fill="white"/>
<path fill-rule="evenodd" clip-rule="evenodd" d="M34.4243 40.9462C33.7532 39.5236 32.5786 37.6948 31.1314 36.674C30.3754 36.1408 29.5263 35.8151 28.6263 35.9071C27.7237 35.9993 26.814 36.507 25.9303 37.5514C25.8946 37.5936 25.875 37.6471 25.875 37.7024V46.271C25.875 46.4 25.9796 46.5047 26.1087 46.5047H44.8039C45.3943 46.5047 46.2662 46.4655 46.9569 46.3454C47.2973 46.2862 47.6192 46.2033 47.8412 46.0815C47.9513 46.021 48.0641 45.9364 48.1293 45.8148C48.2029 45.6773 48.1981 45.5262 48.1288 45.3875L48.1235 45.377C47.9298 44.9894 47.6143 44.3584 46.9783 43.9344C46.3555 43.5192 45.4646 43.3253 44.1641 43.6546C43.9044 43.1097 43.4226 42.847 42.9054 42.7592C42.4163 42.6762 41.8838 42.7448 41.4329 42.8699C41.045 41.9752 40.5638 41.3625 40.0113 40.9635C39.4178 40.5348 38.7616 40.3669 38.0943 40.3413C37.431 40.3157 36.7503 40.4306 36.1005 40.5716C35.8649 40.6227 35.6358 40.6766 35.4123 40.7291C35.0707 40.8095 34.7424 40.8867 34.4243 40.9462ZM26.3424 37.7888C27.1529 36.8537 27.9411 36.4469 28.6738 36.372C29.4259 36.2952 30.1639 36.5635 30.862 37.0559C32.2664 38.0465 33.4329 39.8915 34.0751 41.3044C34.1189 41.4007 34.2219 41.4556 34.3263 41.4382C34.7124 41.3738 35.1262 41.2766 35.5419 41.1789C35.7618 41.1273 35.9824 41.0755 36.1996 41.0283C36.84 40.8894 37.4738 40.7851 38.0763 40.8083C38.6749 40.8313 39.2358 40.9799 39.7377 41.3424C40.2407 41.7057 40.704 42.298 41.0816 43.2419C41.1275 43.3568 41.2551 43.416 41.3725 43.3768C41.8183 43.2282 42.3618 43.141 42.8271 43.22C43.2808 43.297 43.6424 43.5254 43.8033 44.008C43.8428 44.1267 43.9688 44.1932 44.0891 44.1588C45.4038 43.7832 46.2054 43.9808 46.7191 44.3233C47.2457 44.6744 47.5146 45.2042 47.7108 45.5965C47.7115 45.598 47.7122 45.5994 47.7127 45.6006C47.7029 45.6128 47.6768 45.6385 47.6162 45.6718C47.4657 45.7544 47.2083 45.8273 46.8768 45.885C46.2238 45.9985 45.3819 46.0373 44.8039 46.0373H26.3424V37.7888Z" fill="white"/>
<path d="M153.471 121.054H131.66C131.66 133.275 133.419 141.307 142.214 141.307C152.632 141.307 153.119 130.016 153.471 121.054Z" fill="white"/>
<path fill-rule="evenodd" clip-rule="evenodd" d="M131.426 121.053C131.426 120.924 131.53 120.819 131.659 120.819H153.471C153.534 120.819 153.595 120.845 153.639 120.891C153.683 120.937 153.707 120.999 153.704 121.062C153.529 125.533 153.319 130.637 151.836 134.622C151.092 136.62 150.023 138.352 148.463 139.585C146.9 140.821 144.863 141.54 142.213 141.54C139.978 141.54 138.171 141.029 136.723 140.054C135.276 139.08 134.207 137.654 133.424 135.856C131.864 132.272 131.426 127.164 131.426 121.053ZM131.893 121.287C131.905 127.292 132.354 132.227 133.853 135.669C134.609 137.407 135.628 138.753 136.984 139.666C138.34 140.579 140.051 141.073 142.213 141.073C144.773 141.073 146.704 140.38 148.173 139.219C149.645 138.055 150.673 136.405 151.398 134.459C152.824 130.628 153.053 125.716 153.228 121.287H131.893Z" fill="white"/>
<path d="M131.66 120.953C135.555 119.266 145.37 116.903 153.471 120.953H131.66Z" fill="#8F6E0D"/>
<path d="M134.386 124.68C136.567 123.745 139.449 122.733 140.618 118.059C141.591 114.164 136.196 115.08 133.217 118.059C130.491 120.785 127.245 122.083 125.428 122.343C126.207 125.069 131.659 125.848 134.386 124.68Z" fill="#016D33"/>
<path d="M157.756 123.123C155.575 118.138 150.356 118.449 148.019 119.228C147.396 124.525 151.914 126.888 154.251 127.407C156.977 128.186 160.093 128.186 162.041 128.576C163.418 128.851 166.715 128.965 163.599 127.407C161.106 126.161 160.093 123.123 157.756 123.123Z" fill="#016D33"/>
<path d="M141.397 109.88C137.346 116.424 140.748 118.839 142.955 119.228C143.085 116.502 143.812 110.27 145.681 107.154C147.551 104.038 145.681 100.922 144.513 99.7539C144.772 96.638 144.902 91.1852 142.955 90.4063C140.785 89.5384 144.902 90.0168 142.176 97.0275C139.449 104.038 146.46 101.701 141.397 109.88Z" fill="#016D33"/>
<path d="M149.576 101.312C149.265 103.493 147.11 105.596 146.071 106.375C142.955 109.491 142.955 117.67 142.955 119.228C142.955 120.786 145.681 120.396 146.85 119.617C148.47 118.537 151.134 113.386 150.745 109.491C150.465 106.696 154.25 106.375 153.082 102.48C152.05 99.0406 154.25 93.522 153.861 91.5745C153.471 89.6271 155.808 86.9007 153.082 89.2376C150.355 91.5745 149.966 98.5852 149.576 101.312Z" fill="#016D33"/>
<path d="M158.532 113.775C151.132 111.438 147.237 116.501 146.848 119.617C146.413 121.175 149.185 121.565 152.69 119.617C156.195 117.67 153.08 117.28 161.259 116.891C169.438 116.501 170.996 109.491 170.996 108.712C170.996 107.933 170.217 108.322 169.048 109.88C168.309 110.866 165.933 116.112 158.532 113.775Z" fill="#016D33"/>
<path fill-rule="evenodd" clip-rule="evenodd" d="M98.1699 126.216C98.3666 126.129 98.5966 126.218 98.6837 126.415L107.642 146.668C107.729 146.865 107.64 147.095 107.443 147.182C107.246 147.269 107.016 147.18 106.929 146.983L103.938 140.219L42.2033 144.084L39.4808 150.102C39.3921 150.298 39.1614 150.385 38.9654 150.296C38.7694 150.207 38.6824 149.977 38.771 149.781L46.1712 133.422C46.2599 133.226 46.4907 133.139 46.6866 133.228C46.8826 133.317 46.9696 133.547 46.881 133.743L42.5667 143.28L103.602 139.46L97.9713 126.73C97.8843 126.533 97.9732 126.303 98.1699 126.216Z" fill="#333333"/>
<path d="M150.517 57.634L115.463 118.783C85.8624 121.38 27.4897 130.936 23.5451 132.415C20.4291 133.583 21.9873 137.868 24.7136 137.478L119.747 123.067C131.043 104.113 153.326 65.2442 155.58 60.3604C157.917 55.2972 152.854 54.1287 150.517 57.634Z" fill="#C6CED1"/>
<path fill-rule="evenodd" clip-rule="evenodd" d="M150.849 57.8393L115.701 119.153L115.498 119.171C100.711 120.468 78.728 123.505 59.9433 126.403C50.5522 127.852 41.9636 129.266 35.4773 130.41C32.2339 130.982 29.5178 131.486 27.4906 131.893C25.4466 132.303 24.1395 132.608 23.6827 132.78C22.9928 133.038 22.5898 133.456 22.3863 133.912C22.1797 134.376 22.1646 134.912 22.3132 135.422C22.6151 136.457 23.5372 137.252 24.6578 137.093C24.6583 137.093 24.6588 137.093 24.6593 137.093L119.508 122.71C125.153 113.233 133.493 98.8692 140.717 86.2438C147.988 73.5362 154.11 62.6191 155.227 60.1972C155.789 58.9795 155.881 58.0493 155.725 57.3956C155.573 56.7555 155.177 56.3454 154.662 56.1475C153.61 55.7429 151.943 56.2066 150.849 57.8393ZM156.483 57.2152C156.693 58.0951 156.541 59.2096 155.935 60.5236C154.798 62.9855 148.652 73.9444 141.393 86.6306C134.128 99.3286 125.732 113.787 120.083 123.267L119.989 123.425L24.7727 137.863L24.7694 137.864C23.1644 138.093 21.945 136.941 21.5654 135.64C21.3731 134.981 21.3823 134.251 21.6748 133.595C21.9703 132.932 22.541 132.376 23.4091 132.05C23.9385 131.852 25.3183 131.534 27.3373 131.129C29.373 130.72 32.0957 130.215 35.342 129.642C41.835 128.497 50.4293 127.083 59.8245 125.633C78.5269 122.747 100.416 119.722 115.227 118.413L150.186 57.4289L150.194 57.4179C151.436 55.554 153.464 54.8522 154.942 55.4204C155.693 55.7093 156.27 56.3216 156.483 57.2152Z" fill="#C6CED1"/>
</svg>
