<svg width="175" height="160" viewBox="0 0 175 160" fill="none" xmlns="http://www.w3.org/2000/svg">
<path opacity="0.3" fill-rule="evenodd" clip-rule="evenodd" d="M154.037 107.894C152.764 109.775 150.302 110.823 147.109 110.823H123.171L123.105 139.108C123.105 140.837 121.72 142.242 120.013 142.242H115.762C114.061 142.242 112.67 140.837 112.67 139.108L112.705 110.823H101.515C103.323 106.743 103.287 101.885 101.378 96.9314L92.0369 73.312L116.011 16.8581C116.886 14.7366 117.641 13.0129 118.265 11.6931C119.21 13.6156 120.186 15.8878 120.614 16.8702L154.209 100.3C155.368 103.308 155.309 106.008 154.037 107.894ZM92.8239 107.719C91.7952 109.383 89.8152 110.42 87.2583 110.703C84.6837 110.414 82.6918 109.371 81.6631 107.701C80.5036 105.827 80.4858 103.205 81.6036 100.3L87.1573 85.8419L92.8774 100.318C93.9952 103.223 93.9774 105.851 92.8239 107.719ZM72.9781 110.823H61.7698L61.8054 139.108C61.8054 140.837 60.414 142.242 58.7135 142.242H54.462C52.7555 142.242 51.3701 140.837 51.3701 139.108L51.3106 127.807V110.823H27.3658C24.1727 110.823 21.717 109.775 20.4386 107.894C19.1661 106.008 19.1067 103.308 20.2424 100.367L53.8258 16.9786C54.2718 15.93 55.2647 13.6277 56.2102 11.6931C56.8345 13.019 57.5956 14.7487 58.4756 16.8702L82.1648 73.3241L73.097 96.9314C71.1883 101.885 71.1645 106.737 72.9781 110.823ZM162.696 96.8712L129.029 13.2782C125.705 5.55175 123.226 0.00700346 118.195 0.000976562C113.076 0.0371379 110.656 5.8772 107.605 13.2421L87.1211 61.4813L66.8867 13.2782C63.8244 5.8772 61.3984 0.0371379 56.2848 0.000976562C51.2604 0.0371379 48.769 5.55175 45.4035 13.3807L11.7547 96.9375C9.50111 102.796 9.91734 108.69 12.9023 113.114C15.8812 117.537 21.1495 120.075 27.3631 120.075H42.1748L42.2402 139.108C42.2402 145.936 47.7225 151.499 54.4594 151.499H58.7108C65.4477 151.499 70.93 145.936 70.93 139.108V129.79C70.93 129.471 70.924 129.121 70.9003 128.796V120.075H85.8071C86.3065 120.075 86.7763 120.045 87.252 120.008C87.7158 120.045 88.1676 120.075 88.6671 120.075H103.574V128.796C103.55 129.121 103.544 129.471 103.544 129.79V139.108C103.544 145.936 109.026 151.499 115.763 151.499H120.015C126.752 151.499 132.234 145.936 132.234 139.108L132.299 120.075H147.111C153.325 120.075 158.599 117.537 161.578 113.114C164.563 108.69 164.973 102.796 162.696 96.8712Z" fill="#B2B7BD"/>
<path d="M174.722 153.648C174.722 157.157 135.608 160.001 87.359 160.001C39.1098 160.001 -0.00390625 157.157 -0.00390625 153.648C-0.00390625 150.139 39.1098 147.294 87.359 147.294C135.608 147.294 174.722 150.139 174.722 153.648Z" fill="#C8CCD0"/>
<path d="M98.4785 16.057C99.6668 15.6373 101.892 14.197 101.899 11.6627C101.878 11.4707 101.867 11.2881 101.867 11.1191C101.889 11.3056 101.899 11.4868 101.899 11.6627C102.085 13.3402 103.101 15.7348 105.229 16.057C104.322 16.7442 101.959 18.8954 101.843 20.911C101.859 21.0848 101.867 21.2624 101.867 21.4438C101.839 21.2681 101.832 21.0901 101.843 20.911C101.603 18.3342 99.669 16.6178 98.4785 16.057Z" fill="#FFA300"/>
<path fill-rule="evenodd" clip-rule="evenodd" d="M101.853 10.8813C101.979 10.8739 102.089 10.9659 102.104 11.0912C102.126 11.2821 102.137 11.4682 102.137 11.6495C102.229 12.4558 102.519 13.4313 103.036 14.2396C103.556 15.0507 104.289 15.6737 105.265 15.8215C105.36 15.8358 105.437 15.9055 105.46 15.9983C105.484 16.0912 105.449 16.1892 105.373 16.247C104.931 16.5816 104.128 17.2785 103.424 18.137C102.717 18.9973 102.141 19.9826 102.081 20.9075C102.097 21.0826 102.105 21.2614 102.105 21.4438C102.105 21.5682 102.01 21.6717 101.886 21.6814C101.762 21.6911 101.651 21.6037 101.632 21.4809C101.602 21.2931 101.594 21.1043 101.604 20.9158C101.367 18.4554 99.5119 16.8072 98.377 16.2726C98.2896 16.2314 98.2357 16.1415 98.2405 16.0451C98.2454 15.9486 98.308 15.8646 98.3991 15.8324C98.9631 15.6332 99.7836 15.1867 100.461 14.4871C101.132 13.7933 101.654 12.8603 101.661 11.6752C101.639 11.4804 101.629 11.2937 101.629 11.1191C101.629 10.993 101.727 10.8887 101.853 10.8813ZM101.935 12.9698C101.699 13.7081 101.282 14.3239 100.803 14.8185C100.238 15.4019 99.5844 15.8225 99.0284 16.0861C100.053 16.717 101.34 17.9839 101.865 19.7702C102.136 19.0766 102.581 18.412 103.055 17.8347C103.614 17.1539 104.23 16.5724 104.698 16.1782C103.796 15.895 103.118 15.2503 102.635 14.4966C102.329 14.0186 102.098 13.4909 101.935 12.9698Z" fill="#FFA300"/>
<path d="M106.422 25.6568C107.261 25.3662 108.831 24.3691 108.836 22.6146C108.821 22.4817 108.814 22.3553 108.814 22.2383C108.829 22.3674 108.837 22.4928 108.836 22.6146C108.968 23.776 109.685 25.4337 111.187 25.6568C110.546 26.1325 108.879 27.6219 108.796 29.0173C108.808 29.1376 108.814 29.2605 108.814 29.3862C108.794 29.2645 108.789 29.1413 108.796 29.0173C108.627 27.2333 107.262 26.045 106.422 25.6568Z" fill="#FFA300"/>
<path fill-rule="evenodd" clip-rule="evenodd" d="M108.798 22.0004C108.923 21.9929 109.033 22.0847 109.048 22.2098C109.064 22.3434 109.072 22.4738 109.073 22.601C109.137 23.1486 109.338 23.8103 109.695 24.3573C110.054 24.9067 110.556 25.3225 111.22 25.4211C111.315 25.4353 111.393 25.5054 111.416 25.5989C111.44 25.6923 111.405 25.7907 111.327 25.8481C111.019 26.0771 110.456 26.5559 109.963 27.1451C109.469 27.7361 109.076 28.4004 109.033 29.014C109.044 29.1356 109.05 29.2596 109.05 29.3861C109.05 29.5104 108.955 29.6138 108.831 29.6237C108.707 29.6335 108.596 29.5465 108.577 29.4239C108.555 29.2901 108.549 29.1559 108.556 29.0224C108.39 27.357 107.106 26.2362 106.32 25.8731C106.232 25.8324 106.177 25.7421 106.182 25.645C106.187 25.5479 106.25 25.4635 106.342 25.4317C106.732 25.2967 107.301 24.9928 107.77 24.5173C108.234 24.0475 108.59 23.4207 108.596 22.6272C108.581 22.4914 108.574 22.3608 108.574 22.2383C108.574 22.1122 108.672 22.008 108.798 22.0004ZM108.858 23.7315C108.681 24.1726 108.411 24.5459 108.109 24.852C107.745 25.2217 107.328 25.4984 106.957 25.6853C107.635 26.1263 108.434 26.9261 108.82 28.0274C109.017 27.5989 109.301 27.1934 109.598 26.8393C109.956 26.4111 110.347 26.0394 110.665 25.7686C110.072 25.5494 109.621 25.1155 109.296 24.6178C109.114 24.3386 108.969 24.0357 108.858 23.7315Z" fill="#FFA300"/>
<path d="M62.7402 19.7174C62.0413 19.4591 60.7322 18.5728 60.7283 17.0132C60.7408 16.8951 60.7469 16.7827 60.7469 16.6787C60.734 16.7935 60.728 16.9049 60.7283 17.0132C60.6188 18.0455 60.0212 19.5191 58.7692 19.7174C59.3031 20.1403 60.6926 21.4641 60.7614 22.7045C60.7519 22.8114 60.7469 22.9207 60.7469 23.0324C60.7632 22.9242 60.7675 22.8147 60.7614 22.7045C60.9023 21.1187 62.04 20.0625 62.7402 19.7174Z" fill="#FFA300"/>
<path fill-rule="evenodd" clip-rule="evenodd" d="M60.7603 16.4408C60.6341 16.4337 60.5243 16.5264 60.5102 16.652C60.4968 16.771 60.4902 16.8871 60.49 17.0004C60.4368 17.4857 60.2693 18.071 59.974 18.5537C59.6765 19.0398 59.266 19.3975 58.7319 19.4821C58.6385 19.4969 58.5627 19.5655 58.5387 19.657C58.5148 19.7485 58.5472 19.8455 58.6213 19.9042C58.8764 20.1062 59.3432 20.5299 59.7523 21.0514C60.1624 21.5742 60.4868 22.1605 60.5225 22.7014C60.5134 22.8095 60.5087 22.9199 60.5087 23.0324C60.5087 23.1571 60.6048 23.2607 60.7292 23.27C60.8535 23.2793 60.964 23.1911 60.9826 23.0678C61.0005 22.9483 61.0058 22.8285 61.0002 22.7093C61.1384 21.2347 62.2031 20.2477 62.8456 19.9311C62.931 19.889 62.9831 19.8001 62.9782 19.705C62.9733 19.6099 62.9122 19.5269 62.8228 19.4939C62.5046 19.3763 62.0355 19.1098 61.6486 18.6915C61.267 18.2789 60.9718 17.7267 60.9666 17.025C60.979 16.9041 60.9852 16.7879 60.9852 16.6787C60.9852 16.5523 60.8865 16.4479 60.7603 16.4408ZM60.711 18.1138C60.8583 18.464 61.0669 18.7643 61.2987 19.015C61.5945 19.3348 61.9309 19.5773 62.2352 19.7452C61.6898 20.132 61.063 20.8059 60.7353 21.7217C60.5731 21.3746 60.3542 21.0466 60.1272 20.7573C59.8368 20.3871 59.5205 20.0642 59.2592 19.8244C59.7465 19.6205 60.1154 19.2356 60.3804 18.8024C60.5138 18.5844 60.6235 18.3505 60.711 18.1138Z" fill="#FFA300"/>
<path d="M68.3555 29.7361C67.5067 29.4362 65.9172 28.4074 65.9124 26.5972C65.9276 26.4601 65.935 26.3297 65.935 26.209C65.9193 26.3422 65.912 26.4716 65.9124 26.5972C65.7794 27.7955 65.0538 29.5059 63.5335 29.7361C64.1819 30.2269 65.8691 31.7635 65.9526 33.2032C65.9411 33.3273 65.935 33.4542 65.935 33.5838C65.9548 33.4582 65.96 33.3311 65.9526 33.2032C66.1237 31.3626 67.5051 30.1366 68.3555 29.7361Z" fill="#FFA300"/>
<path fill-rule="evenodd" clip-rule="evenodd" d="M65.949 25.9711C65.8231 25.9637 65.7132 26.0558 65.6984 26.1811C65.6822 26.3187 65.6743 26.453 65.6741 26.5839C65.6093 27.1506 65.4049 27.8352 65.0425 28.4012C64.6785 28.9698 64.1696 29.3988 63.4978 29.5005C63.4031 29.5148 63.3262 29.5845 63.3026 29.6774C63.279 29.7702 63.3133 29.8682 63.3897 29.926C63.702 30.1624 64.2715 30.6566 64.7707 31.2649C65.2713 31.875 65.6704 32.5628 65.7137 33.1999C65.7026 33.3253 65.6968 33.4533 65.6968 33.5838C65.6968 33.7082 65.7925 33.8116 65.9165 33.8213C66.0405 33.831 66.1511 33.7437 66.1704 33.6208C66.192 33.4834 66.1983 33.3455 66.1915 33.2082C66.3596 31.4839 67.6621 30.326 68.457 29.9516C68.5444 29.9104 68.5983 29.8206 68.5934 29.7241C68.5886 29.6276 68.5259 29.5436 68.4348 29.5114C68.0406 29.3721 67.4639 29.0585 66.9887 28.5673C66.5189 28.0819 66.1567 27.4327 66.1507 26.6096C66.1658 26.4697 66.1733 26.3352 66.1733 26.209C66.1733 26.0828 66.075 25.9785 65.949 25.9711ZM65.8887 27.7399C66.0668 28.1959 66.3398 28.582 66.6462 28.8987C67.0192 29.2841 67.4458 29.5716 67.8241 29.7645C67.1347 30.2182 66.3181 31.0476 65.9274 32.1914C65.7285 31.7488 65.4401 31.3294 65.1391 30.9626C64.7724 30.5158 64.3713 30.1284 64.048 29.8484C64.6541 29.6237 65.1137 29.1738 65.4439 28.6581C65.629 28.3689 65.7763 28.055 65.8887 27.7399Z" fill="#FFA300"/>
<path d="M100.295 27.8569C99.6958 27.6493 98.5738 26.937 98.5704 25.6838C98.5811 25.5889 98.5864 25.4986 98.5864 25.415C98.5753 25.5072 98.5701 25.5968 98.5704 25.6838C98.4765 26.5134 97.9644 27.6975 96.8912 27.8569C97.3488 28.1967 98.5399 29.2604 98.5988 30.2572C98.5906 30.3431 98.5864 30.4309 98.5864 30.5207C98.6003 30.4337 98.604 30.3457 98.5988 30.2572C98.7195 28.9829 99.6947 28.1341 100.295 27.8569Z" fill="#FFA300"/>
<path fill-rule="evenodd" clip-rule="evenodd" d="M98.6006 25.1772C98.4748 25.1697 98.3649 25.2614 98.3498 25.3866C98.3382 25.4832 98.3324 25.5777 98.3321 25.67C98.287 26.0517 98.1461 26.5121 97.8985 26.8914C97.6495 27.273 97.3058 27.5544 96.8562 27.6212C96.7609 27.6353 96.6835 27.7055 96.6601 27.7989C96.6367 27.8924 96.6718 27.9907 96.7492 28.0481C96.9661 28.2092 97.3638 28.5476 97.7118 28.9636C98.0613 29.3813 98.3289 29.8397 98.3598 30.2542C98.3521 30.3413 98.3481 30.4301 98.3481 30.5207C98.3481 30.6449 98.4436 30.7483 98.5675 30.7582C98.6913 30.768 98.802 30.6811 98.8216 30.5584C98.8375 30.4596 98.8422 30.3607 98.8377 30.2626C98.9552 29.1067 99.8489 28.3253 100.395 28.0731C100.483 28.0324 100.538 27.9421 100.533 27.845C100.528 27.748 100.465 27.6635 100.373 27.6317C100.103 27.5382 99.7056 27.3263 99.3789 26.9951C99.0577 26.6695 98.814 26.2393 98.8087 25.6962C98.8193 25.5984 98.8247 25.5041 98.8247 25.415C98.8247 25.289 98.7265 25.1847 98.6006 25.1772ZM98.5576 26.6582C98.6842 26.9177 98.8539 27.1415 99.0397 27.3298C99.2731 27.5664 99.5352 27.7507 99.7788 27.8845C99.3383 28.1946 98.8496 28.7019 98.5725 29.3797C98.4347 29.1184 98.2578 28.8735 98.0773 28.6578C97.8495 28.3856 97.6034 28.1451 97.3913 27.958C97.7801 27.7854 98.079 27.4867 98.2976 27.1519C98.4 26.9949 98.4864 26.8279 98.5576 26.6582Z" fill="#FFA300"/>
<path d="M87.6612 31.6277C85.6757 34.0103 80.1163 32.5542 78.9249 31.6277L77.7334 27.2638C77.204 25.0135 76.3039 19.4011 76.9392 14.9536C77.7334 9.39411 86.6593 12.3634 88.8525 14.5565C90.8381 16.542 92.691 20.2483 94.4118 22.1014H92.8234C93.1411 22.7368 92.9558 24.4841 92.8234 25.2783C92.691 26.3372 93.5384 28.1374 91.6323 28.4551C90.242 28.6868 88.3447 28.0172 87.2654 27.2782L87.6612 31.6277Z" fill="#D8BA8B"/>
<path fill-rule="evenodd" clip-rule="evenodd" d="M86.2719 12.6928C87.4423 13.1982 88.4423 13.8094 89.021 14.388C90.0339 15.4009 91.0065 16.8451 91.9304 18.2475C91.9994 18.3522 92.0681 18.4567 92.1365 18.5607C92.9927 19.8626 93.8054 21.0982 94.5864 21.9393C94.6509 22.0087 94.6681 22.1098 94.6302 22.1967C94.5923 22.2835 94.5065 22.3397 94.4118 22.3397H93.1534C93.1813 22.4634 93.2003 22.5962 93.2132 22.7316C93.2398 23.0113 93.242 23.3254 93.2302 23.6392C93.2067 24.2643 93.1265 24.9072 93.0592 25.3124C93.0309 25.5451 93.0552 25.827 93.0866 26.1539C93.0878 26.1667 93.0891 26.1795 93.0903 26.1925C93.12 26.4996 93.1528 26.8399 93.1306 27.1611C93.1073 27.4985 93.0221 27.8425 92.7873 28.1257C92.5502 28.4116 92.1871 28.6041 91.6714 28.6901C90.9275 28.8141 90.0667 28.6955 89.2648 28.4592C88.6443 28.2763 88.0456 28.0188 87.5461 27.7338L87.9074 31.7043L87.8442 31.7802C87.3039 32.4286 86.53 32.8041 85.6783 32.9956C84.8265 33.187 83.8809 33.1983 82.9711 33.1056C82.0601 33.0128 81.1753 32.8148 80.4409 32.5806C79.7138 32.3487 79.1104 32.0738 78.7786 31.8157L78.716 31.767L77.5013 27.3184C76.9692 25.0569 76.0618 19.4106 76.7033 14.9198C76.9129 13.453 77.6682 12.527 78.7246 12.0227C79.7653 11.5259 81.076 11.4479 82.4004 11.6113C83.729 11.7753 85.0972 12.1855 86.2719 12.6928ZM87.3349 27.0362C86.9807 26.7845 86.7636 26.5506 86.6887 26.3757C86.6369 26.2548 86.4968 26.1987 86.3758 26.2506C86.2549 26.3024 86.1989 26.4425 86.2507 26.5634C86.3758 26.8553 86.6722 27.1469 87.0381 27.4098L87.4147 31.5483C86.9646 32.0484 86.3241 32.362 85.5738 32.5307C84.7875 32.7074 83.8965 32.7209 83.0194 32.6316C82.1434 32.5423 81.2909 32.3515 80.5857 32.1266C79.925 31.9159 79.4141 31.6816 79.1329 31.485L77.9644 27.2051C77.4374 24.9634 76.5462 19.3889 77.1751 14.9872C77.3626 13.6743 78.0209 12.8867 78.9299 12.4527C79.8548 12.0112 81.0616 11.9262 82.342 12.0843C83.6183 12.2418 84.9425 12.6377 86.083 13.1303C87.228 13.6247 88.1661 14.2071 88.684 14.725C89.6566 15.6975 90.6033 17.0992 91.5324 18.5096C91.6035 18.6175 91.6744 18.7254 91.7453 18.8332C92.4709 19.9367 93.1868 21.0255 93.8858 21.8632H92.4378L92.6102 22.208C92.6697 22.3269 92.7144 22.52 92.7388 22.7767C92.7627 23.0281 92.7654 23.3196 92.754 23.6213C92.7313 24.2246 92.6532 24.8497 92.5883 25.2391L92.5869 25.2487C92.55 25.5445 92.5818 25.8832 92.6123 26.1995L92.6144 26.2219C92.6453 26.5419 92.6747 26.8473 92.6552 27.1282C92.6356 27.4129 92.567 27.6447 92.4204 27.8215C92.2761 27.9956 92.0304 28.1472 91.5931 28.2201C90.9467 28.3278 90.1637 28.2274 89.3995 28.0021C88.6624 27.7848 87.9637 27.4576 87.4512 27.1162C87.4215 27.0787 87.381 27.0506 87.3349 27.0362Z" fill="#333333"/>
<path d="M80.9836 16.7621C82.7044 17.6886 87.099 18.5093 90.9112 14.3794C94.7234 10.2496 91.8978 8.54169 90.0447 7.21801C87.344 5.28884 81.2142 2.83104 76.2929 7.21796C73.8227 4.11851 67.9939 5.13805 67.0128 9.38942C66.0709 13.4712 67.376 15.6894 70.309 16.146C69.3953 20.5084 69.3953 22.4939 70.5866 25.2737C71.7779 28.0535 73.7635 29.6418 77.4096 30.2636C79.8381 30.6778 80.7328 26.4703 81.3085 24.4794C81.3681 24.2736 78.9259 24.8765 78.9259 22.4939C78.9259 21.3047 79.323 20.9054 80.1172 20.9054C81.3085 20.9054 81.3085 22.0968 81.8794 21.6996C82.4502 21.3025 81.4169 18.0138 80.9836 16.7621Z" fill="#8F6E0D"/>
<path fill-rule="evenodd" clip-rule="evenodd" d="M83.9717 5.08584C86.4095 5.38721 88.5803 6.46511 89.9056 7.41182L89.9056 7.41182C89.9832 7.46725 90.0619 7.52293 90.1412 7.57907C90.5426 7.86314 90.9606 8.15899 91.3398 8.4933C91.7925 8.89244 92.1708 9.33071 92.3819 9.8379C92.7905 10.8194 92.6158 12.1808 90.7355 14.2178C87.0121 18.2515 82.7419 17.4385 81.096 16.5522C81.0095 16.5057 80.9034 16.5169 80.8286 16.5805C80.7538 16.6442 80.7257 16.7472 80.7579 16.8399C80.9733 17.4624 81.337 18.5888 81.5755 19.6057C81.6951 20.1155 81.7806 20.5875 81.8028 20.9511C81.8139 21.1337 81.8081 21.2769 81.7882 21.379C81.7683 21.4802 81.742 21.5041 81.7422 21.5044C81.7422 21.5044 81.7424 21.5042 81.7427 21.504C81.6932 21.5385 81.6694 21.5419 81.6655 21.5423C81.6637 21.5424 81.663 21.5423 81.6621 21.5421C81.6607 21.5418 81.656 21.5404 81.6473 21.5355C81.6276 21.5244 81.5989 21.5017 81.5557 21.4571C81.5238 21.4241 81.4923 21.3883 81.4546 21.3454C81.4403 21.3291 81.4251 21.3118 81.4086 21.2932C81.1734 21.0282 80.8156 20.6671 80.1167 20.6671C79.6812 20.6671 79.2985 20.7778 79.037 21.1049C78.7869 21.418 78.6871 21.8832 78.6871 22.4938C78.6871 23.1315 78.8513 23.5972 79.1208 23.9301C79.3888 24.2613 79.7411 24.4367 80.0733 24.5319C80.4038 24.6266 80.7276 24.6456 80.9504 24.6553C80.9715 24.6563 80.9912 24.6571 81.0096 24.6579C80.9753 24.7802 80.94 24.9082 80.9035 25.0406C80.641 25.9933 80.3146 27.1779 79.8385 28.1703C79.5452 28.7815 79.2054 29.2965 78.808 29.6325C78.4185 29.9619 77.9764 30.1186 77.4491 30.0287C75.6517 29.7222 74.2823 29.1806 73.2195 28.387C72.1584 27.5945 71.3876 26.5392 70.805 25.1798C70.2189 23.812 69.9299 22.6506 69.896 21.2973C69.8632 19.9827 70.0708 18.4773 70.4964 16.4126C71.2443 16.5048 72.0819 16.4911 72.9983 16.3765C74.661 16.1687 75.8161 15.3315 76.5477 14.1296C77.2733 12.9375 77.5752 11.4002 77.5752 9.78645C77.5752 9.77592 77.5745 9.7654 77.5731 9.75496C77.44 8.75635 77.1011 7.92229 76.6165 7.2511C78.9745 5.23493 81.5972 4.79229 83.9717 5.08584ZM76.3186 6.87891C78.7928 4.76915 81.552 4.30655 84.0302 4.61292C86.5628 4.92601 88.8072 6.0416 90.1826 7.02406M76.3186 6.87891C75.0025 5.39344 72.9234 4.91713 71.0446 5.31394C69.0835 5.72813 67.2953 7.10292 66.7801 9.33577C66.303 11.4029 66.3836 13.0429 66.9952 14.2358C67.5794 15.3752 68.6264 16.0658 70.0252 16.3382C69.6006 18.4014 69.3856 19.944 69.4197 21.3092C69.4553 22.7342 69.7619 23.9554 70.367 25.3675C70.9758 26.7879 71.7934 27.9166 72.9344 28.7688C74.0738 29.6197 75.5202 30.1832 77.369 30.4984C78.056 30.6156 78.6364 30.4017 79.1157 29.9964C79.587 29.5978 79.9622 29.0141 80.2681 28.3764C80.7648 27.341 81.106 26.1016 81.3682 25.1489C81.4283 24.9308 81.4842 24.7277 81.5369 24.5455C81.5542 24.4855 81.5523 24.4115 81.5126 24.3429C81.4779 24.283 81.4284 24.2519 81.3994 24.2371C81.3451 24.2094 81.2859 24.2005 81.2531 24.1963C81.1914 24.1884 81.1073 24.1849 81.0224 24.1814C81.0053 24.1807 80.9882 24.18 80.9712 24.1793C80.7529 24.1697 80.4773 24.1519 80.2046 24.0738C79.9338 23.9962 79.6793 23.8627 79.4912 23.6304C79.3047 23.3999 79.1636 23.0474 79.1636 22.4938C79.1636 21.9152 79.2624 21.5863 79.4093 21.4024C79.545 21.2326 79.7579 21.1436 80.1167 21.1436C80.609 21.1436 80.8468 21.3781 81.0522 21.6095C81.0644 21.6233 81.0771 21.6377 81.0899 21.6523C81.1301 21.6981 81.1727 21.7466 81.2133 21.7885C81.2677 21.8447 81.3339 21.9058 81.413 21.9505C81.4968 21.9978 81.5967 22.0275 81.7107 22.0167C81.8207 22.0062 81.9217 21.96 82.0149 21.8952C82.1626 21.7924 82.2261 21.622 82.2558 21.4705C82.2869 21.3119 82.2907 21.1232 82.2784 20.9221C82.2538 20.5182 82.161 20.0153 82.0394 19.4969C81.8537 18.7047 81.5949 17.8521 81.3858 17.2127C83.4306 18.0431 87.5168 18.4072 91.0857 14.541C93.0176 12.4481 93.3363 10.8906 92.8218 9.65477C92.5715 9.05329 92.1341 8.55828 91.655 8.13586C91.2548 7.7831 90.8123 7.47001 90.4109 7.18609C90.3331 7.13101 90.2567 7.07702 90.1826 7.02406M81.2083 24.6716C81.2083 24.6716 81.208 24.6715 81.2073 24.6713L81.2083 24.6716ZM71.1431 5.78018C72.9634 5.39573 74.9388 5.90178 76.106 7.36639C76.6039 7.99115 76.9622 8.79812 77.0987 9.80235C77.0967 11.3593 76.8026 12.7942 76.1406 13.8818C75.4824 14.9632 74.4534 15.7144 72.9392 15.9037C71.9621 16.0258 71.0945 16.0272 70.3451 15.9105C68.9346 15.6909 67.9515 15.0566 67.4192 14.0184C66.8805 12.9675 66.7795 11.4575 67.2444 9.44292C67.7102 7.42441 69.327 6.16374 71.1431 5.78018Z" fill="#85660C"/>
<path fill-rule="evenodd" clip-rule="evenodd" d="M88.9239 18.3472C89.1295 18.3172 89.3786 18.4134 89.5525 18.532C89.6612 18.6062 89.8094 18.5781 89.8836 18.4694C89.9577 18.3607 89.9297 18.2125 89.821 18.1383C89.6006 17.988 89.2293 17.8211 88.8551 17.8756C88.6598 17.9041 88.4685 17.9929 88.3106 18.1659C88.1556 18.3357 88.0446 18.5735 87.9808 18.8824C87.9542 19.0112 88.0371 19.1373 88.1659 19.1639C88.2948 19.1905 88.4208 19.1077 88.4475 18.9788C88.4995 18.7268 88.5814 18.5761 88.6626 18.4871C88.7409 18.4013 88.8293 18.3609 88.9239 18.3472Z" fill="#333333"/>
<path d="M94.113 125.85L90.5391 104.009L99.6725 103.215C99.6725 103.215 101.68 122.101 102.055 125.85C102.383 129.133 101.628 139.351 102.055 142.925C102.245 144.514 103.643 145.308 103.643 145.308C105.629 146.102 109.203 146.102 112.38 146.896C115.477 147.671 115.821 149.676 115.557 150.867H97.1573C97.1573 150.867 96.2309 150.867 95.7014 150.073C94.9072 148.882 95.7014 145.308 95.7014 145.308L94.113 125.85Z" fill="#D8BA8B"/>
<path fill-rule="evenodd" clip-rule="evenodd" d="M99.9106 103.189L99.6737 103.215C99.9106 103.189 99.9106 103.189 99.9106 103.189L100.23 106.199C100.424 108.028 100.687 110.506 100.961 113.101C101.51 118.291 102.106 123.951 102.293 125.826C102.45 127.391 102.363 130.496 102.274 133.694C102.269 133.891 102.263 134.088 102.258 134.285C102.163 137.706 102.082 141.132 102.293 142.897C102.38 143.625 102.744 144.176 103.095 144.549C103.27 144.735 103.44 144.875 103.565 144.967C103.627 145.013 103.678 145.048 103.713 145.07C103.729 145.08 103.742 145.088 103.75 145.093C104.708 145.472 106.059 145.667 107.597 145.866C107.724 145.882 107.853 145.899 107.983 145.915C109.413 146.098 110.967 146.297 112.439 146.665C114.034 147.064 114.956 147.79 115.436 148.604C115.913 149.414 115.933 150.278 115.79 150.919L115.749 151.105H97.1585V150.867C97.1585 151.105 97.1586 151.105 97.1585 151.105H97.1575L97.1562 151.105L97.1526 151.105L97.1413 151.105C97.1321 151.105 97.1194 151.104 97.1037 151.103C97.0722 151.102 97.0284 151.098 96.9747 151.091C96.8676 151.077 96.7199 151.049 96.5538 150.994C96.2216 150.883 95.8066 150.658 95.5044 150.205C95.2707 149.855 95.168 149.357 95.13 148.843C95.0914 148.322 95.1173 147.749 95.1676 147.221C95.218 146.692 95.2935 146.201 95.3563 145.844C95.3877 145.665 95.416 145.518 95.4365 145.417C95.4468 145.366 95.4551 145.326 95.4609 145.299L95.4623 145.292L93.8776 125.879L90.2637 103.794L99.8859 102.957L99.9106 103.189ZM95.9352 145.359L95.9348 145.361L95.9332 145.369L95.927 145.398C95.9215 145.423 95.9136 145.461 95.9036 145.511C95.8838 145.609 95.8563 145.751 95.8256 145.926C95.7643 146.275 95.6909 146.753 95.642 147.266C95.593 147.78 95.5694 148.324 95.6052 148.808C95.6416 149.3 95.7375 149.696 95.9009 149.941C96.1281 150.282 96.4411 150.454 96.7045 150.542C96.8361 150.586 96.9531 150.608 97.0363 150.618C97.0778 150.624 97.1104 150.626 97.1317 150.628C97.1423 150.628 97.1501 150.629 97.1547 150.629L97.1585 150.629L97.1595 150.629L115.36 150.629C115.439 150.105 115.384 149.456 115.025 148.846C114.625 148.167 113.826 147.503 112.323 147.127C110.881 146.767 109.354 146.571 107.919 146.387C107.79 146.371 107.663 146.355 107.536 146.338C106.005 146.141 104.583 145.939 103.556 145.529L103.541 145.523L103.527 145.515L103.645 145.308C103.527 145.515 103.527 145.515 103.527 145.515L103.525 145.514L103.52 145.511L103.506 145.502C103.5 145.499 103.492 145.494 103.483 145.488C103.475 145.483 103.466 145.477 103.455 145.471C103.413 145.444 103.353 145.403 103.281 145.35C103.138 145.244 102.946 145.086 102.748 144.875C102.352 144.454 101.922 143.814 101.82 142.953C101.604 141.144 101.687 137.674 101.781 134.272C101.786 134.084 101.792 133.896 101.797 133.709C101.887 130.486 101.973 127.406 101.819 125.873C101.632 124 101.036 118.342 100.487 113.151C100.213 110.556 99.9504 108.079 99.7563 106.249L99.4615 103.472L90.8169 104.224L94.3509 125.821L95.9431 145.324L95.9352 145.359Z" fill="#333333"/>
<path d="M113.175 153.647L96.8937 153.647C96.8937 153.647 95.1484 153.647 95.1484 152.456C95.1484 151.148 97.2907 151.265 97.2907 151.265L104.836 151.265C104.2 148.088 107.218 146.235 108.807 145.705C110.13 145.837 113.095 146.023 114.366 147.293C112.46 146.976 111.189 149.941 110.792 151.265H114.763C116.352 151.265 116.352 152.853 115.557 153.25C114.763 153.647 113.969 153.647 113.175 153.647Z" fill="#333333"/>
<path fill-rule="evenodd" clip-rule="evenodd" d="M108.731 145.479C108.763 145.468 108.797 145.465 108.83 145.468C108.929 145.478 109.037 145.488 109.153 145.499C109.811 145.561 110.736 145.648 111.655 145.839C112.727 146.062 113.847 146.437 114.535 147.125C114.608 147.198 114.625 147.31 114.578 147.402C114.531 147.495 114.429 147.546 114.327 147.528C113.52 147.394 112.804 147.947 112.209 148.8C111.708 149.517 111.338 150.384 111.119 151.026H114.763C115.2 151.026 115.55 151.136 115.81 151.327C116.071 151.518 116.225 151.781 116.287 152.057C116.406 152.593 116.174 153.208 115.664 153.463C114.819 153.885 113.977 153.885 113.194 153.885L96.8936 153.885L96.8936 153.647C96.8936 153.885 96.8937 153.885 96.8936 153.885L96.8927 153.885L96.8911 153.885L96.886 153.885L96.8686 153.885C96.8539 153.885 96.8331 153.884 96.8071 153.883C96.755 153.88 96.6817 153.875 96.594 153.865C96.42 153.845 96.1837 153.806 95.9441 153.724C95.4735 153.563 94.9102 153.206 94.9102 152.456C94.9102 152.053 95.0791 151.751 95.3276 151.537C95.5681 151.33 95.8761 151.21 96.1616 151.138C96.4499 151.066 96.7346 151.039 96.9447 151.029C97.0504 151.024 97.1388 151.023 97.2012 151.024C97.2325 151.024 97.2574 151.025 97.2748 151.025L97.2952 151.026L97.2964 151.026L104.554 151.026C104.339 149.478 104.954 148.241 105.814 147.329C106.721 146.367 107.909 145.753 108.731 145.479ZM105.035 151.026L110.617 151.026C110.836 150.346 111.243 149.351 111.818 148.527C112.294 147.845 112.925 147.229 113.695 147.071C113.118 146.713 112.355 146.472 111.558 146.306C110.667 146.12 109.773 146.036 109.113 145.974C109.015 145.965 108.922 145.956 108.834 145.947C108.07 146.21 106.984 146.782 106.161 147.655C105.362 148.503 104.819 149.622 105.035 151.026ZM97.2773 151.502L97.2739 151.502L97.2585 151.502C97.2445 151.501 97.2234 151.501 97.196 151.5C97.1413 151.5 97.0623 151.5 96.9672 151.505C96.7757 151.514 96.5248 151.539 96.2775 151.601C96.0275 151.663 95.7999 151.759 95.6386 151.898C95.4856 152.03 95.3867 152.204 95.3867 152.456C95.3867 152.896 95.6959 153.135 96.098 153.273C96.2947 153.34 96.4947 153.374 96.6479 153.392C96.7239 153.4 96.7869 153.405 96.8303 153.407C96.8519 153.408 96.8686 153.408 96.8795 153.409L96.8913 153.409L96.8936 153.409L113.175 153.409C113.975 153.409 114.714 153.405 115.451 153.037C115.735 152.895 115.901 152.517 115.821 152.16C115.783 151.989 115.69 151.83 115.528 151.711C115.366 151.592 115.121 151.503 114.763 151.503L97.2907 151.503C97.2864 151.503 97.2816 151.503 97.2773 151.502Z" fill="#333333"/>
<path d="M74.5138 124.021C74.3887 121.164 75.1581 108.491 75.5933 103.304L86.7015 102.817L82.9152 125.243C82.9152 125.243 82.1109 141.151 82.7155 147.908C82.857 149.49 81.2156 149.961 81.2156 149.961L69.523 155.243C63.2102 156.315 64.2961 153.883 65.4168 152.244C66.8343 150.17 71.9032 148.871 73.5561 147.514C75.0908 146.255 75.8669 145.823 76.1766 143.822C75.8984 137.475 74.639 126.877 74.5138 124.021Z" fill="#D8BA8B"/>
<path fill-rule="evenodd" clip-rule="evenodd" d="M75.3739 103.076L86.986 102.567L83.1529 125.269L83.1448 125.435C83.1391 125.553 83.1307 125.727 83.1203 125.95C83.0995 126.398 83.0705 127.046 83.0375 127.844C82.9716 129.44 82.89 131.638 82.8273 134.048C82.7018 138.871 82.6524 144.524 82.9533 147.887C83.0331 148.779 82.6043 149.363 82.1683 149.714C81.9524 149.887 81.7332 150.005 81.5689 150.08C81.4863 150.117 81.4166 150.144 81.3666 150.162C81.3456 150.17 81.3281 150.176 81.3144 150.18C81.3118 150.181 81.3094 150.182 81.3071 150.182L81.3005 150.185L69.5936 155.473L69.5634 155.478C67.9758 155.748 66.8327 155.801 66.0295 155.694C65.2301 155.586 64.717 155.312 64.4746 154.876C64.2352 154.445 64.3056 153.937 64.4745 153.473C64.6456 153.003 64.9372 152.524 65.2206 152.109C65.6027 151.55 66.2184 151.059 66.929 150.618C67.6427 150.176 68.4721 149.771 69.2997 149.394C69.647 149.235 69.9916 149.082 70.3281 148.933C70.8012 148.723 71.2584 148.521 71.685 148.319C72.4144 147.974 73.0171 147.649 73.4054 147.33C73.5647 147.2 73.7143 147.079 73.8548 146.965C74.406 146.521 74.8195 146.187 75.1423 145.795C75.5303 145.324 75.7875 144.764 75.938 143.809C75.7984 140.645 75.4156 136.426 75.0512 132.635C74.9794 131.889 74.9084 131.159 74.84 130.457C74.5609 127.589 74.3269 125.185 74.2763 124.031C74.1503 121.157 74.9215 108.467 75.3563 103.284L75.3739 103.076ZM81.1504 149.732L81.1517 149.732L81.1619 149.729C81.1714 149.726 81.1864 149.721 81.206 149.714C81.2453 149.7 81.3027 149.677 81.3718 149.646C81.5108 149.583 81.6931 149.484 81.8699 149.342C82.2192 149.061 82.5404 148.62 82.4786 147.929C82.175 144.535 82.2255 138.855 82.3509 134.035C82.4137 131.623 82.4954 129.422 82.5614 127.824C82.5944 127.025 82.6235 126.377 82.6443 125.928C82.6547 125.704 82.6631 125.53 82.6688 125.411L82.6777 125.231C82.6777 125.231 82.6777 125.231 82.9157 125.243L82.6777 125.231L82.6784 125.217L86.418 103.068L75.8138 103.533C75.3756 108.847 74.6296 121.21 74.7524 124.01C74.8023 125.15 75.0345 127.535 75.3134 130.401C75.3819 131.105 75.4533 131.839 75.5255 132.59C75.8907 136.389 76.2757 140.631 76.4151 143.812L76.4162 143.835L76.4126 143.859C76.2528 144.891 75.9681 145.542 75.5101 146.098C75.1536 146.531 74.6917 146.903 74.1347 147.352C73.9981 147.462 73.8557 147.577 73.7078 147.699C73.2696 148.058 72.6188 148.405 71.8887 148.75C71.4598 148.952 70.9907 149.161 70.5111 149.373C70.1749 149.522 69.8336 149.674 69.4976 149.827C68.6742 150.203 67.8673 150.597 67.1802 151.023C66.4901 151.451 65.9406 151.9 65.614 152.378C65.337 152.783 65.0726 153.223 64.9223 153.636C64.7696 154.055 64.753 154.396 64.8911 154.644C65.0262 154.887 65.3553 155.122 66.0928 155.221C66.8217 155.319 67.9008 155.276 69.4534 155.014L81.1337 149.737L81.1504 149.732Z" fill="#333333"/>
<path d="M69.2126 157.245L82.8719 151.479C83.6479 151.047 83.164 149.081 82.3881 149.513L70.2981 154.812C69.1253 155.261 67.8698 155.634 65.9516 155.4C64.0334 155.166 64.692 153.865 64.2605 153.089C63.4844 153.521 63.1574 155.125 63.5888 155.901C63.8873 156.438 64.84 157.238 65.642 157.401C66.6591 157.609 68.0398 157.694 69.2126 157.245Z" fill="#333333"/>
<path fill-rule="evenodd" clip-rule="evenodd" d="M82.6275 149.691C82.6005 149.687 82.5612 149.689 82.5044 149.721C82.4978 149.724 82.4911 149.728 82.4842 149.731L70.3942 155.03C70.3908 155.032 70.3873 155.033 70.3837 155.035C69.1906 155.491 67.8939 155.877 65.9232 155.637C65.4178 155.575 65.0531 155.44 64.793 155.238C64.5284 155.032 64.3944 154.774 64.3199 154.514C64.2619 154.311 64.2374 154.093 64.2157 153.901C64.2108 153.857 64.206 153.815 64.201 153.774C64.1877 153.666 64.1728 153.568 64.1523 153.479C63.9531 153.695 63.7924 154.03 63.7046 154.419C63.5865 154.941 63.6215 155.469 63.7975 155.785C63.9249 156.015 64.2101 156.325 64.5718 156.602C64.9326 156.878 65.338 157.096 65.69 157.168C66.6862 157.371 68.0129 157.448 69.1242 157.024L82.7663 151.265C82.8748 151.2 82.9585 151.072 83.0004 150.878C83.0432 150.681 83.0343 150.445 82.9811 150.229C82.9268 150.008 82.8345 149.84 82.7397 149.753C82.6948 149.712 82.6569 149.695 82.6275 149.691ZM83.4661 150.979C83.4059 151.257 83.263 151.534 82.9881 151.687C82.9806 151.691 82.9729 151.695 82.965 151.698L69.2983 157.467C68.0647 157.939 66.6319 157.846 65.5948 157.635C65.1448 157.543 64.6729 157.279 64.2822 156.98C63.8924 156.682 63.552 156.325 63.381 156.017C63.1256 155.558 63.1083 154.895 63.2398 154.314C63.3706 153.735 63.6696 153.146 64.1451 152.881C64.2601 152.817 64.4052 152.859 64.4691 152.974C64.6014 153.212 64.6448 153.479 64.6739 153.716C64.6802 153.767 64.6859 153.817 64.6914 153.866C64.7129 154.054 64.7321 154.222 64.778 154.383C64.8326 154.573 64.9206 154.733 65.0855 154.862C65.2548 154.993 65.5271 155.108 65.9808 155.164C67.8436 155.391 69.0571 155.032 70.2081 154.592L82.2835 149.298C82.4175 149.227 82.5593 149.198 82.7004 149.22C82.843 149.242 82.9641 149.312 83.0616 149.401C83.2515 149.575 83.3771 149.844 83.4438 150.115C83.5115 150.39 83.5266 150.7 83.4661 150.979Z" fill="#333333"/>
<path d="M64.263 153.09C67.0499 151.378 69.6965 153.117 70.6802 154.398L74.5778 152.638C74.4527 149.781 71.2592 149.471 68.8846 149.707C67.9464 150.066 64.8895 152.267 64.263 153.09Z" fill="#333333"/>
<path fill-rule="evenodd" clip-rule="evenodd" d="M68.9415 149.94C68.7286 150.027 68.3912 150.215 67.9822 150.472C67.5592 150.739 67.074 151.07 66.5975 151.417C66.1871 151.715 65.785 152.023 65.436 152.309C66.4351 152.027 67.3891 152.114 68.2242 152.395C69.3209 152.763 70.2138 153.466 70.7506 154.104L74.3296 152.488C74.2766 151.899 74.0785 151.445 73.7864 151.093C73.4662 150.706 73.0209 150.428 72.4935 150.236C71.4425 149.852 70.108 149.827 68.9415 149.94ZM74.1532 150.789C74.5435 151.259 74.7829 151.865 74.8163 152.626C74.8206 152.724 74.7651 152.814 74.6764 152.854L70.7787 154.615C70.6778 154.66 70.5589 154.63 70.4916 154.543C70.0256 153.935 69.156 153.211 68.0723 152.846C66.9976 152.485 65.714 152.477 64.3882 153.292C64.2904 153.352 64.1637 153.334 64.0868 153.249C64.0098 153.164 64.0044 153.036 64.0739 152.944C64.248 152.716 64.5749 152.409 64.9645 152.082C65.3592 151.749 65.834 151.383 66.3172 151.031C66.8005 150.68 67.2946 150.342 67.7282 150.069C68.1569 149.799 68.5413 149.583 68.7999 149.484C68.8196 149.476 68.8403 149.471 68.8614 149.469C70.0617 149.35 71.496 149.365 72.6568 149.788C73.2402 150.001 73.7652 150.321 74.1532 150.789Z" fill="#333333"/>
<path d="M69.0938 86.1718L100.465 84.9805C100.465 84.9805 101.745 95.1297 102.053 108.013C102.358 120.725 103.642 140.178 103.642 140.178C103.642 140.178 100.253 140.498 98.0823 140.575C95.9112 140.653 92.92 140.178 92.92 140.178C91.7763 128.496 88.949 111.586 88.949 111.586C88.949 111.586 87.5938 106.197 86.5663 95.7023V111.586L84.5808 140.575C84.5808 140.575 80.8729 140.972 78.6242 140.972C76.3756 140.972 73.0648 140.575 73.0648 140.575L71.0793 111.586L69.0938 86.1718Z" fill="#69757B"/>
<path fill-rule="evenodd" clip-rule="evenodd" d="M100.703 84.9506L100.467 84.9805C100.703 84.9506 100.703 84.9505 100.703 84.9506L100.707 84.9806L100.718 85.0687C100.727 85.1465 100.741 85.2622 100.759 85.4139C100.795 85.7172 100.846 86.1648 100.909 86.7419C101.034 87.8962 101.203 89.5692 101.383 91.6449C101.742 95.7962 102.139 101.559 102.294 108.007C102.445 114.359 102.842 122.398 103.201 128.849C103.381 132.075 103.551 134.903 103.676 136.925C103.739 137.936 103.79 138.745 103.826 139.302C103.844 139.58 103.858 139.795 103.867 139.941L103.881 140.161C103.881 140.162 103.881 140.162 103.644 140.178L103.666 140.415L103.627 140.419L103.516 140.429C103.419 140.438 103.277 140.451 103.101 140.466C102.749 140.498 102.257 140.54 101.697 140.585C100.578 140.675 99.1839 140.774 98.0928 140.813C96.9901 140.853 95.6861 140.752 94.6636 140.642C94.1511 140.588 93.7069 140.53 93.3907 140.487C93.2326 140.465 93.1064 140.447 93.0196 140.434C92.9762 140.427 92.9426 140.422 92.9198 140.419L92.8938 140.415L92.887 140.414L92.8853 140.413C92.7781 140.396 92.6954 140.309 92.6848 140.201C92.1136 134.366 91.1215 127.223 90.2719 121.537C89.8471 118.694 89.4581 116.216 89.1753 114.449C89.0339 113.565 88.919 112.859 88.8395 112.374C88.7997 112.132 88.7688 111.945 88.7479 111.818L88.7174 111.635L88.7157 111.628L88.7038 111.579C88.6935 111.537 88.6783 111.473 88.6586 111.388C88.6192 111.219 88.5619 110.966 88.4901 110.63C88.3464 109.958 88.1443 108.954 87.9102 107.621C87.5813 105.749 87.1891 103.23 86.8065 100.075V111.586C86.8065 111.592 86.8063 111.597 86.806 111.603L84.8205 140.591C84.8126 140.707 84.723 140.8 84.6081 140.812L84.6053 140.812L84.5654 140.816L84.4434 140.829C84.3372 140.84 84.1832 140.856 83.9913 140.874C83.6077 140.912 83.0727 140.961 82.4672 141.011C81.2583 141.11 79.7609 141.21 78.6262 141.21C77.4909 141.21 76.0924 141.11 74.982 141.011C74.4258 140.961 73.9403 140.911 73.5937 140.874C73.4203 140.855 73.2817 140.84 73.1863 140.829L73.0767 140.816L73.0482 140.813L73.039 140.812C72.9253 140.798 72.8368 140.705 72.829 140.591L70.8437 111.605L70.8435 111.603L68.8581 86.1903C68.8531 86.1257 68.8746 86.0618 68.9177 86.0133C68.9608 85.9649 69.0218 85.9361 69.0866 85.9337L100.458 84.7424C100.581 84.7377 100.688 84.8281 100.703 84.9506ZM88.9509 111.586C89.1859 111.547 89.1859 111.547 89.1859 111.547L89.218 111.74C89.239 111.867 89.2699 112.055 89.3097 112.297C89.3893 112.783 89.5043 113.489 89.6458 114.373C89.9288 116.142 90.3181 118.622 90.7432 121.466C91.5842 127.095 92.5658 134.158 93.1409 139.97C93.222 139.982 93.3283 139.997 93.4557 140.015C93.7682 140.058 94.2076 140.114 94.7143 140.169C95.7302 140.277 97.0074 140.375 98.0758 140.337C99.1558 140.298 100.541 140.199 101.659 140.11C102.218 140.065 102.708 140.023 103.059 139.992C103.191 139.98 103.302 139.97 103.391 139.962C103.381 139.817 103.368 139.605 103.35 139.332C103.314 138.776 103.263 137.966 103.201 136.955C103.075 134.932 102.905 132.102 102.726 128.876C102.367 122.423 101.969 114.379 101.817 108.018C101.663 101.583 101.266 95.83 100.908 91.6859C100.729 89.614 100.56 87.9445 100.435 86.7932C100.373 86.2176 100.321 85.7715 100.286 85.4696C100.275 85.3741 100.265 85.2931 100.257 85.2269L69.3525 86.4004L71.3189 111.57L73.2909 140.361C73.3814 140.371 73.501 140.385 73.6447 140.4C73.9891 140.437 74.4718 140.487 75.0245 140.536C76.1316 140.635 77.5129 140.734 78.6262 140.734C79.7401 140.734 81.221 140.635 82.4282 140.536C83.0308 140.487 83.5633 140.437 83.9452 140.4C84.1154 140.383 84.2556 140.369 84.3587 140.359L86.33 111.578V95.7023C86.33 95.5752 86.4297 95.4705 86.5566 95.4643C86.6836 95.4581 86.793 95.5526 86.8054 95.679C87.3185 100.92 87.9133 104.885 88.3795 107.539C88.6126 108.865 88.8136 109.864 88.9561 110.531C89.0273 110.864 89.084 111.114 89.1227 111.28C89.1421 111.364 89.157 111.426 89.167 111.467L89.1783 111.514L89.1811 111.525L89.1818 111.528C89.1826 111.531 89.1836 111.535 89.1843 111.539C89.1849 111.542 89.1855 111.545 89.1859 111.547L88.9509 111.586ZM103.644 140.178L103.666 140.415C103.794 140.403 103.89 140.291 103.881 140.162L103.644 140.178Z" fill="#69757B"/>
<path d="M87.7602 30.9741C89.7457 30.577 94.9044 30.9742 97.2871 32.1656C98.4784 32.6951 104.435 36.9307 106.42 40.9017L101.258 55.1975C101.258 62.3328 105.627 83.7891 105.627 83.7891C105.627 83.7891 92.9189 86.986 85.3744 87.363C77.4318 87.76 69.4897 86.8336 63.5332 86.5688C63.5327 77.0383 67.9013 59.9628 67.9013 54.0062L63.5332 44.8729C64.4863 42.0138 69.0927 35.7395 72.2695 33.3569C73.8579 32.1656 78.1151 30.9741 79.0239 30.9741C79.0239 30.9741 81.0094 32.1656 83.392 32.1656C85.7746 32.1656 87.7602 30.9741 87.7602 30.9741Z" fill="#00A9CD"/>
<path d="M97.6846 45.2689C89.4249 40.8214 80.7415 43.6805 77.4323 45.666C75.4468 44.0775 73.8584 43.6803 71.4758 43.6805L72.6671 50.8284C72.6671 50.8284 71.3019 51.961 70.6815 52.8139C70.0612 53.6669 69.4902 55.1966 69.4902 55.1966L77.4323 65.1242C86.1686 71.4778 94.5078 68.0363 98.0817 65.1242L97.6846 45.2689Z" fill="#E1E5E7"/>
<path fill-rule="evenodd" clip-rule="evenodd" d="M97.4492 45.4135C89.3264 41.1136 80.8056 43.9201 77.5549 45.8705C77.4695 45.9218 77.3612 45.9145 77.2834 45.8523C76.3082 45.072 75.4404 44.592 74.5312 44.3049C73.6939 44.0405 72.8101 43.936 71.7573 43.921L72.9021 50.7894C72.916 50.8731 72.8844 50.9578 72.8192 51.012C72.8192 51.012 72.8192 51.012 72.8192 51.012L72.8184 51.0126L72.8157 51.0149L72.8046 51.0242L72.7611 51.0608C72.7233 51.0928 72.6682 51.1398 72.6002 51.1988C72.4641 51.317 72.2762 51.4834 72.0692 51.6759C71.6517 52.0645 71.1699 52.5477 70.8742 52.9543C70.5791 53.36 70.2895 53.937 70.0705 54.4232C69.9619 54.6642 69.8724 54.879 69.8101 55.0335C69.7915 55.0797 69.7753 55.1204 69.7618 55.1548L77.5983 64.9504C86.1373 71.1421 94.2763 67.8614 97.8412 65.0123L97.4492 45.4135ZM69.267 55.1134L69.2675 55.112L69.2689 55.1084L69.274 55.0948L69.2937 55.0434C69.3109 54.999 69.3361 54.9348 69.3682 54.8553C69.4323 54.6963 69.5243 54.4755 69.636 54.2274C69.8576 53.7355 70.1636 53.1212 70.4888 52.674C70.8134 52.2277 71.3244 51.7181 71.7446 51.3271C71.9565 51.1299 72.1486 50.9598 72.2878 50.839C72.3349 50.7981 72.376 50.7629 72.4097 50.7341L71.2407 43.7199C71.2292 43.6508 71.2487 43.5802 71.2939 43.5267C71.3392 43.4733 71.4057 43.4425 71.4757 43.4425C72.6796 43.4424 73.6993 43.5425 74.6747 43.8505C75.6099 44.1458 76.492 44.6283 77.4519 45.378C80.9037 43.3725 89.5531 40.62 97.7976 45.0593C97.8732 45.1001 97.9211 45.1784 97.9228 45.2644L98.3199 65.1196C98.3214 65.1929 98.289 65.2628 98.2322 65.3091C94.6042 68.2652 86.1435 71.7544 77.2921 65.3171C77.275 65.3045 77.2595 65.2898 77.2462 65.2732L69.3042 55.3456C69.2518 55.2801 69.2377 55.1919 69.267 55.1134Z" fill="#C6CED1"/>
<path d="M77.8299 52.8144C77.8299 53.4723 77.2965 54.0057 76.6386 54.0057C75.9806 54.0057 75.4473 53.4723 75.4473 52.8144C75.4473 52.1564 75.9806 51.623 76.6386 51.623C77.2965 51.623 77.8299 52.1564 77.8299 52.8144Z" fill="#C6CED1"/>
<path fill-rule="evenodd" clip-rule="evenodd" d="M82.9159 46.5722L83.105 46.9504C84.5091 46.3956 86.3353 46.1232 88.1036 46.1232C89.8531 46.1232 91.5801 46.3898 92.8096 46.94L92.9983 46.5627C91.63 45.8772 89.6935 45.6097 87.7818 45.6565C85.8961 45.7027 84.0806 46.0536 82.9159 46.5722ZM87.7702 45.1801C89.813 45.1301 91.9476 45.4282 93.4313 46.2525C93.5428 46.3144 93.5858 46.4532 93.5287 46.5673L93.1316 47.3615C93.1033 47.4181 93.0538 47.461 92.9938 47.481C92.9339 47.501 92.8685 47.4964 92.8119 47.4681C91.6675 46.8958 89.9226 46.5997 88.1036 46.5997C86.2874 46.5997 84.4357 46.895 83.0847 47.474C82.9688 47.5237 82.8342 47.4744 82.7778 47.3615L82.3807 46.5673C82.3218 46.4496 82.3695 46.3064 82.4872 46.2476C83.7217 45.6303 85.7262 45.2302 87.7702 45.1801Z" fill="#C6CED1"/>
<path d="M84.068 75.4347L79.4064 72.0147L81.6787 67.2791C82.5824 67.6138 84.3719 68.8866 86.7286 69.4336C88.0305 69.7358 89.3291 70.0127 90.341 70.4261C91.1608 70.7611 91.3015 71.1308 91.3868 71.6859L87.7621 71.7422L92.0403 73.8721C92.7334 74.2701 92.5236 74.5113 92.1265 75.0526C92.0482 75.1593 91.2171 76.2484 90.141 76.641C89.065 77.0336 85.5053 76.1609 84.068 75.4347Z" fill="#D8BA8A"/>
<path fill-rule="evenodd" clip-rule="evenodd" d="M81.463 67.1757C81.5162 67.0647 81.6452 67.0126 81.7605 67.0553C82.0033 67.1452 82.298 67.2949 82.6278 67.4689C82.712 67.5133 82.7989 67.5595 82.8886 67.6072C83.1555 67.7492 83.4468 67.9041 83.7646 68.0633C84.6116 68.4878 85.6291 68.9337 86.7816 69.2011C86.922 69.2337 87.0628 69.2661 87.2036 69.2985C88.3573 69.5638 89.5084 69.8286 90.4302 70.2052C90.8622 70.3817 91.1469 70.5799 91.3311 70.8329C91.5145 71.0848 91.5776 71.364 91.6214 71.6494C91.6319 71.7174 91.6124 71.7867 91.5679 71.8393C91.5235 71.8919 91.4585 71.9227 91.3896 71.9238L88.7438 71.9649L92.1456 73.6584C92.1498 73.6605 92.1539 73.6628 92.158 73.6651C92.5069 73.8655 92.7578 74.0942 92.7287 74.4289C92.7161 74.574 92.6505 74.706 92.58 74.8204C92.518 74.921 92.4375 75.0304 92.3545 75.1432C92.3423 75.1598 92.33 75.1764 92.3177 75.1931C92.2728 75.2544 92.0362 75.5649 91.6712 75.9119C91.3082 76.2569 90.8037 76.6522 90.2218 76.8645C89.9017 76.9812 89.4334 76.9958 88.9216 76.9575C88.3999 76.9185 87.7977 76.8213 87.1888 76.6899C85.975 76.4279 84.7038 76.023 83.9597 75.647C83.9479 75.6411 83.9367 75.6342 83.9262 75.6265L79.2646 72.2064C79.1721 72.1386 79.1411 72.0146 79.1907 71.9113L81.463 67.1757ZM79.7059 71.9392L84.1919 75.2304C84.8881 75.5785 86.1049 75.9685 87.2893 76.2241C87.8845 76.3526 88.4639 76.4454 88.9571 76.4823C89.4603 76.5199 89.8405 76.4963 90.0584 76.4168C90.5526 76.2365 91.0016 75.8909 91.3429 75.5665C91.682 75.2442 91.9002 74.9567 91.9335 74.9113C91.9464 74.8937 91.9589 74.8767 91.9711 74.8602C92.056 74.7446 92.1234 74.653 92.1743 74.5704C92.2332 74.4749 92.2511 74.4202 92.254 74.3876L92.254 74.3874C92.2558 74.3664 92.2637 74.2764 91.9267 74.0818L87.655 71.9552C87.5566 71.9062 87.5045 71.7963 87.5288 71.6891C87.5531 71.582 87.6476 71.5053 87.7575 71.5036L91.0973 71.4517C91.0626 71.3185 91.0166 71.2105 90.9458 71.1134C90.8334 70.959 90.6378 70.8048 90.25 70.6463C89.3667 70.2854 88.2564 70.0299 87.0945 69.7624C86.9549 69.7303 86.8146 69.698 86.6738 69.6653C85.4695 69.3858 84.414 68.9218 83.5511 68.4894C83.2277 68.3273 82.929 68.1684 82.6611 68.0259C82.5724 67.9788 82.4872 67.9335 82.4055 67.8904C82.1702 67.7663 81.9675 67.6625 81.7951 67.585L79.7059 71.9392Z" fill="#333333"/>
<path fill-rule="evenodd" clip-rule="evenodd" d="M92.3071 75.133C92.2624 75.2332 92.1451 75.2782 92.0449 75.2336L87.2957 73.1188C87.1955 73.0742 87.1505 72.9568 87.1951 72.8566C87.2397 72.7564 87.357 72.7114 87.4572 72.756L92.2064 74.8708C92.3066 74.9155 92.3517 75.0328 92.3071 75.133Z" fill="#333333"/>
<path fill-rule="evenodd" clip-rule="evenodd" d="M91.1093 75.941C91.0573 76.0376 90.9369 76.0737 90.8403 76.0217L86.0548 73.4433C85.9582 73.3913 85.9221 73.2709 85.9742 73.1744C86.0262 73.0778 86.1466 73.0417 86.2431 73.0937L91.0287 75.6721C91.1252 75.7241 91.1613 75.8445 91.1093 75.941Z" fill="#333333"/>
<path fill-rule="evenodd" clip-rule="evenodd" d="M90.3153 76.7325C90.2647 76.8298 90.1448 76.8676 90.0475 76.817L85.2042 74.297C85.107 74.2464 85.0691 74.1265 85.1198 74.0292C85.1704 73.932 85.2903 73.8941 85.3875 73.9448L90.2308 76.4647C90.3281 76.5154 90.3659 76.6353 90.3153 76.7325Z" fill="#333333"/>
<path d="M83.8625 59.6905L89.5672 60.6305L91.3627 55.6944C90.4915 55.2826 88.3396 54.5683 86.3003 53.2664C85.1738 52.5472 84.1267 52.112 83.1235 51.678C82.3107 51.3263 81.9915 51.7478 81.5351 52.0751L83.9181 54.4677L78.1744 52.8693C77.8093 53.1311 77.629 54.3705 78.1744 55.1312C78.1529 55.2618 78.2278 55.7839 78.6998 56.8276C79.1718 57.8712 82.3382 59.1711 83.8625 59.6905Z" fill="#D8BA8A"/>
<path fill-rule="evenodd" clip-rule="evenodd" d="M91.5875 55.7755C91.6296 55.6598 91.5767 55.5312 91.4654 55.4786C91.2269 55.3658 90.9062 55.2351 90.5263 55.0802C89.4583 54.6447 87.9226 54.0184 86.4294 53.0652C85.3614 52.3833 84.363 51.9525 83.4226 51.5468C83.3545 51.5174 83.2866 51.4881 83.219 51.4589C82.7624 51.2613 82.4106 51.2704 82.1026 51.4026C81.9575 51.4648 81.8316 51.5504 81.7195 51.6344C81.6664 51.6743 81.621 51.7099 81.5773 51.7441C81.5189 51.79 81.4636 51.8333 81.3971 51.881C81.3403 51.9218 81.3043 51.9854 81.2985 52.055C81.2927 52.1246 81.3178 52.1933 81.3671 52.2428L83.113 53.9957L78.2392 52.6393C78.1696 52.62 78.0951 52.6332 78.0364 52.6752C77.8878 52.7818 77.7868 52.9617 77.7205 53.1446C77.6516 53.335 77.6082 53.5619 77.5959 53.8005C77.5728 54.2486 77.6583 54.7738 77.934 55.1997C77.935 55.2427 77.9394 55.2888 77.9458 55.3363C77.9589 55.4323 77.9834 55.5527 78.0229 55.6988C78.102 55.9912 78.2437 56.3948 78.4836 56.9254C78.6292 57.2473 78.961 57.5549 79.3535 57.8356C79.7547 58.1225 80.2546 58.4053 80.7809 58.6684C81.8341 59.1947 83.0172 59.6535 83.7865 59.9157C83.7989 59.9199 83.8117 59.9231 83.8246 59.9252L89.5293 60.8652C89.6424 60.8838 89.7528 60.8193 89.7919 60.7116L91.5875 55.7755ZM89.4117 60.3629L83.9216 59.4583C83.1663 59.2 82.0146 58.7522 80.9939 58.2421C80.479 57.9848 80.0036 57.7146 79.6307 57.4479C79.2491 57.1751 79.0082 56.9289 78.9178 56.729C78.6857 56.2159 78.5539 55.8366 78.4829 55.5743C78.4474 55.4431 78.4277 55.3433 78.418 55.2721C78.4091 55.2065 78.4102 55.176 78.4104 55.1703C78.4104 55.1693 78.4105 55.1691 78.4104 55.1695C78.4207 55.1072 78.4057 55.0433 78.3689 54.9919C78.137 54.6686 78.0511 54.2274 78.0718 53.825C78.082 53.6259 78.1181 53.4464 78.1686 53.3069C78.1956 53.2324 78.2239 53.1768 78.2498 53.1369L83.8551 54.6969C83.9594 54.7259 84.07 54.681 84.1247 54.5877C84.1793 54.4943 84.1642 54.3759 84.0878 54.2992L81.8968 52.0994C81.9363 52.0685 81.9733 52.0397 82.0053 52.0158C82.1068 51.9397 82.1971 51.8805 82.2905 51.8405C82.4594 51.768 82.6735 51.7421 83.0298 51.8962C83.0961 51.925 83.1626 51.9536 83.2292 51.9824C84.1726 52.3895 85.1384 52.8063 86.173 53.4668C87.7081 54.4469 89.3255 55.1063 90.3926 55.5413C90.652 55.6471 90.8789 55.7396 91.0642 55.8202L89.4117 60.3629Z" fill="#333333"/>
<path fill-rule="evenodd" clip-rule="evenodd" d="M77.7701 54.0057C77.7402 54.1113 77.8016 54.221 77.9071 54.2508L83.2784 55.7687C83.3839 55.7985 83.4936 55.7371 83.5235 55.6316C83.5533 55.5261 83.4919 55.4163 83.3864 55.3865L78.0151 53.8687C77.9096 53.8388 77.7999 53.9002 77.7701 54.0057Z" fill="#333333"/>
<path fill-rule="evenodd" clip-rule="evenodd" d="M77.9837 55.0797C77.9552 55.1856 78.0179 55.2946 78.1238 55.3231L83.9044 56.8794C84.0103 56.9079 84.1192 56.8452 84.1477 56.7393C84.1762 56.6334 84.1135 56.5245 84.0076 56.4959L78.2271 54.9396C78.1212 54.9111 78.0122 54.9738 77.9837 55.0797Z" fill="#333333"/>
<path fill-rule="evenodd" clip-rule="evenodd" d="M78.5745 56.3826C78.5448 56.4881 78.6063 56.5978 78.7119 56.6275L83.8892 58.0839C83.9948 58.1136 84.1044 58.0521 84.1341 57.9465C84.1638 57.841 84.1023 57.7313 83.9968 57.7016L78.8194 56.2452C78.7139 56.2155 78.6042 56.277 78.5745 56.3826Z" fill="#333333"/>
<path d="M57.9746 55.9914C57.9746 53.45 62.3428 45.6667 65.1225 42.0928L70.2848 54.8001C72.5086 56.0708 81.0066 63.8011 84.9777 67.9045L80.6095 73.8611L80.343 73.6802C72.8386 68.5883 57.9746 58.5028 57.9746 55.9914Z" fill="#00A9CD"/>
<path d="M113.297 46.0011C109.646 41.177 104.434 39.1711 98.8745 40.2959L94.1742 52.1781L99.435 60.2432L108.597 57.8834L113.297 46.0011Z" fill="#00C246"/>
<path d="M112.269 46.2589C109.031 41.9505 104.399 40.1679 99.4484 41.1876L95.2378 51.8321L99.8998 59.037L108.058 56.9034L112.269 46.2589Z" fill="#016D33"/>
<path fill-rule="evenodd" clip-rule="evenodd" d="M100.656 48.6791C100.435 48.5915 100.185 48.6999 100.097 48.9212L98.9879 51.7257C98.9004 51.9469 99.0088 52.1972 99.2301 52.2848L104.839 54.5035C105.06 54.591 105.311 54.4826 105.398 54.2613L106.507 51.4569C106.595 51.2356 106.487 50.9853 106.265 50.8978L100.656 48.6791ZM99.296 48.6043C99.5586 47.9405 100.31 47.6152 100.973 47.8778L106.582 50.0965C107.246 50.3591 107.571 51.11 107.309 51.7738L106.199 54.5783C105.937 55.2421 105.186 55.5673 104.522 55.3047L98.9131 53.086C98.2493 52.8235 97.9241 52.0725 98.1867 51.4087L99.296 48.6043Z" fill="#00C246"/>
<path fill-rule="evenodd" clip-rule="evenodd" d="M104.887 46.1827C104.462 46.0146 103.988 46.0222 103.568 46.2038C103.149 46.3855 102.819 46.7263 102.651 47.1513L102.017 48.7539C101.929 48.9751 101.679 49.0835 101.458 48.996C101.236 48.9085 101.128 48.6582 101.216 48.4369L101.849 46.8344C102.102 46.1968 102.597 45.6856 103.226 45.4131C103.855 45.1406 104.567 45.1292 105.204 45.3814C105.842 45.6336 106.353 46.1287 106.625 46.7579C106.898 47.387 106.909 48.0986 106.657 48.7361L106.023 50.3386C105.936 50.5599 105.685 50.6683 105.464 50.5808C105.243 50.4933 105.134 50.2429 105.222 50.0217L105.856 48.4191C106.024 47.9941 106.016 47.5197 105.835 47.1003C105.653 46.6809 105.312 46.3508 104.887 46.1827Z" fill="#00C246"/>
<path fill-rule="evenodd" clip-rule="evenodd" d="M103.146 45.2312C103.824 44.9378 104.59 44.9256 105.277 45.1971C105.963 45.4687 106.514 46.0018 106.807 46.6793C107.1 47.3567 107.113 48.123 106.841 48.8095L106.439 49.8267L106.655 49.9122C107.42 50.2151 107.796 51.0814 107.493 51.8472L106.383 54.6516C106.08 55.4174 105.214 55.7926 104.448 55.4897L98.8395 53.271C98.0737 52.9681 97.6985 52.1017 98.0014 51.336L99.1108 48.5315C99.4137 47.7658 100.28 47.3906 101.046 47.6935L101.262 47.7789L101.664 46.7616C101.936 46.0751 102.469 45.5246 103.146 45.2312ZM101.116 48.1482L100.9 48.0627C100.338 47.8405 99.7023 48.1158 99.48 48.6776L98.3707 51.482C98.1484 52.0439 98.4237 52.6795 98.9856 52.9017L104.594 55.1204C105.156 55.3426 105.792 55.0674 106.014 54.5055L107.123 51.7011C107.346 51.1393 107.07 50.5037 106.509 50.2814L106.293 50.196L106.207 50.412C106.177 50.4883 106.134 50.5554 106.081 50.6117L106.338 50.7134C106.661 50.8413 106.819 51.207 106.691 51.5302L105.582 54.3347C105.454 54.6579 105.089 54.8163 104.765 54.6884L99.1564 52.4697C98.8332 52.3418 98.6748 51.9762 98.8027 51.6529L99.912 48.8485C100.04 48.5253 100.406 48.3669 100.729 48.4947L100.986 48.5965C100.986 48.5191 101 48.4405 101.03 48.3642L101.116 48.1482ZM101.53 48.8117C101.411 48.7645 101.352 48.6295 101.4 48.5102L101.485 48.2942L101.917 48.4651L101.832 48.6811C101.784 48.8004 101.649 48.8589 101.53 48.8117ZM100.583 48.864C100.463 48.8168 100.328 48.8753 100.281 48.9946L99.172 51.799C99.1248 51.9183 99.1832 52.0533 99.3025 52.1004L104.911 54.3191C105.031 54.3663 105.166 54.3079 105.213 54.1886L106.322 51.3841C106.369 51.2648 106.311 51.1299 106.192 51.0827L100.583 48.864ZM104.992 50.1812L102.074 49.0269C102.127 48.9706 102.171 48.9035 102.201 48.8272L102.286 48.6112L105.122 49.733L105.037 49.949C105.006 50.0253 104.992 50.1039 104.992 50.1812ZM105.491 49.879L105.406 50.095C105.359 50.2143 105.417 50.3493 105.536 50.3965C105.656 50.4437 105.791 50.3852 105.838 50.2659L105.923 50.0499L105.491 49.879ZM106.069 49.6807L105.637 49.5098L106.04 48.4925C106.227 48.0185 106.219 47.4895 106.016 47.0217C105.814 46.554 105.434 46.1859 104.96 45.9984C104.486 45.8109 103.957 45.8194 103.489 46.0219C103.021 46.2245 102.653 46.6046 102.465 47.0786L102.063 48.0959L101.631 47.925L102.033 46.9077C102.266 46.3191 102.723 45.8472 103.304 45.5956C103.885 45.3441 104.542 45.3336 105.13 45.5664C105.719 45.7992 106.191 46.2563 106.443 46.8371C106.694 47.4179 106.705 48.0748 106.472 48.6634L106.069 49.6807ZM102.432 48.2419L102.835 47.2247C102.983 46.8486 103.276 46.5471 103.647 46.3863C104.018 46.2256 104.437 46.2189 104.813 46.3676C105.19 46.5164 105.491 46.8084 105.652 47.1795C105.813 47.5506 105.819 47.9704 105.671 48.3464L105.268 49.3637L102.432 48.2419Z" fill="#00C246"/>
<path d="M111.584 67.5078C107.454 69.7316 93.8467 64.0663 87.7578 61.1542L90.1404 54.8005C95.6999 55.33 108.487 56.2301 108.804 57.1831L111.187 51.2266C111.981 52.0208 113.967 56.3889 115.158 59.9629C115.952 63.1397 115.714 65.284 111.584 67.5078Z" fill="#00A9CD"/>
</svg>
