<svg width="113" height="160" viewBox="0 0 113 160" fill="none" xmlns="http://www.w3.org/2000/svg">
<path d="M43.5026 58.9073C47.281 60.9418 50.457 60.0691 51.5469 59.2214L52.2219 55.2743C52.7063 53.2156 53.5298 48.0809 52.9485 44.0119C52.2219 38.9257 44.0558 41.6422 42.0492 43.6487C40.2327 45.4651 38.5375 48.8559 36.9632 50.5513H38.4164C38.1257 51.1326 38.2953 52.7312 38.4164 53.4578C38.5375 54.4266 37.7623 56.0736 39.5061 56.3642C40.7786 56.5763 42.5153 55.963 43.5025 55.2867L43.5026 58.9073Z" fill="#D8BA8B"/>
<path fill-rule="evenodd" clip-rule="evenodd" d="M44.409 41.9438C43.3383 42.4061 42.4234 42.9653 41.894 43.4947C40.9673 44.4214 40.0775 45.7427 39.2322 47.0257C39.1691 47.1215 39.1062 47.217 39.0436 47.3122C38.2603 48.5033 37.5168 49.6337 36.8023 50.4032C36.7433 50.4668 36.7276 50.5592 36.7622 50.6387C36.7969 50.7182 36.8753 50.7695 36.962 50.7695H38.1133C38.0878 50.8827 38.0704 51.0042 38.0586 51.1281C38.0343 51.384 38.0322 51.6714 38.043 51.9585C38.0645 52.5304 38.1379 53.1185 38.1995 53.4892C38.2254 53.7021 38.2032 53.96 38.1744 54.2591C38.1733 54.2708 38.1721 54.2826 38.171 54.2944C38.1439 54.5754 38.1138 54.8867 38.1341 55.1805C38.1554 55.4893 38.2334 55.8039 38.4482 56.063C38.6651 56.3246 38.9973 56.5008 39.4691 56.5794C40.15 56.6929 40.9379 56.5843 41.6718 56.3679C42.2559 56.1956 42.8187 55.9512 43.2834 55.6815L43.2835 59.0377L43.3981 59.0995C47.2419 61.1692 50.5125 60.3014 51.6796 59.3937L51.7464 59.3418L52.4345 55.3178C52.9215 53.2445 53.7495 48.0855 53.1632 43.9813C52.9714 42.6393 52.2804 41.7921 51.3139 41.3307C50.3618 40.8762 49.1627 40.8048 47.951 40.9544C46.7355 41.1044 45.4837 41.4797 44.409 41.9438ZM43.4366 55.0663C43.7606 54.836 43.9592 54.622 44.0277 54.462C44.0752 54.3514 44.2033 54.3001 44.314 54.3475C44.4246 54.395 44.4759 54.5231 44.4284 54.6338C44.3153 54.8978 44.0488 55.1616 43.7193 55.4L43.7195 58.7765C47.3035 60.6561 50.2811 59.8646 51.3456 59.0992L52.007 55.2311L52.0086 55.2246C52.4906 53.1761 53.3072 48.0724 52.7316 44.0429C52.56 42.8418 51.9577 42.1212 51.1261 41.7241C50.2799 41.3202 49.1759 41.2425 48.0044 41.3871C46.8368 41.5312 45.6253 41.8934 44.5819 42.344C43.5344 42.7964 42.6761 43.3292 42.2022 43.803C41.3124 44.6928 40.4464 45.9752 39.5963 47.2655C39.5313 47.3642 39.4664 47.4629 39.4015 47.5615C38.7377 48.5711 38.0827 49.5672 37.4432 50.3336H38.7679L38.6102 50.649C38.5558 50.7579 38.5149 50.9345 38.4926 51.1693C38.4707 51.3994 38.4683 51.666 38.4787 51.9421C38.4994 52.494 38.5709 53.0659 38.6303 53.4221L38.6315 53.4309C38.6654 53.7016 38.6362 54.0115 38.6084 54.3008L38.6064 54.3213C38.5782 54.6141 38.5513 54.8935 38.569 55.1505C38.587 55.4109 38.6498 55.623 38.7839 55.7848C38.9159 55.944 39.1407 56.0827 39.5408 56.1494C40.1324 56.248 40.8491 56.156 41.5485 55.9497C42.2226 55.7509 42.8615 55.4516 43.3302 55.1394C43.3571 55.1053 43.3941 55.0795 43.4366 55.0663Z" fill="#333333"/>
<path fill-rule="evenodd" clip-rule="evenodd" d="M42.4883 47.03C42.673 47.0751 42.8513 47.2422 42.958 47.4024C43.0248 47.5025 43.1602 47.5296 43.2603 47.4628C43.3605 47.396 43.3876 47.2607 43.3208 47.1605C43.1854 46.9574 42.9277 46.6885 42.5917 46.6065C42.4162 46.5636 42.2235 46.5733 42.0303 46.6659C41.8405 46.7568 41.6649 46.9204 41.5048 47.1605C41.4381 47.2607 41.4651 47.396 41.5653 47.4628C41.6655 47.5296 41.8008 47.5025 41.8676 47.4024C41.9981 47.2065 42.1192 47.1067 42.2186 47.0591C42.3145 47.0132 42.4033 47.0092 42.4883 47.03Z" fill="#333333"/>
<path d="M37.326 42.5584C38.4886 44.8835 41.9279 44.496 43.5022 44.0116C43.7929 46.6274 46.1668 49.9456 47.4988 51.641C47.9832 50.9144 49.3153 49.8245 50.4048 50.9144C51.1457 51.6555 50.0415 52.852 49.3149 53.4575L52.948 56.0006C53.8199 55.71 54.4012 54.5476 54.7643 53.0943C55.1278 52.0044 56.1454 46.3368 55.8547 42.5584C55.4914 37.8355 53.7452 38.9843 51.4948 37.1089C49.315 35.2923 44.4017 37.0915 42.464 38.1815C40.2845 39.2715 36.1634 40.2333 37.326 42.5584Z" fill="#8F6E0D"/>
<path fill-rule="evenodd" clip-rule="evenodd" d="M42.3789 38.021C41.9336 38.2434 41.4063 38.4605 40.8524 38.6886C40.7388 38.7354 40.6241 38.7826 40.5087 38.8305C39.8342 39.1102 39.1411 39.4092 38.551 39.7494C37.9643 40.0877 37.4567 40.4792 37.1755 40.9544C36.8854 41.4446 36.8469 42.0063 37.1635 42.6397C37.7838 43.8802 39.0072 44.3825 40.2397 44.5191C41.3718 44.6446 42.543 44.4667 43.3495 44.2451C43.5432 45.5364 44.1952 46.9605 44.953 48.2628C45.7552 49.6414 46.6874 50.9022 47.356 51.7533C47.392 51.799 47.4477 51.8248 47.5059 51.8225C47.5641 51.8203 47.6177 51.7902 47.65 51.7418C47.8777 51.4001 48.3067 50.9734 48.7965 50.7635C49.0389 50.6596 49.289 50.6118 49.5342 50.6459C49.7772 50.6797 50.0293 50.7957 50.2764 51.0428C50.4235 51.19 50.4762 51.3532 50.4678 51.5307C50.4591 51.7159 50.3828 51.9246 50.2535 52.1449C49.9948 52.5859 49.5555 53.0206 49.1986 53.318C49.1552 53.3542 49.1311 53.4086 49.1334 53.4652C49.1358 53.5217 49.1644 53.5739 49.2108 53.6063L52.8438 56.1495C52.8909 56.1824 52.9508 56.1912 53.0054 56.173C53.4998 56.0082 53.8925 55.6033 54.2034 55.0757C54.5144 54.548 54.7553 53.8781 54.9389 53.145C55.1271 52.5754 55.4724 50.8763 55.7349 48.858C55.999 46.8283 56.1826 44.4522 56.0358 42.5445C55.8526 40.1629 55.3164 39.2015 54.487 38.6173C54.1671 38.392 53.8052 38.2253 53.4301 38.0525C53.338 38.0101 53.2452 37.9673 53.152 37.9232C52.6724 37.6964 52.1569 37.4242 51.6111 36.9694C51.0285 36.4838 50.2728 36.2476 49.4524 36.1759C48.6318 36.1041 47.734 36.1956 46.852 36.3773C45.0911 36.74 43.3631 37.468 42.3789 38.021ZM49.4208 36.5378C50.1953 36.6055 50.8712 36.8257 51.3785 37.2485C51.958 37.7313 52.5045 38.0188 52.9967 38.2516C53.0986 38.2998 53.1972 38.3453 53.2926 38.3893C53.6639 38.5606 53.9876 38.7099 54.2778 38.9144C54.975 39.4054 55.4935 40.231 55.6736 42.5723C55.8175 44.4429 55.6376 46.7899 55.3747 48.8111C55.1113 50.8356 54.7677 52.5099 54.592 53.0368C54.5905 53.0412 54.5892 53.0457 54.5881 53.0502C54.4088 53.7678 54.1779 54.4033 53.8904 54.8912C53.6233 55.3445 53.3174 55.6538 52.9739 55.7971L49.6102 53.4425C49.9444 53.1434 50.3221 52.7459 50.5669 52.3287C50.7118 52.0816 50.8181 51.8144 50.8307 51.5479C50.8437 51.2737 50.7566 51.0094 50.5333 50.786C50.2356 50.4882 49.9127 50.3317 49.5843 50.286C49.2582 50.2407 48.9407 50.3064 48.6534 50.4296C48.179 50.6329 47.7673 51.0008 47.4946 51.3404C46.8464 50.5045 46.0005 49.3407 45.267 48.0801C44.4742 46.7177 43.8238 45.2609 43.6827 43.9916C43.6767 43.9378 43.6471 43.8895 43.6018 43.8598C43.5566 43.8301 43.5005 43.8221 43.4487 43.838C42.6787 44.075 41.4508 44.2879 40.2797 44.1581C39.1083 44.0282 38.0308 43.5618 37.4885 42.4772C37.2239 41.9479 37.2645 41.5175 37.4882 41.1394C37.7209 40.7462 38.1618 40.3932 38.7325 40.0641C39.2998 39.737 39.973 39.4459 40.6478 39.1661C40.7608 39.1192 40.874 39.0726 40.9867 39.0262C41.5421 38.7976 42.0861 38.5736 42.5453 38.344L42.5532 38.34L42.5531 38.3398C43.5072 37.8031 45.2024 37.088 46.9252 36.7331C47.7862 36.5558 48.6466 36.4701 49.4208 36.5378Z" fill="#8F6E0D"/>
<path d="M61.6695 73.0477H35.5117C35.5117 66.38 38.0762 57.4043 48.5906 57.4043C58.3357 57.4043 61.6695 65.9953 61.6695 73.0477Z" fill="#165C7D"/>
<path fill-rule="evenodd" clip-rule="evenodd" d="M37.9235 62.6089C39.9188 59.4687 43.2579 57.1865 48.5899 57.1865C53.5381 57.1865 56.874 59.373 58.9642 62.4593C61.0473 65.5351 61.8868 69.4927 61.8868 73.0479C61.8868 73.1683 61.7892 73.2659 61.6688 73.2659H35.511C35.3906 73.2659 35.293 73.1683 35.293 73.0479C35.293 69.6925 35.9372 65.7349 37.9235 62.6089ZM35.7299 72.8299H61.4497C61.416 69.3909 60.5815 65.6248 58.6032 62.7038C56.5902 59.7315 53.3867 57.6225 48.5899 57.6225C43.4074 57.6225 40.207 59.8281 38.2915 62.8427C36.409 65.8054 35.7574 69.5672 35.7299 72.8299Z" fill="#165C7D"/>
<path d="M76.9292 55.5877C76.9292 71.4388 64.0794 84.2886 48.2283 84.2886C32.3772 84.2886 19.5273 71.4388 19.5273 55.5877C19.5273 39.7366 32.3772 26.8867 48.2283 26.8867C64.0794 26.8867 76.9292 39.7366 76.9292 55.5877Z" fill="#E1E5E7" fill-opacity="0.2"/>
<path fill-rule="evenodd" clip-rule="evenodd" d="M46.4122 83.5613C61.6613 83.5613 74.0232 71.1994 74.0232 55.9502C74.0232 40.7011 61.6613 28.3392 46.4122 28.3392C31.163 28.3392 18.8011 40.7011 18.8011 55.9502C18.8011 71.1994 31.163 83.5613 46.4122 83.5613ZM46.4122 89.3741C64.8717 89.3741 79.836 74.4097 79.836 55.9502C79.836 37.4907 64.8717 22.5264 46.4122 22.5264C27.9527 22.5264 12.9883 37.4907 12.9883 55.9502C12.9883 74.4097 27.9527 89.3741 46.4122 89.3741Z" fill="#C6CED1"/>
<path fill-rule="evenodd" clip-rule="evenodd" d="M48.5919 83.5613C63.841 83.5613 76.2029 71.1994 76.2029 55.9502C76.2029 40.7011 63.841 28.3392 48.5919 28.3392C33.3427 28.3392 20.9808 40.7011 20.9808 55.9502C20.9808 71.1994 33.3427 83.5613 48.5919 83.5613ZM48.5919 89.3741C67.0513 89.3741 82.0157 74.4097 82.0157 55.9502C82.0157 37.4907 67.0513 22.5264 48.5919 22.5264C30.1324 22.5264 15.168 37.4907 15.168 55.9502C15.168 74.4097 30.1324 89.3741 48.5919 89.3741Z" fill="#69757B"/>
<path d="M68.7249 138.003L50.5673 89.1674L61.4642 85.1159L79.6217 133.952C79.6217 133.952 80.9244 138.032 76.2017 140.237C71.479 142.441 68.7249 138.003 68.7249 138.003Z" fill="#69757B"/>
<path d="M63.9612 42.8745C62.3972 40.6921 60.7315 39.3007 58.7485 38.0825L60.8075 35.0865C63.254 36.2617 64.8921 37.7545 66.7539 40.5472L63.9612 42.8745Z" fill="#C6CED1"/>
<path d="M67.8909 46.2214C67.22 44.7364 66.7167 43.8899 65.8555 42.9684L67.4838 41.7821C68.5737 42.9684 69.0818 43.8055 69.6847 45.4065L67.8909 46.2214Z" fill="#C6CED1"/>
<path fill-rule="evenodd" clip-rule="evenodd" d="M67.7172 14.7961C67.8652 14.8583 67.9348 15.0287 67.8726 15.1767L65.0588 21.8758C64.9966 22.0238 64.8263 22.0934 64.6783 22.0312C64.5303 21.969 64.4607 21.7987 64.5229 21.6507L67.3367 14.9516C67.3988 14.8036 67.5692 14.734 67.7172 14.7961Z" fill="#165C7D"/>
<path fill-rule="evenodd" clip-rule="evenodd" d="M59.3882 15.3315C59.5368 15.2708 59.7065 15.3421 59.7672 15.4907L61.965 20.872C62.0257 21.0206 61.9545 21.1903 61.8059 21.251C61.6573 21.3117 61.4876 21.2404 61.4269 21.0918L59.229 15.7105C59.1683 15.5619 59.2396 15.3922 59.3882 15.3315Z" fill="#165C7D"/>
<path fill-rule="evenodd" clip-rule="evenodd" d="M72.937 21.0219C72.8763 20.8733 72.7066 20.8021 72.558 20.8628L67.1767 23.0606C67.0281 23.1213 66.9568 23.291 67.0175 23.4396C67.0782 23.5882 67.2479 23.6595 67.3965 23.5988L72.7778 21.4009C72.9264 21.3402 72.9977 21.1706 72.937 21.0219Z" fill="#165C7D"/>
<path d="M32.5947 143.576L22.5154 123.449L34.305 117.338C33.3575 114.837 33.9242 110.847 37.9135 106.423L53.789 88.3506C55.6941 90.7533 58.1213 94.9652 55.1944 101.341L66.0775 130.833L54.9395 136.984C49.6845 139.333 46.4081 138.33 44.6957 136.984L32.5947 143.576Z" fill="#A77427"/>
<path fill-rule="evenodd" clip-rule="evenodd" d="M53.7783 88.6926L38.0745 106.57C34.1185 110.956 33.5992 114.863 34.5079 117.261C34.5471 117.365 34.5026 117.481 34.4044 117.532L22.8057 123.544L32.6876 143.277L44.5905 136.793C44.667 136.751 44.7609 136.759 44.8294 136.813C46.4648 138.098 49.6493 139.107 54.8413 136.789L65.8073 130.733L55.1927 101.969C55.1337 102.101 55.0599 102.254 54.968 102.424C54.6271 103.055 54.0388 103.934 53.045 104.941C52.0635 105.936 51.1619 106.803 50.5056 107.421C50.1775 107.731 49.9106 107.978 49.7257 108.148C49.6484 108.219 49.5854 108.277 49.5383 108.32C51.3803 114.826 49.3378 121.572 44.963 125.041C44.8686 125.116 44.7315 125.1 44.6567 125.005C44.5819 124.911 44.5978 124.774 44.6921 124.699C48.9376 121.333 50.947 114.712 49.082 108.31C49.0586 108.23 49.0833 108.143 49.1454 108.087L49.1465 108.086L49.164 108.071L49.2189 108.021C49.2673 107.977 49.3388 107.912 49.4306 107.827C49.6144 107.658 49.8799 107.412 50.2066 107.104C50.86 106.488 51.7577 105.625 52.7347 104.635C53.6995 103.657 54.2631 102.812 54.5843 102.217C54.745 101.919 54.8452 101.683 54.9048 101.525C54.9346 101.445 54.9542 101.385 54.9661 101.345C54.9721 101.326 54.9761 101.311 54.9786 101.302L54.981 101.293L54.9813 101.292C54.9813 101.292 54.9813 101.292 54.9813 101.292C54.9813 101.292 54.9813 101.292 55.1934 101.342L55.3979 101.266L55.429 101.35L66.2811 130.758C66.3184 130.859 66.2763 130.972 66.182 131.024L55.044 137.175C55.0386 137.178 55.0331 137.181 55.0275 137.183C49.8257 139.509 46.4905 138.602 44.6746 137.244L32.698 143.768C32.6461 143.796 32.5849 143.802 32.5285 143.784C32.4721 143.767 32.4253 143.727 32.3988 143.674L22.3196 123.547C22.2662 123.441 22.3084 123.311 22.4142 123.256L34.0344 117.233C33.1444 114.624 33.8209 110.636 37.7498 106.279C37.7501 106.279 37.7504 106.278 37.7507 106.278L53.6243 88.2074C53.6669 88.1588 53.7289 88.1317 53.7935 88.1333C53.8581 88.1349 53.9187 88.1651 53.9589 88.2158C54.9215 89.4298 56.0264 91.1136 56.5155 93.3091C57.0014 95.4902 56.8758 98.1585 55.429 101.35M53.7783 88.6926C54.678 89.8606 55.6476 91.418 56.09 93.4039C56.5581 95.5048 56.4402 98.1033 54.9953 101.251C54.9893 101.264 54.9846 101.278 54.9813 101.292" fill="#333333"/>
<path d="M71.5426 110.694L84.2535 104.248C86.6044 103.324 90.4876 108.765 85.5971 111.208C90.863 109.264 92.557 116.047 88.4157 118.091L75.5224 125.338C75.5224 125.338 71.9498 126.201 70.8555 123.321C69.7612 120.441 72.9271 118.328 72.9271 118.328C72.9271 118.328 69.5993 119.946 68.2812 117.715C65.6449 113.253 71.5426 110.694 71.5426 110.694Z" fill="#A77427"/>
<path fill-rule="evenodd" clip-rule="evenodd" d="M84.3423 104.448L71.641 110.888C71.6371 110.89 71.6332 110.892 71.6292 110.894L71.6292 110.894L71.6291 110.894L71.6287 110.894L71.6261 110.895L71.6149 110.9C71.6047 110.905 71.5892 110.912 71.5689 110.921C71.5282 110.94 71.4681 110.969 71.3922 111.007C71.2403 111.084 71.0252 111.198 70.7749 111.35C70.273 111.653 69.6354 112.101 69.0806 112.681C68.5255 113.262 68.0628 113.965 67.8917 114.78C67.7218 115.589 67.8344 116.53 68.4686 117.604C69.0613 118.607 70.1068 118.763 71.071 118.641C71.5492 118.581 71.9907 118.453 72.3141 118.34C72.4753 118.283 72.606 118.23 72.6959 118.192C72.7408 118.173 72.7754 118.157 72.7985 118.147L72.8242 118.135L72.8264 118.134L85.4901 111.018C85.4917 111.017 85.4934 111.016 85.495 111.015C85.4965 111.014 85.498 111.014 85.4994 111.013C86.6811 110.422 87.3095 109.664 87.5745 108.889C87.8406 108.111 87.7503 107.286 87.4398 106.55C87.1287 105.812 86.6022 105.176 86.0206 104.783C85.4391 104.389 84.8365 104.258 84.3423 104.448ZM73.0417 118.513L73.0412 118.513C73.036 118.517 73.028 118.522 73.0173 118.53C72.9961 118.545 72.9643 118.568 72.9239 118.598C72.8431 118.659 72.7278 118.749 72.5923 118.867C72.3209 119.103 71.9715 119.446 71.6562 119.873C71.0248 120.73 70.5486 121.9 71.0591 123.243C71.5682 124.583 72.6466 125.056 73.6293 125.193C74.122 125.262 74.5843 125.245 74.9247 125.211C75.0945 125.193 75.2328 125.172 75.3279 125.154C75.3754 125.146 75.4121 125.138 75.4365 125.133C75.4388 125.133 75.4411 125.132 75.4432 125.132L88.3087 117.9C88.3121 117.898 88.3155 117.897 88.319 117.895C90.2815 116.926 90.8608 114.839 90.3269 113.222C90.0608 112.416 89.5213 111.738 88.7481 111.373C87.9799 111.01 86.9542 110.943 85.6885 111.406L73.0417 118.513ZM86.8167 110.679C87.4072 110.184 87.785 109.621 87.987 109.03C88.2947 108.13 88.1843 107.194 87.8415 106.38C87.4992 105.568 86.9198 104.864 86.2649 104.421C85.6135 103.981 84.8531 103.778 84.1735 104.045C84.1671 104.048 84.1609 104.051 84.1547 104.054L71.4491 110.497L71.4362 110.502C71.4242 110.508 71.4069 110.516 71.3847 110.526C71.3403 110.547 71.2762 110.577 71.196 110.618C71.0357 110.699 70.8106 110.819 70.5492 110.977C70.0277 111.292 69.3557 111.763 68.7655 112.38C68.1758 112.997 67.6583 113.77 67.4651 114.69C67.2706 115.616 67.4094 116.668 68.0933 117.825C68.8187 119.053 70.0962 119.204 71.1255 119.074C71.3997 119.039 71.6612 118.985 71.8973 118.923C71.7037 119.12 71.4989 119.352 71.3053 119.615C70.6273 120.535 70.0677 121.862 70.6515 123.398C71.2367 124.938 72.4917 125.474 73.5689 125.625C74.1061 125.7 74.6053 125.681 74.969 125.644C75.1513 125.626 75.3006 125.602 75.4052 125.583C75.4575 125.574 75.4986 125.566 75.5271 125.56C75.5414 125.557 75.5525 125.554 75.5603 125.552L75.5694 125.55L75.572 125.55L75.5729 125.549L75.5732 125.549C75.5733 125.549 75.5734 125.549 75.5222 125.337L75.5734 125.549C75.5928 125.545 75.6115 125.537 75.629 125.527L88.5172 118.283C90.6918 117.207 91.3346 114.883 90.7409 113.085C90.4428 112.183 89.8303 111.402 88.9343 110.979C88.3372 110.696 87.6261 110.578 86.8167 110.679Z" fill="#333333"/>
<path d="M65.8124 94.2964L76.2236 88.9852C80.58 86.9365 85.1758 94.1014 80.4601 96.6266C85.5567 94.579 87.5244 102.616 83.5305 104.73L71.4556 110.604C71.4556 110.604 66.7735 112.635 65.3405 108.965C63.9075 105.295 67.5615 103.466 67.5615 103.466C67.5615 103.466 63.2742 104.934 61.841 101.264C59.9964 96.5402 65.8124 94.2964 65.8124 94.2964Z" fill="#A77427"/>
<path fill-rule="evenodd" clip-rule="evenodd" d="M76.3191 89.1816L65.911 94.4912C65.9043 94.4946 65.8975 94.4976 65.8905 94.5003L65.8875 94.5015L65.8764 94.5059C65.8664 94.5099 65.8511 94.5161 65.831 94.5245C65.7908 94.5413 65.7313 94.5668 65.6557 94.6011C65.5046 94.6697 65.2897 94.7734 65.0371 94.9124C64.5308 95.191 63.8781 95.6089 63.2839 96.1681C62.6894 96.7276 62.1612 97.4212 61.8901 98.2507C61.6205 99.0756 61.6002 100.05 62.0436 101.185C62.7208 102.919 64.0595 103.437 65.2542 103.525C65.8552 103.569 66.4161 103.503 66.8283 103.425C67.0338 103.386 67.2011 103.344 67.3163 103.313C67.3739 103.297 67.4183 103.284 67.4479 103.274C67.4592 103.271 67.4684 103.268 67.4752 103.266L80.3567 96.4351C80.3566 96.4351 80.3569 96.435 80.3567 96.4351C81.4786 95.8342 82.032 94.969 82.1847 94.0443C82.3387 93.1111 82.088 92.0945 81.5562 91.203C80.4857 89.4084 78.3568 88.2255 76.3191 89.1816ZM80.5515 96.8253L67.6586 103.662L67.6574 103.663L67.6511 103.666C67.6453 103.669 67.6362 103.674 67.6241 103.68C67.5998 103.693 67.5636 103.713 67.5174 103.741C67.425 103.795 67.2934 103.877 67.1392 103.987C66.8302 104.208 66.4345 104.538 66.0832 104.976C65.3866 105.845 64.8609 107.139 65.5431 108.886C65.8825 109.755 66.4076 110.275 66.9989 110.575C67.5956 110.879 68.2749 110.967 68.9271 110.943C69.5784 110.919 70.19 110.785 70.6408 110.655C70.8656 110.59 71.049 110.527 71.1756 110.48C71.2389 110.457 71.2879 110.437 71.3207 110.424C71.3371 110.417 71.3494 110.412 71.3574 110.409L71.3647 110.406L83.4314 104.536C85.2996 103.545 85.8066 101.14 85.1957 99.1834C84.8925 98.212 84.3212 97.3841 83.5398 96.9197C82.7684 96.4611 81.7655 96.3405 80.5515 96.8253ZM81.5545 96.1099C82.1547 95.5353 82.4942 94.8459 82.6148 94.1153C82.7892 93.059 82.5029 91.9389 81.9306 90.9796C80.7936 89.0735 78.4481 87.6986 76.1304 88.7885L65.7222 94.0981L65.7142 94.1013C65.7023 94.106 65.6852 94.113 65.6631 94.1222C65.619 94.1406 65.5554 94.1679 65.4755 94.2042C65.3158 94.2767 65.0907 94.3853 64.8269 94.5304C64.3003 94.8202 63.6143 95.2584 62.9851 95.8506C62.3562 96.4425 61.7763 97.1955 61.4757 98.1153C61.1736 99.0396 61.1587 100.118 61.6376 101.344C62.3936 103.28 63.915 103.863 65.2223 103.959C65.6958 103.994 66.143 103.966 66.5198 103.916C66.2684 104.126 65.9959 104.388 65.7431 104.704C64.9711 105.666 64.3863 107.122 65.137 109.045C65.5141 110.01 66.1117 110.613 66.8013 110.964C67.4855 111.312 68.2454 111.404 68.9429 111.379C69.6412 111.353 70.2897 111.21 70.7616 111.074C70.9981 111.005 71.1917 110.939 71.3268 110.889C71.3943 110.864 71.4473 110.843 71.4838 110.828C71.502 110.821 71.5162 110.815 71.5259 110.811L71.5373 110.806L71.5404 110.805L71.5414 110.804C71.5415 110.804 71.5419 110.804 71.4568 110.608L71.5414 110.804L83.6254 104.927L83.632 104.923C85.755 103.8 86.2602 101.13 85.6119 99.0535C85.2853 98.0073 84.6587 97.0776 83.7626 96.5449C83.1372 96.1732 82.3936 96.0027 81.5545 96.1099Z" fill="#333333"/>
<path d="M103.895 31.1816H84.1934C84.1934 26.1597 86.1249 19.3994 94.0441 19.3994C101.384 19.3994 103.895 25.87 103.895 31.1816Z" fill="#165C7D"/>
<path fill-rule="evenodd" clip-rule="evenodd" d="M85.9643 23.2896C87.4769 20.909 90.0089 19.1807 94.0433 19.1807C97.7889 19.1807 100.318 20.8371 101.902 23.1757C103.478 25.5037 104.112 28.496 104.112 31.1809C104.112 31.3013 104.014 31.3988 103.894 31.3988H84.1926C84.0722 31.3988 83.9746 31.3013 83.9746 31.1809C83.9746 28.6483 84.4606 25.656 85.9643 23.2896ZM84.4118 30.9629H103.675C103.641 28.3947 103.013 25.5936 101.541 23.4201C100.034 21.1955 97.6374 19.6166 94.0433 19.6166C90.1585 19.6166 87.7651 21.2684 86.3322 23.5234C84.9322 25.7268 84.4393 28.5236 84.4118 30.9629Z" fill="#165C7D"/>
<path d="M97.5198 14.3771C97.5198 16.2972 95.9633 17.8538 94.0431 17.8538C92.123 17.8538 90.5664 16.2972 90.5664 14.3771C90.5664 12.457 92.123 10.9004 94.0431 10.9004C95.9633 10.9004 97.5198 12.457 97.5198 14.3771Z" fill="#165C7D"/>
<path d="M112.531 83.0067H86.373C86.373 76.339 88.9375 67.3633 99.452 67.3633C109.197 67.3633 112.531 75.9543 112.531 83.0067Z" fill="#165C7D"/>
<path fill-rule="evenodd" clip-rule="evenodd" d="M88.7848 72.5679C90.7802 69.4277 94.1192 67.1455 99.4512 67.1455C104.399 67.1455 107.735 69.332 109.826 72.4183C111.909 75.4941 112.748 79.4517 112.748 83.0069C112.748 83.1273 112.65 83.2249 112.53 83.2249H86.3723C86.2519 83.2249 86.1543 83.1273 86.1543 83.0069C86.1543 79.6514 86.7986 75.6939 88.7848 72.5679ZM86.5912 82.7889H112.311C112.277 79.3499 111.443 75.5838 109.465 72.6628C107.452 69.6905 104.248 67.5815 99.4512 67.5815C94.2687 67.5815 91.0683 69.7871 89.1528 72.8017C87.2703 75.7643 86.6188 79.5261 86.5912 82.7889Z" fill="#165C7D"/>
<path d="M104.068 60.5673C104.068 63.1167 102.001 65.1833 99.452 65.1833C96.9026 65.1833 94.8359 63.1167 94.8359 60.5673C94.8359 58.0179 96.9026 55.9512 99.452 55.9512C102.001 55.9512 104.068 58.0179 104.068 60.5673Z" fill="#165C7D"/>
<path d="M31.1536 20.9454H10.8086C10.8086 15.7594 12.8032 8.77832 20.9811 8.77832C28.5606 8.77832 31.1536 15.4602 31.1536 20.9454Z" fill="#165C7D"/>
<path fill-rule="evenodd" clip-rule="evenodd" d="M12.6434 12.8004C14.2042 10.3441 16.8166 8.56055 20.9803 8.56055C24.8458 8.56055 27.4551 10.2698 29.0894 12.6829C30.7165 15.0855 31.3708 18.174 31.3708 20.9456C31.3708 21.066 31.2732 21.1636 31.1528 21.1636H10.8078C10.6874 21.1636 10.5898 21.066 10.5898 20.9456C10.5898 18.331 11.0916 15.2425 12.6434 12.8004ZM11.027 20.7276H30.9334C30.8999 18.0726 30.2508 15.1753 28.7284 12.9274C27.1713 10.6282 24.6943 8.99651 20.9803 8.99651C16.9661 8.99651 14.4923 10.7035 13.0113 13.0342C11.5632 15.3132 11.0545 18.2063 11.027 20.7276Z" fill="#165C7D"/>
<path d="M24.5712 3.59224C24.5712 5.5751 22.9638 7.18253 20.9809 7.18253C18.9981 7.18253 17.3906 5.5751 17.3906 3.59224C17.3906 1.60938 18.9981 0.00195312 20.9809 0.00195312C22.9638 0.00195312 24.5712 1.60938 24.5712 3.59224Z" fill="#165C7D"/>
<path d="M15.1669 89.9717H0.46875C0.46875 86.2251 1.90974 81.1816 7.81781 81.1816C13.2936 81.1816 15.1669 86.009 15.1669 89.9717Z" fill="#165C7D"/>
<path fill-rule="evenodd" clip-rule="evenodd" d="M1.743 84.055C2.88166 82.263 4.78824 80.9639 7.81704 80.9639C10.6307 80.9639 12.5341 82.2095 13.7255 83.9686C14.9097 85.7173 15.3841 87.9615 15.3841 89.9719C15.3841 90.0923 15.2865 90.1899 15.1661 90.1899H0.467982C0.347594 90.1899 0.25 90.0923 0.25 89.9719C0.25 88.077 0.613395 85.8328 1.743 84.055ZM0.687614 89.7539H14.9462C14.9129 87.8608 14.4442 85.8074 13.3645 84.2131C12.2503 82.5679 10.4792 81.3998 7.81704 81.3998C4.93778 81.3998 3.16983 82.6224 2.11097 84.2888C1.08472 85.9039 0.714901 87.9532 0.687614 89.7539Z" fill="#165C7D"/>
<path d="M10.4102 77.4356C10.4102 78.8681 9.24895 80.0294 7.81644 80.0294C6.38393 80.0294 5.22266 78.8681 5.22266 77.4356C5.22266 76.0031 6.38393 74.8418 7.81644 74.8418C9.24895 74.8418 10.4102 76.0031 10.4102 77.4356Z" fill="#165C7D"/>
<path fill-rule="evenodd" clip-rule="evenodd" d="M21.2914 120.906C21.4717 120.818 21.6892 120.893 21.7773 121.073L33.6766 145.444C33.7646 145.624 33.6898 145.842 33.5095 145.93C33.3292 146.018 33.1117 145.943 33.0236 145.763L21.1243 121.392C21.0363 121.212 21.1111 120.994 21.2914 120.906Z" fill="#E1E5E7"/>
<path fill-rule="evenodd" clip-rule="evenodd" d="M33.8756 146.53C34.0554 146.441 34.2733 146.515 34.3623 146.695L35.1085 148.202C35.1976 148.382 35.1239 148.6 34.9441 148.689C34.7643 148.778 34.5464 148.705 34.4573 148.525L33.7111 147.017C33.6221 146.837 33.6957 146.619 33.8756 146.53Z" fill="#E1E5E7"/>
<path fill-rule="evenodd" clip-rule="evenodd" d="M19.7974 117.892C19.9773 117.803 20.1952 117.876 20.2842 118.056L21.0304 119.564C21.1194 119.744 21.0458 119.961 20.866 120.05C20.6862 120.139 20.4682 120.066 20.3792 119.886L19.633 118.378C19.544 118.199 19.6176 117.981 19.7974 117.892Z" fill="#E1E5E7"/>
</svg>
