<svg width="188" height="160" viewBox="0 0 188 160" fill="none" xmlns="http://www.w3.org/2000/svg">
<path d="M175.351 153.626C175.351 157.147 136.101 160.002 87.6832 160.002C39.2657 160.002 0.015625 157.147 0.015625 153.626C0.015625 150.105 39.2657 147.25 87.6832 147.25C136.101 147.25 175.351 150.105 175.351 153.626Z" fill="#C8CCD0"/>
<path d="M62.5786 123.374L58.9922 101.457L68.1574 100.66C68.1574 100.66 70.1722 119.612 70.5484 123.374C70.8778 126.668 70.1202 136.923 70.5484 140.509C70.7387 142.103 72.1423 142.9 72.1423 142.9C74.1348 143.697 77.7212 143.697 80.9091 144.494C84.0172 145.271 84.3626 147.283 84.097 148.479H65.6335C65.6335 148.479 64.7039 148.479 64.1725 147.682C63.3756 146.486 64.1725 142.9 64.1725 142.9L62.5786 123.374Z" fill="#A77427"/>
<path fill-rule="evenodd" clip-rule="evenodd" d="M68.3954 100.635L68.1577 100.66C68.3954 100.635 68.3954 100.634 68.3954 100.635L68.7161 103.655C68.9109 105.49 69.1745 107.977 69.4499 110.581C70.0005 115.789 70.5984 121.468 70.7865 123.35C70.9435 124.92 70.8566 128.037 70.7671 131.245C70.7616 131.443 70.7561 131.641 70.7506 131.838C70.6556 135.271 70.5746 138.709 70.786 140.48C70.8733 141.211 71.2389 141.764 71.5911 142.138C71.7668 142.325 71.937 142.465 72.0625 142.558C72.1252 142.604 72.1764 142.639 72.2112 142.661C72.2273 142.672 72.2398 142.679 72.2483 142.684C73.2098 143.065 74.5649 143.26 76.1082 143.46C76.2364 143.476 76.3657 143.493 76.4961 143.509C77.9312 143.693 79.4909 143.893 80.9673 144.262C82.5679 144.662 83.4929 145.39 83.9745 146.208C84.4534 147.021 84.4735 147.887 84.3306 148.53L84.289 148.718H65.6337V148.479C65.6337 148.718 65.6338 148.718 65.6337 148.718H65.6328L65.6314 148.718L65.6278 148.718L65.6165 148.717C65.6072 148.717 65.5945 148.717 65.5787 148.716C65.5472 148.714 65.5031 148.71 65.4492 148.703C65.3418 148.689 65.1936 148.661 65.0269 148.606C64.6936 148.495 64.2771 148.269 63.9739 147.814C63.7394 147.462 63.6363 146.963 63.5981 146.448C63.5594 145.925 63.5854 145.35 63.6359 144.82C63.6865 144.289 63.7622 143.796 63.8252 143.437C63.8567 143.258 63.8851 143.111 63.9057 143.009C63.916 142.958 63.9244 142.918 63.9302 142.891L63.9316 142.884L62.3413 123.403L58.7148 101.241L68.3706 100.401L68.3954 100.635ZM64.4062 142.952L64.4057 142.954L64.4042 142.961L64.3979 142.99C64.3924 143.016 64.3844 143.054 64.3745 143.103C64.3546 143.202 64.327 143.345 64.2962 143.52C64.2347 143.871 64.161 144.35 64.1119 144.865C64.0628 145.381 64.039 145.927 64.075 146.412C64.1116 146.906 64.2077 147.303 64.3717 147.549C64.5998 147.891 64.9138 148.064 65.1781 148.152C65.3102 148.196 65.4276 148.218 65.5111 148.229C65.5527 148.234 65.5854 148.237 65.6068 148.238C65.6175 148.239 65.6253 148.239 65.6299 148.239L65.6337 148.239L65.6347 148.239L83.8986 148.239C83.9777 147.714 83.9227 147.062 83.5625 146.451C83.1607 145.769 82.3589 145.102 80.8513 144.726C79.4037 144.364 77.8717 144.168 76.4317 143.983C76.3027 143.967 76.1745 143.95 76.0471 143.934C74.5112 143.736 73.0837 143.534 72.0538 143.122L72.0387 143.116L72.0245 143.108L72.1426 142.9C72.0245 143.108 72.0246 143.108 72.0245 143.108L72.0222 143.106L72.0178 143.104L72.0033 143.095C71.9969 143.091 71.9892 143.087 71.9802 143.081C71.972 143.076 71.9628 143.07 71.9526 143.063C71.9099 143.036 71.8499 142.996 71.778 142.942C71.6344 142.836 71.4418 142.677 71.2428 142.466C70.8456 142.043 70.4143 141.4 70.3112 140.537C70.0945 138.722 70.1782 135.239 70.2726 131.825C70.2778 131.637 70.2831 131.448 70.2883 131.26C70.3784 128.026 70.4645 124.936 70.3107 123.398C70.1227 121.518 69.5251 115.84 68.9743 110.631C68.699 108.027 68.4354 105.541 68.2406 103.705L67.9447 100.918L59.27 101.673L62.8164 123.345L64.414 142.916L64.4062 142.952Z" fill="#333333"/>
<path d="M81.7065 151.268L65.3685 151.268C65.3685 151.268 63.6172 151.268 63.6172 150.072C63.6172 148.759 65.7669 148.877 65.7669 148.877L73.3382 148.877C72.7007 145.689 75.7292 143.829 77.3231 143.298C78.6514 143.431 81.6268 143.617 82.9019 144.892C80.9892 144.573 79.714 147.548 79.3156 148.877H83.3004C84.8944 148.877 84.8944 150.471 84.0974 150.869C83.3004 151.268 82.5035 151.268 81.7065 151.268Z" fill="#333333"/>
<path fill-rule="evenodd" clip-rule="evenodd" d="M77.2484 143.072C77.2804 143.061 77.3142 143.057 77.3478 143.061C77.4463 143.071 77.5547 143.081 77.6714 143.092C78.3321 143.154 79.2599 143.241 80.182 143.433C81.2581 143.657 82.3815 144.033 83.0719 144.724C83.1454 144.797 83.163 144.91 83.1154 145.002C83.0679 145.094 82.966 145.146 82.8635 145.128C82.0539 144.994 81.3356 145.548 80.7378 146.404C80.2355 147.123 79.8636 147.994 79.6442 148.638H83.3013C83.7398 148.638 84.0912 148.748 84.352 148.94C84.6134 149.132 84.7683 149.396 84.8298 149.672C84.9493 150.21 84.717 150.828 84.2052 151.084C83.3576 151.508 82.512 151.508 81.7264 151.508L65.3693 151.508L65.3693 151.268C65.3693 151.508 65.3694 151.508 65.3693 151.508L65.3684 151.508L65.3667 151.508L65.3617 151.507L65.3442 151.507C65.3295 151.507 65.3086 151.506 65.2824 151.505C65.2302 151.502 65.1566 151.497 65.0686 151.487C64.894 151.467 64.6569 151.427 64.4164 151.345C63.9442 151.184 63.3789 150.826 63.3789 150.073C63.3789 149.669 63.5484 149.366 63.7979 149.151C64.0391 148.943 64.3482 148.823 64.6347 148.751C64.924 148.678 65.2097 148.651 65.4206 148.641C65.5266 148.636 65.6153 148.635 65.678 148.636C65.7094 148.636 65.7343 148.637 65.7518 148.638L65.7722 148.638L65.7735 148.638L73.0562 148.638C72.8408 147.085 73.4575 145.843 74.3207 144.928C75.2305 143.963 76.4231 143.347 77.2484 143.072ZM73.5395 148.638L79.1405 148.638C79.3604 147.956 79.7685 146.957 80.3458 146.13C80.8238 145.446 81.4564 144.828 82.2294 144.669C81.6503 144.31 80.8846 144.068 80.0846 143.901C79.1911 143.715 78.2937 143.631 77.6318 143.568C77.5329 143.559 77.4393 143.55 77.3518 143.542C76.5851 143.806 75.495 144.379 74.6687 145.256C73.867 146.106 73.3222 147.229 73.5395 148.638ZM65.7543 149.116L65.7509 149.116L65.7354 149.115C65.7214 149.115 65.7002 149.114 65.6728 149.114C65.6179 149.113 65.5386 149.114 65.4431 149.119C65.2509 149.128 64.9992 149.153 64.751 149.215C64.5001 149.278 64.2718 149.374 64.1099 149.513C63.9563 149.646 63.8571 149.82 63.8571 150.073C63.8571 150.515 64.1674 150.755 64.5709 150.893C64.7682 150.96 64.969 150.995 65.1227 151.012C65.199 151.021 65.2622 151.025 65.3057 151.027C65.3274 151.028 65.3442 151.029 65.3551 151.029L65.3669 151.029L65.3693 151.029L81.7074 151.029C82.5104 151.029 83.2519 151.026 83.9914 150.656C84.2766 150.513 84.4427 150.135 84.363 149.776C84.3249 149.605 84.2307 149.445 84.0687 149.325C83.9061 149.206 83.6598 149.117 83.3013 149.117L65.7677 149.117C65.7634 149.117 65.7586 149.116 65.7543 149.116Z" fill="#333333"/>
<path d="M42.9078 121.539C42.7822 118.673 43.5543 105.955 43.991 100.751L55.138 100.262L51.3385 122.765C51.3385 122.765 50.5314 138.729 51.1381 145.51C51.2801 147.097 49.6329 147.57 49.6329 147.57L37.8996 152.871C31.5648 153.946 32.6545 151.505 33.779 149.86C35.2015 147.78 40.2881 146.476 41.9467 145.115C43.4868 143.851 44.2656 143.418 44.5764 141.41C44.2972 135.04 43.0334 124.406 42.9078 121.539Z" fill="#A77427"/>
<path fill-rule="evenodd" clip-rule="evenodd" d="M43.7717 100.521L55.4244 100.01L51.5779 122.791L51.5697 122.958C51.564 123.076 51.5556 123.251 51.5452 123.475C51.5243 123.925 51.4952 124.574 51.4621 125.375C51.3959 126.977 51.3141 129.183 51.2511 131.601C51.1252 136.441 51.0756 142.114 51.3776 145.488C51.4576 146.383 51.0274 146.97 50.5899 147.322C50.3732 147.496 50.1532 147.614 49.9883 147.689C49.9055 147.727 49.8355 147.754 49.7854 147.772C49.7643 147.779 49.7467 147.785 49.733 147.79C49.7304 147.79 49.7279 147.791 49.7256 147.792L49.719 147.794L37.9713 153.101L37.941 153.106C36.3479 153.377 35.2007 153.43 34.3947 153.322C33.5925 153.215 33.0777 152.939 32.8345 152.502C32.5942 152.07 32.6648 151.56 32.8343 151.094C33.006 150.622 33.2986 150.141 33.583 149.725C33.9665 149.164 34.5843 148.672 35.2974 148.229C36.0136 147.785 36.8459 147.379 37.6764 147C38.0249 146.841 38.3706 146.688 38.7083 146.538C39.1831 146.328 39.6419 146.124 40.07 145.922C40.802 145.576 41.4068 145.25 41.7964 144.93C41.9562 144.799 42.1063 144.678 42.2474 144.564C42.8004 144.117 43.2154 143.782 43.5393 143.389C43.9287 142.916 44.1868 142.355 44.3378 141.396C44.1977 138.221 43.8136 133.988 43.4479 130.184C43.3759 129.435 43.3046 128.702 43.236 127.997C42.9559 125.12 42.7211 122.708 42.6703 121.55C42.5439 118.665 43.3178 105.931 43.7541 100.73L43.7717 100.521ZM49.5683 147.34L49.5697 147.34L49.5799 147.337C49.5895 147.333 49.6045 147.329 49.6242 147.321C49.6636 147.307 49.7212 147.285 49.7906 147.254C49.93 147.19 50.113 147.091 50.2903 146.949C50.6409 146.667 50.9632 146.224 50.9013 145.531C50.5965 142.125 50.6472 136.425 50.7731 131.588C50.8361 129.168 50.9181 126.959 50.9843 125.356C51.0174 124.554 51.0466 123.903 51.0675 123.453C51.078 123.228 51.0863 123.053 51.0921 122.935L51.101 122.754C51.101 122.754 51.101 122.753 51.3398 122.765L51.101 122.754L51.1017 122.739L54.8544 100.514L44.2132 100.98C43.7735 106.312 43.0249 118.718 43.148 121.529C43.1982 122.673 43.4311 125.066 43.711 127.941C43.7798 128.648 43.8514 129.384 43.9239 130.138C44.2904 133.95 44.6767 138.207 44.8166 141.399L44.8176 141.423L44.814 141.446C44.6537 142.482 44.368 143.135 43.9084 143.693C43.5506 144.128 43.0872 144.501 42.5282 144.952C42.3911 145.063 42.2483 145.178 42.0998 145.3C41.6601 145.66 41.0071 146.008 40.2744 146.354C39.844 146.558 39.3732 146.766 38.892 146.98C38.5547 147.13 38.2122 147.282 37.8749 147.435C37.0487 147.813 36.239 148.208 35.5495 148.636C34.857 149.065 34.3055 149.516 33.9778 149.995C33.6999 150.402 33.4346 150.843 33.2837 151.258C33.1305 151.678 33.1138 152.02 33.2524 152.269C33.388 152.513 33.7182 152.749 34.4582 152.848C35.1897 152.946 36.2726 152.903 37.8306 152.64L49.5517 147.345L49.5683 147.34Z" fill="#333333"/>
<path d="M37.5911 154.879L51.2979 149.093C52.0766 148.66 51.5911 146.687 50.8124 147.12L38.6804 152.438C37.5034 152.889 36.2435 153.263 34.3186 153.028C32.3938 152.794 33.0547 151.488 32.6216 150.709C31.8428 151.142 31.5147 152.752 31.9477 153.531C32.2471 154.07 33.2032 154.872 34.008 155.036C35.0287 155.244 36.4142 155.33 37.5911 154.879Z" fill="#333333"/>
<path fill-rule="evenodd" clip-rule="evenodd" d="M51.0516 147.298C51.0245 147.294 50.9851 147.296 50.928 147.328C50.9215 147.332 50.9147 147.335 50.9078 147.338L38.7757 152.656C38.7722 152.658 38.7687 152.659 38.7652 152.66C37.5678 153.119 36.2667 153.506 34.289 153.265C33.7819 153.203 33.416 153.067 33.1549 152.864C32.8894 152.658 32.7549 152.399 32.6801 152.138C32.622 151.934 32.5974 151.716 32.5757 151.523C32.5707 151.479 32.5659 151.436 32.5608 151.395C32.5475 151.287 32.5325 151.189 32.512 151.1C32.3121 151.316 32.1509 151.653 32.0628 152.042C31.9443 152.566 31.9793 153.096 32.156 153.414C32.2838 153.644 32.57 153.956 32.9329 154.233C33.295 154.51 33.7019 154.729 34.0551 154.801C35.0547 155.005 36.3861 155.082 37.5012 154.656L51.1909 148.877C51.2997 148.812 51.3838 148.683 51.4258 148.49C51.4687 148.292 51.4599 148.055 51.4064 147.838C51.352 147.617 51.2594 147.447 51.1642 147.36C51.1192 147.319 51.0811 147.303 51.0516 147.298ZM51.8932 148.591C51.8328 148.869 51.6893 149.148 51.4135 149.301C51.406 149.305 51.3982 149.309 51.3903 149.312L37.6759 155.102C36.438 155.575 35.0002 155.482 33.9595 155.269C33.5079 155.177 33.0344 154.913 32.6424 154.613C32.2512 154.314 31.9096 153.955 31.738 153.646C31.4817 153.185 31.4644 152.521 31.5964 151.937C31.7276 151.357 32.0276 150.765 32.5048 150.499C32.6202 150.435 32.7657 150.477 32.8299 150.592C32.9626 150.831 33.0062 151.1 33.0354 151.337C33.0418 151.389 33.0475 151.439 33.053 151.487C33.0746 151.676 33.0938 151.845 33.1399 152.006C33.1947 152.198 33.283 152.358 33.4484 152.487C33.6183 152.619 33.8916 152.734 34.3469 152.79C36.2161 153.018 37.4339 152.658 38.5889 152.216L50.7064 146.904C50.8408 146.832 50.9831 146.804 51.1248 146.825C51.2679 146.848 51.3894 146.918 51.4872 147.007C51.6777 147.182 51.8039 147.452 51.8708 147.724C51.9387 148 51.9539 148.311 51.8932 148.591Z" fill="#333333"/>
<path d="M32.621 150.709C35.4175 148.991 38.0734 150.736 39.0604 152.022L42.9717 150.256C42.8461 147.389 39.6415 147.078 37.2586 147.315C36.3171 147.675 33.2496 149.884 32.621 150.709Z" fill="#333333"/>
<path fill-rule="evenodd" clip-rule="evenodd" d="M37.3166 147.55C37.103 147.636 36.7644 147.825 36.3539 148.084C35.9294 148.351 35.4425 148.683 34.9644 149.031C34.5526 149.33 34.1491 149.64 33.7989 149.927C34.8015 149.644 35.7588 149.731 36.5968 150.013C37.6973 150.383 38.5934 151.088 39.132 151.728L42.7235 150.106C42.6703 149.515 42.4715 149.06 42.1784 148.706C41.8571 148.319 41.4102 148.039 40.881 147.846C39.8263 147.461 38.4872 147.436 37.3166 147.55ZM42.5465 148.401C42.9381 148.873 43.1784 149.481 43.2119 150.245C43.2162 150.343 43.1605 150.433 43.0714 150.473L39.1602 152.24C39.059 152.286 38.9396 152.256 38.8721 152.168C38.4045 151.559 37.5318 150.831 36.4444 150.466C35.3659 150.103 34.0779 150.096 32.7474 150.913C32.6493 150.973 32.5222 150.955 32.4449 150.87C32.3677 150.784 32.3623 150.656 32.432 150.564C32.6068 150.335 32.9347 150.027 33.3257 149.698C33.7218 149.365 34.1982 148.997 34.6831 148.644C35.1681 148.292 35.6639 147.953 36.0991 147.679C36.5293 147.408 36.915 147.191 37.1745 147.092C37.1943 147.084 37.2151 147.079 37.2362 147.077C38.4407 146.957 39.88 146.972 41.0448 147.397C41.6303 147.61 42.1571 147.931 42.5465 148.401Z" fill="#333333"/>
<path d="M74.1352 101.297C65.8467 104.166 47.3037 104.086 39.0683 103.688C36.1199 95.432 38.2862 78.8888 39.5594 70.0625C39.6628 69.3456 39.7656 68.6787 39.8654 68.07C44.4852 68.07 50.7241 68.184 57.0002 68.07C63.5361 67.9513 67.2746 67.5118 68.5756 67.1865C68.6918 67.8451 68.8194 68.5934 68.9549 69.4176C69.2994 71.5126 69.8434 74.1162 70.452 76.9937C72.0666 84.628 74.1352 94.1902 74.1352 101.297Z" fill="#69757B"/>
<path fill-rule="evenodd" clip-rule="evenodd" d="M68.7654 66.8926L68.81 67.1452C68.9264 67.8048 69.0541 68.554 69.1897 69.3791C69.5332 71.4677 70.076 74.0657 70.6848 76.9445C70.7323 77.1687 70.7801 77.3947 70.8283 77.6222C72.4177 85.1309 74.3732 94.3696 74.3732 101.297V101.467L74.2124 101.523C70.0316 102.97 63.292 103.668 56.591 103.957C49.8814 104.246 43.1795 104.126 39.0557 103.927L38.8959 103.919L38.8421 103.768C37.3503 99.5916 37.1586 93.3492 37.4909 87.0767C37.8237 80.7941 38.6849 74.4427 39.3217 70.0286C39.4253 69.3103 39.5283 68.6418 39.6283 68.0316L39.6612 67.8312H39.8643C41.3019 67.8312 42.8944 67.8422 44.595 67.8539C48.367 67.88 52.6707 67.9097 56.9948 67.8312C63.53 67.7125 67.2444 67.2728 68.5165 66.9548L68.7654 66.8926ZM68.3826 67.4762C66.8668 67.8 63.1691 68.1973 57.0035 68.3093C52.6734 68.3879 48.3582 68.3581 44.5836 68.3321C42.965 68.3209 41.4459 68.3104 40.0676 68.3094C39.9906 68.7856 39.912 69.2957 39.8329 69.836C40.6053 69.8731 41.3456 69.9222 42.1017 69.9723C43.5709 70.0697 45.0997 70.171 47.04 70.1963C51.9956 70.261 57.4648 70.2282 62.1707 70.0559C64.6044 69.9668 65.8666 69.7277 67.1376 69.4871C67.6273 69.3943 68.1184 69.3013 68.6783 69.2166C68.5741 68.5874 68.4751 68.0052 68.3826 67.4762ZM68.7564 69.6884C68.2196 69.7697 67.7394 69.8606 67.2551 69.9522C66.0174 70.1863 64.7534 70.4253 62.4517 70.5233C62.6288 71.6463 63.1907 73.1933 64.3479 74.4644C65.5471 75.7817 67.3954 76.8148 70.1579 76.7639C69.5955 74.1024 69.0916 71.6791 68.7564 69.6884ZM70.2586 77.24C67.3074 77.3183 65.2992 76.2198 63.9943 74.7863C62.7456 73.4147 62.1504 71.7476 61.9707 70.5416C57.366 70.7053 52.0606 70.7374 47.227 70.6769C47.0012 71.6436 46.4949 73.4702 45.4976 75.1044C44.43 76.8538 42.7717 78.4238 40.2626 78.4238V77.9456C42.5354 77.9456 44.0649 76.534 45.0894 74.8553C46.0148 73.339 46.5052 71.6383 46.7372 70.67C44.9252 70.6385 43.4529 70.5411 42.0489 70.4482C41.2816 70.3974 40.5348 70.348 39.764 70.3114C39.131 74.7129 38.2946 80.9432 37.9684 87.102C37.6404 93.2949 37.8309 99.378 39.2394 103.457C43.3632 103.651 49.9641 103.764 56.5704 103.479C63.185 103.194 69.7748 102.511 73.8947 101.126C73.8629 94.2691 71.9352 85.1616 70.3549 77.695C70.3226 77.5426 70.2905 77.3909 70.2586 77.24Z" fill="#616C72"/>
<path d="M57.7228 27.1959C55.7304 29.5869 50.1515 28.1257 48.9561 27.1959L47.7604 22.8168C47.2291 20.5587 46.3259 14.9268 46.9634 10.4637C47.7604 4.88484 56.7174 7.86448 58.9183 10.0653C60.9107 12.0576 62.7702 15.7769 64.4969 17.6365H62.903C63.2218 18.2741 63.0358 20.0274 62.903 20.8244C62.7702 21.887 63.6205 23.6935 61.7077 24.0123C60.3126 24.2448 58.4086 23.5728 57.3257 22.8313L57.7228 27.1959Z" fill="#A77427"/>
<path fill-rule="evenodd" clip-rule="evenodd" d="M56.3295 8.19487C57.5039 8.70202 58.5075 9.31537 59.0881 9.89603C60.1046 10.9124 61.0806 12.3617 62.0077 13.7689C62.0769 13.874 62.1459 13.9788 62.2145 14.0832C63.0737 15.3896 63.8892 16.6296 64.6729 17.4736C64.7376 17.5433 64.7549 17.6447 64.7169 17.7319C64.6789 17.819 64.5928 17.8754 64.4977 17.8754H63.235C63.263 17.9995 63.2821 18.1328 63.295 18.2687C63.3216 18.5494 63.3239 18.8646 63.3121 19.1795C63.2885 19.8068 63.208 20.4519 63.1405 20.8584C63.112 21.092 63.1364 21.3749 63.168 21.7029C63.1692 21.7158 63.1704 21.7287 63.1717 21.7416C63.2014 22.0499 63.2344 22.3913 63.2121 22.7136C63.1887 23.0522 63.1032 23.3974 62.8676 23.6816C62.6297 23.9685 62.2653 24.1617 61.7478 24.248C61.0013 24.3724 60.1375 24.2534 59.3328 24.0162C58.7101 23.8327 58.1094 23.5744 57.6081 23.2883L57.9707 27.2727L57.9073 27.3488C57.365 27.9995 56.5885 28.3764 55.7338 28.5685C54.8791 28.7606 53.9301 28.7719 53.0171 28.6789C52.103 28.5858 51.2151 28.3871 50.4782 28.152C49.7486 27.9193 49.143 27.6434 48.8101 27.3845L48.7472 27.3356L47.5283 22.8714C46.9943 20.6021 46.0838 14.9361 46.7275 10.4297C46.9378 8.95776 47.6957 8.02854 48.7559 7.52243C49.8002 7.02391 51.1154 6.9456 52.4445 7.10965C53.7777 7.27422 55.1507 7.68581 56.3295 8.19487ZM57.3962 22.5883C57.0408 22.3357 56.8229 22.101 56.7477 21.9255C56.6957 21.8041 56.5551 21.7479 56.4338 21.7999C56.3124 21.8519 56.2562 21.9925 56.3082 22.1139C56.4337 22.4068 56.7312 22.6994 57.0984 22.9632L57.4763 27.1162C57.0246 27.618 56.3819 27.9327 55.6289 28.1019C54.8399 28.2792 53.9458 28.2928 53.0656 28.2032C52.1865 28.1136 51.3311 27.9222 50.6235 27.6965C49.9604 27.485 49.4478 27.2499 49.1656 27.0526L47.993 22.7578C47.4642 20.5083 46.5699 14.9144 47.2009 10.4973C47.3891 9.17984 48.0497 8.38945 48.9619 7.95397C49.89 7.5109 51.101 7.42563 52.3859 7.58424C53.6666 7.74232 54.9954 8.13962 56.1399 8.63387C57.2889 9.13003 58.2303 9.71443 58.75 10.2342C59.726 11.2101 60.676 12.6167 61.6084 14.032C61.6797 14.1402 61.7509 14.2485 61.822 14.3567C62.5501 15.464 63.2685 16.5567 63.9699 17.3972H62.5169L62.6899 17.7432C62.7496 17.8626 62.7944 18.0563 62.8189 18.3139C62.8429 18.5663 62.8456 18.8587 62.8342 19.1615C62.8114 19.7669 62.7331 20.3942 62.6679 20.7849L62.6665 20.7946C62.6294 21.0914 62.6614 21.4313 62.692 21.7487L62.6941 21.7711C62.725 22.0923 62.7546 22.3987 62.7351 22.6806C62.7154 22.9663 62.6465 23.199 62.4995 23.3764C62.3546 23.551 62.108 23.7031 61.6692 23.7763C61.0206 23.8844 60.2349 23.7836 59.468 23.5576C58.7284 23.3395 58.0272 23.0111 57.5129 22.6685C57.4831 22.6309 57.4425 22.6027 57.3962 22.5883Z" fill="#333333"/>
<path d="M51.0224 12.2785C52.7492 13.2083 57.1592 14.0319 60.9847 9.88758C64.8102 5.7433 61.9748 4.02947 60.1151 2.70117C57.405 0.765277 51.2539 -1.7011 46.3154 2.70112C43.8366 -0.409141 39.0908 0.638722 35.1059 5.0221C31.121 9.40548 29.4474 22.409 30.7225 25.345C32.3165 29.0151 35.5937 22.5496 37.4969 18.9692C38.6923 16.7202 39.957 12.3659 42.9803 11.6545C41.4817 16.6093 42.6565 22.7286 46.3154 23.3526C48.7524 23.7682 50.7708 22.0206 51.3485 20.0227C51.4083 19.8162 48.9576 20.4212 48.9576 18.0303C48.9576 16.837 49.3561 16.4363 50.1531 16.4363C51.3485 16.4363 51.3485 17.6318 51.9214 17.2333C52.4942 16.8348 51.4573 13.5346 51.0224 12.2785Z" fill="#333333"/>
<path fill-rule="evenodd" clip-rule="evenodd" d="M54.0202 0.561423C56.4664 0.863844 58.6448 1.9455 59.9748 2.89551L59.9748 2.89551C60.0526 2.95113 60.1316 3.00701 60.2112 3.06334C60.614 3.3484 61.0335 3.64529 61.414 3.98076C61.8683 4.3813 62.2478 4.82109 62.4597 5.33005C62.8697 6.31497 62.6944 7.68112 60.8076 9.72519C57.0711 13.773 52.7861 12.9572 51.1344 12.0678C51.0476 12.0211 50.9411 12.0324 50.8661 12.0962C50.7911 12.1601 50.7629 12.2634 50.7951 12.3565C51.0113 12.9812 51.3763 14.1115 51.6156 15.1319C51.7356 15.6435 51.8214 16.1172 51.8437 16.482C51.8548 16.6652 51.8491 16.8089 51.829 16.9114C51.8091 17.0129 51.7827 17.037 51.7829 17.0372C51.7829 17.0372 51.7831 17.0371 51.7834 17.0368C51.7337 17.0714 51.7098 17.0749 51.7059 17.0752C51.7041 17.0754 51.7034 17.0753 51.7025 17.0751C51.7011 17.0747 51.6964 17.0734 51.6877 17.0685C51.6678 17.0573 51.6391 17.0345 51.5957 16.9897C51.5637 16.9567 51.5321 16.9207 51.4943 16.8777C51.4799 16.8613 51.4647 16.8439 51.4481 16.8253C51.2121 16.5594 50.8531 16.197 50.1517 16.197C49.7147 16.197 49.3306 16.3081 49.0683 16.6364C48.8173 16.9505 48.7171 17.4174 48.7171 18.0301C48.7171 18.67 48.8819 19.1373 49.1523 19.4714C49.4213 19.8037 49.7748 19.9797 50.1082 20.0753C50.4398 20.1703 50.7647 20.1894 50.9883 20.1992C51.006 20.1999 51.0227 20.2006 51.0385 20.2013C50.3993 22.0021 48.5465 23.4906 46.3542 23.1167C44.6652 22.8286 43.4994 21.262 42.9442 19.0687C42.403 16.9307 42.4671 14.2715 43.1643 11.87C44.7494 11.6298 45.8592 10.8049 46.5703 9.63668C47.2984 8.44046 47.6013 6.8978 47.6013 5.27842C47.6013 5.26786 47.6006 5.2573 47.5992 5.24683C47.4656 4.24473 47.1256 3.40776 46.6394 2.73424C49.0055 0.711034 51.6374 0.266846 54.0202 0.561423ZM46.3411 2.36014C48.8237 0.243536 51.5922 -0.220558 54.0788 0.0868496C56.6203 0.401035 58.8725 1.52052 60.2527 2.5064M46.3411 2.36014C45.0434 0.873734 43.21 0.398155 41.2246 0.817343C39.1667 1.25186 36.9424 2.6448 34.9276 4.86105C33.9016 5.98969 33.0368 7.65706 32.335 9.5506C31.6317 11.448 31.0855 13.5901 30.7051 15.6833C30.3246 17.7766 30.1089 19.8268 30.0687 21.5415C30.0486 22.3988 30.0723 23.1755 30.1422 23.8336C30.2117 24.4881 30.3282 25.0404 30.5018 25.4401C30.7103 25.9199 30.9592 26.266 31.2572 26.469C31.5653 26.6789 31.9037 26.7205 32.2446 26.6318C32.5753 26.5458 32.9028 26.3394 33.2197 26.0651C33.5387 25.7889 33.861 25.4315 34.1806 25.0232C35.3499 23.5293 36.5479 21.268 37.4688 19.5295C37.5503 19.3757 37.6296 19.2259 37.7066 19.0812C37.9564 18.6113 38.2091 18.0509 38.4755 17.4603C38.5327 17.3334 38.5906 17.2052 38.6491 17.0762C38.9827 16.3414 39.3432 15.5732 39.7587 14.8547C40.5129 13.5506 41.4231 12.4551 42.6289 12.009C41.9819 14.4129 41.9375 17.0402 42.4806 19.186C43.053 21.4471 44.3039 23.2521 46.2738 23.5881C48.8567 24.0285 50.9731 22.1765 51.5768 20.0889C51.5942 20.0287 51.5923 19.9545 51.5525 19.8856C51.5177 19.8255 51.468 19.7943 51.4389 19.7795C51.3844 19.7516 51.325 19.7428 51.2921 19.7385C51.2301 19.7306 51.1457 19.7271 51.0606 19.7236C51.0434 19.7229 51.0262 19.7222 51.0092 19.7214C50.7901 19.7118 50.5135 19.694 50.2399 19.6156C49.9681 19.5377 49.7127 19.4038 49.524 19.1706C49.3368 18.9393 49.1953 18.5856 49.1953 18.0301C49.1953 17.4495 49.2944 17.1194 49.4418 16.9349C49.578 16.7645 49.7917 16.6752 50.1517 16.6752C50.6457 16.6752 50.8844 16.9105 51.0905 17.1427C51.1027 17.1566 51.1154 17.171 51.1283 17.1857C51.1686 17.2316 51.2114 17.2803 51.2522 17.3224C51.3067 17.3787 51.3732 17.44 51.4525 17.4849C51.5366 17.5324 51.6369 17.5622 51.7512 17.5513C51.8616 17.5407 51.963 17.4944 52.0565 17.4294C52.2047 17.3262 52.2685 17.1552 52.2983 17.0032C52.3294 16.844 52.3333 16.6547 52.321 16.4529C52.2963 16.0476 52.2031 15.5429 52.0811 15.0227C51.8947 14.2278 51.635 13.3722 51.4253 12.7305C53.4772 13.5638 57.5777 13.9293 61.1589 10.0495C63.0976 7.94933 63.4174 6.38642 62.9011 5.14628C62.6499 4.54271 62.211 4.04597 61.7302 3.62207C61.3287 3.26808 60.8846 2.9539 60.4818 2.66899C60.4037 2.61372 60.3271 2.55954 60.2527 2.5064M41.3234 1.28521C43.2439 0.879718 44.9527 1.37648 46.127 2.84992C46.6267 3.47686 46.9862 4.28664 47.1231 5.29438C47.1211 6.85676 46.8261 8.29669 46.1618 9.38805C45.5012 10.4733 44.4687 11.2271 42.9492 11.417C42.9408 11.4181 42.9324 11.4196 42.9241 11.4215C41.3112 11.8011 40.1955 13.1443 39.3448 14.6154C38.9167 15.3555 38.548 16.142 38.2137 16.8785C38.1537 17.0107 38.0949 17.1411 38.0371 17.2692C37.7708 17.8594 37.5261 18.4019 37.2843 18.8568C37.2081 19.0002 37.1298 19.1479 37.0496 19.2992C36.1234 21.0472 34.9454 23.2703 33.8041 24.7284C33.4954 25.1227 33.1943 25.4546 32.9067 25.7036C32.617 25.9543 32.3547 26.109 32.1242 26.169C31.904 26.2263 31.71 26.1988 31.5264 26.0738C31.3327 25.9419 31.1305 25.6872 30.9404 25.2496C30.7952 24.9153 30.6852 24.4189 30.6177 23.7831C30.5506 23.1511 30.527 22.3959 30.5467 21.5527C30.5862 19.8665 30.7989 17.8414 31.1755 15.7689C31.5522 13.6963 32.0919 11.5822 32.7834 9.7168C33.4762 7.8476 34.315 6.24576 35.2814 5.18272C37.2515 3.01559 39.3925 1.69291 41.3234 1.28521Z" fill="#333333"/>
<path fill-rule="evenodd" clip-rule="evenodd" d="M58.9898 13.8695C59.1962 13.8394 59.4462 13.936 59.6206 14.055C59.7297 14.1294 59.8784 14.1013 59.9529 13.9922C60.0273 13.8831 59.9991 13.7344 59.89 13.66C59.6688 13.5091 59.2963 13.3416 58.9208 13.3963C58.7248 13.4249 58.5329 13.514 58.3744 13.6876C58.2188 13.8581 58.1075 14.0966 58.0434 14.4066C58.0167 14.5359 58.0999 14.6624 58.2292 14.6891C58.3585 14.7158 58.485 14.6327 58.5117 14.5034C58.564 14.2505 58.6461 14.0992 58.7276 14.01C58.8062 13.9239 58.8949 13.8833 58.9898 13.8695Z" fill="#333333"/>
<path d="M30.2997 59.6163C30.2997 59.6163 20.3386 53.2406 21.1352 50.4511C21.9318 47.6616 35.4806 26.907 44.2287 26.9071C45.8226 26.5085 48.0986 26.907 49.0105 26.907C49.0105 26.907 51.0029 28.1027 53.3939 28.1027C55.7848 28.1027 57.7772 26.907 57.7772 26.907C59.7697 26.5086 63.3748 26.5417 63.7733 26.5417C64.1718 26.5417 64.9688 26.5748 67.3597 27.3388C72.5401 29.7294 73.0989 34.5941 74.5325 38.8949C76.9234 46.0677 81.3068 66.3907 81.3068 66.3907L78.9162 67.1877C77.767 67.6216 76.2308 68.5507 75.728 68.3831C74.5325 67.9846 66.5628 39.6919 66.5628 39.6919C66.5628 39.6919 66.9612 43.2781 67.7582 51.6465C68.5552 60.015 68.9536 69.1801 68.9536 69.1801C68.9536 69.1801 62.2432 71.1725 56.6005 71.1725C49.0293 71.1725 45.4428 69.0473 39.4655 68.7816C37.473 60.0149 40.2624 39.6919 40.2624 39.6919C40.2624 39.6919 36.6766 42.0827 31.8945 47.6617C29.8199 50.0821 30.6991 50.8496 33.09 53.2405C33.8553 54.0059 36.6196 56.1759 37.0746 56.4285C37.0746 57.6239 34.684 59.6163 34.2855 60.0149C33.8869 60.4134 33.0897 61.6088 33.0897 61.6088L30.2997 59.6163Z" fill="#007D8A"/>
<path fill-rule="evenodd" clip-rule="evenodd" d="M63.6859 26.3018C63.723 26.3019 63.7521 26.302 63.7722 26.302C64.2048 26.302 65.028 26.3425 67.4314 27.1104C67.4407 27.1134 67.4499 27.1169 67.4588 27.1211C70.111 28.345 71.5817 30.2067 72.5664 32.298C73.057 33.3401 73.4271 34.4391 73.763 35.5407C73.8814 35.9286 73.995 36.3153 74.1081 36.7001C74.318 37.4143 74.526 38.1219 74.7582 38.8187C75.9578 42.4175 77.6539 49.3028 79.048 55.2777C79.7456 58.2674 80.3684 61.0327 80.8168 63.0507C81.0411 64.0596 81.2217 64.8818 81.3463 65.4517C81.4086 65.7367 81.4568 65.9586 81.4896 66.1094L81.5392 66.3387C81.5393 66.3389 81.5394 66.3396 81.3057 66.3901L81.5394 66.3396C81.5651 66.4589 81.497 66.5783 81.3813 66.6169L78.9951 67.4124C78.6155 67.556 78.1985 67.7521 77.782 67.9479C77.5786 68.0435 77.3754 68.139 77.1767 68.2284C76.8796 68.362 76.5929 68.4813 76.3447 68.5563C76.2204 68.5939 76.0994 68.6223 75.9874 68.6347C75.8776 68.6468 75.7599 68.6455 75.6513 68.6093C75.5399 68.5722 75.4583 68.4791 75.4058 68.4109C75.3447 68.3313 75.2815 68.2281 75.2167 68.1084C75.0865 67.8681 74.9358 67.5345 74.7686 67.1259C74.4333 66.307 74.022 65.1635 73.564 63.8079C72.6474 61.0955 71.5381 57.5185 70.467 53.9563C69.3957 50.3936 68.3619 46.8436 67.5959 44.1844C67.4103 43.5404 67.2405 42.9485 67.0897 42.4214C67.0926 42.4494 67.0955 42.4776 67.0984 42.506C67.2977 44.4493 67.5966 47.4385 67.9951 51.6232C68.394 55.8114 68.693 60.1979 68.8924 63.5366C68.992 65.2062 69.0668 66.6141 69.1166 67.6047C69.1416 68.1 69.1602 68.491 69.1727 68.7582C69.1789 68.8918 69.1836 68.9945 69.1867 69.0638L69.1913 69.1674L69.1914 69.1687C69.1914 69.1687 69.1914 69.1691 68.9526 69.1795C69.0206 69.4087 69.0206 69.4087 69.0205 69.4087L69.0192 69.4091L69.0153 69.4102L69.0004 69.4146L68.9422 69.4316C68.891 69.4463 68.8156 69.4679 68.7177 69.4953C68.5219 69.5502 68.2363 69.6284 67.8761 69.7222C67.1559 69.9097 66.1369 70.1597 64.9409 70.4097C62.5517 70.9091 59.4449 71.411 56.5994 71.411C52.7889 71.411 49.9803 70.8757 47.3833 70.3097C47.0857 70.2448 46.7911 70.1796 46.4982 70.1148C44.2351 69.6139 42.0779 69.1365 39.4538 69.0198C39.3462 69.0151 39.2551 68.939 39.2312 68.834C38.226 64.4108 38.4292 57.1039 38.8772 50.9313C39.1017 47.839 39.3884 45.0214 39.6191 42.9769C39.7344 41.9546 39.8357 41.1255 39.9082 40.5517C39.9244 40.4237 39.9391 40.3084 39.9522 40.2065C39.8967 40.2477 39.8361 40.2931 39.7707 40.3426C39.3638 40.6509 38.7702 41.1208 38.0273 41.7647C36.5413 43.0527 34.4578 45.0368 32.075 47.8167C31.0459 49.0172 30.8267 49.723 31.0438 50.3873C31.1586 50.7383 31.4029 51.1051 31.7824 51.5434C32.1255 51.9395 32.5637 52.3772 33.0893 52.9023C33.1445 52.9575 33.2008 53.0137 33.258 53.0709C33.6294 53.4423 34.5011 54.1679 35.3463 54.8389C35.7668 55.1727 36.177 55.4901 36.5099 55.7394C36.8492 55.9935 37.0931 56.1652 37.1896 56.2188C37.2655 56.2609 37.3126 56.341 37.3126 56.4278C37.3126 56.797 37.1322 57.1938 36.8954 57.5651C36.654 57.9434 36.332 58.3289 36.0036 58.6826C35.5339 59.1885 35.0171 59.6625 34.7046 59.9491C34.5882 60.0558 34.5002 60.1365 34.4535 60.1833C34.2705 60.3662 33.9828 60.7481 33.7316 61.0997C33.6082 61.2723 33.497 61.4328 33.4167 61.5502C33.3765 61.6089 33.3441 61.6567 33.3218 61.6898L33.2962 61.7278L33.2896 61.7377L33.288 61.7401L33.2875 61.7408C33.2516 61.7947 33.1953 61.8317 33.1317 61.8434C33.068 61.855 33.0023 61.8404 32.9496 61.8028L30.1645 59.8137L30.1621 59.8122L30.1404 59.7982C30.1213 59.7859 30.0931 59.7676 30.0564 59.7438C29.9831 59.696 29.8759 59.6258 29.7399 59.5355C29.4678 59.3549 29.0804 59.0939 28.618 58.7721C27.6937 58.1288 26.4683 57.241 25.2668 56.2647C24.0673 55.29 22.8827 54.22 22.046 53.2121C21.6279 52.7085 21.2892 52.2115 21.0807 51.7423C20.8732 51.2754 20.783 50.8094 20.9042 50.3848C21.0123 50.0063 21.3244 49.3547 21.7873 48.5218C22.2544 47.6814 22.8862 46.637 23.6478 45.4647C25.1711 43.1199 27.2182 40.2565 29.5148 37.48C31.8105 34.7047 34.3612 32.0092 36.8922 30.0055C39.4036 28.0173 41.9342 26.6789 44.1982 26.6674C45.0264 26.466 46.0116 26.4688 46.8877 26.5183C47.2862 26.5408 47.6674 26.5733 48.0048 26.6022C48.0445 26.6055 48.0835 26.6089 48.1219 26.6121C48.4914 26.6435 48.7936 26.6673 49.0094 26.6673C49.0527 26.6673 49.0952 26.6791 49.1323 26.7013C49.1323 26.7013 49.1323 26.7013 49.1323 26.7013L49.1365 26.7038L49.1518 26.7127C49.1658 26.7208 49.1871 26.7329 49.2153 26.7485C49.2718 26.7798 49.3561 26.8249 49.465 26.8794C49.683 26.9884 49.999 27.1343 50.3884 27.2804C51.169 27.5731 52.2354 27.863 53.3928 27.863C54.5502 27.863 55.6165 27.5731 56.3971 27.2804C56.7865 27.1343 57.1026 26.9884 57.3205 26.8794C57.4294 26.8249 57.5137 26.7798 57.5702 26.7485C57.5984 26.7329 57.6197 26.7208 57.6337 26.7127L57.6491 26.7038L57.6525 26.7018C57.6525 26.7018 57.6531 26.7014 57.7761 26.9064C57.8992 27.1114 57.8991 27.1115 57.899 27.1115L57.8969 27.1128L57.8917 27.1159L57.8727 27.1269C57.8693 27.1289 57.8657 27.131 57.8617 27.1332C57.8463 27.1421 57.8261 27.1534 57.8015 27.167C57.7397 27.2012 57.6496 27.2495 57.5344 27.3071C57.3041 27.4223 56.9726 27.5753 56.565 27.7281C55.7517 28.0332 54.6263 28.3412 53.3928 28.3412C52.1593 28.3412 51.0339 28.0332 50.2205 27.7281C49.813 27.5753 49.4815 27.4223 49.2511 27.3071C49.1359 27.2495 49.0458 27.2012 48.984 27.167C48.9692 27.1588 48.9559 27.1514 48.9444 27.1449C48.7121 27.1409 48.4131 27.1168 48.0814 27.0886C48.0429 27.0853 48.0038 27.082 47.9642 27.0786C47.6262 27.0497 47.2519 27.0178 46.8608 26.9957C46.0635 26.9507 45.2177 26.9484 44.5 27.0905C44.5127 27.2083 44.5197 27.3416 44.5225 27.4853C44.5277 27.7442 44.5196 28.0527 44.5016 28.3936C44.4657 29.0758 44.3894 29.8987 44.2952 30.7354C44.1069 32.4076 43.845 34.15 43.6837 34.9563C43.6579 35.0858 43.5319 35.1697 43.4024 35.1438C43.2729 35.118 43.1889 34.992 43.2148 34.8625C43.3724 34.0748 43.6325 32.3471 43.82 30.6819C43.9137 29.8499 43.9889 29.0374 44.0241 28.3685C44.0417 28.0339 44.0492 27.7379 44.0444 27.4948C44.0417 27.3581 44.0352 27.2429 44.0254 27.1493C41.9698 27.2262 39.6127 28.4617 37.1891 30.3804C34.6945 32.3553 32.1679 35.0228 29.8833 37.7848C27.5996 40.5456 25.5633 43.3939 24.0488 45.7252C23.2915 46.8908 22.6658 47.9256 22.2053 48.7541C21.7406 49.5901 21.4551 50.1973 21.364 50.5162C21.2861 50.789 21.3329 51.1324 21.5177 51.5481C21.7014 51.9615 22.0102 52.4203 22.414 52.9067C23.2209 53.8788 24.3772 54.9257 25.5684 55.8936C26.7576 56.8599 27.9727 57.7404 28.8912 58.3797C29.3503 58.6992 29.7348 58.9581 30.0044 59.1371C30.1391 59.2266 30.2452 59.296 30.3174 59.343L30.3997 59.3964L30.4206 59.4099L30.4271 59.4141C30.4272 59.4141 30.4275 59.4143 30.2986 59.6157L30.4271 59.4141C30.4305 59.4163 30.4342 59.4188 30.4375 59.4211L33.0282 61.2712C33.1092 61.1529 33.2198 60.9933 33.3425 60.8217C33.5896 60.4759 33.8997 60.0608 34.1153 59.8452C34.1829 59.7776 34.2892 59.6802 34.4225 59.5581C34.7355 59.2713 35.197 58.8485 35.6532 58.3572C35.9723 58.0135 36.2728 57.6518 36.4922 57.3079C36.6771 57.0181 36.79 56.7627 36.8237 56.5538C36.6767 56.4565 36.4658 56.3037 36.2233 56.1222C35.886 55.8696 35.4721 55.5493 35.049 55.2134C34.2069 54.5449 33.3138 53.8029 32.9199 53.409C32.8621 53.3512 32.8051 53.2943 32.7489 53.2382C32.2272 52.7171 31.7761 52.2665 31.421 51.8564C31.0281 51.4028 30.7339 50.9781 30.5893 50.5359C30.2878 49.6136 30.6663 48.7254 31.7119 47.5055C34.1112 44.7064 36.2116 42.7056 37.7141 41.4034C38.4653 40.7523 39.0671 40.2758 39.482 39.9615C39.6894 39.8043 39.8501 39.6877 39.9595 39.61C40.0142 39.5712 40.056 39.5421 40.0844 39.5225L40.1169 39.5004L40.1254 39.4946L40.1284 39.4926C40.1285 39.4925 40.1287 39.4924 40.2614 39.6913C40.4982 39.7238 40.4982 39.7239 40.4982 39.724L40.4963 39.7383L40.4904 39.7818C40.4852 39.8203 40.4775 39.8777 40.4676 39.953C40.4477 40.1036 40.4187 40.3257 40.3826 40.6116C40.3103 41.1835 40.2093 42.0106 40.0942 43.0305C39.8641 45.0706 39.578 47.8816 39.3542 50.9659C38.9116 57.0632 38.7157 64.1896 39.6583 68.5509C42.2442 68.6831 44.393 69.1589 46.6022 69.648C46.895 69.7128 47.1889 69.7779 47.4851 69.8424C50.0685 70.4055 52.8387 70.9328 56.5994 70.9328C59.3967 70.9328 62.4665 70.4384 64.8431 69.9416C66.0301 69.6935 67.0413 69.4454 67.7556 69.2594C68.1127 69.1664 68.3955 69.089 68.5887 69.0349C68.6321 69.0227 68.6711 69.0117 68.7053 69.002C68.7025 68.9419 68.6991 68.8678 68.695 68.7805C68.6826 68.5138 68.6639 68.1234 68.6391 67.6287C68.5893 66.6393 68.5146 65.2329 68.415 63.5651C68.2159 60.2292 67.9172 55.8489 67.5191 51.6686C67.1207 47.4849 66.8218 44.4968 66.6227 42.5548C66.5231 41.5838 66.4484 40.8744 66.3986 40.4078C66.3737 40.1744 66.3551 40.0018 66.3427 39.8876L66.3243 39.7203L66.3241 39.7183C66.3104 39.5946 66.3937 39.4805 66.5159 39.4566C66.6381 39.4328 66.7581 39.5067 66.7918 39.6265L66.5617 39.6913C66.7918 39.6265 66.7917 39.6263 66.7918 39.6265L66.8815 39.944C66.9402 40.1513 67.0263 40.4553 67.1364 40.8424C67.3566 41.6166 67.6725 42.723 68.0554 44.0521C68.8211 46.7102 69.8544 50.2583 70.9249 53.8186C71.9957 57.3795 73.103 60.9503 74.017 63.6548C74.4742 65.0077 74.8816 66.14 75.2111 66.9447C75.3761 67.3478 75.5192 67.6629 75.6372 67.8808C75.6964 67.9902 75.7458 68.0685 75.7849 68.1194C75.8014 68.1408 75.8129 68.1532 75.8195 68.1598C75.8415 68.1636 75.8783 68.1657 75.9348 68.1594C76.0075 68.1514 76.098 68.1313 76.2064 68.0986C76.4236 68.0329 76.687 67.9243 76.9805 67.7923C77.1625 67.7105 77.3564 67.6194 77.555 67.526C77.9828 67.325 78.4324 67.1137 78.8306 66.9634C79.6264 66.6629 80.2285 66.4621 80.6328 66.3361C80.7952 66.2856 80.9257 66.2471 81.024 66.219L81.0222 66.2108C80.9896 66.0603 80.9414 65.8386 80.8791 65.5538C80.7546 64.9844 80.5741 64.1628 80.3501 63.1544C79.9019 61.1376 79.2794 58.3739 78.5823 55.3863C77.187 49.4065 75.4959 42.5439 74.3046 38.9699C74.0699 38.2659 73.8574 37.5428 73.6457 36.8228C73.5332 36.4399 73.4209 36.058 73.3057 35.6802C72.9717 34.5853 72.6096 33.5123 72.1337 32.5018C71.1872 30.4914 69.7915 28.7281 67.2717 27.5614C65.2516 26.9167 64.3958 26.8034 63.9622 26.784C63.9583 26.8247 63.9553 26.8722 63.9536 26.9269C63.9483 27.0967 63.955 27.3193 63.9734 27.5829C64.0101 28.1093 64.0921 28.7826 64.2075 29.4914C64.44 30.9199 64.8011 32.4477 65.1816 33.2085C65.2406 33.3266 65.1928 33.4703 65.0746 33.5293C64.9565 33.5884 64.8129 33.5405 64.7539 33.4224C64.3374 32.5895 63.9679 30.9958 63.7355 29.5683C63.6184 28.8492 63.5344 28.1609 63.4964 27.6162C63.4774 27.3444 63.4696 27.1041 63.4757 26.9118C63.4771 26.8657 63.4794 26.8215 63.4826 26.7796C62.5072 26.7788 59.5869 26.7967 57.8617 27.1332M40.2614 39.6913L40.4982 39.724C40.511 39.6308 40.468 39.5386 40.3883 39.4887C40.3086 39.4387 40.2066 39.4404 40.1284 39.4926L40.2614 39.6913ZM68.9526 69.1795L69.0205 69.4087C69.1256 69.3775 69.1962 69.2782 69.1914 69.1687L68.9526 69.1795Z" fill="#01727D"/>
<path d="M100.573 58.5082L65.1132 57.0215L65.7847 66.1321L72.2596 64.6958L77.6979 67.8167L84.8287 64.5134L89.4441 67.9099L91.5246 64.2843L93.5587 66.5319L96.2449 64.1679L99.3231 67.347L102.611 63.5002L100.573 58.5082Z" fill="#FFA300"/>
<path fill-rule="evenodd" clip-rule="evenodd" d="M77.5796 68.024C77.6469 68.0626 77.7287 68.0662 77.7991 68.0335L84.8015 64.7896L89.303 68.1023C89.3579 68.1427 89.4274 68.1577 89.494 68.1437C89.5607 68.1297 89.6182 68.0878 89.6521 68.0288L91.5689 64.6886L93.3821 66.6922C93.4698 66.7891 93.6192 66.7976 93.7173 66.7112L96.2324 64.4978L99.152 67.5132C99.1988 67.5616 99.2639 67.5879 99.3312 67.5859C99.3985 67.5838 99.4618 67.5534 99.5055 67.5022L102.793 63.6554C102.851 63.5874 102.867 63.4926 102.833 63.4097L100.795 58.4177C100.76 58.3311 100.677 58.2731 100.584 58.2692L65.1239 56.7825C65.0558 56.7797 64.9896 56.8061 64.9422 56.855C64.8947 56.904 64.8704 56.971 64.8754 57.039L65.547 66.1495C65.5521 66.2188 65.587 66.2824 65.6427 66.3238C65.6985 66.3652 65.7694 66.3804 65.8372 66.3654L72.2216 64.9492L77.5796 68.024ZM66.0036 65.8386L65.3721 57.2715L100.41 58.7405L102.335 63.4555L99.3127 66.9918L96.4173 64.0014C96.3285 63.9097 96.1834 63.9039 96.0876 63.9883L93.5784 66.1965L91.7026 64.1238C91.6513 64.067 91.5758 64.0383 91.4997 64.0465C91.4236 64.0547 91.3561 64.0988 91.318 64.1652L89.3707 67.5584L84.9711 64.3207C84.9008 64.269 84.808 64.2596 84.7288 64.2963L77.7103 67.5477L72.3793 64.4883C72.3276 64.4587 72.2667 64.4494 72.2085 64.4623L66.0036 65.8386Z" fill="#FFA300"/>
<path d="M66.4411 64.2656C67.4016 57.474 62.6744 51.1897 55.8828 50.2292C49.0911 49.2688 42.8068 53.996 41.8464 60.7876C40.886 67.5792 45.6131 73.8635 52.4048 74.824C59.1964 75.7844 65.4807 71.0572 66.4411 64.2656Z" fill="#FFA300"/>
<path d="M51.0144 62.476C51.2245 60.9904 50.1904 59.6157 48.7048 59.4056C47.2191 59.1955 45.8444 60.2296 45.6343 61.7152C45.4242 63.2009 46.4583 64.5756 47.944 64.7857C49.4296 64.9958 50.8043 63.9617 51.0144 62.476Z" fill="#007D8A"/>
<path d="M43.4508 66.3881L39.023 64.4506L35.0826 61.2081L37.6808 57.5765C37.6808 57.5765 38.7978 58.4555 40.0094 58.0369C41.41 57.553 41.3019 57.6866 43.0913 57.5966C44.4122 57.5966 45.5593 57.6214 45.706 58.5794L42.651 59.3577L46.4436 60.7299C47.6444 61.1431 48.2327 61.2078 48.2327 62.0047C48.2327 62.8017 47.6859 62.7276 47.8342 62.8017C48.6312 63.2002 48.6312 64.0843 48.6312 64.7942C48.9138 65.5878 49.1774 66.2026 48.6312 66.7867C47.7638 67.7143 45.7799 67.1116 43.4508 66.3881Z" fill="#A77427"/>
<path fill-rule="evenodd" clip-rule="evenodd" d="M34.9299 61.3931C34.8328 61.3132 34.8142 61.1717 34.8874 61.0694L37.4856 57.4378C37.5236 57.3847 37.5817 57.3494 37.6463 57.3402C37.7108 57.331 37.7763 57.3486 37.8276 57.3887C37.8276 57.3888 37.8276 57.3888 37.8276 57.3888C37.8276 57.3888 37.8277 57.3889 37.8278 57.3889L37.8279 57.389L37.68 57.5769L37.8745 57.716L37.7389 57.9056L35.4063 61.1659L39.1485 64.2453L43.5337 66.1641C44.699 66.526 45.7524 66.8487 46.6215 66.9701C47.5054 67.0937 48.1084 66.9953 48.4558 66.6237C48.6767 66.3876 48.7302 66.1585 48.7034 65.8935C48.6771 65.6336 48.5759 65.3512 48.4492 64.9979C48.4348 64.9578 48.4201 64.9168 48.4052 64.8748C48.396 64.849 48.3913 64.8219 48.3913 64.7946C48.3913 64.4332 48.3898 64.0682 48.3004 63.7454C48.2142 63.4344 48.0506 63.178 47.7265 63.016C47.7121 63.0088 47.6822 62.9932 47.6536 62.9675C47.6273 62.9438 47.5569 62.8696 47.5705 62.752C47.5823 62.6493 47.6514 62.5941 47.6668 62.5818C47.6898 62.5637 47.7128 62.5515 47.7222 62.5466C47.736 62.5394 47.7477 62.5336 47.7582 62.5284C47.7854 62.515 47.8047 62.5055 47.8318 62.4848C47.8833 62.4454 47.9928 62.3392 47.9928 62.0051C47.9928 61.8354 47.9616 61.7274 47.9156 61.6498C47.8696 61.5722 47.7954 61.5026 47.6703 61.4321C47.5422 61.3599 47.374 61.294 47.1516 61.2179C47.0529 61.1842 46.9466 61.1494 46.8308 61.1115C46.8174 61.1072 46.8038 61.1027 46.7901 61.0983C46.659 61.0553 46.517 61.0087 46.3651 60.9564L46.3615 60.9552L46.3615 60.9551L42.5689 59.5829C42.4702 59.5472 42.4064 59.4512 42.4115 59.3464C42.4166 59.2415 42.4895 59.1523 42.5913 59.1264L45.4099 58.4083C45.3721 58.3236 45.3207 58.2552 45.2586 58.1979C45.1479 58.096 44.9893 58.0171 44.7763 57.9601C44.3439 57.8442 43.7632 57.8361 43.0965 57.8361C42.6901 57.8564 42.3809 57.8653 42.1314 57.8725C42.1063 57.8733 42.0819 57.874 42.058 57.8747C41.7934 57.8824 41.604 57.8891 41.4283 57.9072C41.0857 57.9425 40.7845 58.0221 40.0867 58.2632C39.408 58.4977 38.764 58.3659 38.3034 58.1869C38.0718 58.0969 37.8814 57.993 37.7485 57.9115C37.7452 57.9095 37.742 57.9076 37.7389 57.9056M43.4628 59.3978L45.7642 58.8115C45.8835 58.7811 45.9602 58.6652 45.9416 58.5436C45.8972 58.2539 45.7737 58.0223 45.5825 57.8462C45.3956 57.6741 45.1573 57.5671 44.9001 57.4982C44.3934 57.3624 43.7422 57.3579 43.0906 57.3579C43.0866 57.3579 43.0826 57.358 43.0786 57.3582C42.6744 57.3785 42.368 57.3873 42.1174 57.3946C42.0924 57.3953 42.068 57.396 42.0441 57.3967C41.782 57.4043 41.5753 57.4113 41.3793 57.4315C40.9785 57.4729 40.6334 57.5684 39.9306 57.8113C39.3976 57.9954 38.8774 57.897 38.4766 57.7412C38.2775 57.6638 38.1129 57.5741 37.9985 57.5039C37.9415 57.4689 37.8974 57.4391 37.8682 57.4185C37.8537 57.4082 37.8428 57.4003 37.836 57.3952L37.8288 57.3897L37.8279 57.389M43.4628 59.3978L42.7316 59.1332L42.6503 59.3581L42.7093 59.5898L43.4628 59.3978ZM43.4628 59.3978L46.5224 60.5048C46.5218 60.5046 46.5213 60.5044 46.5207 60.5042L46.4429 60.7303L46.5242 60.5055L46.5224 60.5048C46.67 60.5556 46.8085 60.6011 46.9388 60.6438C46.9525 60.6483 46.9662 60.6527 46.9797 60.6571C47.0949 60.6948 47.2044 60.7306 47.3064 60.7655C47.532 60.8427 47.736 60.9202 47.905 61.0155C48.0771 61.1124 48.2251 61.2343 48.3269 61.4058C48.4287 61.5774 48.471 61.7764 48.471 62.0051C48.471 62.379 48.3641 62.6174 48.2257 62.7697C48.1418 62.7026 48.0472 62.6417 47.9404 62.5883L47.9422 62.5892L47.9477 62.5925C47.9519 62.5951 47.9617 62.6014 47.9734 62.6119C47.9914 62.6282 48.0583 62.6955 48.0455 62.8066C48.0347 62.9008 47.9727 62.9496 47.9639 62.9565L47.9635 62.9568C47.9491 62.9682 47.9383 62.9732 47.9441 62.9702C47.9456 62.9694 47.9483 62.9681 47.9521 62.9663C47.9777 62.954 48.0522 62.9183 48.1223 62.8646C48.1579 62.8374 48.1927 62.806 48.2257 62.7697C48.5131 62.9997 48.6737 63.3017 48.7612 63.6177C48.8667 63.9985 48.8695 64.4121 48.8695 64.7531C48.8649 64.7402 48.8602 64.7273 48.8556 64.7143L48.6304 64.7946L48.8695 64.7946L48.8695 64.7805C48.8695 64.7715 48.8695 64.7623 48.8695 64.7531C48.88 64.7824 48.8905 64.8116 48.901 64.8409C49.0235 65.1811 49.1465 65.5229 49.1791 65.8454C49.2182 66.2321 49.1304 66.6025 48.8051 66.9504C48.2852 67.5064 47.4625 67.5705 46.5553 67.4437C45.6365 67.3153 44.5379 66.9768 43.3791 66.6168C43.3707 66.6142 43.3623 66.6111 43.3542 66.6075L38.9264 64.6701C38.9062 64.6612 38.8873 64.6496 38.8703 64.6356L34.9299 61.3931" fill="#333333"/>
<path fill-rule="evenodd" clip-rule="evenodd" d="M48.0262 62.8536C47.998 62.96 47.8889 63.0233 47.7825 62.9951L44.7325 62.1854C44.6261 62.1572 44.5628 62.0481 44.591 61.9418C44.6192 61.8354 44.7283 61.7721 44.8347 61.8003L47.8848 62.6099C47.9911 62.6382 48.0544 62.7473 48.0262 62.8536Z" fill="#333333"/>
<path fill-rule="evenodd" clip-rule="evenodd" d="M48.821 64.8564C48.7871 64.9611 48.6747 65.0184 48.57 64.9844L44.1005 63.5338C43.9958 63.4998 43.9385 63.3874 43.9725 63.2827C44.0065 63.1781 44.1188 63.1208 44.2235 63.1547L48.693 64.6054C48.7977 64.6394 48.855 64.7518 48.821 64.8564Z" fill="#333333"/>
<path fill-rule="evenodd" clip-rule="evenodd" d="M48.8214 66.4482C48.7887 66.5533 48.6771 66.612 48.572 66.5793L43.4398 64.9847C43.3347 64.9521 43.276 64.8404 43.3087 64.7353C43.3413 64.6302 43.453 64.5715 43.5581 64.6042L48.6902 66.1988C48.7953 66.2314 48.854 66.3431 48.8214 66.4482Z" fill="#333333"/>
<path d="M74.7488 65.5891L75.5387 68.4416C77.6695 68.4416 80.4395 67.4588 81.2292 66.4091L80.0333 63.9629C79.8037 63.5543 78.917 62.1483 77.9058 62.4092C76.5448 62.7603 75.9883 63.0058 75.6335 63.2122C74.3425 63.9631 74.3424 64.3695 74.7488 65.5891Z" fill="#A77427"/>
<path fill-rule="evenodd" clip-rule="evenodd" d="M75.3081 68.5058C75.3368 68.6094 75.4311 68.6811 75.5385 68.6811C76.6364 68.6811 77.8889 68.4288 78.967 68.0446C79.5069 67.8522 80.0084 67.6248 80.4284 67.3755C80.8455 67.1281 81.1962 66.8508 81.4201 66.5532C81.4742 66.4814 81.4834 66.3853 81.4439 66.3045L80.248 63.8583C80.246 63.8542 80.2438 63.8501 80.2416 63.8462C80.1223 63.6338 79.8303 63.1577 79.43 62.7648C79.0395 62.3813 78.4801 62.0145 77.846 62.178C76.4759 62.5315 75.8954 62.7836 75.5131 63.0059C74.8676 63.3814 74.4674 63.7099 74.3266 64.1528C74.189 64.5856 74.3226 65.0665 74.5199 65.6592L75.3081 68.5058ZM75.7198 68.2005L74.9791 65.5256C74.978 65.5217 74.9768 65.5178 74.9755 65.5139C74.7675 64.8896 74.6992 64.5592 74.7823 64.2977C74.8627 64.0448 75.1081 63.7947 75.7535 63.4192C76.081 63.2287 76.6134 62.9898 77.9654 62.6411C78.3425 62.5438 78.732 62.7495 79.095 63.1059C79.4448 63.4495 79.7092 63.8756 79.8214 64.0745L80.9465 66.3759C80.771 66.5696 80.5127 66.7695 80.1844 66.9643C79.7964 67.1945 79.3241 67.4097 78.8065 67.5942C77.8295 67.9423 76.7099 68.1747 75.7198 68.2005Z" fill="#333333"/>
<path fill-rule="evenodd" clip-rule="evenodd" d="M77.9445 62.1458C77.839 62.1771 77.7788 62.288 77.8101 62.3935L79.0175 66.4671C79.0488 66.5726 79.1596 66.6328 79.2651 66.6015C79.3706 66.5702 79.4308 66.4594 79.3995 66.3539L78.1922 62.2803C78.1609 62.1747 78.05 62.1146 77.9445 62.1458Z" fill="#333333"/>
<path fill-rule="evenodd" clip-rule="evenodd" d="M76.7249 62.553C76.6195 62.5846 76.5597 62.6957 76.5914 62.8011L77.8109 66.8657C77.8426 66.9711 77.9537 67.0309 78.059 66.9993C78.1644 66.9676 78.2243 66.8566 78.1926 66.7512L76.973 62.6866C76.9414 62.5812 76.8303 62.5214 76.7249 62.553Z" fill="#333333"/>
<path fill-rule="evenodd" clip-rule="evenodd" d="M75.5909 63.0174C75.4835 63.0414 75.4159 63.148 75.44 63.2554L76.3298 67.2298C76.3538 67.3371 76.4603 67.4047 76.5677 67.3807C76.6751 67.3566 76.7427 67.2501 76.7186 67.1427L75.8288 63.1683C75.8048 63.0609 75.6983 62.9934 75.5909 63.0174Z" fill="#333333"/>
<path d="M35.0823 62.8026L33.0898 61.6071L37.0747 56.4268L38.6687 57.6222C38.6687 57.6222 37.6974 59.1572 37.0747 60.0132C36.4521 60.8691 35.0823 62.8026 35.0823 62.8026Z" fill="#007D8A"/>
<path fill-rule="evenodd" clip-rule="evenodd" d="M36.8841 56.2808C36.9639 56.1771 37.1123 56.1568 37.217 56.2353L38.811 57.4308C38.9108 57.5056 38.9363 57.6445 38.8696 57.7499L38.8584 57.7676L38.8263 57.8181C38.7984 57.8619 38.7579 57.9254 38.7074 58.0043C38.6063 58.162 38.465 58.3813 38.3042 58.6274C37.9833 59.1184 37.582 59.7205 37.2669 60.1537C36.9564 60.5805 36.459 61.2769 36.0387 61.8673C35.8286 62.1624 35.638 62.4308 35.4999 62.6253L35.2765 62.9403C35.2042 63.0423 35.0653 63.0718 34.9581 63.0074L32.9657 61.812C32.9072 61.7769 32.8665 61.7185 32.8538 61.6515C32.8411 61.5845 32.8576 61.5152 32.8992 61.4612L36.8841 56.2808ZM35.0142 62.4835L35.1099 62.3486C35.2481 62.1539 35.4389 61.8853 35.6491 61.59C36.0693 60.9997 36.5681 60.3014 36.8802 59.8724C37.1878 59.4496 37.5835 58.8562 37.9039 58.3658C38.0638 58.1211 38.2042 57.9031 38.3047 57.7463C38.3197 57.7229 38.3338 57.701 38.3469 57.6804L37.1191 56.7596L33.4418 61.54L35.0142 62.4835Z" fill="#01727D"/>
<path d="M38.2704 57.7285L35.0824 62.4041C35.0824 62.4041 34.0823 61.9701 33.4885 61.6072C32.8245 61.2014 31.8945 60.4117 31.8945 60.4117L35.8794 56.0283L37.0749 56.8784L38.2704 57.7285Z" fill="#007D8A"/>
<path d="M159.412 98.2686L159.412 142.899C159.412 147.301 155.844 150.869 151.442 150.869L90.0751 150.869L90.0751 106.238C90.0751 101.837 93.6432 98.2686 98.0448 98.2686L159.412 98.2686Z" fill="#C6CED1"/>
<path fill-rule="evenodd" clip-rule="evenodd" d="M117.45 51.9604C115.469 54.0837 113.983 57.4753 113.983 62.4047L109.201 62.4048C109.201 56.492 111.003 51.8605 113.953 48.6983C116.897 45.543 120.842 44.0112 124.782 44.0762C132.8 44.2084 140.283 50.8342 140.283 62.4047L135.501 62.4047C135.502 53.1583 129.834 48.942 124.703 48.8574C122.067 48.814 119.437 49.8301 117.45 51.9604Z" fill="#69757B"/>
<path d="M100.434 70.0284C100.434 65.6268 104.002 62.0586 108.403 62.0586H140.282C144.684 62.0586 148.252 65.6268 148.252 70.0284V93.9377C148.252 98.3393 144.684 101.907 140.282 101.907H108.403C104.002 101.907 100.434 98.3393 100.434 93.9377V70.0284Z" fill="#69757B"/>
<path fill-rule="evenodd" clip-rule="evenodd" d="M117.589 50.5433C115.526 52.7973 113.983 56.3953 113.983 61.6079L109.201 61.608C109.201 55.4364 111.045 50.6101 114.062 47.3143C117.076 44.022 121.126 42.4144 125.181 42.4825C133.438 42.6213 141.08 49.5603 141.08 61.608L136.298 61.6079C136.299 51.7979 130.392 47.3526 125.101 47.2637C122.381 47.218 119.656 48.2857 117.589 50.5433Z" fill="#009ED0"/>
<path d="M101.23 69.2315C101.23 64.8299 104.799 61.2617 109.2 61.2617H141.079C145.481 61.2617 149.049 64.8299 149.049 69.2315V93.1408C149.049 97.5424 145.481 101.111 141.079 101.111H109.2C104.799 101.111 101.23 97.5424 101.23 93.1408V69.2315Z" fill="#009ED0"/>
<path fill-rule="evenodd" clip-rule="evenodd" d="M126.672 80.9407C127.657 80.3038 128.309 79.1958 128.309 77.9356C128.309 75.9605 126.708 74.3594 124.732 74.3594C122.757 74.3594 121.156 75.9605 121.156 77.9356C121.156 79.1958 121.808 80.3038 122.793 80.9407L121.156 88.3065H128.309L126.672 80.9407Z" fill="#616C72"/>
<path fill-rule="evenodd" clip-rule="evenodd" d="M127.387 80.9407C128.372 80.3038 129.023 79.1958 129.023 77.9356C129.023 75.9605 127.422 74.3594 125.447 74.3594C123.472 74.3594 121.871 75.9605 121.871 77.9356C121.871 79.1958 122.523 80.3038 123.508 80.9407L121.871 88.3065H129.023L127.387 80.9407Z" fill="#69757B"/>
<path d="M174.555 74.5323C175.747 74.111 177.98 72.6657 177.987 70.1226C177.966 69.9299 177.955 69.7467 177.955 69.5771C177.977 69.7643 177.987 69.9461 177.987 70.1226C178.174 71.806 179.193 74.2089 181.329 74.5323C180.418 75.2218 178.048 77.3805 177.93 79.4032C177.947 79.5775 177.955 79.7558 177.955 79.9379C177.927 79.7615 177.92 79.5829 177.93 79.4032C177.69 76.8174 175.749 75.095 174.555 74.5323Z" fill="#FFA300"/>
<path fill-rule="evenodd" clip-rule="evenodd" d="M177.94 69.3383C178.066 69.3309 178.177 69.4233 178.191 69.549C178.214 69.7406 178.225 69.9273 178.225 70.1092C178.317 70.9183 178.608 71.8972 179.127 72.7084C179.648 73.5222 180.384 74.1475 181.364 74.2957C181.459 74.3101 181.536 74.38 181.56 74.4732C181.583 74.5664 181.549 74.6647 181.472 74.7227C181.029 75.0585 180.223 75.7578 179.516 76.6193C178.807 77.4826 178.229 78.4714 178.169 79.3995C178.185 79.5752 178.193 79.7546 178.193 79.9377C178.193 80.0625 178.097 80.1663 177.973 80.1761C177.848 80.1858 177.737 80.0982 177.718 79.9748C177.688 79.7865 177.68 79.597 177.69 79.4078C177.452 76.9389 175.591 75.2849 174.452 74.7484C174.364 74.7071 174.31 74.6169 174.315 74.5201C174.32 74.4233 174.382 74.339 174.474 74.3067C175.04 74.1068 175.863 73.6587 176.542 72.9567C177.216 72.2604 177.74 71.3242 177.747 70.135C177.725 69.9395 177.715 69.7521 177.715 69.577C177.715 69.4504 177.814 69.3457 177.94 69.3383ZM178.022 71.4341C177.786 72.175 177.366 72.7929 176.886 73.2892C176.32 73.8747 175.663 74.2968 175.105 74.5613C176.134 75.1944 177.425 76.4657 177.952 78.2582C178.223 77.5622 178.671 76.8953 179.146 76.316C179.707 75.6328 180.325 75.0492 180.795 74.6537C179.89 74.3695 179.209 73.7226 178.725 72.9662C178.417 72.4865 178.185 71.9571 178.022 71.4341Z" fill="#FFA300"/>
<path d="M182.523 84.1648C183.365 83.8732 184.941 82.8726 184.946 81.112C184.931 80.9786 184.924 80.8518 184.924 80.7344C184.939 80.8639 184.947 80.9898 184.946 81.112C185.078 82.2774 185.798 83.941 187.305 84.1648C186.662 84.6422 184.989 86.1367 184.906 87.537C184.918 87.6577 184.924 87.7811 184.924 87.9072C184.904 87.7851 184.899 87.6614 184.906 87.537C184.737 85.7468 183.367 84.5544 182.523 84.1648Z" fill="#FFA300"/>
<path fill-rule="evenodd" clip-rule="evenodd" d="M184.91 80.4956C185.037 80.488 185.147 80.5801 185.162 80.7057C185.178 80.8397 185.186 80.9706 185.186 81.0982C185.25 81.6477 185.453 82.3117 185.811 82.8607C186.171 83.412 186.675 83.8292 187.341 83.9282C187.437 83.9424 187.515 84.0128 187.538 84.1065C187.562 84.2003 187.526 84.299 187.449 84.3567C187.139 84.5865 186.575 85.0669 186.08 85.6581C185.584 86.2512 185.19 86.9179 185.147 87.5336C185.158 87.6556 185.164 87.7801 185.164 87.907C185.164 88.0317 185.068 88.1355 184.944 88.1454C184.819 88.1553 184.708 88.068 184.688 87.9449C184.667 87.8107 184.661 87.676 184.667 87.542C184.501 85.8708 183.213 84.7461 182.424 84.3817C182.335 84.3408 182.281 84.2502 182.285 84.1528C182.29 84.0554 182.354 83.9707 182.446 83.9388C182.837 83.8033 183.409 83.4983 183.879 83.0212C184.344 82.5497 184.702 81.9208 184.708 81.1245C184.693 80.9882 184.685 80.8572 184.685 80.7342C184.685 80.6077 184.784 80.5031 184.91 80.4956ZM184.97 82.2327C184.793 82.6753 184.523 83.0499 184.22 83.357C183.854 83.7281 183.436 84.0057 183.064 84.1933C183.744 84.6358 184.546 85.4384 184.932 86.5435C185.13 86.1135 185.416 85.7066 185.713 85.3512C186.073 84.9216 186.465 84.5486 186.784 84.2769C186.189 84.0569 185.736 83.6215 185.41 83.122C185.228 82.8419 185.082 82.538 184.97 82.2327Z" fill="#FFA300"/>
<path d="M176.923 84.1997C163.913 76.3272 149.862 76.4566 137.893 84.1997V116.208L157.668 130.147L176.923 116.208V84.1997Z" fill="#00C246"/>
<path d="M174.794 85.7671C163.203 78.6495 150.685 78.7665 140.021 85.7671V114.706L157.639 127.309L174.794 114.706V85.7671Z" fill="#016D33"/>
<path fill-rule="evenodd" clip-rule="evenodd" d="M169.318 93.6373C169.785 94.1041 169.785 94.861 169.318 95.3279L153.494 111.153C153.027 111.619 152.27 111.619 151.803 111.153L144.61 103.96C144.143 103.493 144.143 102.736 144.61 102.269C145.077 101.802 145.834 101.802 146.301 102.269L152.648 108.617L167.628 93.6373C168.095 93.1704 168.851 93.1704 169.318 93.6373Z" fill="#1EB84C"/>
</svg>
