<svg width="157" height="157" viewBox="0 0 157 157" fill="none" xmlns="http://www.w3.org/2000/svg">
<path opacity="0.3" fill-rule="evenodd" clip-rule="evenodd" d="M134.39 104.932C133.343 106.479 131.319 107.341 128.694 107.341H109.009L108.955 130.598C108.955 132.021 107.816 133.175 106.413 133.175H102.917C101.519 133.175 100.375 132.021 100.375 130.598L100.404 107.341H91.2023C92.6887 103.986 92.6593 99.9914 91.0899 95.9178L83.4087 76.496L103.123 30.0751C103.841 28.3307 104.462 26.9133 104.976 25.828C105.753 27.4089 106.555 29.2773 106.907 30.085L134.532 98.688C135.485 101.161 135.436 103.381 134.39 104.932ZM84.0558 104.789C83.21 106.156 81.5818 107.009 79.4794 107.242C77.3623 107.004 75.7244 106.146 74.8786 104.774C73.9251 103.232 73.9105 101.077 74.8297 98.688L79.3963 86.7991L84.0998 98.7029C85.019 101.092 85.0044 103.252 84.0558 104.789ZM67.7371 107.341H58.5207L58.55 130.598C58.55 132.021 57.4059 133.175 56.0075 133.175H52.5117C51.1084 133.175 49.9692 132.021 49.9692 130.598L49.9203 121.306V107.341H30.231C27.6054 107.341 25.5861 106.479 24.5349 104.932C23.4886 103.381 23.4397 101.161 24.3735 98.7426L51.9885 30.1743C52.3552 29.3119 53.1717 27.4188 53.9491 25.828C54.4625 26.9183 55.0884 28.3406 55.812 30.085L75.2911 76.5059L67.8349 95.9178C66.2654 99.9914 66.2458 103.981 67.7371 107.341ZM141.51 95.8683L113.827 27.1315C111.093 20.7782 109.055 16.2188 104.918 16.2139C100.709 16.2436 98.7186 21.0458 96.2104 27.1017L79.3666 66.7679L62.7282 27.1315C60.2102 21.0458 58.2153 16.2436 54.0105 16.2139C49.879 16.2436 47.8304 20.7782 45.063 27.2157L17.3943 95.9228C15.5412 100.74 15.8835 105.587 18.3379 109.224C20.7875 112.862 25.1194 114.948 30.2288 114.948H42.4081L42.4619 130.598C42.4619 136.213 46.9699 140.788 52.5095 140.788H56.0054C61.545 140.788 66.0529 136.213 66.0529 130.598V122.937C66.0529 122.674 66.0481 122.387 66.0285 122.119V114.948H78.2861C78.6968 114.948 79.083 114.923 79.4742 114.894C79.8555 114.923 80.2271 114.948 80.6378 114.948H92.8954V122.119C92.8758 122.387 92.8709 122.674 92.8709 122.937V130.598C92.8709 136.213 97.3789 140.788 102.919 140.788H106.414C111.954 140.788 116.462 136.213 116.462 130.598L116.516 114.948H128.695C133.804 114.948 138.141 112.862 140.591 109.224C143.045 105.587 143.383 100.74 141.51 95.8683Z" fill="#C6CED1"/>
<ellipse cx="78.368" cy="143.3" rx="71.8367" ry="5.11787" fill="#C8CCD0"/>
<path d="M37.5492 134.344L36.8961 135.943C36.7873 135.943 36.8308 136.199 37.8757 137.223C38.9206 138.246 41.3587 136.796 42.4472 135.943V134.344H37.5492Z" fill="#D8BA8A" stroke="#333333" stroke-width="0.6" stroke-linecap="round" stroke-linejoin="round"/>
<path d="M63.6719 133.704L64.3252 134.344C64.434 134.344 64.4678 136.299 63.0188 136.583C61.386 136.903 59.8624 136.156 58.774 135.303V133.704H63.6719Z" fill="#D8BA8A" stroke="#333333" stroke-width="0.6" stroke-linecap="round" stroke-linejoin="round"/>
<path d="M43.4507 140.932L42.3787 135.923C39.1087 136.856 37.2603 136.429 36.7448 136.099C35.427 136.697 32.1789 138.148 29.7294 139.174C27.2799 140.2 27.585 142.665 28.0437 143.769L43.4507 140.932Z" fill="#333333" stroke="#333333" stroke-width="0.6" stroke-linecap="round" stroke-linejoin="round"/>
<path d="M58.7754 140.421V135.303C62.1713 135.559 63.891 134.77 64.3264 134.344C65.7414 134.664 69.2244 135.431 71.8366 135.943C74.4489 136.455 74.6665 138.929 74.4489 140.101L58.7754 140.421Z" fill="#333333" stroke="#333333" stroke-width="0.6" stroke-linecap="round" stroke-linejoin="round"/>
<path d="M38.5306 87.3236L64.653 81.2461C64.653 81.2461 65.7057 97.418 65.9591 107.795C66.2092 118.035 65.9591 134.024 65.9591 134.024C65.9591 134.024 63.173 134.282 61.3877 134.344C59.6025 134.406 56.8163 134.344 56.8163 134.344C55.8759 124.934 54.8571 110.354 54.8571 110.354C54.8571 110.354 53.0897 97.0564 52.2449 88.603L48.653 110.994L45.0612 134.344C45.0612 134.344 42.0122 134.984 40.1632 134.984C38.3142 134.984 35.5918 134.344 35.5918 134.344L36.8979 110.994L38.5306 87.3236Z" fill="#69757B" stroke="#69757B" stroke-width="0.6" stroke-linecap="round" stroke-linejoin="round"/>
<path d="M79.5508 0.525391V6.48369" stroke="#165C7D" stroke-width="0.8" stroke-linecap="round" stroke-linejoin="round"/>
<path d="M74 3.66211L76.906 6.45295" stroke="#165C7D" stroke-width="0.8" stroke-linecap="round" stroke-linejoin="round"/>
<path d="M85.1016 3.62988L81.8691 6.73431" stroke="#165C7D" stroke-width="0.8" stroke-linecap="round" stroke-linejoin="round"/>
<path d="M51.2671 39.0246C47.8712 40.8158 45.0631 39.7709 44.0835 39.0246L43.4304 35.8259C42.995 34.0133 42.2549 29.4925 42.7773 25.91C43.4304 21.4319 50.77 23.8237 52.5734 25.5902C54.2061 27.1895 55.7297 30.1749 57.1447 31.6676H55.8386C56.0998 32.1794 55.9474 33.5868 55.8386 34.2266C55.7297 35.0795 56.4265 36.5296 54.8591 36.7855C53.7155 36.9722 52.1545 36.4323 51.2673 35.8368L51.2671 39.0246Z" fill="#D8BA8A"/>
<path d="M44.0835 39.0246L43.7895 39.0846L43.8121 39.1949L43.9017 39.2632L44.0835 39.0246ZM51.2671 39.0246L51.4071 39.2899L51.5671 39.2055L51.5671 39.0246L51.2671 39.0246ZM51.5673 35.8259C51.5673 35.6602 51.433 35.5259 51.2673 35.5259C51.1016 35.5259 50.9673 35.6602 50.9673 35.8259L51.5673 35.8259ZM50.8889 35.0659C50.8225 34.9141 50.6456 34.8449 50.4938 34.9113C50.342 34.9777 50.2728 35.1546 50.3392 35.3064L50.8889 35.0659ZM54.8591 36.7855L54.9075 37.0816H54.9075L54.8591 36.7855ZM55.8386 34.2266L55.5426 34.1762L55.541 34.1886L55.8386 34.2266ZM55.8386 31.6676V31.3676H55.3486L55.5714 31.804L55.8386 31.6676ZM57.1447 31.6676V31.9676C57.2646 31.9676 57.3729 31.8963 57.4203 31.7861C57.4677 31.676 57.4449 31.5482 57.3624 31.4612L57.1447 31.6676ZM52.5734 25.5902L52.7834 25.3759L52.5734 25.5902ZM42.7773 25.91L43.0742 25.9533L42.7773 25.91ZM43.4304 35.8259L43.7245 35.7658L43.7221 35.7558L43.4304 35.8259ZM43.9017 39.2632C44.966 40.0741 47.8991 41.1403 51.4071 39.2899L51.1272 38.7592C47.8434 40.4913 45.1602 39.4677 44.2653 38.7859L43.9017 39.2632ZM50.9673 35.8259L50.9673 35.8368L51.5673 35.8368L51.5673 35.8259L50.9673 35.8259ZM50.9673 35.8368L50.9671 39.0246L51.5671 39.0246L51.5673 35.8368L50.9673 35.8368ZM50.3392 35.3064C50.4637 35.5909 50.7623 35.8592 51.1001 36.0859L51.4345 35.5877C51.1149 35.3732 50.941 35.185 50.8889 35.0659L50.3392 35.3064ZM51.1001 36.0859C51.5725 36.403 52.2136 36.6991 52.8838 36.8927C53.5513 37.0855 54.2754 37.1848 54.9075 37.0816L54.8108 36.4894C54.2992 36.5729 53.6711 36.4956 53.0503 36.3163C52.4323 36.1377 51.8493 35.8661 51.4345 35.5877L51.1001 36.0859ZM54.9075 37.0816C55.3473 37.0098 55.6713 36.8464 55.8871 36.5915C56.1006 36.3391 56.175 36.0359 56.1951 35.751C56.2149 35.4701 56.1834 35.1737 56.1586 34.9209C56.1323 34.6529 56.114 34.4378 56.1362 34.2645L55.541 34.1886C55.5087 34.4418 55.5367 34.7279 55.5615 34.9796C55.5877 35.2466 55.6121 35.4886 55.5965 35.7088C55.5813 35.9251 55.5291 36.0857 55.4291 36.2039C55.3313 36.3194 55.1547 36.4333 54.8108 36.4894L54.9075 37.0816ZM56.1343 34.2769C56.1904 33.9471 56.2575 33.4221 56.2771 32.9106C56.287 32.655 56.2852 32.3965 56.2627 32.1644C56.2408 31.9391 56.197 31.71 56.1058 31.5312L55.5714 31.804C55.6107 31.8812 55.6459 32.0199 55.6655 32.2224C55.6845 32.4181 55.6868 32.6475 55.6776 32.8876C55.6591 33.3677 55.5956 33.8663 55.5428 34.1762L56.1343 34.2769ZM55.8386 31.9676H57.1447V31.3676H55.8386V31.9676ZM57.3624 31.4612C56.6766 30.7378 55.9588 29.6452 55.1896 28.5015C54.4311 27.3736 53.6254 26.2007 52.7834 25.3759L52.3635 25.8045C53.1541 26.579 53.9265 27.6985 54.6918 28.8363C55.4463 29.9583 56.1978 31.1048 56.927 31.874L57.3624 31.4612ZM52.7834 25.3759C52.294 24.8966 51.4582 24.3982 50.4907 23.9889C49.5175 23.5772 48.3833 23.2439 47.28 23.1105C46.182 22.9778 45.0828 23.0391 44.2028 23.4507C43.3028 23.8715 42.6582 24.6478 42.4805 25.8667L43.0742 25.9533C43.223 24.9332 43.7407 24.3291 44.457 23.9942C45.1932 23.6499 46.164 23.58 47.208 23.7062C48.2466 23.8318 49.3263 24.1478 50.2569 24.5415C51.1932 24.9376 51.9511 25.4006 52.3635 25.8045L52.7834 25.3759ZM42.4805 25.8667C41.9499 29.5048 42.6999 34.069 43.1387 35.896L43.7221 35.7558C43.2902 33.9576 42.5599 29.4803 43.0742 25.9533L42.4805 25.8667ZM43.1365 35.8859L43.7895 39.0846L44.3774 38.9646L43.7243 35.7659L43.1365 35.8859Z" fill="#333333"/>
<path d="M51.5918 28.7881C51.8095 28.4683 52.3755 28.0205 52.8979 28.7881" stroke="#333333" stroke-width="0.6" stroke-linecap="round"/>
<path d="M56.8168 24.6298C55.7719 26.6769 52.6807 26.3357 51.2658 25.9092C51.0045 28.2123 48.8709 31.1338 47.6736 32.6265C47.2383 31.9867 46.041 31.0271 45.0618 31.9867C44.3959 32.6393 45.3883 33.6927 46.0414 34.2258L42.776 36.4649C41.9924 36.209 41.4699 35.1855 41.1435 33.906C40.8169 32.9464 39.9023 27.9564 40.1635 24.6298C40.49 20.4715 42.0595 21.483 44.0821 19.8318C46.0413 18.2324 51.1569 18.2324 52.8984 19.192C54.8573 20.1517 57.8617 22.5826 56.8168 24.6298Z" fill="#333333" stroke="#333333" stroke-width="0.5" stroke-linecap="round" stroke-linejoin="round"/>
<path d="M35.2656 92.4416V87.7846L39.5105 87.0039C39.7282 87.7503 40.3595 89.6908 41.1432 91.482C41.5761 92.4716 42.5578 93.8265 42.7758 94.6807C42.9525 95.3727 42.7758 95.6403 42.4493 95.9602L39.5105 93.0814L40.1636 98.839C39.9024 99.0949 38.7486 98.0926 38.2044 97.5595C38.0956 97.5595 37.682 97.4316 36.8983 96.9198C36.1146 96.408 35.4833 93.7211 35.2656 92.4416Z" fill="#D8BA8A" stroke="#333333" stroke-width="0.6" stroke-linecap="round" stroke-linejoin="round"/>
<path d="M38.5305 93.4014L39.1838 98.1995" stroke="#333333" stroke-width="0.5" stroke-linecap="round"/>
<path d="M37.7148 92.762L38.2047 97.5601" stroke="#333333" stroke-width="0.5" stroke-linecap="round"/>
<path d="M36.7349 92.615L37.2244 96.9206" stroke="#333333" stroke-width="0.5" stroke-linecap="round"/>
<path d="M75.7559 18.5529L76.4089 24.3105H80.3273C80.3273 23.0311 80.4101 19.164 80.9803 18.2331C81.9599 16.6337 80.9803 15.994 80.6538 15.3543L79.3477 18.5529C79.5654 17.8066 80.0661 15.7381 80.3273 13.4351C80.5885 11.132 79.3477 9.59668 78.6946 9.59668L75.7559 18.5529Z" fill="#D8BA8A" stroke="#333333" stroke-width="0.6" stroke-linecap="round" stroke-linejoin="round"/>
<path d="M35.9185 43.1827C37.7471 39.8561 42.1226 39.0244 44.0818 39.0244C44.0818 39.0244 45.3882 39.984 47.6739 39.984C49.546 39.984 51.2654 39.0244 51.2654 39.0244C54.4001 37.4891 61.6056 39.6641 64.6532 40.9436L70.8573 38.0648L75.4287 24.3105H81.6328C81.6328 24.3105 80.98 41.2635 78.6943 43.5026C76.4086 45.7416 62.3677 51.4992 62.3677 51.4992C62.3677 51.4992 64.0004 60.7855 64.0004 66.533C64.0004 72.2804 64.6532 81.2468 64.6532 81.2468C64.6532 81.2468 57.4253 83.3837 52.8984 84.4455C48.3715 85.5073 41.4695 86.6846 41.4695 86.6846C41.4695 86.6846 39.2806 87.3943 37.8779 87.6442C36.4753 87.894 34.2858 87.964 34.2858 87.964C34.2858 87.964 28.5171 70.6912 29.7143 64.6138C30.9116 58.5363 34.0899 46.5093 35.9185 43.1827Z" fill="#165C7D"/>
<path d="M41.4695 86.6846L39.1838 67.4926L41.4695 55.0178M41.4695 86.6846C41.4695 86.6846 39.2806 87.3943 37.8779 87.6442C36.4753 87.894 34.2858 87.964 34.2858 87.964C34.2858 87.964 28.5171 70.6912 29.7143 64.6138C30.9116 58.5363 34.0899 46.5093 35.9185 43.1827C37.7471 39.8561 42.1226 39.0244 44.0818 39.0244C44.0818 39.0244 45.3882 39.984 47.6739 39.984C49.546 39.984 51.2654 39.0244 51.2654 39.0244C54.4001 37.4891 61.6056 39.6641 64.6532 40.9436L70.8573 38.0648L75.4287 24.3105H81.6328C81.6328 24.3105 80.98 41.2635 78.6943 43.5025C76.4086 45.7416 62.3677 51.4992 62.3677 51.4992C62.3677 51.4992 64.0004 60.7855 64.0004 66.533C64.0004 72.2804 64.6532 81.2468 64.6532 81.2468C64.6532 81.2468 57.4253 83.3837 52.8984 84.4455C48.3715 85.5073 41.4695 86.6846 41.4695 86.6846Z" stroke="#135371" stroke-width="0.6" stroke-linecap="round" stroke-linejoin="round"/>
<path d="M103.184 125.387V135.303C101.094 136.07 98.6128 134.983 97.6332 134.343L97.3066 125.387H103.184Z" fill="#E5B870" stroke="#333333" stroke-width="0.6" stroke-linecap="round" stroke-linejoin="round"/>
<path d="M103.246 140.42V135.302C99.8502 135.558 98.1304 134.769 97.6951 134.343C96.2801 134.663 92.7971 135.43 90.1849 135.942C87.5726 136.454 87.3549 138.928 87.5726 140.1L103.246 140.42Z" fill="#333333" stroke="#333333" stroke-width="0.6" stroke-linecap="round" stroke-linejoin="round"/>
<path d="M119.183 134.024L113.959 125.067L118.53 121.549L122.775 129.545C122.884 130.079 122.841 131.721 121.796 134.024C120.751 136.327 119.619 134.983 119.183 134.024Z" fill="#E5B870" stroke="#333333" stroke-width="0.6" stroke-linecap="round" stroke-linejoin="round"/>
<path d="M127.562 131.961L122.896 129.657C121.601 132.743 120.108 133.893 119.523 134.081C119.178 135.463 118.31 138.855 117.601 141.371C116.892 143.886 119.049 145.19 120.216 145.528L127.562 131.961Z" fill="#333333" stroke="#333333" stroke-width="0.6" stroke-linecap="round" stroke-linejoin="round"/>
<path d="M117.223 80.2857C117.223 71.3294 115.156 67.9175 112.979 65.252C108.734 64.0791 100.179 61.7334 99.9174 61.7334C99.6561 61.7334 99.0467 62.6462 98.6112 63.3327C97.7077 64.6343 96.1761 67.3663 94.6927 71.3294C91.1009 80.9254 91.4276 91.4677 91.4277 95.3194C91.4278 97.285 92.0729 105.571 92.7337 112.272C93.2306 117.312 94.0726 122.017 94.3664 125.387C94.3664 125.387 97.3515 125.707 99.2643 125.707C101.177 125.707 104.162 125.387 104.162 125.387V114.831C104.162 114.831 106.434 118.051 108.081 120.269C110.693 123.788 112.979 126.027 112.979 126.027C112.979 126.027 115.231 124.787 116.57 123.788C117.909 122.788 119.836 120.909 119.836 120.909C118.529 117.39 117.44 114.943 115.591 111.633C113.742 108.322 111.02 103.316 111.02 103.316L113.794 94.04C115.591 90.8413 117.223 84.1374 117.223 80.2857Z" fill="#00A9CD"/>
<path d="M104.162 114.831V125.387C104.162 125.387 101.177 125.707 99.2643 125.707C97.3515 125.707 94.3664 125.387 94.3664 125.387C94.0726 122.017 93.2306 117.312 92.7337 112.272C92.0729 105.571 91.4278 97.285 91.4277 95.3194C91.4276 91.4677 91.1009 80.9254 94.6927 71.3294C96.1761 67.3663 97.7077 64.6343 98.6112 63.3327M104.162 114.831L104.815 96.5989C104.815 96.5989 104.815 94.0399 105.795 92.4406C107.208 90.1333 108.287 89.5619 108.287 89.5619M104.162 114.831C104.162 114.831 106.434 118.051 108.081 120.269C110.693 123.788 112.979 126.027 112.979 126.027C112.979 126.027 115.231 124.787 116.57 123.788C117.909 122.788 119.836 120.909 119.836 120.909C118.529 117.39 117.44 114.943 115.591 111.633C113.742 108.322 111.02 103.316 111.02 103.316L113.794 94.04C115.591 90.8413 117.223 84.1374 117.223 80.2857C117.223 71.3294 115.156 67.9175 112.979 65.252C108.734 64.0791 100.179 61.7334 99.9174 61.7334C99.6561 61.7334 99.0467 62.6462 98.6112 63.3327M98.6112 63.3327C101.223 64.2923 105.142 65.252 111.019 66.5314" stroke="#009ED0" stroke-width="0.6" stroke-linecap="round" stroke-linejoin="round"/>
<path d="M108.408 71.7153C104.47 71.9844 101.61 70.9306 100.672 70.3701L99.2656 78.1051C101.024 79.114 105.736 79.6521 107.705 79.114L108.408 71.7153Z" fill="#66C5E3"/>
<path d="M110.039 39.0246C111.672 40.9438 116.243 39.7709 117.223 39.0246L118.202 35.5095C118.638 33.6969 119.378 29.1761 118.855 25.5936C118.202 21.1155 110.863 23.5072 109.059 25.2738C107.427 26.8731 105.903 29.8585 104.488 31.3512H105.794C105.533 31.863 105.685 33.2704 105.794 33.9102C105.903 34.7631 105.206 36.2132 106.774 36.4691C107.917 36.6557 109.477 36.1163 110.364 35.5211L110.039 39.0246Z" fill="#E5B870"/>
<path d="M117.223 39.0246L117.512 39.1051L117.485 39.2022L117.404 39.2632L117.223 39.0246ZM110.039 39.0246L109.81 39.219L109.729 39.1227L109.74 38.9968L110.039 39.0246ZM110.067 35.4817C110.082 35.3168 110.228 35.1955 110.393 35.2108C110.558 35.2261 110.68 35.3723 110.664 35.5372L110.067 35.4817ZM110.744 34.7495C110.81 34.5977 110.987 34.5285 111.139 34.5949C111.291 34.6613 111.36 34.8382 111.294 34.99L110.744 34.7495ZM106.774 36.4691L106.725 36.7652L106.774 36.4691ZM105.794 33.9102L106.09 33.8598L106.092 33.8722L105.794 33.9102ZM105.794 31.3512V31.0512H106.284L106.061 31.4876L105.794 31.3512ZM104.488 31.3512V31.6512C104.368 31.6512 104.26 31.5799 104.213 31.4697C104.165 31.3596 104.188 31.2318 104.27 31.1448L104.488 31.3512ZM109.059 25.2738L109.269 25.4881L109.059 25.2738ZM118.855 25.5936L119.152 25.5503L118.855 25.5936ZM118.202 35.5095L118.494 35.5796L118.491 35.59L118.202 35.5095ZM117.404 39.2632C117.117 39.4823 116.607 39.708 116.006 39.8957C115.396 40.0863 114.662 40.2472 113.906 40.3227C113.151 40.398 112.362 40.3894 111.648 40.2322C110.934 40.0751 110.275 39.7646 109.81 39.219L110.267 38.8302C110.62 39.2442 111.144 39.5068 111.777 39.6462C112.41 39.7856 113.131 39.7969 113.846 39.7257C114.559 39.6545 115.253 39.5023 115.827 39.323C116.41 39.1409 116.839 38.94 117.041 38.786L117.404 39.2632ZM110.664 35.5372L110.663 35.5489L110.066 35.4934L110.067 35.4817L110.664 35.5372ZM110.663 35.5489L110.338 39.0523L109.74 38.9968L110.066 35.4934L110.663 35.5489ZM111.294 34.99C111.169 35.2748 110.87 35.5433 110.532 35.7703L110.197 35.272C110.518 35.0572 110.692 34.8687 110.744 34.7495L111.294 34.99ZM110.532 35.7703C110.059 36.0872 109.418 36.3831 108.748 36.5765C108.081 36.7692 107.357 36.8683 106.725 36.7652L106.822 36.173C107.333 36.2565 107.961 36.1793 108.582 36.0001C109.199 35.8217 109.782 35.5503 110.197 35.272L110.532 35.7703ZM106.725 36.7652C106.286 36.6934 105.962 36.53 105.746 36.2751C105.532 36.0227 105.458 35.7195 105.438 35.4346C105.418 35.1537 105.449 34.8573 105.474 34.6045C105.501 34.3365 105.519 34.1214 105.497 33.9481L106.092 33.8722C106.124 34.1254 106.096 34.4115 106.071 34.6632C106.045 34.9302 106.021 35.1722 106.036 35.3924C106.052 35.6087 106.104 35.7693 106.204 35.8874C106.302 36.003 106.478 36.1169 106.822 36.173L106.725 36.7652ZM105.498 33.9605C105.442 33.6307 105.375 33.1057 105.356 32.5942C105.346 32.3385 105.348 32.0801 105.37 31.848C105.392 31.6227 105.436 31.3936 105.527 31.2148L106.061 31.4876C106.022 31.5647 105.987 31.7035 105.967 31.906C105.948 32.1017 105.946 32.3311 105.955 32.5712C105.974 33.0513 106.037 33.5499 106.09 33.8598L105.498 33.9605ZM105.794 31.6512H104.488V31.0512H105.794V31.6512ZM104.27 31.1448C104.956 30.4214 105.674 29.3287 106.443 28.1851C107.202 27.0572 108.007 25.8843 108.849 25.0595L109.269 25.4881C108.479 26.2626 107.706 27.3821 106.941 28.5199C106.186 29.6419 105.435 30.7884 104.706 31.5576L104.27 31.1448ZM108.849 25.0595C109.339 24.5802 110.175 24.0818 111.142 23.6725C112.115 23.2608 113.25 22.9275 114.353 22.7941C115.451 22.6614 116.55 22.7227 117.43 23.1343C118.33 23.5551 118.975 24.3314 119.152 25.5503L118.559 25.6369C118.41 24.6168 117.892 24.0127 117.176 23.6778C116.44 23.3335 115.469 23.2636 114.425 23.3898C113.386 23.5154 112.307 23.8314 111.376 24.2251C110.44 24.6211 109.682 25.0842 109.269 25.4881L108.849 25.0595ZM119.152 25.5503C119.683 29.1884 118.933 33.7526 118.494 35.5795L117.911 35.4394C118.343 33.6412 119.073 29.1639 118.559 25.6369L119.152 25.5503ZM118.491 35.59L117.512 39.1051L116.934 38.944L117.913 35.4289L118.491 35.59Z" fill="#333333"/>
<path d="M115.531 27.0508C114.116 27.7972 110.503 28.4582 107.368 25.1316C104.233 21.805 106.557 20.4293 108.08 19.3631C110.301 17.8091 115.341 15.8294 119.388 19.363C121.419 16.8664 126.212 17.6877 127.019 21.1122C127.794 24.4 126.72 26.1868 124.309 26.5546C125.06 30.0685 125.06 31.6678 124.08 33.9069C123.101 36.1461 121.468 37.4254 118.47 37.9263C116.473 38.2599 115.737 34.8707 115.264 33.2671C115.215 33.1013 117.223 33.587 117.223 31.6678C117.223 30.7099 116.897 30.3883 116.244 30.3883C115.264 30.3883 115.264 31.3479 114.795 31.028C114.325 30.7082 115.175 28.0591 115.531 27.0508Z" fill="#8F6E0D"/>
<path d="M119.388 19.363C118.953 19.898 118.644 20.5853 118.529 21.432C118.529 23.991 119.509 26.23 122.121 26.5499C122.938 26.6499 123.67 26.652 124.309 26.5546M119.388 19.363C121.419 16.8664 126.212 17.6877 127.019 21.1122C127.794 24.4 126.72 26.1868 124.309 26.5546M119.388 19.363C115.341 15.8294 110.301 17.8091 108.08 19.3631C106.557 20.4293 104.233 21.805 107.368 25.1316C110.503 28.4582 114.116 27.7972 115.531 27.0508C115.175 28.0591 114.325 30.7082 114.795 31.028C115.264 31.3479 115.264 30.3883 116.244 30.3883C116.897 30.3883 117.223 30.7099 117.223 31.6678C117.223 33.587 115.215 33.1013 115.264 33.2671C115.737 34.8707 116.473 38.2599 118.47 37.9263C121.468 37.4254 123.101 36.1461 124.08 33.9069C125.06 31.6678 125.06 30.0685 124.309 26.5546" stroke="#85660C" stroke-width="0.6" stroke-linecap="round" stroke-linejoin="round"/>
<path d="M108.373 28.3178C108.697 28.1012 109.393 27.8938 109.584 28.7974" stroke="#333333" stroke-width="0.6" stroke-linecap="round"/>
<path d="M87.1826 40.3044C88.6519 42.5435 95.3458 46.3819 95.3458 46.3819C99.0028 44.8465 99.4817 41.4772 99.5907 39.6647L93.0601 35.8263L86.5295 23.3515C86.7907 22.328 86.3119 17.5939 86.2031 15.3549L83.9173 12.1562C83.5907 11.7297 81.305 9.27734 81.305 9.27734C81.305 9.27734 80.5009 9.40856 80.6516 10.8767C80.757 11.903 81.4521 13.198 81.6313 14.0753L82.9375 18.5535L83.2642 23.3515C83.2642 23.3515 85.5499 37.8164 87.1826 40.3044Z" fill="#E5B870" stroke="#333333" stroke-width="0.6" stroke-linecap="round" stroke-linejoin="round"/>
<path d="M84.2441 15.0342L82.938 13.115L80.6523 10.2362" stroke="#333333" stroke-width="0.5" stroke-linecap="round"/>
<path d="M83.2637 15.6748L82.6106 14.0755L80.978 11.5165" stroke="#333333" stroke-width="0.5" stroke-linecap="round"/>
<path d="M84.5703 14.1396L80.9785 9.59748" stroke="#333333" stroke-width="0.5" stroke-linecap="round"/>
<path d="M112.979 65.2545L99.9175 61.7359C98.8726 59.6888 99.0467 52.7797 99.2644 49.581C97.6971 48.8133 95.7814 47.5552 95.0195 47.0221C95.0195 43.1837 98.2848 40.0916 99.9175 39.0254L103.183 40.3049C103.966 39.7931 107.863 39.0254 110.04 39.0254C111.085 40.3049 115.591 40.3049 117.224 39.0254C118.203 39.8784 120.195 42.6664 120.489 46.7022C120.815 51.1803 116.462 60.5631 112.979 65.2545Z" fill="#007D8A"/>
<path d="M103.183 40.3049C103.966 39.7931 107.863 39.0254 110.04 39.0254C111.085 40.3049 115.591 40.3049 117.224 39.0254C118.203 39.8784 120.195 42.6664 120.489 46.7022C120.815 51.1803 116.462 60.5631 112.979 65.2545L99.9175 61.7359C98.8726 59.6888 99.0467 52.7797 99.2644 49.581M103.183 40.3049L99.9175 39.0254C98.2848 40.0916 95.0195 43.1837 95.0195 47.0221C95.7814 47.5552 97.6971 48.8133 99.2644 49.581M103.183 40.3049C105.904 41.1578 110.366 42.8638 111.673 43.8234M99.2644 49.581C102.203 51.1803 105.795 53.0995 110.366 53.0995" stroke="#01727D" stroke-width="0.6" stroke-linecap="round" stroke-linejoin="round"/>
<path d="M79.3477 9.91602L77.0618 16.6332" stroke="#040F14" stroke-width="0.5" stroke-linecap="round"/>
<path d="M79.6733 10.5559L77.7143 16.6335" stroke="#040F14" stroke-width="0.5" stroke-linecap="round"/>
<path d="M79.999 11.1955L78.3661 17.2728" stroke="#040F14" stroke-width="0.5" stroke-linecap="round"/>
</svg>
