<svg width="271" height="160" viewBox="0 0 271 160" fill="none" xmlns="http://www.w3.org/2000/svg">
<path d="M20.7227 20.001C20.7227 13.0974 26.3191 7.50098 33.2227 7.50098H243.223C250.126 7.50098 255.723 13.0974 255.723 20.001V137.501C255.723 144.405 250.126 150.001 243.223 150.001H20.7227V20.001Z" fill="#C8CCD0"/>
<path opacity="0.3" d="M0.722656 130.001H60.7227V160.001H6.97266C3.52088 160.001 0.722656 157.203 0.722656 153.751V130.001Z" fill="#E1E5E7"/>
<path opacity="0.3" d="M270.723 30.001H210.723V0.000976562H264.473C267.924 0.000976562 270.723 2.7992 270.723 6.25098V30.001Z" fill="#E1E5E7"/>
<path d="M68.731 71.0293C65.606 74.7793 56.856 72.4876 54.981 71.0293L53.1057 64.161C52.2723 60.6193 50.8557 51.786 51.8557 44.786C53.1057 36.036 67.1541 40.7094 70.606 44.1611C73.731 47.286 76.6473 53.1193 79.3557 56.036H76.8557C77.3557 57.036 77.064 59.786 76.8557 61.036C76.6473 62.7027 77.981 65.536 74.981 66.036C72.7928 66.4007 69.8066 65.3468 68.108 64.1838L68.731 71.0293Z" fill="#E5B870"/>
<path fill-rule="evenodd" clip-rule="evenodd" d="M66.5444 41.2278C68.3863 42.0232 69.9603 42.9852 70.8711 43.896C72.4653 45.4901 73.9961 47.7631 75.4502 49.9703C75.5588 50.1351 75.6669 50.2996 75.7746 50.4633C77.1221 52.5123 78.4012 54.4571 79.6304 55.7808C79.7319 55.8901 79.759 56.0492 79.6994 56.1859C79.6397 56.3226 79.5048 56.411 79.3556 56.411H77.3751C77.419 56.6057 77.4489 56.8147 77.4692 57.0279C77.511 57.4681 77.5146 57.9625 77.496 58.4564C77.459 59.4402 77.3328 60.4521 77.2268 61.0897C77.1823 61.456 77.2205 61.8997 77.27 62.4142C77.2719 62.4343 77.2739 62.4546 77.2758 62.4749C77.3225 62.9583 77.3742 63.4939 77.3393 63.9993C77.3026 64.5305 77.1684 65.0718 76.7989 65.5175C76.4258 65.9675 75.8543 66.2706 75.0426 66.4059C73.8717 66.601 72.5169 66.4145 71.2549 66.0425C70.2782 65.7546 69.336 65.3494 68.5498 64.9008L69.1185 71.15L69.019 71.2694C68.1685 72.2899 66.9506 72.881 65.61 73.1823C64.2695 73.4836 62.7811 73.5013 61.3492 73.3555C59.9154 73.2094 58.5228 72.8978 57.367 72.5291C56.2226 72.1641 55.2729 71.7314 54.7507 71.3253L54.6521 71.2486L52.7404 64.2469C51.9029 60.6876 50.4747 51.801 51.4844 44.733C51.8142 42.4244 53.0029 40.9669 54.6657 40.1731C56.3036 39.3912 58.3665 39.2684 60.451 39.5257C62.5421 39.7838 64.6955 40.4294 66.5444 41.2278ZM68.2174 63.8028C67.6599 63.4066 67.3183 63.0385 67.2003 62.7633C67.1187 62.5729 66.8983 62.4848 66.7079 62.5663C66.5175 62.6479 66.4294 62.8684 66.5109 63.0587C66.7078 63.5182 67.1744 63.9771 67.7503 64.3909L68.343 70.9045C67.6346 71.6915 66.6265 72.1851 65.4456 72.4505C64.208 72.7287 62.8057 72.75 61.4252 72.6093C60.0464 72.4689 58.7047 72.1686 57.5949 71.8146C56.555 71.4829 55.7509 71.1143 55.3084 70.8048L53.4691 64.0687C52.6398 60.5404 51.2372 51.7668 52.2269 44.839C52.5221 42.7727 53.5581 41.533 54.9888 40.85C56.4445 40.1551 58.3438 40.0213 60.3591 40.2701C62.3678 40.518 64.4519 41.1412 66.247 41.9164C68.049 42.6945 69.5256 43.6111 70.3408 44.4263C71.8715 45.957 73.3615 48.1631 74.8239 50.3829C74.9357 50.5527 75.0474 50.7225 75.1589 50.8921C76.3009 52.6289 77.4277 54.3427 78.5278 55.661H76.2489L76.5202 56.2037C76.6138 56.3909 76.6841 56.6948 76.7225 57.0988C76.7601 57.4946 76.7644 57.9533 76.7465 58.4282C76.7108 59.3777 76.5879 60.3615 76.4857 60.9744L76.4835 60.9895C76.4253 61.4551 76.4755 61.9882 76.5234 62.486L76.5268 62.5212C76.5753 63.0249 76.6216 63.5055 76.591 63.9477C76.5601 64.3957 76.4522 64.7606 76.2215 65.0389C75.9944 65.3128 75.6076 65.5514 74.9193 65.6661C73.902 65.8356 72.6697 65.6776 71.4669 65.3231C70.3068 64.9811 69.2071 64.466 68.4004 63.9287C68.3537 63.8697 68.29 63.8255 68.2174 63.8028Z" fill="#333333"/>
<path d="M58.2202 47.6331C60.9285 49.0914 67.8452 50.3831 73.8452 43.8831C79.8452 37.3831 75.398 34.6951 72.4814 32.6117C68.2307 29.5754 58.5832 25.7071 50.8376 32.6117C46.9497 27.7335 39.5063 29.377 33.2563 36.252C27.0063 43.127 24.3813 63.522 26.3813 68.1269C28.8813 73.8831 34.0213 63.7425 37.0063 58.127C38.8813 54.5996 40.8648 47.7702 45.6066 46.6543C43.2563 54.4255 45.0989 64.0233 50.8376 65.0019C54.6598 65.6538 57.8254 62.9128 58.7316 59.7793C58.8253 59.4554 54.9816 60.4043 54.9816 56.6543C54.9816 54.7828 55.6066 54.1543 56.8566 54.1543C58.7316 54.1543 58.7316 56.0293 59.6301 55.4043C60.5285 54.7793 58.9021 49.6032 58.2202 47.6331Z" fill="#333333"/>
<path fill-rule="evenodd" clip-rule="evenodd" d="M62.9212 29.256C66.758 29.7303 70.1746 31.4268 72.2605 32.9168L72.2605 32.9168C72.3827 33.0041 72.5065 33.0917 72.6313 33.18C73.2631 33.6271 73.921 34.0928 74.5178 34.6189C75.2303 35.2472 75.8256 35.9369 76.1579 36.7352C76.801 38.28 76.5261 40.4227 73.5667 43.6287C67.7064 49.9773 60.9857 48.6978 58.3951 47.3028C58.259 47.2296 58.0919 47.2473 57.9743 47.3474C57.8566 47.4476 57.8124 47.6096 57.8629 47.7557C58.2021 48.7354 58.7745 50.5083 59.1498 52.1087C59.338 52.9111 59.4727 53.654 59.5075 54.2262C59.525 54.5136 59.516 54.7389 59.4845 54.8996C59.4533 55.0589 59.4118 55.0966 59.4121 55.097C59.4122 55.097 59.4124 55.0968 59.413 55.0964C59.335 55.1507 59.2975 55.1561 59.2914 55.1567C59.2886 55.1569 59.2876 55.1567 59.2861 55.1564C59.2838 55.1558 59.2765 55.1538 59.2629 55.1461C59.2317 55.1285 59.1867 55.0928 59.1186 55.0225C59.0684 54.9707 59.0188 54.9143 58.9596 54.8468C58.937 54.8211 58.9131 54.7939 58.8871 54.7647C58.517 54.3476 57.9538 53.7792 56.8537 53.7792C56.1683 53.7792 55.566 53.9534 55.1545 54.4683C54.7608 54.961 54.6037 55.6932 54.6037 56.6542C54.6037 57.6579 54.8622 58.3908 55.2863 58.9149C55.7081 59.4361 56.2626 59.7122 56.7856 59.862C57.3057 60.0111 57.8152 60.041 58.1659 60.0563C58.1937 60.0575 58.2199 60.0586 58.2447 60.0597C57.2422 62.8841 54.3362 65.2186 50.8977 64.6322C48.2487 64.1804 46.4201 61.7232 45.5494 58.2832C44.7006 54.9299 44.8011 50.7591 45.8946 46.9926C48.3807 46.6159 50.1213 45.3221 51.2366 43.4898C52.3786 41.6136 52.8537 39.1941 52.8537 36.6542C52.8537 36.6377 52.8526 36.6211 52.8504 36.6047C52.6409 35.033 52.1076 33.7202 51.3449 32.6639C55.056 29.4906 59.1839 28.794 62.9212 29.256ZM50.8771 32.0771C54.771 28.7574 59.1132 28.0295 63.0132 28.5116C66.9993 29.0044 70.5318 30.7602 72.6965 32.3065M50.8771 32.0771C48.8418 29.7458 45.9662 28.9999 42.8524 29.6574C39.6247 30.3389 36.1359 32.5236 32.9759 35.9996C31.3667 37.7698 30.0104 40.3849 28.9096 43.3548C27.8065 46.3307 26.9499 49.6905 26.3532 52.9736C25.7565 56.2568 25.4181 59.4723 25.3551 62.1617C25.3236 63.5062 25.3607 64.7244 25.4703 65.7567C25.5793 66.7832 25.7622 67.6494 26.0344 68.2762C26.3613 69.0289 26.7517 69.5717 27.2192 69.8901C27.7025 70.2192 28.2332 70.2845 28.7679 70.1454C29.2865 70.0104 29.8002 69.6869 30.2972 69.2566C30.7976 68.8234 31.3031 68.2628 31.8043 67.6224C33.6383 65.2794 35.5172 61.7327 36.9617 59.0059C37.0895 58.7647 37.2139 58.5299 37.3345 58.3029C37.7263 57.5658 38.1227 56.687 38.5405 55.7606C38.6303 55.5616 38.721 55.3605 38.8129 55.1581C39.336 54.0057 39.9015 52.8008 40.5532 51.674C41.736 49.6285 43.1636 47.9103 45.0548 47.2107C44.0401 50.981 43.9704 55.1017 44.8223 58.4673C45.7199 62.0136 47.682 64.8446 50.7716 65.3715C54.8226 66.0624 58.1421 63.1576 59.089 59.8834C59.1163 59.789 59.1133 59.6725 59.0508 59.5645C58.9962 59.4703 58.9183 59.4214 58.8727 59.398C58.7872 59.3544 58.694 59.3405 58.6424 59.3338C58.5452 59.3213 58.4129 59.3159 58.2793 59.3104C58.2524 59.3093 58.2254 59.3082 58.1987 59.307C57.8551 59.292 57.4213 59.264 56.9922 59.141C56.5659 59.0189 56.1653 58.8088 55.8693 58.4431C55.5757 58.0803 55.3537 57.5256 55.3537 56.6542C55.3537 55.7437 55.5092 55.2259 55.7404 54.9365C55.954 54.6693 56.2892 54.5292 56.8537 54.5292C57.6286 54.5292 58.003 54.8983 58.3262 55.2625C58.3454 55.2842 58.3653 55.3068 58.3856 55.3299C58.4488 55.4019 58.5159 55.4782 58.5798 55.5442C58.6654 55.6326 58.7696 55.7288 58.8941 55.7991C59.026 55.8736 59.1831 55.9204 59.3625 55.9033C59.5357 55.8868 59.6947 55.8141 59.8413 55.7121C60.0738 55.5503 60.1738 55.2821 60.2205 55.0437C60.2694 54.794 60.2754 54.4971 60.2561 54.1806C60.2174 53.5448 60.0713 52.7534 59.88 51.9374C59.5876 50.6906 59.1803 49.3487 58.8513 48.3423C62.0696 49.6493 68.5009 50.2224 74.1178 44.1374C77.1585 40.8434 77.66 38.392 76.8503 36.447C76.4563 35.5003 75.7679 34.7212 75.0138 34.0564C74.3841 33.5012 73.6875 33.0084 73.0558 32.5615C72.9333 32.4748 72.8132 32.3899 72.6965 32.3065M43.0073 30.3912C46.0194 29.7552 48.6996 30.5343 50.5414 32.8453C51.3251 33.8286 51.8889 35.0987 52.1037 36.6793C52.1006 39.1297 51.6378 41.3882 50.5959 43.0999C49.5599 44.8019 47.9404 45.9842 45.5572 46.2821C45.544 46.2838 45.5308 46.2861 45.5178 46.2892C42.9882 46.8845 41.2382 48.9913 39.9039 51.2985C39.2325 52.4594 38.6543 53.693 38.1299 54.8481C38.0358 55.0554 37.9436 55.2599 37.8529 55.4609C37.4353 56.3866 37.0515 57.2374 36.6723 57.9509C36.5527 58.1757 36.4299 58.4075 36.3042 58.6448C34.8515 61.3863 33.0038 64.8732 31.2137 67.1601C30.7297 67.7786 30.2574 68.299 29.8063 68.6895C29.352 69.0829 28.9405 69.3255 28.5791 69.4195C28.2337 69.5094 27.9294 69.4663 27.6414 69.2702C27.3376 69.0633 27.0205 68.6639 26.7224 67.9775C26.4946 67.4531 26.322 66.6746 26.2161 65.6775C26.1109 64.6861 26.0739 63.5017 26.1049 62.1793C26.1668 59.5345 26.5003 56.3583 27.0911 53.1077C27.6819 49.857 28.5284 46.5412 29.6128 43.6155C30.6995 40.6838 32.0151 38.1714 33.5309 36.5041C36.6209 33.1052 39.9788 31.0306 43.0073 30.3912Z" fill="#333333"/>
<path fill-rule="evenodd" clip-rule="evenodd" d="M70.7171 50.1265C71.0408 50.0793 71.4329 50.2308 71.7065 50.4174C71.8776 50.5341 72.1109 50.49 72.2276 50.3189C72.3443 50.1478 72.3002 49.9145 72.1291 49.7978C71.7821 49.5612 71.1978 49.2985 70.6089 49.3843C70.3015 49.4291 70.0004 49.5689 69.7519 49.8412C69.5078 50.1085 69.3333 50.4827 69.2328 50.9688C69.1909 51.1717 69.3213 51.3701 69.5242 51.412C69.727 51.4539 69.9254 51.3234 69.9673 51.1206C70.0492 50.724 70.178 50.4868 70.3058 50.3468C70.4291 50.2117 70.5683 50.1482 70.7171 50.1265Z" fill="#333333"/>
<path d="M58.2539 56.877C58.2539 57.2221 57.9741 57.502 57.6289 57.502C57.2837 57.502 57.0039 57.2221 57.0039 56.877C57.0039 56.5318 57.2837 56.252 57.6289 56.252C57.9741 56.252 58.2539 56.5318 58.2539 56.877Z" fill="#333333"/>
<path fill-rule="evenodd" clip-rule="evenodd" d="M57.3169 56.669C57.4318 56.4967 57.6646 56.4501 57.837 56.565C61.5082 59.0125 66.4149 60.868 75.0759 59.6308C75.2809 59.6015 75.4709 59.7439 75.5002 59.949C75.5295 60.154 75.387 60.3439 75.182 60.3732C66.343 61.6359 61.2496 59.7415 57.4209 57.189C57.2486 57.0741 57.202 56.8413 57.3169 56.669Z" fill="#333333"/>
<path d="M77.0039 60.002C77.0039 60.6923 76.4443 61.252 75.7539 61.252C75.0636 61.252 74.5039 60.6923 74.5039 60.002C74.5039 59.3116 75.0636 58.752 75.7539 58.752C76.4443 58.752 77.0039 59.3116 77.0039 60.002Z" fill="#333333"/>
<path d="M229.472 130.086C235.972 133.586 241.436 132.085 243.311 130.626L244.472 123.836C245.306 120.294 246.722 111.461 245.722 104.461C244.472 95.7108 230.424 100.384 226.972 103.836C223.847 106.961 220.931 112.794 218.222 115.711H220.722C220.222 116.711 220.514 119.461 220.722 120.711C220.931 122.377 219.597 125.211 222.597 125.711C224.786 126.076 227.774 125.021 229.472 123.857L229.472 130.086Z" fill="#D8BA8B"/>
<path fill-rule="evenodd" clip-rule="evenodd" d="M231.034 100.903C229.192 101.698 227.618 102.66 226.707 103.571C225.113 105.165 223.582 107.438 222.128 109.645C222.019 109.81 221.911 109.974 221.804 110.138C220.456 112.187 219.177 114.132 217.948 115.456C217.846 115.565 217.819 115.724 217.879 115.861C217.938 115.997 218.073 116.086 218.223 116.086H220.203C220.159 116.28 220.129 116.49 220.109 116.703C220.067 117.143 220.064 117.637 220.082 118.131C220.119 119.115 220.245 120.127 220.351 120.764C220.396 121.131 220.358 121.575 220.308 122.089C220.306 122.109 220.304 122.129 220.302 122.15C220.256 122.633 220.204 123.169 220.239 123.674C220.276 124.205 220.41 124.747 220.779 125.192C221.152 125.642 221.724 125.945 222.536 126.081C223.707 126.276 225.062 126.089 226.325 125.717C227.33 125.42 228.298 125 229.097 124.536L229.098 130.31L229.295 130.416C235.907 133.977 241.534 132.484 243.542 130.922L243.656 130.833L244.84 123.91C245.678 120.344 247.102 111.468 246.094 104.408C245.764 102.099 244.575 100.642 242.912 99.848C241.275 99.0661 239.212 98.9432 237.127 99.2005C235.036 99.4587 232.883 100.104 231.034 100.903ZM229.361 123.478C229.918 123.081 230.26 122.713 230.378 122.438C230.459 122.248 230.68 122.16 230.87 122.241C231.061 122.323 231.149 122.543 231.067 122.734C230.873 123.188 230.414 123.642 229.847 124.052L229.848 129.86C236.013 133.094 241.136 131.732 242.967 130.416L244.105 123.761L244.108 123.75C244.937 120.226 246.342 111.446 245.351 104.514C245.056 102.447 244.02 101.208 242.589 100.525C241.134 99.8299 239.234 99.6961 237.219 99.9449C235.21 100.193 233.126 100.816 231.331 101.591C229.529 102.369 228.053 103.286 227.237 104.101C225.707 105.632 224.217 107.838 222.754 110.058C222.642 110.227 222.531 110.397 222.419 110.567C221.277 112.304 220.15 114.017 219.05 115.336H221.329L221.058 115.879C220.964 116.066 220.894 116.37 220.856 116.774C220.818 117.169 220.814 117.628 220.832 118.103C220.867 119.053 220.99 120.036 221.092 120.649L221.095 120.664C221.153 121.13 221.103 121.663 221.055 122.161L221.051 122.196C221.003 122.7 220.957 123.18 220.987 123.622C221.018 124.07 221.126 124.435 221.357 124.714C221.584 124.988 221.971 125.226 222.659 125.341C223.677 125.511 224.909 125.352 226.113 124.997C227.272 124.655 228.372 124.141 229.178 123.603C229.224 123.545 229.288 123.5 229.361 123.478Z" fill="#333333"/>
<path fill-rule="evenodd" clip-rule="evenodd" d="M227.725 109.652C228.043 109.73 228.35 110.017 228.534 110.293C228.649 110.465 228.881 110.512 229.054 110.397C229.226 110.282 229.273 110.049 229.158 109.877C228.925 109.528 228.481 109.065 227.903 108.924C227.602 108.85 227.27 108.867 226.938 109.026C226.611 109.183 226.309 109.464 226.034 109.877C225.919 110.049 225.965 110.282 226.138 110.397C226.31 110.512 226.543 110.465 226.658 110.293C226.882 109.956 227.091 109.784 227.262 109.703C227.426 109.624 227.579 109.617 227.725 109.652Z" fill="#333333"/>
<path d="M218.846 101.961C220.846 105.961 226.763 105.294 229.471 104.461C229.972 108.961 234.055 114.669 236.347 117.586C237.18 116.336 239.472 114.461 241.346 116.336C242.621 117.611 240.721 119.669 239.471 120.711L245.721 125.086C247.221 124.586 248.221 122.586 248.846 120.086C249.471 118.211 251.222 108.461 250.722 101.961C250.097 93.8357 247.093 95.8121 243.221 92.5858C239.471 89.4606 231.019 92.5558 227.686 94.431C223.936 96.3061 216.846 97.9607 218.846 101.961Z" fill="#8F6E0D"/>
<path fill-rule="evenodd" clip-rule="evenodd" d="M227.539 94.1548C226.773 94.5375 225.866 94.911 224.913 95.3033C224.718 95.3838 224.52 95.4651 224.322 95.5474C223.161 96.0286 221.969 96.543 220.954 97.1283C219.944 97.7103 219.071 98.3838 218.588 99.2012C218.089 100.045 218.022 101.011 218.567 102.1C219.634 104.235 221.739 105.099 223.859 105.334C225.807 105.55 227.821 105.244 229.209 104.862C229.542 107.084 230.664 109.534 231.967 111.774C233.347 114.146 234.951 116.315 236.101 117.779C236.163 117.858 236.259 117.902 236.359 117.898C236.459 117.894 236.552 117.842 236.607 117.759C236.999 117.171 237.737 116.437 238.579 116.076C238.997 115.897 239.427 115.815 239.849 115.874C240.267 115.932 240.7 116.131 241.125 116.557C241.378 116.81 241.469 117.091 241.455 117.396C241.44 117.715 241.308 118.074 241.086 118.453C240.641 119.211 239.885 119.959 239.271 120.471C239.196 120.533 239.155 120.627 239.159 120.724C239.163 120.821 239.212 120.911 239.292 120.967L245.542 125.342C245.623 125.398 245.726 125.413 245.82 125.382C246.671 125.099 247.346 124.402 247.881 123.494C248.416 122.587 248.83 121.434 249.146 120.173C249.47 119.193 250.064 116.27 250.516 112.798C250.97 109.306 251.286 105.219 251.034 101.937C250.718 97.8396 249.796 96.1857 248.369 95.1807C247.819 94.7931 247.196 94.5063 246.551 94.209C246.392 94.136 246.233 94.0625 246.072 93.9866C245.247 93.5964 244.36 93.1281 243.422 92.3457C242.419 91.5104 241.119 91.1041 239.708 90.9806C238.296 90.8571 236.752 91.0146 235.234 91.3272C232.205 91.951 229.232 93.2035 227.539 94.1548ZM239.653 91.6033C240.986 91.7198 242.149 92.0985 243.021 92.8258C244.018 93.6565 244.959 94.1511 245.805 94.5516C245.98 94.6346 246.15 94.7128 246.314 94.7885C246.953 95.0832 247.51 95.34 248.009 95.6917C249.208 96.5364 250.101 97.9567 250.41 101.985C250.658 105.203 250.348 109.24 249.896 112.717C249.443 116.2 248.852 119.08 248.55 119.987C248.547 119.995 248.545 120.002 248.543 120.01C248.234 121.245 247.837 122.338 247.343 123.177C246.883 123.957 246.357 124.489 245.766 124.735L239.979 120.685C240.554 120.17 241.204 119.487 241.625 118.769C241.874 118.344 242.057 117.884 242.079 117.425C242.101 116.954 241.951 116.499 241.567 116.115C241.055 115.603 240.5 115.333 239.935 115.255C239.374 115.177 238.828 115.29 238.333 115.502C237.517 115.851 236.809 116.484 236.34 117.069C235.225 115.631 233.77 113.628 232.508 111.46C231.144 109.116 230.025 106.61 229.782 104.426C229.772 104.334 229.721 104.251 229.643 104.199C229.565 104.148 229.469 104.135 229.38 104.162C228.055 104.57 225.942 104.936 223.928 104.713C221.913 104.489 220.059 103.687 219.126 101.821C218.671 100.91 218.741 100.17 219.126 99.5195C219.526 98.8431 220.284 98.2358 221.266 97.6697C222.242 97.107 223.4 96.6062 224.561 96.1247C224.756 96.0441 224.95 95.964 225.144 95.8842C226.099 95.4908 227.035 95.1055 227.825 94.7105L227.839 94.7037L227.839 94.7033C229.48 93.7799 232.396 92.5497 235.36 91.9393C236.841 91.6343 238.322 91.4868 239.653 91.6033Z" fill="#8F6E0D"/>
<path d="M93.8477 39.3754V81.8754L106.973 70.0004C125.931 70.2088 160.706 70.0004 168.223 70.0004C177.598 70.0004 181.973 70.0004 184.473 62.5004C185.098 59.3754 184.473 50.4772 184.473 39.3754C184.473 26.8754 175.098 26.8754 168.223 26.8754C152.598 26.2504 118.57 26.8755 106.973 26.8754C95.7226 26.8753 93.8477 33.7504 93.8477 39.3754Z" fill="#007D8A"/>
<path fill-rule="evenodd" clip-rule="evenodd" d="M120.841 27.1471C115.085 27.2028 110.177 27.2504 106.973 27.2504C101.427 27.2503 98.2723 28.9406 96.4879 31.2455C94.6889 33.5693 94.2227 36.5927 94.2227 39.3754V81.0304L106.721 69.7223C106.791 69.659 106.882 69.6244 106.977 69.6254C121.439 69.7843 145.107 69.7007 158.855 69.6522C163.126 69.6371 166.44 69.6254 168.223 69.6254C172.938 69.6254 176.296 69.62 178.798 68.7105C180.032 68.2617 181.051 67.5933 181.913 66.5916C182.776 65.5895 183.496 64.2384 184.11 62.4042C184.408 60.8847 184.41 57.9377 184.332 53.9365C184.313 52.9515 184.289 51.9052 184.264 50.8044C184.187 47.4378 184.098 43.5622 184.098 39.3754C184.098 36.296 183.52 34.0198 182.573 32.3323C181.629 30.649 180.303 29.5269 178.761 28.7749C175.651 27.2575 171.682 27.2504 168.223 27.2504H168.208L168.208 27.2501C156.9 26.7978 135.949 27.0007 120.841 27.1471ZM168.23 26.5004C156.9 26.0476 135.91 26.251 120.802 26.3973C115.057 26.453 110.162 26.5004 106.973 26.5004C101.268 26.5003 97.8604 28.2475 95.8949 30.7864C93.944 33.3063 93.4727 36.533 93.4727 39.3754V81.8754C93.4727 82.0236 93.56 82.158 93.6955 82.2181C93.8311 82.2783 93.9893 82.2529 94.0992 82.1534L107.115 70.377C121.598 70.5338 145.166 70.4505 158.866 70.4021C163.134 70.3871 166.443 70.3754 168.223 70.3754H168.299C172.921 70.3754 176.414 70.3754 179.054 69.4153C180.398 68.9266 181.528 68.1887 182.482 67.081C183.431 65.9778 184.194 64.5233 184.829 62.619C184.833 62.6042 184.837 62.5892 184.84 62.5739C185.163 60.9616 185.16 57.9065 185.082 53.9219C185.063 52.9328 185.039 51.8838 185.013 50.7814C184.936 47.4162 184.848 43.5529 184.848 39.3754C184.848 36.2047 184.253 33.7934 183.228 31.9653C182.199 30.133 180.752 28.9113 179.09 28.1008C175.809 26.5003 171.675 26.5003 168.268 26.5004L168.23 26.5004Z" fill="#007D8A"/>
<path d="M201.625 95.2787V137.779L188.5 125.904C169.542 126.112 134.767 125.904 127.25 125.904C117.875 125.904 113.5 125.904 111 118.404C110.375 115.279 111 106.381 111 95.2787C111 82.7787 120.375 82.7787 127.25 82.7787C142.875 82.1537 176.903 82.7788 188.5 82.7787C199.75 82.7786 201.625 89.6537 201.625 95.2787Z" fill="#C6CED1"/>
<path fill-rule="evenodd" clip-rule="evenodd" d="M174.632 83.0504C180.388 83.1062 185.296 83.1537 188.5 83.1537C194.045 83.1536 197.2 84.8439 198.985 87.1488C200.784 89.4726 201.25 92.496 201.25 95.2787V136.934L188.752 125.626C188.682 125.562 188.59 125.528 188.496 125.529C174.033 125.688 150.366 125.604 136.618 125.555C132.347 125.54 129.033 125.529 127.25 125.529C122.534 125.529 119.176 125.523 116.675 124.614C115.441 124.165 114.422 123.497 113.559 122.495C112.697 121.493 111.977 120.142 111.363 118.307C111.065 116.788 111.062 113.841 111.14 109.84C111.16 108.855 111.184 107.808 111.209 106.708C111.286 103.341 111.375 99.4655 111.375 95.2787C111.375 92.1993 111.952 89.9231 112.899 88.2356C113.844 86.5523 115.169 85.4303 116.711 84.6782C119.822 83.1608 123.791 83.1537 127.25 83.1537H127.265L127.265 83.1534C138.573 82.7011 159.523 82.904 174.632 83.0504ZM127.242 82.4037C138.572 81.951 159.562 82.1543 174.671 82.3006C180.416 82.3563 185.31 82.4037 188.5 82.4037C194.205 82.4036 197.612 84.1508 199.578 86.6897C201.529 89.2097 202 92.4363 202 95.2787V137.779C202 137.927 201.913 138.061 201.777 138.121C201.642 138.182 201.483 138.156 201.373 138.057L188.357 126.28C173.875 126.437 150.306 126.354 136.606 126.305C132.339 126.29 129.029 126.279 127.25 126.279H127.173C122.552 126.279 119.059 126.279 116.419 125.319C115.075 124.83 113.945 124.092 112.991 122.984C112.041 121.881 111.279 120.427 110.644 118.522C110.639 118.508 110.635 118.492 110.632 118.477C110.31 116.865 110.313 113.81 110.391 109.825C110.41 108.836 110.434 107.787 110.459 106.685C110.536 103.319 110.625 99.4562 110.625 95.2787C110.625 92.108 111.219 89.6967 112.245 87.8686C113.273 86.0363 114.721 84.8146 116.382 84.0041C119.663 82.4036 123.798 82.4036 127.205 82.4037L127.242 82.4037Z" fill="#C6CED1"/>
<path fill-rule="evenodd" clip-rule="evenodd" d="M143.348 96.25C143.348 95.9739 143.572 95.75 143.848 95.75H187.598C187.874 95.75 188.098 95.9739 188.098 96.25C188.098 96.5261 187.874 96.75 187.598 96.75H143.848C143.572 96.75 143.348 96.5261 143.348 96.25ZM127.723 108.75C127.723 108.474 127.947 108.25 128.223 108.25H187.598C187.874 108.25 188.098 108.474 188.098 108.75C188.098 109.026 187.874 109.25 187.598 109.25H128.223C127.947 109.25 127.723 109.026 127.723 108.75Z" fill="#333333"/>
<path fill-rule="evenodd" clip-rule="evenodd" d="M108.973 40C108.973 39.7239 109.197 39.5 109.473 39.5H162.598C162.874 39.5 163.098 39.7239 163.098 40C163.098 40.2761 162.874 40.5 162.598 40.5H109.473C109.197 40.5 108.973 40.2761 108.973 40ZM108.973 52.5C108.973 52.2239 109.197 52 109.473 52H150.723C150.999 52 151.223 52.2239 151.223 52.5C151.223 52.7761 150.999 53 150.723 53H109.473C109.197 53 108.973 52.7761 108.973 52.5Z" fill="#333333"/>
<path fill-rule="evenodd" clip-rule="evenodd" d="M196.832 17.2344C197.027 17.4297 197.027 17.7463 196.832 17.9415L187.993 26.7804C187.798 26.9756 187.481 26.9756 187.286 26.7804C187.091 26.5851 187.091 26.2685 187.286 26.0732L196.125 17.2344C196.32 17.0392 196.637 17.0392 196.832 17.2344Z" fill="#333333"/>
<path fill-rule="evenodd" clip-rule="evenodd" d="M183.221 12.6689C183.497 12.6689 183.721 12.8928 183.721 13.1689V23.1689C183.721 23.4451 183.497 23.6689 183.221 23.6689C182.945 23.6689 182.721 23.4451 182.721 23.1689V13.1689C182.721 12.8928 182.945 12.6689 183.221 12.6689Z" fill="#333333"/>
<path fill-rule="evenodd" clip-rule="evenodd" d="M201.096 30.5449C201.096 30.2688 200.872 30.0449 200.596 30.0449H190.596C190.32 30.0449 190.096 30.2688 190.096 30.5449C190.096 30.8211 190.32 31.0449 190.596 31.0449H200.596C200.872 31.0449 201.096 30.8211 201.096 30.5449Z" fill="#333333"/>
<path fill-rule="evenodd" clip-rule="evenodd" d="M101.709 138.611C101.904 138.807 102.221 138.807 102.416 138.611L111.255 129.773C111.45 129.577 111.45 129.261 111.255 129.065C111.06 128.87 110.743 128.87 110.548 129.065L101.709 137.904C101.514 138.1 101.514 138.416 101.709 138.611Z" fill="#333333"/>
<path fill-rule="evenodd" clip-rule="evenodd" d="M97.1445 125.001C97.1445 125.277 97.3684 125.501 97.6445 125.501H107.645C107.921 125.501 108.145 125.277 108.145 125.001C108.145 124.725 107.921 124.501 107.645 124.501H97.6445C97.3684 124.501 97.1445 124.725 97.1445 125.001Z" fill="#333333"/>
<path fill-rule="evenodd" clip-rule="evenodd" d="M115.018 142.874C114.741 142.874 114.518 142.65 114.518 142.374V132.374C114.518 132.098 114.741 131.874 115.018 131.874C115.294 131.874 115.518 132.098 115.518 132.374V142.374C115.518 142.65 115.294 142.874 115.018 142.874Z" fill="#333333"/>
</svg>
