<svg width="181" height="160" viewBox="0 0 181 160" fill="none" xmlns="http://www.w3.org/2000/svg">
<path d="M60.1259 118.014L60.7689 118.687C60.8785 118.689 60.8675 120.7 59.4019 120.959C57.7504 121.251 56.2335 120.449 55.1572 119.548L55.1941 117.904L60.1259 118.014Z" fill="#805928"/>
<path fill-rule="evenodd" clip-rule="evenodd" d="M60.2699 117.878C60.2338 117.84 60.1841 117.818 60.1317 117.817L55.1998 117.706C55.0908 117.704 55.0005 117.79 54.9981 117.899L54.9612 119.543C54.9599 119.603 54.9858 119.66 55.0318 119.699C56.1267 120.616 57.702 121.46 59.4377 121.153C60.2735 121.005 60.6824 120.355 60.8654 119.787C60.9575 119.5 60.997 119.223 61.0062 119.015C61.0108 118.911 61.0082 118.819 60.9989 118.748C60.9944 118.715 60.9872 118.676 60.974 118.64C60.9677 118.623 60.9557 118.595 60.9335 118.568C60.9252 118.558 60.9122 118.544 60.8943 118.53L60.2699 117.878ZM60.0412 118.209L60.6078 118.802C60.613 118.843 60.6158 118.909 60.612 118.997C60.6041 119.175 60.5699 119.417 60.4897 119.666C60.3282 120.168 59.9987 120.653 59.369 120.764C57.8372 121.035 56.4093 120.316 55.3579 119.456L55.3882 118.105L60.0412 118.209ZM60.7659 118.884C60.7597 118.883 60.7535 118.883 60.7473 118.882C60.7533 118.883 60.7595 118.883 60.7659 118.884Z" fill="#333333"/>
<path d="M55.0415 124.809L55.1595 119.548C58.5731 119.888 60.323 119.115 60.7712 118.687C62.1886 119.048 65.6781 119.915 68.2967 120.5C70.9152 121.086 71.0774 123.633 70.8312 124.834L55.0415 124.809Z" fill="#333333"/>
<path fill-rule="evenodd" clip-rule="evenodd" d="M60.6343 118.544C60.6835 118.497 60.7534 118.478 60.8194 118.495C62.2361 118.856 65.7234 119.723 68.3392 120.307C69.7187 120.616 70.4628 121.449 70.8214 122.364C71.1757 123.268 71.1528 124.245 71.024 124.873C71.0051 124.965 70.9242 125.031 70.8304 125.031L55.0407 125.006C54.9877 125.005 54.9369 124.984 54.8998 124.946C54.8628 124.908 54.8426 124.857 54.8438 124.804L54.9617 119.543C54.963 119.488 54.9871 119.436 55.0282 119.4C55.0694 119.363 55.1239 119.346 55.1786 119.351C56.8677 119.519 58.1372 119.411 59.0341 119.212C59.9382 119.012 60.4475 118.722 60.6343 118.544ZM60.822 118.903C60.5284 119.138 59.9654 119.41 59.1196 119.598C58.2152 119.798 56.972 119.906 55.3515 119.764L55.2428 124.611L70.6658 124.636C70.7556 124.064 70.7459 123.253 70.454 122.508C70.1384 121.703 69.4922 120.969 68.2531 120.693C65.6914 120.12 62.2986 119.278 60.822 118.903Z" fill="#333333"/>
<path d="M80.7421 104.216L81.2872 104.97C81.3954 104.988 81.1097 106.978 79.6224 107.034C77.9465 107.097 76.5534 106.096 75.6105 105.056L75.8717 103.432L80.7421 104.216Z" fill="#805928"/>
<path fill-rule="evenodd" clip-rule="evenodd" d="M80.9024 104.101C80.8717 104.059 80.8255 104.03 80.7738 104.022L75.9033 103.238C75.7957 103.221 75.6944 103.294 75.6771 103.402L75.4159 105.025C75.4063 105.084 75.4242 105.145 75.4645 105.189C76.4238 106.247 77.869 107.298 79.6303 107.232C80.4785 107.2 80.9723 106.612 81.2313 106.073C81.3617 105.802 81.4387 105.533 81.4764 105.328C81.4951 105.226 81.505 105.135 81.5054 105.063C81.5057 105.029 81.5039 104.99 81.4956 104.953C81.4917 104.935 81.4836 104.906 81.4654 104.876C81.4585 104.864 81.4475 104.849 81.4317 104.833L80.9024 104.101ZM80.6305 104.398L81.1108 105.063C81.1103 105.104 81.104 105.17 81.0882 105.257C81.0562 105.431 80.9891 105.667 80.8757 105.902C80.6471 106.378 80.2544 106.813 79.6153 106.837C78.0609 106.896 76.7447 105.989 75.8207 104.993L76.0354 103.659L80.6305 104.398ZM81.2562 105.165C81.2501 105.164 81.244 105.163 81.238 105.162C81.2438 105.163 81.2499 105.164 81.2562 105.165Z" fill="#333333"/>
<path d="M74.7748 110.252L75.6108 105.057C78.9459 105.86 80.7849 105.335 81.2875 104.971C82.6423 105.522 85.9804 106.859 88.4944 107.797C91.0085 108.734 90.8209 111.28 90.4128 112.436L74.7748 110.252Z" fill="#333333"/>
<path fill-rule="evenodd" clip-rule="evenodd" d="M81.1733 104.811C81.2284 104.771 81.3002 104.762 81.3632 104.788C82.7174 105.339 86.0534 106.675 88.5647 107.611C89.8892 108.105 90.5124 109.032 90.7426 109.988C90.9699 110.931 90.8137 111.896 90.6002 112.501C90.569 112.589 90.4798 112.644 90.3869 112.631L74.7489 110.447C74.6964 110.44 74.649 110.412 74.6175 110.369C74.586 110.327 74.5729 110.273 74.5814 110.221L75.4174 105.025C75.4261 104.971 75.4571 104.923 75.5028 104.892C75.5486 104.862 75.605 104.852 75.6584 104.865C77.3087 105.262 78.5811 105.329 79.4967 105.255C80.4198 105.179 80.9638 104.962 81.1733 104.811ZM81.3101 105.193C80.9871 105.385 80.3922 105.578 79.5287 105.648C78.6053 105.723 77.3591 105.66 75.7734 105.297L75.003 110.084L90.2779 112.217C90.4449 111.663 90.5463 110.858 90.3589 110.08C90.1564 109.239 89.6165 108.425 88.4268 107.981C85.9674 107.064 82.7216 105.766 81.3101 105.193Z" fill="#333333"/>
<path d="M66.0764 21.3306C64.432 23.3039 59.8278 21.9809 58.8412 21.2135L57.8544 17.5994C57.4159 15.7357 56.6704 11.0876 57.1966 7.40411C57.8544 2.79979 65.2467 5.25894 67.0632 7.07529C68.7076 8.71962 70.2422 11.7892 71.6673 13.3239H70.3518C70.6149 13.8501 70.4614 15.2972 70.3518 15.955C70.2422 16.832 70.9439 18.3229 69.3653 18.586C68.2139 18.7779 66.6425 18.2233 65.7487 17.6113L66.0764 21.3306Z" fill="#805928"/>
<path fill-rule="evenodd" clip-rule="evenodd" d="M64.924 5.53181C65.8933 5.95038 66.7215 6.45659 67.2008 6.93581C68.0397 7.77467 68.8452 8.97075 69.6103 10.1322C69.6675 10.2189 69.7244 10.3054 69.781 10.3916C70.4901 11.4698 71.1632 12.4931 71.81 13.1897C71.8634 13.2472 71.8777 13.3309 71.8463 13.4029C71.8149 13.4748 71.7439 13.5213 71.6654 13.5213H70.6232C70.6463 13.6238 70.6621 13.7338 70.6727 13.8459C70.6948 14.0776 70.6966 14.3377 70.6869 14.5976C70.6674 15.1153 70.601 15.6478 70.5452 15.9833C70.5218 16.1761 70.5419 16.4095 70.5679 16.6802C70.5689 16.6908 70.57 16.7015 70.571 16.7122C70.5956 16.9666 70.6228 17.2484 70.6044 17.5144C70.5851 17.7939 70.5145 18.0787 70.32 18.3132C70.1237 18.55 69.823 18.7095 69.3958 18.7807C68.7797 18.8834 68.0668 18.7852 67.4027 18.5895C66.8883 18.4378 66.392 18.2243 65.9781 17.988L66.2782 21.3944L66.226 21.457C65.7776 21.995 65.1355 22.2986 64.4293 22.4459C63.7232 22.5932 62.9397 22.5874 62.1864 22.4957C61.432 22.404 60.6994 22.2251 60.0917 22.0201C59.4895 21.8169 58.9914 21.5819 58.7181 21.3693L58.6662 21.329L57.6603 17.6446C57.2196 15.7717 56.468 11.0955 56.9994 7.37626C57.1729 6.16144 57.7984 5.39454 58.6734 4.97684C59.5352 4.5654 60.6207 4.50077 61.7177 4.63617C62.818 4.77199 63.9511 5.11168 64.924 5.53181ZM65.8044 17.411C65.511 17.2025 65.3313 17.0088 65.2692 16.8639C65.2263 16.7638 65.1103 16.7174 65.0101 16.7603C64.9099 16.8032 64.8635 16.9192 64.9064 17.0194C65.01 17.2611 65.2554 17.5025 65.5583 17.7202L65.8705 21.2647C65.4986 21.6774 64.9694 21.9301 64.3487 22.0596C63.6981 22.1953 62.9606 22.1923 62.234 22.104C61.5085 22.0157 60.8023 21.8433 60.2178 21.6461C59.6704 21.4614 59.2458 21.2603 59.0116 21.0956L58.0437 17.5508C57.6073 15.6943 56.8693 11.0775 57.39 7.43207C57.5454 6.34473 58.0906 5.6924 58.8434 5.33299C59.6094 4.96732 60.6088 4.89695 61.6693 5.02785C62.7263 5.15832 63.823 5.48621 64.7676 5.89413C65.7158 6.30362 66.4928 6.78593 66.9217 7.21488C67.7272 8.02035 68.5112 9.18122 69.2808 10.3493C69.3396 10.4386 69.3984 10.528 69.4571 10.6172C70.058 11.5312 70.6509 12.433 71.2298 13.1267H70.0306L70.1734 13.4122C70.2227 13.5108 70.2597 13.6706 70.2799 13.8833C70.2996 14.0915 70.3019 14.3329 70.2925 14.5828C70.2737 15.0824 70.209 15.6001 70.1552 15.9226L70.1541 15.9306C70.1235 16.1756 70.1499 16.4561 70.1751 16.718L70.1769 16.7365C70.2024 17.0016 70.2267 17.2545 70.2107 17.4872C70.1944 17.7229 70.1376 17.9149 70.0162 18.0614C69.8967 18.2055 69.6931 18.3311 69.331 18.3914C68.7957 18.4806 68.1472 18.3975 67.5143 18.2109C66.9038 18.031 66.3252 17.7599 65.9007 17.4772C65.8761 17.4462 65.8426 17.4229 65.8044 17.411Z" fill="#333333"/>
<path d="M56.029 90.6075C56.4676 87.2091 57.2789 78.5047 57.0158 70.8747C56.8915 67.2697 57.4965 63.425 58.3312 60.0133C58.9852 57.3401 59.7803 54.9329 60.4762 53.1152C60.7719 52.3427 61.0498 51.6766 61.2913 51.1419C67.5398 51.4708 72.473 51.4708 76.7485 50.1553C77.1077 50.5583 77.4972 50.9992 77.911 51.4708C79.4668 53.2437 81.3669 55.4516 83.2969 57.7195C87.2776 62.3971 91.3857 67.3302 92.8636 69.2303C95.1657 72.1902 94.8368 73.1769 94.8368 75.1501C94.8368 77.8333 87.3822 96.3081 85.9571 105.078C85.9571 105.078 83.0069 105.271 80.695 105.078C78.3832 104.886 75.1041 103.763 75.1041 103.763C76.9458 85.3454 83.1068 78.2197 83.6549 78.1101C79.4453 74.6897 74.3554 69.9977 72.5011 66.9281C71.8153 74.4924 69.4254 83.8031 68.5265 91.5941C67.7372 98.4348 66.1147 110.56 64.9088 117.905C64.9088 117.905 61.0361 118.233 58.6601 118.233C56.284 118.233 52.7402 117.905 52.7402 117.905L56.029 90.6075Z" fill="#00A9CD"/>
<path fill-rule="evenodd" clip-rule="evenodd" d="M76.6885 49.9667C76.7623 49.944 76.8425 49.9664 76.8939 50.024C77.2535 50.4275 77.6433 50.8688 78.0575 51.3407C79.6141 53.1147 81.5149 55.3233 83.4453 57.5917C87.4256 62.2688 91.5365 67.2052 93.0174 69.1092C94.1766 70.5996 94.6887 71.6122 94.9036 72.5146C95.068 73.2051 95.0551 73.8283 95.0408 74.52C95.0366 74.723 95.0323 74.9319 95.0323 75.1502C95.0323 75.5151 94.9085 76.1211 94.7026 76.8974C94.4947 77.6814 94.1967 78.6612 93.8358 79.7854C93.3049 81.4391 92.6358 83.4118 91.913 85.5426C91.6531 86.3087 91.3863 87.0952 91.1165 87.8947C89.073 93.95 86.8594 100.744 86.15 105.11C86.1352 105.201 86.0598 105.269 85.9681 105.275L85.9592 105.276L85.9336 105.277C85.9112 105.279 85.8781 105.281 85.8352 105.283C85.7495 105.288 85.6246 105.295 85.4676 105.302C85.1536 105.318 84.7109 105.336 84.1957 105.348C83.1666 105.372 81.843 105.372 80.6767 105.275C79.502 105.177 78.0898 104.844 76.9784 104.539C76.4212 104.385 75.9366 104.238 75.5913 104.129C75.4186 104.075 75.2807 104.03 75.1857 103.999C75.1383 103.983 75.1016 103.971 75.0766 103.962L75.0482 103.953L75.0409 103.95L75.039 103.95L75.0383 103.949C75.0383 103.949 75.0383 103.949 75.0532 103.906L75.0383 103.949C74.9516 103.92 74.8967 103.834 74.9058 103.743C75.8286 94.5153 77.8342 88.1086 79.6827 83.9903C80.6068 81.9314 81.4919 80.4437 82.1833 79.4611C82.5289 78.9701 82.8273 78.6034 83.0593 78.354C83.1578 78.2482 83.246 78.1616 83.3222 78.0951C81.269 76.418 79.0244 74.4534 77.055 72.5287C75.2289 70.7442 73.6295 68.9848 72.6412 67.5162C72.275 71.1604 71.5414 75.1784 70.7858 79.2125C70.7333 79.4925 70.6808 79.7725 70.6282 80.0525C69.8832 84.0229 69.1396 87.9859 68.7206 91.6168C67.931 98.4597 66.3082 110.588 65.1016 117.937C65.087 118.026 65.0136 118.094 64.9235 118.101L64.9228 118.101L64.8792 118.105L64.7519 118.115C64.6411 118.124 64.4802 118.137 64.2798 118.153C63.879 118.184 63.3199 118.225 62.6864 118.266C61.4206 118.348 59.853 118.431 58.6582 118.431C57.4631 118.431 55.9775 118.348 54.7936 118.266C54.201 118.225 53.6828 118.183 53.3128 118.153C53.1277 118.137 52.9797 118.124 52.8778 118.115L52.7609 118.105L52.7228 118.101L52.7208 118.101L52.7383 117.905L52.7201 118.101C52.6671 118.096 52.6183 118.07 52.5848 118.029C52.5513 117.987 52.5361 117.934 52.5424 117.881L55.8312 90.5839L55.8314 90.5823C56.2692 87.1898 57.0793 78.497 56.8167 70.8816C56.6916 67.2521 57.3005 63.388 58.1376 59.9665C58.7938 57.2845 59.5915 54.8693 60.29 53.0447C60.5869 52.2692 60.8662 51.5995 61.1095 51.0608C61.143 50.9866 61.2185 50.9407 61.2997 50.9449C67.5493 51.2739 72.4503 51.2708 76.6885 49.9667ZM52.9586 117.726C53.0565 117.735 53.1875 117.746 53.3456 117.759C53.7143 117.79 54.2305 117.831 54.8209 117.872C56.0029 117.954 57.4772 118.036 58.6582 118.036C59.8394 118.036 61.3962 117.954 62.6608 117.872C63.2924 117.831 63.8499 117.79 64.2495 117.759C64.4493 117.744 64.6096 117.731 64.7199 117.722L64.7371 117.721C65.9397 110.365 67.5449 98.3631 68.3285 91.5716C68.7492 87.9261 69.4953 83.9499 70.2397 79.9834C70.2924 79.7021 70.3452 79.4209 70.3979 79.1398C71.1929 74.8953 71.9593 70.6895 72.3018 66.921C72.2738 65.2907 72.2457 64.6438 71.9481 63.0172C71.9285 62.91 71.9995 62.8072 72.1067 62.7875C72.214 62.7679 72.3168 62.8389 72.3364 62.9461C72.6364 64.5868 72.6677 65.2595 72.6956 66.8714C73.6158 68.3765 75.3224 70.2838 77.3308 72.2465C79.356 74.2256 81.6762 76.2497 83.7775 77.957C83.8368 78.0052 83.863 78.0833 83.8446 78.1575C83.8272 78.2279 83.7726 78.2828 83.703 78.301C83.7006 78.3023 83.6962 78.3047 83.6896 78.3087C83.6719 78.3197 83.6464 78.3381 83.6128 78.3659C83.5459 78.4214 83.457 78.506 83.3483 78.6229C83.1313 78.8561 82.844 79.208 82.5061 79.6882C81.8306 80.6481 80.9576 82.1135 80.0427 84.1519C78.2236 88.2049 76.2402 94.5205 75.3143 103.626C75.4076 103.656 75.5421 103.7 75.71 103.753C76.0517 103.861 76.5315 104.006 77.083 104.158C78.1891 104.462 79.5725 104.787 80.7095 104.882C81.8551 104.977 83.1625 104.977 84.1865 104.953C84.6978 104.941 85.1372 104.923 85.4486 104.908C85.5888 104.902 85.7031 104.895 85.7862 104.891C86.5284 100.482 88.7263 93.743 90.7425 87.7685C91.013 86.9672 91.2801 86.1795 91.5402 85.4128C92.2626 83.2832 92.9302 81.3151 93.46 79.6648C93.8203 78.5427 94.1158 77.5704 94.3211 76.7962C94.5285 76.0144 94.6376 75.4561 94.6376 75.1502C94.6376 74.912 94.6421 74.6911 94.6463 74.4817C94.6601 73.802 94.6714 73.2431 94.5197 72.606C94.3234 71.7817 93.8489 70.821 92.7059 69.3515C91.2384 67.4647 87.1659 62.5737 83.2032 57.9161C81.4513 57.8873 79.6147 57.0381 78.0384 56.0043C76.4825 54.9839 75.1551 53.767 74.3753 52.9223C72.2286 53.3797 69.7284 53.5672 67.3567 53.6032C66.4137 56.7059 64.7336 58.4674 62.9938 59.3982C61.3275 60.2896 59.619 60.4122 58.4776 60.2388C57.6679 63.5956 57.0898 67.3501 57.2111 70.868C57.4747 78.5119 56.6623 87.227 56.223 90.632C56.2229 90.6322 56.2229 90.6325 56.2228 90.6328L52.9586 117.726ZM58.5719 59.8538C59.6365 60.0078 61.24 59.8888 62.8076 59.0502C64.4268 58.184 66.0212 56.543 66.9422 53.608C64.4884 53.6276 62.1962 53.4904 60.6047 53.3273C59.9426 55.073 59.1968 57.3405 58.5719 59.8538ZM60.7514 52.9455C62.3828 53.1083 64.7221 53.2421 67.2066 53.2106C69.6492 53.1797 72.2241 52.9891 74.4022 52.5128C75.6331 52.2435 76.7287 51.8848 77.5998 51.4177C77.2775 51.051 76.971 50.7042 76.6832 50.3809C72.4301 51.6614 67.5399 51.6648 61.4141 51.3461C61.2135 51.7967 60.9892 52.3343 60.7514 52.9455ZM77.8667 51.7217C77.0189 52.1897 75.9757 52.5488 74.8224 52.8219C75.5981 53.6347 76.8293 54.7394 78.2548 55.6743C79.697 56.6201 81.3161 57.3776 82.8521 57.5037C81.0672 55.4088 79.3221 53.382 77.8667 51.7217Z" fill="#009ED0"/>
<path d="M86.6136 46.8662C84.3114 40.6175 83.6536 37.6576 81.3515 32.3955C79.3782 32.9436 75.4316 34.4346 75.4316 36.0132C75.4316 36.9331 77.4049 42.5908 81.3515 48.1817C83.4524 52.2181 85.0125 56.436 86.6136 59.3636C85.6269 61.3369 86.9424 66.2701 86.9424 66.599C86.9424 66.9279 87.6002 66.599 87.9291 65.9412C88.1922 65.415 87.6002 63.968 87.9291 62.6524C88.0387 64.1872 88.8313 66.9557 89.7901 67.9145C90.1068 68.2312 90.7523 68.2316 91.1056 68.2434C91.4863 68.2561 91.5806 68.2556 92.0923 67.9145C92.4702 67.6626 92.7125 67.5011 92.8623 67.2568C93.0253 66.9909 92.8623 65.9691 92.8623 65.2835C91.5467 59.7583 90.2312 59.5829 89.2446 57.7192C88.5868 52.1283 87.0773 48.1251 86.6136 46.8662Z" fill="#805928"/>
<path fill-rule="evenodd" clip-rule="evenodd" d="M81.2987 32.2055C81.3934 32.1792 81.4929 32.2265 81.5323 32.3165C82.9552 35.5689 83.7544 37.9526 84.6977 40.7666C85.282 42.5093 85.9215 44.4169 86.7988 46.7981C86.8092 46.8264 86.8202 46.8561 86.8316 46.8871C87.3304 48.2389 88.7883 52.1897 89.4363 57.6593C89.6957 58.1418 89.9859 58.5147 90.2975 58.915C91.1236 59.9765 92.1004 61.2314 93.0543 65.2379C93.0579 65.2528 93.0597 65.2682 93.0597 65.2836C93.0597 65.5086 93.0775 65.7665 93.0956 66.0287C93.1045 66.1582 93.1135 66.2887 93.1205 66.4169C93.1308 66.6056 93.1364 66.7883 93.1282 66.9432C93.1205 67.0873 93.0999 67.2469 93.0305 67.36C92.8578 67.6417 92.5825 67.8251 92.2298 68.0602L92.2018 68.0788C91.9465 68.249 91.7734 68.3499 91.6074 68.4005C91.4382 68.452 91.2885 68.447 91.1063 68.441L91.0991 68.4407C91.0793 68.4401 91.0583 68.4394 91.0361 68.4388C90.8669 68.4337 90.6325 68.4268 90.4015 68.388C90.1443 68.3448 89.8533 68.2568 89.6507 68.0541C89.1361 67.5396 88.6867 66.5687 88.3538 65.5615C88.2742 65.3206 88.2006 65.0754 88.1338 64.8309C88.1588 65.0265 88.1813 65.2132 88.1909 65.379C88.2044 65.6118 88.1966 65.8476 88.1056 66.0296C87.9253 66.3903 87.6534 66.6658 87.414 66.8094C87.3004 66.8776 87.1641 66.9342 87.0353 66.9243C86.9645 66.9189 86.8841 66.8918 86.8232 66.8225C86.7635 66.7546 86.7452 66.6718 86.7452 66.5991C86.7452 66.6002 86.7452 66.6002 86.7451 66.5989C86.7449 66.5967 86.7444 66.5909 86.743 66.5803C86.7411 66.565 86.7379 66.5447 86.7335 66.5187C86.7246 66.4669 86.7114 66.3982 86.6944 66.3134C86.6795 66.2388 86.6619 66.153 86.6422 66.0569L86.6343 66.0179C86.6114 65.906 86.5859 65.7814 86.5589 65.646C86.4506 65.1048 86.3161 64.391 86.2125 63.6245C86.109 62.8588 86.0358 62.0357 86.0515 61.2764C86.0662 60.5655 86.159 59.8912 86.3924 59.37C85.61 57.9262 84.8371 56.1815 84.01 54.3145L83.9896 54.2685C83.1382 52.3465 82.2272 50.2928 81.1826 48.2847C79.2045 45.4805 77.7209 42.661 76.7312 40.4258C76.2357 39.3067 75.8633 38.3325 75.6143 37.5783C75.4899 37.2014 75.3957 36.8778 75.3325 36.6176C75.2704 36.3622 75.2344 36.1536 75.2344 36.0133C75.2344 35.5355 75.5308 35.0971 75.9453 34.7142C76.3646 34.3267 76.9371 33.9658 77.5609 33.6428C78.81 32.996 80.3038 32.4819 81.2987 32.2055ZM76.2131 35.0041C75.8259 35.3618 75.629 35.7018 75.629 36.0133C75.629 36.103 75.6547 36.2724 75.7159 36.5243C75.776 36.7714 75.8669 37.0844 75.9891 37.4546C76.2334 38.1947 76.601 39.1568 77.0921 40.266C78.0744 42.4845 79.5482 45.2849 81.5127 48.068C81.5179 48.0753 81.5225 48.0829 81.5266 48.0907C82.5803 50.1153 83.498 52.1844 84.3504 54.1086L84.3658 54.1434C85.2137 56.0574 85.9958 57.8228 86.7867 59.2691C86.8178 59.3258 86.819 59.3941 86.7901 59.452C86.5631 59.9059 86.4613 60.549 86.446 61.2846C86.4309 62.0155 86.5015 62.8163 86.6036 63.5716C86.7056 64.3262 86.8383 65.0307 86.9459 65.5686C86.9727 65.7031 86.998 65.827 87.0209 65.9388C87.0438 66.0504 87.0643 66.1504 87.0814 66.236C87.0985 66.3214 87.1126 66.3944 87.1224 66.4519C87.1258 66.4716 87.1292 66.4919 87.132 66.5117C87.1548 66.5022 87.1813 66.4888 87.211 66.471C87.3827 66.368 87.6041 66.1501 87.7526 65.8531C87.7932 65.772 87.8101 65.6295 87.7969 65.4019C87.7867 65.2262 87.761 65.0259 87.7319 64.7998C87.7243 64.7408 87.7165 64.68 87.7087 64.6174C87.6347 64.0255 87.5634 63.3018 87.7377 62.6047C87.7612 62.5106 87.8496 62.4475 87.9462 62.456C88.0429 62.4644 88.1191 62.5417 88.126 62.6385C88.1793 63.3858 88.4006 64.4453 88.7286 65.4376C89.0591 66.4381 89.4855 67.3308 89.9297 67.7751C90.0438 67.8891 90.2338 67.9596 90.4669 67.9988C90.5864 68.0189 90.7073 68.0293 90.8215 68.0355L89.3878 64.0346C89.351 63.932 89.4044 63.8191 89.507 63.7823C89.6096 63.7455 89.7225 63.7989 89.7593 63.9015L91.2459 68.0497C91.3536 68.0508 91.4195 68.0452 91.4924 68.023C91.579 67.9966 91.6833 67.9439 91.8632 67.8288L90.6991 63.6926C90.6696 63.5877 90.7307 63.4788 90.8356 63.4492C90.9405 63.4197 91.0495 63.4808 91.079 63.5857L92.2083 67.5984C92.4151 67.456 92.5495 67.3497 92.6441 67.2263L91.3596 63.3727C91.3251 63.2693 91.381 63.1576 91.4844 63.1231C91.5878 63.0886 91.6996 63.1445 91.734 63.2479L92.71 66.1758C92.7077 66.1424 92.7054 66.1087 92.7031 66.0749C92.6851 65.8134 92.6663 65.5405 92.6651 65.307C91.734 61.4064 90.8251 60.2409 90.0093 59.1946C89.6795 58.7717 89.365 58.3683 89.0703 57.8117C89.0588 57.7901 89.0515 57.7666 89.0487 57.7424C88.4084 52.3002 86.9579 48.3693 86.4612 47.0233C86.4498 46.9923 86.4388 46.9627 86.4285 46.9345C85.5417 44.5276 84.9 42.6127 84.3158 40.8695C83.3931 38.1163 82.6139 35.7914 81.2396 32.6324C80.2664 32.9131 78.8933 33.3973 77.7424 33.9932C77.1329 34.3088 76.5954 34.6508 76.2131 35.0041Z" fill="#333333"/>
<path d="M66.2228 20.2275C69.8405 20.2266 71.4849 20.5564 74.116 21.8719C76.747 23.1874 80.8909 27.3975 81.6802 32.3963C81.0224 33.1142 79.2465 34.5647 77.4048 34.6242C77.504 35.1404 78.0625 38.316 77.7336 42.2626C77.4048 46.2091 76.747 49.827 76.747 49.827C73.0635 51.1426 64.9073 51.0328 61.2896 50.8134C58.6586 44.8936 57.0793 42.4563 57.4653 37.9873C53.0904 37.9873 50.0796 35.5755 49.1211 34.3696C49.3842 31.7385 50.8161 29.4364 51.4233 28.4497C54.0543 24.1743 58.2349 21.2142 58.9875 21.2142C58.9875 21.2142 60.9608 22.2008 62.934 22.2008C64.9073 22.2008 66.2228 20.2275 66.2228 20.2275Z" fill="#016D33"/>
<path fill-rule="evenodd" clip-rule="evenodd" d="M70.5794 20.3629C71.7936 20.6142 72.8791 21.0329 74.2043 21.6955C75.5512 22.3689 77.2663 23.7714 78.7433 25.6302C80.2214 27.4904 81.4738 29.8234 81.8752 32.3656C81.8845 32.4249 81.8663 32.4853 81.8257 32.5297C81.4848 32.9017 80.8621 33.4559 80.089 33.9258C79.3779 34.3581 78.5255 34.7276 77.6387 34.8075C77.7984 35.7268 78.2298 38.6851 77.9303 42.279C77.7654 44.2577 77.5182 46.1532 77.3123 47.5535C77.2093 48.2538 77.1166 48.8306 77.0496 49.2325C77.0161 49.4334 76.9891 49.5907 76.9703 49.6978C76.961 49.7513 76.9537 49.7923 76.9488 49.82L76.9432 49.8515L76.9417 49.8595L76.9413 49.8615L76.9412 49.8622C76.9286 49.9316 76.8799 49.9891 76.8134 50.0128C74.9402 50.6819 71.9527 50.9834 69.001 51.093C66.0419 51.2029 63.0919 51.1204 61.2777 51.0104C61.2042 51.0059 61.1392 50.9609 61.1093 50.8936C60.6941 49.9594 60.3042 49.1105 59.9435 48.3253C58.0651 44.2358 56.9803 41.8743 57.2518 38.1827C52.9214 38.1061 49.9395 35.7162 48.9667 34.4924C48.9347 34.4522 48.9197 34.4011 48.9248 34.35C49.1896 31.7018 50.6134 29.389 51.2321 28.384C51.2399 28.3713 51.2477 28.3587 51.2553 28.3464C52.5837 26.1877 54.3011 24.364 55.7805 23.0797C56.5204 22.4374 57.2034 21.9277 57.7519 21.5773C58.0258 21.4022 58.2691 21.2651 58.471 21.1709C58.6638 21.081 58.8461 21.0169 58.9875 21.0169M58.9503 21.4154C58.9624 21.4212 58.9766 21.4279 58.9927 21.4354C59.0523 21.4632 59.139 21.5026 59.249 21.5498C59.4689 21.644 59.7824 21.7694 60.1584 21.8947C60.9083 22.1447 61.9176 22.3982 62.9341 22.3982C63.9874 22.3982 64.854 21.8723 65.4469 21.3641C65.7449 21.1086 65.9787 20.8536 66.1381 20.6623C66.2179 20.5665 66.2794 20.4863 66.3212 20.4296C66.3224 20.428 66.3235 20.4265 66.3246 20.425C68.0762 20.4276 69.349 20.5112 70.4994 20.7493C71.6696 20.9915 72.7219 21.3955 74.0278 22.0484C75.3119 22.6905 76.9843 24.0508 78.4343 25.8757C79.8645 27.6756 81.0661 29.912 81.4699 32.3323C81.1406 32.677 80.576 33.1679 79.884 33.5886C79.1903 34.0103 78.3831 34.3524 77.566 34.4176C77.0943 31.9677 76.8555 30.7922 76.7344 30.2294C76.6728 29.943 76.6408 29.811 76.6235 29.7495C76.6191 29.7339 76.6149 29.72 76.6106 29.708L76.6104 29.7073C76.6083 29.7013 76.5984 29.6729 76.5786 29.6461C76.5721 29.6374 76.5579 29.6195 76.5346 29.6027C76.5113 29.586 76.4621 29.5589 76.3954 29.5669C76.3264 29.5752 76.2832 29.6156 76.2625 29.6424C76.2431 29.6675 76.2344 29.6914 76.2309 29.7021C76.2236 29.7245 76.222 29.7431 76.2216 29.7481C76.2212 29.7522 76.2211 29.7558 76.221 29.7584L76.2209 29.7622L76.2209 29.7638L76.2208 29.7646C76.2208 29.7649 76.2208 29.7653 76.4182 29.7653H76.2208C76.2208 29.799 76.2293 29.8307 76.2442 29.8585C76.258 29.9078 76.2877 30.0291 76.3486 30.3123C76.4714 30.8835 76.7177 32.0964 77.211 34.6615C77.3085 35.1682 77.8639 38.3243 77.537 42.2462C77.3731 44.214 77.127 46.1008 76.9218 47.496C76.8192 48.1935 76.7269 48.7678 76.6603 49.1676C76.627 49.3675 76.6001 49.5237 76.5816 49.6299C76.5785 49.6476 76.5756 49.6639 76.573 49.6788C74.7556 50.2994 71.8802 50.5912 68.9864 50.6986C66.1062 50.8056 63.2331 50.7293 61.4211 50.6236C61.019 49.7207 60.6426 48.9005 60.295 48.143C58.3839 43.9785 57.342 41.7082 57.662 38.0043C57.7161 37.3782 57.787 36.7257 57.868 36.0369C57.8807 35.9287 57.8033 35.8306 57.6951 35.8179C57.5869 35.8051 57.4888 35.8826 57.4761 35.9908C57.4026 36.6155 57.3371 37.2127 57.2849 37.7886C53.153 37.7247 50.2933 35.4797 49.3259 34.3089C49.6022 31.7851 50.9639 29.5727 51.5748 28.5801L51.5914 28.5532C52.894 26.4364 54.5824 24.6424 56.0392 23.3777C56.7674 22.7456 57.4351 22.248 57.9644 21.9098C58.2293 21.7406 58.4567 21.613 58.6378 21.5286C58.7888 21.4582 58.8912 21.4258 58.9503 21.4154ZM66.0587 20.1181C66.0953 20.0633 66.1568 20.0303 66.2228 20.0303C68.0363 20.0298 69.3676 20.112 70.5794 20.3629M59.0758 21.0377C59.0758 21.0377 59.0758 21.0377 59.0758 21.0377L59.0767 21.0382L59.0804 21.04L59.0961 21.0477C59.1103 21.0545 59.1316 21.0647 59.1596 21.0778C59.2157 21.104 59.2986 21.1417 59.4044 21.187C59.6162 21.2778 59.9194 21.3991 60.2832 21.5203C61.0134 21.7637 61.9773 22.0035 62.9341 22.0035C63.8541 22.0035 64.6319 21.5428 65.19 21.0644C65.4675 20.8265 65.686 20.5883 65.8349 20.4096C65.9092 20.3204 65.9659 20.2464 66.0037 20.1952C66.0226 20.1696 66.0367 20.1498 66.0459 20.1366L66.0561 20.122L66.0587 20.1181" fill="#035E2D"/>
<path d="M70.1963 4.04786C69.1439 6.15269 66.6882 7.77517 65.2631 7.33666C62.6324 13.9142 62.24 11.7374 61.0342 13.2722C60.5957 12.6144 59.3898 11.6278 58.4036 12.6144C57.7329 13.2853 58.7324 14.3684 59.3902 14.9165C59.3902 14.9165 62.8464 26.7132 61.618 28.1198C59.9357 30.0464 57.0137 30.7509 54.7115 30.7509C52.4771 30.7509 50.1167 31.4916 48.7092 32.0664C46.4376 32.9941 48.388 28.7776 48.0589 27.1332C47.4741 24.2121 48.7918 24.5021 48.4629 22.2C46.8184 17.2668 48.7092 18.9112 48.4629 15.6224C48.2759 13.1247 50.9648 12.3367 51.0112 9.70593C51.0331 8.468 50.6824 6.41713 52.3269 4.77273C54.9579 2.73234 54.9578 0.4973 58.5755 0.826165C61.1336 1.05871 64.0569 -0.489445 65.8109 0.497293C67.7839 1.484 71.2487 1.94303 70.1963 4.04786Z" fill="#333333"/>
<path fill-rule="evenodd" clip-rule="evenodd" d="M65.8884 0.352339C66.3637 0.589692 66.9293 0.796943 67.5072 1.00868L67.5335 1.01832C68.1172 1.23222 68.7122 1.45124 69.2133 1.70722C69.7112 1.96152 70.1426 2.26483 70.3748 2.66112C70.6157 3.07243 70.6267 3.5558 70.3437 4.12178C69.8034 5.20245 68.9058 6.15523 67.9609 6.78334C67.0822 7.36738 66.1254 7.69406 65.3623 7.53229C64.0812 10.7145 63.3251 11.83 62.7185 12.3234C62.4698 12.5257 62.2442 12.6231 62.0451 12.7091C61.9962 12.7303 61.9489 12.7507 61.9032 12.7718C61.6757 12.8771 61.447 13.0138 61.1639 13.3741C61.1313 13.4156 61.0809 13.4389 61.0282 13.4369C60.9755 13.4348 60.927 13.4076 60.8978 13.3638C60.6916 13.0545 60.3033 12.6682 59.8599 12.4782C59.6404 12.3841 59.414 12.3408 59.192 12.3717C58.9721 12.4023 58.7439 12.5073 58.5202 12.731C58.387 12.8643 58.3393 13.012 58.3469 13.1727C58.3549 13.3403 58.4239 13.5292 58.5409 13.7287C58.7751 14.1279 59.1728 14.5214 59.4958 14.7906C59.5209 14.8115 59.5392 14.8394 59.5484 14.8707L59.3906 14.9169C59.5484 14.8707 59.5483 14.8706 59.5484 14.8707L59.5583 14.9049L59.5871 15.0042C59.6122 15.0912 59.6488 15.2188 59.6949 15.3818C59.7872 15.7076 59.9175 16.1745 60.0701 16.7392C60.3753 17.8684 60.7696 19.3892 61.1255 20.9546C61.4811 22.519 61.7996 24.1322 61.9519 25.4448C62.028 26.1006 62.0633 26.687 62.0396 27.1573C62.0277 27.3925 62.0009 27.6031 61.9551 27.7811C61.9096 27.9574 61.8426 28.1134 61.7423 28.2284C60.0147 30.2067 57.0351 30.9157 54.7119 30.9157C52.508 30.9157 50.1705 31.6478 48.7718 32.219C48.4758 32.3398 48.2233 32.3882 48.0137 32.3504C47.7916 32.3103 47.6392 32.1774 47.5481 31.9907C47.4615 31.8131 47.4304 31.5888 47.4279 31.3489C47.4254 31.1061 47.4521 30.8309 47.4932 30.5416C47.5402 30.2104 47.6091 29.8441 47.6778 29.4783C47.7273 29.2147 47.7768 28.9513 47.818 28.7018C47.9195 28.0875 47.9736 27.5437 47.898 27.1658C47.7496 26.4246 47.7203 25.8789 47.7581 25.44C47.7961 24.9995 47.9011 24.6743 48.0111 24.3777C48.0303 24.3259 48.0495 24.2755 48.0683 24.2258C48.1582 23.989 48.2418 23.7687 48.2954 23.4995C48.3588 23.1808 48.3801 22.7903 48.3026 22.2382C47.4834 19.7771 47.5277 18.9086 47.7854 18.2361C47.8341 18.1091 47.8904 17.9891 47.9452 17.8725C47.9599 17.8412 47.9744 17.8102 47.9887 17.7794C48.0573 17.6311 48.1234 17.4785 48.1786 17.2965C48.2883 16.9347 48.3597 16.4419 48.2993 15.635C48.2005 14.3161 48.8679 13.4484 49.5203 12.6132L49.5421 12.5853C50.1926 11.7528 50.8253 10.9429 50.8472 9.7034C50.8503 9.52575 50.8451 9.32732 50.8394 9.11262C50.8066 7.87892 50.7596 6.10809 52.211 4.65683C52.2159 4.65195 52.2211 4.64739 52.2265 4.64317C52.8724 4.14226 53.3578 3.6288 53.7807 3.14163C53.9064 2.99679 54.0278 2.8528 54.1468 2.71161C54.4241 2.38264 54.6886 2.06879 54.9659 1.79446C55.3678 1.39693 55.809 1.06818 56.3883 0.862557C56.9664 0.657354 57.6698 0.579057 58.5908 0.662777C59.654 0.759427 60.782 0.541357 61.8857 0.327973C62.0798 0.290452 62.2732 0.253076 62.4653 0.217582C63.1014 0.100051 63.7234 0.00386322 64.2997 0.00104046C64.8754 -0.00177901 65.4171 0.0883056 65.8884 0.352339ZM59.2466 15.0107C58.918 14.7321 58.5096 14.3252 58.2573 13.8951C58.126 13.6714 58.0298 13.4295 58.0184 13.1882C58.0067 12.94 58.0855 12.7007 58.2876 12.4985C58.5571 12.229 58.8494 12.0873 59.1467 12.0459C59.4419 12.0049 59.7294 12.0644 59.9895 12.1759C60.4217 12.3611 60.7965 12.6974 61.0433 13.0065C61.305 12.7158 61.537 12.5789 61.7651 12.4734C61.8216 12.4472 61.876 12.4236 61.9291 12.4006C62.1231 12.3164 62.3006 12.2394 62.511 12.0683C63.0512 11.6289 63.794 10.5683 65.1108 7.27598C65.1426 7.1965 65.23 7.1547 65.3118 7.17987C65.9521 7.37689 66.8677 7.11502 67.7788 6.50944C68.6811 5.90973 69.5375 4.99886 70.0496 3.9747C70.2928 3.48826 70.2654 3.12494 70.091 2.82737C69.9079 2.51478 69.5471 2.247 69.0637 2.0001C68.5836 1.75487 68.0083 1.54258 67.4203 1.32712L67.3842 1.31389C66.8125 1.10442 66.2306 0.891221 65.7378 0.644743L65.7306 0.641159C65.3257 0.413379 64.8456 0.327251 64.3014 0.329916C63.7563 0.332586 63.1588 0.423889 62.525 0.540987C62.3388 0.575388 62.1494 0.612087 61.9576 0.649256C60.8563 0.862654 59.6749 1.09157 58.561 0.990307C57.6731 0.909594 57.0199 0.987353 56.4983 1.17249C55.9779 1.35721 55.5765 1.65308 55.1972 2.02826C54.9309 2.29172 54.6817 2.58745 54.4094 2.9105C54.2884 3.05415 54.1627 3.2032 54.029 3.35722C53.6007 3.85065 53.1018 4.37938 52.4363 4.89662C51.1013 6.23746 51.1396 7.84335 51.1691 9.07841C51.1744 9.3021 51.1795 9.51363 51.176 9.70921C51.1522 11.0595 50.4589 11.9465 49.818 12.7664C49.8051 12.7828 49.7923 12.7993 49.7795 12.8157C49.1226 13.6566 48.539 14.4318 48.6273 15.6105C48.69 16.448 48.6174 16.9829 48.4933 17.392C48.4316 17.5954 48.3582 17.7639 48.2872 17.9175C48.2712 17.9521 48.2555 17.9855 48.2401 18.0182C48.1862 18.1331 48.1365 18.2391 48.0925 18.3538C47.8781 18.9132 47.7988 19.6871 48.6193 22.1484C48.6224 22.1577 48.6247 22.1673 48.6261 22.1771C48.7105 22.7684 48.6902 23.2008 48.6179 23.5637C48.5585 23.8622 48.4638 24.1114 48.3734 24.3492C48.3551 24.3972 48.337 24.4447 48.3195 24.492C48.2143 24.7758 48.1201 25.0697 48.0858 25.4683C48.0513 25.8685 48.0765 26.382 48.2205 27.1013C48.3094 27.5456 48.2432 28.1455 48.1425 28.7554C48.0983 29.0228 48.0479 29.2907 47.9982 29.5544C47.9312 29.9101 47.8656 30.2583 47.8188 30.5878C47.7787 30.8703 47.7545 31.1268 47.7568 31.3454C47.7591 31.5668 47.7886 31.7335 47.8437 31.8465C47.8943 31.9502 47.9648 32.0074 48.0721 32.0268C48.192 32.0484 48.3754 32.0256 48.6474 31.9145C50.0637 31.3361 52.4468 30.5868 54.7119 30.5868C56.9931 30.5868 59.8574 29.8868 61.4945 28.012C61.5477 27.9511 61.5976 27.8502 61.6366 27.6991C61.675 27.5497 61.6999 27.3627 61.7111 27.1407C61.7335 26.6966 61.7004 26.1307 61.6252 25.4827C61.4749 24.1878 61.1596 22.5881 60.8048 21.0275C60.4502 19.4679 60.0571 17.9517 59.7527 16.825C59.6004 16.2618 59.4704 15.7961 59.3785 15.4714C59.3325 15.309 59.296 15.1818 59.2711 15.0953L59.2466 15.0107Z" fill="#333333"/>
<path d="M19.1113 24.1223C23.1412 16.6089 27.8213 12.3236 30.8012 10.9278L52.7592 24.3568C50.528 24.7163 44.7106 28.1581 39.2909 39.0497C33.8712 49.9413 25.3389 54.2514 21.7503 55.0451L2.45008 37.5522C7.08712 36.0779 15.5502 30.7617 19.1113 24.1223Z" fill="#69757B"/>
<path fill-rule="evenodd" clip-rule="evenodd" d="M30.6606 10.6302C30.7607 10.5833 30.8775 10.5898 30.9717 10.6475L52.9297 24.0764C53.0471 24.1482 53.1074 24.2856 53.0808 24.4206C53.0542 24.5556 52.9463 24.6598 52.8105 24.6817C51.7861 24.8467 49.8319 25.749 47.4449 27.9935C45.0669 30.2296 42.2796 33.7798 39.5842 39.1964C34.1199 50.1777 25.5051 54.5515 21.8202 55.3664C21.7161 55.3894 21.6073 55.3606 21.5283 55.289L2.22813 37.7961C2.14093 37.717 2.10261 37.5974 2.12763 37.4825C2.15265 37.3675 2.2372 37.2746 2.34935 37.239C4.62496 36.5155 7.8676 34.8378 10.9864 32.5108C14.1053 30.1837 17.0708 27.229 18.8204 23.9671C22.8695 16.4179 27.5938 12.0667 30.6606 10.6302ZM30.7813 11.302C27.8795 12.7343 23.3383 16.9354 19.4 24.278C17.5885 27.6555 14.5419 30.6786 11.3797 33.038C8.45004 35.2239 5.39578 36.8589 3.08459 37.6846L21.8426 54.6861C25.4295 53.8198 33.7028 49.5394 38.9953 38.9034C41.7197 33.4284 44.551 29.8119 46.9943 27.5143C48.9656 25.6607 50.698 24.6534 51.9266 24.234L30.7813 11.302Z" fill="#69757B"/>
<path d="M30.0325 11.5246L74.8756 39.1219C75.559 38.8503 75.615 38.1949 75.643 37.8672L30.7999 10.2699L30.0325 11.5246Z" fill="#C6CED1"/>
<path d="M47.4777 45.2222C47.8064 42.5913 48.6836 37.2197 49.4509 34.6983C52.7398 37.3293 56.3574 37.9871 56.3574 37.9871C56.3574 37.9871 55.1516 43.4684 54.713 45.2224C56.6863 42.9203 64.9084 36.6712 65.895 35.6846C66.6843 34.8953 68.1972 32.3959 69.5127 31.7382C69.5127 31.7382 70.1705 31.4092 71.1571 32.3961C71.4776 32.7167 71.8646 33.05 72.1438 33.3827C72.5444 33.8601 72.6254 33.8605 72.8015 34.3693C73.0042 34.9549 73.2633 35.2857 73.1304 35.6846C72.8015 36.6716 72.1438 37.0823 71.8149 37.329C70.7625 38.1183 70.4994 38.3156 68.5261 39.3023C68.5261 39.3023 64.2506 44.2356 61.6196 46.5378C57.7957 49.8836 55.1391 51.6449 51.7531 52.1286C49.451 52.4574 48.1353 52.1286 47.4777 50.4844C47.149 49.1688 47.1841 47.5719 47.4777 45.2222Z" fill="#805928"/>
<path fill-rule="evenodd" clip-rule="evenodd" d="M69.9909 31.5018C70.3288 31.5501 70.7774 31.7392 71.2947 32.2567C71.3926 32.3546 71.5013 32.4577 71.6132 32.564C71.849 32.7877 72.0992 33.025 72.2929 33.2559C72.3816 33.3616 72.4541 33.4432 72.5168 33.5138L72.5364 33.5358C72.6024 33.6102 72.661 33.6768 72.7128 33.7461C72.8221 33.8921 72.8945 34.0405 72.986 34.3048C73.0343 34.4446 73.0864 34.57 73.1368 34.6888C73.143 34.7035 73.1492 34.7181 73.1554 34.7328C73.1987 34.8344 73.2414 34.9347 73.2756 35.0306C73.3556 35.2545 73.4023 35.487 73.3156 35.747C72.9942 36.7115 72.3719 37.1651 72.021 37.4209C71.9887 37.4445 71.9586 37.4664 71.9313 37.4869C70.8747 38.2794 70.5983 38.4851 68.6474 39.4613L68.6242 39.4879C68.5922 39.5247 68.5449 39.5789 68.4837 39.6488C68.3614 39.7884 68.1839 39.9905 67.9626 40.24C67.5201 40.7391 66.9026 41.4287 66.2028 42.1903C64.8049 43.7115 63.072 45.5275 61.7476 46.6863C57.9192 50.0361 55.2256 51.8316 51.7791 52.324C50.6202 52.4895 49.6765 52.4955 48.9312 52.2325C48.1706 51.9641 47.6391 51.4241 47.2926 50.5577C47.2893 50.5494 47.2865 50.5409 47.2844 50.5323C46.9462 49.1791 46.9859 47.5513 47.28 45.1978C47.6089 42.5658 48.4876 37.1797 49.2603 34.6409C49.2793 34.5783 49.3282 34.5292 49.3907 34.5099C49.4532 34.4905 49.5212 34.5034 49.5723 34.5443C51.196 35.8432 52.9027 36.6563 54.2049 37.1446C54.8555 37.3886 55.4041 37.5511 55.7891 37.6524C55.9816 37.7031 56.1331 37.7384 56.236 37.761C56.2874 37.7723 56.3267 37.7804 56.3528 37.7856L56.382 37.7913L56.389 37.7927L56.3906 37.793L56.3555 37.9871C56.3202 38.1813 56.3202 38.1813 56.3201 38.1813L56.3191 38.1811L56.3168 38.1807L56.3081 38.179L56.2754 38.1726C56.2469 38.1669 56.2052 38.1583 56.1513 38.1465C56.1413 38.1443 56.1308 38.142 56.1199 38.1395C56.0139 38.1158 55.8682 38.0813 55.6886 38.0341C55.2926 37.9299 54.7311 37.7635 54.0663 37.5142C52.7985 37.0387 51.1508 36.2603 49.5562 35.0332C48.8142 37.637 47.9885 42.7103 47.6716 45.2468C47.3795 47.5847 47.3481 49.148 47.664 50.4235C47.975 51.1937 48.4287 51.6367 49.0625 51.8603C49.715 52.0906 50.5801 52.0966 51.7233 51.9333C55.0488 51.4582 57.6684 49.7312 61.4877 46.3893C62.7943 45.246 64.5146 43.4442 65.9122 41.9232C66.6101 41.1638 67.2259 40.4761 67.6673 39.9782C67.888 39.7293 68.065 39.5279 68.1868 39.3888C68.2477 39.3192 68.2948 39.2653 68.3266 39.2287L68.3748 39.1733C68.3918 39.1537 68.4127 39.1374 68.4359 39.1258C70.3932 38.1471 70.6509 37.9539 71.6842 37.1789L71.6945 37.1712C71.7233 37.1496 71.754 37.1271 71.7864 37.1034C72.131 36.8513 72.6608 36.4637 72.9412 35.6223C72.9875 35.4834 72.971 35.351 72.904 35.1634C72.874 35.0793 72.8363 34.9908 72.7925 34.8878C72.7863 34.8731 72.7799 34.8582 72.7734 34.8429C72.7573 34.8049 72.7407 34.7654 72.7237 34.7242L71.9526 35.4955C71.8755 35.5725 71.7506 35.5726 71.6735 35.4955C71.5965 35.4184 71.5965 35.2935 71.6735 35.2164L72.5713 34.3185C72.5083 34.1528 72.4591 34.0658 72.3968 33.9825C72.3563 33.9284 72.3085 33.8736 72.2412 33.7978L72.2216 33.7757C72.1889 33.7389 72.1526 33.698 72.1122 33.6516L70.9448 34.5272C70.8576 34.5926 70.734 34.575 70.6686 34.4878C70.6032 34.4006 70.6208 34.2769 70.708 34.2115L71.8521 33.3534C71.7029 33.1931 71.5355 33.0344 71.3649 32.8728C71.2894 32.8012 71.2132 32.729 71.1378 32.6559L69.958 33.5407C69.8708 33.6061 69.7471 33.5884 69.6818 33.5012C69.6164 33.414 69.634 33.2904 69.7212 33.225L70.8491 32.379C70.4576 32.0339 70.1438 31.9223 69.935 31.8925C69.815 31.8753 69.7246 31.8844 69.6676 31.8958C69.639 31.9015 69.6186 31.9079 69.6069 31.912C69.6015 31.9139 69.5979 31.9154 69.5964 31.916C69.296 32.0668 68.9732 32.3287 68.641 32.6609C68.3095 32.9924 67.9777 33.3845 67.659 33.785C67.4352 34.0661 67.2204 34.3481 67.017 34.615C66.9301 34.7291 66.8453 34.8405 66.7628 34.9478C66.4905 35.3019 66.2404 35.6163 66.0326 35.8242C65.7766 36.0802 65.0668 36.6642 64.1312 37.4209C63.7854 37.7005 63.4075 38.0048 63.0076 38.3267C62.3184 38.8816 61.5641 39.4889 60.7966 40.1133C58.365 42.0917 55.8332 44.2166 54.8609 45.3509C54.8014 45.4204 54.7019 45.4398 54.6206 45.3978C54.5392 45.3558 54.4975 45.2634 54.5197 45.1746C54.7382 44.3005 55.1488 42.4942 55.5052 40.9039C55.6833 40.1093 55.8477 39.3695 55.9676 38.8283C56.0275 38.5578 56.0763 38.3368 56.1102 38.1836L56.1199 38.1395M55.0797 44.5383C56.2907 43.3169 58.473 41.495 60.5475 39.8072C61.3155 39.1824 62.0718 38.5735 62.7617 38.0181C63.1613 37.6963 63.5386 37.3926 63.883 37.114C64.8283 36.3495 65.5162 35.7824 65.7535 35.5451C65.9403 35.3583 66.1754 35.0643 66.4499 34.7072C66.5303 34.6026 66.614 34.4928 66.7002 34.3796C66.9046 34.1113 67.1237 33.8237 67.3502 33.5392C67.6727 33.134 68.0151 32.7286 68.362 32.3818C68.7071 32.0367 69.0659 31.74 69.4225 31.5617L69.4861 31.689C69.4225 31.5617 69.4223 31.5618 69.4225 31.5617L69.4231 31.5614L69.4238 31.5611L69.4255 31.5603L69.4295 31.5584C69.4325 31.557 69.4362 31.5553 69.4406 31.5534C69.4494 31.5497 69.4608 31.5451 69.4749 31.5401C69.5031 31.5301 69.5418 31.5185 69.5902 31.5088C69.6874 31.4893 69.8231 31.4778 69.9909 31.5018M55.0797 44.5383C55.3071 43.5773 55.6153 42.2174 55.8903 40.9902C56.0685 40.1952 56.233 39.4551 56.3529 38.9137C56.4129 38.643 56.4617 38.422 56.4955 38.2686L56.5482 38.0298C56.5482 38.0298 56.5482 38.0295 56.3555 37.9871" fill="#333333"/>
<path fill-rule="evenodd" clip-rule="evenodd" d="M57.3433 38.1832C55.6485 38.1832 51.9847 37.1774 48.9902 34.5157L49.2524 34.2207C52.1778 36.8211 55.7494 37.7885 57.3433 37.7885V38.1832Z" fill="#035D2D"/>
<path fill-rule="evenodd" clip-rule="evenodd" d="M67.1218 10.2158C67.2921 10.191 67.4984 10.2707 67.6424 10.3689C67.7324 10.4303 67.8552 10.4071 67.9166 10.3171C67.978 10.227 67.9548 10.1043 67.8648 10.0429C67.6822 9.91833 67.3747 9.78011 67.0649 9.82527C66.9031 9.84884 66.7447 9.92237 66.6139 10.0657C66.4855 10.2063 66.3936 10.4032 66.3407 10.6591C66.3187 10.7658 66.3873 10.8702 66.494 10.8922C66.6008 10.9143 66.7052 10.8456 66.7272 10.7389C66.7703 10.5302 66.8381 10.4054 66.9054 10.3317C66.9702 10.2607 67.0435 10.2272 67.1218 10.2158Z" fill="#333333"/>
<path d="M19.1113 23.4651C23.1412 15.9517 27.8213 11.6663 30.8012 10.2706L52.7592 23.6996C50.528 24.059 44.7106 27.5009 39.2909 38.3925C33.8712 49.2841 25.3389 53.5942 21.7503 54.3878L2.45008 36.8949C7.08712 35.4207 15.5502 30.1045 19.1113 23.4651Z" fill="#165C7D"/>
<path fill-rule="evenodd" clip-rule="evenodd" d="M30.6606 9.97297C30.7607 9.92612 30.8775 9.9326 30.9717 9.99023L52.9297 23.4192C53.0471 23.491 53.1074 23.6283 53.0808 23.7634C53.0542 23.8984 52.9463 24.0026 52.8105 24.0245C51.7861 24.1895 49.8319 25.0918 47.4449 27.3363C45.0669 29.5724 42.2796 33.1226 39.5842 38.5392C34.1199 49.5205 25.5051 53.8943 21.8202 54.7092C21.7161 54.7322 21.6073 54.7033 21.5283 54.6317L2.22813 37.1388C2.14093 37.0598 2.10261 36.9402 2.12763 36.8252C2.15265 36.7102 2.2372 36.6174 2.34935 36.5817C4.62496 35.8583 7.8676 34.1806 10.9864 31.8536C14.1053 29.5264 17.0708 26.5717 18.8204 23.3098C22.8695 15.7606 27.5938 11.4094 30.6606 9.97297ZM30.7813 10.6448C27.8795 12.077 23.3383 16.2782 19.4 23.6207C17.5885 26.9982 14.5419 30.0214 11.3797 32.3808C8.45004 34.5667 5.39578 36.2017 3.08459 37.0274L21.8426 54.0289C25.4295 53.1626 33.7028 48.8821 38.9953 38.2462C41.7197 32.7712 44.551 29.1547 46.9943 26.8571C48.9656 25.0035 50.698 23.9962 51.9266 23.5767L30.7813 10.6448Z" fill="#165C7D"/>
<g opacity="0.8">
<path d="M32.6664 27.3009C35.9634 30.1053 36.3626 35.0515 33.5581 38.3484C30.7537 41.6453 25.8075 42.0445 22.5106 39.24C19.2137 36.4356 18.8145 31.4894 21.6189 28.1925C24.4234 24.8956 29.3695 24.4964 32.6664 27.3009Z" fill="white"/>
<path d="M31.5743 30.8582L26.7883 29.2874C26.3392 29.1513 26.0117 29.0565 25.8236 29.2776C25.6355 29.4987 25.7984 29.8156 25.9984 30.2128L27.297 32.8392L24.5112 31.9643C24.0856 31.8292 23.7482 31.7206 23.5585 31.9404C23.3688 32.1602 23.5205 32.4649 23.7276 32.8951L26.0468 37.3627C26.11 37.5088 26.2109 37.6355 26.3391 37.7297C26.4674 37.8239 26.6184 37.8824 26.7767 37.899C26.935 37.9157 27.0949 37.89 27.24 37.8245C27.385 37.759 27.5101 37.6561 27.6023 37.5263L28.1452 36.8881L28.9544 37.5764C29.0944 37.6948 29.2755 37.7529 29.4582 37.7382C29.6409 37.7234 29.8104 37.637 29.9296 37.4977L30.0856 37.3142C30.204 37.1743 30.2622 36.9931 30.2474 36.8104C30.2327 36.6277 30.1462 36.4583 30.0069 36.3391L29.6118 36.0029C29.5976 35.9909 29.5835 35.9789 29.5694 35.9669L29.1977 35.6508L30.3983 34.2394L30.77 34.5555C30.7834 34.5683 30.7976 34.5803 30.8123 34.5915L31.2075 34.9277C31.3475 35.046 31.5286 35.1042 31.7113 35.0895C31.894 35.0747 32.0635 34.9883 32.1827 34.849L32.3387 34.6655C32.4571 34.5255 32.5152 34.3444 32.5005 34.1617C32.4857 33.979 32.3993 33.8095 32.26 33.6904L31.4508 33.002L31.9938 32.3638C32.1073 32.2517 32.1889 32.1113 32.2302 31.9572C32.2715 31.8031 32.2709 31.6407 32.2286 31.4869C32.1863 31.333 32.1037 31.1933 31.9894 31.0819C31.8751 30.9706 31.7332 30.8918 31.5783 30.8535L31.5743 30.8582ZM28.8817 35.2279L28.4709 35.7109L29.6721 36.7327C29.7075 36.7628 29.7294 36.8057 29.7332 36.8519C29.7369 36.8982 29.7221 36.944 29.692 36.9794L29.5373 37.1613C29.5072 37.1967 29.4643 37.2186 29.4181 37.2224C29.3718 37.2261 29.3259 37.2113 29.2906 37.1812L28.8107 36.773L28.0893 36.1594L27.2103 37.1928C27.174 37.2598 27.1189 37.3146 27.0518 37.3505C26.9847 37.3864 26.9085 37.4018 26.8327 37.3949C26.7569 37.388 26.6848 37.359 26.6253 37.3114C26.5658 37.2639 26.5216 37.2 26.4981 37.1276L24.1838 32.667C24.1573 32.6092 24.0961 32.4842 24.0476 32.3727C24.1268 32.3941 24.2285 32.4238 24.3514 32.4636L27.6177 33.4823L28.2892 34.7265C28.3493 34.8456 28.4327 34.9513 28.5345 35.0374C28.6363 35.1235 28.7544 35.1883 28.8817 35.2279ZM29.4754 34.2598C29.4895 34.3199 29.4898 34.3823 29.4765 34.4426C29.4632 34.5028 29.4365 34.5593 29.3984 34.6078C29.3566 34.6536 29.305 34.6895 29.2474 34.7126C29.1898 34.7357 29.1278 34.7455 29.0659 34.7412C28.9965 34.7243 28.932 34.6913 28.8775 34.645C28.8231 34.5987 28.7802 34.5403 28.7523 34.4745L28.3336 33.721L29.1578 33.9977C29.2276 34.0133 29.2928 34.0452 29.348 34.0908C29.4032 34.1363 29.4468 34.1942 29.4754 34.2598ZM31.7257 31.6303C31.739 31.7031 31.7343 31.778 31.712 31.8486C31.6897 31.9191 31.6505 31.9831 31.5977 32.035L30.7199 33.0669L31.9212 34.0887C31.9565 34.1188 31.9785 34.1617 31.9822 34.2079C31.986 34.2542 31.9712 34.3 31.9411 34.3354L31.7837 34.5204C31.7536 34.5558 31.7107 34.5777 31.6645 34.5815C31.6182 34.5852 31.5724 34.5704 31.537 34.5403L30.3358 33.5185L29.9289 33.9968C29.8686 33.878 29.7853 33.7723 29.6838 33.686C29.5823 33.5996 29.4646 33.5343 29.3377 33.4939L27.9912 33.0432L26.4682 29.9719C26.4109 29.8582 26.3714 29.7679 26.3314 29.6879C26.4476 29.7165 26.5795 29.7584 26.6379 29.7756L31.4133 31.343C31.4849 31.3617 31.5508 31.3977 31.6052 31.4478C31.6597 31.4979 31.7011 31.5605 31.7257 31.6303Z" fill="#165C7D"/>
<path d="M34.942 32.3833C35.0593 33.3713 34.9707 34.373 34.6818 35.3252C34.3929 36.2773 33.91 37.1593 33.2634 37.9156C33.1202 38.0839 32.9709 38.2435 32.8156 38.3943C32.1268 39.8294 31.0184 41.0216 29.6373 41.813C31.266 41.8936 32.8792 41.4622 34.2503 40.5795C35.6215 39.6967 36.6819 38.4069 37.2828 36.8909C37.8838 35.3749 37.995 33.7088 37.601 32.1264C37.207 30.5439 36.3275 29.1245 35.0859 28.0673C34.8233 27.8447 34.5466 27.6392 34.2577 27.4521C35.0153 28.9778 35.2555 30.7088 34.942 32.3833Z" fill="#00A9CE"/>
<path d="M23.1345 27.6775C24.0121 26.944 25.0511 26.429 26.1662 26.1747C27.2813 25.9204 28.4409 25.9341 29.5497 26.2148C31.2158 26.1074 32.8722 26.5385 34.2746 27.4444C33.5122 25.9034 32.2626 24.657 30.7196 23.8986C29.1766 23.1402 27.4264 22.9122 25.7406 23.25C24.0548 23.5878 22.5276 24.4725 21.3959 25.7668C20.2642 27.0612 19.5912 28.6928 19.4815 30.4086C19.5908 30.2611 19.7062 30.1159 19.8262 29.9748C20.7082 28.9319 21.8492 28.1396 23.1345 27.6775Z" fill="#FFA300"/>
<path d="M32.4495 27.7223C33.8417 28.9034 34.7328 30.5697 34.942 32.3833C35.2596 30.7105 35.024 28.9798 34.2709 27.4526C32.8683 26.5459 31.2113 26.1144 29.5446 26.2217C30.6153 26.4921 31.6093 27.0056 32.4495 27.7223Z" fill="#886B25"/>
<path d="M24.8312 39.8325C23.8944 39.4144 23.0574 38.8018 22.3755 38.0354C21.6937 37.269 21.1827 36.3663 20.8764 35.3873C19.8614 33.9338 19.3701 32.1788 19.4829 30.4096C18.423 31.8516 17.8907 33.6139 17.975 35.4015C18.0594 37.1891 18.7553 38.8935 19.9462 40.2293C21.1372 41.565 22.7509 42.4511 24.5172 42.7391C26.2835 43.0271 28.0951 42.6995 29.6487 41.8113C27.9274 41.7278 26.2827 41.075 24.9725 39.9555C24.9286 39.9181 24.88 39.8768 24.8312 39.8325Z" fill="#00B140"/>
<path d="M32.8218 38.3884C31.7881 39.4012 30.4741 40.0805 29.0501 40.3384C27.626 40.5963 26.1573 40.4209 24.834 39.835C24.8842 39.8776 24.9328 39.919 24.9908 39.9684C26.2999 41.0846 27.9422 41.7354 29.6606 41.8188C31.0417 41.0273 32.15 39.8352 32.8388 38.4002L32.8218 38.3884Z" fill="#007D8A"/>
<path d="M20.8694 35.3935C20.5038 34.229 20.4391 32.9909 20.6815 31.7947C20.9239 30.5985 21.4654 29.4832 22.2554 28.5529C22.5206 28.2423 22.811 27.9541 23.1235 27.6912C21.8413 28.1529 20.7029 28.9434 19.8222 29.9834C19.7022 30.1246 19.5821 30.2657 19.4775 30.4173C19.3645 32.1858 19.8552 33.9403 20.8694 35.3935Z" fill="#007041"/>
</g>
<path d="M52.4102 124.482H180.016V136.322H52.4102V124.482Z" fill="#C8CCD0"/>
<path d="M72.1445 112.643H180.017V124.482H72.1445V112.643Z" fill="#C8CCD0"/>
<path d="M32.6777 136.321H180.016V148.161H32.6777V136.321Z" fill="#C8CCD0"/>
<path d="M12.9453 148.161H180.016V160.001H12.9453V148.161Z" fill="#C8CCD0"/>
<path d="M91.877 100.803H180.017V112.642H91.877V100.803Z" fill="#C8CCD0"/>
<path d="M111.609 88.9629H180.016V100.803H111.609V88.9629Z" fill="#C8CCD0"/>
<path d="M157.98 88.6342H143.838L155.349 64.626H157.98V88.6342Z" fill="#165C7D"/>
<path fill-rule="evenodd" clip-rule="evenodd" d="M155.171 64.5407C155.204 64.4723 155.273 64.4287 155.349 64.4287H157.98C158.089 64.4287 158.177 64.5171 158.177 64.626V88.6343C158.177 88.7432 158.089 88.8316 157.98 88.8316H143.838C143.77 88.8316 143.707 88.7968 143.671 88.7394C143.635 88.682 143.631 88.6101 143.66 88.5489L155.171 64.5407ZM155.473 64.8234L144.151 88.4369H157.782V64.8234H155.473Z" fill="#165C7D"/>
<path d="M157.981 88.6342H172.123L160.88 64.626H157.981V88.6342Z" fill="#145270"/>
<path fill-rule="evenodd" clip-rule="evenodd" d="M161.057 64.5424C161.024 64.473 160.955 64.4287 160.878 64.4287H157.979C157.87 64.4287 157.782 64.5171 157.782 64.626V88.6343C157.782 88.7432 157.87 88.8316 157.979 88.8316H172.121C172.189 88.8316 172.251 88.7971 172.288 88.7401C172.324 88.6832 172.328 88.6117 172.3 88.5506L161.057 64.5424ZM160.752 64.8234L171.811 88.4369H158.177V64.8234H160.752Z" fill="#145270"/>
</svg>
