<svg width="126" height="160" viewBox="0 0 126 160" fill="none" xmlns="http://www.w3.org/2000/svg">
<g clip-path="url(#clip0_19798_33522)">
<path fill-rule="evenodd" clip-rule="evenodd" d="M114.565 16.3194C114.774 16.457 114.831 16.7375 114.693 16.946L108.466 26.3842C108.329 26.5927 108.048 26.6502 107.84 26.5126C107.631 26.375 107.574 26.0945 107.711 25.886L113.938 16.4478C114.076 16.2393 114.357 16.1818 114.565 16.3194Z" fill="#165C7D"/>
<path fill-rule="evenodd" clip-rule="evenodd" d="M101.674 14.7461C101.918 14.6959 102.157 14.8537 102.207 15.0984L104.024 23.9601C104.074 24.2048 103.916 24.4438 103.672 24.494C103.427 24.5441 103.188 24.3864 103.138 24.1417L101.321 15.28C101.271 15.0353 101.429 14.7963 101.674 14.7461Z" fill="#165C7D"/>
<path fill-rule="evenodd" clip-rule="evenodd" d="M120.761 27.3391C120.711 27.0944 120.472 26.9367 120.227 26.9869L111.365 28.8032C111.12 28.8534 110.963 29.0924 111.013 29.3371C111.063 29.5818 111.302 29.7395 111.547 29.6894L120.408 27.873C120.653 27.8229 120.811 27.5839 120.761 27.3391Z" fill="#165C7D"/>
<path fill-rule="evenodd" clip-rule="evenodd" d="M63.0312 0.000976562C67.5312 1.33431 71.5312 4.50098 71.5312 10.501C71.5312 14.2528 70.3902 21.5983 69.0312 28.501C67.9295 34.097 68.2085 40.0542 68.4503 45.2181C68.5462 47.2662 68.6363 49.1894 68.632 50.9159C69.0469 43.4578 70.8312 27.6385 76.5312 25.501C83.0312 23.0635 95.7614 21.501 100.807 40.001C102.307 45.501 102.037 59.4776 101.031 65.001C99.5313 73.2346 98.3071 79.001 94.5312 91.501L94.5089 91.575C92.5939 97.9148 91.5077 101.511 85.531 104.001V141.501H53.8068V104.001C44.7746 102.053 43.9459 98.8659 42.1762 92.059C42.1286 91.8756 42.0802 91.6897 42.031 91.501C39.031 80.001 35.0321 60.2225 35.0315 46.501C35.0309 34.501 34.0312 11.501 34.0312 11.501C34.0312 11.501 38.031 10.8341 40.531 12.501C43.5307 14.501 45.0312 16.001 46.0313 21.501V2.50098C49.531 2.50098 53.2551 2.50098 56.031 7.50098C58.2609 11.5175 58.199 14.566 58.0883 20.016C58.0613 21.3505 58.0312 22.829 58.0312 24.501C60.0312 11.501 61.0312 7.00098 63.0312 0.000976562ZM83.0319 66.001C87.0323 66.001 88.5314 63.501 89.5314 58.501C89.9232 56.5419 90.0044 54.329 90.0842 52.1533C90.2058 48.8403 90.3241 45.6136 91.5314 43.501C91.4368 43.2488 91.3422 42.9941 91.2474 42.738C91.2157 42.6523 91.1839 42.5664 91.1521 42.4804C89.7718 38.7498 88.3208 34.8281 86.0296 34.501C83.5278 34.1438 82.1981 35.001 81.0314 38.5009C79.6758 42.567 79.0314 49.0009 79.0314 54.501C79.0314 59.001 79.0314 66.001 83.0319 66.001Z" fill="#D8BA8B"/>
<path fill-rule="evenodd" clip-rule="evenodd" d="M62.8861 -0.261782C62.9562 -0.300327 63.0389 -0.309215 63.1157 -0.286467C65.4017 0.390877 67.5801 1.53924 69.1893 3.2987C70.8037 5.06369 71.8305 7.42808 71.8305 10.5012C71.8305 14.2864 70.6832 21.6594 69.3248 28.5591C68.2313 34.1136 68.5071 40.0341 68.7492 45.2043L68.7495 45.2096C68.7553 45.3336 68.7611 45.4572 68.7668 45.5804C69.0872 42.595 69.5774 39.2511 70.3069 36.1448C70.9147 33.5565 71.6919 31.1192 72.683 29.1882C73.6695 27.2662 74.8944 25.7943 76.4251 25.2203C79.7055 23.9901 84.5922 22.9661 89.3127 24.6164C94.0543 26.2741 98.5528 30.6023 101.094 39.9181C101.095 39.921 101.096 39.924 101.097 39.9269C101.858 42.7205 102.164 47.623 102.158 52.4928C102.152 57.3714 101.833 62.2672 101.325 65.0549C99.8237 73.299 98.597 79.0764 94.8177 91.5879L94.7854 91.6947C93.8361 94.8374 93.0759 97.3544 91.7964 99.3913C90.5271 101.412 88.7564 102.949 85.8302 104.2V141.501C85.8302 141.667 85.6959 141.801 85.5302 141.801H53.806C53.6403 141.801 53.506 141.667 53.506 141.501V104.243C49.113 103.269 46.6285 101.977 45.0357 100.043C43.4361 98.1008 42.7719 95.5456 41.8992 92.1888L41.8842 92.1312C41.8368 91.9489 41.7888 91.7642 41.7399 91.5769C38.7382 80.0705 34.7314 60.2621 34.7307 46.5012C34.7304 40.5069 34.4806 31.7615 34.2306 24.5115C34.1056 20.8872 33.9806 17.6378 33.8869 15.2944C33.8401 14.1227 33.801 13.1776 33.7737 12.5255C33.76 12.1994 33.7493 11.9465 33.742 11.7752L33.7308 11.5152C33.7308 11.5151 33.7308 11.5142 34.0305 11.5012C33.9811 11.2053 33.9812 11.2052 33.9813 11.2052L33.9825 11.205L33.9852 11.2046L33.9951 11.203L34.0316 11.1974C34.0632 11.1927 34.1092 11.1861 34.1682 11.1783C34.2862 11.1628 34.4565 11.1428 34.6682 11.1242C35.0911 11.0869 35.6815 11.055 36.3523 11.0763C37.6841 11.1185 39.3769 11.3716 40.6966 12.2516C42.2039 13.2565 43.3705 14.1584 44.2798 15.5222C44.8638 16.3981 45.3348 17.4538 45.7305 18.8323V2.50117C45.7305 2.33549 45.8649 2.20117 46.0305 2.20117H46.0541C47.7884 2.20116 49.6392 2.20115 51.4045 2.8443C53.1948 3.49659 54.8733 4.79928 56.2925 7.35556C58.5617 11.4428 58.4983 14.5646 58.3882 19.9888L58.3875 20.0222C58.3855 20.1235 58.3834 20.2256 58.3813 20.3285C59.9762 10.3884 60.9655 6.13641 62.742 -0.0812439C62.764 -0.158235 62.8159 -0.223238 62.8861 -0.261782ZM57.7305 24.4887C57.7306 22.8188 57.7606 21.3418 57.7876 20.011C57.8983 14.556 57.9538 11.5841 55.7679 7.64679C54.4112 5.20307 52.8396 4.00576 51.1991 3.40805C49.6357 2.83846 47.9881 2.80345 46.3305 2.80131V21.496C46.5454 27.7296 46.6679 32.5773 46.7775 36.9121C46.9227 42.6603 47.0452 47.5054 47.33 53.4869C47.3379 53.6524 47.2101 53.7929 47.0446 53.8008C46.8791 53.8087 46.7386 53.6809 46.7307 53.5154C46.4455 47.5268 46.3229 42.676 46.1777 36.9285L46.1777 36.9274C46.0682 32.5967 45.9459 27.756 45.7315 21.5334C45.2354 18.8138 44.6209 17.1153 43.7806 15.8551C42.9397 14.5939 41.8561 13.7458 40.3638 12.7508C39.1835 11.9639 37.6264 11.717 36.3333 11.676C35.6917 11.6556 35.1259 11.6862 34.7208 11.7219C34.5707 11.7351 34.443 11.749 34.3419 11.7612C34.3492 11.9324 34.3598 12.1813 34.3732 12.5003C34.4005 13.1528 34.4396 14.0983 34.4864 15.2704C34.5802 17.6146 34.7052 20.8652 34.8302 24.4908C35.0802 31.7408 35.3304 40.4954 35.3307 46.5012C35.3314 60.1834 39.3222 79.9318 42.3205 91.4254C42.3697 91.6143 42.4181 91.8004 42.4658 91.9837C43.3558 95.4072 43.9923 97.8322 45.4989 99.6618C46.9926 101.476 49.378 102.739 53.8692 103.708C54.0074 103.738 54.106 103.86 54.106 104.001V141.201H85.2302V104.001C85.2302 103.88 85.303 103.771 85.4148 103.724C88.3549 102.499 90.0681 101.015 91.2883 99.0722C92.5204 97.1107 93.2598 94.6702 94.2209 91.4885L94.2433 91.4144C98.0157 78.9259 99.2372 73.1707 100.735 64.9474C101.233 62.2118 101.552 57.3575 101.558 52.492C101.564 47.7159 101.267 42.977 100.56 40.2419C99.2666 39.8924 97.0219 39.9031 94.9838 40.8602C93.5362 41.54 92.1881 42.699 91.363 44.563C91.0437 45.3955 90.8366 46.3594 90.6973 47.4164C90.5038 48.8846 90.4441 50.5047 90.3833 52.1645L90.3827 52.1792C90.3033 54.3445 90.2214 56.5773 89.8248 58.5601C89.3234 61.067 88.6881 63.0037 87.6403 64.3136C87.3527 64.6732 87.0358 64.9834 86.6858 65.2446C86.699 65.2527 86.7118 65.2618 86.724 65.2722C86.8505 65.3792 86.8662 65.5685 86.7592 65.695C83.3752 69.6943 79.9846 71.14 77.1781 72.3368L77.1741 72.3385C77.0383 72.3964 76.9041 72.4536 76.7712 72.5106C71.2506 74.8765 68.4766 78.5608 67.237 82.1942C65.993 85.84 66.2892 89.4508 66.9407 91.6496C66.9877 91.8085 66.8971 91.9754 66.7383 92.0225C66.5794 92.0695 66.4125 91.9789 66.3654 91.8201C65.6836 89.5189 65.3797 85.7796 66.6691 82.0005C67.9627 78.2089 70.8555 74.3931 76.5349 71.9591C76.6683 71.9019 76.803 71.8444 76.9387 71.7866C79.6369 70.636 82.7944 69.2885 85.9752 65.6846C85.159 66.0972 84.1895 66.3012 83.0311 66.3012C81.927 66.3012 81.0933 65.8114 80.4811 65.0208C79.8788 64.2429 79.4915 63.1769 79.2374 62.0021C78.7306 59.6582 78.7306 56.7577 78.7306 54.5184V54.5012C78.7306 48.9889 79.3754 42.5174 80.746 38.4062C81.3338 36.6428 81.9814 35.4807 82.8464 34.8168C83.7281 34.14 84.7814 34.0201 86.0712 34.2042C87.3729 34.3901 88.3708 35.5787 89.1943 37.0696C90.0269 38.577 90.741 40.5072 91.4272 42.3616L91.528 42.634C91.5597 42.7198 91.5914 42.8053 91.6231 42.8906C92.4727 41.6925 93.5675 40.8625 94.7288 40.3171C96.7326 39.3761 98.927 39.2852 100.378 39.5827C97.8525 30.7486 93.5416 26.7305 89.1147 25.1828C84.5839 23.5988 79.8555 24.5747 76.6358 25.7821C75.3165 26.2768 74.1808 27.5839 73.2168 29.4622C72.2572 31.3317 71.4936 33.7161 70.891 36.282C69.6871 41.4084 69.1386 47.2035 68.9312 50.9248C68.9288 51.8487 68.8995 52.7202 68.8293 53.5272C68.8153 53.6882 68.6763 53.8092 68.5149 53.8008C68.3535 53.7924 68.2277 53.6576 68.2305 53.496C68.2419 52.8368 68.2732 51.9537 68.3313 50.9074C68.3352 49.1918 68.2457 47.2792 68.1499 45.2324L68.1491 45.2161C67.9078 40.0622 67.6274 34.075 68.7361 28.4432C70.0957 21.5375 71.2305 14.2195 71.2305 10.5012C71.2305 7.57426 70.2573 5.35532 68.7466 3.70365C67.2972 2.11898 65.3395 1.04231 63.2351 0.377524C61.2957 7.19386 60.2982 11.735 58.3286 24.5364C57.831 30.5242 57.831 44.9973 58.33 53.4836C58.3397 53.649 58.2135 53.7909 58.0481 53.8007C57.8827 53.8104 57.7407 53.6842 57.731 53.5188C57.2311 45.0158 57.23 30.5149 57.7305 24.4887ZM91.201 43.4765C91.1225 43.2663 91.0439 43.0547 90.9653 42.8424L90.8699 42.5847C90.1775 40.7131 89.4776 38.8235 88.6691 37.3597C87.8492 35.8753 86.9759 34.9395 85.9864 34.7982C84.7744 34.6252 83.912 34.7553 83.2117 35.2927C82.4948 35.8431 81.8941 36.8595 81.3152 38.596C79.9747 42.617 79.3306 49.0133 79.3306 54.5012C79.3306 56.7596 79.3319 59.6003 79.8239 61.8753C80.0699 63.013 80.4327 63.9782 80.9555 64.6535C81.4685 65.316 82.135 65.7012 83.0311 65.7012C84.9577 65.7012 86.239 65.105 87.1718 63.9388C88.1237 62.7487 88.7379 60.9354 89.2365 58.4424C89.6226 56.5115 89.7036 54.324 89.7837 52.1425L89.784 52.134C89.84 50.6059 89.896 49.0808 90.0608 47.6733C90.0207 47.6161 90.0003 47.5447 90.0082 47.4698C90.1349 46.2656 90.415 45.2262 90.8086 44.333C90.9242 44.0334 91.0543 43.7472 91.201 43.4765ZM34.0305 11.5012L33.9813 11.2052C33.8318 11.2302 33.7242 11.3627 33.7308 11.5142L34.0305 11.5012Z" fill="#333333"/>
<path fill-rule="evenodd" clip-rule="evenodd" d="M54.7812 159.435C54.7812 159.123 55.0344 158.87 55.3466 158.87H98.3148C98.6271 158.87 98.8802 159.123 98.8802 159.435C98.8802 159.748 98.6271 160.001 98.3148 160.001H55.3466C55.0344 160.001 54.7812 159.748 54.7812 159.435Z" fill="#E1E5E7"/>
<path fill-rule="evenodd" clip-rule="evenodd" d="M100.576 159.435C100.576 159.123 100.829 158.87 101.142 158.87H103.968C104.281 158.87 104.534 159.123 104.534 159.435C104.534 159.748 104.281 160.001 103.968 160.001H101.142C100.829 160.001 100.576 159.748 100.576 159.435Z" fill="#E1E5E7"/>
<path fill-rule="evenodd" clip-rule="evenodd" d="M49.127 159.435C49.127 159.123 49.3801 158.87 49.6923 158.87H52.5192C52.8314 158.87 53.0846 159.123 53.0846 159.435C53.0846 159.748 52.8314 160.001 52.5192 160.001H49.6923C49.3801 160.001 49.127 159.748 49.127 159.435Z" fill="#E1E5E7"/>
<path d="M109.56 54.8623C110.745 54.8623 111.644 55.304 112.255 56.1874C112.866 57.0634 113.171 58.3039 113.171 59.9087C113.171 61.5062 112.877 62.7539 112.288 63.6521C111.706 64.5502 110.797 64.9992 109.56 64.9992C108.404 64.9992 107.525 64.5502 106.921 63.6521C106.317 62.7539 106.016 61.5062 106.016 59.9087C106.016 58.3039 106.299 57.0634 106.866 56.1874C107.44 55.304 108.338 54.8623 109.56 54.8623ZM109.571 56.6733C109.093 56.6733 108.739 56.942 108.511 57.4794C108.29 58.0168 108.18 58.8302 108.18 59.9197C108.18 61.0019 108.29 61.819 108.511 62.3711C108.739 62.9159 109.093 63.1883 109.571 63.1883C110.057 63.1883 110.418 62.9159 110.653 62.3711C110.896 61.8264 111.018 61.0092 111.018 59.9197C111.018 58.8376 110.9 58.0278 110.664 57.4904C110.429 56.9456 110.065 56.6733 109.571 56.6733ZM120.404 55.0942L111.448 71.2382H109.317L118.273 55.0942H120.404ZM120.106 61.3221C121.291 61.3221 122.189 61.7638 122.8 62.6472C123.418 63.5232 123.728 64.7637 123.728 66.3685C123.728 67.9586 123.433 69.2027 122.844 70.1008C122.263 70.9989 121.35 71.448 120.106 71.448C118.95 71.448 118.07 70.9989 117.467 70.1008C116.863 69.2027 116.561 67.9586 116.561 66.3685C116.561 64.7637 116.845 63.5232 117.411 62.6472C117.986 61.7638 118.884 61.3221 120.106 61.3221ZM120.117 63.1331C119.638 63.1331 119.285 63.4018 119.057 63.9392C118.836 64.4766 118.725 65.29 118.725 66.3795C118.725 67.4617 118.836 68.2788 119.057 68.8309C119.285 69.3757 119.638 69.6481 120.117 69.6481C120.61 69.6481 120.974 69.3794 121.21 68.842C121.446 68.2972 121.563 67.4764 121.563 66.3795C121.563 65.2974 121.446 64.4876 121.21 63.9502C120.974 63.4054 120.61 63.1331 120.117 63.1331Z" fill="#333333"/>
<path d="M21.5626 155.191C17.605 157.563 7.4283 157.563 3.4707 154.761V153.04C7.30837 154.761 16.4742 154.736 21.5626 153.605V155.191Z" fill="#8F6E0D"/>
<path d="M3.4707 153.04C11.9513 151.909 21.5626 153.605 21.5626 153.605C21.5626 153.605 11.9513 156.998 3.4707 153.04Z" fill="#FFA300"/>
<path d="M20.4317 154.06C16.4741 156.432 6.29744 156.432 2.33984 153.63V151.909C6.17751 153.63 15.3434 153.605 20.4317 152.475V154.06Z" fill="#8F6E0D"/>
<path d="M2.33984 151.909C10.8204 150.778 20.4317 152.475 20.4317 152.475C20.4317 152.475 10.8204 155.867 2.33984 151.909Z" fill="#FFA300"/>
<path d="M21.5626 151.798C17.605 154.17 7.4283 154.17 3.4707 151.368V149.647C7.30837 151.368 16.4742 151.344 21.5626 150.213V151.798Z" fill="#8F6E0D"/>
<path d="M3.4707 149.647C11.9513 148.517 21.5626 150.213 21.5626 150.213C21.5626 150.213 11.9513 153.605 3.4707 149.647Z" fill="#FFA300"/>
<path d="M2.33496 148.835C6.09702 151.507 16.2431 152.295 20.4058 149.807L20.5391 148.092C16.5797 149.51 7.44324 148.776 2.45773 147.255L2.33496 148.835Z" fill="#8F6E0D"/>
<path d="M20.5383 148.092C12.1707 146.308 2.45693 147.254 2.45693 147.254C2.45693 147.254 11.7767 151.381 20.5383 148.092Z" fill="#FFA300"/>
<path d="M21.6197 147.275C17.7216 149.744 7.54798 149.994 3.52274 147.29L3.48047 145.569C7.35925 147.195 16.5217 146.946 21.5808 145.69L21.6197 147.275Z" fill="#8F6E0D"/>
<path d="M3.48025 145.569C11.9305 144.231 21.5806 145.69 21.5806 145.69C21.5806 145.69 12.0555 149.317 3.48025 145.569Z" fill="#FFA300"/>
<path d="M21.5626 145.014C17.605 147.386 7.4283 147.386 3.4707 144.584V142.863C7.30837 144.584 16.4742 144.559 21.5626 143.429V145.014Z" fill="#8F6E0D"/>
<path d="M3.4707 142.863C11.9513 141.733 21.5626 143.429 21.5626 143.429C21.5626 143.429 11.9513 146.821 3.4707 142.863Z" fill="#FFA300"/>
<path d="M20.4317 143.883C16.4741 146.255 6.29744 146.255 2.33984 143.453V141.732C6.17751 143.453 15.3434 143.429 20.4317 142.298V143.883Z" fill="#8F6E0D"/>
<path d="M2.33984 141.732C10.8204 140.602 20.4317 142.298 20.4317 142.298C20.4317 142.298 10.8204 145.69 2.33984 141.732Z" fill="#FFA300"/>
<path d="M21.5626 141.623C17.605 143.995 7.4283 143.995 3.4707 141.192V139.472C7.30837 141.192 16.4742 141.168 21.5626 140.037V141.623Z" fill="#8F6E0D"/>
<path d="M3.4707 139.472C11.9513 138.341 21.5626 140.037 21.5626 140.037C21.5626 140.037 11.9513 143.429 3.4707 139.472Z" fill="#FFA300"/>
<path d="M2.33496 138.659C6.09702 141.33 16.2431 142.118 20.4058 139.631L20.5391 137.915C16.5797 139.333 7.44324 138.599 2.45773 137.078L2.33496 138.659Z" fill="#8F6E0D"/>
<path d="M20.5383 137.915C12.1707 136.131 2.45693 137.078 2.45693 137.078C2.45693 137.078 11.7767 141.204 20.5383 137.915Z" fill="#FFA300"/>
<path d="M21.6197 137.098C17.7216 139.567 7.54798 139.817 3.52274 137.113L3.48047 135.393C7.35925 137.019 16.5217 136.769 21.5808 135.513L21.6197 137.098Z" fill="#8F6E0D"/>
<path d="M3.48025 135.392C11.9305 134.054 21.5806 135.513 21.5806 135.513C21.5806 135.513 12.0555 139.141 3.48025 135.392Z" fill="#FFA300"/>
<path d="M4.56242 135.968C8.52002 138.34 18.6967 138.34 22.6543 135.538V133.817C18.8166 135.538 9.65076 135.513 4.56242 134.383V135.968Z" fill="#8F6E0D"/>
<path d="M22.6543 133.817C14.1737 132.687 4.56242 134.383 4.56242 134.383C4.56242 134.383 14.1737 137.775 22.6543 133.817Z" fill="#FFA300"/>
<path d="M5.69328 134.837C9.65088 137.209 19.8276 137.209 23.7852 134.407V132.687C19.9475 134.407 10.7816 134.383 5.69328 133.252V134.837Z" fill="#8F6E0D"/>
<path d="M23.7852 132.687C15.3046 131.556 5.69328 133.252 5.69328 133.252C5.69328 133.252 15.3046 136.644 23.7852 132.687Z" fill="#FFA300"/>
<path d="M4.56242 132.576C8.52002 134.948 18.6967 134.948 22.6543 132.146V130.425C18.8166 132.146 9.65076 132.121 4.56242 130.99V132.576Z" fill="#8F6E0D"/>
<path d="M22.6543 130.425C14.1737 129.294 4.56242 130.99 4.56242 130.99C4.56242 130.99 14.1737 134.382 22.6543 130.425Z" fill="#FFA300"/>
<path d="M23.7881 129.613C20.026 132.284 9.8799 133.072 5.71722 130.585L5.58398 128.869C9.54337 130.288 18.6798 129.553 23.6653 128.032L23.7881 129.613Z" fill="#8F6E0D"/>
<path d="M5.58478 128.869C13.9523 127.085 23.6661 128.032 23.6661 128.032C23.6661 128.032 14.3463 132.158 5.58478 128.869Z" fill="#FFA300"/>
<path d="M4.50528 128.053C8.40342 130.521 18.577 130.771 22.6023 128.067L22.6445 126.347C18.7657 127.973 9.60326 127.723 4.54423 126.467L4.50528 128.053Z" fill="#8F6E0D"/>
<path d="M22.6447 126.347C14.1945 125.008 4.54445 126.467 4.54445 126.467C4.54445 126.467 14.0695 130.095 22.6447 126.347Z" fill="#FFA300"/>
<path d="M30.5683 155.191C34.5259 157.563 44.7026 157.563 48.6602 154.761V153.04C44.8225 154.761 35.6566 154.736 30.5683 153.605V155.191Z" fill="#8F6E0D"/>
<path d="M48.6602 153.04C40.1796 151.909 30.5683 153.605 30.5683 153.605C30.5683 153.605 40.1796 156.998 48.6602 153.04Z" fill="#FFA300"/>
<path d="M31.6991 154.06C35.6567 156.432 45.8334 156.432 49.791 153.63V151.909C45.9533 153.63 36.7875 153.605 31.6991 152.475V154.06Z" fill="#8F6E0D"/>
<path d="M49.791 151.909C41.3104 150.778 31.6991 152.475 31.6991 152.475C31.6991 152.475 41.3104 155.867 49.791 151.909Z" fill="#FFA300"/>
<path d="M30.5683 151.798C34.5259 154.17 44.7026 154.17 48.6602 151.368V149.647C44.8225 151.368 35.6566 151.344 30.5683 150.213V151.798Z" fill="#8F6E0D"/>
<path d="M48.6602 149.647C40.1796 148.517 30.5683 150.213 30.5683 150.213C30.5683 150.213 40.1796 153.605 48.6602 149.647Z" fill="#FFA300"/>
<path d="M49.7959 148.835C46.0338 151.507 35.8877 152.295 31.725 149.807L31.5918 148.092C35.5512 149.51 44.6876 148.776 49.6731 147.255L49.7959 148.835Z" fill="#8F6E0D"/>
<path d="M31.5926 148.092C39.9602 146.308 49.6739 147.254 49.6739 147.254C49.6739 147.254 40.3541 151.381 31.5926 148.092Z" fill="#FFA300"/>
<path d="M30.5111 147.275C34.4093 149.744 44.5829 149.994 48.6081 147.29L48.6504 145.569C44.7716 147.195 35.6091 146.946 30.5501 145.69L30.5111 147.275Z" fill="#8F6E0D"/>
<path d="M48.6506 145.569C40.2004 144.231 30.5503 145.69 30.5503 145.69C30.5503 145.69 40.0754 149.317 48.6506 145.569Z" fill="#FFA300"/>
<path d="M30.5683 145.014C34.5259 147.386 44.7026 147.386 48.6602 144.584V142.863C44.8225 144.584 35.6566 144.559 30.5683 143.429V145.014Z" fill="#8F6E0D"/>
<path d="M48.6602 142.863C40.1796 141.733 30.5683 143.429 30.5683 143.429C30.5683 143.429 40.1796 146.821 48.6602 142.863Z" fill="#FFA300"/>
<path d="M31.6991 143.883C35.6567 146.255 45.8334 146.255 49.791 143.453V141.732C45.9533 143.453 36.7875 143.429 31.6991 142.298V143.883Z" fill="#8F6E0D"/>
<path d="M49.791 141.732C41.3104 140.602 31.6991 142.298 31.6991 142.298C31.6991 142.298 41.3104 145.69 49.791 141.732Z" fill="#FFA300"/>
<path d="M30.5683 141.623C34.5259 143.995 44.7026 143.995 48.6602 141.192V139.472C44.8225 141.192 35.6566 141.168 30.5683 140.037V141.623Z" fill="#8F6E0D"/>
<path d="M48.6602 139.472C40.1796 138.341 30.5683 140.037 30.5683 140.037C30.5683 140.037 40.1796 143.429 48.6602 139.472Z" fill="#FFA300"/>
<path d="M49.7959 138.659C46.0338 141.33 35.8877 142.118 31.725 139.631L31.5918 137.915C35.5512 139.333 44.6876 138.599 49.6731 137.078L49.7959 138.659Z" fill="#8F6E0D"/>
<path d="M31.5926 137.915C39.9602 136.131 49.6739 137.078 49.6739 137.078C49.6739 137.078 40.3541 141.204 31.5926 137.915Z" fill="#FFA300"/>
<path d="M30.5111 137.098C34.4093 139.567 44.5829 139.817 48.6081 137.113L48.6504 135.393C44.7716 137.019 35.6091 136.769 30.5501 135.513L30.5111 137.098Z" fill="#8F6E0D"/>
<path d="M48.6506 135.392C40.2004 134.054 30.5503 135.513 30.5503 135.513C30.5503 135.513 40.0754 139.141 48.6506 135.392Z" fill="#FFA300"/>
<path d="M47.5684 135.968C43.6108 138.34 33.4342 138.34 29.4766 135.538V133.817C33.3142 135.538 42.4801 135.513 47.5684 134.383V135.968Z" fill="#8F6E0D"/>
<path d="M29.4766 133.817C37.9571 132.687 47.5684 134.383 47.5684 134.383C47.5684 134.383 37.9571 137.775 29.4766 133.817Z" fill="#FFA300"/>
<path d="M46.4376 134.837C42.48 137.209 32.3033 137.209 28.3457 134.407V132.687C32.1834 134.407 41.3492 134.383 46.4376 133.252V134.837Z" fill="#8F6E0D"/>
<path d="M28.3457 132.687C36.8263 131.556 46.4376 133.252 46.4376 133.252C46.4376 133.252 36.8263 136.644 28.3457 132.687Z" fill="#FFA300"/>
<path d="M47.5684 132.576C43.6108 134.948 33.4342 134.948 29.4766 132.146V130.425C33.3142 132.146 42.4801 132.121 47.5684 130.99V132.576Z" fill="#8F6E0D"/>
<path d="M29.4766 130.425C37.9571 129.294 47.5684 130.99 47.5684 130.99C47.5684 130.99 37.9571 134.382 29.4766 130.425Z" fill="#FFA300"/>
<path d="M28.3428 129.613C32.1048 132.284 42.251 133.072 46.4136 130.585L46.5469 128.869C42.5875 130.288 33.4511 129.553 28.4655 128.032L28.3428 129.613Z" fill="#8F6E0D"/>
<path d="M46.5461 128.869C38.1785 127.085 28.4647 128.032 28.4647 128.032C28.4647 128.032 37.7845 132.158 46.5461 128.869Z" fill="#FFA300"/>
<path d="M47.6256 128.053C43.7274 130.521 33.5538 130.771 29.5286 128.067L29.4863 126.347C33.3651 127.973 42.5276 127.723 47.5866 126.467L47.6256 128.053Z" fill="#8F6E0D"/>
<path d="M29.4861 126.347C37.9363 125.008 47.5864 126.467 47.5864 126.467C47.5864 126.467 38.0613 130.095 29.4861 126.347Z" fill="#FFA300"/>
<path d="M28.8779 125.781C32.6949 128.373 42.8552 128.949 46.9651 126.375L47.0625 124.657C43.1336 126.158 33.9838 125.615 28.9676 124.198L28.8779 125.781Z" fill="#8F6E0D"/>
<path d="M47.062 124.658C38.659 123.049 28.9671 124.198 28.9671 124.198C28.9671 124.198 38.371 128.129 47.062 124.658Z" fill="#FFA300"/>
<path d="M30.0712 124.715C33.8882 127.308 44.0486 127.884 48.1585 125.31L48.2559 123.592C44.3269 125.093 35.1772 124.549 30.161 123.132L30.0712 124.715Z" fill="#8F6E0D"/>
<path d="M48.2553 123.592C39.8524 121.983 30.1605 123.133 30.1605 123.133C30.1605 123.133 39.5644 127.063 48.2553 123.592Z" fill="#FFA300"/>
<path d="M29.0693 122.394C32.8863 124.986 43.0466 125.562 47.1565 122.989L47.2539 121.271C43.325 122.771 34.1752 122.228 29.159 120.811L29.0693 122.394Z" fill="#8F6E0D"/>
<path d="M47.2534 121.271C38.8504 119.662 29.1585 120.811 29.1585 120.811C29.1585 120.811 38.5624 124.742 47.2534 121.271Z" fill="#FFA300"/>
<path d="M48.4336 120.524C44.5264 122.978 34.3519 123.19 30.3367 120.471L30.3008 118.751C34.1735 120.391 43.3369 120.175 48.4005 118.939L48.4336 120.524Z" fill="#8F6E0D"/>
<path d="M30.3011 118.751C38.7562 117.443 48.4008 118.939 48.4008 118.939C48.4008 118.939 38.8624 122.531 30.3011 118.751Z" fill="#FFA300"/>
<path d="M29.2679 117.875C33.02 120.56 43.1632 121.385 47.335 118.913L47.4746 117.198C43.51 118.602 34.3763 117.834 29.3965 116.294L29.2679 117.875Z" fill="#8F6E0D"/>
<path d="M47.4743 117.198C39.1134 115.383 29.3962 116.294 29.3962 116.294C29.3962 116.294 38.7007 120.455 47.4743 117.198Z" fill="#FFA300"/>
<path d="M57.707 155.191C61.6646 157.563 71.8412 157.563 75.7988 154.761V153.04C71.9612 154.761 62.7953 154.736 57.707 153.605V155.191Z" fill="#8F6E0D"/>
<path d="M75.7988 153.04C67.3183 151.909 57.707 153.605 57.707 153.605C57.707 153.605 67.3183 156.998 75.7988 153.04Z" fill="#FFA300"/>
<path d="M58.8378 154.06C62.7954 156.432 72.9721 156.432 76.9297 153.63V151.909C73.092 153.63 63.9262 153.605 58.8378 152.475V154.06Z" fill="#8F6E0D"/>
<path d="M76.9297 151.909C68.4491 150.778 58.8378 152.475 58.8378 152.475C58.8378 152.475 68.4491 155.867 76.9297 151.909Z" fill="#FFA300"/>
<path d="M57.707 151.798C61.6646 154.17 71.8412 154.17 75.7988 151.368V149.647C71.9612 151.368 62.7953 151.344 57.707 150.213V151.798Z" fill="#8F6E0D"/>
<path d="M75.7988 149.647C67.3183 148.517 57.707 150.213 57.707 150.213C57.707 150.213 67.3183 153.605 75.7988 149.647Z" fill="#FFA300"/>
<path d="M76.9346 148.835C73.1725 151.507 63.0264 152.295 58.8637 149.807L58.7305 148.092C62.6899 149.51 71.8263 148.776 76.8118 147.255L76.9346 148.835Z" fill="#8F6E0D"/>
<path d="M58.7313 148.092C67.0988 146.308 76.8126 147.254 76.8126 147.254C76.8126 147.254 67.4928 151.381 58.7313 148.092Z" fill="#FFA300"/>
<path d="M57.6498 147.275C61.5479 149.744 71.7216 149.994 75.7468 147.29L75.7891 145.569C71.9103 147.195 62.7478 146.946 57.6888 145.69L57.6498 147.275Z" fill="#8F6E0D"/>
<path d="M75.7893 145.569C67.339 144.231 57.689 145.69 57.689 145.69C57.689 145.69 67.2141 149.317 75.7893 145.569Z" fill="#FFA300"/>
<path d="M57.707 145.014C61.6646 147.386 71.8412 147.386 75.7988 144.584V142.863C71.9612 144.584 62.7953 144.559 57.707 143.429V145.014Z" fill="#8F6E0D"/>
<path d="M75.7988 142.863C67.3183 141.733 57.707 143.429 57.707 143.429C57.707 143.429 67.3183 146.821 75.7988 142.863Z" fill="#FFA300"/>
<path d="M58.8378 143.883C62.7954 146.255 72.9721 146.255 76.9297 143.453V141.732C73.092 143.453 63.9262 143.429 58.8378 142.298V143.883Z" fill="#8F6E0D"/>
<path d="M76.9297 141.732C68.4491 140.602 58.8378 142.298 58.8378 142.298C58.8378 142.298 68.4491 145.69 76.9297 141.732Z" fill="#FFA300"/>
<path d="M57.707 141.623C61.6646 143.995 71.8412 143.995 75.7988 141.192V139.472C71.9612 141.192 62.7953 141.168 57.707 140.037V141.623Z" fill="#8F6E0D"/>
<path d="M75.7988 139.472C67.3183 138.341 57.707 140.037 57.707 140.037C57.707 140.037 67.3183 143.429 75.7988 139.472Z" fill="#FFA300"/>
<path d="M76.9346 138.659C73.1725 141.33 63.0264 142.118 58.8637 139.631L58.7305 137.915C62.6899 139.333 71.8263 138.599 76.8118 137.078L76.9346 138.659Z" fill="#8F6E0D"/>
<path d="M58.7313 137.915C67.0988 136.131 76.8126 137.078 76.8126 137.078C76.8126 137.078 67.4928 141.204 58.7313 137.915Z" fill="#FFA300"/>
<path d="M57.6498 137.098C61.5479 139.567 71.7216 139.817 75.7468 137.113L75.7891 135.393C71.9103 137.019 62.7478 136.769 57.6888 135.513L57.6498 137.098Z" fill="#8F6E0D"/>
<path d="M75.7893 135.392C67.339 134.054 57.689 135.513 57.689 135.513C57.689 135.513 67.2141 139.141 75.7893 135.392Z" fill="#FFA300"/>
<path d="M74.7071 135.968C70.7495 138.34 60.5728 138.34 56.6152 135.538V133.817C60.4529 135.538 69.6188 135.513 74.7071 134.383V135.968Z" fill="#8F6E0D"/>
<path d="M56.6152 133.817C65.0958 132.687 74.7071 134.383 74.7071 134.383C74.7071 134.383 65.0958 137.775 56.6152 133.817Z" fill="#FFA300"/>
<path d="M73.5762 134.837C69.6187 137.209 59.442 137.209 55.4844 134.407V132.687C59.322 134.407 68.4879 134.383 73.5762 133.252V134.837Z" fill="#8F6E0D"/>
<path d="M55.4844 132.687C63.9649 131.556 73.5762 133.252 73.5762 133.252C73.5762 133.252 63.9649 136.644 55.4844 132.687Z" fill="#FFA300"/>
<path d="M74.7071 132.576C70.7495 134.948 60.5728 134.948 56.6152 132.146V130.425C60.4529 132.146 69.6188 132.121 74.7071 130.99V132.576Z" fill="#8F6E0D"/>
<path d="M56.6152 130.425C65.0958 129.294 74.7071 130.99 74.7071 130.99C74.7071 130.99 65.0958 134.382 56.6152 130.425Z" fill="#FFA300"/>
<path d="M55.4814 129.613C59.2435 132.284 69.3896 133.072 73.5523 130.585L73.6855 128.869C69.7262 130.288 60.5897 129.553 55.6042 128.032L55.4814 129.613Z" fill="#8F6E0D"/>
<path d="M73.6847 128.869C65.3172 127.085 55.6034 128.032 55.6034 128.032C55.6034 128.032 64.9232 132.158 73.6847 128.869Z" fill="#FFA300"/>
<path d="M74.7643 128.053C70.8661 130.521 60.6925 130.771 56.6673 128.067L56.625 126.347C60.5038 127.973 69.6663 127.723 74.7253 126.467L74.7643 128.053Z" fill="#8F6E0D"/>
<path d="M56.6248 126.347C65.075 125.008 74.7251 126.467 74.7251 126.467C74.7251 126.467 65.2 130.095 56.6248 126.347Z" fill="#FFA300"/>
<path d="M56.0166 125.781C59.8336 128.373 69.9939 128.949 74.1038 126.375L74.2012 124.657C70.2723 126.158 61.1225 125.615 56.1063 124.198L56.0166 125.781Z" fill="#8F6E0D"/>
<path d="M74.2007 124.658C65.7977 123.049 56.1058 124.198 56.1058 124.198C56.1058 124.198 65.5097 128.129 74.2007 124.658Z" fill="#FFA300"/>
<path d="M57.2099 124.715C61.0269 127.308 71.1873 127.884 75.2971 125.31L75.3945 123.592C71.4656 125.093 62.3158 124.549 57.2997 123.132L57.2099 124.715Z" fill="#8F6E0D"/>
<path d="M75.394 123.592C66.991 121.983 57.2991 123.133 57.2991 123.133C57.2991 123.133 66.703 127.063 75.394 123.592Z" fill="#FFA300"/>
<path d="M56.208 122.394C60.025 124.986 70.1853 125.562 74.2952 122.989L74.3926 121.271C70.4637 122.771 61.3139 122.228 56.2977 120.811L56.208 122.394Z" fill="#8F6E0D"/>
<path d="M74.3921 121.271C65.9891 119.662 56.2972 120.811 56.2972 120.811C56.2972 120.811 65.7011 124.742 74.3921 121.271Z" fill="#FFA300"/>
<path d="M75.5723 120.524C71.6651 122.978 61.4906 123.19 57.4754 120.471L57.4395 118.751C61.3122 120.391 70.4756 120.175 75.5392 118.939L75.5723 120.524Z" fill="#8F6E0D"/>
<path d="M57.4398 118.751C65.8949 117.443 75.5395 118.939 75.5395 118.939C75.5395 118.939 66.0011 122.531 57.4398 118.751Z" fill="#FFA300"/>
<path d="M56.4066 117.875C60.1587 120.56 70.3019 121.385 74.4737 118.913L74.6133 117.198C70.6487 118.602 61.515 117.834 56.5352 116.294L56.4066 117.875Z" fill="#8F6E0D"/>
<path d="M74.613 117.198C66.2521 115.383 56.5349 116.294 56.5349 116.294C56.5349 116.294 65.8394 120.455 74.613 117.198Z" fill="#FFA300"/>
<path d="M55.5439 115.604C59.3609 118.196 69.5213 118.772 73.6311 116.198L73.7285 114.48C69.7996 115.981 60.6498 115.438 55.6336 114.021L55.5439 115.604Z" fill="#8F6E0D"/>
<path d="M73.728 114.481C65.325 112.872 55.6331 114.021 55.6331 114.021C55.6331 114.021 65.037 117.952 73.728 114.481Z" fill="#FFA300"/>
<path d="M56.7373 114.539C60.5543 117.131 70.7146 117.707 74.8245 115.133L74.9219 113.415C70.993 114.916 61.8432 114.372 56.827 112.955L56.7373 114.539Z" fill="#8F6E0D"/>
<path d="M74.9214 113.415C66.5184 111.806 56.8265 112.956 56.8265 112.956C56.8265 112.956 66.2304 116.887 74.9214 113.415Z" fill="#FFA300"/>
<path d="M55.7353 112.217C59.5523 114.809 69.7127 115.385 73.8225 112.812L73.9199 111.094C69.991 112.595 60.8412 112.051 55.8251 110.634L55.7353 112.217Z" fill="#8F6E0D"/>
<path d="M73.9194 111.094C65.5164 109.485 55.8245 110.635 55.8245 110.635C55.8245 110.635 65.2284 114.565 73.9194 111.094Z" fill="#FFA300"/>
<path d="M75.0996 110.347C71.1924 112.801 61.0179 113.014 57.0027 110.295L56.9668 108.574C60.8395 110.215 70.0029 109.999 75.0665 108.762L75.0996 110.347Z" fill="#8F6E0D"/>
<path d="M56.9671 108.574C65.4222 107.267 75.0668 108.762 75.0668 108.762C75.0668 108.762 65.5284 112.354 56.9671 108.574Z" fill="#FFA300"/>
<path d="M55.9339 107.698C59.6861 110.383 69.8292 111.209 74.0011 108.737L74.1406 107.021C70.176 108.425 61.0424 107.657 56.0625 106.118L55.9339 107.698Z" fill="#8F6E0D"/>
<path d="M74.1403 107.021C65.7794 105.206 56.0622 106.117 56.0622 106.117C56.0622 106.117 65.3667 110.278 74.1403 107.021Z" fill="#FFA300"/>
<path d="M56.5761 106.569C60.5337 108.941 70.7104 108.941 74.668 106.139V104.418C70.8303 106.139 61.6644 106.114 56.5761 104.983V106.569Z" fill="#8F6E0D"/>
<path d="M74.668 104.418C66.1874 103.287 56.5761 104.983 56.5761 104.983C56.5761 104.983 66.1874 108.376 74.668 104.418Z" fill="#FFA300"/>
<path d="M57.707 105.438C61.6646 107.81 71.8412 107.81 75.7988 105.008V103.287C71.9612 105.008 62.7953 104.983 57.707 103.852V105.438Z" fill="#8F6E0D"/>
<path d="M75.7988 103.287C67.3183 102.156 57.707 103.852 57.707 103.852C57.707 103.852 67.3183 107.245 75.7988 103.287Z" fill="#FFA300"/>
<path d="M56.5761 103.176C60.5337 105.548 70.7104 105.548 74.668 102.746V101.025C70.8303 102.746 61.6644 102.722 56.5761 101.591V103.176Z" fill="#8F6E0D"/>
<path d="M74.668 101.025C66.1874 99.8947 56.5761 101.591 56.5761 101.591C56.5761 101.591 66.1874 104.983 74.668 101.025Z" fill="#FFA300"/>
<path d="M75.8037 100.213C72.0417 102.885 61.8955 103.673 57.7328 101.185L57.5996 99.4697C61.559 100.888 70.6954 100.154 75.6809 98.6326L75.8037 100.213Z" fill="#8F6E0D"/>
<path d="M57.6004 99.4696C65.968 97.6856 75.6817 98.6324 75.6817 98.6324C75.6817 98.6324 66.3619 102.759 57.6004 99.4696Z" fill="#FFA300"/>
<path d="M56.519 98.6531C60.4171 101.122 70.5907 101.372 74.6159 98.6675L74.6582 96.9473C70.7794 98.5732 61.6169 98.3234 56.5579 97.068L56.519 98.6531Z" fill="#8F6E0D"/>
<path d="M74.6584 96.9472C66.2082 95.6084 56.5581 97.0679 56.5581 97.0679C56.5581 97.0679 66.0832 100.695 74.6584 96.9472Z" fill="#FFA300"/>
<path d="M56.5761 96.3922C60.5337 98.7642 70.7104 98.7642 74.668 95.962V94.2412C70.8303 95.962 61.6644 95.9373 56.5761 94.8066V96.3922Z" fill="#8F6E0D"/>
<path d="M74.668 94.2412C66.1874 93.1105 56.5761 94.8066 56.5761 94.8066C56.5761 94.8066 66.1874 98.1988 74.668 94.2412Z" fill="#FFA300"/>
<path d="M57.707 95.2613C61.6646 97.6333 71.8412 97.6333 75.7988 94.8311V93.1104C71.9612 94.8311 62.7953 94.8065 57.707 93.6757V95.2613Z" fill="#8F6E0D"/>
<path d="M75.7988 93.1104C67.3183 91.9796 57.707 93.6757 57.707 93.6757C57.707 93.6757 67.3183 97.068 75.7988 93.1104Z" fill="#FFA300"/>
<path d="M56.5761 93.0006C60.5337 95.3726 70.7104 95.3726 74.668 92.5704V90.8496C70.8303 92.5704 61.6644 92.5457 56.5761 91.415V93.0006Z" fill="#8F6E0D"/>
<path d="M74.668 90.8496C66.1874 89.7189 56.5761 91.415 56.5761 91.415C56.5761 91.415 66.1874 94.8072 74.668 90.8496Z" fill="#FFA300"/>
<path d="M75.8037 90.0367C72.0417 92.708 61.8955 93.4959 57.7328 91.0086L57.5996 89.293C61.559 90.7114 70.6954 89.9772 75.6809 88.4558L75.8037 90.0367Z" fill="#8F6E0D"/>
<path d="M57.6004 89.2928C65.968 87.5088 75.6817 88.4557 75.6817 88.4557C75.6817 88.4557 66.3619 92.5819 57.6004 89.2928Z" fill="#FFA300"/>
<path d="M56.519 88.4764C60.4171 90.9449 70.5907 91.1949 74.6159 88.4907L74.6582 86.7705C70.7794 88.3965 61.6169 88.1467 56.5579 86.8913L56.519 88.4764Z" fill="#8F6E0D"/>
<path d="M74.6584 86.7704C66.2082 85.4317 56.5581 86.8912 56.5581 86.8912C56.5581 86.8912 66.0832 90.5185 74.6584 86.7704Z" fill="#FFA300"/>
<path d="M73.5762 87.3463C69.6187 89.7183 59.442 89.7183 55.4844 86.9161V85.1953C59.322 86.9161 68.4879 86.8914 73.5762 85.7607V87.3463Z" fill="#8F6E0D"/>
<path d="M55.4844 85.1953C63.9649 84.0646 73.5762 85.7607 73.5762 85.7607C73.5762 85.7607 63.9649 89.1529 55.4844 85.1953Z" fill="#FFA300"/>
<path d="M72.4454 86.2154C68.4878 88.5874 58.3111 88.5874 54.3535 85.7852V84.0645C58.1912 85.7852 67.357 85.7606 72.4454 84.6298V86.2154Z" fill="#8F6E0D"/>
<path d="M54.3535 84.0645C62.8341 82.9337 72.4454 84.6298 72.4454 84.6298C72.4454 84.6298 62.8341 88.0221 54.3535 84.0645Z" fill="#FFA300"/>
<path d="M73.5762 83.9537C69.6187 86.3257 59.442 86.3257 55.4844 83.5235V81.8027C59.322 83.5235 68.4879 83.4988 73.5762 82.3681V83.9537Z" fill="#8F6E0D"/>
<path d="M55.4844 81.8028C63.9649 80.672 73.5762 82.3681 73.5762 82.3681C73.5762 82.3681 63.9649 85.7604 55.4844 81.8028Z" fill="#FFA300"/>
<path d="M54.3506 80.9908C58.1126 83.6621 68.2588 84.45 72.4215 81.9627L72.5547 80.2471C68.5953 81.6655 59.4589 80.9313 54.4734 79.41L54.3506 80.9908Z" fill="#8F6E0D"/>
<path d="M72.5539 80.2469C64.1863 78.4629 54.4726 79.4098 54.4726 79.4098C54.4726 79.4098 63.7924 83.536 72.5539 80.2469Z" fill="#FFA300"/>
<path fill-rule="evenodd" clip-rule="evenodd" d="M50.1845 74.0692C50.4838 73.9802 50.7986 74.1506 50.8877 74.4499L52.3391 79.3268C52.4281 79.6261 52.2577 79.9409 51.9585 80.03C51.6592 80.119 51.3444 79.9486 51.2553 79.6493L50.1877 76.062C37.8878 97.7254 14.1346 111.625 3.61905 115.93C3.33008 116.048 2.99993 115.909 2.88164 115.62C2.76335 115.332 2.90172 115.001 3.19069 114.883C13.5801 110.63 37.0471 96.8777 49.1791 75.5482L45.6301 76.6044C45.3308 76.6935 45.016 76.5231 44.927 76.2238C44.8379 75.9245 45.0083 75.6097 45.3076 75.5206L50.1845 74.0692Z" fill="#165C7D"/>
</g>
<defs>
<clipPath id="clip0_19798_33522">
<rect width="124.73" height="160" fill="white" transform="translate(0.722656 0.000976562)"/>
</clipPath>
</defs>
</svg>
