<svg width="167" height="160" viewBox="0 0 167 160" fill="none" xmlns="http://www.w3.org/2000/svg">
<path opacity="0.3" d="M166.398 66.0645H116.85V90.8386H161.237C164.088 90.8386 166.398 88.5279 166.398 85.6774V66.0645Z" fill="#E1E5E7"/>
<path opacity="0.3" d="M49.7539 135.226H0.205521V160H44.5926C47.4431 160 49.7539 157.689 49.7539 154.838V135.226Z" fill="#E1E5E7"/>
<path d="M11.5605 91.8714C11.5605 86.1704 16.1821 81.5488 21.8831 81.5488H145.754C151.455 81.5488 156.077 86.1704 156.077 91.8714V137.291C156.077 142.992 151.455 147.613 145.754 147.613H11.5605V91.8714Z" fill="#C8CCD0"/>
<path d="M41.4941 33.0322H124.075L114.331 126.577C114.002 129.732 111.342 132.129 108.17 132.129H57.3986C54.2264 132.129 51.5671 129.732 51.2384 126.577L41.4941 33.0322Z" fill="#0684AC"/>
<path d="M86.9133 120.133C86.9133 121.057 86.2076 121.807 85.3384 121.807H81.2625C80.3919 121.807 79.6875 121.057 79.6875 120.133V50.19C79.6875 49.2663 80.3919 48.5163 81.2625 48.5163H85.3384C86.2076 48.5163 86.9133 49.2663 86.9133 50.19V120.133Z" fill="#99CBD0"/>
<path fill-rule="evenodd" clip-rule="evenodd" d="M85.881 120.133C85.881 120.547 85.5794 120.774 85.3384 120.774H81.2625C81.0206 120.774 80.7198 120.547 80.7198 120.133V50.19C80.7198 49.7757 81.0207 49.5486 81.2625 49.5486H85.3384C85.5793 49.5486 85.881 49.7763 85.881 50.19V120.133ZM85.3384 121.807C86.2076 121.807 86.9133 121.057 86.9133 120.133V50.19C86.9133 49.2663 86.2076 48.5163 85.3384 48.5163H81.2625C80.3919 48.5163 79.6875 49.2663 79.6875 50.19V120.133C79.6875 121.057 80.3919 121.807 81.2625 121.807H85.3384Z" fill="#66B1B9"/>
<path d="M102.245 120.298C102.161 121.217 101.404 121.888 100.554 121.799L96.5672 121.374C96.1581 121.331 95.7836 121.114 95.5233 120.771C95.2616 120.428 95.1394 119.988 95.1793 119.546L101.518 50.0225C101.602 49.1042 102.358 48.4341 103.209 48.5245L107.196 48.9463C107.604 48.9894 107.98 49.206 108.24 49.5504C108.5 49.8934 108.624 50.3324 108.584 50.7744L102.245 120.298Z" fill="#99CBD0"/>
<path fill-rule="evenodd" clip-rule="evenodd" d="M101.217 120.204C101.178 120.625 100.867 120.793 100.662 120.772C100.662 120.772 100.663 120.772 100.662 120.772L96.6741 120.347C96.5652 120.336 96.4435 120.276 96.3456 120.147L96.3441 120.145C96.246 120.017 96.1897 119.835 96.2073 119.639C96.2073 119.639 96.2073 119.639 96.2073 119.639L102.546 50.1162C102.585 49.6959 102.894 49.5292 103.1 49.551L107.087 49.9729C107.197 49.9844 107.319 50.0445 107.416 50.1729L107.418 50.1745C107.517 50.3058 107.573 50.4872 107.556 50.681C107.556 50.6813 107.556 50.6808 107.556 50.681L101.217 120.204ZM108.584 50.7744C108.624 50.3324 108.5 49.8934 108.24 49.5504C107.98 49.206 107.604 48.9894 107.196 48.9463L103.209 48.5245C102.358 48.4341 101.602 49.1042 101.518 50.0225L95.1793 119.546C95.1394 119.988 95.2616 120.428 95.5233 120.771C95.7836 121.114 96.1581 121.331 96.5672 121.374L100.554 121.799C101.404 121.888 102.161 121.217 102.245 120.298L108.584 50.7744Z" fill="#66B1B9"/>
<path d="M63.3245 120.298C63.4082 121.217 64.1651 121.888 65.0151 121.799L69.0031 121.374C69.4108 121.331 69.7853 121.114 70.0456 120.771C70.3073 120.428 70.4294 119.988 70.3909 119.546L64.0509 50.0225C63.9686 49.1042 63.2116 48.4341 62.3617 48.5245L58.3736 48.9463C57.9659 48.9894 57.5901 49.206 57.3298 49.5504C57.0695 49.8934 56.946 50.3324 56.9859 50.7744L63.3245 120.298Z" fill="#99CBD0"/>
<path fill-rule="evenodd" clip-rule="evenodd" d="M64.3525 120.204L64.3525 120.204L58.0139 50.6817C58.0139 50.6815 58.0139 50.6814 58.0139 50.6812C57.9966 50.4873 58.0524 50.3058 58.1521 50.1745L58.1533 50.1729C58.2504 50.0444 58.3728 49.9844 58.482 49.9729L58.4822 49.9729L62.4703 49.551L62.4709 49.551C62.6754 49.5292 62.9853 49.6962 63.0228 50.1147L63.0229 50.1163L69.3626 119.636C69.3626 119.636 69.3626 119.637 69.3627 119.637C69.3796 119.835 69.3226 120.017 69.2248 120.145L69.2233 120.147C69.1251 120.277 69.0031 120.336 68.8958 120.347L68.8938 120.347L64.9074 120.772C64.9073 120.772 64.9071 120.772 64.9069 120.772C64.7019 120.793 64.3909 120.626 64.3525 120.204ZM70.3909 119.546L64.0509 50.0225C63.9686 49.1042 63.2116 48.4341 62.3617 48.5245L58.3736 48.9464C57.9659 48.9894 57.5901 49.2061 57.3298 49.5504C57.0695 49.8934 56.946 50.3325 56.9859 50.7744L63.3245 120.298C63.4082 121.217 64.1651 121.888 65.0151 121.799L69.0031 121.374C69.4108 121.331 69.7854 121.114 70.0456 120.771C70.3073 120.428 70.4294 119.988 70.3909 119.546Z" fill="#66B1B9"/>
<path d="M92.5804 3.2259L92.3451 3.24518L69.2046 7.00121C68.4201 7.12783 67.8847 7.87106 68.0127 8.6542L68.855 13.8471L94.8404 9.62866L93.9981 4.4357C93.8852 3.73514 93.2893 3.2259 92.5804 3.2259ZM41.5538 22.9696C41.3584 21.7501 41.6461 20.5252 42.37 19.5218C43.0926 18.5185 44.162 17.8578 45.3842 17.6596L65.099 14.4582L63.9786 7.54625C63.7557 6.18229 64.686 4.8899 66.0555 4.66693L94.594 0.0313988C94.7289 0.0121307 94.8679 -0.000253677 95 -0.000253677C96.2346 -0.000253677 97.2765 0.88612 97.4747 2.10831L98.5951 9.01756L118.313 5.81618C118.563 5.77626 118.815 5.75425 119.063 5.75425C121.341 5.75425 123.259 7.39348 123.625 9.64518L124.148 12.8699L42.0796 26.1943L41.5538 22.9696Z" fill="#0684AC"/>
<path d="M135.431 33.0318C135.431 42.1534 128.036 49.5479 118.915 49.5479C109.793 49.5479 102.398 42.1534 102.398 33.0318C102.398 23.9101 109.793 16.5156 118.915 16.5156C128.036 16.5156 135.431 23.9101 135.431 33.0318Z" fill="#00C246"/>
<path fill-rule="evenodd" clip-rule="evenodd" d="M127.903 26.108C128.306 26.5111 128.306 27.1647 127.903 27.5678L116.548 38.9227C116.145 39.3258 115.492 39.3258 115.089 38.9227L109.927 33.7614C109.524 33.3583 109.524 32.7047 109.927 32.3016C110.33 31.8984 110.984 31.8984 111.387 32.3016L115.819 36.7329L126.443 26.108C126.847 25.7049 127.5 25.7049 127.903 26.108Z" fill="white"/>
<path fill-rule="evenodd" clip-rule="evenodd" d="M145.032 12.1155C145.182 12.2874 145.164 12.5482 144.992 12.698L136.96 19.6967C136.788 19.8465 136.528 19.8286 136.378 19.6566C136.228 19.4847 136.246 19.2239 136.418 19.0741L144.449 12.0754C144.621 11.9256 144.882 11.9435 145.032 12.1155Z" fill="#040F14"/>
<path fill-rule="evenodd" clip-rule="evenodd" d="M145.748 23.5989C145.776 23.3726 145.616 23.1665 145.389 23.1385L138.604 22.2999C138.377 22.2719 138.171 22.4327 138.143 22.659C138.115 22.8853 138.276 23.0915 138.503 23.1195L145.288 23.9581C145.514 23.986 145.72 23.8252 145.748 23.5989Z" fill="#040F14"/>
<path fill-rule="evenodd" clip-rule="evenodd" d="M135.658 9.96728C135.433 9.92765 135.219 10.0776 135.179 10.3022L133.991 17.0353C133.952 17.2598 134.102 17.474 134.326 17.5136C134.551 17.5533 134.765 17.4033 134.805 17.1788L135.993 10.4456C136.032 10.2211 135.882 10.0069 135.658 9.96728Z" fill="#040F14"/>
</svg>
