<svg width="167" height="160" viewBox="0 0 167 160" fill="none" xmlns="http://www.w3.org/2000/svg">
<path opacity="0.3" d="M166.193 66.0654H116.645V90.8396H161.032C163.883 90.8396 166.193 88.5288 166.193 85.6783V66.0654Z" fill="#E1E5E7"/>
<path opacity="0.3" d="M49.5488 135.227H0.000442505V160.001H44.3875C47.238 160.001 49.5488 157.69 49.5488 154.839V135.227Z" fill="#E1E5E7"/>
<path d="M11.3555 91.8724C11.3555 86.1714 15.977 81.5498 21.678 81.5498H145.549C151.25 81.5498 155.872 86.1714 155.872 91.8724V137.292C155.872 142.993 151.25 147.614 145.549 147.614H11.3555V91.8724Z" fill="#C8CCD0"/>
<path d="M41.2891 33.0332H123.87L114.125 126.578C113.797 129.733 111.137 132.13 107.965 132.13H57.1935C54.0214 132.13 51.362 129.733 51.0333 126.578L41.2891 33.0332Z" fill="#0684AC"/>
<path d="M86.7082 120.134C86.7082 121.058 86.0026 121.808 85.1333 121.808H81.0574C80.1868 121.808 79.4824 121.058 79.4824 120.134V50.191C79.4824 49.2672 80.1868 48.5173 81.0574 48.5173H85.1333C86.0026 48.5173 86.7082 49.2672 86.7082 50.191V120.134Z" fill="#99CBD0"/>
<path fill-rule="evenodd" clip-rule="evenodd" d="M85.676 120.134C85.676 120.548 85.3744 120.775 85.1333 120.775H81.0574C80.8155 120.775 80.5147 120.548 80.5147 120.134V50.191C80.5147 49.7767 80.8157 49.5496 81.0574 49.5496H85.1333C85.3742 49.5496 85.676 49.7773 85.676 50.191V120.134ZM85.1333 121.808C86.0026 121.808 86.7082 121.058 86.7082 120.134V50.191C86.7082 49.2672 86.0026 48.5173 85.1333 48.5173H81.0574C80.1868 48.5173 79.4824 49.2672 79.4824 50.191V120.134C79.4824 121.058 80.1868 121.808 81.0574 121.808H85.1333Z" fill="#66B1B9"/>
<path d="M102.04 120.299C101.956 121.218 101.199 121.889 100.349 121.8L96.3621 121.375C95.953 121.332 95.5785 121.115 95.3182 120.772C95.0565 120.429 94.9343 119.989 94.9742 119.547L101.313 50.0235C101.397 49.1052 102.153 48.4351 103.004 48.5255L106.991 48.9473C107.399 48.9904 107.775 49.207 108.035 49.5514C108.295 49.8943 108.419 50.3334 108.379 50.7754L102.04 120.299Z" fill="#99CBD0"/>
<path fill-rule="evenodd" clip-rule="evenodd" d="M101.012 120.205C100.973 120.626 100.662 120.794 100.457 120.773C100.457 120.773 100.457 120.773 100.457 120.773L96.4691 120.348C96.3601 120.337 96.2384 120.277 96.1405 120.148L96.139 120.146C96.0409 120.018 95.9846 119.836 96.0022 119.64C96.0022 119.64 96.0022 119.64 96.0022 119.64L102.341 50.1172C102.38 49.6969 102.689 49.5301 102.895 49.5519L106.882 49.9738C106.992 49.9854 107.114 50.0454 107.211 50.1739L107.213 50.1755C107.312 50.3068 107.368 50.4882 107.351 50.682C107.351 50.6822 107.351 50.6818 107.351 50.682L101.012 120.205ZM108.379 50.7754C108.419 50.3334 108.295 49.8943 108.035 49.5514C107.775 49.207 107.399 48.9904 106.991 48.9473L103.004 48.5255C102.153 48.4351 101.397 49.1052 101.313 50.0235L94.9742 119.547C94.9343 119.989 95.0565 120.429 95.3182 120.772C95.5785 121.115 95.953 121.332 96.3621 121.375L100.349 121.8C101.199 121.889 101.956 121.218 102.04 120.299L108.379 50.7754Z" fill="#66B1B9"/>
<path d="M63.1194 120.299C63.2031 121.218 63.9601 121.889 64.81 121.8L68.7981 121.375C69.2058 121.332 69.5803 121.115 69.8406 120.772C70.1022 120.429 70.2243 119.989 70.1858 119.547L63.8458 50.0235C63.7635 49.1052 63.0065 48.4351 62.1566 48.5255L58.1686 48.9473C57.7608 48.9904 57.385 49.207 57.1247 49.5514C56.8645 49.8943 56.7409 50.3334 56.7808 50.7754L63.1194 120.299Z" fill="#99CBD0"/>
<path fill-rule="evenodd" clip-rule="evenodd" d="M64.1474 120.205L64.1474 120.205L57.8089 50.6827C57.8088 50.6825 57.8088 50.6823 57.8088 50.6822C57.7915 50.4883 57.8473 50.3068 57.947 50.1755L57.9482 50.1738C58.0453 50.0454 58.1677 49.9854 58.2769 49.9739L58.2771 49.9738L62.2652 49.552L62.2658 49.5519C62.4704 49.5302 62.7802 49.6972 62.8177 50.1157L62.8179 50.1172L69.1575 119.637C69.1575 119.637 69.1576 119.638 69.1576 119.638C69.1745 119.836 69.1175 120.018 69.0197 120.146L69.0182 120.148C68.92 120.278 68.7981 120.337 68.6907 120.348L68.6887 120.348L64.7024 120.773C64.7022 120.773 64.702 120.773 64.7018 120.773C64.4968 120.794 64.1858 120.627 64.1474 120.205ZM70.1858 119.547L63.8459 50.0235C63.7635 49.1052 63.0065 48.4351 62.1566 48.5255L58.1686 48.9473C57.7608 48.9904 57.385 49.207 57.1247 49.5514C56.8645 49.8943 56.7409 50.3334 56.7808 50.7754L63.1194 120.299C63.2031 121.218 63.9601 121.889 64.81 121.8L68.7981 121.375C69.2058 121.332 69.5803 121.115 69.8406 120.772C70.1022 120.429 70.2243 119.989 70.1858 119.547Z" fill="#66B1B9"/>
<path d="M92.3754 3.22688L92.14 3.24615L68.9995 7.00218C68.215 7.12881 67.6796 7.87203 67.8076 8.65517L68.6499 13.8481L94.6353 9.62964L93.793 4.43668C93.6801 3.73612 93.0842 3.22688 92.3754 3.22688ZM41.3488 22.9705C41.1533 21.7511 41.441 20.5262 42.1649 19.5228C42.8875 18.5194 43.9569 17.8588 45.1791 17.6606L64.8939 14.4592L63.7736 7.54723C63.5506 6.18327 64.481 4.89088 65.8504 4.66791L94.3889 0.0323753C94.5238 0.0131073 94.6628 0.000722885 94.795 0.000722885C96.0295 0.000722885 97.0714 0.887096 97.2696 2.10929L98.39 9.01853L118.107 5.81715C118.358 5.77724 118.61 5.75522 118.858 5.75522C121.135 5.75522 123.054 7.39445 123.42 9.64615L123.943 12.8709L41.8745 26.1953L41.3488 22.9705Z" fill="#0684AC"/>
<path d="M135.226 33.0327C135.226 42.1543 127.831 49.5489 118.709 49.5489C109.588 49.5489 102.193 42.1543 102.193 33.0327C102.193 23.9111 109.588 16.5166 118.709 16.5166C127.831 16.5166 135.226 23.9111 135.226 33.0327Z" fill="#FFA300"/>
<path fill-rule="evenodd" clip-rule="evenodd" d="M119 23.8008C114.029 23.8008 110 27.8302 110 32.8008C110 37.7713 114.029 41.8008 119 41.8008C123.971 41.8008 128 37.7713 128 32.8008C128 27.8302 123.971 23.8008 119 23.8008ZM108 32.8008C108 26.7256 112.925 21.8008 119 21.8008C125.075 21.8008 130 26.7256 130 32.8008C130 38.8759 125.075 43.8008 119 43.8008C112.925 43.8008 108 38.8759 108 32.8008Z" fill="white"/>
<path fill-rule="evenodd" clip-rule="evenodd" d="M118 37.8008C118 37.2485 118.448 36.8008 119 36.8008H119.01C119.562 36.8008 120.01 37.2485 120.01 37.8008C120.01 38.3531 119.562 38.8008 119.01 38.8008H119C118.448 38.8008 118 38.3531 118 37.8008Z" fill="white"/>
<path fill-rule="evenodd" clip-rule="evenodd" d="M119.258 28.8251C118.793 28.7453 118.314 28.8327 117.907 29.072C117.499 29.3114 117.19 29.6871 117.033 30.1326C116.85 30.6536 116.279 30.9274 115.758 30.7441C115.237 30.5608 114.963 29.9899 115.147 29.4689C115.46 28.5778 116.079 27.8264 116.893 27.3478C117.708 26.8692 118.665 26.6942 119.596 26.8539C120.527 27.0136 121.372 27.4976 121.98 28.2203C122.588 28.9428 122.921 29.8573 122.92 30.8017C122.92 32.332 121.785 33.3427 120.975 33.8828C120.539 34.1733 120.111 34.3868 119.795 34.5271C119.636 34.5979 119.502 34.6516 119.405 34.6884C119.357 34.7068 119.317 34.7211 119.289 34.7313L119.254 34.7434L119.243 34.7472L119.239 34.7485L119.237 34.749C119.237 34.749 119.236 34.7495 118.92 33.8008L119.236 34.7495C118.712 34.9241 118.146 34.641 117.971 34.117C117.797 33.5934 118.079 33.0275 118.603 32.8524L118.601 32.8529L118.603 32.8524L118.619 32.8468C118.634 32.8414 118.659 32.8322 118.693 32.8194C118.76 32.7937 118.861 32.7537 118.983 32.6995C119.229 32.5898 119.551 32.4283 119.865 32.2187C120.555 31.759 120.92 31.2699 120.92 30.8008L120.92 30.7993C120.921 30.327 120.754 29.8696 120.45 29.5083C120.146 29.147 119.724 28.9049 119.258 28.8251Z" fill="white"/>
<path fill-rule="evenodd" clip-rule="evenodd" d="M144.827 12.1165C144.977 12.2884 144.959 12.5492 144.787 12.699L136.755 19.6977C136.583 19.8475 136.323 19.8295 136.173 19.6576C136.023 19.4857 136.041 19.2249 136.213 19.0751L144.244 12.0764C144.416 11.9266 144.677 11.9445 144.827 12.1165Z" fill="#040F14"/>
<path fill-rule="evenodd" clip-rule="evenodd" d="M145.543 23.5999C145.571 23.3736 145.411 23.1674 145.184 23.1395L138.399 22.3009C138.172 22.2729 137.966 22.4337 137.938 22.66C137.91 22.8863 138.071 23.0925 138.297 23.1204L145.083 23.959C145.309 23.987 145.515 23.8262 145.543 23.5999Z" fill="#040F14"/>
<path fill-rule="evenodd" clip-rule="evenodd" d="M135.453 9.96825C135.228 9.92863 135.014 10.0786 134.974 10.3031L133.786 17.0362C133.747 17.2608 133.897 17.475 134.121 17.5146C134.346 17.5542 134.56 17.4043 134.6 17.1797L135.788 10.4466C135.827 10.222 135.677 10.0079 135.453 9.96825Z" fill="#040F14"/>
</svg>
