<svg width="218" height="160" viewBox="0 0 218 160" fill="none" xmlns="http://www.w3.org/2000/svg">
<path d="M217.405 144.124C217.405 152.893 168.737 160.002 108.702 160.002C48.6677 160.002 0 152.893 0 144.124C0 135.355 48.6677 128.246 108.702 128.246C168.737 128.246 217.405 135.355 217.405 144.124Z" fill="#C8CCD0"/>
<path d="M130.592 29.5215L156.444 76.6352L123.25 94.8492L97.3981 47.7356L130.592 29.5215Z" fill="#69757B"/>
<path d="M132.25 30.0039L158.102 77.1176L124.909 95.3317L99.0563 48.218L132.25 30.0039Z" fill="#016D33"/>
<path fill-rule="evenodd" clip-rule="evenodd" d="M150.473 74.8953L130.026 37.6327L106.684 50.4413L127.131 87.7039L150.473 74.8953ZM130.316 36.6377L105.689 50.1514L126.841 88.6989L151.468 75.1852L130.316 36.6377Z" fill="#00C246"/>
<path d="M142.867 35.8867L168.719 83.0004L135.526 101.214L109.673 54.1008L142.867 35.8867Z" fill="#69757B"/>
<path d="M144.525 36.3691L170.378 83.4828L137.184 101.697L111.332 54.5832L144.525 36.3691Z" fill="#016D33"/>
<path fill-rule="evenodd" clip-rule="evenodd" d="M162.749 81.2605L142.302 43.9979L118.959 56.8065L139.406 94.0692L162.749 81.2605ZM142.592 43.0029L117.964 56.5166L139.116 95.0642L163.744 81.5505L142.592 43.0029Z" fill="#00C246"/>
<path d="M109.517 43.1571C109.517 52.151 102.226 59.442 93.2323 59.442C84.2383 59.442 76.9473 52.151 76.9473 43.1571C76.9473 34.1631 84.2383 26.8721 93.2323 26.8721C102.226 26.8721 109.517 34.1631 109.517 43.1571Z" fill="#69757B"/>
<path d="M113.588 43.1571C113.588 52.151 106.297 59.442 97.3026 59.442C88.3086 59.442 81.0176 52.151 81.0176 43.1571C81.0176 34.1631 88.3086 26.8721 97.3026 26.8721C106.297 26.8721 113.588 34.1631 113.588 43.1571Z" fill="#FFA300"/>
<path d="M96.9614 51.4579V49.4541C96.2298 49.4413 95.5301 49.3777 94.8621 49.2632C94.2006 49.1487 93.6599 48.9992 93.24 48.8148V47.2689C93.6789 47.4725 94.2419 47.6506 94.9289 47.8033C95.616 47.956 96.2934 48.0387 96.9614 48.0514V43.8529C96.1217 43.6175 95.4251 43.3504 94.8717 43.0514C94.3246 42.746 93.9143 42.3739 93.6408 41.935C93.3672 41.496 93.2305 40.9649 93.2305 40.3415C93.2305 39.6926 93.3831 39.1392 93.6885 38.6812C94.0002 38.2168 94.4359 37.8542 94.9957 37.5934C95.5555 37.3326 96.2107 37.1831 96.9614 37.1449V35.4941H98.1255V37.1258C98.8062 37.1449 99.4264 37.2212 99.9862 37.3548C100.546 37.4821 101.064 37.6474 101.542 37.851L101.045 39.1773C100.613 39.0056 100.145 38.8593 99.6427 38.7384C99.1401 38.6176 98.6344 38.5349 98.1255 38.4903V42.6602C98.9779 42.9083 99.6904 43.1723 100.263 43.4522C100.842 43.7321 101.278 44.0787 101.57 44.4922C101.863 44.9057 102.009 45.4401 102.009 46.0953C102.009 47.024 101.669 47.7747 100.988 48.3472C100.307 48.9134 99.3532 49.2569 98.1255 49.3777V51.4579H96.9614ZM98.1255 47.9655C98.908 47.8892 99.49 47.7015 99.8717 47.4025C100.26 47.0972 100.454 46.6964 100.454 46.2002C100.454 45.844 100.377 45.5514 100.225 45.3224C100.078 45.0934 99.8367 44.8962 99.4996 44.7308C99.1624 44.559 98.7044 44.3968 98.1255 44.2441V47.9655ZM96.9614 42.2594V38.5285C96.4843 38.5603 96.0835 38.6494 95.7591 38.7957C95.4347 38.942 95.1898 39.1328 95.0244 39.3682C94.8653 39.6036 94.7858 39.8835 94.7858 40.2079C94.7858 40.5832 94.8558 40.8981 94.9957 41.1525C95.142 41.4006 95.3742 41.6137 95.6923 41.7919C96.0167 41.9636 96.4398 42.1195 96.9614 42.2594Z" fill="#754C04"/>
<path d="M41.5273 65.9569C41.5273 59.2114 46.9956 53.7432 53.7411 53.7432H157.558C164.303 53.7432 169.772 59.2114 169.772 65.9569V134.354C169.772 141.099 164.303 146.568 157.558 146.568H53.7411C46.9956 146.568 41.5273 141.099 41.5273 134.354V65.9569Z" fill="#333333"/>
<path d="M42.748 64.7352C42.748 57.9898 48.2163 52.5215 54.9618 52.5215H158.779C165.524 52.5215 170.992 57.9898 170.992 64.7352V133.132C170.992 139.878 165.524 145.346 158.779 145.346H54.9618C48.2163 145.346 42.748 139.878 42.748 133.132V64.7352Z" fill="#8F6E0D"/>
<path d="M156.336 90.3842C156.336 89.0351 157.43 87.9414 158.779 87.9414H175.878C177.227 87.9414 178.321 89.0351 178.321 90.3842V107.483C178.321 108.832 177.227 109.926 175.878 109.926H158.779C157.43 109.926 156.336 108.832 156.336 107.483V90.3842Z" fill="#333333"/>
<path d="M157.557 89.1625C157.557 87.8134 158.65 86.7197 159.999 86.7197H177.099C178.448 86.7197 179.541 87.8134 179.541 89.1625V106.262C179.541 107.611 178.448 108.704 177.099 108.704H159.999C158.65 108.704 157.557 107.611 157.557 106.262V89.1625Z" fill="#8F6E0D"/>
<path d="M174.657 97.7123C174.657 101.085 171.923 103.819 168.55 103.819C165.177 103.819 162.443 101.085 162.443 97.7123C162.443 94.3396 165.177 91.6055 168.55 91.6055C171.923 91.6055 174.657 94.3396 174.657 97.7123Z" fill="#333333"/>
<path d="M86.3102 16.2869C86.3102 25.2809 79.0192 32.5719 70.0252 32.5719C61.0313 32.5719 53.7402 25.2809 53.7402 16.2869C53.7402 7.29299 61.0313 0.00195312 70.0252 0.00195312C79.0192 0.00195312 86.3102 7.29299 86.3102 16.2869Z" fill="#69757B"/>
<path d="M90.3805 16.2869C90.3805 25.2809 83.0895 32.5719 74.0955 32.5719C65.1016 32.5719 57.8105 25.2809 57.8105 16.2869C57.8105 7.29299 65.1016 0.00195312 74.0955 0.00195312C83.0895 0.00195312 90.3805 7.29299 90.3805 16.2869Z" fill="#FFA300"/>
<path d="M73.7544 24.5878V22.5839C73.0228 22.5712 72.3231 22.5076 71.6551 22.3931C70.9935 22.2786 70.4528 22.1291 70.033 21.9446V20.3988C70.4719 20.6024 71.0349 20.7805 71.7219 20.9332C72.4089 21.0859 73.0864 21.1686 73.7544 21.1813V16.9828C72.9147 16.7474 72.2181 16.4803 71.6647 16.1813C71.1176 15.8759 70.7073 15.5038 70.4337 15.0649C70.1602 14.6259 70.0234 14.0948 70.0234 13.4714C70.0234 12.8225 70.1761 12.2691 70.4815 11.811C70.7932 11.3467 71.2289 10.9841 71.7887 10.7233C72.3485 10.4624 73.0037 10.313 73.7544 10.2748V8.62402H74.9185V10.2557C75.5991 10.2748 76.2194 10.3511 76.7792 10.4847C77.339 10.6119 77.8574 10.7773 78.3345 10.9809L77.8383 12.3072C77.4058 12.1355 76.9382 11.9892 76.4357 11.8683C75.9331 11.7474 75.4274 11.6647 74.9185 11.6202V15.7901C75.7709 16.0381 76.4834 16.3021 77.0559 16.582C77.6348 16.8619 78.0705 17.2086 78.3631 17.6221C78.6558 18.0356 78.8021 18.57 78.8021 19.2252C78.8021 20.1539 78.4617 20.9046 77.7811 21.4771C77.1004 22.0432 76.1462 22.3867 74.9185 22.5076V24.5878H73.7544ZM74.9185 21.0954C75.7009 21.0191 76.283 20.8314 76.6647 20.5324C77.0527 20.2271 77.2467 19.8263 77.2467 19.3301C77.2467 18.9739 77.1704 18.6813 77.0177 18.4523C76.8714 18.2233 76.6297 18.0261 76.2925 17.8607C75.9554 17.6889 75.4974 17.5267 74.9185 17.374V21.0954ZM73.7544 15.3893V11.6584C73.2773 11.6902 72.8765 11.7792 72.5521 11.9256C72.2276 12.0719 71.9827 12.2627 71.8173 12.4981C71.6583 12.7334 71.5788 13.0133 71.5788 13.3378C71.5788 13.7131 71.6488 14.028 71.7887 14.2824C71.935 14.5305 72.1672 14.7436 72.4853 14.9217C72.8097 15.0935 73.2327 15.2493 73.7544 15.3893Z" fill="#754C04"/>
</svg>
