<svg width="314" height="160" viewBox="0 0 314 160" fill="none" xmlns="http://www.w3.org/2000/svg">
<path d="M313.348 143.855C313.348 152.772 243.357 160.002 157.018 160.002C70.6789 160.002 0.6875 152.772 0.6875 143.855C0.6875 134.937 70.6789 127.708 157.018 127.708C243.357 127.708 313.348 134.937 313.348 143.855Z" fill="#C8CCD0"/>
<path d="M116.609 10.7876C92.6469 -3.71219 66.7678 -3.47381 44.7227 10.7876V69.7419L81.1451 95.4148L116.609 69.7419V10.7876Z" fill="#69757B"/>
<path d="M239.749 87.6974L239.853 38.2966L227.219 39.7353L229.575 48.6611L225.536 56.3978L230.525 66.1324L226.057 72.7398L231.214 75.4327L228.201 78.3862L231.638 81.9912L227.387 86.4486L232.919 90.8083L239.749 87.6974Z" fill="#FFA300"/>
<path fill-rule="evenodd" clip-rule="evenodd" d="M225.147 56.1939C225.08 56.3206 225.08 56.4715 225.145 56.5986L230.016 66.1015L225.693 72.4931C225.623 72.597 225.6 72.726 225.631 72.8477C225.662 72.9693 225.743 73.0721 225.854 73.1301L230.475 75.5425L227.894 78.0717C227.722 78.2403 227.718 78.5157 227.884 78.69L231.031 81.9912L227.069 86.1447C226.984 86.2344 226.94 86.3561 226.949 86.4798C226.958 86.6035 227.018 86.7177 227.116 86.7945L232.648 91.1542C232.777 91.2562 232.953 91.2774 233.103 91.2091L239.933 88.0982C240.09 88.0268 240.191 87.8706 240.191 87.6983L240.294 38.2975C240.295 38.1719 240.241 38.0522 240.148 37.9684C240.054 37.8846 239.929 37.8449 239.804 37.8591L227.17 39.2978C227.043 39.3122 226.929 39.3812 226.857 39.4868C226.784 39.5923 226.762 39.7241 226.794 39.8477L229.107 48.6085L225.147 56.1939ZM227.776 40.1152L239.413 38.7901L239.311 87.4138L232.982 90.2963L228.041 86.4023L231.958 82.2951C232.12 82.125 232.12 81.8575 231.958 81.6874L228.821 78.3967L231.524 75.7472C231.625 75.6485 231.672 75.5076 231.651 75.3681C231.631 75.2287 231.545 75.1076 231.42 75.0423L226.699 72.5778L230.891 66.3791C230.981 66.246 230.991 66.0745 230.918 65.9315L226.033 56.3996L229.967 48.8649C230.017 48.7676 230.03 48.6548 230.002 48.5487L227.776 40.1152Z" fill="#FFA300"/>
<path fill-rule="evenodd" clip-rule="evenodd" d="M248.791 25.081C247.832 34.5802 239.353 41.5029 229.854 40.5433C220.355 39.5838 213.432 31.1053 214.391 21.6061C215.351 12.1069 223.83 5.18413 233.329 6.14369C242.828 7.10325 249.751 15.5818 248.791 25.081ZM235.631 15.606C235.421 17.684 233.567 19.1983 231.489 18.9884C229.411 18.7785 227.896 16.9238 228.106 14.8459C228.316 12.7679 230.171 11.2536 232.249 11.4635C234.327 11.6734 235.841 13.5281 235.631 15.606Z" fill="#FFA300"/>
<path d="M118.078 10.7876C94.1157 -3.71219 68.2366 -3.47381 46.1914 10.7876V69.7419L82.6138 95.4148L118.078 69.7419V10.7876Z" fill="#00C246"/>
<path d="M114.156 13.6742C92.8075 0.564856 69.7516 0.780384 50.1113 13.6742V66.9754L82.5604 90.1865L114.156 66.9754V13.6742Z" fill="#016D33"/>
<path fill-rule="evenodd" clip-rule="evenodd" d="M75.3855 25.9971C73.7473 27.7531 72.5032 30.5736 72.5033 34.7039L68.0996 34.704C68.0995 29.6681 69.6348 25.7056 72.1656 22.993C74.6905 20.2868 78.0755 18.9723 81.4552 19.0281C88.3434 19.1416 94.7384 24.8342 94.7383 34.704L90.3346 34.704C90.3347 26.9745 85.6121 23.5009 81.3826 23.4311C79.2035 23.3952 77.0297 24.2348 75.3855 25.9971Z" fill="#69757B"/>
<path d="M60.8691 41.148C60.8691 37.4268 63.8858 34.4102 67.607 34.4102H94.5586C98.2798 34.4102 101.296 37.4268 101.296 41.148V61.3617C101.296 65.0829 98.2798 68.0996 94.5586 68.0996H67.607C63.8858 68.0996 60.8691 65.0829 60.8691 61.3617V41.148Z" fill="#69757B"/>
<path fill-rule="evenodd" clip-rule="evenodd" d="M75.5049 24.0017C73.7964 25.868 72.5032 28.8635 72.5033 33.2342L68.0996 33.2343C68.0995 27.9804 69.6699 23.8538 72.2568 21.0281C74.8407 18.2056 78.3143 16.8261 81.7928 16.8846C88.8858 17.0038 95.4122 22.9643 95.4121 33.2342L91.0084 33.2342C91.0085 25.0249 86.0803 21.3609 81.7188 21.2876C79.4701 21.2499 77.2164 22.1321 75.5049 24.0017Z" fill="#00C246"/>
<path d="M61.543 39.6783C61.543 35.9571 64.5596 32.9404 68.2809 32.9404H95.2324C98.9536 32.9404 101.97 35.9571 101.97 39.6783V59.892C101.97 63.6132 98.9536 66.6299 95.2324 66.6299H68.2809C64.5596 66.6299 61.543 63.6132 61.543 59.892V39.6783Z" fill="#00C246"/>
<path fill-rule="evenodd" clip-rule="evenodd" d="M83.0496 49.5778C83.8824 49.0393 84.4335 48.1026 84.4335 47.0371C84.4335 45.3673 83.0799 44.0137 81.4101 44.0137C79.7403 44.0137 78.3867 45.3673 78.3867 47.0371C78.3867 48.1026 78.9379 49.0393 79.7707 49.5778L78.3867 55.8056H84.4335L83.0496 49.5778Z" fill="#69757B"/>
<path fill-rule="evenodd" clip-rule="evenodd" d="M83.6551 49.5778C84.4878 49.0393 85.039 48.1026 85.039 47.0371C85.039 45.3673 83.6854 44.0137 82.0156 44.0137C80.3458 44.0137 78.9922 45.3673 78.9922 47.0371C78.9922 48.1026 79.5434 49.0393 80.3761 49.5778L78.9922 55.8056H85.039L83.6551 49.5778Z" fill="#016D33"/>
<path d="M79.9531 101.286C79.9531 100.476 80.6103 99.8184 81.421 99.8184H84.3568C85.1675 99.8184 85.8247 100.476 85.8247 101.286V107.158C85.8247 107.969 85.1675 108.626 84.3568 108.626H81.421C80.6103 108.626 79.9531 107.969 79.9531 107.158V101.286Z" fill="#616C72"/>
<path fill-rule="evenodd" clip-rule="evenodd" d="M122.523 140.92L122.523 143.855L128.394 143.855L128.394 140.92L122.523 140.92ZM121.055 143.855C121.055 144.666 121.712 145.323 122.523 145.323L128.394 145.323C129.205 145.323 129.862 144.666 129.862 143.855L129.862 140.92C129.862 140.109 129.205 139.452 128.394 139.452L122.523 139.452C121.712 139.452 121.055 140.109 121.055 140.92L121.055 143.855Z" fill="#616C72"/>
<path fill-rule="evenodd" clip-rule="evenodd" d="M82.3008 139.452V108.626H83.4751V139.452C83.4751 140.749 84.5266 141.8 85.8237 141.8H121.053V142.975H85.8237C83.8781 142.975 82.3008 141.397 82.3008 139.452Z" fill="#616C72"/>
<path d="M238.484 101.286C238.484 100.476 237.827 99.8184 237.016 99.8184H234.081C233.27 99.8184 232.613 100.476 232.613 101.286V107.158C232.613 107.969 233.27 108.626 234.081 108.626H237.016C237.827 108.626 238.484 107.969 238.484 107.158V101.286Z" fill="#616C72"/>
<path fill-rule="evenodd" clip-rule="evenodd" d="M195.915 140.92L195.915 143.855L190.043 143.855L190.043 140.92L195.915 140.92ZM197.383 143.855C197.383 144.666 196.726 145.323 195.915 145.323L190.043 145.323C189.233 145.323 188.575 144.666 188.575 143.855L188.575 140.92C188.575 140.109 189.233 139.452 190.043 139.452L195.915 139.452C196.726 139.452 197.383 140.109 197.383 140.92L197.383 143.855Z" fill="#616C72"/>
<path fill-rule="evenodd" clip-rule="evenodd" d="M236.137 139.452V108.626H234.962V139.452C234.962 140.749 233.911 141.8 232.614 141.8H197.384V142.975H232.614C234.559 142.975 236.137 141.397 236.137 139.452Z" fill="#616C72"/>
<path fill-rule="evenodd" clip-rule="evenodd" d="M131.329 142.974H129.861V141.8H131.329C131.653 141.8 131.916 142.063 131.916 142.387C131.916 142.711 131.653 142.974 131.329 142.974ZM133.678 142.387C133.678 142.063 133.941 141.8 134.265 141.8H137.201C137.525 141.8 137.788 142.063 137.788 142.387C137.788 142.711 137.525 142.974 137.201 142.974H134.265C133.941 142.974 133.678 142.711 133.678 142.387ZM139.549 142.387C139.549 142.063 139.812 141.8 140.137 141.8H143.072C143.397 141.8 143.659 142.063 143.659 142.387C143.659 142.711 143.397 142.974 143.072 142.974H140.137C139.812 142.974 139.549 142.711 139.549 142.387ZM145.421 142.387C145.421 142.063 145.684 141.8 146.008 141.8H148.944C149.268 141.8 149.531 142.063 149.531 142.387C149.531 142.711 149.268 142.974 148.944 142.974H146.008C145.684 142.974 145.421 142.711 145.421 142.387ZM151.293 142.387C151.293 142.063 151.555 141.8 151.88 141.8H154.815C155.14 141.8 155.403 142.063 155.403 142.387C155.403 142.711 155.14 142.974 154.815 142.974H151.88C151.555 142.974 151.293 142.711 151.293 142.387ZM157.164 142.387C157.164 142.063 157.427 141.8 157.751 141.8H160.687C161.011 141.8 161.274 142.063 161.274 142.387C161.274 142.711 161.011 142.974 160.687 142.974H157.751C157.427 142.974 157.164 142.711 157.164 142.387ZM163.036 142.387C163.036 142.063 163.299 141.8 163.623 141.8H166.559C166.883 141.8 167.146 142.063 167.146 142.387C167.146 142.711 166.883 142.974 166.559 142.974H163.623C163.299 142.974 163.036 142.711 163.036 142.387ZM168.907 142.387C168.907 142.063 169.17 141.8 169.494 141.8H172.43C172.754 141.8 173.017 142.063 173.017 142.387C173.017 142.711 172.754 142.974 172.43 142.974H169.494C169.17 142.974 168.907 142.711 168.907 142.387ZM174.779 142.387C174.779 142.063 175.042 141.8 175.366 141.8H178.302C178.626 141.8 178.889 142.063 178.889 142.387C178.889 142.711 178.626 142.974 178.302 142.974H175.366C175.042 142.974 174.779 142.711 174.779 142.387ZM180.65 142.387C180.65 142.063 180.913 141.8 181.237 141.8H184.173C184.498 141.8 184.76 142.063 184.76 142.387C184.76 142.711 184.498 142.974 184.173 142.974H181.237C180.913 142.974 180.65 142.711 180.65 142.387ZM186.522 142.387C186.522 142.063 186.785 141.8 187.109 141.8H188.577V142.974H187.109C186.785 142.974 186.522 142.711 186.522 142.387Z" fill="#C6CED1"/>
<path fill-rule="evenodd" clip-rule="evenodd" d="M168.186 154.13L146.004 131.949L148.08 129.873L170.262 152.054L168.186 154.13Z" fill="#616C72"/>
<path fill-rule="evenodd" clip-rule="evenodd" d="M147.31 154.13L169.492 131.949L167.416 129.873L145.235 152.054L147.31 154.13Z" fill="#616C72"/>
<path fill-rule="evenodd" clip-rule="evenodd" d="M168.186 152.826L146.004 130.644L148.08 128.568L170.262 150.75L168.186 152.826Z" fill="#C13018"/>
<path fill-rule="evenodd" clip-rule="evenodd" d="M147.31 152.826L169.492 130.644L167.416 128.568L145.235 150.75L147.31 152.826Z" fill="#C13018"/>
</svg>
