<svg width="24" height="24" viewBox="0 0 24 24" fill="none" xmlns="http://www.w3.org/2000/svg">
<path d="M17.3132 10.3476C16.5441 10.401 15.7818 10.4611 15.0263 10.5279L17.3132 10.3476ZM17.3132 10.3476L17.32 10.4474C18.1013 10.3941 18.7464 10.3675 19.256 10.3675C19.6423 10.3675 19.9606 10.4006 20.2129 10.4646C20.4658 10.5288 20.6463 10.6225 20.7642 10.7392L20.7641 10.7393L20.7678 10.7426C21.0203 10.9687 21.1595 11.3613 21.1595 11.9499V12.7273L17.1517 12.7112H17.1513C16.2718 12.7112 15.5709 12.9289 15.0615 13.3769C14.5631 13.8138 14.3191 14.4314 14.3191 15.2146V16.2761C14.3191 16.8774 14.4435 17.3965 14.6972 17.8289L14.6971 17.8289L14.6992 17.8322C14.966 18.249 15.3312 18.5684 15.7925 18.7897L15.7925 18.7898L15.7948 18.7908C16.2551 18.9978 16.7822 19.1 17.3739 19.1C17.9227 19.1 18.4323 19.0253 18.902 18.8749L18.9036 18.8744C19.3817 18.7122 19.8133 18.5157 20.198 18.2846L20.1988 18.2841C20.5938 18.0414 20.9294 17.7976 21.2046 17.5525L21.2048 17.5523C21.2618 17.5013 21.3161 17.4516 21.3678 17.4032L21.5448 18.832L21.5557 18.9197H21.6441H23H23.1V18.8197V11.9499C23.1 11.153 22.9706 10.5128 22.7026 10.0381C22.4342 9.56279 22.0309 9.22725 21.4977 9.03249C20.9835 8.82649 20.3566 8.72547 19.6203 8.72547C19.1319 8.72547 18.6033 8.7456 18.0347 8.7858C17.4664 8.82597 16.9048 8.87954 16.35 8.9465L16.3497 8.94654C15.8086 9.01347 15.3078 9.08714 14.8472 9.16759L14.753 9.18403L14.7652 9.27882L14.9271 10.5406L14.9393 10.636L15.0351 10.6275C15.79 10.5608 16.5517 10.5008 17.3201 10.4474L17.3132 10.3476ZM2.9369 18.8502L4.29714 14.5936H9.88606L11.2463 18.8502L11.2685 18.9197H11.3416H13.1832H13.3224L13.278 18.7878L8.78603 5.45133C8.73951 5.28483 8.64584 5.15225 8.50566 5.05875C8.36635 4.95251 8.20393 4.9 8.02254 4.9H6.16066C5.97928 4.9 5.81685 4.95251 5.67755 5.05875C5.53736 5.15225 5.44369 5.28483 5.39718 5.45134L0.905231 18.7878L0.860798 18.9197H1H2.84165H2.91467L2.9369 18.8502ZM7.62372 7.51399L9.32217 12.829H4.86103L6.55892 7.51575C6.62685 7.32739 6.68803 7.13897 6.74244 6.95048L6.74246 6.95049L6.74292 6.94876C6.78938 6.77637 6.83578 6.61411 6.88213 6.46195H7.30108C7.34743 6.61411 7.39383 6.77637 7.44028 6.94876L7.43994 6.94885L7.44277 6.95669C7.50951 7.14162 7.56955 7.32649 7.6229 7.51129L7.62286 7.5113L7.62372 7.51399ZM17.4562 14.213H21.1595V16.0348C20.918 16.2449 20.6642 16.4303 20.3983 16.5911C19.9192 16.8809 19.4413 17.0975 18.9648 17.2417C18.4993 17.3732 18.084 17.4379 17.7179 17.4379C17.1895 17.4379 16.8293 17.3264 16.6134 17.1253C16.3977 16.9112 16.2798 16.5686 16.2798 16.0758V15.4549C16.2798 15.0551 16.3711 14.7605 16.54 14.5575L16.5401 14.5576L16.5418 14.5554C16.704 14.3489 16.9982 14.2262 17.4562 14.213Z" fill="#165C7D" stroke="#165C7D" stroke-width="0.2"/>
</svg>
