<svg width="58" height="34" viewBox="0 0 58 34" fill="none" xmlns="http://www.w3.org/2000/svg">
<path fill-rule="evenodd" clip-rule="evenodd" d="M8.05127 4.00793H49.0446V30.9285H8.05127V4.00793Z" fill="#006AB9"/>
<path fill-rule="evenodd" clip-rule="evenodd" d="M8.05127 14.8614C23.3899 11.1812 36.6399 12.089 49.0419 14.8614V30.9291H8.05127V14.8614Z" fill="#D9000D"/>
<path fill-rule="evenodd" clip-rule="evenodd" d="M8.05127 19.2665C21.569 16.3866 35.5242 16.3866 49.0419 19.2665V30.9285H8.05127V19.2665Z" fill="#FFD53B"/>
<path fill-rule="evenodd" clip-rule="evenodd" d="M36.1882 13.5191C35.4548 10.7093 32.3361 8.6571 28.5608 8.6571C24.7855 8.6571 21.6428 10.6849 20.9102 13.4953C25.9913 12.9933 31.1085 13.0012 36.1882 13.5191Z" fill="#FFD53B"/>
<path fill-rule="evenodd" clip-rule="evenodd" d="M17.916 25.8081L20.744 22.5223H21.7914L24.8014 25.8081H23.688L22.8314 24.8126H19.758L18.9494 25.8081H17.916ZM20.04 24.4583H22.5294L21.7654 23.5485C21.5777 23.3336 21.404 23.1065 21.2454 22.8685C21.1414 23.0959 21.0068 23.3074 20.8454 23.4968L20.0393 24.4603L20.04 24.4583ZM28.938 25.8081V25.4586C28.7121 25.6008 28.4641 25.7029 28.2047 25.7605C27.5337 25.9025 26.8404 25.8946 26.1727 25.7374C25.9464 25.6954 25.7375 25.5856 25.5727 25.4219C25.4667 25.2707 25.4145 25.0872 25.4247 24.9017V23.4281H26.3247V24.748C26.3064 24.9189 26.3424 25.0912 26.4273 25.2396C26.5287 25.3431 26.6584 25.4128 26.7994 25.4395C27.0026 25.4921 27.2117 25.5172 27.4214 25.5144C27.7854 25.5277 28.148 25.4611 28.4847 25.3192C28.5994 25.2669 28.6952 25.1795 28.7589 25.0691C28.8226 24.9587 28.851 24.8307 28.84 24.7031V23.4281H29.7467V25.8081H28.938ZM31.158 25.8081V23.4281H31.9727V23.7885C32.1427 23.6439 32.3366 23.5313 32.5454 23.456C32.7351 23.3991 32.9322 23.3716 33.13 23.3744C33.4421 23.3759 33.7526 23.4195 34.0534 23.5043L33.748 23.879C33.5338 23.8217 33.3134 23.7923 33.092 23.7912C32.9138 23.7894 32.7364 23.8143 32.5653 23.8653C32.4362 23.8964 32.3197 23.9677 32.232 24.0694C32.1227 24.2089 32.0624 24.3817 32.0607 24.5603V25.8081H31.158ZM38.058 25.513C37.7527 25.6296 37.4373 25.7166 37.116 25.7727C36.7807 25.8317 36.441 25.8609 36.1007 25.8598C35.6508 25.8755 35.2016 25.8134 34.772 25.6762C34.4423 25.5538 34.2774 25.3888 34.2774 25.1811C34.2823 25.1051 34.3062 25.0315 34.3468 24.9675C34.3874 24.9035 34.4433 24.8511 34.5094 24.8153C34.7046 24.6928 34.9205 24.6085 35.146 24.5664C35.5502 24.491 35.9593 24.4467 36.37 24.4338C37.1029 24.3944 37.6411 24.3479 37.9847 24.2944L37.9907 24.1918C37.993 24.1159 37.9711 24.0413 37.9281 23.9794C37.8852 23.9174 37.8236 23.8714 37.7527 23.8483C37.4196 23.736 37.069 23.6876 36.7187 23.7056C36.4019 23.6939 36.0851 23.7259 35.7767 23.8007C35.6807 23.8264 35.5907 23.8712 35.5119 23.9326C35.4331 23.994 35.3669 24.0708 35.3174 24.1584L34.4294 24.104C34.5127 23.9619 34.6241 23.839 34.7564 23.743C34.8887 23.6471 35.0391 23.5801 35.198 23.5464C35.739 23.4119 36.2955 23.3528 36.852 23.371C37.2935 23.3601 37.7349 23.3988 38.168 23.4866C38.3935 23.5155 38.6045 23.6156 38.7714 23.7729C38.8645 23.9205 38.9084 24.0948 38.8967 24.2699V24.8078C38.8821 25.0465 38.9016 25.2861 38.9547 25.5191C39.0054 25.6334 39.0848 25.7322 39.1847 25.8054H38.2407C38.1507 25.7296 38.0863 25.6268 38.0567 25.5116L38.058 25.513ZM37.9847 24.612C37.4961 24.6893 37.0039 24.7404 36.51 24.765C36.2434 24.7764 35.9776 24.8037 35.714 24.8466C35.5902 24.867 35.4712 24.911 35.3634 24.9765C35.3278 24.995 35.2976 25.0225 35.2756 25.0565C35.2536 25.0905 35.2407 25.1297 35.238 25.1703C35.238 25.2838 35.334 25.3743 35.526 25.4423C35.7836 25.5197 36.0517 25.5541 36.32 25.5443C36.6156 25.5472 36.9105 25.5164 37.1994 25.4525C37.4108 25.4132 37.6119 25.3296 37.79 25.207C37.8551 25.1539 37.9068 25.0855 37.9406 25.0078C37.9743 24.93 37.9892 24.8451 37.984 24.7602V24.612H37.9847Z" fill="#006AB9"/>
</svg>
