<svg width="24" height="24" viewBox="0 0 24 24" fill="none" xmlns="http://www.w3.org/2000/svg">
<path fill-rule="evenodd" clip-rule="evenodd" d="M1.25 4C1.25 2.48122 2.48122 1.25 4 1.25H7C7.41421 1.25 7.75 1.58579 7.75 2C7.75 2.41421 7.41421 2.75 7 2.75H4C3.30964 2.75 2.75 3.30964 2.75 4V7C2.75 7.41421 2.41421 7.75 2 7.75C1.58579 7.75 1.25 7.41421 1.25 7V4ZM16.25 2C16.25 1.58579 16.5858 1.25 17 1.25H20C21.5188 1.25 22.75 2.48122 22.75 4V7C22.75 7.41421 22.4142 7.75 22 7.75C21.5858 7.75 21.25 7.41421 21.25 7V4C21.25 3.30964 20.6904 2.75 20 2.75H17C16.5858 2.75 16.25 2.41421 16.25 2ZM6 5.25C6.41421 5.25 6.75 5.58579 6.75 6V15C6.75 15.4142 6.41421 15.75 6 15.75C5.58579 15.75 5.25 15.4142 5.25 15V6C5.25 5.58579 5.58579 5.25 6 5.25ZM9 5.25C9.41421 5.25 9.75 5.58579 9.75 6V13C9.75 13.4142 9.41421 13.75 9 13.75C8.58579 13.75 8.25 13.4142 8.25 13V6C8.25 5.58579 8.58579 5.25 9 5.25ZM12 5.25C12.4142 5.25 12.75 5.58579 12.75 6V15C12.75 15.4142 12.4142 15.75 12 15.75C11.5858 15.75 11.25 15.4142 11.25 15V6C11.25 5.58579 11.5858 5.25 12 5.25ZM15 5.25C15.4142 5.25 15.75 5.58579 15.75 6V15C15.75 15.4142 15.4142 15.75 15 15.75C14.5858 15.75 14.25 15.4142 14.25 15V6C14.25 5.58579 14.5858 5.25 15 5.25ZM18 5.25C18.4142 5.25 18.75 5.58579 18.75 6V15C18.75 15.4142 18.4142 15.75 18 15.75C17.5858 15.75 17.25 15.4142 17.25 15V6C17.25 5.58579 17.5858 5.25 18 5.25ZM2 16.25C2.41421 16.25 2.75 16.5858 2.75 17V20C2.75 20.6904 3.30964 21.25 4 21.25H7C7.41421 21.25 7.75 21.5858 7.75 22C7.75 22.4142 7.41421 22.75 7 22.75H4C2.48122 22.75 1.25 21.5188 1.25 20V17C1.25 16.5858 1.58579 16.25 2 16.25ZM22 16.25C22.4142 16.25 22.75 16.5858 22.75 17V20C22.75 21.5188 21.5188 22.75 20 22.75H17C16.5858 22.75 16.25 22.4142 16.25 22C16.25 21.5858 16.5858 21.25 17 21.25H20C20.6904 21.25 21.25 20.6904 21.25 20V17C21.25 16.5858 21.5858 16.25 22 16.25ZM6 17.25C6.41421 17.25 6.75 17.5858 6.75 18V18.2C6.75 18.6142 6.41421 18.95 6 18.95C5.58579 18.95 5.25 18.6142 5.25 18.2V18C5.25 17.5858 5.58579 17.25 6 17.25ZM9 17.25C9.41421 17.25 9.75 17.5858 9.75 18V18.2C9.75 18.6142 9.41421 18.95 9 18.95C8.58579 18.95 8.25 18.6142 8.25 18.2V18C8.25 17.5858 8.58579 17.25 9 17.25ZM12 17.25C12.4142 17.25 12.75 17.5858 12.75 18V18.2C12.75 18.6142 12.4142 18.95 12 18.95C11.5858 18.95 11.25 18.6142 11.25 18.2V18C11.25 17.5858 11.5858 17.25 12 17.25ZM15 17.25C15.4142 17.25 15.75 17.5858 15.75 18V18.2C15.75 18.6142 15.4142 18.95 15 18.95C14.5858 18.95 14.25 18.6142 14.25 18.2V18C14.25 17.5858 14.5858 17.25 15 17.25ZM18 17.25C18.4142 17.25 18.75 17.5858 18.75 18V18.2C18.75 18.6142 18.4142 18.95 18 18.95C17.5858 18.95 17.25 18.6142 17.25 18.2V18C17.25 17.5858 17.5858 17.25 18 17.25Z" fill="#165C7D"/>
</svg>
