<svg width="24" height="24" viewBox="0 0 24 24" fill="none" xmlns="http://www.w3.org/2000/svg">
<mask id="path-1-outside-1_447_1990" maskUnits="userSpaceOnUse" x="1.48291" y="1.48291" width="21" height="21" fill="black">
<rect fill="white" x="1.48291" y="1.48291" width="21" height="21"/>
<path fill-rule="evenodd" clip-rule="evenodd" d="M20.5784 16.0679C20.4182 16.3047 20.1083 16.4367 19.7062 16.4367H16.6921L16.6838 19.998C16.6838 20.2158 16.5094 20.3926 16.2945 20.3926H15.7592C15.5451 20.3926 15.3699 20.2158 15.3699 19.998L15.3744 16.4367H13.9654C14.193 15.923 14.1885 15.3113 13.9481 14.6876L12.772 11.7136L15.7906 4.60542C15.9007 4.3383 15.9958 4.12127 16.0744 3.95508C16.1934 4.19715 16.3162 4.48324 16.3701 4.60693L20.6002 15.1118C20.7462 15.4904 20.7387 15.8304 20.5784 16.0679ZM12.8711 16.0459C12.7415 16.2554 12.4922 16.3859 12.1703 16.4215C11.8461 16.3851 11.5953 16.2538 11.4658 16.0436C11.3198 15.8076 11.3176 15.4775 11.4583 15.1118L12.1576 13.2913L12.8778 15.114C13.0186 15.4798 13.0163 15.8107 12.8711 16.0459ZM10.3722 16.4367H8.96099L8.96548 19.998C8.96548 20.2158 8.79029 20.3926 8.57617 20.3926H8.04086C7.82599 20.3926 7.65155 20.2158 7.65155 19.998L7.64406 18.5752V16.4367H4.62913C4.22709 16.4367 3.91788 16.3047 3.75692 16.0679C3.5967 15.8304 3.58921 15.4904 3.73221 15.1201L7.96075 4.62059C8.0169 4.48855 8.14193 4.19867 8.26097 3.95508C8.33959 4.12203 8.43542 4.33982 8.54622 4.60693L11.529 11.7151L10.3872 14.6876C10.1469 15.3113 10.1439 15.9222 10.3722 16.4367ZM21.6687 14.68L17.4297 4.15467C17.0112 3.18182 16.699 2.48367 16.0656 2.48291C15.421 2.48746 15.1163 3.22279 14.7322 4.15012L12.153 10.224L9.60527 4.15467C9.2197 3.22279 8.91424 2.48746 8.27037 2.48291C7.63774 2.48746 7.32404 3.18182 6.90029 4.16757L2.66351 14.6883C2.37976 15.4259 2.43217 16.1681 2.80801 16.7251C3.1831 17.2821 3.84643 17.6016 4.6288 17.6016H6.49376L6.50199 19.9981C6.50199 20.8578 7.19227 21.5583 8.04053 21.5583H8.57583C9.42409 21.5583 10.1144 20.8578 10.1144 19.9981V18.8249C10.1144 18.7846 10.1136 18.7406 10.1106 18.6997V17.6016H11.9876C12.0505 17.6016 12.1096 17.5978 12.1695 17.5932C12.2279 17.5978 12.2848 17.6016 12.3477 17.6016H14.2246V18.6997C14.2216 18.7406 14.2209 18.7846 14.2209 18.8249V19.9981C14.2209 20.8578 14.9112 21.5583 15.7594 21.5583H16.2947C17.143 21.5583 17.8333 20.8578 17.8333 19.9981L17.8415 17.6016H19.7064C20.4888 17.6016 21.1529 17.2821 21.528 16.7251C21.9038 16.1681 21.9555 15.4259 21.6687 14.68Z"/>
</mask>
<path fill-rule="evenodd" clip-rule="evenodd" d="M20.5784 16.0679C20.4182 16.3047 20.1083 16.4367 19.7062 16.4367H16.6921L16.6838 19.998C16.6838 20.2158 16.5094 20.3926 16.2945 20.3926H15.7592C15.5451 20.3926 15.3699 20.2158 15.3699 19.998L15.3744 16.4367H13.9654C14.193 15.923 14.1885 15.3113 13.9481 14.6876L12.772 11.7136L15.7906 4.60542C15.9007 4.3383 15.9958 4.12127 16.0744 3.95508C16.1934 4.19715 16.3162 4.48324 16.3701 4.60693L20.6002 15.1118C20.7462 15.4904 20.7387 15.8304 20.5784 16.0679ZM12.8711 16.0459C12.7415 16.2554 12.4922 16.3859 12.1703 16.4215C11.8461 16.3851 11.5953 16.2538 11.4658 16.0436C11.3198 15.8076 11.3176 15.4775 11.4583 15.1118L12.1576 13.2913L12.8778 15.114C13.0186 15.4798 13.0163 15.8107 12.8711 16.0459ZM10.3722 16.4367H8.96099L8.96548 19.998C8.96548 20.2158 8.79029 20.3926 8.57617 20.3926H8.04086C7.82599 20.3926 7.65155 20.2158 7.65155 19.998L7.64406 18.5752V16.4367H4.62913C4.22709 16.4367 3.91788 16.3047 3.75692 16.0679C3.5967 15.8304 3.58921 15.4904 3.73221 15.1201L7.96075 4.62059C8.0169 4.48855 8.14193 4.19867 8.26097 3.95508C8.33959 4.12203 8.43542 4.33982 8.54622 4.60693L11.529 11.7151L10.3872 14.6876C10.1469 15.3113 10.1439 15.9222 10.3722 16.4367ZM21.6687 14.68L17.4297 4.15467C17.0112 3.18182 16.699 2.48367 16.0656 2.48291C15.421 2.48746 15.1163 3.22279 14.7322 4.15012L12.153 10.224L9.60527 4.15467C9.2197 3.22279 8.91424 2.48746 8.27037 2.48291C7.63774 2.48746 7.32404 3.18182 6.90029 4.16757L2.66351 14.6883C2.37976 15.4259 2.43217 16.1681 2.80801 16.7251C3.1831 17.2821 3.84643 17.6016 4.6288 17.6016H6.49376L6.50199 19.9981C6.50199 20.8578 7.19227 21.5583 8.04053 21.5583H8.57583C9.42409 21.5583 10.1144 20.8578 10.1144 19.9981V18.8249C10.1144 18.7846 10.1136 18.7406 10.1106 18.6997V17.6016H11.9876C12.0505 17.6016 12.1096 17.5978 12.1695 17.5932C12.2279 17.5978 12.2848 17.6016 12.3477 17.6016H14.2246V18.6997C14.2216 18.7406 14.2209 18.7846 14.2209 18.8249V19.9981C14.2209 20.8578 14.9112 21.5583 15.7594 21.5583H16.2947C17.143 21.5583 17.8333 20.8578 17.8333 19.9981L17.8415 17.6016H19.7064C20.4888 17.6016 21.1529 17.2821 21.528 16.7251C21.9038 16.1681 21.9555 15.4259 21.6687 14.68Z" fill="#165C7D"/>
<path d="M20.5784 16.0679L20.9097 16.2921L20.9101 16.2916L20.5784 16.0679ZM16.6921 16.4367V16.0367H16.293L16.2921 16.4358L16.6921 16.4367ZM16.6838 19.998L16.2838 19.9971V19.998H16.6838ZM15.3699 19.998L14.9699 19.9975V19.998H15.3699ZM15.3744 16.4367L15.7744 16.4372L15.7749 16.0367H15.3744V16.4367ZM13.9654 16.4367L13.5996 16.2747L13.3507 16.8367H13.9654V16.4367ZM13.9481 14.6876L14.3214 14.5438L14.3201 14.5405L13.9481 14.6876ZM12.772 11.7136L12.4038 11.5573L12.3397 11.7082L12.4 11.8607L12.772 11.7136ZM15.7906 4.60542L16.1588 4.76178L16.1605 4.7578L15.7906 4.60542ZM16.0744 3.95508L16.4333 3.77857L16.0674 3.0344L15.7128 3.78404L16.0744 3.95508ZM16.3701 4.60693L16.7413 4.45746L16.7368 4.44713L16.3701 4.60693ZM20.6002 15.1118L20.9734 14.9679L20.9712 14.9624L20.6002 15.1118ZM12.8711 16.0459L13.2113 16.2563L13.2114 16.2561L12.8711 16.0459ZM12.1703 16.4215L12.1256 16.819L12.17 16.824L12.2143 16.8191L12.1703 16.4215ZM11.4658 16.0436L11.8063 15.8338L11.806 15.8332L11.4658 16.0436ZM11.4583 15.1118L11.8316 15.2554L11.8317 15.2552L11.4583 15.1118ZM12.1576 13.2913L12.5296 13.1443L12.1523 12.1894L11.7842 13.1478L12.1576 13.2913ZM12.8778 15.114L13.2511 14.9704L13.2498 14.967L12.8778 15.114ZM10.3722 16.4367V16.8367H10.9874L10.7379 16.2745L10.3722 16.4367ZM8.96099 16.4367V16.0367H8.56048L8.56099 16.4372L8.96099 16.4367ZM8.96548 19.998H9.36548L9.36548 19.9975L8.96548 19.998ZM7.65155 19.998H8.05155L8.05154 19.9959L7.65155 19.998ZM7.64406 18.5752H7.24406L7.24407 18.5773L7.64406 18.5752ZM7.64406 16.4367H8.04406V16.0367H7.64406V16.4367ZM3.75692 16.0679L3.42531 16.2916L3.42613 16.2928L3.75692 16.0679ZM3.73221 15.1201L3.36113 14.9707L3.35907 14.976L3.73221 15.1201ZM7.96075 4.62059L7.59259 4.46403L7.58971 4.47116L7.96075 4.62059ZM8.26097 3.95508L8.62286 3.78467L8.26767 3.03035L7.90159 3.77945L8.26097 3.95508ZM8.54622 4.60693L8.17674 4.7602L8.17738 4.76171L8.54622 4.60693ZM11.529 11.7151L11.9024 11.8586L11.96 11.7085L11.8978 11.5604L11.529 11.7151ZM10.3872 14.6876L10.7605 14.8314L10.7606 14.831L10.3872 14.6876ZM21.6687 14.68L22.0421 14.5365L22.0398 14.5306L21.6687 14.68ZM17.4297 4.15467L17.8009 4.00519L17.7972 3.9966L17.4297 4.15467ZM16.0656 2.48291L16.0661 2.0829L16.0628 2.08292L16.0656 2.48291ZM14.7322 4.15012L15.1004 4.30647L15.1018 4.30318L14.7322 4.15012ZM12.153 10.224L11.7842 10.3788L12.1509 11.2524L12.5212 10.3803L12.153 10.224ZM9.60527 4.15467L9.23565 4.3076L9.23644 4.30949L9.60527 4.15467ZM8.27037 2.48291L8.2732 2.08288L8.26749 2.08292L8.27037 2.48291ZM6.90029 4.16757L6.53271 4.00955L6.52925 4.01815L6.90029 4.16757ZM2.66351 14.6883L2.29242 14.5389L2.29018 14.5447L2.66351 14.6883ZM2.80801 16.7251L3.13979 16.5017L3.13959 16.5014L2.80801 16.7251ZM6.49376 17.6016L6.89375 17.6002L6.89238 17.2016H6.49376V17.6016ZM6.50199 19.9981H6.90199L6.90199 19.9967L6.50199 19.9981ZM10.1106 18.6997H9.71063V18.7142L9.71169 18.7288L10.1106 18.6997ZM10.1106 17.6016V17.2016H9.71063V17.6016H10.1106ZM12.1695 17.5932L12.2006 17.1945L12.1699 17.1921L12.1392 17.1944L12.1695 17.5932ZM14.2246 17.6016H14.6246V17.2016H14.2246V17.6016ZM14.2246 18.6997L14.6236 18.7288L14.6246 18.7142V18.6997H14.2246ZM17.8333 19.9981L17.4333 19.9967V19.9981H17.8333ZM17.8415 17.6016V17.2016H17.4429L17.4415 17.6002L17.8415 17.6016ZM21.528 16.7251L21.1964 16.5014L21.1962 16.5017L21.528 16.7251ZM20.2472 15.8438C20.1884 15.9306 20.0324 16.0367 19.7062 16.0367V16.8367C20.1841 16.8367 20.6481 16.6788 20.9097 16.2921L20.2472 15.8438ZM19.7062 16.0367H16.6921V16.8367H19.7062V16.0367ZM16.2921 16.4358L16.2838 19.9971L17.0838 19.999L17.0921 16.4377L16.2921 16.4358ZM16.2838 19.998C16.2838 19.9987 16.2838 19.9982 16.2841 19.9974C16.2843 19.9969 16.2846 19.9965 16.285 19.9961C16.2854 19.9957 16.2864 19.9948 16.2883 19.994C16.2905 19.9931 16.2929 19.9926 16.2945 19.9926V20.7926C16.7354 20.7926 17.0838 20.4316 17.0838 19.998H16.2838ZM16.2945 19.9926H15.7592V20.7926H16.2945V19.9926ZM15.7592 19.9926C15.7612 19.9926 15.7637 19.9931 15.7658 19.9941C15.7677 19.9949 15.7685 19.9956 15.7688 19.9959C15.7691 19.9962 15.7693 19.9965 15.7696 19.9971C15.7699 19.9979 15.7699 19.9984 15.7699 19.998H14.9699C14.9699 20.4321 15.3196 20.7926 15.7592 20.7926V19.9926ZM15.7699 19.9985L15.7744 16.4372L14.9744 16.4362L14.9699 19.9975L15.7699 19.9985ZM15.3744 16.0367H13.9654V16.8367H15.3744V16.0367ZM14.3311 16.5988C14.6092 15.971 14.5925 15.2475 14.3214 14.5438L13.5749 14.8314C13.7844 15.3752 13.7767 15.875 13.5996 16.2747L14.3311 16.5988ZM14.3201 14.5405L13.1439 11.5665L12.4 11.8607L13.5762 14.8347L14.3201 14.5405ZM13.1401 11.87L16.1588 4.76177L15.4225 4.44906L12.4038 11.5573L13.1401 11.87ZM16.1605 4.7578C16.269 4.49453 16.3612 4.28416 16.436 4.12612L15.7128 3.78404C15.6303 3.95837 15.5325 4.18207 15.4208 4.45304L16.1605 4.7578ZM15.7154 4.13159C15.8295 4.36343 15.948 4.6395 16.0034 4.76674L16.7368 4.44713C16.6845 4.32698 16.5574 4.03087 16.4333 3.77857L15.7154 4.13159ZM15.9991 4.75635L20.2291 15.2612L20.9712 14.9624L16.7412 4.45752L15.9991 4.75635ZM20.2269 15.2557C20.3471 15.5673 20.3063 15.7561 20.2468 15.8442L20.9101 16.2916C21.1711 15.9047 21.1452 15.4136 20.9734 14.9679L20.2269 15.2557ZM12.5309 15.8355C12.4874 15.9058 12.3729 15.9967 12.1263 16.024L12.2143 16.8191C12.6115 16.7751 12.9957 16.6049 13.2113 16.2563L12.5309 15.8355ZM12.215 16.024C11.9651 15.996 11.8497 15.9041 11.8063 15.8338L11.1252 16.2535C11.341 16.6035 11.7272 16.7743 12.1256 16.819L12.215 16.024ZM11.806 15.8332C11.7502 15.7431 11.7159 15.5561 11.8316 15.2554L11.085 14.9681C10.9192 15.399 10.8894 15.8721 11.1256 16.2541L11.806 15.8332ZM11.8317 15.2552L12.531 13.4347L11.7842 13.1478L11.0849 14.9683L11.8317 15.2552ZM11.7856 13.4383L12.5058 15.261L13.2498 14.967L12.5296 13.1443L11.7856 13.4383ZM12.5045 15.2577C12.6203 15.5586 12.5858 15.7465 12.5307 15.8358L13.2114 16.2561C13.4468 15.8749 13.4168 15.401 13.2511 14.9704L12.5045 15.2577ZM10.3722 16.0367H8.96099V16.8367H10.3722V16.0367ZM8.56099 16.4372L8.56548 19.9985L9.36548 19.9975L9.36099 16.4362L8.56099 16.4372ZM8.56548 19.998C8.56548 19.9984 8.56547 19.9979 8.56581 19.9971C8.56605 19.9965 8.5663 19.9962 8.56656 19.9959C8.56682 19.9956 8.56768 19.9949 8.56953 19.9941C8.57166 19.9931 8.57416 19.9926 8.57617 19.9926V20.7926C9.01578 20.7926 9.36548 20.4321 9.36548 19.998H8.56548ZM8.57617 19.9926H8.04086V20.7926H8.57617V19.9926ZM8.04086 19.9926C8.0425 19.9926 8.04488 19.9931 8.04709 19.994C8.04901 19.9948 8.04999 19.9957 8.05037 19.9961C8.05076 19.9965 8.05104 19.9969 8.05127 19.9974C8.05161 19.9982 8.05155 19.9987 8.05155 19.998H7.25155C7.25155 20.4316 7.60001 20.7926 8.04086 20.7926V19.9926ZM8.05154 19.9959L8.04406 18.5731L7.24407 18.5773L7.25155 20.0001L8.05154 19.9959ZM8.04406 18.5752V16.4367H7.24406V18.5752H8.04406ZM7.64406 16.0367H4.62913V16.8367H7.64406V16.0367ZM4.62913 16.0367C4.30358 16.0367 4.14746 15.9309 4.08771 15.843L3.42613 16.2928C3.68831 16.6785 4.1506 16.8367 4.62913 16.8367V16.0367ZM4.08853 15.8442C4.02837 15.7551 3.98896 15.5657 4.10536 15.2642L3.35907 14.976C3.18947 15.4152 3.16503 15.9057 3.42531 16.2916L4.08853 15.8442ZM4.10325 15.2695L8.33179 4.77003L7.58971 4.47116L3.36117 14.9707L4.10325 15.2695ZM8.32885 4.77713C8.38462 4.64599 8.50622 4.36427 8.62036 4.1307L7.90159 3.77945C7.77765 4.03308 7.64919 4.33112 7.59265 4.46406L8.32885 4.77713ZM7.89909 4.12548C7.97427 4.28515 8.06753 4.49691 8.17675 4.7602L8.91569 4.45367C8.8033 4.18272 8.7049 3.9589 8.62286 3.78467L7.89909 4.12548ZM8.17738 4.76171L11.1601 11.8699L11.8978 11.5604L8.91506 4.45216L8.17738 4.76171ZM11.1556 11.5717L10.0138 14.5441L10.7606 14.831L11.9024 11.8586L11.1556 11.5717ZM10.014 14.5438C9.74253 15.2483 9.72792 15.971 10.0066 16.599L10.7379 16.2745C10.5599 15.8735 10.5513 15.3744 10.7605 14.8314L10.014 14.5438ZM22.0398 14.5306L17.8008 4.00523L17.0587 4.3041L21.2977 14.8294L22.0398 14.5306ZM17.7972 3.9966C17.5931 3.52225 17.3937 3.06101 17.1548 2.72327C16.9067 2.37244 16.5646 2.08351 16.0661 2.08291L16.0651 2.88291C16.2 2.88307 16.3308 2.94359 16.5017 3.18524C16.6819 3.43997 16.8478 3.81424 17.0623 4.31274L17.7972 3.9966ZM16.0628 2.08292C15.5541 2.08651 15.2117 2.39168 14.9707 2.74514C14.7376 3.0871 14.5491 3.54684 14.3627 3.99705L15.1018 4.30318C15.2994 3.82607 15.4553 3.45449 15.6317 3.19581C15.8002 2.94863 15.9325 2.88386 16.0684 2.8829L16.0628 2.08292ZM14.364 3.99377L11.7848 10.0677L12.5212 10.3803L15.1004 4.30646L14.364 3.99377ZM12.5218 10.0692L9.97409 3.99985L9.23644 4.30949L11.7842 10.3788L12.5218 10.0692ZM9.97488 4.00174C9.78759 3.54909 9.59864 3.08831 9.36522 2.74579C9.12407 2.39191 8.78169 2.08652 8.2732 2.08292L8.26754 2.8829C8.40291 2.88386 8.5352 2.94841 8.70414 3.1963C8.88081 3.45555 9.03737 3.82838 9.23566 4.3076L9.97488 4.00174ZM8.26749 2.08292C7.77095 2.08649 7.42959 2.37427 7.1805 2.72621C6.94067 3.06507 6.73969 3.52832 6.5328 4.0096L7.26777 4.32554C7.48464 3.82107 7.65239 3.44426 7.8335 3.18837C8.00535 2.94556 8.13716 2.88388 8.27325 2.8829L8.26749 2.08292ZM6.52925 4.01815L2.29247 14.5389L3.03456 14.8378L7.27133 4.31699L6.52925 4.01815ZM2.29018 14.5447C1.96907 15.3795 2.01384 16.2633 2.47643 16.9488L3.13959 16.5014C2.8505 16.0729 2.79046 15.4724 3.03684 14.832L2.29018 14.5447ZM2.47622 16.9485C2.93875 17.6354 3.73866 18.0016 4.6288 18.0016V17.2016C3.95419 17.2016 3.42744 16.9288 3.13979 16.5017L2.47622 16.9485ZM4.6288 18.0016H6.49376V17.2016H4.6288V18.0016ZM6.09376 17.603L6.10199 19.9994L6.90199 19.9967L6.89375 17.6002L6.09376 17.603ZM6.10199 19.9981C6.10199 21.0734 6.96603 21.9583 8.04053 21.9583V21.1583C7.41851 21.1583 6.90199 20.6423 6.90199 19.9981H6.10199ZM8.04053 21.9583H8.57583V21.1583H8.04053V21.9583ZM8.57583 21.9583C9.65033 21.9583 10.5144 21.0734 10.5144 19.9981H9.71437C9.71437 20.6423 9.19785 21.1583 8.57583 21.1583V21.9583ZM10.5144 19.9981V18.8249H9.71437V19.9981H10.5144ZM10.5144 18.8249C10.5144 18.7809 10.5136 18.7257 10.5096 18.6705L9.71169 18.7288C9.71364 18.7555 9.71437 18.7883 9.71437 18.8249H10.5144ZM10.5106 18.6997V17.6016H9.71063V18.6997H10.5106ZM10.1106 18.0016H11.9876V17.2016H10.1106V18.0016ZM11.9876 18.0016C12.0661 18.0016 12.1375 17.9968 12.1998 17.9921L12.1392 17.1944C12.0817 17.1988 12.0348 17.2016 11.9876 17.2016V18.0016ZM12.1384 17.992C12.1993 17.9968 12.2687 18.0016 12.3477 18.0016V17.2016C12.3008 17.2016 12.2565 17.1988 12.2006 17.1945L12.1384 17.992ZM12.3477 18.0016H14.2246V17.2016H12.3477V18.0016ZM13.8246 17.6016V18.6997H14.6246V17.6016H13.8246ZM13.8257 18.6705C13.8216 18.7257 13.8209 18.7809 13.8209 18.8249H14.6209C14.6209 18.7883 14.6216 18.7555 14.6236 18.7288L13.8257 18.6705ZM13.8209 18.8249V19.9981H14.6209V18.8249H13.8209ZM13.8209 19.9981C13.8209 21.0734 14.6849 21.9583 15.7594 21.9583V21.1583C15.1374 21.1583 14.6209 20.6423 14.6209 19.9981H13.8209ZM15.7594 21.9583H16.2947V21.1583H15.7594V21.9583ZM16.2947 21.9583C17.3692 21.9583 18.2333 21.0734 18.2333 19.9981H17.4333C17.4333 20.6423 16.9167 21.1583 16.2947 21.1583V21.9583ZM18.2333 19.9994L18.2415 17.603L17.4415 17.6002L17.4333 19.9967L18.2333 19.9994ZM17.8415 18.0016H19.7064V17.2016H17.8415V18.0016ZM19.7064 18.0016C20.5964 18.0016 21.3972 17.6355 21.8598 16.9485L21.1962 16.5017C20.9086 16.9287 20.3812 17.2016 19.7064 17.2016V18.0016ZM21.8596 16.9488C22.3227 16.2624 22.3657 15.3784 22.0421 14.5365L21.2954 14.8235C21.5452 15.4735 21.4849 16.0738 21.1964 16.5014L21.8596 16.9488Z" fill="#165C7D" mask="url(#path-1-outside-1_447_1990)"/>
</svg>
