<svg width="24" height="24" viewBox="0 0 24 24" fill="none" xmlns="http://www.w3.org/2000/svg">
<path d="M5.63351 3.23816C4.70798 3.23704 3.80294 3.5106 3.03299 4.02421C2.26288 4.53793 1.66258 5.26868 1.30815 6.12388C0.953716 6.97908 0.861106 7.92024 1.04205 8.82812C1.22299 9.736 1.66934 10.5697 2.32456 11.2237L11.4984 20.3976C11.5753 20.4744 11.6995 20.4758 11.778 20.4007L12.594 19.6207C12.6329 19.5836 12.6552 19.5323 12.6558 19.4785C12.6565 19.4247 12.6354 19.3729 12.5974 19.3348L3.43151 10.157C2.86909 9.55781 2.56166 8.76338 2.57427 7.94162C2.5869 7.11887 2.91936 6.33336 3.5012 5.75151C4.08304 5.16967 4.86855 4.83722 5.69131 4.82459C6.51299 4.81197 7.30735 5.11935 7.9065 5.68167L16.8742 14.6793C16.9118 14.717 16.9628 14.7382 17.0161 14.7382C17.0693 14.7381 17.1203 14.7168 17.1578 14.679L17.9438 13.887C18.0214 13.8088 18.0212 13.6826 17.9433 13.6047L8.94361 4.60508C8.94357 4.60505 8.94354 4.60501 8.94351 4.60498C8.50979 4.16918 7.99378 3.82393 7.42547 3.58929C6.8573 3.3547 6.24819 3.23535 5.63351 3.23816ZM5.63351 3.23816C5.63331 3.23816 5.63311 3.23816 5.6329 3.23816L5.63384 3.43816L5.63411 3.23816C5.63391 3.23816 5.63371 3.23816 5.63351 3.23816Z" fill="#165C7D" stroke="#165C7D" stroke-width="0.4" stroke-linejoin="round"/>
<path d="M10.9359 19.6573C10.8975 19.6949 10.8759 19.7463 10.8759 19.7999C10.8758 19.8536 10.8973 19.905 10.9355 19.9427L11.7095 20.7047C11.7872 20.7811 11.9119 20.7813 11.9898 20.7051L21.6738 11.2251L21.6739 11.2252L21.6792 11.2195C22.5166 10.3337 22.9754 9.15625 22.9583 7.93742C22.9412 6.71859 22.4494 5.5545 21.5874 4.69257C20.7255 3.83064 19.5614 3.33884 18.3426 3.3217C17.1237 3.30457 15.9463 3.76345 15.0605 4.6008L15.0604 4.60075L15.0566 4.60455L5.51061 14.1265C5.43255 14.2044 5.43223 14.3308 5.5099 14.409L6.2959 15.201C6.33328 15.2387 6.38411 15.26 6.43719 15.2601C6.49027 15.2603 6.54124 15.2394 6.57887 15.202L16.1249 5.70997L16.125 5.71005L16.1297 5.70498C16.4198 5.39579 16.7689 5.148 17.1566 4.97631C17.5442 4.80463 17.9623 4.71253 18.3862 4.7055C18.8101 4.69846 19.2311 4.77663 19.6242 4.93536C20.0173 5.09409 20.3745 5.33015 20.6746 5.62954C20.9748 5.92893 21.2117 6.28555 21.3715 6.67825C21.5312 7.07095 21.6104 7.49172 21.6044 7.91562C21.5985 8.33952 21.5074 8.7579 21.3367 9.14594C21.166 9.53399 20.9191 9.8838 20.6107 10.1746L20.6106 10.1746L20.6079 10.1773L10.9359 19.6573Z" fill="#165C7D" stroke="#165C7D" stroke-width="0.4" stroke-linejoin="round"/>
</svg>
