<svg width="24" height="24" viewBox="0 0 24 24" fill="none" xmlns="http://www.w3.org/2000/svg">
<path fill-rule="evenodd" clip-rule="evenodd" d="M10.7144 3.34548C11.1068 3.11899 11.5496 3 12 3C12.4504 3 12.8932 3.11899 13.2856 3.34548C13.6781 3.57198 14.007 3.89833 14.2406 4.29306L14.2431 4.29731L21.6417 16.9582L21.6488 16.9706C21.8776 17.3768 21.9987 17.8373 22 18.3063C22.0013 18.7754 21.8827 19.2366 21.6561 19.6441C21.4295 20.0516 21.1028 20.3911 20.7084 20.629C20.3141 20.8669 19.8658 20.9947 19.4083 20.9999L19.3987 21L4.59174 20.9999C4.13419 20.9948 3.68593 20.8669 3.29157 20.629C2.8972 20.3911 2.57047 20.0516 2.34387 19.6441C2.11728 19.2366 1.99873 18.7754 2.00001 18.3063C2.00129 17.8373 2.12236 17.3768 2.35118 16.9706L2.35827 16.9582L9.75943 4.29305C9.99301 3.89832 10.3219 3.57198 10.7144 3.34548ZM12 4.79079C11.8499 4.79079 11.7023 4.83046 11.5715 4.90596C11.4412 4.98111 11.332 5.08926 11.2542 5.22003L3.8612 17.8713C3.7868 18.0054 3.74745 18.157 3.74703 18.3114C3.7466 18.4677 3.78612 18.6214 3.86165 18.7573C3.93718 18.8931 4.04609 19.0063 4.17755 19.0856C4.30786 19.1642 4.45581 19.2067 4.60693 19.2092H19.3931C19.5442 19.2067 19.6921 19.1642 19.8224 19.0856C19.9539 19.0063 20.0628 18.8931 20.1383 18.7573C20.2139 18.6214 20.2534 18.4677 20.253 18.3114C20.2525 18.157 20.2132 18.0054 20.1388 17.8713L12.7469 5.22181L12.7458 5.22003C12.668 5.08926 12.5588 4.98111 12.4285 4.90596C12.2977 4.83046 12.1501 4.79079 12 4.79079Z" fill="#165C7D"/>
<path fill-rule="evenodd" clip-rule="evenodd" d="M12 8.46438C12.4824 8.46438 12.8735 8.86526 12.8735 9.35978V12.9414C12.8735 13.4359 12.4824 13.8368 12 13.8368C11.5176 13.8368 11.1265 13.4359 11.1265 12.9414V9.35978C11.1265 8.86526 11.5176 8.46438 12 8.46438Z" fill="#165C7D"/>
<path fill-rule="evenodd" clip-rule="evenodd" d="M11.1265 16.523C11.1265 16.0284 11.5176 15.6276 12 15.6276H12.0087C12.4912 15.6276 12.8822 16.0284 12.8822 16.523C12.8822 17.0175 12.4912 17.4184 12.0087 17.4184H12C11.5176 17.4184 11.1265 17.0175 11.1265 16.523Z" fill="#165C7D"/>
</svg>
