<svg width="58" height="34" viewBox="0 0 58 34" fill="none" xmlns="http://www.w3.org/2000/svg">
<path d="M13.5695 4.07996H44.8742C45.4673 4.08032 46.036 4.32091 46.4553 4.74884C46.8746 5.17677 47.1102 5.75703 47.1102 6.36204V28.0289C47.1103 28.3285 47.0525 28.6252 46.9402 28.902C46.8278 29.1788 46.6632 29.4304 46.4555 29.6423C46.2479 29.8542 46.0014 30.0223 45.73 30.137C45.4587 30.2518 45.1679 30.3109 44.8742 30.311H13.5695C13.2757 30.311 12.9849 30.2519 12.7135 30.1372C12.4421 30.0225 12.1956 29.8544 11.9879 29.6425C11.7803 29.4305 11.6156 29.179 11.5033 28.9021C11.391 28.6252 11.3333 28.3285 11.3335 28.0289V6.36204C11.3335 5.75703 11.569 5.17677 11.9883 4.74884C12.4076 4.32091 12.9764 4.08032 13.5695 4.07996Z" fill="#26A6D1"/>
<path d="M17.1022 13.2028L13.5688 21.1779H17.7982L18.3222 19.9063H19.5222L20.0462 21.1779H24.7015V20.2075L25.1162 21.1779H27.5242L27.9389 20.1871V21.1779H37.6215L38.7989 19.9396L39.9015 21.1779L44.8742 21.1881L41.3302 17.2128L44.8742 13.2008H39.9782L38.8322 14.4166L37.7655 13.2008H27.2322L26.3275 15.2592L25.4015 13.2008H21.1808V14.1385L20.7142 13.2008L17.1022 13.2028ZM17.9208 14.335H19.9822L22.3255 19.7431V14.335H24.5842L26.3942 18.211L28.0609 14.335H30.3082V20.0572H28.9422L28.9309 15.5733L26.9375 20.0572H25.7148L23.7102 15.5733V20.0572H20.8968L20.3635 18.7741H17.4795L16.9462 20.0559H15.4435L17.9208 14.335ZM31.5609 14.335H37.1209L38.8215 16.2084L40.5769 14.335H42.2795L39.6955 17.2114L42.2795 20.0545H40.4995L38.7989 18.1594L37.0348 20.0545H31.5609V14.3357V14.335ZM18.9242 15.3034L17.9748 17.5888H19.8722L18.9242 15.3034ZM32.9342 15.5203V16.5648H35.9675V17.7289H32.9342V18.87H36.3342L37.9148 17.1904L36.4009 15.5196H32.9342V15.5203Z" fill="white"/>
</svg>
