<svg width="24" height="24" viewBox="0 0 24 24" fill="none" xmlns="http://www.w3.org/2000/svg">
<path d="M13 16L18 21L23 16" stroke="#165C7D" stroke-width="2" stroke-linecap="round" stroke-linejoin="round"/>
<path d="M18 3V21" stroke="#165C7D" stroke-width="2" stroke-linecap="round" stroke-linejoin="round"/>
<path d="M7.75316 22.1575C7.84006 22.1575 7.91051 22.087 7.91051 22.0001V20.893C7.91051 20.8061 7.84006 20.7356 7.75316 20.7356H3.90401L7.77472 15.044C7.79247 15.0179 7.80196 14.9871 7.80196 14.9555V14.0654C7.80196 13.9785 7.73151 13.9081 7.64461 13.9081H2.1739C2.087 13.9081 2.01655 13.9785 2.01655 14.0654V15.1726C2.01655 15.2595 2.087 15.3299 2.1739 15.3299H5.78952L1.919 21.0161C1.90122 21.0422 1.89172 21.073 1.89172 21.1046V22.0001C1.89172 22.087 1.96217 22.1575 2.04907 22.1575H7.75316Z" fill="#165C7D" stroke="#165C7D" stroke-width="0.314705" stroke-linejoin="round"/>
<path d="M6.81075 10.0195C6.83293 10.0825 6.89241 10.1246 6.95917 10.1246H8.34313C8.39461 10.1246 8.44284 10.0994 8.47226 10.0572C8.50168 10.0149 8.50857 9.96096 8.49071 9.91268L5.54369 1.94541C5.52084 1.88365 5.46196 1.84265 5.39611 1.84265H3.95245C3.88663 1.84265 3.82777 1.88361 3.8049 1.94532L0.852452 9.91259C0.834557 9.96088 0.841426 10.0149 0.870842 10.0571C0.900259 10.0994 0.9485 10.1246 1 10.1246H2.3731C2.43986 10.1246 2.49934 10.0825 2.52152 10.0195L3.26061 7.92114H6.07166L6.81075 10.0195ZM4.94178 4.52112L4.94169 4.52115L4.94354 4.5265L5.62531 6.48841H3.73462L4.42118 4.52683L4.42138 4.5269L4.42372 4.5189C4.44888 4.43262 4.48485 4.31032 4.53164 4.15194C4.57981 4.00051 4.62788 3.83965 4.67588 3.66941C4.72297 3.82282 4.77006 3.97488 4.81716 4.12559L4.81716 4.12559L4.81745 4.12649C4.87166 4.29637 4.91308 4.42783 4.94178 4.52112Z" fill="#165C7D" stroke="#165C7D" stroke-width="0.314705" stroke-linejoin="round"/>
</svg>
