<svg width="24" height="24" viewBox="0 0 24 24" fill="none" xmlns="http://www.w3.org/2000/svg">
<path d="M7.33027 15.6001C7.33027 15.7106 7.41982 15.8001 7.53027 15.8001H19.5663C19.6767 15.8001 19.7663 15.7106 19.7663 15.6001L19.7663 6.96615L19.7663 6.96561C19.7645 6.31856 19.5063 5.69859 19.0481 5.24167C18.59 4.78474 17.9693 4.52815 17.3223 4.52815H9.77427C9.12722 4.52815 8.50656 4.78474 8.04841 5.24167C7.59026 5.69859 7.332 6.31856 7.33027 6.96561V6.96615V15.6001ZM9.10285 6.29723C9.28124 6.11976 9.52264 6.02015 9.77427 6.02015H17.3223C17.5739 6.02015 17.8153 6.11976 17.9937 6.29723C18.172 6.47457 18.2728 6.71523 18.2743 6.96667V14.3081H8.82227V6.96669C8.82371 6.71525 8.92458 6.47457 9.10285 6.29723Z" fill="#165C7D" stroke="#165C7D" stroke-width="0.4" stroke-linejoin="round"/>
<path d="M7.33027 15.6001C7.33027 15.7106 7.41982 15.8001 7.53027 15.8001H19.5663C19.6767 15.8001 19.7663 15.7106 19.7663 15.6001L19.7663 6.96615L19.7663 6.96561C19.7645 6.31856 19.5063 5.69859 19.0481 5.24167C18.59 4.78474 17.9693 4.52815 17.3223 4.52815H9.77427C9.12722 4.52815 8.50656 4.78474 8.04841 5.24167C7.59026 5.69859 7.332 6.31856 7.33027 6.96561V6.96615V15.6001ZM9.10285 6.29723C9.28124 6.11976 9.52264 6.02015 9.77427 6.02015H17.3223C17.5739 6.02015 17.8153 6.11976 17.9937 6.29723C18.172 6.47457 18.2728 6.71523 18.2743 6.96667V14.3081H8.82227V6.96669C8.82371 6.71525 8.92458 6.47457 9.10285 6.29723Z" fill="#165C7D" stroke="#165C7D" stroke-width="0.4" stroke-linejoin="round"/>
<path d="M5.88713 15.8721C5.90915 15.872 5.93032 15.8684 5.9501 15.8617C6.06908 15.8682 6.18627 15.8947 6.29669 15.9403C6.42654 15.9939 6.54444 16.0728 6.64354 16.1723C6.74264 16.2719 6.82096 16.3902 6.87395 16.5203C6.92693 16.6504 6.95353 16.7897 6.95219 16.9302L6.95218 16.9302V16.9321C6.95218 17.1415 6.89014 17.3463 6.77388 17.5205C6.65763 17.6947 6.49238 17.8306 6.29898 17.9109C6.10559 17.9913 5.89271 18.0126 5.68723 17.9721C5.48175 17.9316 5.29287 17.8312 5.14443 17.6834C4.99599 17.5357 4.89464 17.3473 4.85317 17.142C4.8117 16.9367 4.83197 16.7237 4.91143 16.53C4.99088 16.3362 5.12596 16.1703 5.29961 16.0532C5.47326 15.9361 5.6777 15.8731 5.88713 15.8721ZM4.46837 19.042C4.88804 19.3224 5.38144 19.4721 5.88618 19.4721C6.22131 19.4721 6.55317 19.4061 6.86279 19.2779C7.17241 19.1496 7.45374 18.9616 7.69072 18.7247C7.92769 18.4877 8.11567 18.2063 8.24392 17.8967C8.37217 17.5871 8.43818 17.2553 8.43818 16.9201C8.43818 16.4154 8.28851 15.922 8.00809 15.5023C7.72767 15.0826 7.32911 14.7555 6.86279 14.5624C6.39647 14.3692 5.88335 14.3187 5.38831 14.4172C4.89327 14.5156 4.43855 14.7587 4.08164 15.1156C3.72474 15.4725 3.48169 15.9272 3.38322 16.4222C3.28475 16.9173 3.33529 17.4304 3.52844 17.8967C3.7216 18.363 4.04869 18.7616 4.46837 19.042Z" fill="#165C7D" stroke="#165C7D" stroke-width="0.4" stroke-linejoin="round"/>
<path d="M5.88713 15.8721C5.90915 15.872 5.93032 15.8684 5.9501 15.8617C6.06908 15.8682 6.18627 15.8947 6.29669 15.9403C6.42654 15.9939 6.54444 16.0728 6.64354 16.1723C6.74264 16.2719 6.82096 16.3902 6.87395 16.5203C6.92693 16.6504 6.95353 16.7897 6.95219 16.9302L6.95218 16.9302V16.9321C6.95218 17.1415 6.89014 17.3463 6.77388 17.5205C6.65763 17.6947 6.49238 17.8306 6.29898 17.9109C6.10559 17.9913 5.89271 18.0126 5.68723 17.9721C5.48175 17.9316 5.29287 17.8312 5.14443 17.6834C4.99599 17.5357 4.89464 17.3473 4.85317 17.142C4.8117 16.9367 4.83197 16.7237 4.91143 16.53C4.99088 16.3362 5.12596 16.1703 5.29961 16.0532C5.47326 15.9361 5.6777 15.8731 5.88713 15.8721ZM4.46837 19.042C4.88804 19.3224 5.38144 19.4721 5.88618 19.4721C6.22131 19.4721 6.55317 19.4061 6.86279 19.2779C7.17241 19.1496 7.45374 18.9616 7.69072 18.7247C7.92769 18.4877 8.11567 18.2063 8.24392 17.8967C8.37217 17.5871 8.43818 17.2553 8.43818 16.9201C8.43818 16.4154 8.28851 15.922 8.00809 15.5023C7.72767 15.0826 7.32911 14.7555 6.86279 14.5624C6.39647 14.3692 5.88335 14.3187 5.38831 14.4172C4.89327 14.5156 4.43855 14.7587 4.08164 15.1156C3.72474 15.4725 3.48169 15.9272 3.38322 16.4222C3.28475 16.9173 3.33529 17.4304 3.52844 17.8967C3.7216 18.363 4.04869 18.7616 4.46837 19.042Z" fill="#165C7D" stroke="#165C7D" stroke-width="0.4" stroke-linejoin="round"/>
<path d="M18.2823 19.4721L18.2828 19.4721C18.9579 19.4687 19.6042 19.1985 20.0809 18.7206C20.5576 18.2427 20.8261 17.5957 20.8278 16.9206V16.9201C20.8278 16.4151 20.678 15.9214 20.3973 15.5016C20.1166 15.0818 19.7176 14.7547 19.2509 14.5618C18.7842 14.3688 18.2708 14.3186 17.7756 14.4176C17.2803 14.5166 16.8256 14.7603 16.469 15.1179C16.1123 15.4754 15.8698 15.9308 15.7721 16.4262C15.6743 16.9217 15.7258 17.435 15.92 17.9012C16.1141 18.3674 16.4422 18.7656 16.8628 19.0452C17.2833 19.3248 17.7773 19.4734 18.2823 19.4721ZM18.2809 15.8721C18.3021 15.8722 18.323 15.8689 18.3429 15.8626C18.6016 15.8803 18.8459 15.992 19.029 16.1777C19.2269 16.3784 19.3372 16.6493 19.3358 16.9312H19.3358V16.9321C19.3358 17.142 19.2735 17.3471 19.1568 17.5215C19.0401 17.696 18.8743 17.8318 18.6803 17.9119C18.4863 17.992 18.2729 18.0127 18.0672 17.9714C17.8614 17.93 17.6726 17.8286 17.5245 17.6798C17.3765 17.5311 17.2759 17.3417 17.2356 17.1358C17.1953 16.9298 17.217 16.7166 17.298 16.523C17.379 16.3294 17.5156 16.1642 17.6906 16.0483C17.8656 15.9324 18.071 15.8711 18.2809 15.8721Z" fill="#165C7D" stroke="#165C7D" stroke-width="0.4" stroke-linejoin="round"/>
<path d="M18.2823 19.4721L18.2828 19.4721C18.9579 19.4687 19.6042 19.1985 20.0809 18.7206C20.5576 18.2427 20.8261 17.5957 20.8278 16.9206V16.9201C20.8278 16.4151 20.678 15.9214 20.3973 15.5016C20.1166 15.0818 19.7176 14.7547 19.2509 14.5618C18.7842 14.3688 18.2708 14.3186 17.7756 14.4176C17.2803 14.5166 16.8256 14.7603 16.469 15.1179C16.1123 15.4754 15.8698 15.9308 15.7721 16.4262C15.6743 16.9217 15.7258 17.435 15.92 17.9012C16.1141 18.3674 16.4422 18.7656 16.8628 19.0452C17.2833 19.3248 17.7773 19.4734 18.2823 19.4721ZM18.2809 15.8721C18.3021 15.8722 18.323 15.8689 18.3429 15.8626C18.6016 15.8803 18.8459 15.992 19.029 16.1777C19.2269 16.3784 19.3372 16.6493 19.3358 16.9312H19.3358V16.9321C19.3358 17.142 19.2735 17.3471 19.1568 17.5215C19.0401 17.696 18.8743 17.8318 18.6803 17.9119C18.4863 17.992 18.2729 18.0127 18.0672 17.9714C17.8614 17.93 17.6726 17.8286 17.5245 17.6798C17.3765 17.5311 17.2759 17.3417 17.2356 17.1358C17.1953 16.9298 17.217 16.7166 17.298 16.523C17.379 16.3294 17.5156 16.1642 17.6906 16.0483C17.8656 15.9324 18.071 15.8711 18.2809 15.8721Z" fill="#165C7D" stroke="#165C7D" stroke-width="0.4" stroke-linejoin="round"/>
<path d="M1.5998 15.6002C1.5998 15.7106 1.68935 15.8002 1.7998 15.8002L19.9438 9.43216V9.23216H19.9433H18.4738C18.3634 9.23216 18.2738 9.3217 18.2738 9.43216V10.5182C18.2738 10.6286 18.3634 10.7182 18.4738 10.7182H19.9433C20.1947 10.7196 20.4354 10.8205 20.6127 10.9987C20.7902 11.1771 20.8898 11.4185 20.8898 11.6702V14.3082H3.1098V11.6702C3.1098 11.4177 3.2101 11.1755 3.38864 10.997C3.56717 10.8185 3.80932 10.7182 4.06181 10.7182H8.60381C8.71426 10.7182 8.80381 10.6286 8.80381 10.5182V9.43216C8.80381 9.3217 8.71426 9.23216 8.60381 9.23216H4.04381C3.39675 9.23216 2.77609 9.48875 2.31794 9.94568C1.85979 10.4026 1.60154 11.0226 1.5998 11.6696V11.6702V15.6002Z" fill="#165C7D" stroke="#165C7D" stroke-width="0.4" stroke-linejoin="round"/>
<path d="M1.5998 15.6002C1.5998 15.7106 1.68935 15.8002 1.7998 15.8002L19.9438 9.43216V9.23216H19.9433H18.4738C18.3634 9.23216 18.2738 9.3217 18.2738 9.43216V10.5182C18.2738 10.6286 18.3634 10.7182 18.4738 10.7182H19.9433C20.1947 10.7196 20.4354 10.8205 20.6127 10.9987C20.7902 11.1771 20.8898 11.4185 20.8898 11.6702V14.3082H3.1098V11.6702C3.1098 11.4177 3.2101 11.1755 3.38864 10.997C3.56717 10.8185 3.80932 10.7182 4.06181 10.7182H8.60381C8.71426 10.7182 8.80381 10.6286 8.80381 10.5182V9.43216C8.80381 9.3217 8.71426 9.23216 8.60381 9.23216H4.04381C3.39675 9.23216 2.77609 9.48875 2.31794 9.94568C1.85979 10.4026 1.60154 11.0226 1.5998 11.6696V11.6702V15.6002Z" fill="#165C7D" stroke="#165C7D" stroke-width="0.4" stroke-linejoin="round"/>
</svg>
