<svg width="58" height="34" viewBox="0 0 58 34" fill="none" xmlns="http://www.w3.org/2000/svg">
<path d="M15.2526 25.4633H13.4272V25.3443C13.7819 25.2763 13.8879 25.26 14.0119 24.8003L14.8706 21.6913C14.9136 21.5427 14.9402 21.3897 14.9499 21.235C14.9499 20.9909 14.7719 20.9501 14.3939 20.9202V20.8012H16.2606C16.5289 20.7691 16.8009 20.7961 17.0581 20.8805C17.3153 20.9648 17.5518 21.1045 17.7515 21.2901C17.9512 21.4757 18.1096 21.7029 18.2158 21.9563C18.322 22.2097 18.3737 22.4834 18.3672 22.7589C18.3659 24.4263 17.1732 25.4633 15.2526 25.4633ZM16.1846 21.0222C15.7786 21.0222 15.7466 21.1283 15.7179 21.231L14.8706 24.2692L14.8459 24.3603V24.3685C14.7851 24.5594 14.7405 24.7553 14.7126 24.954C14.7126 25.1967 14.8852 25.2409 15.2252 25.2409C15.6322 25.2762 16.0404 25.1894 16.3996 24.991C16.7588 24.7926 17.0532 24.4913 17.2466 24.1244C17.4636 23.6721 17.5728 23.174 17.5652 22.6705C17.5652 21.8144 17.3979 21.0222 16.1846 21.0222Z" fill="black"/>
<path d="M19.938 24.6888C19.6566 25.1233 19.338 25.5279 18.938 25.5279C18.5986 25.5279 18.5986 25.2042 18.5986 25.0716C18.5986 24.7255 19.1686 22.9004 19.1686 22.6916C19.1686 22.5372 19.1113 22.5005 18.714 22.5005V22.3829C18.988 22.3679 19.5866 22.2503 19.8686 22.1986L19.89 22.2135L19.2553 24.5834C19.2049 24.742 19.1664 24.9043 19.14 25.0689C19.1423 25.0986 19.1554 25.1264 19.1767 25.1468C19.198 25.1671 19.2261 25.1786 19.2553 25.179C19.342 25.179 19.5513 25.0322 19.8466 24.6051L19.938 24.6888Z" fill="black"/>
<path d="M19.7924 21.5274C19.7441 21.5284 19.6962 21.519 19.6517 21.4997C19.6073 21.4804 19.5674 21.4517 19.5346 21.4156C19.5018 21.3794 19.477 21.3365 19.4617 21.2898C19.4463 21.2431 19.4409 21.1936 19.4457 21.1446C19.4407 21.0954 19.4458 21.0458 19.4604 20.9987C19.475 20.9516 19.499 20.9081 19.5308 20.8708C19.5627 20.8336 19.6016 20.8034 19.6454 20.7822C19.6891 20.761 19.7367 20.7491 19.7851 20.7474C19.885 20.7554 19.9781 20.8022 20.0452 20.8781C20.1123 20.954 20.1483 21.0533 20.1457 21.1555C20.1448 21.2518 20.1076 21.3441 20.0419 21.4134C19.9761 21.4826 19.8868 21.5234 19.7924 21.5274Z" fill="black"/>
<path d="M23.3287 24.684C22.968 25.177 22.7154 25.5157 22.3287 25.5157C21.9954 25.5157 21.9827 25.2947 21.9827 25.0818C21.9827 24.905 22.516 23.1098 22.516 22.8154C22.516 22.6828 22.4727 22.5801 22.336 22.5801C21.99 22.5801 21.536 23.2132 21.2754 23.6253C20.9344 24.1871 20.6904 24.8044 20.554 25.4504H20.0127C20.2367 24.6188 20.7201 22.897 20.7201 22.7426C20.7201 22.6325 20.648 22.5516 20.258 22.5516V22.4339C20.6473 22.3605 21.0374 22.2864 21.4267 22.2061L21.448 22.2211L20.9867 23.7592L21.0014 23.7742C21.3407 23.2302 22.0014 22.2102 22.6014 22.2102C22.6671 22.2003 22.7341 22.2059 22.7974 22.2265C22.8607 22.247 22.9186 22.2821 22.9666 22.3289C23.0147 22.3757 23.0516 22.4331 23.0746 22.4966C23.0976 22.5602 23.1061 22.6283 23.0994 22.6957C23.0994 23.0119 22.5221 24.8295 22.5221 25.0505C22.5213 25.0827 22.533 25.1138 22.5546 25.1372C22.5761 25.1606 22.6059 25.1744 22.6374 25.1757C22.7814 25.1757 22.9621 24.9404 23.2287 24.5943L23.3287 24.684Z" fill="black"/>
<path d="M24.4186 25.5305C24.284 25.5394 24.1491 25.5184 24.0233 25.4689C23.8974 25.4195 23.7835 25.3428 23.6895 25.2442C23.5955 25.1456 23.5235 25.0274 23.4786 24.8977C23.4337 24.7679 23.4168 24.6298 23.4293 24.4929C23.4813 23.9182 23.7233 23.3786 24.1155 22.9627C24.5078 22.5468 25.027 22.2793 25.5879 22.204C25.9633 22.204 26.1786 22.3862 26.1786 22.7038C26.1786 23.3396 25.4186 23.8931 24.3313 24.0509L24.1313 24.0801L24.1226 24.1195C24.0868 24.2527 24.0658 24.3896 24.0599 24.5275C24.0556 24.6187 24.0703 24.7097 24.1032 24.7946C24.136 24.8794 24.1862 24.9562 24.2504 25.0197C24.3147 25.0832 24.3914 25.132 24.4756 25.1629C24.5598 25.1938 24.6494 25.206 24.7386 25.1987C25.142 25.1467 25.5146 24.9512 25.7906 24.6465L25.8786 24.7343C25.5105 25.1814 24.9876 25.4667 24.4186 25.5305ZM25.4493 22.3726C25.0799 22.3726 24.5873 22.8983 24.3026 23.5966L24.1799 23.9217C25.6846 23.6048 25.7019 22.7051 25.7019 22.6671C25.7019 22.4821 25.6073 22.3726 25.4493 22.3726Z" fill="black"/>
<path d="M26.1118 25.4504L26.6965 23.3016C26.7512 23.109 26.7899 22.912 26.8118 22.7127C26.8118 22.61 26.7758 22.4917 26.5518 22.4917C26.4716 22.4967 26.3919 22.509 26.3138 22.5284V22.4033C26.6818 22.3516 27.1071 22.2564 27.4318 22.2047L27.4531 22.2197L27.0998 23.6844L27.1145 23.6994L27.1725 23.5525C27.4105 23.0669 27.9591 22.2061 28.4131 22.2061C28.4597 22.2042 28.5061 22.2123 28.5494 22.2298C28.5927 22.2474 28.632 22.274 28.6646 22.3079C28.6972 22.3419 28.7224 22.3824 28.7387 22.427C28.755 22.4715 28.762 22.5191 28.7592 22.5665C28.7592 22.9493 28.4991 22.9493 28.4198 22.9493C28.1098 22.9493 28.2198 22.6841 28.0445 22.6841C27.8205 22.6841 27.3878 23.5001 27.3305 23.6109C27.0434 24.1982 26.8186 24.8151 26.6598 25.4511L26.1118 25.4504Z" fill="black"/>
<path d="M28.4338 24.374C28.4845 24.6976 28.5998 25.3749 29.1838 25.3749C29.2575 25.3742 29.3302 25.3578 29.3973 25.3267C29.4643 25.2956 29.5243 25.2505 29.5732 25.1943C29.6221 25.1381 29.659 25.0721 29.6814 25.0005C29.7037 24.9289 29.7112 24.8533 29.7032 24.7786C29.7032 24.2931 28.8445 23.5865 28.8445 23.0194C28.8402 22.9052 28.8603 22.7913 28.9033 22.6858C28.9463 22.5802 29.0112 22.4854 29.0936 22.4078C29.1759 22.3303 29.2738 22.2718 29.3804 22.2366C29.487 22.2013 29.5998 22.19 29.7111 22.2034C30.0358 22.2034 30.1778 22.3285 30.3965 22.3285C30.4389 22.3288 30.4804 22.3164 30.516 22.2928C30.5515 22.2693 30.5795 22.2356 30.5965 22.1959H30.6978L30.5538 23.2159H30.4385C30.4025 22.7964 30.2292 22.3693 29.7605 22.3693C29.7057 22.3649 29.6506 22.3731 29.5993 22.3935C29.5481 22.4138 29.502 22.4458 29.4646 22.4868C29.4271 22.5279 29.3993 22.5771 29.3831 22.6307C29.3669 22.6843 29.3628 22.7409 29.3711 22.7964C29.3711 23.2601 30.2511 23.915 30.2511 24.5406C30.2518 24.6798 30.2236 24.8176 30.1683 24.9449C30.113 25.0723 30.032 25.1862 29.9305 25.2793C29.829 25.3724 29.7094 25.4426 29.5794 25.4852C29.4495 25.5278 29.3121 25.5419 29.1765 25.5266C28.9598 25.5266 28.6712 25.3865 28.4625 25.3865C28.3618 25.3865 28.3325 25.4599 28.2891 25.5408H28.1738L28.3185 24.3706L28.4338 24.374Z" fill="black"/>
<path d="M36.368 22.017C36.3764 21.8632 36.3538 21.7092 36.3016 21.5646C36.2495 21.42 36.1689 21.2878 36.0648 21.1761C35.9607 21.0644 35.8353 20.9757 35.6963 20.9153C35.5573 20.8549 35.4077 20.8242 35.2567 20.825C33.814 20.825 33.078 22.6059 33.078 23.6877C33.078 24.652 33.478 25.2627 34.3333 25.2627C34.6548 25.2427 34.9687 25.1553 35.2555 25.0059C35.5423 24.8564 35.7957 24.6482 36 24.3943L36.1227 24.4977C35.8967 24.8182 35.6031 25.0831 35.2636 25.2728C34.9241 25.4625 34.5472 25.5722 34.1607 25.5938C33.9045 25.6054 33.6487 25.5615 33.4104 25.4649C33.172 25.3683 32.9565 25.2213 32.7779 25.0335C32.5993 24.8458 32.4618 24.6216 32.3743 24.3757C32.2869 24.1297 32.2516 23.8677 32.2707 23.6069C32.3001 22.8184 32.6165 22.0695 33.1581 21.5062C33.6998 20.9429 34.4277 20.6057 35.2 20.5604C35.5789 20.5907 35.9551 20.6498 36.3253 20.7372C36.5347 20.7372 36.578 20.6488 36.614 20.5754H36.7653L36.4986 22.0395L36.368 22.017Z" fill="black"/>
<path d="M38.0066 24.6242C37.6386 25.1906 37.3573 25.5442 36.91 25.5442C36.5926 25.5442 36.564 25.294 36.564 25.0879C36.564 24.9336 37.61 21.0922 37.61 20.9399C37.61 20.7488 37.3073 20.7488 37.1193 20.7556V20.638C37.4978 20.5933 37.8734 20.527 38.2446 20.4395L38.2806 20.4762L37.1913 24.7371C37.1589 24.8505 37.1349 24.9661 37.1193 25.0832C37.1193 25.1274 37.1193 25.2307 37.2273 25.2307C37.408 25.2307 37.5606 25.0267 37.9126 24.5609L38.0066 24.6242Z" fill="black"/>
<path d="M41.276 24.6541C40.8214 25.3239 40.634 25.515 40.276 25.515C40.2275 25.5181 40.1789 25.51 40.1339 25.4913C40.0888 25.4726 40.0485 25.4438 40.0159 25.407C39.9833 25.3702 39.9592 25.3263 39.9455 25.2788C39.9318 25.2312 39.9288 25.1811 39.9367 25.1321C40.0102 24.6743 40.1138 24.2219 40.2467 23.7782H40.2253C39.7347 24.6099 39.2007 25.5299 38.5514 25.5299C38.2914 25.5299 38.1514 25.4197 38.1514 25.0954C38.1514 24.771 38.6993 22.9194 38.6993 22.7154C38.6993 22.5019 38.562 22.5019 38.2667 22.5019V22.3985C38.6308 22.3537 38.9921 22.2874 39.3487 22.2L39.37 22.2149L38.7133 24.886C38.692 24.9818 38.7134 25.1362 38.8647 25.1362C39.1747 25.1362 39.6293 24.4446 39.8747 24.0618C40.213 23.5 40.4796 22.8965 40.668 22.2659H41.2014L40.6313 24.4664C40.5692 24.6558 40.5233 24.8503 40.494 25.0478C40.494 25.0845 40.5014 25.1654 40.5807 25.1654C40.718 25.1654 40.92 24.9077 41.172 24.584L41.276 24.6541Z" fill="black"/>
<path d="M42.2505 25.5449C41.8652 25.5449 41.3125 25.315 41.3125 25.1545V25.1253L42.2932 21.4377C42.3092 21.3737 42.3265 21.3112 42.3425 21.2534V21.2459C42.3756 21.1481 42.398 21.0468 42.4092 20.944C42.4092 20.7787 42.3652 20.74 41.9425 20.7311V20.606C42.3732 20.553 42.7125 20.5013 43.0458 20.4374L43.0825 20.4748L43.0685 20.5292C42.9352 21.0412 42.7045 21.8994 42.4578 22.731L42.4738 22.7392C42.597 22.51 42.7789 22.3193 43.0002 22.1875C43.2214 22.0558 43.4736 21.9879 43.7298 21.9912C44.2258 21.9912 44.5598 22.5699 44.5598 23.1105C44.5097 23.7258 44.2523 24.3045 43.8313 24.7483C43.4104 25.192 42.8518 25.4735 42.2505 25.5449ZM43.4458 22.3767C42.6652 22.3767 42.0332 23.8047 41.9325 25.1321C41.9299 25.1594 41.9329 25.1869 41.9414 25.2129C41.9499 25.239 41.9637 25.2628 41.9818 25.2831C42.0212 25.3178 42.0671 25.3439 42.1168 25.3598C42.1664 25.3757 42.2187 25.3811 42.2705 25.3755C43.2372 25.3755 43.9445 23.8517 43.9445 23.2043C43.9452 22.9534 43.8965 22.3767 43.4458 22.3767Z" fill="black"/>
<path d="M11.9619 30.7993C12.3152 30.7313 12.4239 30.7109 12.5466 30.2553L13.4059 27.1749C13.452 27.027 13.4787 26.8736 13.4852 26.7186C13.4852 26.4609 13.2906 26.4391 12.9799 26.4017V26.2841H14.7619V26.4017C14.4086 26.4697 14.2952 26.4826 14.1706 26.9457L13.3112 30.0336C13.2615 30.1857 13.2347 30.3446 13.2319 30.5048C13.2319 30.7401 13.4126 30.7625 13.7226 30.7993V30.9169H11.9619V30.7993Z" fill="black"/>
<path d="M17.4995 30.1518C17.1388 30.6448 16.8861 30.9835 16.4995 30.9835C16.1661 30.9835 16.1528 30.7625 16.1528 30.5497C16.1528 30.3729 16.6861 28.5776 16.6861 28.2832C16.6861 28.1506 16.6428 28.0479 16.5055 28.0479C16.1595 28.0479 15.7055 28.681 15.4448 29.0931C15.1038 29.6549 14.8598 30.2723 14.7234 30.9182H14.1821C14.4061 30.0866 14.8888 28.3648 14.8888 28.2097C14.8888 28.0996 14.8168 28.0187 14.4274 28.0187V27.901C14.8168 27.8276 15.2068 27.7541 15.5961 27.6732L15.6175 27.6882L15.1555 29.2263L15.1701 29.2413C15.5095 28.6973 16.1701 27.6739 16.7701 27.6739C16.8358 27.6641 16.9029 27.6696 16.9662 27.6902C17.0295 27.7108 17.0874 27.7458 17.1354 27.7926C17.1834 27.8394 17.2203 27.8968 17.2433 27.9604C17.2663 28.024 17.2748 28.092 17.2681 28.1594C17.2681 28.4756 16.6908 30.2933 16.6908 30.5143C16.6901 30.5464 16.7018 30.5775 16.7233 30.601C16.7449 30.6244 16.7747 30.6381 16.8061 30.6394C16.9501 30.6394 17.1308 30.4041 17.3981 30.058L17.4995 30.1518Z" fill="black"/>
<path d="M19.4229 28.0031H18.8136L18.1789 30.4511C18.1729 30.4702 18.1704 30.4903 18.1716 30.5103C18.17 30.5265 18.1717 30.5429 18.1769 30.5583C18.182 30.5737 18.1903 30.5878 18.2012 30.5997C18.2122 30.6116 18.2255 30.6209 18.2403 30.6271C18.255 30.6333 18.271 30.6361 18.2869 30.6354C18.4316 30.6354 18.6869 30.2893 18.8643 30.054L18.9583 30.1057C18.5903 30.6721 18.3089 30.9958 17.9336 30.9958C17.8917 31.001 17.8491 30.9973 17.8086 30.9852C17.7681 30.973 17.7304 30.9525 17.698 30.9249C17.6655 30.8973 17.6389 30.8633 17.6198 30.8248C17.6007 30.7864 17.5895 30.7444 17.5869 30.7013C17.6294 30.4716 17.6848 30.2446 17.7529 30.0213L18.2723 27.9977H17.7389C17.729 27.958 17.7343 27.9159 17.7536 27.88C17.7969 27.812 17.9989 27.7624 18.1216 27.6958C18.4221 27.5057 18.6882 27.2642 18.9082 26.9818C18.9369 26.9451 18.9663 26.8791 19.0309 26.8934C19.0816 26.8784 19.0976 26.945 19.0816 27.0035L18.8816 27.7617H19.4589L19.4229 28.0031Z" fill="black"/>
<path d="M20.2008 30.9992C20.0663 31.0077 19.9317 30.9865 19.8061 30.9369C19.6805 30.8873 19.5668 30.8106 19.473 30.712C19.3792 30.6134 19.3075 30.4953 19.2626 30.3658C19.2178 30.2362 19.201 30.0983 19.2134 29.9615C19.2651 29.387 19.5067 28.8476 19.8986 28.4317C20.2905 28.0157 20.8094 27.7481 21.3701 27.6726C21.7468 27.6726 21.9628 27.8548 21.9628 28.1724C21.9628 28.8082 21.2028 29.3617 20.1154 29.5195L19.9154 29.5487C19.8742 29.6954 19.8501 29.8465 19.8434 29.9989C19.8393 30.0899 19.8541 30.1807 19.8871 30.2654C19.92 30.3501 19.9703 30.4266 20.0345 30.4899C20.0987 30.5532 20.1754 30.6019 20.2595 30.6326C20.3435 30.6633 20.4331 30.6754 20.5221 30.668C20.9255 30.616 21.2981 30.4205 21.5741 30.1158L21.6621 30.2042C21.2951 30.6533 20.7708 30.9385 20.2008 30.9992ZM21.2334 27.8412C20.8641 27.8412 20.3714 28.3669 20.0868 29.0652L19.9641 29.3903C21.4688 29.0734 21.4861 28.1738 21.4861 28.1357C21.4909 28.099 21.488 28.0616 21.4776 28.0261C21.4671 27.9906 21.4493 27.9578 21.4253 27.9299C21.4014 27.902 21.3719 27.8797 21.3388 27.8644C21.3057 27.8491 21.2698 27.8412 21.2334 27.8412Z" fill="black"/>
<path d="M21.9238 30.9176L22.5085 28.7688C22.5634 28.5762 22.602 28.3792 22.6238 28.1799C22.6238 28.0772 22.5878 27.9589 22.3638 27.9589C22.2836 27.9639 22.2039 27.9761 22.1258 27.9956V27.8705C22.4938 27.8188 22.9191 27.7236 23.2438 27.6719L23.2658 27.6869L22.9125 29.1509L22.9272 29.1659L22.9845 29.0183C23.2225 28.5328 23.7711 27.6719 24.2251 27.6719C24.2718 27.6699 24.3183 27.6779 24.3617 27.6954C24.405 27.7129 24.4444 27.7395 24.4771 27.7735C24.5097 27.8075 24.535 27.8481 24.5514 27.8926C24.5677 27.9372 24.5747 27.9848 24.5718 28.0323C24.5718 28.4151 24.3118 28.4151 24.2325 28.4151C23.9218 28.4151 24.0325 28.15 23.8571 28.15C23.6331 28.15 23.2005 28.9659 23.1431 29.0775C22.856 29.6647 22.6312 30.2816 22.4725 30.9176H21.9238Z" fill="black"/>
<path d="M27.7126 30.1518C27.3519 30.6448 27.0993 30.9835 26.7126 30.9835C26.3793 30.9835 26.3666 30.7625 26.3666 30.5497C26.3666 30.3729 26.8999 28.5776 26.8999 28.2832C26.8999 28.1506 26.8566 28.0479 26.7193 28.0479C26.3733 28.0479 25.9193 28.681 25.6586 29.0931C25.3177 29.655 25.0737 30.2723 24.9373 30.9182H24.3926C24.6159 30.0866 25.0999 28.3648 25.0999 28.2097C25.0999 28.0996 25.0279 28.0187 24.6379 28.0187V27.901C25.0273 27.8276 25.4173 27.7541 25.8066 27.6732L25.8286 27.6882L25.3666 29.2263L25.3813 29.2413C25.7206 28.6973 26.3812 27.6739 26.9812 27.6739C27.047 27.6641 27.1141 27.6696 27.1774 27.6902C27.2407 27.7108 27.2985 27.7458 27.3465 27.7926C27.3945 27.8394 27.4315 27.8968 27.4545 27.9604C27.4775 28.024 27.4859 28.092 27.4792 28.1594C27.4792 28.4756 26.9019 30.2933 26.9019 30.5143C26.9012 30.5464 26.9129 30.5775 26.9345 30.601C26.9561 30.6244 26.9858 30.6381 27.0173 30.6394C27.1613 30.6394 27.3419 30.4041 27.6093 30.058L27.7126 30.1518Z" fill="black"/>
<path d="M28.4559 30.9992C28.1166 30.9992 27.7119 30.8489 27.7119 30.1308C27.7496 29.5252 27.9864 28.9503 28.3839 28.4988C28.5466 28.27 28.7543 28.0783 28.9937 27.936C29.2332 27.7937 29.4992 27.704 29.7746 27.6726C29.9004 27.6608 30.0263 27.694 30.1307 27.7666C30.2351 27.8392 30.3115 27.9466 30.3466 28.0704H30.3612L30.4326 27.7454L30.4552 27.7243L30.8946 27.6726L30.9452 27.6951C30.9452 27.7032 30.9372 27.7264 30.9272 27.7631V27.7746C30.4986 29.4066 30.2606 30.3852 30.2606 30.5191C30.261 30.5323 30.264 30.5452 30.2694 30.5572C30.2747 30.5692 30.2824 30.5799 30.2919 30.5889C30.3014 30.5978 30.3125 30.6047 30.3247 30.6092C30.3368 30.6137 30.3497 30.6156 30.3626 30.615C30.4439 30.615 30.5466 30.5089 30.7339 30.3165C30.7932 30.2553 30.8612 30.1859 30.9392 30.1077L31.0252 30.1812C30.5852 30.7326 30.3446 30.991 30.0359 30.991C29.7272 30.991 29.7332 30.8006 29.7332 30.6742C29.7512 30.4087 29.8023 30.1466 29.8852 29.8942L29.8712 29.8799C29.2486 30.8122 28.8686 30.9992 28.4559 30.9992ZM29.8112 27.8345C28.9652 27.8345 28.3186 29.4542 28.3186 30.1159C28.3186 30.5008 28.5512 30.6374 28.7506 30.6374C29.5112 30.6374 30.2232 29.049 30.2232 28.3254C30.2239 27.9644 30.0106 27.8345 29.8112 27.8345Z" fill="black"/>
<path d="M32.8453 28.0031H32.2393L31.6047 30.4511C31.5987 30.4702 31.5962 30.4903 31.5974 30.5103C31.5957 30.5265 31.5975 30.5429 31.6026 30.5583C31.6077 30.5737 31.6161 30.5878 31.627 30.5997C31.6379 30.6116 31.6512 30.6209 31.666 30.6271C31.6808 30.6333 31.6967 30.6361 31.7127 30.6354C31.8567 30.6354 32.1127 30.2893 32.29 30.054L32.384 30.1057C32.016 30.6721 31.7347 30.9958 31.3594 30.9958C31.3174 31.001 31.2749 30.9973 31.2344 30.9852C31.1939 30.973 31.1562 30.9525 31.1237 30.9249C31.0913 30.8973 31.0647 30.8633 31.0456 30.8248C31.0265 30.7864 31.0153 30.7444 31.0127 30.7013C31.0552 30.4716 31.1106 30.2446 31.1787 30.0213L31.698 27.9977H31.1647C31.1548 27.958 31.1601 27.9159 31.1794 27.88C31.2227 27.812 31.4247 27.7624 31.5474 27.6958C31.848 27.5058 32.1141 27.2643 32.334 26.9818C32.3627 26.9451 32.392 26.8791 32.4567 26.8934C32.5074 26.8784 32.5234 26.945 32.5074 27.0035L32.3074 27.7617H32.8847L32.8453 28.0031Z" fill="black"/>
<path d="M34.3613 30.1594C34.08 30.5939 33.7613 30.9985 33.3613 30.9985C33.022 30.9985 33.022 30.6748 33.022 30.5422C33.022 30.1961 33.592 28.371 33.592 28.1622C33.592 28.0079 33.534 27.9712 33.1373 27.9712V27.8535C33.4113 27.8385 34.01 27.7209 34.2913 27.6699L34.3127 27.6849L33.678 30.0547C33.6276 30.2133 33.5891 30.3756 33.5627 30.5402C33.5651 30.5698 33.5783 30.5975 33.5996 30.6179C33.6209 30.6382 33.6488 30.6498 33.678 30.6504C33.7646 30.6504 33.974 30.5034 34.27 30.0764L34.3613 30.1594Z" fill="black"/>
<path d="M34.2175 26.8845C34.1693 26.8854 34.1214 26.8759 34.077 26.8565C34.0327 26.8372 33.9928 26.8085 33.9602 26.7723C33.9275 26.7362 33.9026 26.6934 33.8874 26.6467C33.8721 26.6 33.8667 26.5506 33.8715 26.5016C33.8665 26.4525 33.8715 26.4028 33.8861 26.3558C33.9008 26.3087 33.9248 26.2651 33.9566 26.2279C33.9884 26.1906 34.0274 26.1605 34.0712 26.1393C34.1149 26.118 34.1624 26.1062 34.2108 26.1045C34.3107 26.1125 34.4038 26.1592 34.4709 26.2351C34.538 26.3111 34.574 26.4103 34.5715 26.5125C34.5705 26.609 34.5333 26.7014 34.4674 26.7706C34.4015 26.8399 34.312 26.8806 34.2175 26.8845Z" fill="black"/>
<path d="M35.5608 30.9991C35.4173 31.0195 35.2712 31.0066 35.1333 30.9612C34.9954 30.9159 34.8693 30.8394 34.7645 30.7374C34.6597 30.6354 34.5788 30.5105 34.528 30.3721C34.4771 30.2338 34.4576 30.0855 34.4708 29.9383C34.5068 29.3665 34.7391 28.8259 35.1271 28.4115C35.5151 27.9971 36.0338 27.7355 36.5922 27.6725C36.7347 27.6616 36.878 27.6822 37.012 27.7331C37.146 27.784 37.2676 27.8638 37.3685 27.9672C37.4693 28.0706 37.547 28.1951 37.5962 28.332C37.6454 28.469 37.665 28.6152 37.6535 28.7605C37.6535 29.6248 36.6955 30.9991 35.5608 30.9991ZM36.5415 27.8269C35.7468 27.8269 35.0748 29.2597 35.0748 30.1593C35.0748 30.5809 35.2962 30.8434 35.6528 30.8434C36.4708 30.8434 37.0448 29.3474 37.0448 28.5314C37.0462 28.1921 36.9135 27.8269 36.5415 27.8269Z" fill="black"/>
<path d="M40.7673 30.1518C40.4067 30.6448 40.154 30.9835 39.7673 30.9835C39.434 30.9835 39.4213 30.7625 39.4213 30.5497C39.4213 30.3729 39.9547 28.5776 39.9547 28.2832C39.9547 28.1506 39.9113 28.0479 39.774 28.0479C39.4273 28.0479 38.974 28.681 38.7133 29.0931C38.3724 29.6549 38.1284 30.2723 37.992 30.9182H37.4507C37.674 30.0866 38.1573 28.3648 38.1573 28.2097C38.1573 28.0996 38.0854 28.0187 37.6954 28.0187V27.901C38.0847 27.8276 38.4747 27.7541 38.864 27.6732L38.8853 27.6882L38.4233 29.2263L38.438 29.2413C38.7773 28.6973 39.438 27.6739 40.038 27.6739C40.1037 27.6641 40.1708 27.6696 40.2341 27.6902C40.2974 27.7108 40.3553 27.7458 40.4033 27.7926C40.4513 27.8394 40.4882 27.8968 40.5112 27.9604C40.5342 28.024 40.5427 28.092 40.536 28.1594C40.536 28.4756 39.9587 30.2933 39.9587 30.5143C39.9579 30.5464 39.9696 30.5775 39.9912 30.601C40.0128 30.6244 40.0425 30.6381 40.074 30.6394C40.218 30.6394 40.3987 30.4041 40.666 30.058L40.7673 30.1518Z" fill="black"/>
<path d="M41.5394 30.9992C41.2001 30.9992 40.7954 30.8489 40.7954 30.1309C40.8331 29.5253 41.0699 28.9503 41.4674 28.4989C41.6301 28.27 41.8378 28.0783 42.0772 27.936C42.3167 27.7937 42.5827 27.704 42.8581 27.6727C42.9838 27.6604 43.1097 27.6935 43.214 27.7662C43.3182 27.8389 43.3942 27.9465 43.4287 28.0705H43.4447L43.5161 27.7454L43.5361 27.7243L43.9781 27.6727L44.0287 27.6951C44.0287 27.7033 44.0207 27.7264 44.0107 27.7631V27.7747C43.5821 29.4067 43.3441 30.3852 43.3441 30.5191C43.3445 30.5323 43.3475 30.5452 43.3529 30.5572C43.3582 30.5692 43.3659 30.5799 43.3754 30.5889C43.3849 30.5978 43.396 30.6047 43.4082 30.6092C43.4203 30.6137 43.4332 30.6156 43.4461 30.615C43.5274 30.615 43.6301 30.5089 43.8174 30.3165C43.8767 30.2553 43.9447 30.1859 44.0227 30.1077L44.1087 30.1812C43.6687 30.7327 43.4281 30.9911 43.1194 30.9911C42.8107 30.9911 42.8154 30.8007 42.8154 30.6742C42.8348 30.4089 42.8856 30.147 42.9667 29.8942L42.9541 29.8799C42.3287 30.8122 41.9501 30.9992 41.5394 30.9992ZM42.8947 27.8345C42.0487 27.8345 41.4021 29.4543 41.4021 30.1159C41.4021 30.5008 41.6347 30.6375 41.8341 30.6375C42.5947 30.6375 43.3067 29.049 43.3067 28.3255C43.3074 27.9644 43.0941 27.8345 42.8947 27.8345Z" fill="black"/>
<path d="M45.4832 30.2797C45.1152 30.8461 44.9752 30.9985 44.5278 30.9985C44.2105 30.9985 44.1812 30.7482 44.1812 30.5422C44.1812 30.3878 45.2271 26.5465 45.2271 26.3941C45.2271 26.2031 44.9245 26.2031 44.7365 26.2099V26.0922C45.1149 26.0475 45.4906 25.9813 45.8618 25.8937L45.8978 25.9304L44.8085 30.1913C44.7762 30.3047 44.7521 30.4204 44.7365 30.5374C44.7365 30.5816 44.7365 30.6843 44.8445 30.6843C45.0251 30.6843 45.0352 30.6795 45.3892 30.2158L45.4832 30.2797Z" fill="black"/>
<path d="M33.1274 19.8302C35.0193 19.8302 36.8337 19.0636 38.1714 17.6991C39.5092 16.3346 40.2607 14.4839 40.2607 12.5542C40.2607 10.6245 39.5092 8.77381 38.1714 7.4093C36.8337 6.04478 35.0193 5.2782 33.1274 5.2782H24.1094C22.2175 5.2782 20.4031 6.04478 19.0654 7.4093C17.7276 8.77381 16.9761 10.6245 16.9761 12.5542C16.9761 14.4839 17.7276 16.3346 19.0654 17.6991C20.4031 19.0636 22.2175 19.8302 24.1094 19.8302H33.1274Z" fill="#2656A0"/>
<path d="M29.0416 17.5839C31.7654 14.8057 31.7654 10.3012 29.0416 7.523C26.3178 4.74474 21.9017 4.74474 19.1779 7.523C16.4542 10.3012 16.4542 14.8057 19.1779 17.5839C21.9017 20.3622 26.3178 20.3622 29.0416 17.5839Z" fill="white"/>
<path d="M22.7015 8.1947C21.8662 8.49332 21.1427 9.0495 20.6311 9.78619C20.1196 10.5229 19.8452 11.4036 19.8462 12.3064C19.8471 13.2092 20.1233 14.0893 20.6364 14.8249C21.1496 15.5604 21.8743 16.115 22.7102 16.4118L22.7015 8.1947Z" fill="#2656A0"/>
<path d="M28.374 12.3019C28.3738 13.2058 28.0976 14.0872 27.5839 14.8237C27.0702 15.5602 26.3444 16.1152 25.5073 16.4118L25.516 8.1947C26.3508 8.49284 27.0741 9.04824 27.5859 9.78405C28.0977 10.5199 28.3726 11.3997 28.3726 12.3019" fill="#2656A0"/>
</svg>
