<svg width="58" height="34" viewBox="0 0 58 34" fill="none" xmlns="http://www.w3.org/2000/svg">
<path d="M8.3916 4.49683H49.7069V30.4443H8.39294L8.3916 4.49683Z" fill="white"/>
<path d="M49.7074 4.34042H8.24072V30.5939H49.8587V4.33838L49.7074 4.34042ZM49.5561 4.63758C49.5561 4.9293 49.5561 30.005 49.5561 30.2974H8.54339C8.54339 30.005 8.54339 4.93338 8.54339 4.63826L49.5561 4.63758Z" fill="#1A1818"/>
<path d="M49.5546 18.5286C49.5546 18.5286 38.2666 26.6518 17.5933 30.2926H49.5546V18.5286Z" fill="#F36A10"/>
<path d="M30.0372 10.9391C29.2374 10.9242 28.4645 11.2338 27.8884 11.8C27.3124 12.3662 26.9803 13.1425 26.9652 13.9583C26.944 14.5809 27.1055 15.1958 27.4291 15.7242C27.7526 16.2526 28.2235 16.6704 28.7813 16.924C29.3392 17.1777 29.9586 17.2557 30.5601 17.148C31.1617 17.0403 31.7181 16.7519 32.1579 16.3196C32.5977 15.8874 32.901 15.331 33.0288 14.7218C33.1566 14.1126 33.1032 13.4784 32.8754 12.9003C32.6476 12.3223 32.2557 11.8269 31.7501 11.4774C31.2444 11.128 30.648 10.9406 30.0372 10.9391Z" fill="url(#paint0_radial_435_2228)"/>
<path d="M12.5971 11.048H10.9458V16.9232H12.5885C13.3325 16.9643 14.0651 16.722 14.6438 16.2432C14.969 15.9676 15.2311 15.6228 15.4117 15.2329C15.5922 14.843 15.687 14.4175 15.6891 13.9863C15.6891 12.2536 14.4185 11.048 12.5971 11.048ZM13.9105 15.4605C13.4772 15.8155 12.9249 15.9834 12.3718 15.9283H12.0698V12.0428H12.3711C12.6457 12.0143 12.9231 12.0417 13.1873 12.1234C13.4514 12.2051 13.697 12.3395 13.9098 12.5188C14.1071 12.7051 14.2642 12.9314 14.371 13.1831C14.4777 13.4349 14.5318 13.7065 14.5298 13.9808C14.532 14.2577 14.4782 14.532 14.3716 14.7866C14.265 15.0412 14.108 15.2707 13.9105 15.4605Z" fill="#00121A"/>
<path d="M17.3295 11.048H16.2075V16.9232H17.3295V11.048Z" fill="#00121A"/>
<path d="M20.0776 13.3048C19.4029 13.0498 19.2042 12.8819 19.2042 12.5657C19.2042 12.1957 19.5576 11.9135 20.0422 11.9135C20.219 11.9176 20.3926 11.9625 20.5499 12.045C20.7072 12.1274 20.8441 12.2453 20.9502 12.3895L21.5369 11.6069C21.0714 11.1826 20.4678 10.9499 19.8436 10.9541C19.6163 10.9398 19.3886 10.9725 19.1741 11.0501C18.9595 11.1277 18.7625 11.2486 18.5948 11.4057C18.4272 11.5627 18.2923 11.7527 18.1982 11.9641C18.1042 12.1756 18.053 12.4042 18.0476 12.6364C18.0476 13.4476 18.4102 13.8604 19.4642 14.25C19.7334 14.3356 19.9938 14.4479 20.2416 14.5853C20.3448 14.6477 20.4302 14.7366 20.4894 14.8431C20.5486 14.9496 20.5794 15.0701 20.5789 15.1925C20.5778 15.3063 20.5541 15.4187 20.509 15.5229C20.464 15.627 20.3986 15.7207 20.3169 15.7982C20.2351 15.8757 20.1388 15.9354 20.0337 15.9737C19.9286 16.0119 19.8169 16.0279 19.7056 16.0207C19.4488 16.0249 19.1964 15.9532 18.9789 15.8142C18.7613 15.6752 18.5879 15.4748 18.4796 15.2374L17.7549 15.9521C17.9591 16.3034 18.2519 16.5925 18.6028 16.7892C18.9538 16.986 19.35 17.0831 19.7502 17.0707C20.0076 17.0887 20.2659 17.052 20.5086 16.9627C20.7513 16.8734 20.9732 16.7335 21.16 16.552C21.3468 16.3704 21.4945 16.1512 21.5937 15.9083C21.6929 15.6653 21.7415 15.4039 21.7362 15.1408C21.7356 14.2017 21.3562 13.7808 20.0776 13.3048Z" fill="#00121A"/>
<path d="M22.0895 13.9903C22.0863 14.3969 22.163 14.8001 22.3151 15.176C22.4673 15.5519 22.6917 15.8929 22.9752 16.1789C23.2588 16.4648 23.5956 16.6899 23.9658 16.8409C24.336 16.9918 24.7321 17.0656 25.1308 17.0577C25.6198 17.0593 26.1023 16.9428 26.5388 16.7177V15.3693C26.3711 15.5695 26.1632 15.7305 25.9291 15.8415C25.695 15.9525 25.4402 16.0108 25.1821 16.0126C24.9216 16.02 24.6624 15.9723 24.421 15.8723C24.1795 15.7724 23.961 15.6224 23.7793 15.4318C23.5976 15.2413 23.4566 15.0144 23.3653 14.7654C23.274 14.5165 23.2343 14.2509 23.2488 13.9855C23.2405 13.7263 23.2829 13.4681 23.3735 13.2258C23.4641 12.9835 23.6011 12.7621 23.7764 12.5744C23.9518 12.3866 24.162 12.2364 24.3949 12.1324C24.6278 12.0284 24.8786 11.9727 25.1328 11.9686C25.4001 11.9704 25.6639 12.0302 25.9067 12.1442C26.1495 12.2582 26.3656 12.4236 26.5408 12.6296V11.2811C26.117 11.0443 25.6414 10.9205 25.1581 10.9214C24.7587 10.916 24.3622 10.9913 23.9914 11.1428C23.6207 11.2944 23.2829 11.5193 22.9977 11.8045C22.7125 12.0897 22.4854 12.4297 22.3295 12.8048C22.1736 13.18 22.0921 13.5828 22.0895 13.9903Z" fill="#00121A"/>
<path d="M35.6414 14.9899L34.1041 11.0459H32.8774L35.3228 17.0714H35.9268L38.4148 11.0459H37.1974L35.6414 14.9899Z" fill="#00121A"/>
<path d="M38.9263 16.9232H42.1129V15.9283H40.0463V14.3412H42.0336V13.3464H40.0483V12.0421H42.1149V11.048H38.9283L38.9263 16.9232Z" fill="#00121A"/>
<path d="M46.5597 12.782C46.5597 11.6811 45.8176 11.048 44.5216 11.048H42.855V16.9232H43.979V14.5615H44.1263L45.6803 16.9232H47.0623L45.247 14.4487C45.6323 14.3927 45.9823 14.1893 46.2261 13.8798C46.4699 13.5703 46.5891 13.1778 46.5597 12.782ZM44.305 13.7523H43.9783V11.9721H44.323C45.0243 11.9721 45.4043 12.2727 45.4043 12.8439C45.4043 13.4341 45.0243 13.7523 44.305 13.7523Z" fill="#00121A"/>
<path d="M47.3522 11.5348C47.3522 11.4321 47.2856 11.3763 47.1609 11.3763H46.9976V11.8938H47.1176V11.6898L47.2595 11.8938H47.4102L47.2416 11.6803C47.2739 11.6734 47.3028 11.655 47.3231 11.6283C47.3434 11.6016 47.3537 11.5685 47.3522 11.5348ZM47.1402 11.6028H47.1209V11.4668H47.1442C47.2042 11.4668 47.2342 11.4892 47.2342 11.5348C47.2342 11.5803 47.1996 11.6055 47.1402 11.6055V11.6028Z" fill="#1A1818"/>
<path d="M47.1847 11.1846C47.0968 11.1834 47.0105 11.2089 46.9368 11.2578C46.8631 11.3068 46.8053 11.377 46.7708 11.4595C46.7364 11.542 46.7267 11.6331 46.7432 11.7212C46.7596 11.8093 46.8013 11.8905 46.8631 11.9543C46.9248 12.0182 47.0038 12.0619 47.09 12.0798C47.1761 12.0978 47.2656 12.0892 47.3469 12.0551C47.4283 12.0211 47.4979 11.9632 47.5469 11.8887C47.5959 11.8142 47.622 11.7265 47.622 11.6368C47.6224 11.5178 47.5766 11.4035 47.4947 11.3188C47.4128 11.2341 47.3014 11.1859 47.1847 11.1846ZM47.1847 12.0081C47.1123 12.0111 47.0406 11.9919 46.9789 11.953C46.9173 11.9141 46.8684 11.8573 46.8387 11.7898C46.8089 11.7224 46.7996 11.6474 46.812 11.5746C46.8244 11.5017 46.8579 11.4343 46.9081 11.381C46.9584 11.3276 47.0231 11.2909 47.094 11.2754C47.1649 11.2599 47.2387 11.2664 47.3059 11.2941C47.3732 11.3218 47.4308 11.3693 47.4713 11.4306C47.5118 11.4919 47.5334 11.5642 47.5334 11.6382C47.5346 11.7343 47.4986 11.8271 47.4332 11.8964C47.3678 11.9656 47.2783 12.0058 47.184 12.0081H47.1847Z" fill="#1A1818"/>
<path d="M21.0153 18.2457L22.518 19.8519V18.33H22.7327V20.3836L21.23 18.7816V20.2959H21.0146L21.0153 18.2457Z" fill="#1A1818"/>
<path d="M20.9951 18.2458V20.3164H21.2498V18.8319L22.7525 20.4347V18.309H22.4978V19.8009C22.4311 19.7329 20.9951 18.1941 20.9951 18.1941V18.2458ZM21.0358 18.2968C21.1025 18.3648 22.5391 19.9029 22.5391 19.9029V18.3519H22.7125V20.3361L21.2104 18.732V20.2776H21.0351L21.0358 18.2968Z" fill="#1A1818"/>
<path d="M23.7739 18.3301H24.7739V18.5341H23.9899V19.1189H24.7513V19.3229H23.9899V20.0947H24.7739V20.2987H23.7739V18.3301Z" fill="#1A1818"/>
<path d="M24.7726 18.3096H23.752V20.317H24.7913V20.0722H24.0073V19.3412H24.7679V19.0984H24.0073V18.5544H24.7913V18.309L24.7726 18.3096ZM24.7526 18.3498V18.5123H23.9679V19.1379H24.7293V19.2997H23.9679V20.1123H24.752V20.2748H23.7926V18.3491L24.7526 18.3498Z" fill="#1A1818"/>
<path d="M26.2894 20.2959H26.0741V18.5333H25.6074V18.3293H26.7574V18.5333H26.2874L26.2894 20.2959Z" fill="#1A1818"/>
<path d="M26.7592 18.3097H25.5879V18.5552H26.0546V20.317H26.3092V18.5552H26.7799V18.3097H26.7592ZM26.7392 18.3498V18.5123H26.2686V20.2749H26.0939V18.5123H25.6272V18.3498H26.7392Z" fill="#1A1818"/>
<path d="M28.1955 19.8022L28.8195 18.2267L29.4428 19.8022L29.9489 18.3294H30.1822L29.4428 20.3966L28.8195 18.8135L28.1955 20.3966L27.4575 18.3294H27.6895L28.1955 19.8022Z" fill="#1A1818"/>
<path d="M28.8006 18.2192L28.1959 19.7437L27.7026 18.3082H27.4272L28.1946 20.4543C28.1946 20.4543 28.7833 18.9583 28.8186 18.8679C28.8539 18.9583 29.4426 20.4543 29.4426 20.4543L30.2099 18.3082H29.9346L29.4413 19.7437C29.4033 19.6492 28.8186 18.1722 28.8186 18.1722L28.8006 18.2192ZM28.2132 19.8097L28.8186 18.2824C28.8539 18.3701 29.4432 19.86 29.4432 19.86C29.4432 19.86 29.9526 18.3756 29.9626 18.3484H30.1526C30.1346 18.4007 29.4759 20.2435 29.4413 20.3387L28.8186 18.7584L28.1953 20.3387C28.1619 20.2435 27.5039 18.4007 27.4852 18.3484H27.6746L28.1939 19.86L28.2132 19.8097Z" fill="#1A1818"/>
<path d="M32.9576 19.3147C32.9585 19.5176 32.9004 19.7162 32.7905 19.8853C32.6807 20.0545 32.5241 20.1865 32.3406 20.2648C32.1571 20.3431 31.955 20.3641 31.7598 20.3251C31.5646 20.2861 31.3851 20.1889 31.2442 20.0457C31.1032 19.9026 31.007 19.72 30.9679 19.5211C30.9287 19.3222 30.9484 19.1159 31.0243 18.9284C31.1002 18.7409 31.2289 18.5805 31.3943 18.4677C31.5596 18.3549 31.754 18.2947 31.9529 18.2947C32.0846 18.2941 32.2151 18.32 32.337 18.371C32.4589 18.4219 32.5697 18.497 32.663 18.5918C32.7564 18.6865 32.8304 18.7992 32.881 18.9233C32.9315 19.0473 32.9576 19.1803 32.9576 19.3147ZM31.1629 19.3147C31.1649 19.4736 31.2129 19.6283 31.3008 19.7595C31.3888 19.8906 31.5128 19.9923 31.6573 20.0518C31.8018 20.1112 31.9602 20.1258 32.1128 20.0936C32.2654 20.0614 32.4052 19.9839 32.5147 19.8709C32.6242 19.7579 32.6985 19.6144 32.7283 19.4584C32.758 19.3024 32.7419 19.1409 32.6819 18.9943C32.622 18.8476 32.5208 18.7223 32.3912 18.6341C32.2616 18.546 32.1093 18.4988 31.9536 18.4987C31.7434 18.5012 31.5426 18.588 31.3946 18.7403C31.2466 18.8926 31.1634 19.0982 31.1629 19.3127V19.3147Z" fill="#1A1818"/>
<path d="M30.9287 19.3147C30.9275 19.5216 30.9866 19.7243 31.0985 19.897C31.2104 20.0697 31.37 20.2046 31.5571 20.2846C31.7442 20.3647 31.9504 20.3862 32.1496 20.3466C32.3488 20.307 32.5319 20.2079 32.6758 20.062C32.8197 19.9161 32.9179 19.7299 32.9579 19.527C32.9979 19.3241 32.978 19.1136 32.9006 18.9223C32.8232 18.7309 32.6919 18.5673 32.5233 18.4522C32.3547 18.3371 32.1563 18.2756 31.9534 18.2756C31.8192 18.2752 31.6863 18.3017 31.5621 18.3537C31.438 18.4057 31.3251 18.4821 31.23 18.5786C31.1348 18.6751 31.0592 18.7898 31.0076 18.9161C30.9559 19.0424 30.9291 19.1778 30.9287 19.3147ZM30.9681 19.3147C30.966 19.1155 31.0219 18.9201 31.1289 18.7534C31.2359 18.5867 31.389 18.4562 31.5689 18.3784C31.7487 18.3007 31.9472 18.2792 32.139 18.3168C32.3308 18.3543 32.5074 18.4492 32.6463 18.5893C32.7851 18.7294 32.88 18.9084 32.9189 19.1037C32.9578 19.2989 32.939 19.5016 32.8647 19.6859C32.7904 19.8701 32.6642 20.0278 32.5019 20.1387C32.3396 20.2496 32.1487 20.3088 31.9534 20.3088C31.6937 20.3096 31.4443 20.2054 31.2596 20.0191C31.075 19.8328 30.9702 19.5796 30.9681 19.3147Z" fill="#1A1818"/>
<path d="M31.1426 19.3133C31.144 19.4763 31.1927 19.6353 31.2826 19.7702C31.3724 19.905 31.4994 20.0098 31.6475 20.0712C31.7956 20.1326 31.9582 20.1479 32.1148 20.1153C32.2714 20.0826 32.4151 20.0034 32.5276 19.8876C32.6402 19.7719 32.7167 19.6247 32.7474 19.4647C32.7782 19.3047 32.7618 19.1389 32.7004 18.9884C32.639 18.8379 32.5353 18.7092 32.4023 18.6187C32.2694 18.5281 32.1131 18.4798 31.9533 18.4796C31.7374 18.4807 31.5308 18.5691 31.3788 18.7254C31.2268 18.8817 31.1419 19.0931 31.1426 19.3133ZM31.1832 19.3133C31.185 19.1585 31.2315 19.0077 31.3171 18.8798C31.4026 18.752 31.5233 18.6528 31.664 18.5947C31.8046 18.5366 31.959 18.5223 32.1077 18.5535C32.2563 18.5847 32.3926 18.6601 32.4993 18.7701C32.6061 18.8801 32.6786 19.0199 32.7076 19.1718C32.7367 19.3238 32.721 19.4811 32.6627 19.624C32.6043 19.7669 32.5058 19.8889 32.3796 19.9749C32.2533 20.0608 32.105 20.1067 31.9533 20.1068C31.748 20.1056 31.5517 20.0213 31.4073 19.8725C31.2629 19.7238 31.1824 19.5226 31.1832 19.3133Z" fill="#1A1818"/>
<path d="M34.1041 20.296H33.8901V18.3301H34.1688C34.5341 18.3301 34.8735 18.4294 34.8735 18.8741C34.8776 18.9423 34.8683 19.0107 34.8462 19.0752C34.824 19.1397 34.7894 19.1991 34.7445 19.2498C34.6995 19.3004 34.645 19.3415 34.5843 19.3704C34.5236 19.3993 34.4578 19.4155 34.3908 19.4181L35.0041 20.3021H34.7375L34.1561 19.4385H34.1041V20.296ZM34.1041 19.2399H34.1708C34.4128 19.2399 34.6588 19.193 34.6588 18.8877C34.6588 18.5654 34.4261 18.5327 34.1681 18.5327H34.1015L34.1041 19.2399Z" fill="#1A1818"/>
<path d="M33.8887 18.3097H33.8687V20.317H34.1233V19.4534H34.1567C34.1567 19.4684 34.7233 20.3075 34.7233 20.3075L35.0027 20.317H35.042C35.042 20.317 34.454 19.4725 34.4233 19.4269C34.5559 19.4132 34.6783 19.348 34.7651 19.2448C34.852 19.1417 34.8967 19.0085 34.89 18.8727C34.89 18.4933 34.6533 18.3097 34.1653 18.3097H33.8887ZM34.1673 18.3498C34.634 18.3498 34.852 18.5157 34.852 18.8727C34.8556 18.9384 34.8463 19.0042 34.8247 19.0662C34.8031 19.1281 34.7696 19.1851 34.7261 19.2337C34.6827 19.2824 34.6301 19.3217 34.5716 19.3493C34.5131 19.377 34.4498 19.3925 34.3853 19.395L34.35 19.3984L34.962 20.2756H34.738C34.738 20.2606 34.1713 19.4208 34.1713 19.4208L34.1047 19.412H34.0847V20.2749H33.9107V18.3491L34.1673 18.3498Z" fill="#1A1818"/>
<path d="M34.1025 18.53H34.0825V19.278H34.1692C34.4059 19.278 34.6779 19.2352 34.6779 18.9061C34.6779 18.5593 34.4112 18.5307 34.1672 18.5307L34.1025 18.53ZM34.1692 18.5729C34.4165 18.5729 34.6358 18.5967 34.6358 18.9061C34.6358 19.1978 34.3999 19.2365 34.1692 19.2365H34.1232V18.5729H34.1692Z" fill="#1A1818"/>
<path d="M36.948 18.3301H37.2366L36.332 19.2427L37.2653 20.2926H36.9686L36.1786 19.3909L36.1253 19.4446V20.2933H35.9106V18.3274H36.1253V19.1747L36.948 18.3301Z" fill="#1A1818"/>
<path d="M37.2375 18.3096H36.9409C36.9409 18.3096 36.2075 19.0576 36.1482 19.1256V18.3096H35.8936V20.317H36.1482V19.4513C36.1598 19.4437 36.1703 19.4345 36.1795 19.4241C36.2069 19.454 36.9562 20.3081 36.9562 20.3081L37.2676 20.3149H37.3136C37.3136 20.3149 36.3849 19.2725 36.3589 19.2453L37.2849 18.3082L37.2375 18.3096ZM37.1882 18.3497C37.1215 18.4177 36.3042 19.2446 36.3042 19.2446L37.2222 20.2748H36.9709C36.9709 20.2646 36.1956 19.3799 36.1956 19.3799L36.1822 19.3629L36.1156 19.4309C36.1156 19.4309 36.1102 20.2333 36.1102 20.2728H35.9362V18.347H36.1102V19.2194L36.9589 18.347L37.1882 18.3497Z" fill="#1A1818"/>
<defs>
<radialGradient id="paint0_radial_435_2228" cx="0" cy="0" r="1" gradientUnits="userSpaceOnUse" gradientTransform="translate(27.0149 14.0668) scale(3.03519 3.16579)">
<stop offset="0.006" stop-color="#FFEAD9"/>
<stop offset="0.106" stop-color="#FEE4D0"/>
<stop offset="0.27" stop-color="#FDD4B7"/>
<stop offset="0.477" stop-color="#FABB8F"/>
<stop offset="0.72" stop-color="#F79858"/>
<stop offset="0.988" stop-color="#F36C13"/>
<stop offset="1" stop-color="#F36A10"/>
</radialGradient>
</defs>
</svg>
