<svg width="58" height="34" viewBox="0 0 58 34" fill="none" xmlns="http://www.w3.org/2000/svg">
<path d="M12.8762 11.6563C13.6089 11.4083 14.3848 11.3215 15.1528 11.4014C15.9208 11.4814 16.6635 11.7264 17.3319 12.1203C18.0004 12.5141 18.5795 13.0479 19.0311 13.6865C19.4828 14.3251 19.7967 15.0541 19.9522 15.8254L23.6935 15.0474C23.4304 13.7359 22.8975 12.4961 22.13 11.4101C21.3625 10.3241 20.3778 9.41655 19.241 8.74734C18.1043 8.07814 16.8413 7.66251 15.5354 7.52793C14.2295 7.39334 12.9106 7.54287 11.6655 7.9666L12.8762 11.6563Z" fill="#FFCB05"/>
<path d="M8.46227 24.0214L10.9956 21.1042C10.4171 20.5822 9.95387 19.9408 9.63662 19.2225C9.31936 18.5042 9.1553 17.7253 9.1553 16.9375C9.1553 16.1497 9.31936 15.3708 9.63662 14.6525C9.95387 13.9342 10.4171 13.2928 10.9956 12.7708L8.46227 9.85156C7.47869 10.7393 6.69116 11.83 6.15178 13.0514C5.61241 14.2728 5.3335 15.5972 5.3335 16.9368C5.3335 18.2764 5.61241 19.6008 6.15178 20.8222C6.69116 22.0437 7.47869 23.1344 8.46227 24.0221" fill="#00A4E0"/>
<path d="M19.9523 18.051C19.7002 19.3071 19.0306 20.4358 18.0568 21.2464C17.0829 22.0569 15.8645 22.4996 14.6076 22.4996C14.0183 22.5016 13.4328 22.4049 12.8742 22.2133L11.6636 25.9084C12.908 26.3306 14.2261 26.4793 15.5309 26.3445C16.8357 26.2098 18.0978 25.7947 19.2341 25.1267C20.3703 24.4586 21.355 23.5526 22.1233 22.4685C22.8916 21.3843 23.4261 20.1465 23.6916 18.8364L19.9523 18.051Z" fill="#EF4123"/>
<path d="M26.9635 21.2252C26.8176 20.9788 26.6874 20.723 26.5735 20.4595C25.9918 19.0727 25.9628 17.5092 26.4926 16.1008C27.0225 14.6925 28.0695 13.5502 29.4115 12.9163C30.25 12.5486 31.1629 12.3919 32.0732 12.4594C32.9835 12.5268 33.8646 12.8165 34.6422 13.3039C35.7145 13.9677 36.5364 14.9805 36.9756 16.1789C37.0456 16.3496 37.1089 16.5298 37.1715 16.6855L26.9635 21.2252ZM30.3729 15.1732C29.7971 15.4168 29.3171 15.8487 29.008 16.4008C28.699 16.9529 28.5786 17.5941 28.6656 18.2237L33.7989 15.9688C33.4117 15.4458 32.856 15.0789 32.2295 14.933C31.6031 14.7871 30.9463 14.8714 30.3749 15.1712L30.3729 15.1732ZM34.4395 20.0788L34.3329 20.0046C34.0002 20.5353 33.516 20.9492 32.9455 21.1905C32.4752 21.4447 31.9417 21.5513 31.4122 21.4968C30.8826 21.4424 30.3806 21.2294 29.9695 20.8845L29.8995 20.9933L28.5969 22.9817C28.9208 23.2107 29.2674 23.4044 29.6309 23.5597C30.8312 24.0523 32.161 24.1096 33.3978 23.7221C34.6346 23.3345 35.7034 22.5256 36.4255 21.4306L34.4395 20.0788Z" fill="black"/>
<path d="M40.7414 9.9917V21.0424L42.4267 21.7387L41.4701 24.016L39.6101 23.2259C39.2369 23.0599 38.9189 22.7871 38.6947 22.4405C38.4466 22.03 38.3219 21.5543 38.336 21.0723V9.9917H40.7414Z" fill="black"/>
<path d="M45.1047 18.2285C45.1045 17.7813 45.1984 17.3393 45.3801 16.9323C45.5618 16.5254 45.8272 16.1629 46.158 15.8696L44.4287 13.9037C43.8285 14.445 43.3478 15.1101 43.0184 15.8551C42.689 16.6 42.5185 17.4078 42.5181 18.225C42.5176 19.0422 42.6873 19.8502 43.0159 20.5955C43.3444 21.3409 43.8244 22.0066 44.424 22.5485L46.1507 20.5826C45.8217 20.2891 45.5582 19.9272 45.3778 19.5211C45.1973 19.1151 45.1042 18.6743 45.1047 18.2285Z" fill="black"/>
<path d="M48.1759 21.3633C47.8449 21.3624 47.5162 21.3073 47.2025 21.2001L46.3765 23.7025C47.1359 23.9617 47.9406 24.0538 48.7375 23.9726C49.5345 23.8915 50.3055 23.639 50.9998 23.2318C51.694 22.8245 52.2958 22.2718 52.7653 21.6101C53.2349 20.9483 53.5615 20.1926 53.7238 19.3926L51.1858 18.8643C51.0436 19.571 50.6662 20.2058 50.1177 20.6612C49.5691 21.1166 48.8832 21.3647 48.1759 21.3633Z" fill="black"/>
<path d="M48.1833 12.4567C47.5736 12.4562 46.9677 12.5554 46.3887 12.7504L47.2074 15.2549C47.6199 15.1148 48.057 15.0656 48.4896 15.1107C48.9222 15.1557 49.3405 15.294 49.7168 15.5163C50.0931 15.7385 50.4189 16.0398 50.6725 16.4001C50.9261 16.7604 51.1018 17.1715 51.188 17.6063L53.726 17.0827C53.4662 15.7783 52.7727 14.6054 51.7627 13.7624C50.7527 12.9195 49.4883 12.4582 48.1833 12.4567Z" fill="black"/>
</svg>
