<svg width="24" height="24" viewBox="0 0 24 24" fill="none" xmlns="http://www.w3.org/2000/svg">
<path d="M14 5H6C5.46957 5 4.96086 5.17911 4.58579 5.49792C4.21071 5.81673 4 6.24913 4 6.7V20.3C4 20.7509 4.21071 21.1833 4.58579 21.5021C4.96086 21.8209 5.46957 22 6 22H18C18.5304 22 19.0391 21.8209 19.4142 21.5021C19.7893 21.1833 20 20.7509 20 20.3V10.1L14 5Z" stroke="#165C7D" stroke-width="2" stroke-linecap="round" stroke-linejoin="round"/>
<path d="M8 16H15.5" stroke="#165C7D" stroke-linecap="round"/>
<path d="M21.25 6C21.25 8.8995 18.8995 11.25 16 11.25C13.1005 11.25 10.75 8.8995 10.75 6C10.75 3.10051 13.1005 0.75 16 0.75C18.8995 0.75 21.25 3.1005 21.25 6Z" fill="white" stroke="#165C7D" stroke-width="1.5" stroke-linecap="round" stroke-linejoin="round"/>
<path d="M16.4127 8.30476C16.7112 8.30476 16.9976 8.18124 17.2086 7.96138C17.4197 7.74151 17.5383 7.44331 17.5383 7.13238C17.5383 6.82144 17.4197 6.52324 17.2086 6.30338C16.9976 6.08352 16.7112 5.96 16.4127 5.96H15.6639C15.6112 5.96629 15.5577 5.9609 15.5071 5.94417C15.4565 5.92745 15.4098 5.89977 15.3702 5.86295C15.3306 5.82613 15.2989 5.78101 15.2772 5.73053C15.2555 5.68005 15.2442 5.62536 15.2442 5.57005C15.2442 5.51474 15.2555 5.46006 15.2772 5.40958C15.2989 5.3591 15.3306 5.31397 15.3702 5.27716C15.4098 5.24034 15.4565 5.21266 15.5071 5.19593C15.5577 5.17921 15.6112 5.17382 15.6639 5.18011H17.5383V4.39512H16.4127V3.61523H15.6639V4.39512C15.3776 4.41478 15.1092 4.54711 14.913 4.76529C14.7169 4.98347 14.6078 5.27117 14.6078 5.57005C14.6078 5.86894 14.7169 6.15664 14.913 6.37482C15.1092 6.593 15.3776 6.72533 15.6639 6.74498H16.4127C16.4655 6.73869 16.5189 6.74408 16.5695 6.76081C16.6202 6.77753 16.6668 6.80521 16.7064 6.84203C16.7461 6.87885 16.7778 6.92398 16.7995 6.97445C16.8212 7.02493 16.8324 7.07962 16.8324 7.13493C16.8324 7.19024 16.8212 7.24493 16.7995 7.2954C16.7778 7.34588 16.7461 7.39101 16.7064 7.42783C16.6668 7.46464 16.6202 7.49232 16.5695 7.50905C16.5189 7.52577 16.4655 7.53117 16.4127 7.52487H14.5383V8.30476H15.6639V9.11523H16.4127V8.30476Z" fill="#165C7D"/>
</svg>
