<svg width="24" height="24" viewBox="0 0 24 24" fill="none" xmlns="http://www.w3.org/2000/svg">
<path d="M14 5H6C5.46957 5 4.96086 5.12643 4.58579 5.35147C4.21071 5.57652 4 5.88174 4 6.2V15.8C4 16.1183 4.21071 16.4235 4.58579 16.6485C4.96086 16.8736 5.46957 17 6 17H18C18.5304 17 19.0391 16.8736 19.4142 16.6485C19.7893 16.4235 20 16.1183 20 15.8V8.6L14 5Z" stroke="#165C7D" stroke-width="2" stroke-linecap="round" stroke-linejoin="round"/>
<path d="M5 20L19 20" stroke="#165C7D" stroke-linecap="round"/>
<path d="M21.25 7C21.25 10.4518 18.4518 13.25 15 13.25C11.5482 13.25 8.75 10.4518 8.75 7C8.75 3.54822 11.5482 0.75 15 0.75C18.4518 0.75 21.25 3.54822 21.25 7Z" fill="white" stroke="#165C7D" stroke-width="1.5" stroke-linecap="round" stroke-linejoin="round"/>
<path d="M15.4992 9.96849C15.8972 9.96849 16.279 9.81128 16.5604 9.53146C16.8419 9.25163 17 8.8721 17 8.47637C17 8.08063 16.8419 7.7011 16.5604 7.42128C16.279 7.14145 15.8972 6.98424 15.4992 6.98424H14.5008C14.4305 6.99225 14.3592 6.98539 14.2917 6.9641C14.2242 6.94282 14.162 6.90759 14.1092 6.86073C14.0563 6.81387 14.0141 6.75644 13.9851 6.69219C13.9562 6.62795 13.9412 6.55835 13.9412 6.48795C13.9412 6.41756 13.9562 6.34795 13.9851 6.28371C14.0141 6.21947 14.0563 6.16203 14.1092 6.11517C14.162 6.06831 14.2242 6.03308 14.2917 6.0118C14.3592 5.99051 14.4305 5.98365 14.5008 5.99166H17V4.99259H15.4992V4H14.5008V4.99259C14.119 5.0176 13.7611 5.18602 13.4996 5.46371C13.2381 5.74139 13.0926 6.10755 13.0926 6.48795C13.0926 6.86835 13.2381 7.23451 13.4996 7.51219C13.7611 7.78988 14.119 7.9583 14.5008 7.98332H15.4992C15.5695 7.97531 15.6408 7.98217 15.7083 8.00346C15.7758 8.02474 15.838 8.05997 15.8908 8.10683C15.9437 8.15369 15.9859 8.21113 16.0149 8.27537C16.0438 8.33961 16.0588 8.40921 16.0588 8.47961C16.0588 8.55001 16.0438 8.61961 16.0149 8.68385C15.9859 8.74809 15.9437 8.80553 15.8908 8.85239C15.838 8.89925 15.7758 8.93448 15.7083 8.95576C15.6408 8.97705 15.5695 8.98391 15.4992 8.9759H13V9.96849H14.5008V11H15.4992V9.96849Z" fill="#165C7D"/>
</svg>
