<svg width="24" height="24" viewBox="0 0 24 24" fill="none" xmlns="http://www.w3.org/2000/svg">
<g clip-path="url(#clip0_435_2447)">
<path d="M0.1 12.4C0.1 12.4 0.1 12.5 0.2 12.5C0.2 12.6 0.3 12.7 0.4 12.8C0.5 13 0.7 13.4 1 13.8C1.5 14.6 2.3 15.6 3.3 16.7C5.3 18.8 8.3 21 12.2 21C14.6 21 16.9 20.2 18.7 18.7C18.9 18.5 19.1 18.3 19.1 18C19.1 17.7 19 17.4 18.8 17.2L10.8 9.2L6.8 5.4C6.4 5 5.9 5 5.5 5.3C3.3 7 1.5 9.1 0.2 11.6C4.47035e-08 11.8 5.21541e-08 12.2 0.1 12.4ZM10 11.4L12.5 13.9C12.3 14 12.1 14 11.9 14C11.6 14 11.4 14 11.1 13.9C10.9 13.8 10.6 13.6 10.4 13.5C10.2 13.3 10.1 13.1 10 12.8C10 12.6 9.9 12.3 9.9 12C9.9 11.8 10 11.6 10 11.4ZM12 19C8.9 19 6.4 17.2 4.6 15.3C3.7 14.4 3 13.4 2.6 12.7C2.4 12.4 2.3 12.2 2.2 12C3.2 10.3 4.5 8.7 6 7.4L8.5 10C8.4 10.2 8.3 10.3 8.2 10.5C8 11 7.9 11.5 7.9 12.1C7.9 12.7 8 13.2 8.2 13.7C8.4 14.2 8.7 14.7 9.1 15C9.5 15.4 9.9 15.7 10.4 15.9C10.9 16.1 11.4 16.2 12 16.2C12.5 16.2 13.1 16.1 13.6 15.9C13.8 15.8 13.9 15.7 14.1 15.6L16.4 17.9C15 18.6 13.5 19 12 19Z" fill="#165C7D"/>
<path d="M23.9 11.6C23.9 11.5 23.9 11.5 23.8 11.5C23.8 11.4 23.7 11.3 23.6 11.2C23.5 11 23.3 10.6 23 10.2C22.5 9.4 21.7 8.4 20.7 7.3C18.7 5.2 15.7 3 11.8 3C11 3 10.2 3.1 9.5 3.3C9.1 3.4 8.8 3.9 8.9 4.5C9.1 5 9.6 5.3 10.1 5.2C10.7 5.1 11.4 5 12 5C15.1 5 17.6 6.8 19.4 8.7C20.3 9.6 21 10.6 21.4 11.3C21.6 11.6 21.7 11.8 21.8 12C21.3 12.9 20.7 13.8 20 14.5C19.6 14.9 19.7 15.6 20.1 15.9C20.5 16.3 21.2 16.2 21.5 15.8C22.4 14.8 23.1 13.6 23.8 12.4C24 12.2 24 11.8 23.9 11.6Z" fill="#165C7D"/>
<path fill-rule="evenodd" clip-rule="evenodd" d="M0.292893 0.292893C0.683417 -0.0976311 1.31658 -0.0976311 1.70711 0.292893L23.7071 22.2929C24.0976 22.6834 24.0976 23.3166 23.7071 23.7071C23.3166 24.0976 22.6834 24.0976 22.2929 23.7071L0.292893 1.70711C-0.0976311 1.31658 -0.0976311 0.683417 0.292893 0.292893Z" fill="#165C7D"/>
</g>
<defs>
<clipPath id="clip0_435_2447">
<rect width="24" height="24" fill="white"/>
</clipPath>
</defs>
</svg>
