<svg width="24" height="24" viewBox="0 0 24 24" fill="none" xmlns="http://www.w3.org/2000/svg">
<path d="M17 2H20C21.1046 2 22 2.89543 22 4V7M7 2H4C2.89543 2 2 2.89543 2 4V7M22 17V20C22 21.1046 21.1046 22 20 22H17M7 22H4C2.89543 22 2 21.1046 2 20V17" stroke="#165C7D" stroke-width="2" stroke-linecap="round" stroke-linejoin="round"/>
<path d="M10.4709 12.5732C11.6088 12.5732 12.5348 11.6474 12.5348 10.5093L12.5346 6.53496C12.5346 6.23957 12.2952 6 11.9996 6C11.7042 6 11.4647 6.2394 11.4647 6.53496V10.5093C11.4647 11.0573 11.019 11.503 10.471 11.503C10.1756 11.503 9.93604 11.7424 9.93604 12.038C9.93604 12.3337 10.1754 12.5731 10.471 12.5731L10.4709 12.5732Z" fill="#165C7D" stroke="#165C7D" stroke-width="0.5" stroke-linejoin="round"/>
<path d="M6 6.91887V8.44736C6 8.80599 6.29093 9.09694 6.64958 9.09694C7.00823 9.09694 7.29916 8.80601 7.29916 8.44736V6.91887C7.29916 6.56023 7.00823 6.26929 6.64958 6.26929C6.29093 6.26929 6 6.56021 6 6.91887Z" fill="#165C7D" stroke="#165C7D" stroke-width="0.5" stroke-linejoin="round"/>
<path d="M17.35 9.09743C17.7087 9.09743 17.9996 8.8065 17.9996 8.44785V6.91935C17.9996 6.56072 17.7087 6.26978 17.35 6.26978C16.9914 6.26978 16.7004 6.5607 16.7004 6.91935V8.44785C16.7004 8.80648 16.9914 9.09743 17.35 9.09743Z" fill="#165C7D" stroke="#165C7D" stroke-width="0.5" stroke-linejoin="round"/>
<path d="M16.5824 15.2233C16.3936 14.9962 16.0564 14.9649 15.8291 15.1539C13.5242 17.0696 10.1785 17.0696 7.87327 15.1539C7.64615 14.9651 7.30874 14.9963 7.11993 15.2233C6.93113 15.4504 6.96201 15.7878 7.1895 15.9766C8.54014 17.0992 10.1957 17.6604 11.8514 17.6604C13.5069 17.6604 15.1626 17.099 16.5132 15.9766C16.7402 15.7878 16.7714 15.4506 16.5822 15.2233H16.5824Z" fill="#165C7D" stroke="#165C7D" stroke-width="0.5" stroke-linejoin="round"/>
</svg>
