<svg width="24" height="24" viewBox="0 0 24 24" fill="none" xmlns="http://www.w3.org/2000/svg">
<path d="M17.8162 4.47C17.7362 4.47 17.6562 4.45 17.5861 4.41C15.6658 3.42 14.0054 3 12.015 3C10.0346 3 8.15421 3.47 6.44386 4.41C6.20381 4.54 5.90375 4.45 5.76372 4.21C5.6337 3.97 5.72372 3.66 5.96377 3.53C7.82415 2.52 9.86456 2 12.015 2C14.1454 2 16.0058 2.47 18.0462 3.52C18.2963 3.65 18.3863 3.95 18.2563 4.19C18.1663 4.37 17.9962 4.47 17.8162 4.47ZM3.50326 9.72C3.40324 9.72 3.30322 9.69 3.2132 9.63C2.98316 9.47 2.93315 9.16 3.09318 8.93C4.08338 7.53 5.34364 6.43 6.84395 5.66C9.98459 4.04 14.0054 4.03 17.1561 5.65C18.6564 6.42 19.9166 7.51 20.9068 8.9C21.0669 9.12 21.0168 9.44 20.7868 9.6C20.5568 9.76 20.2467 9.71 20.0867 9.48C19.1865 8.22 18.0462 7.23 16.696 6.54C13.8254 5.07 10.1546 5.07 7.29404 6.55C5.93376 7.25 4.79353 8.25 3.89334 9.51C3.81333 9.65 3.66329 9.72 3.50326 9.72ZM9.75454 21.79C9.62451 21.79 9.49449 21.74 9.40447 21.64C8.53429 20.77 8.0642 20.21 7.39406 19C6.70392 17.77 6.34384 16.27 6.34384 14.66C6.34384 11.69 8.88436 9.27 12.005 9.27C15.1256 9.27 17.6662 11.69 17.6662 14.66C17.6662 14.94 17.4461 15.16 17.1661 15.16C16.886 15.16 16.666 14.94 16.666 14.66C16.666 12.24 14.5755 10.27 12.005 10.27C9.43447 10.27 7.34405 12.24 7.34405 14.66C7.34405 16.1 7.66411 17.43 8.27424 18.51C8.91437 19.66 9.35446 20.15 10.1246 20.93C10.3147 21.13 10.3147 21.44 10.1246 21.64C10.0146 21.74 9.88457 21.79 9.75454 21.79ZM16.926 19.94C15.7358 19.94 14.6855 19.64 13.8254 19.05C12.3351 18.04 11.4449 16.4 11.4449 14.66C11.4449 14.38 11.6649 14.16 11.945 14.16C12.225 14.16 12.4451 14.38 12.4451 14.66C12.4451 16.07 13.1652 17.4 14.3855 18.22C15.0956 18.7 15.9258 18.93 16.926 18.93C17.1661 18.93 17.5661 18.9 17.9662 18.83C18.2363 18.78 18.4963 18.96 18.5463 19.24C18.5964 19.51 18.4163 19.77 18.1363 19.82C17.5661 19.93 17.066 19.94 16.926 19.94ZM14.9156 22C14.8756 22 14.8256 21.99 14.7856 21.98C13.1952 21.54 12.155 20.95 11.0648 19.88C9.66452 18.49 8.89437 16.64 8.89437 14.66C8.89437 13.04 10.2746 11.72 11.975 11.72C13.6753 11.72 15.0556 13.04 15.0556 14.66C15.0556 15.73 15.9858 16.6 17.1361 16.6C18.2863 16.6 19.2165 15.73 19.2165 14.66C19.2165 10.89 15.9658 7.83 11.965 7.83C9.12441 7.83 6.52388 9.41 5.35364 11.86C4.96356 12.67 4.76352 13.62 4.76352 14.66C4.76352 15.44 4.83353 16.67 5.43366 18.27C5.53368 18.53 5.40365 18.82 5.1436 18.91C4.88354 19.01 4.59348 18.87 4.50347 18.62C4.01337 17.31 3.77332 16.01 3.77332 14.66C3.77332 13.46 4.00336 12.37 4.45346 11.42C5.78373 8.63 8.73433 6.82 11.965 6.82C16.5159 6.82 20.2167 10.33 20.2167 14.65C20.2167 16.27 18.8364 17.59 17.1361 17.59C15.4357 17.59 14.0554 16.27 14.0554 14.65C14.0554 13.58 13.1252 12.71 11.975 12.71C10.8248 12.71 9.89457 13.58 9.89457 14.65C9.89457 16.36 10.5547 17.96 11.765 19.16C12.7151 20.1 13.6253 20.62 15.0356 21.01C15.3057 21.08 15.4557 21.36 15.3857 21.62C15.3357 21.85 15.1256 22 14.9156 22Z" fill="#165C7D" stroke="#165C7D" stroke-width="0.7" stroke-linejoin="round"/>
</svg>
