<svg width="24" height="24" viewBox="0 0 24 24" fill="none" xmlns="http://www.w3.org/2000/svg">
<path d="M17 2H20C21.1046 2 22 2.89543 22 4V7M7 2H4C2.89543 2 2 2.89543 2 4V7M22 17V20C22 21.1046 21.1046 22 20 22H17M7 22H4C2.89543 22 2 21.1046 2 20V17" stroke="#165C7D" stroke-width="2" stroke-linecap="round" stroke-linejoin="round"/>
<path d="M16.7006 6.729C16.6428 6.729 16.585 6.715 16.5344 6.687C15.1475 5.994 13.9484 5.7 12.5108 5.7C11.0805 5.7 9.72249 6.029 8.48723 6.687C8.31387 6.778 8.09716 6.715 7.99602 6.547C7.90212 6.379 7.96713 6.162 8.1405 6.071C9.48411 5.364 10.9577 5 12.5108 5C14.0495 5 15.3931 5.329 16.8667 6.064C17.0473 6.155 17.1123 6.365 17.0184 6.533C16.9534 6.659 16.8306 6.729 16.7006 6.729ZM6.36347 10.404C6.29123 10.404 6.21899 10.383 6.15398 10.341C5.98783 10.229 5.95172 10.012 6.0673 9.851C6.78244 8.871 7.69263 8.101 8.77618 7.562C11.0444 6.428 13.9484 6.421 16.2238 7.555C17.3074 8.094 18.2176 8.857 18.9327 9.83C19.0483 9.984 19.0122 10.208 18.846 10.32C18.6799 10.432 18.4559 10.397 18.3404 10.236C17.6902 9.354 16.8667 8.661 15.8915 8.178C13.8183 7.149 11.1672 7.149 9.10125 8.185C8.11883 8.675 7.29532 9.375 6.64519 10.257C6.5874 10.355 6.47905 10.404 6.36347 10.404ZM10.8783 18.853C10.7844 18.853 10.6905 18.818 10.6255 18.748C9.99699 18.139 9.65747 17.747 9.17349 16.9C8.67505 16.039 8.415 14.989 8.415 13.862C8.415 11.783 10.2498 10.089 12.5036 10.089C14.7574 10.089 16.5922 11.783 16.5922 13.862C16.5922 14.058 16.4333 14.212 16.231 14.212C16.0288 14.212 15.8699 14.058 15.8699 13.862C15.8699 12.168 14.3601 10.789 12.5036 10.789C10.6471 10.789 9.13737 12.168 9.13737 13.862C9.13737 14.87 9.36853 15.801 9.80917 16.557C10.2715 17.362 10.5893 17.705 11.1456 18.251C11.2828 18.391 11.2828 18.608 11.1456 18.748C11.0661 18.818 10.9722 18.853 10.8783 18.853ZM16.0577 17.558C15.1981 17.558 14.4396 17.348 13.8183 16.935C12.742 16.228 12.0991 15.08 12.0991 13.862C12.0991 13.666 12.258 13.512 12.4603 13.512C12.6625 13.512 12.8215 13.666 12.8215 13.862C12.8215 14.849 13.3416 15.78 14.2229 16.354C14.7357 16.69 15.3353 16.851 16.0577 16.851C16.231 16.851 16.52 16.83 16.8089 16.781C17.004 16.746 17.1918 16.872 17.2279 17.068C17.264 17.257 17.134 17.439 16.9317 17.474C16.52 17.551 16.1588 17.558 16.0577 17.558ZM14.6057 19C14.5768 19 14.5407 18.993 14.5118 18.986C13.3632 18.678 12.612 18.265 11.8246 17.516C10.8133 16.543 10.257 15.248 10.257 13.862C10.257 12.728 11.2539 11.804 12.4819 11.804C13.71 11.804 14.7068 12.728 14.7068 13.862C14.7068 14.611 15.3786 15.22 16.2094 15.22C17.0401 15.22 17.7119 14.611 17.7119 13.862C17.7119 11.223 15.3642 9.081 12.4747 9.081C10.4232 9.081 8.54502 10.187 7.69985 11.902C7.41813 12.469 7.27365 13.134 7.27365 13.862C7.27365 14.408 7.32422 15.269 7.75764 16.389C7.82988 16.571 7.73597 16.774 7.54815 16.837C7.36034 16.907 7.15085 16.809 7.08584 16.634C6.73188 15.717 6.55851 14.807 6.55851 13.862C6.55851 13.022 6.72465 12.259 7.04972 11.594C8.01047 9.641 10.1415 8.374 12.4747 8.374C15.7615 8.374 18.4343 10.831 18.4343 13.855C18.4343 14.989 17.4374 15.913 16.2094 15.913C14.9813 15.913 13.9845 14.989 13.9845 13.855C13.9845 13.106 13.3127 12.497 12.4819 12.497C11.6512 12.497 10.9794 13.106 10.9794 13.855C10.9794 15.052 11.4562 16.172 12.3302 17.012C13.0165 17.67 13.6739 18.034 14.6924 18.307C14.8874 18.356 14.9958 18.552 14.9452 18.734C14.9091 18.895 14.7574 19 14.6057 19Z" fill="#165C7D" stroke="#165C7D" stroke-width="0.5" stroke-linejoin="round"/>
</svg>
