<svg width="24" height="24" viewBox="0 0 24 24" fill="none" xmlns="http://www.w3.org/2000/svg">
<g clip-path="url(#clip0_487_2840)">
<path d="M8.65186 19.1682C8.5414 19.1682 8.45186 19.2577 8.45186 19.3682V20.6702C8.45186 21.2515 8.6828 21.8091 9.09388 22.2201C9.50496 22.6312 10.0625 22.8622 10.6439 22.8622C11.2252 22.8622 11.7828 22.6312 12.1938 22.2201C12.6049 21.8091 12.8359 21.2515 12.8359 20.6702V10.7642C12.8359 10.6537 12.7463 10.5642 12.6359 10.5642H11.3579C11.2474 10.5642 11.1579 10.6537 11.1579 10.7642V20.6702C11.1579 20.6763 11.1581 20.6824 11.1587 20.6885C11.1652 20.7596 11.1569 20.8314 11.1341 20.8991C11.1114 20.9669 11.0748 21.0292 11.0266 21.082C10.9784 21.1348 10.9198 21.1769 10.8544 21.2058C10.789 21.2346 10.7183 21.2495 10.6469 21.2495C10.5754 21.2495 10.5047 21.2346 10.4393 21.2058C10.3739 21.1769 10.3153 21.1348 10.2671 21.082C10.219 21.0292 10.1823 20.9669 10.1596 20.8991C10.1368 20.8314 10.1285 20.7596 10.135 20.6885C10.1356 20.6824 10.1359 20.6763 10.1359 20.6702V19.3682C10.1359 19.2577 10.0463 19.1682 9.93586 19.1682H8.65186Z" fill="#165C7D" stroke="#165C7D" stroke-width="0.4" stroke-linejoin="round"/>
<path d="M2.35615 11.4001C2.35615 11.5105 2.4457 11.6001 2.55615 11.6001H21.4441C21.5546 11.6001 21.6441 11.5105 21.6441 11.4001V10.8001C21.6441 8.24233 20.6281 5.78934 18.8195 3.98074C17.0109 2.17214 14.5579 1.15608 12.0001 1.15608C9.4424 1.15608 6.98941 2.17214 5.18081 3.98074C3.37221 5.78934 2.35615 8.24233 2.35615 10.8001V11.4001ZM19.9289 9.94608H4.07615V9.90477C4.28668 7.95358 5.21116 6.14895 6.67201 4.83808C8.13547 3.52486 10.0335 2.80024 11.9998 2.80408L12.0005 2.80408C13.9668 2.80024 15.8648 3.52486 17.3283 4.83808C18.7918 6.15131 19.7169 7.96005 19.9253 9.91527L19.9253 9.91527L19.9256 9.91772L19.9289 9.94608Z" fill="#165C7D" stroke="#165C7D" stroke-width="0.4" stroke-linejoin="round"/>
</g>
<defs>
<clipPath id="clip0_487_2840">
<rect width="24" height="24" fill="white"/>
</clipPath>
</defs>
</svg>
