<svg width="58" height="34" viewBox="0 0 58 34" fill="none" xmlns="http://www.w3.org/2000/svg">
<path d="M25.1065 27.5175L5.08447 27.525V27.476C5.08447 27.4488 5.11647 27.272 5.15514 27.0864C5.19381 26.9008 5.25514 26.6016 5.28847 26.4248C5.32181 26.248 5.38381 25.9488 5.42181 25.7577L5.56314 25.0532C5.60247 24.856 5.66447 24.5446 5.70047 24.361C5.73647 24.1774 5.79714 23.8768 5.83381 23.6939C5.87047 23.511 5.93514 23.1934 5.97581 22.9894C6.01647 22.7854 6.07847 22.474 6.11314 22.2972C6.14781 22.1204 6.20381 21.8477 6.23647 21.6913C6.26914 21.5349 6.31114 21.3234 6.32981 21.2214C6.34847 21.1194 6.40781 20.8188 6.46314 20.5543C6.51847 20.2898 6.57714 19.9892 6.59647 19.8872C6.61581 19.7852 6.67581 19.4847 6.72981 19.2202C6.78381 18.9556 6.84447 18.6551 6.86314 18.5531C6.88181 18.4511 6.94247 18.1505 6.99647 17.886C7.05047 17.6215 7.11114 17.3264 7.12981 17.2312C7.14847 17.136 7.19647 16.8912 7.23647 16.6872C7.27647 16.4832 7.35581 16.0996 7.40981 15.8344C7.46381 15.5692 7.55647 15.1075 7.61514 14.809C7.67381 14.5105 7.74447 14.1542 7.77181 14.0182L7.88114 13.4742C7.91381 13.311 7.97381 13.0165 8.01447 12.8193C8.05514 12.6221 8.11981 12.2998 8.15914 12.1026C8.19847 11.9054 8.25981 11.5994 8.29247 11.4226C8.32514 11.2458 8.38714 10.9514 8.42581 10.7678C8.46447 10.5842 8.52914 10.2618 8.57114 10.051C8.61314 9.84024 8.68314 9.51792 8.72714 9.33432C8.77114 9.15072 8.83314 8.92632 8.86514 8.83996C8.92317 8.69469 8.9886 8.5526 9.06114 8.41428L9.19914 8.14908L9.32447 7.9818C9.39114 7.88932 9.51647 7.7438 9.59847 7.65812C9.68047 7.57244 9.81781 7.44324 9.90447 7.37116C9.99114 7.29908 10.1165 7.20184 10.1831 7.15492C10.2498 7.108 10.3831 7.0264 10.4738 6.97268C10.5645 6.91896 10.6978 6.8496 10.7645 6.81764C10.8311 6.78568 10.9645 6.7272 11.0671 6.68776C11.1698 6.64832 11.3578 6.58236 11.4911 6.54088C11.6245 6.4994 11.8745 6.43752 12.0471 6.40488C12.2198 6.37224 12.4925 6.32328 12.6531 6.30152L12.9451 6.2614L32.9791 6.25392L53.0178 6.24304V6.292C53.0178 6.3192 52.9858 6.496 52.9465 6.68164C52.9071 6.86728 52.8418 7.18892 52.8005 7.39292C52.7591 7.59692 52.6998 7.89136 52.6671 8.04776C52.6345 8.20416 52.5745 8.50472 52.5338 8.71484C52.4931 8.92496 52.4265 9.24796 52.3898 9.43156C52.3531 9.61516 52.2925 9.91572 52.2565 10.0986C52.2205 10.2816 52.1598 10.5828 52.1231 10.7657C52.0865 10.9486 52.0271 11.2417 51.9938 11.4083C51.9605 11.5749 51.8991 11.8843 51.8605 12.0883C51.8218 12.2923 51.7545 12.6146 51.7151 12.805C51.6758 12.9954 51.6158 13.2899 51.5818 13.4599L51.4485 14.1399C51.4078 14.3439 51.3425 14.6662 51.3031 14.8566C51.2638 15.047 51.2051 15.336 51.1698 15.4992L51.0365 16.1792C50.9945 16.39 50.9331 16.696 50.9031 16.8592C50.8731 17.0224 50.8118 17.3114 50.7698 17.5018C50.7278 17.6922 50.6645 18.02 50.6225 18.2308C50.5805 18.4416 50.5198 18.7414 50.4891 18.8978C50.4585 19.0542 50.3985 19.3487 50.3558 19.5527C50.3131 19.7567 50.2505 20.079 50.2118 20.2694C50.1731 20.4598 50.1131 20.7604 50.0785 20.9365C50.0438 21.1126 49.9818 21.4193 49.9451 21.6165L49.8011 22.3332L49.6678 22.988C49.6351 23.1512 49.5745 23.4518 49.5345 23.6551C49.4945 23.8584 49.4278 24.1801 49.3878 24.3691L49.3151 24.7091L49.2285 24.9464C49.1805 25.077 49.1085 25.2504 49.0685 25.332C49.0285 25.4136 48.9471 25.5578 48.8871 25.6516C48.8271 25.7454 48.7445 25.8665 48.7025 25.9202C48.6605 25.9739 48.5345 26.1113 48.4218 26.2262L48.2171 26.4356L48.0205 26.5784C47.9125 26.6566 47.7958 26.7369 47.7618 26.7559C47.7278 26.775 47.5971 26.843 47.4725 26.9069C47.3478 26.9708 47.1705 27.0517 47.0798 27.0878C46.9891 27.1238 46.8091 27.1836 46.6798 27.2238C46.5505 27.2639 46.4131 27.2999 46.3725 27.3074L46.0638 27.3754C45.9345 27.4033 45.6725 27.4434 45.4825 27.4686L45.1365 27.5107L25.1145 27.5182L25.1065 27.5175ZM17.9831 22.2353H18.5045L18.5191 22.1965C18.5292 22.16 18.5342 22.1222 18.5338 22.0843C18.5338 22.0442 18.5511 21.8973 18.5718 21.7586C18.5925 21.6199 18.6418 21.3003 18.6811 21.0494C18.7205 20.7984 18.7791 20.4197 18.8145 20.2089C18.8498 19.9981 18.8865 19.7281 18.9025 19.6098C18.9079 19.5361 18.9224 19.4635 18.9458 19.3936C18.9769 19.428 19.0021 19.4676 19.0205 19.5105L19.0811 19.6275L19.2145 19.7635L19.3478 19.8995L19.5131 19.9675L19.6785 20.0355L19.8785 20.0613L20.0785 20.0872L20.3285 20.0715L20.5785 20.0559L20.8491 19.9845L21.1198 19.9131L21.2651 19.8451C21.3737 19.7916 21.479 19.7314 21.5805 19.6649L21.7498 19.552L21.9078 19.3908C22.0045 19.2908 22.0956 19.1853 22.1805 19.0746C22.2227 19.0214 22.261 18.965 22.2951 18.906C22.3136 18.8649 22.336 18.8258 22.3618 18.789C22.4272 18.6766 22.4847 18.5596 22.5338 18.4388C22.5905 18.3028 22.6791 18.058 22.7338 17.8948L22.8278 17.5984L22.8765 17.3413C22.9031 17.1999 22.9378 16.9666 22.9525 16.8225L22.9805 16.5607L22.9645 16.3383L22.9485 16.116L22.8978 15.8936L22.8471 15.6712L22.7651 15.5046L22.6831 15.338L22.5251 15.1674L22.3671 14.9967L22.1798 14.8981L21.9925 14.7995L21.7865 14.7492L21.5805 14.6988L21.3745 14.6832L21.1685 14.6676L20.9391 14.6948L20.7098 14.722L20.5225 14.7709L20.3351 14.8199L20.1725 14.8967C20.0732 14.9442 19.9766 14.9974 19.8831 15.0558C19.8273 15.0909 19.7739 15.1297 19.7231 15.1721C19.693 15.2001 19.6607 15.2256 19.6265 15.2483L19.5598 15.2904L19.6045 15.0735C19.6291 14.9538 19.6491 14.8423 19.6498 14.8253V14.7981H18.7591L18.6811 15.2986C18.6385 15.5706 18.5705 15.999 18.5311 16.2438C18.4918 16.4886 18.4311 16.8558 18.3978 17.0598C18.3645 17.2638 18.3045 17.6249 18.2645 17.8629C18.2245 18.1009 18.1591 18.479 18.1191 18.7034L17.9858 19.4323L17.8525 20.1735C17.8111 20.4047 17.7438 20.7719 17.7038 20.9895C17.6638 21.2071 17.5985 21.5519 17.5591 21.7559C17.5198 21.9599 17.4811 22.1516 17.4738 22.1822L17.4605 22.238H17.9818L17.9831 22.2353ZM20.2265 19.3793L20.0265 19.3915L19.8931 19.3677L19.7598 19.3439L19.6265 19.2814L19.4931 19.2188L19.3991 19.1277L19.3051 19.0366L19.2511 18.9128C19.2162 18.8297 19.1877 18.744 19.1658 18.6564L19.1351 18.5204L19.1478 18.3076L19.1605 18.0948L19.2231 17.7609C19.2578 17.5773 19.3191 17.2325 19.3605 16.9945C19.4018 16.7565 19.4638 16.4084 19.4985 16.22L19.5651 15.88L19.7038 15.7624C19.788 15.6915 19.8771 15.6269 19.9705 15.5692L20.1038 15.4938L20.2731 15.44L20.4425 15.3863L20.6605 15.3734L20.8785 15.3605L21.0558 15.3992L21.2331 15.438L21.3585 15.4972L21.4838 15.5563L21.5891 15.6638L21.6945 15.7712L21.7511 15.8854C21.7913 15.9731 21.8238 16.0641 21.8485 16.1574L21.8891 16.3166L21.8765 16.7864L21.8638 17.2563L21.8018 17.5338C21.7678 17.6868 21.7025 17.92 21.6571 18.0526L21.5745 18.294L21.4731 18.4892C21.4154 18.6003 21.3518 18.7081 21.2825 18.8122C21.2311 18.8858 21.1729 18.9541 21.1085 19.0162C21.0618 19.057 20.9838 19.1209 20.9351 19.1583L20.8465 19.2263L20.6411 19.2943L20.4358 19.3623L20.2265 19.3793ZM25.2585 20.0593H25.5251L25.7918 20.0348C25.9385 20.0212 26.1785 19.9926 26.3251 19.9716C26.4718 19.9505 26.7251 19.9036 26.8878 19.8668L27.1838 19.7988L27.1985 19.6873C27.2065 19.6261 27.2398 19.4439 27.2725 19.2793L27.3318 18.9856L27.3185 18.972L27.3051 18.9584L27.2145 19.0032C27.1645 19.0277 27.0098 19.0862 26.8698 19.1331L26.6158 19.2188L26.3491 19.2718L26.0825 19.3249H25.2331L25.0878 19.2773C24.9986 19.2474 24.9114 19.212 24.8265 19.1712L24.7105 19.1127L24.6145 19.0243L24.5185 18.9359L24.4438 18.7999L24.3691 18.6639L24.3225 18.4966L24.2758 18.3294V17.7221L24.3171 17.4467L24.3585 17.1713L24.7231 17.1536L25.0878 17.136L26.4358 17.1448L27.7838 17.1536L27.8245 16.9775C27.8471 16.881 27.8811 16.6804 27.9005 16.5328L27.9358 16.2608V15.8086L27.8971 15.64L27.8585 15.4713L27.7918 15.3598C27.7524 15.2904 27.7078 15.2243 27.6585 15.1619C27.6101 15.1072 27.5565 15.0575 27.4985 15.0137C27.4313 14.9675 27.3619 14.9248 27.2905 14.8858L27.1691 14.8178L26.9571 14.7655L26.7511 14.7199L26.4905 14.6948L26.2298 14.6696L25.9878 14.6859L25.7458 14.7022L25.4551 14.7594L25.1645 14.8165L24.9825 14.8906C24.8664 14.9392 24.7531 14.9944 24.6431 15.0558C24.5504 15.11 24.4613 15.1704 24.3765 15.2367C24.3165 15.2864 24.2125 15.3829 24.1458 15.4509C24.0656 15.5355 23.992 15.6265 23.9258 15.7229C23.8591 15.8268 23.7976 15.9342 23.7418 16.0446C23.6945 16.1398 23.6331 16.273 23.6051 16.341C23.5771 16.409 23.5265 16.545 23.4918 16.6498C23.4571 16.7545 23.4038 16.9462 23.3725 17.0822C23.3411 17.2182 23.2978 17.442 23.2765 17.5793L23.2378 17.8296V18.5653L23.2745 18.7258C23.2982 18.8261 23.3269 18.925 23.3605 19.0223C23.3921 19.107 23.4293 19.1895 23.4718 19.2691C23.5186 19.3474 23.5728 19.4207 23.6338 19.4881C23.7028 19.56 23.7768 19.6268 23.8551 19.688C23.9392 19.7488 24.0285 19.8018 24.1218 19.8464L24.2645 19.9144L24.4645 19.9634C24.5738 19.9906 24.7385 20.0226 24.8311 20.0314C24.9238 20.0402 25.1191 20.0545 25.2651 20.0566L25.2585 20.0593ZM25.7151 16.5777C25.0445 16.5777 24.4951 16.5729 24.4951 16.5668C24.4951 16.5607 24.5238 16.4743 24.5618 16.375C24.5998 16.2758 24.6585 16.1275 24.6951 16.0466L24.7678 15.8984L24.9278 15.7358L25.0878 15.5733L25.2451 15.4965C25.3274 15.456 25.4125 15.4219 25.4998 15.3945C25.6119 15.373 25.7253 15.3592 25.8391 15.353L26.0845 15.3346L26.2705 15.3591L26.4565 15.3836L26.5898 15.4468L26.7231 15.5101L26.7971 15.5917C26.838 15.6367 26.8742 15.6859 26.9051 15.7386L26.9391 15.8066L26.9618 15.9514L26.9845 16.0962L26.9591 16.337L26.9338 16.5777H25.7138H25.7151ZM32.9645 20.06H33.2311L33.5338 20.0232C33.7005 20.0028 33.9218 19.9695 34.0265 19.9491C34.1311 19.9287 34.2998 19.8872 34.4018 19.858C34.472 19.8411 34.5406 19.8184 34.6071 19.79C34.6382 19.7095 34.6606 19.6259 34.6738 19.5404C34.6985 19.4126 34.7291 19.2419 34.7405 19.1603C34.7517 19.1085 34.7568 19.0556 34.7558 19.0026C34.7511 18.9971 34.7331 19.0026 34.7158 19.0182C34.6295 19.0622 34.5404 19.1001 34.4491 19.1318L34.2158 19.2202L33.8825 19.2882L33.5491 19.3562L33.2665 19.3466L32.9838 19.3371L32.8231 19.2807L32.6625 19.2242L32.5385 19.1134L32.4178 18.9937L32.3358 18.8407L32.2538 18.6877L32.2145 18.4837L32.1751 18.2797V17.7493L32.2225 17.4277L32.2698 17.106L32.3205 16.9333C32.3485 16.8381 32.3798 16.7293 32.3871 16.6865C32.4156 16.5982 32.4485 16.5115 32.4858 16.4267C32.5298 16.3247 32.6078 16.167 32.6591 16.0765L32.7531 15.912L32.8685 15.7902L32.9838 15.6685L33.1058 15.591L33.2278 15.5142L33.3845 15.4652C33.4957 15.4323 33.6088 15.4062 33.7231 15.387L33.9051 15.3584L34.1718 15.372L34.4385 15.3856L34.7538 15.4502L35.0691 15.5148L35.1971 15.5638C35.2678 15.5903 35.3305 15.6128 35.3305 15.6128C35.3473 15.5457 35.3597 15.4775 35.3678 15.4088C35.3845 15.2966 35.4145 15.1123 35.4345 15.0008C35.4504 14.9296 35.4589 14.8569 35.4598 14.7838C35.3906 14.7669 35.3201 14.7555 35.2491 14.7498C35.1391 14.7369 34.8405 14.7145 34.5825 14.6995L34.1158 14.6723L33.7885 14.6982L33.4611 14.724L33.2191 14.7757L32.9771 14.8274L32.8211 14.8913C32.725 14.9316 32.6316 14.9786 32.5418 15.032C32.4751 15.0742 32.3878 15.1313 32.3498 15.1585C32.2612 15.2327 32.1764 15.3114 32.0958 15.3945L31.9105 15.5808L31.8071 15.7358C31.7267 15.8629 31.6535 15.9946 31.5878 16.1302L31.4845 16.3621L31.3958 16.6219C31.3471 16.7647 31.2791 16.9979 31.2451 17.1407L31.1825 17.4005L31.1598 17.6351L31.1371 17.8697V18.4878L31.1598 18.6673L31.1825 18.8468L31.2551 19.0318L31.3278 19.2168L31.4118 19.3528L31.4958 19.4888L31.6291 19.6248L31.7625 19.7608L31.9038 19.8369L32.0451 19.9131L32.2305 19.9654C32.3383 19.9956 32.4475 20.0201 32.5578 20.0389C32.6935 20.0541 32.8299 20.0623 32.9665 20.0634L32.9645 20.06ZM36.9511 20.0477L37.2785 20.0382L37.4845 19.9845L37.6905 19.9308L37.8238 19.8662C37.9157 19.82 38.0047 19.7683 38.0905 19.7111C38.1798 19.6478 38.2641 19.5773 38.3425 19.5003C38.419 19.4211 38.4909 19.3373 38.5578 19.2494C38.5873 19.2041 38.6222 19.1627 38.6618 19.1263C38.6578 19.2116 38.6487 19.2965 38.6345 19.3806C38.6158 19.5136 38.6042 19.6476 38.5998 19.7818V19.9362H39.4845L39.4978 19.584L39.5111 19.2317L39.5778 18.7748C39.6125 18.5232 39.6691 18.1505 39.7031 17.9465C39.7371 17.7425 39.7965 17.3978 39.8365 17.1802C39.8765 16.9626 39.9351 16.6232 39.9698 16.426L40.0365 16.0677V15.7583V15.4489L39.9698 15.3061L39.9031 15.1633L39.8098 15.0722L39.7165 14.981L39.5638 14.9022L39.4111 14.8233L39.1831 14.7716L38.9551 14.7199L38.6418 14.6954L38.3285 14.671L37.9245 14.6961C37.7025 14.7104 37.3911 14.7376 37.2298 14.7573L36.9391 14.7934H36.5425L36.5138 14.9355C36.4978 15.0137 36.4538 15.1993 36.4158 15.3482C36.3894 15.4397 36.3689 15.5328 36.3545 15.627C36.4341 15.615 36.5128 15.5968 36.5898 15.5726C36.7151 15.538 36.9811 15.4815 37.1811 15.4468L37.5445 15.3836L37.8718 15.37L38.1991 15.3564L38.4098 15.3938L38.6205 15.4312L38.7611 15.4992L38.9018 15.5672L38.9805 15.6869L39.0591 15.8066V15.9956V16.1846L39.0171 16.3886L38.9751 16.5926H38.1031H37.2311L36.9458 16.6722C36.8146 16.7071 36.6857 16.7502 36.5598 16.8014C36.5206 16.8226 36.4793 16.8392 36.4365 16.851C36.3642 16.8841 36.2948 16.9235 36.2291 16.9687L36.0438 17.0863L35.8978 17.2346C35.8152 17.3191 35.7392 17.41 35.6705 17.5066C35.6085 17.6074 35.5541 17.7128 35.5078 17.8221L35.4271 18.0138L35.3898 18.2294L35.3525 18.445V18.8978L35.3878 19.0862L35.4231 19.2746L35.4898 19.3976C35.5326 19.4753 35.5819 19.549 35.6371 19.618L35.7185 19.7152L35.8631 19.805L36.0078 19.8947L36.1738 19.9423C36.2651 19.9688 36.4038 20.0008 36.4825 20.0103L36.6251 20.0334L36.9525 20.0239L36.9511 20.0477ZM37.2538 19.3568L37.0598 19.367L36.9311 19.3337C36.8492 19.311 36.7695 19.2805 36.6931 19.2426L36.5831 19.1848L36.5231 19.112C36.4807 19.0576 36.4433 18.9993 36.4111 18.938L36.3591 18.836L36.3491 18.5986L36.3391 18.3613L36.3805 18.2172C36.4128 18.1125 36.4523 18.0103 36.4985 17.9112L36.5751 17.7493L36.7218 17.6004L36.8685 17.4515L37.0245 17.3746L37.1805 17.2978L37.3745 17.2509L37.5685 17.204H38.7798L38.8178 17.2203L38.8558 17.2366L38.8238 17.4304C38.8058 17.5372 38.7638 17.7303 38.7298 17.8588C38.6958 17.9873 38.6358 18.1777 38.5965 18.2804C38.5571 18.3831 38.5251 18.4742 38.5251 18.4844C38.4995 18.542 38.4699 18.5977 38.4365 18.651L38.3478 18.8026L38.2025 18.9461C38.1531 19.0011 38.0979 19.0504 38.0378 19.093C37.999 19.1084 37.9624 19.1292 37.9291 19.1549L37.8398 19.2168L37.6431 19.28L37.4465 19.3432L37.2525 19.3534L37.2538 19.3568ZM45.1411 20.0566H45.3711L45.5891 20.0205C45.7091 20.0008 45.8618 19.9688 45.9285 19.9525C46.0201 19.9229 46.1093 19.8859 46.1951 19.8417L46.3405 19.7655L46.4658 19.6533L46.5911 19.5411L46.7245 19.3616C46.7775 19.2927 46.8263 19.2205 46.8705 19.1454L46.8845 19.108L46.8725 19.2317C46.8658 19.2997 46.8505 19.4112 46.8391 19.4786C46.8278 19.5459 46.8105 19.6771 46.8018 19.7689L46.7858 19.9355H47.7365V19.6016L47.8091 18.9713C47.8491 18.6245 47.9078 18.1628 47.9425 17.9458C47.9771 17.7289 48.0245 17.4168 48.0525 17.2536C48.0805 17.0904 48.1318 16.796 48.1645 16.5988C48.1971 16.4016 48.2578 16.0548 48.2978 15.8324C48.3378 15.61 48.4018 15.2524 48.4405 15.0416L48.5738 14.3126C48.6085 14.1222 48.6698 13.7883 48.7111 13.5714C48.7525 13.3545 48.8118 13.0478 48.8445 12.8914C48.8771 12.735 48.9031 12.599 48.9031 12.5888V12.5704H47.8591L47.8438 12.7248C47.8351 12.8098 47.7958 13.0906 47.7558 13.349C47.7158 13.6074 47.6505 14.0188 47.6105 14.2636C47.5705 14.5084 47.5325 14.7458 47.5251 14.7906L47.5125 14.8729L47.4718 14.8552C47.4491 14.8457 47.3271 14.811 47.2005 14.7784L46.9705 14.7192L46.6551 14.6941L46.3398 14.6689L46.0731 14.6941L45.8065 14.7192L45.5645 14.7818L45.3225 14.8444L45.0925 14.9586L44.8625 15.0728L44.6931 15.2007L44.5238 15.3285L44.3771 15.489C44.2849 15.5917 44.1985 15.6998 44.1185 15.8127L44.0065 15.9766L43.8731 16.256C43.8005 16.4097 43.7125 16.6137 43.6771 16.7089C43.6418 16.8041 43.5798 17.0149 43.5385 17.1774L43.4645 17.4732L43.4278 17.8574L43.3911 18.2416L43.4185 18.5504L43.4458 18.8591L43.4785 18.9706C43.4965 19.0318 43.5338 19.1406 43.5618 19.2127L43.6131 19.3439L43.7065 19.4724L43.7998 19.601L43.9065 19.69L44.0131 19.7791L44.1585 19.8526C44.2546 19.8994 44.3543 19.9382 44.4565 19.9688C44.5561 19.9955 44.6572 20.0164 44.7591 20.0314C44.8418 20.0423 45.0131 20.0525 45.1398 20.0545L45.1411 20.0566ZM45.5511 19.3541L45.3685 19.3643L45.2451 19.3419C45.1626 19.3249 45.0818 19.3001 45.0038 19.2678L44.8845 19.2181L44.7851 19.1352L44.6858 19.0522L44.6118 18.908L44.5378 18.7639L44.5045 18.6034L44.4711 18.4429V18.1213V17.7996L44.5105 17.5154L44.5498 17.2312L44.6105 17.0333C44.6353 16.9586 44.6558 16.8826 44.6718 16.8055C44.6905 16.7374 44.715 16.6712 44.7451 16.6076C44.7851 16.5158 44.8525 16.3737 44.8938 16.2921C44.9455 16.1941 45.0034 16.0996 45.0671 16.0092C45.1324 15.9221 45.2035 15.8396 45.2798 15.7624C45.3489 15.6955 45.4236 15.635 45.5031 15.5815L45.6118 15.5135L45.8025 15.4455L45.9931 15.3775H46.7931L47.0231 15.4455C47.1498 15.4815 47.2845 15.523 47.3218 15.538L47.3885 15.5652L47.3751 15.6332C47.3678 15.6706 47.3391 15.8372 47.3085 15.9976C47.2778 16.1581 47.2258 16.4736 47.1865 16.6899C47.1471 16.9061 47.0871 17.2339 47.0531 17.4188C47.0191 17.6038 46.9691 17.8357 46.9425 17.9377C46.9158 18.0397 46.8758 18.1811 46.8591 18.2518C46.8317 18.3448 46.7978 18.4357 46.7578 18.5238C46.716 18.612 46.6683 18.6972 46.6151 18.7788C46.5682 18.8462 46.5155 18.9092 46.4578 18.9672C46.3899 19.0277 46.3182 19.0836 46.2431 19.1345L46.1098 19.2249L45.9171 19.2875L45.7245 19.35L45.5511 19.3541ZM9.88447 19.9348H10.4731L10.5151 19.669C10.5385 19.5228 10.5818 19.2419 10.6158 19.0447L10.7491 18.2287C10.7905 17.9771 10.8518 17.6045 10.8858 17.4005C10.9198 17.1965 10.9745 16.8803 11.0065 16.6974C11.0239 16.5807 11.0479 16.4651 11.0785 16.3512L11.0918 16.3376H14.2645L14.2818 16.3553L14.2991 16.373L14.2718 16.5158C14.2565 16.594 14.2118 16.8368 14.1725 17.0537C14.1331 17.2706 14.0665 17.6385 14.0251 17.8697C13.9838 18.1009 13.9231 18.4286 13.8918 18.5986C13.8605 18.7686 13.7951 19.1243 13.7478 19.3895C13.7005 19.6547 13.6625 19.8852 13.6625 19.9022V19.9328H14.8451L14.8711 19.7784C14.8858 19.6934 14.9085 19.5404 14.9225 19.4384C14.9365 19.3364 14.9698 19.1195 14.9971 18.9563C15.0245 18.7931 15.0785 18.4708 15.1171 18.2396C15.1558 18.0084 15.2218 17.6133 15.2625 17.3624C15.3031 17.1115 15.3638 16.7436 15.3958 16.5464C15.4278 16.3492 15.4878 16.0153 15.5291 15.8052C15.5705 15.5951 15.6331 15.2388 15.6738 15.0144C15.7145 14.79 15.7751 14.4506 15.8071 14.2602C15.8391 14.0698 15.9025 13.7251 15.9405 13.4939C15.9785 13.2627 16.0338 12.9927 16.0565 12.8948L16.0971 12.7153H14.8971L14.8811 12.8329C14.8725 12.8975 14.8431 13.0784 14.8145 13.2348C14.7858 13.3912 14.7398 13.6693 14.7078 13.8529C14.6758 14.0365 14.6165 14.3867 14.5745 14.6315C14.5325 14.8763 14.4838 15.2 14.4618 15.3516L14.4211 15.6236L13.5425 15.642L12.6638 15.6604L11.9305 15.6427C11.5258 15.6332 11.1925 15.623 11.1898 15.6202C11.1964 15.5486 11.2067 15.4773 11.2205 15.4067C11.2398 15.2918 11.2771 15.0919 11.3031 14.9627C11.3291 14.8335 11.3778 14.5778 11.4111 14.3942C11.4445 14.2106 11.4831 13.9828 11.4965 13.8876C11.5098 13.7924 11.5365 13.634 11.5571 13.5354C11.5778 13.4368 11.6158 13.2294 11.6431 13.0743C11.6705 12.9193 11.6985 12.7744 11.7098 12.7527L11.7245 12.7132H10.5418L10.5038 12.9295C10.4831 13.0485 10.4551 13.2178 10.4418 13.3062C10.4285 13.3946 10.3845 13.6782 10.3438 13.9366C10.3031 14.195 10.2425 14.5785 10.2105 14.7893L10.0771 15.642C10.0371 15.9004 9.97047 16.3009 9.92914 16.5321C9.88781 16.7633 9.82914 17.0911 9.79581 17.2611L9.66247 17.9778C9.62047 18.2022 9.55914 18.5218 9.52914 18.6823C9.49914 18.8428 9.46247 19.0345 9.44847 19.1025C9.43447 19.1705 9.39914 19.3664 9.36514 19.5384C9.33114 19.7104 9.30247 19.8689 9.30247 19.8906V19.9308H9.89114L9.88447 19.9348ZM16.4025 19.9348H16.9238L16.9385 19.8961C16.9489 19.8553 16.9539 19.8132 16.9531 19.771C16.9531 19.7234 16.9858 19.4772 17.0258 19.2229C17.0658 18.9686 17.1318 18.5551 17.1731 18.3042C17.2145 18.0533 17.2745 17.6854 17.3065 17.4882C17.3385 17.291 17.3978 16.9632 17.4365 16.7592C17.4751 16.5552 17.5345 16.2384 17.5698 16.0548C17.6051 15.8712 17.6698 15.5223 17.7178 15.2789C17.7658 15.0354 17.8098 14.8267 17.8171 14.8151L17.8305 14.7934L17.3031 14.8002L16.7758 14.807L16.7318 15.1286C16.7078 15.3054 16.6551 15.6556 16.6145 15.9072C16.5738 16.1588 16.5131 16.5423 16.4811 16.7599C16.4491 16.9775 16.3871 17.3277 16.3478 17.5385L16.2145 18.2552C16.1805 18.4388 16.1198 18.7612 16.0811 18.972C16.0425 19.1828 15.9865 19.4609 15.9605 19.5901C15.9345 19.7193 15.9071 19.8498 15.8985 19.8804L15.8838 19.9362H16.4051L16.4025 19.9348ZM28.5931 19.9348H29.1105L29.1258 19.7118C29.1345 19.5887 29.1638 19.3412 29.1925 19.1617C29.2211 18.9822 29.2758 18.6238 29.3165 18.3654C29.3571 18.107 29.4331 17.6772 29.4858 17.4134C29.5385 17.1496 29.5965 16.881 29.6191 16.8232C29.6357 16.7792 29.6478 16.7336 29.6551 16.6872C29.6771 16.6093 29.7061 16.5338 29.7418 16.4614C29.8005 16.3375 29.8673 16.2178 29.9418 16.103L30.0525 15.9358L30.2005 15.7964L30.3485 15.657L30.5305 15.5679L30.7125 15.4788H30.9911H31.2698L31.4071 15.5203C31.4825 15.5434 31.5505 15.5618 31.5585 15.5618C31.5665 15.5618 31.5731 15.5352 31.5731 15.5033C31.5731 15.4713 31.6005 15.3081 31.6338 15.1415C31.6671 14.9749 31.6945 14.8308 31.6945 14.8226C31.6394 14.7913 31.5801 14.7684 31.5185 14.7546C31.4212 14.725 31.3221 14.7023 31.2218 14.6866L31.1005 14.6716L30.9431 14.7002C30.8461 14.7187 30.7505 14.7444 30.6571 14.777C30.5667 14.8143 30.4796 14.8599 30.3971 14.913C30.3085 14.9737 30.2251 15.0419 30.1478 15.117C30.0607 15.2085 29.9797 15.3057 29.9051 15.4081L29.7458 15.6304L29.7111 15.6801L29.7325 15.5815C29.7438 15.5271 29.7765 15.3489 29.8045 15.1857C29.8325 15.0225 29.8611 14.8695 29.8711 14.8457L29.8838 14.8022H28.9511V14.862C28.9511 14.8947 28.9238 15.0926 28.8905 15.3006C28.8571 15.5087 28.8025 15.8576 28.7685 16.0752C28.7345 16.2928 28.6745 16.6708 28.6351 16.9156C28.5958 17.1604 28.5358 17.5106 28.5018 17.6942C28.4678 17.8778 28.4078 18.2002 28.3685 18.411C28.3291 18.6218 28.2631 18.9665 28.2225 19.1773C28.1818 19.3881 28.1331 19.637 28.1138 19.7302C28.0945 19.8233 28.0798 19.9097 28.0798 19.9219V19.9437H28.5971L28.5931 19.9348ZM40.8745 19.9348H41.4031V19.6044L41.4638 19.1964C41.4971 18.9713 41.5525 18.6143 41.5865 18.4035C41.6205 18.1927 41.6631 17.9275 41.6811 17.8105C41.6991 17.6936 41.7478 17.4447 41.7865 17.2543C41.8251 17.0639 41.8765 16.8585 41.8971 16.7973C41.9144 16.7511 41.9274 16.7033 41.9358 16.6545C41.9626 16.5696 41.9961 16.4871 42.0358 16.4077L42.1358 16.1921L42.2691 16.0133L42.4025 15.8344L42.5465 15.7236C42.637 15.6568 42.7327 15.5974 42.8325 15.5461L42.9718 15.4781H43.2745H43.5771L43.6965 15.5169L43.8158 15.5556L43.8358 15.5427L43.8558 15.5298V15.4509C43.8683 15.3305 43.8874 15.2108 43.9131 15.0926L43.9698 14.8131L43.9031 14.7879C43.8678 14.7736 43.7851 14.7451 43.7185 14.7233L43.5971 14.6846H43.1611L42.9831 14.7485L42.8051 14.8124L42.6718 14.8947L42.5385 14.977L42.3651 15.1626L42.1918 15.3482L42.0985 15.4917C42.0708 15.5411 42.0372 15.5868 41.9985 15.6277C41.9945 15.6236 42.0225 15.4584 42.0605 15.2612C42.0985 15.064 42.1271 14.8777 42.1305 14.8471V14.7913H41.2385V14.807C41.2385 14.8158 41.2158 14.9742 41.1891 15.1592C41.1625 15.3442 41.1071 15.7032 41.0671 15.9528C41.0271 16.2023 40.9625 16.6103 40.9225 16.8551C40.8825 17.0999 40.8225 17.4501 40.7891 17.6337C40.7558 17.8173 40.6958 18.1396 40.6558 18.3504C40.6158 18.5612 40.5518 18.9006 40.5118 19.1046L40.3951 19.7036L40.3505 19.9321H40.8791L40.8745 19.9348ZM17.4278 13.9032H17.5751L17.6918 13.8624L17.8085 13.8216L17.9118 13.7149L18.0151 13.6081L18.0698 13.4653L18.1245 13.3225V13.1124V12.9023L18.0845 12.8227L18.0358 12.7404L17.9511 12.6901L17.8665 12.6371H17.5018L17.3778 12.6935L17.2538 12.75L17.1831 12.8261L17.1111 12.905L17.0545 13.041L16.9978 13.177L16.9871 13.3885L16.9765 13.6L17.0291 13.7054L17.0818 13.8108L17.1831 13.8577L17.2845 13.9046H17.4318L17.4278 13.9032Z" fill="#B3131B"/>
</svg>
