<svg width="58" height="34" viewBox="0 0 58 34" fill="none" xmlns="http://www.w3.org/2000/svg">
<path d="M46.5408 24.869C46.5385 26.3447 45.9627 27.7594 44.9396 28.803C43.9165 29.8465 42.5296 30.4338 41.0828 30.4361H11.3848V8.38576C11.3871 6.90998 11.9628 5.49531 12.9859 4.45177C14.009 3.40823 15.3959 2.82094 16.8428 2.8186L46.5408 2.8186V24.869Z" fill="white"/>
<path d="M36.8706 19.2141H39.1273C39.1939 19.2141 39.3419 19.1924 39.4066 19.1924C39.6361 19.1422 39.8413 19.0117 39.9865 18.8236C40.1317 18.6355 40.2079 18.4015 40.2019 18.1622C40.2013 17.9245 40.1226 17.6939 39.9785 17.5072C39.8343 17.3204 39.633 17.1883 39.4066 17.132C39.3147 17.113 39.2209 17.1056 39.1273 17.1102H36.8706V19.2141Z" fill="url(#paint0_linear_435_2277)"/>
<path d="M38.8694 4.68115C37.8322 4.68133 36.8377 5.10165 36.1043 5.84967C35.371 6.59769 34.9589 7.61217 34.9587 8.67003V12.8126H40.4814C40.6106 12.8083 40.74 12.8156 40.868 12.8344C42.1147 12.9024 43.0387 13.5579 43.0387 14.6976C43.0275 15.1764 42.8361 15.6325 42.504 15.9712C42.172 16.3099 41.7248 16.5052 41.2554 16.5166V16.5601C42.522 16.6478 43.49 17.3713 43.49 18.4892C43.49 19.6949 42.4154 20.4837 40.9974 20.4837H34.936V28.5947H40.6734C41.7105 28.5945 42.7051 28.1742 43.4384 27.4262C44.1718 26.6782 44.5839 25.6637 44.584 24.6058V4.68115H38.8694Z" fill="url(#paint1_linear_435_2277)"/>
<path d="M39.9219 14.962C39.9263 14.7327 39.8476 14.5097 39.7008 14.3358C39.5541 14.1619 39.3496 14.0493 39.1266 14.0196C39.0839 14.0196 38.9759 13.9978 38.9119 13.9978H36.8706V15.927H38.9119C38.9842 15.933 39.0569 15.9256 39.1266 15.9052C39.3496 15.8755 39.5541 15.7629 39.7008 15.589C39.8476 15.4151 39.9263 15.1921 39.9219 14.9627V14.962Z" fill="url(#paint2_linear_435_2277)"/>
<path d="M17.2513 4.68115C16.2142 4.68133 15.2196 5.10165 14.4863 5.84967C13.7529 6.59769 13.3408 7.61217 13.3407 8.67003V18.5124C14.3836 19.0701 15.5376 19.3776 16.7147 19.4113C16.983 19.4429 17.2549 19.4149 17.5117 19.3292C17.7684 19.2435 18.0039 19.1021 18.202 18.9147C18.4 18.7273 18.556 18.4984 18.6591 18.2438C18.7622 17.9891 18.8101 17.7146 18.7993 17.4393V12.7915H22.1513V17.4155C22.1513 19.2128 21.0553 20.6795 17.338 20.6795C15.9832 20.6805 14.6335 20.5113 13.3193 20.1756V28.573H19.0567C20.0938 28.5728 21.0884 28.1525 21.8217 27.4044C22.5551 26.6564 22.9672 25.6419 22.9673 24.5841V4.68115H17.2513Z" fill="url(#paint3_linear_435_2277)"/>
<path d="M28.0601 4.68115C27.023 4.68133 26.0284 5.10165 25.295 5.84967C24.5617 6.59769 24.1496 7.61217 24.1494 8.67003V13.887C25.1381 13.0322 26.8567 12.4842 29.6294 12.6154C30.6657 12.6825 31.694 12.8438 32.7021 13.0975V14.786C31.7846 14.2855 30.7744 13.9869 29.7367 13.9094C27.6307 13.7558 26.3627 14.8084 26.3627 16.6492C26.3627 18.5124 27.6294 19.5643 29.7367 19.3889C30.7726 19.301 31.7807 19.003 32.7021 18.5124V20.2001C31.6944 20.4561 30.6659 20.6175 29.6294 20.6822C26.8574 20.8135 25.1381 20.2661 24.1494 19.4106V28.6172H29.8867C30.9239 28.617 31.9185 28.1967 32.6518 27.4486C33.3852 26.7006 33.7972 25.6861 33.7974 24.6283V4.68115H28.0601Z" fill="url(#paint4_linear_435_2277)"/>
<defs>
<linearGradient id="paint0_linear_435_2277" x1="34.9549" y1="18.1636" x2="44.6134" y2="18.1636" gradientUnits="userSpaceOnUse">
<stop stop-color="#007940"/>
<stop offset="0.228" stop-color="#00873F"/>
<stop offset="0.743" stop-color="#40A737"/>
<stop offset="1" stop-color="#5CB531"/>
</linearGradient>
<linearGradient id="paint1_linear_435_2277" x1="34.9553" y1="16.6379" x2="44.613" y2="16.6379" gradientUnits="userSpaceOnUse">
<stop stop-color="#007940"/>
<stop offset="0.228" stop-color="#00873F"/>
<stop offset="0.743" stop-color="#40A737"/>
<stop offset="1" stop-color="#5CB531"/>
</linearGradient>
<linearGradient id="paint2_linear_435_2277" x1="34.9543" y1="14.9615" x2="44.6123" y2="14.9615" gradientUnits="userSpaceOnUse">
<stop stop-color="#007940"/>
<stop offset="0.228" stop-color="#00873F"/>
<stop offset="0.743" stop-color="#40A737"/>
<stop offset="1" stop-color="#5CB531"/>
</linearGradient>
<linearGradient id="paint3_linear_435_2277" x1="13.3386" y1="16.6271" x2="23.141" y2="16.6271" gradientUnits="userSpaceOnUse">
<stop stop-color="#1F286F"/>
<stop offset="0.475" stop-color="#004E94"/>
<stop offset="0.826" stop-color="#0066B1"/>
<stop offset="1" stop-color="#006FBC"/>
</linearGradient>
<linearGradient id="paint4_linear_435_2277" x1="24.0915" y1="16.6252" x2="33.6141" y2="16.6252" gradientUnits="userSpaceOnUse">
<stop stop-color="#6C2C2F"/>
<stop offset="0.174" stop-color="#882730"/>
<stop offset="0.573" stop-color="#BE1833"/>
<stop offset="0.859" stop-color="#DC0436"/>
<stop offset="1" stop-color="#E60039"/>
</linearGradient>
</defs>
</svg>
