<svg width="24" height="24" viewBox="0 0 24 24" fill="none" xmlns="http://www.w3.org/2000/svg">
<path fill-rule="evenodd" clip-rule="evenodd" d="M14.7071 17.7071C14.3166 18.0976 13.6834 18.0976 13.2929 17.7071L8.29289 12.7071C7.90237 12.3166 7.90237 11.6834 8.29289 11.2929L13.2929 6.29289C13.6834 5.90237 14.3166 5.90237 14.7071 6.29289C15.0976 6.68342 15.0976 7.31658 14.7071 7.70711L10.4142 12L14.7071 16.2929C15.0976 16.6834 15.0976 17.3166 14.7071 17.7071Z" fill="#165C7D"/>
<path fill-rule="evenodd" clip-rule="evenodd" d="M22 12C22 12.5523 21.5523 13 21 13L9 13C8.44771 13 8 12.5523 8 12C8 11.4477 8.44771 11 9 11L21 11C21.5523 11 22 11.4477 22 12Z" fill="#165C7D"/>
<path fill-rule="evenodd" clip-rule="evenodd" d="M5 4C4.73478 4 4.48043 4.10536 4.29289 4.29289C4.10536 4.48043 4 4.73478 4 5V19C4 19.2652 4.10536 19.5196 4.29289 19.7071C4.48043 19.8946 4.73478 20 5 20H9C9.55228 20 10 20.4477 10 21C10 21.5523 9.55228 22 9 22H5C4.20435 22 3.44129 21.6839 2.87868 21.1213C2.31607 20.5587 2 19.7957 2 19V5C2 4.20435 2.31607 3.44129 2.87868 2.87868C3.44129 2.31607 4.20435 2 5 2H9C9.55228 2 10 2.44772 10 3C10 3.55228 9.55228 4 9 4H5Z" fill="#165C7D"/>
</svg>
