<svg width="58" height="34" viewBox="0 0 58 34" fill="none" xmlns="http://www.w3.org/2000/svg">
<g clip-path="url(#clip0_435_2286)">
<path d="M35.597 7.22668H22.4072V26.7698H35.597V7.22668Z" fill="#FF5F00"/>
<path d="M23.7658 17C23.7642 15.1181 24.2344 13.2606 25.1409 11.568C26.0475 9.87537 27.3665 8.39199 28.9983 7.23012C26.9773 5.78923 24.5502 4.89322 21.9943 4.64451C19.4385 4.39579 16.8571 4.80441 14.5452 5.82365C12.2333 6.84288 10.2841 8.43163 8.92037 10.4083C7.55667 12.385 6.8335 14.6698 6.8335 17.0017C6.8335 19.3336 7.55667 21.6184 8.92037 23.5951C10.2841 25.5718 12.2333 27.1605 14.5452 28.1797C16.8571 29.199 19.4385 29.6076 21.9943 29.3589C24.5502 29.1102 26.9773 28.2142 28.9983 26.7733C27.366 25.611 26.0467 24.1271 25.1401 22.4338C24.2336 20.7406 23.7636 18.8824 23.7658 17Z" fill="#EB001B"/>
<path d="M49.8558 24.7019V24.3015H50.0461V24.2186H49.5933V24.3015H49.7721V24.7019H49.8558ZM50.7349 24.7019V24.2186H50.5979L50.4381 24.5639L50.2782 24.2186H50.1412V24.7019H50.2402V24.336L50.3886 24.6502H50.4914L50.6398 24.336V24.7019H50.7349Z" fill="#F79E1B"/>
<path d="M51.1649 17C51.1648 19.332 50.4415 21.617 49.0775 23.5938C47.7136 25.5705 45.7641 27.1592 43.4519 28.1783C41.1396 29.1974 38.558 29.6057 36.002 29.3567C33.4461 29.1076 31.0189 28.2112 28.998 26.7698C30.6292 25.6069 31.9479 24.1231 32.8546 22.4304C33.7614 20.7377 34.2326 18.8803 34.2326 16.9982C34.2326 15.1162 33.7614 13.2588 32.8546 11.5661C31.9479 9.87337 30.6292 8.38958 28.998 7.22667C31.0189 5.78533 33.4461 4.88889 36.002 4.63982C38.558 4.39075 41.1396 4.7991 43.4519 5.81819C45.7641 6.83729 47.7136 8.426 49.0775 10.4027C50.4415 12.3795 51.1648 14.6645 51.1649 16.9965V17Z" fill="#F79E1B"/>
</g>
<defs>
<clipPath id="clip0_435_2286">
<rect width="50" height="30" fill="white" transform="translate(4 2)"/>
</clipPath>
</defs>
</svg>
