<svg width="24" height="24" viewBox="0 0 24 24" fill="none" xmlns="http://www.w3.org/2000/svg">
<path d="M13.248 17.9212C14.2431 17.9212 15.1974 17.5282 15.9011 16.8286C16.6047 16.1291 17 15.1803 17 14.1909C17 13.2016 16.6047 12.2528 15.9011 11.5532C15.1974 10.8536 14.2431 10.4606 13.248 10.4606H10.752C10.5762 10.4806 10.398 10.4635 10.2293 10.4103C10.0606 10.357 9.90506 10.269 9.77297 10.1518C9.64087 10.0347 9.53517 9.89109 9.46279 9.73048C9.39042 9.56987 9.353 9.39587 9.353 9.21988C9.353 9.04389 9.39042 8.86989 9.46279 8.70928C9.53517 8.54867 9.64087 8.40508 9.77297 8.28793C9.90506 8.17078 10.0606 8.08271 10.2293 8.0295C10.398 7.97628 10.5762 7.95912 10.752 7.97915H17V5.48146H13.248V3H10.752V5.48146C9.79758 5.544 8.90275 5.96506 8.249 6.65927C7.59525 7.35348 7.23149 8.26889 7.23149 9.21988C7.23149 10.1709 7.59525 11.0863 8.249 11.7805C8.90275 12.4747 9.79758 12.8958 10.752 12.9583H13.248C13.4238 12.9383 13.602 12.9554 13.7707 13.0086C13.9394 13.0619 14.0949 13.1499 14.227 13.2671C14.3591 13.3842 14.4648 13.5278 14.5372 13.6884C14.6096 13.849 14.647 14.023 14.647 14.199C14.647 14.375 14.6096 14.549 14.5372 14.7096C14.4648 14.8702 14.3591 15.0138 14.227 15.131C14.0949 15.2481 13.9394 15.3362 13.7707 15.3894C13.602 15.4426 13.4238 15.4598 13.248 15.4398H7V17.9212H10.752V20.5H13.248V17.9212Z" fill="#165C7D"/>
</svg>
