<svg width="24" height="24" viewBox="0 0 24 24" fill="none" xmlns="http://www.w3.org/2000/svg">
<g clip-path="url(#clip0_487_2841)">
<path d="M12.6423 5.81411H17.1363C17.3065 5.81411 17.4698 5.74647 17.5902 5.62607L17.4842 5.52L17.5902 5.62607C17.7106 5.50567 17.7783 5.34238 17.7783 5.17211L17.7782 5.16966C17.7768 5.08025 17.7577 4.99202 17.722 4.91004C17.6865 4.82871 17.6355 4.75512 17.5718 4.69345L16.3337 3.43881L17.5884 2.18403C17.5888 2.18371 17.5891 2.18339 17.5894 2.18307C17.6808 2.09451 17.7432 1.98037 17.7684 1.85565C17.7937 1.73068 17.7804 1.60099 17.7304 1.48372C17.7304 1.48353 17.7303 1.48334 17.7302 1.48315L12.6423 5.81411ZM12.6423 5.81411V8.85611C12.6473 8.85758 12.6523 8.85931 12.6571 8.86131C13.0142 9.00761 13.3245 9.24867 13.5545 9.55845C13.5546 9.55853 13.5546 9.55862 13.5547 9.5587L22.7883 21.8882L22.7897 21.89L22.7897 21.89C22.8594 21.9862 22.9015 22.0996 22.9111 22.2181C22.9207 22.3364 22.8977 22.4551 22.8444 22.5612C22.7915 22.6676 22.7098 22.7571 22.6086 22.8195C22.5074 22.8819 22.3907 22.9147 22.2718 22.9141H22.2723L12.6423 5.81411ZM1.15606 22.5611C1.10286 22.455 1.07981 22.3363 1.08944 22.2181C1.09908 22.0996 1.14109 21.9862 1.21087 21.89L1.21225 21.8881L1.21226 21.8881L10.4574 9.55925C10.4576 9.55907 10.4577 9.5589 10.4578 9.55872C10.6843 9.25092 10.9898 9.01012 11.3421 8.86186L11.3463 8.86009V1.72815C11.3463 1.72814 11.3463 1.72812 11.3463 1.72811C11.3462 1.64248 11.3634 1.55772 11.3966 1.4788C11.4298 1.39987 11.4785 1.32839 11.5398 1.26856C11.6011 1.20874 11.6737 1.16178 11.7534 1.13045C11.8325 1.09936 11.917 1.08429 12.002 1.08611H17.1363H17.1373C17.2644 1.08701 17.3883 1.12523 17.4938 1.19602L17.4103 1.32057L1.15606 22.5611ZM1.15606 22.5611C1.156 22.561 1.15595 22.5609 1.1559 22.5608L1.29027 22.4941L1.15622 22.5614C1.15617 22.5613 1.15611 22.5612 1.15606 22.5611ZM1.72908 22.9141H22.2715L1.72827 22.9141V22.7641L1.72908 22.9141ZM16.363 15.4155L21.0127 21.6301H3.01401L7.72079 15.4147L9.39868 17.2604C9.39883 17.2605 9.39898 17.2607 9.39913 17.2608C9.45925 17.3276 9.53273 17.3811 9.61481 17.4177C9.69709 17.4544 9.78618 17.4733 9.87627 17.4733C9.96636 17.4733 10.0554 17.4544 10.1377 17.4177C10.22 17.381 10.2936 17.3274 10.3539 17.2604L10.3542 17.26L12.0423 15.3693L13.7304 17.26L13.7307 17.2604C13.7909 17.3274 13.8645 17.381 13.9468 17.4177C14.0291 17.4544 14.1182 17.4733 14.2083 17.4733C14.2984 17.4733 14.3874 17.4544 14.4697 17.4177C14.5518 17.381 14.6253 17.3276 14.6855 17.2608C14.6856 17.2606 14.6857 17.2605 14.6859 17.2604L16.363 15.4155ZM12.5059 10.3284C12.509 10.3338 12.5125 10.3391 12.5162 10.3441L15.5493 14.3902L14.1681 15.8869L12.4789 13.995C12.4195 13.9267 12.3463 13.8718 12.2641 13.8341C12.1819 13.7964 12.0927 13.7766 12.0024 13.7761C11.9055 13.7739 11.8094 13.7939 11.7214 13.8345C11.6341 13.8748 11.5571 13.9344 11.4961 14.0087L9.80967 15.8976L8.45035 14.3913L11.4843 10.3441C11.488 10.3391 11.4915 10.3338 11.4946 10.3284C11.5455 10.2391 11.619 10.1649 11.7078 10.1133C11.7967 10.0617 11.8975 10.0345 12.0003 10.0345C12.103 10.0345 12.2039 10.0617 12.2927 10.1133C12.3815 10.1649 12.4551 10.2391 12.5059 10.3284ZM14.9722 3.89221L15.5879 4.51211H12.6423V2.37011H15.5861L14.9722 2.98401C14.9722 2.98402 14.9722 2.98403 14.9722 2.98404C14.9126 3.04366 14.8652 3.11444 14.833 3.19234C14.8007 3.27025 14.7841 3.35377 14.7841 3.43811C14.7841 3.52245 14.8007 3.60596 14.833 3.68388C14.8652 3.76165 14.9124 3.83232 14.9719 3.89187C14.972 3.89198 14.9721 3.89209 14.9722 3.89221Z" fill="#005779" stroke="#165C7D" stroke-width="0.3" stroke-linejoin="round"/>
</g>
<defs>
<clipPath id="clip0_487_2841">
<rect width="24" height="24" fill="white"/>
</clipPath>
</defs>
</svg>
