<svg width="24" height="24" viewBox="0 0 24 24" fill="none" xmlns="http://www.w3.org/2000/svg">
<path d="M12 22C17.5228 22 22 17.5228 22 12C22 6.47715 17.5228 2 12 2C6.47715 2 2 6.47715 2 12C2 17.5228 6.47715 22 12 22Z" stroke="#165C7D" stroke-width="2" stroke-linecap="round" stroke-linejoin="round"/>
<path d="M12.7488 16.3791C13.3458 16.3791 13.9184 16.132 14.3406 15.6923C14.7628 15.2526 15 14.6562 15 14.0343C15 13.4124 14.7628 12.816 14.3406 12.3763C13.9184 11.9366 13.3458 11.6895 12.7488 11.6895H11.2512C11.1457 11.7021 11.0388 11.6913 10.9376 11.6579C10.8363 11.6244 10.743 11.5691 10.6638 11.4954C10.5845 11.4218 10.5211 11.3315 10.4777 11.2306C10.4343 11.1296 10.4118 11.0203 10.4118 10.9096C10.4118 10.799 10.4343 10.6896 10.4777 10.5887C10.5211 10.4877 10.5845 10.3975 10.6638 10.3238C10.743 10.2502 10.8363 10.1948 10.9376 10.1614C11.0388 10.1279 11.1457 10.1172 11.2512 10.1297H15V8.55978H12.7488V7H11.2512V8.55978C10.6785 8.59909 10.1417 8.86375 9.7494 9.30011C9.35715 9.73647 9.1389 10.3119 9.1389 10.9096C9.1389 11.5074 9.35715 12.0828 9.7494 12.5192C10.1417 12.9555 10.6785 13.2202 11.2512 13.2595H12.7488C12.8543 13.2469 12.9612 13.2577 13.0624 13.2911C13.1637 13.3246 13.257 13.38 13.3362 13.4536C13.4155 13.5272 13.4789 13.6175 13.5223 13.7184C13.5657 13.8194 13.5882 13.9288 13.5882 14.0394C13.5882 14.15 13.5657 14.2594 13.5223 14.3603C13.4789 14.4613 13.4155 14.5515 13.3362 14.6252C13.257 14.6988 13.1637 14.7542 13.0624 14.7876C12.9612 14.8211 12.8543 14.8319 12.7488 14.8193H9V16.3791H11.2512V18H12.7488V16.3791Z" fill="#165C7D"/>
</svg>
