<svg width="24" height="24" viewBox="0 0 24 24" fill="none" xmlns="http://www.w3.org/2000/svg">
<path d="M18.7168 18.36C17.7751 18.36 16.8895 17.9934 16.2238 17.3278L12.624 13.7281C12.3713 13.4747 11.9308 13.4755 11.6781 13.7281L8.06525 17.341C7.39936 18.0065 6.5138 18.3731 5.57214 18.3731H4.86279L9.42186 22.9323C10.8457 24.3561 13.1543 24.3561 14.5782 22.9323L19.1504 18.36H18.7168Z" fill="#32BCAD"/>
<path d="M22.9321 9.42213L20.1691 6.65912C20.1082 6.68351 20.0424 6.69874 19.9729 6.69874H18.7167C18.0672 6.69874 17.4315 6.9621 16.9726 7.4213L13.3728 11.0211C13.0361 11.3579 12.5935 11.5266 12.1512 11.5266C11.7086 11.5266 11.2663 11.3579 10.9295 11.0214L7.31626 7.40821C6.85728 6.949 6.22164 6.68565 5.57212 6.68565H4.02745C3.96164 6.68565 3.9 6.67007 3.84187 6.64817L1.06792 9.42213C-0.355972 10.8459 -0.355972 13.1544 1.06792 14.5785L3.84176 17.3523C3.89989 17.3304 3.96164 17.3148 4.02745 17.3148H5.57212C6.22164 17.3148 6.85728 17.0515 7.31626 16.5923L10.9291 12.9794C11.5822 12.3269 12.7205 12.3266 13.3728 12.9797L16.9726 16.5791C17.4315 17.0384 18.0672 17.3017 18.7167 17.3017H19.9729C20.0425 17.3017 20.1082 17.3169 20.1692 17.3412L22.9321 14.5785C24.356 13.1544 24.356 10.8459 22.9321 9.42213Z" fill="#32BCAD"/>
<path d="M5.57203 5.62686C6.51369 5.62686 7.39924 5.99361 8.06502 6.65916L11.6779 10.2726C11.9381 10.5328 12.363 10.5339 12.6239 10.2723L16.2235 6.67225C16.8894 6.0067 17.775 5.64006 18.7166 5.64006H19.1502L14.5781 1.0679C13.1542 -0.355985 10.8456 -0.355985 9.42174 1.0679L4.86279 5.62686H5.57203Z" fill="#32BCAD"/>
</svg>
