<svg width="24" height="24" viewBox="0 0 24 24" fill="none" xmlns="http://www.w3.org/2000/svg">
<path d="M15.5168 18.0352L15.5167 18.0351L12.1511 14.6696L8.77235 18.0483L8.77211 18.0485C8.2758 18.5445 7.68262 18.9116 7.03576 19.132L10.1289 22.2253C10.1289 22.2253 10.129 22.2253 10.129 22.2253C11.1623 23.2586 12.8377 23.2586 13.8711 22.2253C13.8711 22.2253 13.8711 22.2253 13.8711 22.2253L17.0516 19.0448C16.483 18.8201 15.9611 18.4793 15.5168 18.0352Z" stroke="#005779" stroke-width="2" stroke-linecap="round" stroke-linejoin="round"/>
<path d="M22.225 10.1294L22.225 10.1294L19.7945 7.69886H18.7167C18.3324 7.69886 17.9511 7.8569 17.68 8.12827L17.6797 8.12853L14.08 11.7282C13.9795 11.8288 13.8729 11.9199 13.7614 12.0015C13.8734 12.0823 13.98 12.1727 14.0799 12.2727C14.08 12.2728 14.0802 12.273 14.0803 12.2732L17.6797 15.872L17.6801 15.8724C17.9512 16.1438 18.3324 16.3018 18.7167 16.3018H19.7945L22.2249 13.8715C22.225 13.8715 22.225 13.8715 22.225 13.8715C23.2584 12.8379 23.2583 11.1626 22.225 10.1294ZM10.5406 12.0015C10.4294 11.9201 10.3231 11.8293 10.2227 11.729L10.2224 11.7287L6.60915 8.11543L6.60898 8.11526C6.33761 7.84376 5.95643 7.68577 5.57212 7.68577H4.21861L1.77502 10.1294L1.775 10.1294C0.741708 11.1626 0.741618 12.8379 1.77502 13.8715C1.77503 13.8715 1.77504 13.8715 1.77505 13.8715L4.2185 16.3149H5.57212C5.95643 16.3149 6.33761 16.1569 6.60898 15.8855L6.60915 15.8853L10.222 12.2724L10.2223 12.2721C10.3222 12.1723 10.4287 12.0821 10.5406 12.0015Z" stroke="#005779" stroke-width="2" stroke-linecap="round" stroke-linejoin="round"/>
<path d="M8.77201 5.95206L8.77218 5.95223L12.1507 9.3313L15.5164 5.9653L15.5166 5.96509C15.9609 5.52102 16.4828 5.18024 17.0514 4.95556L13.871 1.77514C12.8376 0.741771 11.1622 0.741771 10.1289 1.77514L7.03572 4.86827C7.6826 5.08874 8.27576 5.45597 8.77201 5.95206Z" stroke="#005779" stroke-width="2" stroke-linecap="round" stroke-linejoin="round"/>
</svg>
