<svg width="24" height="24" viewBox="0 0 24 24" fill="none" xmlns="http://www.w3.org/2000/svg">
<path d="M6.88753 22.2248L3.47925 18.8165L6.88753 15.4082" stroke="#165C7D" stroke-width="2" stroke-linecap="round" stroke-linejoin="round"/>
<path d="M21.3727 13.7041V15.4082C21.3727 16.3122 21.0136 17.1791 20.3744 17.8183C19.7353 18.4574 18.8683 18.8165 17.9644 18.8165H5.18335" stroke="#165C7D" stroke-width="2" stroke-linecap="round" stroke-linejoin="round"/>
<path d="M17.1123 1.77515L20.5206 5.18343L17.1123 8.59171" stroke="#165C7D" stroke-width="2" stroke-linecap="round" stroke-linejoin="round"/>
<path d="M2.6272 10.2958V8.59163C2.6272 7.6877 2.98628 6.82079 3.62546 6.18161C4.26464 5.54244 5.13155 5.18335 6.03548 5.18335H18.8165" stroke="#165C7D" stroke-width="2" stroke-linecap="round" stroke-linejoin="round"/>
<path d="M17.9644 12.8521C18.435 12.8521 18.8164 12.4706 18.8164 12C18.8164 11.5294 18.435 11.1479 17.9644 11.1479C17.4938 11.1479 17.1123 11.5294 17.1123 12C17.1123 12.4706 17.4938 12.8521 17.9644 12.8521Z" fill="#165C7D" stroke="#165C7D" stroke-linecap="round" stroke-linejoin="round"/>
<path d="M12 12.8521C12.4706 12.8521 12.8521 12.4706 12.8521 12C12.8521 11.5294 12.4706 11.1479 12 11.1479C11.5294 11.1479 11.1479 11.5294 11.1479 12C11.1479 12.4706 11.5294 12.8521 12 12.8521Z" fill="#165C7D" stroke="#165C7D" stroke-linecap="round" stroke-linejoin="round"/>
<path d="M6.03542 12.8521C6.50601 12.8521 6.88749 12.4706 6.88749 12C6.88749 11.5294 6.50601 11.1479 6.03542 11.1479C5.56483 11.1479 5.18335 11.5294 5.18335 12C5.18335 12.4706 5.56483 12.8521 6.03542 12.8521Z" fill="#165C7D" stroke="#165C7D" stroke-linecap="round" stroke-linejoin="round"/>
</svg>
