<svg width="24" height="24" viewBox="0 0 24 24" fill="none" xmlns="http://www.w3.org/2000/svg">
<path fill-rule="evenodd" clip-rule="evenodd" d="M10.1818 3.31818C6.66728 3.31818 3.81818 6.16728 3.81818 9.68182C3.81818 13.1964 6.66728 16.0455 10.1818 16.0455C13.6964 16.0455 16.5455 13.1964 16.5455 9.68182C16.5455 6.16728 13.6964 3.31818 10.1818 3.31818ZM2 9.68182C2 5.16312 5.66312 1.5 10.1818 1.5C14.7005 1.5 18.3636 5.16312 18.3636 9.68182C18.3636 14.2005 14.7005 17.8636 10.1818 17.8636C5.66312 17.8636 2 14.2005 2 9.68182Z" fill="#165C7D"/>
<path fill-rule="evenodd" clip-rule="evenodd" d="M14.9933 13.9935C15.3483 13.6385 15.924 13.6385 16.279 13.9935L21.7335 19.4481C22.0885 19.8031 22.0885 20.3787 21.7335 20.7337C21.3785 21.0888 20.8029 21.0888 20.4479 20.7337L14.9933 15.2792C14.6383 14.9242 14.6383 14.3486 14.9933 13.9935Z" fill="#165C7D"/>
</svg>
