<svg width="24" height="24" viewBox="0 0 24 24" fill="none" xmlns="http://www.w3.org/2000/svg">
<path d="M21.9287 9.52757C21.8422 9.25104 21.6792 9.00701 21.46 8.82589C21.2408 8.64476 20.9751 8.53453 20.6959 8.50893L15.3944 8.0348L13.3163 2.90826C13.2081 2.63926 13.0256 2.40948 12.7918 2.24786C12.558 2.08624 12.2833 2 12.0023 2C11.7213 2 11.4466 2.08624 11.2128 2.24786C10.979 2.40948 10.7965 2.63926 10.6883 2.90826L8.61643 8.0348L3.30866 8.51171C3.0284 8.53614 2.76133 8.64586 2.54094 8.82713C2.32055 9.00839 2.15665 9.25312 2.0698 9.53063C1.98295 9.80814 1.97702 10.1061 2.05274 10.3871C2.12846 10.6681 2.28247 10.9196 2.49545 11.1102L6.52224 14.7606L5.31537 20.1816C5.25155 20.4653 5.26976 20.7622 5.36772 21.0352C5.46568 21.3082 5.63904 21.5452 5.86613 21.7166C6.09323 21.8879 6.36397 21.986 6.64452 21.9986C6.92506 22.0112 7.20296 21.9377 7.44347 21.7874L11.996 18.9167L16.5584 21.7874C16.7989 21.9377 17.0769 22.0112 17.3574 21.9986C17.6379 21.986 17.9087 21.8879 18.1358 21.7166C18.3629 21.5452 18.5362 21.3082 18.6342 21.0352C18.7322 20.7622 18.7504 20.4653 18.6865 20.1816L17.4806 14.755L21.5065 11.1102C21.7194 10.9189 21.8731 10.6667 21.9483 10.3851C22.0234 10.1035 22.0166 9.80516 21.9287 9.52757ZM20.5701 9.99059L16.5442 13.6355C16.3482 13.8123 16.2025 14.0412 16.1226 14.2975C16.0427 14.5538 16.0316 14.8279 16.0907 15.0903L17.3002 20.5205L12.7414 17.6498C12.519 17.5093 12.2636 17.435 12.0032 17.435C11.7428 17.435 11.4874 17.5093 11.265 17.6498L6.71238 20.5205L7.9139 15.094C7.97295 14.8316 7.96194 14.5575 7.88203 14.3012C7.80213 14.0449 7.65637 13.816 7.46043 13.6392L3.43274 9.99614C3.43242 9.99337 3.43242 9.99058 3.43274 9.98781L8.73872 9.51183C8.99778 9.48814 9.24568 9.39153 9.45569 9.23241C9.6657 9.0733 9.82985 8.85772 9.93043 8.60894L12.0023 3.48888L14.0733 8.60894C14.1739 8.85772 14.338 9.0733 14.548 9.23241C14.758 9.39153 15.0059 9.48814 15.265 9.51183L20.5718 9.98781V9.99429L20.5701 9.99059Z" fill="#165C7D"/>
<path d="M9 9L12 3.5L12.5 4L15 9L21 9.5L20.5 10.5L16.5 14.5L17.5 20.5L17 21L12 18L6.5 21V19L7.5 14.5L4.5 11L3 10L9 9Z" fill="#165C7D"/>
</svg>
