<svg width="24" height="24" viewBox="0 0 24 24" fill="none" xmlns="http://www.w3.org/2000/svg">
<path d="M17.2085 19.2577C17.6992 19.2647 18.1769 19.0991 18.5579 18.7899C18.7316 18.6534 18.872 18.4793 18.9686 18.2806C19.0652 18.082 19.1154 17.864 19.1154 17.6432C19.1154 17.4223 19.0652 17.2044 18.9686 17.0057C18.872 16.8071 18.7316 16.633 18.5579 16.4965C18.1777 16.1846 17.7002 16.0158 17.2085 16.0195H15.9417C15.8539 16.038 15.7632 16.038 15.6755 16.0195C15.5912 16.0019 15.5124 15.9641 15.446 15.9094C15.3799 15.8617 15.3263 15.7988 15.2899 15.7259C15.2537 15.6582 15.2348 15.5825 15.2348 15.5057C15.2348 15.4289 15.2537 15.3533 15.2899 15.2856C15.3263 15.2127 15.3799 15.1498 15.446 15.1021C15.5121 15.0361 15.5944 14.9886 15.6846 14.9645C15.7724 14.9459 15.8631 14.9459 15.9508 14.9645H19.127V13.8637H17.2085V12.772H15.9417V13.8637C15.473 13.8848 15.0257 14.0661 14.6749 14.3774C14.515 14.5157 14.3858 14.6859 14.2957 14.877C14.2055 15.0682 14.1565 15.2761 14.1516 15.4874C14.1533 15.7019 14.2009 15.9135 14.2911 16.1081C14.3814 16.3027 14.5122 16.4758 14.6749 16.6157C15.0257 16.927 15.473 17.1084 15.9417 17.1295H17.2085C17.2962 17.1109 17.3869 17.1109 17.4747 17.1295C17.5589 17.1471 17.6377 17.1848 17.7042 17.2395C17.7702 17.2872 17.8238 17.3502 17.8602 17.423C17.8964 17.4908 17.9153 17.5664 17.9153 17.6432C17.9153 17.72 17.8964 17.7956 17.8602 17.8633C17.8238 17.9362 17.7702 17.9991 17.7042 18.0468C17.6377 18.1015 17.5589 18.1393 17.4747 18.1569C17.3869 18.1755 17.2962 18.1755 17.2085 18.1569H14.0415V19.2302H15.9417V20.3586H17.2085V19.2577Z" fill="#165C7D"/>
<path fill-rule="evenodd" clip-rule="evenodd" d="M16.5751 11.4413C13.7353 11.4413 11.4337 13.7418 11.4337 16.579C11.4337 19.4163 13.7353 21.7168 16.5751 21.7168C19.4148 21.7168 21.7165 19.4163 21.7165 16.579C21.7165 13.7418 19.4148 11.4413 16.5751 11.4413ZM10.1501 16.579C10.1501 13.0326 13.0269 10.1581 16.5751 10.1581C20.1232 10.1581 23 13.0326 23 16.579C23 20.1255 20.1232 23 16.5751 23C13.0269 23 10.1501 20.1255 10.1501 16.579Z" fill="#165C7D"/>
<path fill-rule="evenodd" clip-rule="evenodd" d="M11.2509 4.69012C11.3554 4.69365 11.4581 4.71789 11.5532 4.76143C11.6482 4.80497 11.7337 4.86694 11.8045 4.94375C11.8754 5.02056 11.9303 5.11068 11.9661 5.20887C12.0018 5.30706 12.0177 5.41137 12.0128 5.51574V10.4695C12.0152 10.6185 11.9773 10.7654 11.9029 10.8946C11.8286 11.0238 11.7206 11.1305 11.5905 11.2033L8.53369 12.8546C8.44342 12.9049 8.34341 12.9354 8.24038 12.944C8.13735 12.9526 8.03367 12.939 7.9363 12.9043C7.83894 12.8695 7.75013 12.8144 7.67584 12.7425C7.60156 12.6707 7.5435 12.5838 7.50558 12.4876C7.41378 12.2936 7.39772 12.0723 7.46053 11.867C7.52335 11.6617 7.66051 11.4872 7.84522 11.3776L10.4798 9.95574V5.51574C10.4761 5.41092 10.4931 5.3064 10.5299 5.20816C10.5667 5.10992 10.6225 5.01989 10.6941 4.94321C10.7657 4.86653 10.8517 4.80471 10.9473 4.76128C11.0428 4.71786 11.146 4.69368 11.2509 4.69012Z" fill="#165C7D"/>
<path fill-rule="evenodd" clip-rule="evenodd" d="M9.06728 1.20588C10.5411 0.903687 12.064 0.934505 13.5244 1.29609C14.9848 1.65767 16.3459 2.34088 17.5082 3.29578C18.6704 4.25068 19.6045 5.45313 20.242 6.81522C20.4566 7.27373 20.2587 7.81934 19.8001 8.03388C19.3415 8.24842 18.7957 8.05064 18.5812 7.59213C18.0595 6.47755 17.2952 5.49354 16.344 4.71208C15.3928 3.93061 14.2789 3.37145 13.0836 3.07551C11.8883 2.77958 10.642 2.75435 9.43567 3.00169C8.22938 3.24902 7.09368 3.76266 6.11162 4.505C5.12956 5.24735 4.32598 6.19963 3.75961 7.2922C3.19323 8.38476 2.87838 9.59 2.83806 10.8198C2.79774 12.0495 3.03297 13.2728 3.52656 14.4C4.02015 15.5273 4.75963 16.5301 5.69095 17.3351L5.69238 17.3363C6.76063 18.2635 8.05178 18.8973 9.43915 19.1755C9.93561 19.275 10.2574 19.758 10.1578 20.2544C10.0583 20.7507 9.57509 21.0724 9.07863 20.9729C7.38002 20.6323 5.79913 19.8564 4.49099 18.7212C3.35331 17.7377 2.4499 16.5125 1.84683 15.1352C1.24362 13.7576 0.956141 12.2626 1.00542 10.7597C1.05469 9.25678 1.43948 7.78386 2.13162 6.44868C2.82376 5.11351 3.80575 3.94984 5.00574 3.04275C6.20574 2.13566 7.59341 1.50808 9.06728 1.20588Z" fill="#165C7D"/>
<path d="M20.2377 10.1484L16.9514 7.10277L19.0903 6.44227L21.2383 5.7726L20.7426 7.96508L20.2377 10.1484Z" fill="#165C7D"/>
</svg>
