<svg width="24" height="24" viewBox="0 0 24 24" fill="none" xmlns="http://www.w3.org/2000/svg">
<path fill-rule="evenodd" clip-rule="evenodd" d="M15.3939 1.23013C15.7286 0.92329 16.2714 0.92329 16.6061 1.23013L21.7489 5.94442C22.0837 6.25126 22.0837 6.74874 21.7489 7.05558L16.6061 11.7699C16.2714 12.0767 15.7286 12.0767 15.3939 11.7699C15.0592 11.463 15.0592 10.9655 15.3939 10.6587L19.0735 7.28571H2.85714C2.38376 7.28571 2 6.93394 2 6.5C2 6.06606 2.38376 5.71429 2.85714 5.71429H19.0735L15.3939 2.3413C15.0592 2.03446 15.0592 1.53697 15.3939 1.23013Z" fill="#165C7D"/>
<path fill-rule="evenodd" clip-rule="evenodd" d="M7.60609 11.2301C7.27136 10.9233 6.72864 10.9233 6.39391 11.2301L1.25105 15.9444C0.916317 16.2513 0.916317 16.7487 1.25105 17.0556L6.39391 21.7699C6.72864 22.0767 7.27136 22.0767 7.60609 21.7699C7.94083 21.463 7.94083 20.9655 7.60609 20.6587L3.92647 17.2857H20.1429C20.6162 17.2857 21 16.9339 21 16.5C21 16.0661 20.6162 15.7143 20.1429 15.7143H3.92647L7.60609 12.3413C7.94083 12.0345 7.94083 11.537 7.60609 11.2301Z" fill="#165C7D"/>
</svg>
