<svg width="58" height="34" viewBox="0 0 58 34" fill="none" xmlns="http://www.w3.org/2000/svg">
<g clip-path="url(#clip0_435_2324)">
<path d="M25.0294 10.335L22.9464 23.305H26.2774L28.3594 10.339L25.0294 10.335ZM35.0774 15.616C33.9134 15.041 33.2004 14.653 33.2004 14.066C33.2144 13.532 33.8004 12.984 35.1194 12.984C35.9716 12.9597 36.8187 13.1236 37.6004 13.464L37.9004 13.599L38.3534 10.886C37.3977 10.5281 36.3849 10.3471 35.3644 10.352C32.0754 10.352 29.7644 12.062 29.7454 14.507C29.7184 16.307 31.4034 17.313 32.6644 17.914C33.9524 18.53 34.3914 18.93 34.3914 19.477C34.3774 20.318 33.3494 20.706 32.3914 20.706C31.3114 20.7358 30.2399 20.5068 29.2664 20.038L28.8274 19.838L28.3614 22.657C29.5482 23.1047 30.807 23.3314 32.0754 23.326C35.5754 23.326 37.8444 21.642 37.8754 19.036C37.8834 17.605 36.9954 16.512 35.0774 15.616ZM46.8924 10.375H44.3134C43.9485 10.33 43.579 10.4082 43.2636 10.5972C42.9482 10.7862 42.7049 11.0751 42.5724 11.418L37.6254 23.305H41.1254L42.0884 20.732H45.9984L46.4984 23.315H49.5774L46.8924 10.375ZM43.0544 18.132C43.1214 18.139 44.3954 13.932 44.3954 13.932L45.4104 18.132H43.0544ZM20.1654 10.332L16.9024 19.141L16.5474 17.404C15.7221 15.1362 14.0794 13.2585 11.9414 12.139L14.9294 23.285H18.4534L23.6894 10.334H20.1634L20.1654 10.332Z" fill="#2394BC"/>
<path d="M15.4475 12.0081C15.3319 11.524 15.0539 11.0942 14.6597 10.7903C14.2656 10.4864 13.7791 10.3268 13.2815 10.3381H8.11355L8.06055 10.5781C12.0915 11.5721 15.4745 14.6301 16.5725 17.5061L15.4475 12.0081Z" fill="#EFC75E"/>
</g>
<defs>
<clipPath id="clip0_435_2324">
<rect width="58" height="34" fill="white"/>
</clipPath>
</defs>
</svg>
