<svg width="24" height="24" viewBox="0 0 24 24" fill="none" xmlns="http://www.w3.org/2000/svg">
<path d="M4 7H8.87044C8.95541 7 9.03898 6.97834 9.11326 6.93708L12.4624 5.07642C12.7397 4.92239 12.8053 4.55246 12.5979 4.31246L10.9185 2.36865C10.7413 2.16352 10.4328 2.13699 10.2232 2.30885L4.63823 6.8867C4.54885 6.95996 4.43684 7 4.32127 7H4Z" stroke="#165C7D" stroke-width="1.5" stroke-linecap="round"/>
<path d="M18.04 5.72L16.4378 3.58376C16.1898 3.25304 15.7306 3.16577 15.3785 3.38243L11.9072 5.51867C11.2202 5.94144 11.5198 7 12.3264 7H17.4C18.0592 7 18.4355 6.24739 18.04 5.72Z" stroke="#165C7D" stroke-width="1.5" stroke-linecap="round"/>
<path d="M21 10V9C21 7.89543 20.1046 7 19 7H4C2.89543 7 2 7.89543 2 9V18.5C2 19.6046 2.89543 20.5 4 20.5H19C20.1046 20.5 21 19.6046 21 18.5V18" stroke="#165C7D" stroke-width="1.9" stroke-linecap="round"/>
<path d="M19.8 12.5H21.7C22.1418 12.5 22.5 12.8582 22.5 13.3V14.2C22.5 14.6418 22.1418 15 21.7 15H19.8C19.3582 15 19 14.6418 19 14.2V13.3C19 12.8582 19.3582 12.5 19.8 12.5Z" stroke="#165C7D" stroke-linecap="round"/>
</svg>
