<svg width="24" height="25" viewBox="0 0 24 25" fill="none" xmlns="http://www.w3.org/2000/svg">
<path d="M19.05 5.001C18.1332 4.07493 17.0412 3.34067 15.8377 2.84105C14.6341 2.34144 13.3432 2.08646 12.04 2.091C6.58005 2.091 2.13005 6.541 2.13005 12.001C2.13005 13.751 2.59005 15.451 3.45005 16.951L2.05005 22.091L7.30005 20.711C8.75005 21.501 10.38 21.921 12.04 21.921C17.5 21.921 21.9501 17.471 21.9501 12.011C21.9501 9.361 20.92 6.871 19.05 5.001ZM12.04 20.241C10.56 20.241 9.11005 19.841 7.84005 19.091L7.54005 18.911L4.42005 19.731L5.25005 16.691L5.05005 16.381C4.2278 15.068 3.79119 13.5502 3.79005 12.001C3.79005 7.461 7.49005 3.761 12.03 3.761C14.23 3.761 16.3 4.621 17.85 6.181C18.6175 6.94497 19.2257 7.85366 19.6394 8.85443C20.0531 9.85519 20.2641 10.9281 20.26 12.011C20.2801 16.551 16.58 20.241 12.04 20.241ZM16.56 14.081C16.31 13.961 15.09 13.361 14.87 13.271C14.64 13.191 14.48 13.151 14.31 13.391C14.14 13.641 13.67 14.201 13.53 14.361C13.39 14.531 13.24 14.551 12.99 14.421C12.74 14.301 11.94 14.031 11 13.191C10.26 12.531 9.77005 11.721 9.62005 11.471C9.48005 11.221 9.60005 11.091 9.73005 10.961C9.84005 10.851 9.98005 10.671 10.1 10.531C10.22 10.391 10.27 10.281 10.35 10.121C10.43 9.951 10.39 9.811 10.33 9.691C10.27 9.571 9.77005 8.351 9.57005 7.851C9.37005 7.371 9.16005 7.431 9.01005 7.421H8.53005C8.36005 7.421 8.10005 7.481 7.87005 7.731C7.65005 7.981 7.01005 8.581 7.01005 9.801C7.01005 11.021 7.90005 12.201 8.02005 12.361C8.14005 12.531 9.77005 15.031 12.25 16.101C12.84 16.361 13.3 16.511 13.66 16.621C14.25 16.811 14.79 16.781 15.22 16.721C15.7 16.651 16.69 16.121 16.89 15.541C17.1 14.961 17.1 14.471 17.03 14.361C16.96 14.251 16.81 14.201 16.56 14.081Z" fill="#165C7D"/>
</svg>
